<svg xmlns="http://www.w3.org/2000/svg" viewBox="0 0 24 24">
  <style>
    path {
      fill: #6495ED;
    }
    @media (prefers-color-scheme: dark) {
      path {
        fill: #7A8CA8;
      }
    }
  </style>
  <path d="M12 2c5.498 0 10 4.002 10 9c0 1.351-.6 2.64-1.654 3.576c-1.03.914-2.412 1.424-3.846 1.424h-2.516a1 1 0 0 0-.5 1.875a1 1 0 0 1 .194.14a2.3 2.3 0 0 1-1.597 3.99l-.156-.009l.068.004l-.273-.004c-5.3-.146-9.57-4.416-9.716-9.716L2 12c0-5.523 4.477-10 10-10m-3.5 6.5a2 2 0 0 0-1.995 1.85L6.5 10.5a2 2 0 1 0 2-2m8 0a2 2 0 0 0-1.995 1.85l-.005.15a2 2 0 1 0 2-2m-4-3a2 2 0 0 0-1.995 1.85L10.5 7.5a2 2 0 1 0 2-2" />
</svg>
