<?xml version="1.0" encoding="utf-8"?>
<!DOCTYPE svg PUBLIC "-//W3C//DTD SVG 1.1//EN" "http://www.w3.org/Graphics/SVG/1.1/DTD/svg11.dtd" [
	<!ENTITY ns_extend "http://ns.adobe.com/Extensibility/1.0/">
	<!ENTITY ns_ai "http://ns.adobe.com/AdobeIllustrator/10.0/">
	<!ENTITY ns_graphs "http://ns.adobe.com/Graphs/1.0/">
	<!ENTITY ns_vars "http://ns.adobe.com/Variables/1.0/">
	<!ENTITY ns_imrep "http://ns.adobe.com/ImageReplacement/1.0/">
	<!ENTITY ns_sfw "http://ns.adobe.com/SaveForWeb/1.0/">
	<!ENTITY ns_custom "http://ns.adobe.com/GenericCustomNamespace/1.0/">
	<!ENTITY ns_adobe_xpath "http://ns.adobe.com/XPath/1.0/">
]>
<svg xmlns="http://www.w3.org/2000/svg" xml:space="preserve" viewBox="0 0 169 158">
  <switch>
    <g>
      <path d="M8.5 133.7V72.9c0-1.6.6-3.1 1.8-4.3 1.2-1.2 2.6-1.8 4.3-1.8H42c1.6 0 3.1.6 4.3 1.8 1.2 1.2 1.8 2.6 1.8 4.3v60.8c0 1.6-.6 3.1-1.8 4.3-1.2 1.2-2.6 1.8-4.3 1.8H14.6c-1.6 0-3.1-.6-4.3-1.8-1.2-1.2-1.8-2.6-1.8-4.3zm12.2-12.1c0 1.7.6 3.2 1.8 4.3 1.2 1.2 2.6 1.8 4.3 1.8 1.6 0 3.1-.6 4.3-1.8 1.2-1.2 1.8-2.6 1.8-4.3 0-1.6-.6-3.1-1.8-4.3-1.2-1.2-2.6-1.8-4.3-1.8-1.7 0-3.2.6-4.3 1.8-1.2 1.2-1.8 2.6-1.8 4.3zm33.4 12.1V72.8c0-1.6.6-3 1.7-4.1 1.1-1.2 2.5-1.8 4.1-1.9 1.5-.1 3.9-2 7.2-5.6 3.3-3.6 6.5-7.4 9.6-11.5 4.3-5.5 7.5-9.3 9.6-11.4 1.1-1.1 2.1-2.7 2.9-4.6.8-1.9 1.4-3.4 1.7-4.6.3-1.2.7-3.1 1.3-5.7.4-2.5.8-4.4 1.2-5.8.3-1.4 1-3 1.9-4.9.9-1.9 2-3.5 3.2-4.7 1.2-1.2 2.6-1.8 4.3-1.8 2.9 0 5.5.3 7.8 1s4.2 1.5 5.7 2.5 2.8 2.3 3.8 3.8c1 1.6 1.8 3 2.3 4.3.5 1.3.9 2.8 1.1 4.7.3 1.9.4 3.3.5 4.3v3.7c0 2.4-.3 4.8-.9 7.2-.6 2.4-1.2 4.3-1.8 5.7-.6 1.4-1.5 3.2-2.6 5.3-.2.4-.5.9-.9 1.7-.4.8-.8 1.5-1 2.1-.3.6-.5 1.4-.8 2.3h26.3c4.9 0 9.2 1.8 12.8 5.4s5.4 7.9 5.4 12.8c0 5.4-1.7 10.2-5.2 14.2.9 2.8 1.4 5.2 1.4 7.2.2 4.8-1.2 9.2-4.1 13 1.1 3.5 1.1 7.3 0 11.1-.9 3.6-2.7 6.6-5.1 8.9.6 7.1-1 12.8-4.7 17.2-4.1 4.8-10.3 7.3-18.7 7.4h-12.2c-4.2 0-8.7-.5-13.7-1.5-4.9-1-8.8-1.9-11.5-2.8-2.8-.9-6.6-2.1-11.4-3.8-7.8-2.7-12.8-4.1-15-4.2-1.6-.1-3.1-.7-4.3-1.9-1.3-1-1.9-2.4-1.9-4.1z"/>
    </g>
  </switch>
</svg>