<svg xmlns="http://www.w3.org/2000/svg" viewBox="0 0 100 100" id="svg" style="--frame-c: #f6c6a4; --frame-bdw: 1em; stroke: rgb(51, 51, 51); stroke-width: 0.1; background-color: rgb(238, 238, 238); --frame-asr: 100 / 100.;"><line x1="17.59439056312256" y1="4.856727406460526" x2="0" y2="0"></line>
<line x1="17.59439056312256" y1="4.856727406460526" x2="0" y2="20"></line>
<line x1="17.59439056312256" y1="4.856727406460526" x2="4" y2="0"></line>
<line x1="17.59439056312256" y1="4.856727406460526" x2="4" y2="20"></line>
<line x1="17.59439056312256" y1="4.856727406460526" x2="8" y2="0"></line>
<line x1="17.59439056312256" y1="4.856727406460526" x2="8" y2="20"></line>
<line x1="17.59439056312256" y1="4.856727406460526" x2="12" y2="0"></line>
<line x1="17.59439056312256" y1="4.856727406460526" x2="12" y2="20"></line>
<line x1="17.59439056312256" y1="4.856727406460526" x2="16" y2="0"></line>
<line x1="17.59439056312256" y1="4.856727406460526" x2="16" y2="20"></line>
<line x1="17.59439056312256" y1="4.856727406460526" x2="20" y2="0"></line>
<line x1="17.59439056312256" y1="4.856727406460526" x2="20" y2="20"></line>
<line x1="17.59439056312256" y1="4.856727406460526" x2="0" y2="0"></line>
<line x1="17.59439056312256" y1="4.856727406460526" x2="20" y2="0"></line>
<line x1="17.59439056312256" y1="4.856727406460526" x2="0" y2="4"></line>
<line x1="17.59439056312256" y1="4.856727406460526" x2="20" y2="4"></line>
<line x1="17.59439056312256" y1="4.856727406460526" x2="0" y2="8"></line>
<line x1="17.59439056312256" y1="4.856727406460526" x2="20" y2="8"></line>
<line x1="17.59439056312256" y1="4.856727406460526" x2="0" y2="12"></line>
<line x1="17.59439056312256" y1="4.856727406460526" x2="20" y2="12"></line>
<line x1="17.59439056312256" y1="4.856727406460526" x2="0" y2="16"></line>
<line x1="17.59439056312256" y1="4.856727406460526" x2="20" y2="16"></line>
<line x1="17.59439056312256" y1="4.856727406460526" x2="0" y2="20"></line>
<line x1="17.59439056312256" y1="4.856727406460526" x2="20" y2="20"></line>
<line x1="30.85977632665015" y1="11.91331905626107" x2="20" y2="0"></line>
<line x1="30.85977632665015" y1="11.91331905626107" x2="20" y2="20"></line>
<line x1="30.85977632665015" y1="11.91331905626107" x2="24" y2="0"></line>
<line x1="30.85977632665015" y1="11.91331905626107" x2="24" y2="20"></line>
<line x1="30.85977632665015" y1="11.91331905626107" x2="28" y2="0"></line>
<line x1="30.85977632665015" y1="11.91331905626107" x2="28" y2="20"></line>
<line x1="30.85977632665015" y1="11.91331905626107" x2="32" y2="0"></line>
<line x1="30.85977632665015" y1="11.91331905626107" x2="32" y2="20"></line>
<line x1="30.85977632665015" y1="11.91331905626107" x2="36" y2="0"></line>
<line x1="30.85977632665015" y1="11.91331905626107" x2="36" y2="20"></line>
<line x1="30.85977632665015" y1="11.91331905626107" x2="40" y2="0"></line>
<line x1="30.85977632665015" y1="11.91331905626107" x2="40" y2="20"></line>
<line x1="30.85977632665015" y1="11.91331905626107" x2="20" y2="0"></line>
<line x1="30.85977632665015" y1="11.91331905626107" x2="40" y2="0"></line>
<line x1="30.85977632665015" y1="11.91331905626107" x2="20" y2="4"></line>
<line x1="30.85977632665015" y1="11.91331905626107" x2="40" y2="4"></line>
<line x1="30.85977632665015" y1="11.91331905626107" x2="20" y2="8"></line>
<line x1="30.85977632665015" y1="11.91331905626107" x2="40" y2="8"></line>
<line x1="30.85977632665015" y1="11.91331905626107" x2="20" y2="12"></line>
<line x1="30.85977632665015" y1="11.91331905626107" x2="40" y2="12"></line>
<line x1="30.85977632665015" y1="11.91331905626107" x2="20" y2="16"></line>
<line x1="30.85977632665015" y1="11.91331905626107" x2="40" y2="16"></line>
<line x1="30.85977632665015" y1="11.91331905626107" x2="20" y2="20"></line>
<line x1="30.85977632665015" y1="11.91331905626107" x2="40" y2="20"></line>
<line x1="41.05980901906169" y1="12.143080369692218" x2="40" y2="0"></line>
<line x1="41.05980901906169" y1="12.143080369692218" x2="40" y2="20"></line>
<line x1="41.05980901906169" y1="12.143080369692218" x2="44" y2="0"></line>
<line x1="41.05980901906169" y1="12.143080369692218" x2="44" y2="20"></line>
<line x1="41.05980901906169" y1="12.143080369692218" x2="48" y2="0"></line>
<line x1="41.05980901906169" y1="12.143080369692218" x2="48" y2="20"></line>
<line x1="41.05980901906169" y1="12.143080369692218" x2="52" y2="0"></line>
<line x1="41.05980901906169" y1="12.143080369692218" x2="52" y2="20"></line>
<line x1="41.05980901906169" y1="12.143080369692218" x2="56" y2="0"></line>
<line x1="41.05980901906169" y1="12.143080369692218" x2="56" y2="20"></line>
<line x1="41.05980901906169" y1="12.143080369692218" x2="60" y2="0"></line>
<line x1="41.05980901906169" y1="12.143080369692218" x2="60" y2="20"></line>
<line x1="41.05980901906169" y1="12.143080369692218" x2="40" y2="0"></line>
<line x1="41.05980901906169" y1="12.143080369692218" x2="60" y2="0"></line>
<line x1="41.05980901906169" y1="12.143080369692218" x2="40" y2="4"></line>
<line x1="41.05980901906169" y1="12.143080369692218" x2="60" y2="4"></line>
<line x1="41.05980901906169" y1="12.143080369692218" x2="40" y2="8"></line>
<line x1="41.05980901906169" y1="12.143080369692218" x2="60" y2="8"></line>
<line x1="41.05980901906169" y1="12.143080369692218" x2="40" y2="12"></line>
<line x1="41.05980901906169" y1="12.143080369692218" x2="60" y2="12"></line>
<line x1="41.05980901906169" y1="12.143080369692218" x2="40" y2="16"></line>
<line x1="41.05980901906169" y1="12.143080369692218" x2="60" y2="16"></line>
<line x1="41.05980901906169" y1="12.143080369692218" x2="40" y2="20"></line>
<line x1="41.05980901906169" y1="12.143080369692218" x2="60" y2="20"></line>
<line x1="75.66246120740087" y1="9.583764464789407" x2="60" y2="0"></line>
<line x1="75.66246120740087" y1="9.583764464789407" x2="60" y2="20"></line>
<line x1="75.66246120740087" y1="9.583764464789407" x2="64" y2="0"></line>
<line x1="75.66246120740087" y1="9.583764464789407" x2="64" y2="20"></line>
<line x1="75.66246120740087" y1="9.583764464789407" x2="68" y2="0"></line>
<line x1="75.66246120740087" y1="9.583764464789407" x2="68" y2="20"></line>
<line x1="75.66246120740087" y1="9.583764464789407" x2="72" y2="0"></line>
<line x1="75.66246120740087" y1="9.583764464789407" x2="72" y2="20"></line>
<line x1="75.66246120740087" y1="9.583764464789407" x2="76" y2="0"></line>
<line x1="75.66246120740087" y1="9.583764464789407" x2="76" y2="20"></line>
<line x1="75.66246120740087" y1="9.583764464789407" x2="80" y2="0"></line>
<line x1="75.66246120740087" y1="9.583764464789407" x2="80" y2="20"></line>
<line x1="75.66246120740087" y1="9.583764464789407" x2="60" y2="0"></line>
<line x1="75.66246120740087" y1="9.583764464789407" x2="80" y2="0"></line>
<line x1="75.66246120740087" y1="9.583764464789407" x2="60" y2="4"></line>
<line x1="75.66246120740087" y1="9.583764464789407" x2="80" y2="4"></line>
<line x1="75.66246120740087" y1="9.583764464789407" x2="60" y2="8"></line>
<line x1="75.66246120740087" y1="9.583764464789407" x2="80" y2="8"></line>
<line x1="75.66246120740087" y1="9.583764464789407" x2="60" y2="12"></line>
<line x1="75.66246120740087" y1="9.583764464789407" x2="80" y2="12"></line>
<line x1="75.66246120740087" y1="9.583764464789407" x2="60" y2="16"></line>
<line x1="75.66246120740087" y1="9.583764464789407" x2="80" y2="16"></line>
<line x1="75.66246120740087" y1="9.583764464789407" x2="60" y2="20"></line>
<line x1="75.66246120740087" y1="9.583764464789407" x2="80" y2="20"></line>
<line x1="81.17731986361305" y1="11.687445343871188" x2="80" y2="0"></line>
<line x1="81.17731986361305" y1="11.687445343871188" x2="80" y2="20"></line>
<line x1="81.17731986361305" y1="11.687445343871188" x2="84" y2="0"></line>
<line x1="81.17731986361305" y1="11.687445343871188" x2="84" y2="20"></line>
<line x1="81.17731986361305" y1="11.687445343871188" x2="88" y2="0"></line>
<line x1="81.17731986361305" y1="11.687445343871188" x2="88" y2="20"></line>
<line x1="81.17731986361305" y1="11.687445343871188" x2="92" y2="0"></line>
<line x1="81.17731986361305" y1="11.687445343871188" x2="92" y2="20"></line>
<line x1="81.17731986361305" y1="11.687445343871188" x2="96" y2="0"></line>
<line x1="81.17731986361305" y1="11.687445343871188" x2="96" y2="20"></line>
<line x1="81.17731986361305" y1="11.687445343871188" x2="100" y2="0"></line>
<line x1="81.17731986361305" y1="11.687445343871188" x2="100" y2="20"></line>
<line x1="81.17731986361305" y1="11.687445343871188" x2="80" y2="0"></line>
<line x1="81.17731986361305" y1="11.687445343871188" x2="100" y2="0"></line>
<line x1="81.17731986361305" y1="11.687445343871188" x2="80" y2="4"></line>
<line x1="81.17731986361305" y1="11.687445343871188" x2="100" y2="4"></line>
<line x1="81.17731986361305" y1="11.687445343871188" x2="80" y2="8"></line>
<line x1="81.17731986361305" y1="11.687445343871188" x2="100" y2="8"></line>
<line x1="81.17731986361305" y1="11.687445343871188" x2="80" y2="12"></line>
<line x1="81.17731986361305" y1="11.687445343871188" x2="100" y2="12"></line>
<line x1="81.17731986361305" y1="11.687445343871188" x2="80" y2="16"></line>
<line x1="81.17731986361305" y1="11.687445343871188" x2="100" y2="16"></line>
<line x1="81.17731986361305" y1="11.687445343871188" x2="80" y2="20"></line>
<line x1="81.17731986361305" y1="11.687445343871188" x2="100" y2="20"></line>
<line x1="19.53556389107051" y1="22.62474848014682" x2="0" y2="20"></line>
<line x1="19.53556389107051" y1="22.62474848014682" x2="0" y2="40"></line>
<line x1="19.53556389107051" y1="22.62474848014682" x2="4" y2="20"></line>
<line x1="19.53556389107051" y1="22.62474848014682" x2="4" y2="40"></line>
<line x1="19.53556389107051" y1="22.62474848014682" x2="8" y2="20"></line>
<line x1="19.53556389107051" y1="22.62474848014682" x2="8" y2="40"></line>
<line x1="19.53556389107051" y1="22.62474848014682" x2="12" y2="20"></line>
<line x1="19.53556389107051" y1="22.62474848014682" x2="12" y2="40"></line>
<line x1="19.53556389107051" y1="22.62474848014682" x2="16" y2="20"></line>
<line x1="19.53556389107051" y1="22.62474848014682" x2="16" y2="40"></line>
<line x1="19.53556389107051" y1="22.62474848014682" x2="20" y2="20"></line>
<line x1="19.53556389107051" y1="22.62474848014682" x2="20" y2="40"></line>
<line x1="19.53556389107051" y1="22.62474848014682" x2="0" y2="20"></line>
<line x1="19.53556389107051" y1="22.62474848014682" x2="20" y2="20"></line>
<line x1="19.53556389107051" y1="22.62474848014682" x2="0" y2="24"></line>
<line x1="19.53556389107051" y1="22.62474848014682" x2="20" y2="24"></line>
<line x1="19.53556389107051" y1="22.62474848014682" x2="0" y2="28"></line>
<line x1="19.53556389107051" y1="22.62474848014682" x2="20" y2="28"></line>
<line x1="19.53556389107051" y1="22.62474848014682" x2="0" y2="32"></line>
<line x1="19.53556389107051" y1="22.62474848014682" x2="20" y2="32"></line>
<line x1="19.53556389107051" y1="22.62474848014682" x2="0" y2="36"></line>
<line x1="19.53556389107051" y1="22.62474848014682" x2="20" y2="36"></line>
<line x1="19.53556389107051" y1="22.62474848014682" x2="0" y2="40"></line>
<line x1="19.53556389107051" y1="22.62474848014682" x2="20" y2="40"></line>
<line x1="20.2012988274902" y1="38.52127028720889" x2="20" y2="20"></line>
<line x1="20.2012988274902" y1="38.52127028720889" x2="20" y2="40"></line>
<line x1="20.2012988274902" y1="38.52127028720889" x2="24" y2="20"></line>
<line x1="20.2012988274902" y1="38.52127028720889" x2="24" y2="40"></line>
<line x1="20.2012988274902" y1="38.52127028720889" x2="28" y2="20"></line>
<line x1="20.2012988274902" y1="38.52127028720889" x2="28" y2="40"></line>
<line x1="20.2012988274902" y1="38.52127028720889" x2="32" y2="20"></line>
<line x1="20.2012988274902" y1="38.52127028720889" x2="32" y2="40"></line>
<line x1="20.2012988274902" y1="38.52127028720889" x2="36" y2="20"></line>
<line x1="20.2012988274902" y1="38.52127028720889" x2="36" y2="40"></line>
<line x1="20.2012988274902" y1="38.52127028720889" x2="40" y2="20"></line>
<line x1="20.2012988274902" y1="38.52127028720889" x2="40" y2="40"></line>
<line x1="20.2012988274902" y1="38.52127028720889" x2="20" y2="20"></line>
<line x1="20.2012988274902" y1="38.52127028720889" x2="40" y2="20"></line>
<line x1="20.2012988274902" y1="38.52127028720889" x2="20" y2="24"></line>
<line x1="20.2012988274902" y1="38.52127028720889" x2="40" y2="24"></line>
<line x1="20.2012988274902" y1="38.52127028720889" x2="20" y2="28"></line>
<line x1="20.2012988274902" y1="38.52127028720889" x2="40" y2="28"></line>
<line x1="20.2012988274902" y1="38.52127028720889" x2="20" y2="32"></line>
<line x1="20.2012988274902" y1="38.52127028720889" x2="40" y2="32"></line>
<line x1="20.2012988274902" y1="38.52127028720889" x2="20" y2="36"></line>
<line x1="20.2012988274902" y1="38.52127028720889" x2="40" y2="36"></line>
<line x1="20.2012988274902" y1="38.52127028720889" x2="20" y2="40"></line>
<line x1="20.2012988274902" y1="38.52127028720889" x2="40" y2="40"></line>
<line x1="55.6106738030433" y1="25.161453269626048" x2="40" y2="20"></line>
<line x1="55.6106738030433" y1="25.161453269626048" x2="40" y2="40"></line>
<line x1="55.6106738030433" y1="25.161453269626048" x2="44" y2="20"></line>
<line x1="55.6106738030433" y1="25.161453269626048" x2="44" y2="40"></line>
<line x1="55.6106738030433" y1="25.161453269626048" x2="48" y2="20"></line>
<line x1="55.6106738030433" y1="25.161453269626048" x2="48" y2="40"></line>
<line x1="55.6106738030433" y1="25.161453269626048" x2="52" y2="20"></line>
<line x1="55.6106738030433" y1="25.161453269626048" x2="52" y2="40"></line>
<line x1="55.6106738030433" y1="25.161453269626048" x2="56" y2="20"></line>
<line x1="55.6106738030433" y1="25.161453269626048" x2="56" y2="40"></line>
<line x1="55.6106738030433" y1="25.161453269626048" x2="60" y2="20"></line>
<line x1="55.6106738030433" y1="25.161453269626048" x2="60" y2="40"></line>
<line x1="55.6106738030433" y1="25.161453269626048" x2="40" y2="20"></line>
<line x1="55.6106738030433" y1="25.161453269626048" x2="60" y2="20"></line>
<line x1="55.6106738030433" y1="25.161453269626048" x2="40" y2="24"></line>
<line x1="55.6106738030433" y1="25.161453269626048" x2="60" y2="24"></line>
<line x1="55.6106738030433" y1="25.161453269626048" x2="40" y2="28"></line>
<line x1="55.6106738030433" y1="25.161453269626048" x2="60" y2="28"></line>
<line x1="55.6106738030433" y1="25.161453269626048" x2="40" y2="32"></line>
<line x1="55.6106738030433" y1="25.161453269626048" x2="60" y2="32"></line>
<line x1="55.6106738030433" y1="25.161453269626048" x2="40" y2="36"></line>
<line x1="55.6106738030433" y1="25.161453269626048" x2="60" y2="36"></line>
<line x1="55.6106738030433" y1="25.161453269626048" x2="40" y2="40"></line>
<line x1="55.6106738030433" y1="25.161453269626048" x2="60" y2="40"></line>
<line x1="72.50306879906222" y1="21.53563963003881" x2="60" y2="20"></line>
<line x1="72.50306879906222" y1="21.53563963003881" x2="60" y2="40"></line>
<line x1="72.50306879906222" y1="21.53563963003881" x2="64" y2="20"></line>
<line x1="72.50306879906222" y1="21.53563963003881" x2="64" y2="40"></line>
<line x1="72.50306879906222" y1="21.53563963003881" x2="68" y2="20"></line>
<line x1="72.50306879906222" y1="21.53563963003881" x2="68" y2="40"></line>
<line x1="72.50306879906222" y1="21.53563963003881" x2="72" y2="20"></line>
<line x1="72.50306879906222" y1="21.53563963003881" x2="72" y2="40"></line>
<line x1="72.50306879906222" y1="21.53563963003881" x2="76" y2="20"></line>
<line x1="72.50306879906222" y1="21.53563963003881" x2="76" y2="40"></line>
<line x1="72.50306879906222" y1="21.53563963003881" x2="80" y2="20"></line>
<line x1="72.50306879906222" y1="21.53563963003881" x2="80" y2="40"></line>
<line x1="72.50306879906222" y1="21.53563963003881" x2="60" y2="20"></line>
<line x1="72.50306879906222" y1="21.53563963003881" x2="80" y2="20"></line>
<line x1="72.50306879906222" y1="21.53563963003881" x2="60" y2="24"></line>
<line x1="72.50306879906222" y1="21.53563963003881" x2="80" y2="24"></line>
<line x1="72.50306879906222" y1="21.53563963003881" x2="60" y2="28"></line>
<line x1="72.50306879906222" y1="21.53563963003881" x2="80" y2="28"></line>
<line x1="72.50306879906222" y1="21.53563963003881" x2="60" y2="32"></line>
<line x1="72.50306879906222" y1="21.53563963003881" x2="80" y2="32"></line>
<line x1="72.50306879906222" y1="21.53563963003881" x2="60" y2="36"></line>
<line x1="72.50306879906222" y1="21.53563963003881" x2="80" y2="36"></line>
<line x1="72.50306879906222" y1="21.53563963003881" x2="60" y2="40"></line>
<line x1="72.50306879906222" y1="21.53563963003881" x2="80" y2="40"></line>
<line x1="87.01943854295332" y1="26.602349569875674" x2="80" y2="20"></line>
<line x1="87.01943854295332" y1="26.602349569875674" x2="80" y2="40"></line>
<line x1="87.01943854295332" y1="26.602349569875674" x2="84" y2="20"></line>
<line x1="87.01943854295332" y1="26.602349569875674" x2="84" y2="40"></line>
<line x1="87.01943854295332" y1="26.602349569875674" x2="88" y2="20"></line>
<line x1="87.01943854295332" y1="26.602349569875674" x2="88" y2="40"></line>
<line x1="87.01943854295332" y1="26.602349569875674" x2="92" y2="20"></line>
<line x1="87.01943854295332" y1="26.602349569875674" x2="92" y2="40"></line>
<line x1="87.01943854295332" y1="26.602349569875674" x2="96" y2="20"></line>
<line x1="87.01943854295332" y1="26.602349569875674" x2="96" y2="40"></line>
<line x1="87.01943854295332" y1="26.602349569875674" x2="100" y2="20"></line>
<line x1="87.01943854295332" y1="26.602349569875674" x2="100" y2="40"></line>
<line x1="87.01943854295332" y1="26.602349569875674" x2="80" y2="20"></line>
<line x1="87.01943854295332" y1="26.602349569875674" x2="100" y2="20"></line>
<line x1="87.01943854295332" y1="26.602349569875674" x2="80" y2="24"></line>
<line x1="87.01943854295332" y1="26.602349569875674" x2="100" y2="24"></line>
<line x1="87.01943854295332" y1="26.602349569875674" x2="80" y2="28"></line>
<line x1="87.01943854295332" y1="26.602349569875674" x2="100" y2="28"></line>
<line x1="87.01943854295332" y1="26.602349569875674" x2="80" y2="32"></line>
<line x1="87.01943854295332" y1="26.602349569875674" x2="100" y2="32"></line>
<line x1="87.01943854295332" y1="26.602349569875674" x2="80" y2="36"></line>
<line x1="87.01943854295332" y1="26.602349569875674" x2="100" y2="36"></line>
<line x1="87.01943854295332" y1="26.602349569875674" x2="80" y2="40"></line>
<line x1="87.01943854295332" y1="26.602349569875674" x2="100" y2="40"></line>
<line x1="12.140342204315925" y1="40.25191021031778" x2="0" y2="40"></line>
<line x1="12.140342204315925" y1="40.25191021031778" x2="0" y2="60"></line>
<line x1="12.140342204315925" y1="40.25191021031778" x2="4" y2="40"></line>
<line x1="12.140342204315925" y1="40.25191021031778" x2="4" y2="60"></line>
<line x1="12.140342204315925" y1="40.25191021031778" x2="8" y2="40"></line>
<line x1="12.140342204315925" y1="40.25191021031778" x2="8" y2="60"></line>
<line x1="12.140342204315925" y1="40.25191021031778" x2="12" y2="40"></line>
<line x1="12.140342204315925" y1="40.25191021031778" x2="12" y2="60"></line>
<line x1="12.140342204315925" y1="40.25191021031778" x2="16" y2="40"></line>
<line x1="12.140342204315925" y1="40.25191021031778" x2="16" y2="60"></line>
<line x1="12.140342204315925" y1="40.25191021031778" x2="20" y2="40"></line>
<line x1="12.140342204315925" y1="40.25191021031778" x2="20" y2="60"></line>
<line x1="12.140342204315925" y1="40.25191021031778" x2="0" y2="40"></line>
<line x1="12.140342204315925" y1="40.25191021031778" x2="20" y2="40"></line>
<line x1="12.140342204315925" y1="40.25191021031778" x2="0" y2="44"></line>
<line x1="12.140342204315925" y1="40.25191021031778" x2="20" y2="44"></line>
<line x1="12.140342204315925" y1="40.25191021031778" x2="0" y2="48"></line>
<line x1="12.140342204315925" y1="40.25191021031778" x2="20" y2="48"></line>
<line x1="12.140342204315925" y1="40.25191021031778" x2="0" y2="52"></line>
<line x1="12.140342204315925" y1="40.25191021031778" x2="20" y2="52"></line>
<line x1="12.140342204315925" y1="40.25191021031778" x2="0" y2="56"></line>
<line x1="12.140342204315925" y1="40.25191021031778" x2="20" y2="56"></line>
<line x1="12.140342204315925" y1="40.25191021031778" x2="0" y2="60"></line>
<line x1="12.140342204315925" y1="40.25191021031778" x2="20" y2="60"></line>
<line x1="29.513883307639524" y1="57.74196052831087" x2="20" y2="40"></line>
<line x1="29.513883307639524" y1="57.74196052831087" x2="20" y2="60"></line>
<line x1="29.513883307639524" y1="57.74196052831087" x2="24" y2="40"></line>
<line x1="29.513883307639524" y1="57.74196052831087" x2="24" y2="60"></line>
<line x1="29.513883307639524" y1="57.74196052831087" x2="28" y2="40"></line>
<line x1="29.513883307639524" y1="57.74196052831087" x2="28" y2="60"></line>
<line x1="29.513883307639524" y1="57.74196052831087" x2="32" y2="40"></line>
<line x1="29.513883307639524" y1="57.74196052831087" x2="32" y2="60"></line>
<line x1="29.513883307639524" y1="57.74196052831087" x2="36" y2="40"></line>
<line x1="29.513883307639524" y1="57.74196052831087" x2="36" y2="60"></line>
<line x1="29.513883307639524" y1="57.74196052831087" x2="40" y2="40"></line>
<line x1="29.513883307639524" y1="57.74196052831087" x2="40" y2="60"></line>
<line x1="29.513883307639524" y1="57.74196052831087" x2="20" y2="40"></line>
<line x1="29.513883307639524" y1="57.74196052831087" x2="40" y2="40"></line>
<line x1="29.513883307639524" y1="57.74196052831087" x2="20" y2="44"></line>
<line x1="29.513883307639524" y1="57.74196052831087" x2="40" y2="44"></line>
<line x1="29.513883307639524" y1="57.74196052831087" x2="20" y2="48"></line>
<line x1="29.513883307639524" y1="57.74196052831087" x2="40" y2="48"></line>
<line x1="29.513883307639524" y1="57.74196052831087" x2="20" y2="52"></line>
<line x1="29.513883307639524" y1="57.74196052831087" x2="40" y2="52"></line>
<line x1="29.513883307639524" y1="57.74196052831087" x2="20" y2="56"></line>
<line x1="29.513883307639524" y1="57.74196052831087" x2="40" y2="56"></line>
<line x1="29.513883307639524" y1="57.74196052831087" x2="20" y2="60"></line>
<line x1="29.513883307639524" y1="57.74196052831087" x2="40" y2="60"></line>
<line x1="53.57105306735801" y1="52.808768575727356" x2="40" y2="40"></line>
<line x1="53.57105306735801" y1="52.808768575727356" x2="40" y2="60"></line>
<line x1="53.57105306735801" y1="52.808768575727356" x2="44" y2="40"></line>
<line x1="53.57105306735801" y1="52.808768575727356" x2="44" y2="60"></line>
<line x1="53.57105306735801" y1="52.808768575727356" x2="48" y2="40"></line>
<line x1="53.57105306735801" y1="52.808768575727356" x2="48" y2="60"></line>
<line x1="53.57105306735801" y1="52.808768575727356" x2="52" y2="40"></line>
<line x1="53.57105306735801" y1="52.808768575727356" x2="52" y2="60"></line>
<line x1="53.57105306735801" y1="52.808768575727356" x2="56" y2="40"></line>
<line x1="53.57105306735801" y1="52.808768575727356" x2="56" y2="60"></line>
<line x1="53.57105306735801" y1="52.808768575727356" x2="60" y2="40"></line>
<line x1="53.57105306735801" y1="52.808768575727356" x2="60" y2="60"></line>
<line x1="53.57105306735801" y1="52.808768575727356" x2="40" y2="40"></line>
<line x1="53.57105306735801" y1="52.808768575727356" x2="60" y2="40"></line>
<line x1="53.57105306735801" y1="52.808768575727356" x2="40" y2="44"></line>
<line x1="53.57105306735801" y1="52.808768575727356" x2="60" y2="44"></line>
<line x1="53.57105306735801" y1="52.808768575727356" x2="40" y2="48"></line>
<line x1="53.57105306735801" y1="52.808768575727356" x2="60" y2="48"></line>
<line x1="53.57105306735801" y1="52.808768575727356" x2="40" y2="52"></line>
<line x1="53.57105306735801" y1="52.808768575727356" x2="60" y2="52"></line>
<line x1="53.57105306735801" y1="52.808768575727356" x2="40" y2="56"></line>
<line x1="53.57105306735801" y1="52.808768575727356" x2="60" y2="56"></line>
<line x1="53.57105306735801" y1="52.808768575727356" x2="40" y2="60"></line>
<line x1="53.57105306735801" y1="52.808768575727356" x2="60" y2="60"></line>
<line x1="77.57905706084549" y1="58.81246494348575" x2="60" y2="40"></line>
<line x1="77.57905706084549" y1="58.81246494348575" x2="60" y2="60"></line>
<line x1="77.57905706084549" y1="58.81246494348575" x2="64" y2="40"></line>
<line x1="77.57905706084549" y1="58.81246494348575" x2="64" y2="60"></line>
<line x1="77.57905706084549" y1="58.81246494348575" x2="68" y2="40"></line>
<line x1="77.57905706084549" y1="58.81246494348575" x2="68" y2="60"></line>
<line x1="77.57905706084549" y1="58.81246494348575" x2="72" y2="40"></line>
<line x1="77.57905706084549" y1="58.81246494348575" x2="72" y2="60"></line>
<line x1="77.57905706084549" y1="58.81246494348575" x2="76" y2="40"></line>
<line x1="77.57905706084549" y1="58.81246494348575" x2="76" y2="60"></line>
<line x1="77.57905706084549" y1="58.81246494348575" x2="80" y2="40"></line>
<line x1="77.57905706084549" y1="58.81246494348575" x2="80" y2="60"></line>
<line x1="77.57905706084549" y1="58.81246494348575" x2="60" y2="40"></line>
<line x1="77.57905706084549" y1="58.81246494348575" x2="80" y2="40"></line>
<line x1="77.57905706084549" y1="58.81246494348575" x2="60" y2="44"></line>
<line x1="77.57905706084549" y1="58.81246494348575" x2="80" y2="44"></line>
<line x1="77.57905706084549" y1="58.81246494348575" x2="60" y2="48"></line>
<line x1="77.57905706084549" y1="58.81246494348575" x2="80" y2="48"></line>
<line x1="77.57905706084549" y1="58.81246494348575" x2="60" y2="52"></line>
<line x1="77.57905706084549" y1="58.81246494348575" x2="80" y2="52"></line>
<line x1="77.57905706084549" y1="58.81246494348575" x2="60" y2="56"></line>
<line x1="77.57905706084549" y1="58.81246494348575" x2="80" y2="56"></line>
<line x1="77.57905706084549" y1="58.81246494348575" x2="60" y2="60"></line>
<line x1="77.57905706084549" y1="58.81246494348575" x2="80" y2="60"></line>
<line x1="86.6508657199354" y1="47.86365927469213" x2="80" y2="40"></line>
<line x1="86.6508657199354" y1="47.86365927469213" x2="80" y2="60"></line>
<line x1="86.6508657199354" y1="47.86365927469213" x2="84" y2="40"></line>
<line x1="86.6508657199354" y1="47.86365927469213" x2="84" y2="60"></line>
<line x1="86.6508657199354" y1="47.86365927469213" x2="88" y2="40"></line>
<line x1="86.6508657199354" y1="47.86365927469213" x2="88" y2="60"></line>
<line x1="86.6508657199354" y1="47.86365927469213" x2="92" y2="40"></line>
<line x1="86.6508657199354" y1="47.86365927469213" x2="92" y2="60"></line>
<line x1="86.6508657199354" y1="47.86365927469213" x2="96" y2="40"></line>
<line x1="86.6508657199354" y1="47.86365927469213" x2="96" y2="60"></line>
<line x1="86.6508657199354" y1="47.86365927469213" x2="100" y2="40"></line>
<line x1="86.6508657199354" y1="47.86365927469213" x2="100" y2="60"></line>
<line x1="86.6508657199354" y1="47.86365927469213" x2="80" y2="40"></line>
<line x1="86.6508657199354" y1="47.86365927469213" x2="100" y2="40"></line>
<line x1="86.6508657199354" y1="47.86365927469213" x2="80" y2="44"></line>
<line x1="86.6508657199354" y1="47.86365927469213" x2="100" y2="44"></line>
<line x1="86.6508657199354" y1="47.86365927469213" x2="80" y2="48"></line>
<line x1="86.6508657199354" y1="47.86365927469213" x2="100" y2="48"></line>
<line x1="86.6508657199354" y1="47.86365927469213" x2="80" y2="52"></line>
<line x1="86.6508657199354" y1="47.86365927469213" x2="100" y2="52"></line>
<line x1="86.6508657199354" y1="47.86365927469213" x2="80" y2="56"></line>
<line x1="86.6508657199354" y1="47.86365927469213" x2="100" y2="56"></line>
<line x1="86.6508657199354" y1="47.86365927469213" x2="80" y2="60"></line>
<line x1="86.6508657199354" y1="47.86365927469213" x2="100" y2="60"></line>
<line x1="19.71046639422472" y1="75.25091972065992" x2="0" y2="60"></line>
<line x1="19.71046639422472" y1="75.25091972065992" x2="0" y2="80"></line>
<line x1="19.71046639422472" y1="75.25091972065992" x2="4" y2="60"></line>
<line x1="19.71046639422472" y1="75.25091972065992" x2="4" y2="80"></line>
<line x1="19.71046639422472" y1="75.25091972065992" x2="8" y2="60"></line>
<line x1="19.71046639422472" y1="75.25091972065992" x2="8" y2="80"></line>
<line x1="19.71046639422472" y1="75.25091972065992" x2="12" y2="60"></line>
<line x1="19.71046639422472" y1="75.25091972065992" x2="12" y2="80"></line>
<line x1="19.71046639422472" y1="75.25091972065992" x2="16" y2="60"></line>
<line x1="19.71046639422472" y1="75.25091972065992" x2="16" y2="80"></line>
<line x1="19.71046639422472" y1="75.25091972065992" x2="20" y2="60"></line>
<line x1="19.71046639422472" y1="75.25091972065992" x2="20" y2="80"></line>
<line x1="19.71046639422472" y1="75.25091972065992" x2="0" y2="60"></line>
<line x1="19.71046639422472" y1="75.25091972065992" x2="20" y2="60"></line>
<line x1="19.71046639422472" y1="75.25091972065992" x2="0" y2="64"></line>
<line x1="19.71046639422472" y1="75.25091972065992" x2="20" y2="64"></line>
<line x1="19.71046639422472" y1="75.25091972065992" x2="0" y2="68"></line>
<line x1="19.71046639422472" y1="75.25091972065992" x2="20" y2="68"></line>
<line x1="19.71046639422472" y1="75.25091972065992" x2="0" y2="72"></line>
<line x1="19.71046639422472" y1="75.25091972065992" x2="20" y2="72"></line>
<line x1="19.71046639422472" y1="75.25091972065992" x2="0" y2="76"></line>
<line x1="19.71046639422472" y1="75.25091972065992" x2="20" y2="76"></line>
<line x1="19.71046639422472" y1="75.25091972065992" x2="0" y2="80"></line>
<line x1="19.71046639422472" y1="75.25091972065992" x2="20" y2="80"></line>
<line x1="21.983158943440188" y1="68.188804858551" x2="20" y2="60"></line>
<line x1="21.983158943440188" y1="68.188804858551" x2="20" y2="80"></line>
<line x1="21.983158943440188" y1="68.188804858551" x2="24" y2="60"></line>
<line x1="21.983158943440188" y1="68.188804858551" x2="24" y2="80"></line>
<line x1="21.983158943440188" y1="68.188804858551" x2="28" y2="60"></line>
<line x1="21.983158943440188" y1="68.188804858551" x2="28" y2="80"></line>
<line x1="21.983158943440188" y1="68.188804858551" x2="32" y2="60"></line>
<line x1="21.983158943440188" y1="68.188804858551" x2="32" y2="80"></line>
<line x1="21.983158943440188" y1="68.188804858551" x2="36" y2="60"></line>
<line x1="21.983158943440188" y1="68.188804858551" x2="36" y2="80"></line>
<line x1="21.983158943440188" y1="68.188804858551" x2="40" y2="60"></line>
<line x1="21.983158943440188" y1="68.188804858551" x2="40" y2="80"></line>
<line x1="21.983158943440188" y1="68.188804858551" x2="20" y2="60"></line>
<line x1="21.983158943440188" y1="68.188804858551" x2="40" y2="60"></line>
<line x1="21.983158943440188" y1="68.188804858551" x2="20" y2="64"></line>
<line x1="21.983158943440188" y1="68.188804858551" x2="40" y2="64"></line>
<line x1="21.983158943440188" y1="68.188804858551" x2="20" y2="68"></line>
<line x1="21.983158943440188" y1="68.188804858551" x2="40" y2="68"></line>
<line x1="21.983158943440188" y1="68.188804858551" x2="20" y2="72"></line>
<line x1="21.983158943440188" y1="68.188804858551" x2="40" y2="72"></line>
<line x1="21.983158943440188" y1="68.188804858551" x2="20" y2="76"></line>
<line x1="21.983158943440188" y1="68.188804858551" x2="40" y2="76"></line>
<line x1="21.983158943440188" y1="68.188804858551" x2="20" y2="80"></line>
<line x1="21.983158943440188" y1="68.188804858551" x2="40" y2="80"></line>
<line x1="55.701057252389404" y1="60.705885078112004" x2="40" y2="60"></line>
<line x1="55.701057252389404" y1="60.705885078112004" x2="40" y2="80"></line>
<line x1="55.701057252389404" y1="60.705885078112004" x2="44" y2="60"></line>
<line x1="55.701057252389404" y1="60.705885078112004" x2="44" y2="80"></line>
<line x1="55.701057252389404" y1="60.705885078112004" x2="48" y2="60"></line>
<line x1="55.701057252389404" y1="60.705885078112004" x2="48" y2="80"></line>
<line x1="55.701057252389404" y1="60.705885078112004" x2="52" y2="60"></line>
<line x1="55.701057252389404" y1="60.705885078112004" x2="52" y2="80"></line>
<line x1="55.701057252389404" y1="60.705885078112004" x2="56" y2="60"></line>
<line x1="55.701057252389404" y1="60.705885078112004" x2="56" y2="80"></line>
<line x1="55.701057252389404" y1="60.705885078112004" x2="60" y2="60"></line>
<line x1="55.701057252389404" y1="60.705885078112004" x2="60" y2="80"></line>
<line x1="55.701057252389404" y1="60.705885078112004" x2="40" y2="60"></line>
<line x1="55.701057252389404" y1="60.705885078112004" x2="60" y2="60"></line>
<line x1="55.701057252389404" y1="60.705885078112004" x2="40" y2="64"></line>
<line x1="55.701057252389404" y1="60.705885078112004" x2="60" y2="64"></line>
<line x1="55.701057252389404" y1="60.705885078112004" x2="40" y2="68"></line>
<line x1="55.701057252389404" y1="60.705885078112004" x2="60" y2="68"></line>
<line x1="55.701057252389404" y1="60.705885078112004" x2="40" y2="72"></line>
<line x1="55.701057252389404" y1="60.705885078112004" x2="60" y2="72"></line>
<line x1="55.701057252389404" y1="60.705885078112004" x2="40" y2="76"></line>
<line x1="55.701057252389404" y1="60.705885078112004" x2="60" y2="76"></line>
<line x1="55.701057252389404" y1="60.705885078112004" x2="40" y2="80"></line>
<line x1="55.701057252389404" y1="60.705885078112004" x2="60" y2="80"></line>
<line x1="74.05053721888609" y1="77.97235575367414" x2="60" y2="60"></line>
<line x1="74.05053721888609" y1="77.97235575367414" x2="60" y2="80"></line>
<line x1="74.05053721888609" y1="77.97235575367414" x2="64" y2="60"></line>
<line x1="74.05053721888609" y1="77.97235575367414" x2="64" y2="80"></line>
<line x1="74.05053721888609" y1="77.97235575367414" x2="68" y2="60"></line>
<line x1="74.05053721888609" y1="77.97235575367414" x2="68" y2="80"></line>
<line x1="74.05053721888609" y1="77.97235575367414" x2="72" y2="60"></line>
<line x1="74.05053721888609" y1="77.97235575367414" x2="72" y2="80"></line>
<line x1="74.05053721888609" y1="77.97235575367414" x2="76" y2="60"></line>
<line x1="74.05053721888609" y1="77.97235575367414" x2="76" y2="80"></line>
<line x1="74.05053721888609" y1="77.97235575367414" x2="80" y2="60"></line>
<line x1="74.05053721888609" y1="77.97235575367414" x2="80" y2="80"></line>
<line x1="74.05053721888609" y1="77.97235575367414" x2="60" y2="60"></line>
<line x1="74.05053721888609" y1="77.97235575367414" x2="80" y2="60"></line>
<line x1="74.05053721888609" y1="77.97235575367414" x2="60" y2="64"></line>
<line x1="74.05053721888609" y1="77.97235575367414" x2="80" y2="64"></line>
<line x1="74.05053721888609" y1="77.97235575367414" x2="60" y2="68"></line>
<line x1="74.05053721888609" y1="77.97235575367414" x2="80" y2="68"></line>
<line x1="74.05053721888609" y1="77.97235575367414" x2="60" y2="72"></line>
<line x1="74.05053721888609" y1="77.97235575367414" x2="80" y2="72"></line>
<line x1="74.05053721888609" y1="77.97235575367414" x2="60" y2="76"></line>
<line x1="74.05053721888609" y1="77.97235575367414" x2="80" y2="76"></line>
<line x1="74.05053721888609" y1="77.97235575367414" x2="60" y2="80"></line>
<line x1="74.05053721888609" y1="77.97235575367414" x2="80" y2="80"></line>
<line x1="92.3087257926109" y1="73.7083502574142" x2="80" y2="60"></line>
<line x1="92.3087257926109" y1="73.7083502574142" x2="80" y2="80"></line>
<line x1="92.3087257926109" y1="73.7083502574142" x2="84" y2="60"></line>
<line x1="92.3087257926109" y1="73.7083502574142" x2="84" y2="80"></line>
<line x1="92.3087257926109" y1="73.7083502574142" x2="88" y2="60"></line>
<line x1="92.3087257926109" y1="73.7083502574142" x2="88" y2="80"></line>
<line x1="92.3087257926109" y1="73.7083502574142" x2="92" y2="60"></line>
<line x1="92.3087257926109" y1="73.7083502574142" x2="92" y2="80"></line>
<line x1="92.3087257926109" y1="73.7083502574142" x2="96" y2="60"></line>
<line x1="92.3087257926109" y1="73.7083502574142" x2="96" y2="80"></line>
<line x1="92.3087257926109" y1="73.7083502574142" x2="100" y2="60"></line>
<line x1="92.3087257926109" y1="73.7083502574142" x2="100" y2="80"></line>
<line x1="92.3087257926109" y1="73.7083502574142" x2="80" y2="60"></line>
<line x1="92.3087257926109" y1="73.7083502574142" x2="100" y2="60"></line>
<line x1="92.3087257926109" y1="73.7083502574142" x2="80" y2="64"></line>
<line x1="92.3087257926109" y1="73.7083502574142" x2="100" y2="64"></line>
<line x1="92.3087257926109" y1="73.7083502574142" x2="80" y2="68"></line>
<line x1="92.3087257926109" y1="73.7083502574142" x2="100" y2="68"></line>
<line x1="92.3087257926109" y1="73.7083502574142" x2="80" y2="72"></line>
<line x1="92.3087257926109" y1="73.7083502574142" x2="100" y2="72"></line>
<line x1="92.3087257926109" y1="73.7083502574142" x2="80" y2="76"></line>
<line x1="92.3087257926109" y1="73.7083502574142" x2="100" y2="76"></line>
<line x1="92.3087257926109" y1="73.7083502574142" x2="80" y2="80"></line>
<line x1="92.3087257926109" y1="73.7083502574142" x2="100" y2="80"></line>
<line x1="1.9728307028056546" y1="92.55859396388769" x2="0" y2="80"></line>
<line x1="1.9728307028056546" y1="92.55859396388769" x2="0" y2="100"></line>
<line x1="1.9728307028056546" y1="92.55859396388769" x2="4" y2="80"></line>
<line x1="1.9728307028056546" y1="92.55859396388769" x2="4" y2="100"></line>
<line x1="1.9728307028056546" y1="92.55859396388769" x2="8" y2="80"></line>
<line x1="1.9728307028056546" y1="92.55859396388769" x2="8" y2="100"></line>
<line x1="1.9728307028056546" y1="92.55859396388769" x2="12" y2="80"></line>
<line x1="1.9728307028056546" y1="92.55859396388769" x2="12" y2="100"></line>
<line x1="1.9728307028056546" y1="92.55859396388769" x2="16" y2="80"></line>
<line x1="1.9728307028056546" y1="92.55859396388769" x2="16" y2="100"></line>
<line x1="1.9728307028056546" y1="92.55859396388769" x2="20" y2="80"></line>
<line x1="1.9728307028056546" y1="92.55859396388769" x2="20" y2="100"></line>
<line x1="1.9728307028056546" y1="92.55859396388769" x2="0" y2="80"></line>
<line x1="1.9728307028056546" y1="92.55859396388769" x2="20" y2="80"></line>
<line x1="1.9728307028056546" y1="92.55859396388769" x2="0" y2="84"></line>
<line x1="1.9728307028056546" y1="92.55859396388769" x2="20" y2="84"></line>
<line x1="1.9728307028056546" y1="92.55859396388769" x2="0" y2="88"></line>
<line x1="1.9728307028056546" y1="92.55859396388769" x2="20" y2="88"></line>
<line x1="1.9728307028056546" y1="92.55859396388769" x2="0" y2="92"></line>
<line x1="1.9728307028056546" y1="92.55859396388769" x2="20" y2="92"></line>
<line x1="1.9728307028056546" y1="92.55859396388769" x2="0" y2="96"></line>
<line x1="1.9728307028056546" y1="92.55859396388769" x2="20" y2="96"></line>
<line x1="1.9728307028056546" y1="92.55859396388769" x2="0" y2="100"></line>
<line x1="1.9728307028056546" y1="92.55859396388769" x2="20" y2="100"></line>
<line x1="26.297249580752187" y1="84.69980430276256" x2="20" y2="80"></line>
<line x1="26.297249580752187" y1="84.69980430276256" x2="20" y2="100"></line>
<line x1="26.297249580752187" y1="84.69980430276256" x2="24" y2="80"></line>
<line x1="26.297249580752187" y1="84.69980430276256" x2="24" y2="100"></line>
<line x1="26.297249580752187" y1="84.69980430276256" x2="28" y2="80"></line>
<line x1="26.297249580752187" y1="84.69980430276256" x2="28" y2="100"></line>
<line x1="26.297249580752187" y1="84.69980430276256" x2="32" y2="80"></line>
<line x1="26.297249580752187" y1="84.69980430276256" x2="32" y2="100"></line>
<line x1="26.297249580752187" y1="84.69980430276256" x2="36" y2="80"></line>
<line x1="26.297249580752187" y1="84.69980430276256" x2="36" y2="100"></line>
<line x1="26.297249580752187" y1="84.69980430276256" x2="40" y2="80"></line>
<line x1="26.297249580752187" y1="84.69980430276256" x2="40" y2="100"></line>
<line x1="26.297249580752187" y1="84.69980430276256" x2="20" y2="80"></line>
<line x1="26.297249580752187" y1="84.69980430276256" x2="40" y2="80"></line>
<line x1="26.297249580752187" y1="84.69980430276256" x2="20" y2="84"></line>
<line x1="26.297249580752187" y1="84.69980430276256" x2="40" y2="84"></line>
<line x1="26.297249580752187" y1="84.69980430276256" x2="20" y2="88"></line>
<line x1="26.297249580752187" y1="84.69980430276256" x2="40" y2="88"></line>
<line x1="26.297249580752187" y1="84.69980430276256" x2="20" y2="92"></line>
<line x1="26.297249580752187" y1="84.69980430276256" x2="40" y2="92"></line>
<line x1="26.297249580752187" y1="84.69980430276256" x2="20" y2="96"></line>
<line x1="26.297249580752187" y1="84.69980430276256" x2="40" y2="96"></line>
<line x1="26.297249580752187" y1="84.69980430276256" x2="20" y2="100"></line>
<line x1="26.297249580752187" y1="84.69980430276256" x2="40" y2="100"></line>
<line x1="47.82115705947633" y1="80.0295575739064" x2="40" y2="80"></line>
<line x1="47.82115705947633" y1="80.0295575739064" x2="40" y2="100"></line>
<line x1="47.82115705947633" y1="80.0295575739064" x2="44" y2="80"></line>
<line x1="47.82115705947633" y1="80.0295575739064" x2="44" y2="100"></line>
<line x1="47.82115705947633" y1="80.0295575739064" x2="48" y2="80"></line>
<line x1="47.82115705947633" y1="80.0295575739064" x2="48" y2="100"></line>
<line x1="47.82115705947633" y1="80.0295575739064" x2="52" y2="80"></line>
<line x1="47.82115705947633" y1="80.0295575739064" x2="52" y2="100"></line>
<line x1="47.82115705947633" y1="80.0295575739064" x2="56" y2="80"></line>
<line x1="47.82115705947633" y1="80.0295575739064" x2="56" y2="100"></line>
<line x1="47.82115705947633" y1="80.0295575739064" x2="60" y2="80"></line>
<line x1="47.82115705947633" y1="80.0295575739064" x2="60" y2="100"></line>
<line x1="47.82115705947633" y1="80.0295575739064" x2="40" y2="80"></line>
<line x1="47.82115705947633" y1="80.0295575739064" x2="60" y2="80"></line>
<line x1="47.82115705947633" y1="80.0295575739064" x2="40" y2="84"></line>
<line x1="47.82115705947633" y1="80.0295575739064" x2="60" y2="84"></line>
<line x1="47.82115705947633" y1="80.0295575739064" x2="40" y2="88"></line>
<line x1="47.82115705947633" y1="80.0295575739064" x2="60" y2="88"></line>
<line x1="47.82115705947633" y1="80.0295575739064" x2="40" y2="92"></line>
<line x1="47.82115705947633" y1="80.0295575739064" x2="60" y2="92"></line>
<line x1="47.82115705947633" y1="80.0295575739064" x2="40" y2="96"></line>
<line x1="47.82115705947633" y1="80.0295575739064" x2="60" y2="96"></line>
<line x1="47.82115705947633" y1="80.0295575739064" x2="40" y2="100"></line>
<line x1="47.82115705947633" y1="80.0295575739064" x2="60" y2="100"></line>
<line x1="78.5680688344086" y1="82.81060172429348" x2="60" y2="80"></line>
<line x1="78.5680688344086" y1="82.81060172429348" x2="60" y2="100"></line>
<line x1="78.5680688344086" y1="82.81060172429348" x2="64" y2="80"></line>
<line x1="78.5680688344086" y1="82.81060172429348" x2="64" y2="100"></line>
<line x1="78.5680688344086" y1="82.81060172429348" x2="68" y2="80"></line>
<line x1="78.5680688344086" y1="82.81060172429348" x2="68" y2="100"></line>
<line x1="78.5680688344086" y1="82.81060172429348" x2="72" y2="80"></line>
<line x1="78.5680688344086" y1="82.81060172429348" x2="72" y2="100"></line>
<line x1="78.5680688344086" y1="82.81060172429348" x2="76" y2="80"></line>
<line x1="78.5680688344086" y1="82.81060172429348" x2="76" y2="100"></line>
<line x1="78.5680688344086" y1="82.81060172429348" x2="80" y2="80"></line>
<line x1="78.5680688344086" y1="82.81060172429348" x2="80" y2="100"></line>
<line x1="78.5680688344086" y1="82.81060172429348" x2="60" y2="80"></line>
<line x1="78.5680688344086" y1="82.81060172429348" x2="80" y2="80"></line>
<line x1="78.5680688344086" y1="82.81060172429348" x2="60" y2="84"></line>
<line x1="78.5680688344086" y1="82.81060172429348" x2="80" y2="84"></line>
<line x1="78.5680688344086" y1="82.81060172429348" x2="60" y2="88"></line>
<line x1="78.5680688344086" y1="82.81060172429348" x2="80" y2="88"></line>
<line x1="78.5680688344086" y1="82.81060172429348" x2="60" y2="92"></line>
<line x1="78.5680688344086" y1="82.81060172429348" x2="80" y2="92"></line>
<line x1="78.5680688344086" y1="82.81060172429348" x2="60" y2="96"></line>
<line x1="78.5680688344086" y1="82.81060172429348" x2="80" y2="96"></line>
<line x1="78.5680688344086" y1="82.81060172429348" x2="60" y2="100"></line>
<line x1="78.5680688344086" y1="82.81060172429348" x2="80" y2="100"></line>
<line x1="81.82829820742172" y1="90.89296519702587" x2="80" y2="80"></line>
<line x1="81.82829820742172" y1="90.89296519702587" x2="80" y2="100"></line>
<line x1="81.82829820742172" y1="90.89296519702587" x2="84" y2="80"></line>
<line x1="81.82829820742172" y1="90.89296519702587" x2="84" y2="100"></line>
<line x1="81.82829820742172" y1="90.89296519702587" x2="88" y2="80"></line>
<line x1="81.82829820742172" y1="90.89296519702587" x2="88" y2="100"></line>
<line x1="81.82829820742172" y1="90.89296519702587" x2="92" y2="80"></line>
<line x1="81.82829820742172" y1="90.89296519702587" x2="92" y2="100"></line>
<line x1="81.82829820742172" y1="90.89296519702587" x2="96" y2="80"></line>
<line x1="81.82829820742172" y1="90.89296519702587" x2="96" y2="100"></line>
<line x1="81.82829820742172" y1="90.89296519702587" x2="100" y2="80"></line>
<line x1="81.82829820742172" y1="90.89296519702587" x2="100" y2="100"></line>
<line x1="81.82829820742172" y1="90.89296519702587" x2="80" y2="80"></line>
<line x1="81.82829820742172" y1="90.89296519702587" x2="100" y2="80"></line>
<line x1="81.82829820742172" y1="90.89296519702587" x2="80" y2="84"></line>
<line x1="81.82829820742172" y1="90.89296519702587" x2="100" y2="84"></line>
<line x1="81.82829820742172" y1="90.89296519702587" x2="80" y2="88"></line>
<line x1="81.82829820742172" y1="90.89296519702587" x2="100" y2="88"></line>
<line x1="81.82829820742172" y1="90.89296519702587" x2="80" y2="92"></line>
<line x1="81.82829820742172" y1="90.89296519702587" x2="100" y2="92"></line>
<line x1="81.82829820742172" y1="90.89296519702587" x2="80" y2="96"></line>
<line x1="81.82829820742172" y1="90.89296519702587" x2="100" y2="96"></line>
<line x1="81.82829820742172" y1="90.89296519702587" x2="80" y2="100"></line>
<line x1="81.82829820742172" y1="90.89296519702587" x2="100" y2="100"></line></svg>