<svg xmlns="http://www.w3.org/2000/svg" viewBox="0 0 100 100" id="svg" style="--frame-c: #f6c6a4; --frame-bdw: 1em; background-color: rgb(255, 255, 255); --frame-asr: 100 / 100.;">
		<defs>
			<filter id="squiggle">
				<feTurbulence type="fractalNoise" id="turbulence" baseFrequency=".01" numOctaves="5"></feTurbulence>
				<feDisplacementMap id="displacement" in="SourceGraphic" scale="4"></feDisplacementMap>
			</filter>
		</defs>
		<g transform="translate(5 5) scale(0.9)" filter="none"><rect x="0" y="0" width="20" height="20" fill="#A0262A"></rect><rect x="20" y="0" width="20" height="20" fill="#7C6E2E"></rect><rect x="40" y="0" width="20" height="20" fill="#C586B2"></rect><rect x="60" y="0" width="20" height="20" fill="#7B6D2C"></rect><rect x="80" y="0" width="20" height="20" fill="#D5E7E3"></rect><rect x="0" y="20" width="20" height="20" fill="#E6EDEA"></rect><rect x="20" y="20" width="20" height="20" fill="#B57D33"></rect><rect x="40" y="20" width="20" height="20" fill="#E8F0EC"></rect><rect x="60" y="20" width="20" height="20" fill="#7F6626"></rect><rect x="80" y="20" width="20" height="20" fill="#ECF1ED"></rect><rect x="0" y="40" width="20" height="20" fill="#A12728"></rect><rect x="20" y="40" width="20" height="20" fill="#C19739"></rect><rect x="40" y="40" width="20" height="20" fill="#C98BB3"></rect><rect x="60" y="40" width="20" height="20" fill="#C19A3A"></rect><rect x="80" y="40" width="20" height="20" fill="#D5E9E6"></rect><rect x="0" y="60" width="20" height="20" fill="#13366A"></rect><rect x="20" y="60" width="20" height="20" fill="#B68234"></rect><rect x="40" y="60" width="20" height="20" fill="#13366A"></rect><rect x="60" y="60" width="20" height="20" fill="#836B28"></rect><rect x="80" y="60" width="20" height="20" fill="#143869"></rect><rect x="0" y="80" width="20" height="20" fill="#A5282B"></rect><rect x="20" y="80" width="20" height="20" fill="#090B0F"></rect><rect x="40" y="80" width="20" height="20" fill="#CC8CB4"></rect><rect x="60" y="80" width="20" height="20" fill="#08090D"></rect><rect x="80" y="80" width="20" height="20" fill="#D8EAE5"></rect></g></svg>