<svg xmlns="http://www.w3.org/2000/svg" viewBox="0 0 100 100" id="svg" style="--frame-c: #f6c6a4; --frame-bdw: 1em; background-color: rgb(255, 255, 255); --frame-asr: 100 / 100.;">
		<defs>
			<filter id="squiggle">
				<feTurbulence type="fractalNoise" id="turbulence" baseFrequency=".01" numOctaves="5"></feTurbulence>
				<feDisplacementMap id="displacement" in="SourceGraphic" scale="4"></feDisplacementMap>
			</filter>
		</defs>
		<g transform="translate(5 5) scale(0.9)" filter="url(#squiggle)"><rect x="0" y="0" width="20" height="20" fill="#514F5F"></rect><rect x="20" y="0" width="20" height="20" fill="#787683"></rect><rect x="40" y="0" width="20" height="20" fill="#B6B3C7"></rect><rect x="60" y="0" width="20" height="20" fill="#797784"></rect><rect x="80" y="0" width="20" height="20" fill="#434645"></rect><rect x="0" y="20" width="20" height="20" fill="#9BA7C8"></rect><rect x="20" y="20" width="20" height="20" fill="#898098"></rect><rect x="40" y="20" width="20" height="20" fill="#95A1C0"></rect><rect x="60" y="20" width="20" height="20" fill="#3D413F"></rect><rect x="80" y="20" width="20" height="20" fill="#919EBA"></rect><rect x="0" y="40" width="20" height="20" fill="#555363"></rect><rect x="20" y="40" width="20" height="20" fill="#525659"></rect><rect x="40" y="40" width="20" height="20" fill="#BBB4CB"></rect><rect x="60" y="40" width="20" height="20" fill="#4C5153"></rect><rect x="80" y="40" width="20" height="20" fill="#434645"></rect><rect x="0" y="60" width="20" height="20" fill="#FFFFFF"></rect><rect x="20" y="60" width="20" height="20" fill="#908AA1"></rect><rect x="40" y="60" width="20" height="20" fill="#FFFFFF"></rect><rect x="60" y="60" width="20" height="20" fill="#3C4240"></rect><rect x="80" y="60" width="20" height="20" fill="#FFFFFF"></rect><rect x="0" y="80" width="20" height="20" fill="#525060"></rect><rect x="20" y="80" width="20" height="20" fill="#6C6A79"></rect><rect x="40" y="80" width="20" height="20" fill="#B9B2CA"></rect><rect x="60" y="80" width="20" height="20" fill="#6B687A"></rect><rect x="80" y="80" width="20" height="20" fill="#444746"></rect></g></svg>