<svg xmlns="http://www.w3.org/2000/svg" viewBox="0 0 100 100" id="svg" style="--frame-c: #f6c6a4; --frame-bdw: 1em; background-color: rgb(255, 255, 255); --frame-asr: 100 / 100.;">
		<defs>
			<filter id="squiggle">
				<feTurbulence type="fractalNoise" id="turbulence" baseFrequency=".01" numOctaves="5"></feTurbulence>
				<feDisplacementMap id="displacement" in="SourceGraphic" scale="4"></feDisplacementMap>
			</filter>
		</defs>
		<g transform="translate(5 5) scale(0.9)" filter="none">
						<rect x="0" y="0" width="20" height="20" fill="#BB3331"></rect>
						<circle cx="10" cy="10" r="2" fill="#141414"></circle>
					
						<rect x="20" y="0" width="20" height="20" fill="#8A8D95"></rect>
						<circle cx="30" cy="10" r="2" fill="#C13431"></circle>
					
						<rect x="40" y="0" width="20" height="20" fill="#F3D654"></rect>
						<circle cx="50" cy="10" r="2" fill="#3581C0"></circle>
					
						<rect x="60" y="0" width="20" height="20" fill="#882D2F"></rect>
						<circle cx="70" cy="10" r="2" fill="#2C674A"></circle>
					
						<rect x="80" y="0" width="20" height="20" fill="#463781"></rect>
						<circle cx="90" cy="10" r="2" fill="#28638A"></circle>
					
						<rect x="0" y="20" width="20" height="20" fill="#A16834"></rect>
						<circle cx="10" cy="30" r="2" fill="#C74533"></circle>
					
						<rect x="20" y="20" width="20" height="20" fill="#47A2CD"></rect>
						<circle cx="30" cy="30" r="2" fill="#66589F"></circle>
					
						<rect x="40" y="20" width="20" height="20" fill="#C75C91"></rect>
						<circle cx="50" cy="30" r="2" fill="#E37242"></circle>
					
						<rect x="60" y="20" width="20" height="20" fill="#E2713C"></rect>
						<circle cx="70" cy="30" r="2" fill="#9594A1"></circle>
					
						<rect x="80" y="20" width="20" height="20" fill="#273D78"></rect>
						<circle cx="90" cy="30" r="2" fill="#2A634A"></circle>
					
						<rect x="0" y="40" width="20" height="20" fill="#999DA1"></rect>
						<circle cx="10" cy="50" r="2" fill="#7A8EAD"></circle>
					
						<rect x="20" y="40" width="20" height="20" fill="#DF6738"></rect>
						<circle cx="30" cy="50" r="2" fill="#C4893D"></circle>
					
						<rect x="40" y="40" width="20" height="20" fill="#885F54"></rect>
						<circle cx="50" cy="50" r="2" fill="#244C94"></circle>
					
						<rect x="60" y="40" width="20" height="20" fill="#204E3E"></rect>
						<circle cx="70" cy="50" r="2" fill="#BB7142"></circle>
					
						<rect x="80" y="40" width="20" height="20" fill="#D1C74C"></rect>
						<circle cx="90" cy="50" r="2" fill="#E9973E"></circle>
					
						<rect x="0" y="60" width="20" height="20" fill="#2B6767"></rect>
						<circle cx="10" cy="70" r="2" fill="#D75235"></circle>
					
						<rect x="20" y="60" width="20" height="20" fill="#BB3331"></rect>
						<circle cx="30" cy="70" r="2" fill="#141414"></circle>
					
						<rect x="40" y="60" width="20" height="20" fill="#8A8D95"></rect>
						<circle cx="50" cy="70" r="2" fill="#C13431"></circle>
					
						<rect x="60" y="60" width="20" height="20" fill="#F3D654"></rect>
						<circle cx="70" cy="70" r="2" fill="#3581C0"></circle>
					
						<rect x="80" y="60" width="20" height="20" fill="#882D2F"></rect>
						<circle cx="90" cy="70" r="2" fill="#2C674A"></circle>
					
						<rect x="0" y="80" width="20" height="20" fill="#463781"></rect>
						<circle cx="10" cy="90" r="2" fill="#28638A"></circle>
					
						<rect x="20" y="80" width="20" height="20" fill="#A16834"></rect>
						<circle cx="30" cy="90" r="2" fill="#C74533"></circle>
					
						<rect x="40" y="80" width="20" height="20" fill="#47A2CD"></rect>
						<circle cx="50" cy="90" r="2" fill="#66589F"></circle>
					
						<rect x="60" y="80" width="20" height="20" fill="#C75C91"></rect>
						<circle cx="70" cy="90" r="2" fill="#E37242"></circle>
					
						<rect x="80" y="80" width="20" height="20" fill="#E2713C"></rect>
						<circle cx="90" cy="90" r="2" fill="#9594A1"></circle>
					</g></svg>