<svg xmlns="http://www.w3.org/2000/svg" xml:space="preserve" viewBox="0 0 475 475">
  <circle cx="237.5" cy="237.5" r="207" fill="#fff" stroke="#f06b72" stroke-miterlimit="10" stroke-width="61"/>
  <path d="M198.9 380.6v-41.3h7.7v21.1l9.2-9.3h10.7L212 365.4l14.4 15.2h-10.8l-8.9-9.9v9.9zm67 0v-18.3c.1-1.2-.4-2.4-1.3-3.2-.9-.7-2-1.1-3.2-1.1-.7 0-1.5.1-2.2.4-.6.2-1.2.6-1.7 1s-.9.8-1.2 1.3c-.3.4-.4.9-.4 1.3v18.5h-7.6v-18.3c.1-1.2-.4-2.4-1.3-3.2-.9-.7-2-1-3.2-1-.7 0-1.4.1-2 .4s-1.2.6-1.8 1c-.5.4-.9.8-1.3 1.3-.3.4-.5.8-.5 1.3v18.6h-7.7V351h7.7v1.1c.9-.5 1.9-.8 2.9-1.1 2.7-.7 5.6-.5 8.3.4 1.5.6 2.8 1.5 3.8 2.6 1.1-.9 2.4-1.7 3.8-2.4 1.6-.7 3.4-1.1 5.2-1.1 1.5 0 3 .2 4.4.7 1.3.4 2.6 1.1 3.6 2.1 1.1 1 1.9 2.1 2.5 3.5.6 1.5 1 3.1.9 4.8v19zm-142.1-75V156.7l29.7-10.8v159.8h-29.7zm72.8 0V156.7l29.6-10.9v159.8zm117.1 1.6c-8.2.1-16.2-1.8-23.5-5.4-7.2-3.7-13.5-9.1-18.4-15.6-5.5-7.4-9.6-15.8-12.1-24.8-3-10.7-4.4-21.8-4.3-32.9-.1-11 1.3-22 4.3-32.5 2.5-9 6.6-17.5 12.1-25 4.9-6.6 11.2-12 18.4-15.9 14.8-7.5 32.2-7.5 47 0 7.2 3.9 13.5 9.4 18.3 16 5.5 7.5 9.5 16 12 25 3 10.6 4.4 21.5 4.3 32.5.2 11.1-1.3 22.2-4.3 32.9-2.5 8.9-6.5 17.3-12 24.8-4.8 6.5-11.1 11.9-18.3 15.6-7.3 3.5-15.4 5.4-23.5 5.3m0-28.5c4 0 7.9-1.2 11.2-3.5 3.7-2.7 6.7-6.1 8.9-10.1 2.8-4.9 4.8-10.3 6-15.8 1.5-6.8 2.2-13.8 2.1-20.8 0-15.5-2.7-27.6-8-36.4-5.3-8.7-12.1-13.1-20.2-13.1-8.4 0-15.4 4.4-20.9 13.1s-8.3 20.9-8.3 36.4c-.1 7 .6 14 2.1 20.8 1.2 5.6 3.2 10.9 6.1 15.8 2.3 4 5.5 7.4 9.3 10.1 3.5 2.3 7.5 3.5 11.7 3.5" class="st1"/>
  <path d="m185.7 160.4 40.5-14.6-28.3 33.7-10.9-.4zm-72.7 0 40.5-14.6-28.3 33.7-10.9-.4z" class="st1"/>
</svg>