<svg xmlns="http://www.w3.org/2000/svg" xml:space="preserve" viewBox="0 0 475 475">
  <circle cx="237.5" cy="237.5" r="207" fill="#fff" stroke="#f06b72" stroke-miterlimit="10" stroke-width="61"/>
  <path d="M198.9 380.6v-41.3h7.7v21.1l9.2-9.3h10.7L212 365.4l14.4 15.2h-10.8l-8.9-9.9v9.9zm67 0v-18.3c.1-1.2-.4-2.4-1.3-3.2-.9-.7-2-1.1-3.2-1.1-.7 0-1.5.1-2.2.4-.6.2-1.2.6-1.7 1s-.9.8-1.2 1.3c-.3.4-.4.9-.4 1.3v18.5h-7.6v-18.3c.1-1.2-.4-2.4-1.3-3.2-.9-.7-2-1-3.2-1-.7 0-1.4.1-2 .4s-1.2.6-1.8 1c-.5.4-.9.8-1.3 1.3-.3.4-.5.8-.5 1.3v18.6h-7.7V351h7.7v1.1c.9-.5 1.9-.8 2.9-1.1 2.7-.7 5.6-.5 8.3.4 1.5.6 2.8 1.5 3.8 2.6 1.1-.9 2.4-1.7 3.8-2.4 1.6-.7 3.4-1.1 5.2-1.1 1.5 0 3 .2 4.4.7 1.3.4 2.6 1.1 3.6 2.1 1.1 1 1.9 2.1 2.5 3.5.6 1.5 1 3.1.9 4.8v19zm-160.2-74.9V156.5l29.7-10.9v160.1zM257 257.8c.1 7.2-1.4 14.2-4.4 20.7-2.8 6-6.9 11.3-12 15.5-5.2 4.3-11.1 7.6-17.6 9.7-6.8 2.3-13.9 3.4-21 3.4-9.2.1-18.2-1.9-26.5-5.9-8-3.9-16.4-10.3-25.1-19l24-20.4c4.7 6.2 9.3 10.6 14 13.1 4.1 2.4 8.8 3.7 13.6 3.8 7.7 0 13.7-2 18.1-6.1 4.3-3.8 6.6-9.2 6.6-14.9 0-6.3-2.8-11.5-8.4-15.4s-13.4-5.9-23.3-5.8h-12.7v-29.7h13.1c7.2 0 13.2-1.4 17.9-4.1 4.5-2.3 7.2-7 7-12 0-4.1-1.8-7.4-5.4-10.1-3.6-2.6-8.1-4-13.6-4-4.9-.1-9.6 1.3-13.8 3.8-4.1 2.5-8.3 6.4-12.7 11.7l-23.3-19.2c7.8-8.3 15.6-14.5 23.2-18.5s16.5-6 26.6-6c6.6 0 13.1.8 19.5 2.6 5.7 1.6 11.1 4.3 15.7 7.9 4.5 3.6 8.1 8.1 10.5 13.2 2.6 5.8 3.9 12 3.8 18.4.1 5.6-1 11.2-3.3 16.4-2.1 4.8-5.2 9.1-9.1 12.6 5.8 4 10.4 9.4 13.5 15.7 3.4 7 5.2 14.7 5.1 22.6m73.3 49.5c-8.2.1-16.2-1.8-23.5-5.4-7.2-3.8-13.6-9.1-18.5-15.6-5.5-7.4-9.6-15.9-12.1-24.8-3-10.7-4.5-21.8-4.3-33-.1-11 1.3-22 4.3-32.6 2.5-9 6.6-17.5 12.1-25 4.9-6.6 11.2-12.1 18.5-16 14.8-7.5 32.3-7.5 47.1 0 7.2 3.9 13.5 9.3 18.3 16 5.5 7.6 9.5 16 12 25 3 10.6 4.4 21.6 4.3 32.6.1 11.1-1.3 22.2-4.3 32.9-2.5 8.9-6.6 17.3-12 24.8-4.8 6.5-11.1 11.9-18.3 15.6-7.4 3.7-15.4 5.6-23.6 5.5m0-28.5c4 0 7.9-1.2 11.2-3.5 3.7-2.7 6.7-6.1 8.9-10.1 2.8-5 4.8-10.3 6-15.8 1.5-6.9 2.2-13.9 2.1-20.9 0-15.5-2.7-27.7-8-36.5s-12.1-13.1-20.3-13.1c-8.5 0-15.4 4.4-20.9 13.1-5.5 8.8-8.3 20.9-8.3 36.5-.1 7 .6 14 2.2 20.8 1.2 5.6 3.3 10.9 6.1 15.8 2.3 4 5.5 7.5 9.3 10.1 3.5 2.4 7.5 3.6 11.7 3.6" class="st1"/>
  <path d="m94.8 160.3 40.6-14.6-28.3 33.7-10.9-.4z" class="st1"/>
</svg>