<svg xmlns="http://www.w3.org/2000/svg" xml:space="preserve" viewBox="0 0 475 475">
  <circle cx="237.5" cy="237.5" r="207" fill="#fff" stroke="#f06b72" stroke-miterlimit="10" stroke-width="61"/>
  <path d="M198.9 380.6v-41.3h7.7v21.1l9.2-9.3h10.7L212 365.4l14.4 15.2h-10.8l-8.9-9.9v9.9zm67 0v-18.3c.1-1.2-.4-2.4-1.3-3.2-.9-.7-2-1.1-3.2-1.1-.7 0-1.5.1-2.2.4-.6.2-1.2.6-1.7 1s-.9.8-1.2 1.3c-.3.4-.4.9-.4 1.3v18.5h-7.6v-18.3c.1-1.2-.4-2.4-1.3-3.2-.9-.7-2-1-3.2-1-.7 0-1.4.1-2 .4s-1.2.6-1.8 1c-.5.4-.9.8-1.3 1.3-.3.4-.5.8-.5 1.3v18.6h-7.7V351h7.7v1.1c.9-.5 1.9-.8 2.9-1.1 2.7-.7 5.6-.5 8.3.4 1.5.6 2.8 1.5 3.8 2.6 1.1-.9 2.4-1.7 3.8-2.4 1.6-.7 3.4-1.1 5.2-1.1 1.5 0 3 .2 4.4.7 1.3.4 2.6 1.1 3.6 2.1 1.1 1 1.9 2.1 2.5 3.5.6 1.5 1 3.1.9 4.8v19zm-39.4-127.1c.1 8.3-1.6 16.4-5.1 23.9-3.2 6.9-8 13-13.8 17.9-6 5-12.8 8.8-20.3 11.2-7.8 2.7-16 3.9-24.2 3.9-10.6.1-21-2.2-30.6-6.8-9.2-4.5-18.9-11.9-29-21.9l27.7-23.5c5.4 7.2 10.7 12.2 16.2 15.1 4.7 2.8 10.2 4.3 15.7 4.4 8.9 0 15.8-2.3 20.9-7 5-4.4 7.6-10.6 7.6-17.2 0-7.3-3.2-13.3-9.7-17.8s-15.5-6.8-26.9-6.7h-14.7v-34.3h15.1c8.3 0 15.2-1.6 20.7-4.7 5.2-2.7 8.3-8.1 8.1-13.8 0-4.7-2.1-8.5-6.2-11.7-4.2-3-9.3-4.6-15.7-4.6-5.7-.1-11.1 1.5-15.9 4.4q-7.05 4.35-14.7 13.5l-26.9-22.2c9-9.6 18-16.7 26.8-21.3s19-6.9 30.7-6.9c7.6 0 15.1.9 22.5 3 6.6 1.8 12.8 5 18.1 9.1 5.2 4.2 9.3 9.3 12.1 15.2 3 6.7 4.5 13.8 4.4 21.2.1 6.5-1.2 12.9-3.8 18.9-2.4 5.5-6 10.5-10.5 14.5 6.7 4.6 12 10.8 15.6 18.1 3.8 8.1 5.9 16.9 5.8 26.1m78 58.9c-9.5.1-18.8-2-27.3-6.3-8.4-4.3-15.7-10.5-21.4-18.1-6-7.9-10.7-17.4-14-28.7s-5-24-5-38.1c-.1-12.8 1.5-25.5 5-37.7 3.3-11.3 8-21 14-29 5.7-7.6 13-14 21.4-18.5 17.1-8.7 37.4-8.7 54.5 0 8.4 4.5 15.6 10.8 21.2 18.5 5.9 8 10.6 17.6 13.9 29 3.4 12.3 5.1 25 5 37.7 0 14.1-1.7 26.9-5 38.1-3.3 11.3-8 20.8-13.9 28.7a61.56 61.56 0 0 1-21.2 18.1c-8.4 4.3-17.7 6.5-27.2 6.3m0-33c4.7 0 9.2-1.4 13-4.1 4.3-3.1 7.8-7.1 10.4-11.7 3.2-5.7 5.6-11.9 6.9-18.3 1.7-7.9 2.6-16 2.5-24.1 0-18-3.1-32.1-9.3-42.2s-14-15.2-23.5-15.2c-9.8 0-17.9 5.1-24.2 15.2-6.4 10.1-9.6 24.2-9.6 42.2-.1 8.1.7 16.2 2.5 24.1 1.4 6.4 3.8 12.6 7.1 18.3 2.7 4.6 6.3 8.6 10.7 11.7 4 2.7 8.7 4.2 13.5 4.1" class="st1"/>
</svg>