<svg xmlns="http://www.w3.org/2000/svg" viewBox="0 0 475 475">
  <circle cx="237.5" cy="237.5" r="207" fill="#fff" stroke="#f06b72" stroke-miterlimit="10" stroke-width="61"/>
  <path d="M198.95 380.61v-41.3h7.73v21.06l9.2-9.26h10.68l-14.57 14.28 14.4 15.22h-10.8l-8.91-9.85v9.85Zm66.9 0v-18.29a3.79 3.79 0 0 0-1.3-3.16 5.24 5.24 0 0 0-3.19-1.09 6 6 0 0 0-2.18.38 6.5 6.5 0 0 0-1.74 1 5 5 0 0 0-1.18 1.33 2.65 2.65 0 0 0-.44 1.33v18.53h-7.61v-18.32a3.86 3.86 0 0 0-1.3-3.22 5 5 0 0 0-3.19-1 5.3 5.3 0 0 0-2 .38 7.7 7.7 0 0 0-1.77 1 5.8 5.8 0 0 0-1.3 1.3 2.3 2.3 0 0 0-.5 1.3v18.58h-7.65v-29.61h7.73v1.06a15 15 0 0 1 2.86-1.06 14.3 14.3 0 0 1 8.29.44 9.8 9.8 0 0 1 3.83 2.63 17.6 17.6 0 0 1 3.75-2.36 12.6 12.6 0 0 1 5.22-1.12 14.1 14.1 0 0 1 4.43.68 9.9 9.9 0 0 1 3.6 2.06 10.1 10.1 0 0 1 2.45 3.45 11.7 11.7 0 0 1 .92 4.78v19Zm-44.96-138.65a67.2 67.2 0 0 1-4.85 24.5 76 76 0 0 1-13.54 22.4 72.4 72.4 0 0 1-20.57 16.38 54.1 54.1 0 0 1-26.07 6.42 67.66 67.66 0 0 1-31.13-7.16q-14.15-7.2-29.08-21.61l27-24.1q7.86 10.48 16.64 14.41a40.8 40.8 0 0 0 16.64 3.93 24.1 24.1 0 0 0 11.92-3.14 34.4 34.4 0 0 0 9.69-8 41.5 41.5 0 0 0 6.55-10.87 31.4 31.4 0 0 0 2.49-12.05q0-13.88-10.35-22.14t-27.12-8.25a72 72 0 0 0-7.6.52q-4.72.53-10.35 1.57t-11.79 2.36q-6.16 1.31-12.18 3.14l9.17-93.27h91.14v34.5h-61v1.83a36 36 0 0 0-.26 3.93v2.88a26 26 0 0 1-.26 3.27q-.26 2-.52 5.11h7.04a88.9 88.9 0 0 1 26.07 3.8 62.1 62.1 0 0 1 21.93 11.7 55.7 55.7 0 0 1 14.93 19.78q5.46 11.92 5.46 28.16m84.88 70.48a59 59 0 0 1-27.27-6.29 62.7 62.7 0 0 1-21.35-18.08q-9-11.79-14-28.69t-5-38.12a134.2 134.2 0 0 1 5-37.73q5-17 14-29a65 65 0 0 1 21.35-18.41 60 60 0 0 1 54.5 0 63.8 63.8 0 0 1 21.22 18.47q8.9 11.93 13.89 29a134.3 134.3 0 0 1 5 37.73q0 21.22-5 38.12t-13.89 28.69A61.55 61.55 0 0 1 333 306.21a59 59 0 0 1-27.23 6.23m0-33a22.36 22.36 0 0 0 13-4.06 35.8 35.8 0 0 0 10.35-11.66 65.4 65.4 0 0 0 6.94-18.34 107 107 0 0 0 2.49-24.1q0-27-9.3-42.18t-23.45-15.2q-14.68 0-24.24 15.2T272 221.28a107 107 0 0 0 2.49 24.1 62.7 62.7 0 0 0 7.01 18.33 35.65 35.65 0 0 0 10.74 11.66 24 24 0 0 0 13.53 4.06Z" class="cls-2"/>
</svg>