<svg xmlns="http://www.w3.org/2000/svg" viewBox="0 0 475 475">
  <circle cx="237.5" cy="237.5" r="207" fill="#fff" stroke="#f06b72" stroke-miterlimit="10" stroke-width="61"/>
  <path d="M198.95 380.61v-41.3h7.73v21.06l9.2-9.26h10.68l-14.57 14.28 14.4 15.22h-10.8l-8.91-9.85v9.85Zm66.9 0v-18.29a3.79 3.79 0 0 0-1.3-3.16 5.24 5.24 0 0 0-3.19-1.09 6 6 0 0 0-2.18.38 6.5 6.5 0 0 0-1.74 1 5 5 0 0 0-1.18 1.33 2.65 2.65 0 0 0-.44 1.33v18.53h-7.61v-18.32a3.86 3.86 0 0 0-1.3-3.22 5 5 0 0 0-3.19-1 5.3 5.3 0 0 0-2 .38 7.7 7.7 0 0 0-1.77 1 5.8 5.8 0 0 0-1.3 1.3 2.3 2.3 0 0 0-.5 1.3v18.58h-7.65v-29.61h7.73v1.06a15 15 0 0 1 2.86-1.06 14.3 14.3 0 0 1 8.29.44 9.8 9.8 0 0 1 3.83 2.63 17.6 17.6 0 0 1 3.75-2.36 12.6 12.6 0 0 1 5.22-1.12 14.1 14.1 0 0 1 4.43.68 9.9 9.9 0 0 1 3.6 2.06 10.1 10.1 0 0 1 2.45 3.45 11.7 11.7 0 0 1 .92 4.78v19Zm-42.68-225.04-26.52 49.21q-5.87 11.22-11.86 23.59t-10.71 24.48a216 216 0 0 0-7.65 23.21 78.3 78.3 0 0 0-2.93 19.76v14.79h-33.15v-14.54a133.4 133.4 0 0 1 1.91-22.95 141 141 0 0 1 6-22.57 242 242 0 0 1 10.24-24.35q6.12-12.75 14.54-28.05v.25a31 31 0 0 1 1.91-3.7q1.15-1.91 3.06-5.35t5-9.05q3.06-5.61 7.65-14.53h-65.61v-33.66h108.12Zm82.62 156.82a57.45 57.45 0 0 1-26.52-6.12 61 61 0 0 1-20.77-17.59q-8.8-11.48-13.64-27.92t-4.84-37.1a130.6 130.6 0 0 1 4.84-36.72q4.84-16.57 13.64-28.18a63.3 63.3 0 0 1 20.78-18 58.35 58.35 0 0 1 53 0 62.1 62.1 0 0 1 20.65 18q8.67 11.61 13.52 28.18a130.8 130.8 0 0 1 4.84 36.72q0 20.66-4.84 37.1t-13.52 27.92a59.9 59.9 0 0 1-20.65 17.59 57.5 57.5 0 0 1-26.49 6.12m0-32.13a21.76 21.76 0 0 0 12.62-4 34.9 34.9 0 0 0 10.09-11.3 63.7 63.7 0 0 0 6.76-17.85 104.2 104.2 0 0 0 2.42-23.46q0-26.26-9.05-41.05t-22.82-14.79q-14.28 0-23.59 14.79t-9.31 41.05a104 104 0 0 0 2.42 23.46 61 61 0 0 0 6.89 17.85 34.7 34.7 0 0 0 10.45 11.35 23.35 23.35 0 0 0 13.12 3.95" class="cls-2"/>
</svg>