<svg xmlns="http://www.w3.org/2000/svg" viewBox="0 0 475 475">
  <circle cx="237.5" cy="237.5" r="207" fill="#fff" stroke="#f06b72" stroke-miterlimit="10" stroke-width="61"/>
  <path d="M198.95 380.61v-41.3h7.73v21.06l9.2-9.26h10.68l-14.57 14.28 14.4 15.22h-10.8l-8.91-9.85v9.85Zm66.9 0v-18.29a3.79 3.79 0 0 0-1.3-3.16 5.24 5.24 0 0 0-3.19-1.09 6 6 0 0 0-2.18.38 6.5 6.5 0 0 0-1.74 1 5 5 0 0 0-1.18 1.33 2.65 2.65 0 0 0-.44 1.33v18.53h-7.61v-18.32a3.86 3.86 0 0 0-1.3-3.22 5 5 0 0 0-3.19-1 5.3 5.3 0 0 0-2 .38 7.7 7.7 0 0 0-1.77 1 5.8 5.8 0 0 0-1.3 1.3 2.3 2.3 0 0 0-.5 1.3v18.58h-7.65v-29.61h7.73v1.06a15 15 0 0 1 2.86-1.06 14.3 14.3 0 0 1 8.29.44 9.8 9.8 0 0 1 3.83 2.63 17.6 17.6 0 0 1 3.75-2.36 12.6 12.6 0 0 1 5.22-1.12 14.1 14.1 0 0 1 4.43.68 9.9 9.9 0 0 1 3.6 2.06 10.1 10.1 0 0 1 2.45 3.45 11.7 11.7 0 0 1 .92 4.78v19Zm-46.53-181.88a122.4 122.4 0 0 1-5.5 35.5 107.2 107.2 0 0 1-17.55 34.06q-12.05 15.85-31.31 28t-46.78 17.21l-9.43-30.65a101.6 101.6 0 0 0 21.48-7.21 114 114 0 0 0 31-21.35 104 104 0 0 0 10.09-11.27 76 76 0 0 1-9.43 1.57 102 102 0 0 1-10.74.52 55.9 55.9 0 0 1-20.7-3.93 53.4 53.4 0 0 1-17.69-11.4 56.6 56.6 0 0 1-12.44-18.21 59.3 59.3 0 0 1-4.67-24.07 66.4 66.4 0 0 1 4.32-24.23 57.4 57.4 0 0 1 12.31-19.39 55.6 55.6 0 0 1 19.22-12.87 66.2 66.2 0 0 1 25.15-4.58 59.3 59.3 0 0 1 26.59 5.76 58.35 58.35 0 0 1 19.65 15.59 69.5 69.5 0 0 1 12.18 22.92 91.6 91.6 0 0 1 4.25 28.03m-35.11-3.41a47.2 47.2 0 0 0-2-13.62 35.8 35.8 0 0 0-5.63-11.4 29.6 29.6 0 0 0-8.91-7.86 23.27 23.27 0 0 0-11.79-3q-12.05 0-18.86 7.73t-6.81 19.52q0 11.53 6.68 17.82a23.33 23.33 0 0 0 16.64 6.29 43.64 43.64 0 0 0 30.13-11.53q.26-1.31.39-2.36a14 14 0 0 0 .16-1.58ZM304.2 312.44a59 59 0 0 1-27.25-6.29 62.7 62.7 0 0 1-21.35-18.08q-9-11.79-14-28.69t-5-38.12a134.2 134.2 0 0 1 5-37.73q5-17 14-29a65 65 0 0 1 21.35-18.47 60 60 0 0 1 54.5 0 63.8 63.8 0 0 1 21.22 18.47q8.9 11.93 13.89 29a134.3 134.3 0 0 1 5 37.73q0 21.22-5 38.12t-13.89 28.69a61.55 61.55 0 0 1-21.17 18.08 59 59 0 0 1-27.3 6.29m0-33a22.36 22.36 0 0 0 13-4.06 35.8 35.8 0 0 0 10.3-11.67 65.4 65.4 0 0 0 7-18.34 107 107 0 0 0 2.49-24.1q0-27-9.3-42.18t-23.45-15.2q-14.68 0-24.24 15.2t-9.56 42.18a107 107 0 0 0 2.49 24.1 62.7 62.7 0 0 0 7.07 18.34 35.65 35.65 0 0 0 10.74 11.66 24 24 0 0 0 13.46 4.06Z" class="cls-2"/>
</svg>