<svg xmlns="http://www.w3.org/2000/svg" fill="none" aria-hidden="true" viewBox="0 0 48 48">
  <circle cx="24" cy="24" r="24" fill="#000" fill-opacity="0.5" />
  <g transform="translate(4.8, 13.2) scale(0.8)">
    <path fill="#fff" d="M17.306 10.306c1.172 0 2.124-.96 2.124-2.14V5.45c0-1.18-.954-2.137-2.124-2.137h-3.86c-1.172 0-2.124.96-2.124 2.137v2.717c0 1.18.954 2.14 2.124 2.14h3.86zm-4.592-2.14V5.45c0-.406.329-.739.734-.739h3.86c.403 0 .734.331.734.74v2.716a.74.74 0 0 1-.734.74h-3.86a.737.737 0 0 1-.734-.74zm24.641 11.145c-1.153 0-2.09.943-2.09 2.103s.937 2.103 2.09 2.103 2.09-.943 2.09-2.103-.937-2.103-2.09-2.103m0 2.805a.702.702 0 0 1 0-1.404.702.702 0 0 1 0 1.404m-26.848-2.805a2.1 2.1 0 0 0-2.089 2.103c0 1.16.937 2.103 2.09 2.103a2.1 2.1 0 0 0 2.089-2.103 2.1 2.1 0 0 0-2.09-2.103m0 2.805a.702.702 0 0 1 0-1.404.702.702 0 0 1 0 1.404m11.92-8.235a.7.7 0 0 0 .696-.7c0-.387-.312-.7-.696-.7h-.698a.7.7 0 0 0-.696.7c0 .386.312.7.696.7zM12.018 12.48a.7.7 0 0 0-.696.7c0 .387.312.701.696.701h.698a.7.7 0 0 0 .696-.7c0-.387-.312-.7-.696-.7h-.698z"/>
    <path fill="#fff" d="M.696 14.325a.7.7 0 0 0 .696-.7v-.62c0-.925.156-1.835.453-2.697h5.739c1.171 0 2.125-.96 2.125-2.14V5.451c0-1.18-.954-2.138-2.125-2.138h-.566l.072-.086A5.13 5.13 0 0 1 11.015 1.4H21.5a.7.7 0 0 0 .696-.7.7.7 0 0 0-.696-.701H11.015c-1.923 0-3.74.845-4.986 2.319L2.29 6.744A9.7 9.7 0 0 0 0 13.005v.62c0 .387.312.7.696.7m5.136-9.613h1.752c.405 0 .734.331.734.74v2.716a.74.74 0 0 1-.734.739H2.476c.25-.44.54-.862.871-1.253l2.485-2.94z"/>
    <path fill="#fff" d="M43.99 8.905h-7.174a4.6 4.6 0 0 1-3.26-1.345L27.84 1.893A6.5 6.5 0 0 0 23.247 0h-1.91a.7.7 0 0 0-.695.7c0 .387.312.7.696.7h1.91a5.1 5.1 0 0 1 3.616 1.492l.425.42H23.16c-1.171 0-2.123.96-2.123 2.137v2.717c0 1.18.954 2.14 2.123 2.14h20.832a2.12 2.12 0 0 1 2.11 2.124v.027h-1.386c-.929 0-1.686.762-1.686 1.697v.785c0 .935.757 1.697 1.686 1.697h1.386v1.43h-5.13a4.885 4.885 0 0 0-7.23 0h-19.62a4.884 4.884 0 0 0-7.228 0H1.392v-1.653c0-.387-.312-.7-.696-.7a.7.7 0 0 0-.696.7v3.223c0 1.709 1.382 3.1 3.08 3.1h2.693c.576 2.086 2.48 3.623 4.735 3.623 2.71 0 4.915-2.218 4.915-4.947 0-.69-.141-1.349-.398-1.947H32.84a5 5 0 0 0-.396 1.868H15.41c-.385 0-2.897.314-.41.7 0 .387.025.701.41.701h17.212c.576 2.088 2.48 3.623 4.735 3.623s4.158-1.537 4.736-3.623h2.322c1.698 0 3.08-1.391 3.08-3.1v-7.208c0-1.943-1.572-3.525-3.502-3.525zm-20.832 0a.737.737 0 0 1-.734-.739V5.45c0-.406.328-.739.734-.739h5.54l3.878 3.845q.186.181.383.348zv.002zM1.392 19.638v-.17h4.6a5 5 0 0 0-.397 1.87H3.08a1.695 1.695 0 0 1-1.688-1.7m9.116 5.322c-1.942 0-3.523-1.59-3.523-3.546s1.581-3.546 3.523-3.546 3.524 1.591 3.524 3.546-1.581 3.546-3.524 3.546m34.207-9.723a.296.296 0 0 1-.294-.296v-.785c0-.163.132-.296.294-.296h1.386v1.378h-1.386zm-7.36 9.723c-1.942 0-3.523-1.59-3.523-3.546s1.581-3.546 3.523-3.546 3.524 1.591 3.524 3.546-1.581 3.546-3.523 3.546zm7.056-3.623h-2.145a4.9 4.9 0 0 0-.395-1.868h4.228v.17c0 .936-.757 1.698-1.688 1.698"/>
  </g>
</svg>