<svg xmlns="http://www.w3.org/2000/svg" fill="none" aria-hidden="true" viewBox="0 0 55 55">
  <circle cx="27.5" cy="27.5" r="27.5" fill="#000" fill-opacity="0.5" />
  <g transform="translate(8.25, 15.75) scale(0.7)">
    <path fill="#fff" d="M.805 16.119a.81.81 0 0 0 .805-.81v-2.15h4.567a2.546 2.546 0 0 0 2.534-2.551V7.125a2.546 2.546 0 0 0-2.534-2.551H1.898c.644-1.722 2.296-2.952 4.23-2.952h30.567a.807.807 0 0 0 .805-.81.81.81 0 0 0-.805-.81H6.13C2.749.002 0 2.769 0 6.171v9.14c0 .448.361.81.805.81zm6.297-8.994v3.483c0 .512-.415.93-.924.93H1.612V6.195h4.566c.509 0 .924.417.924.93M41.21 26.55a2.43 2.43 0 0 0-2.42 2.436 2.43 2.43 0 0 0 2.42 2.436 2.43 2.43 0 0 0 2.42-2.436 2.43 2.43 0 0 0-2.42-2.436m0 3.248a.813.813 0 0 1-.81-.814c0-.449.364-.814.81-.814.445 0 .808.365.808.814a.813.813 0 0 1-.809.814zM10.528 26.55a2.43 2.43 0 0 0-2.42 2.436 2.43 2.43 0 0 0 2.42 2.436 2.43 2.43 0 0 0 2.42-2.436 2.43 2.43 0 0 0-2.42-2.436m0 3.248a.813.813 0 0 1-.81-.814c0-.449.364-.814.81-.814.445 0 .808.365.808.814a.813.813 0 0 1-.808.814"/>
    <path fill="#fff" d="M52.507 10.822h-.77C51.733 4.852 46.908 0 40.978 0h-4.655a.807.807 0 0 0-.804.81c0 .446.36.81.804.81h4.655a9.1 9.1 0 0 1 6.704 2.952H38.92a2.547 2.547 0 0 0-2.535 2.551v4.153c0 3.242 2.621 5.878 5.84 5.878h7.9v1.564h-1.64a1.96 1.96 0 0 0-1.955 1.965v.908c0 1.083.876 1.967 1.954 1.967h1.64v1.547h-4.73a5.66 5.66 0 0 0-4.187-1.851 5.66 5.66 0 0 0-4.187 1.85h-3.058V7.125a2.547 2.547 0 0 0-2.535-2.552H23.7a2.546 2.546 0 0 0-2.535 2.551v17.982h-6.456a5.66 5.66 0 0 0-8.37 0H1.611v-6.39a.81.81 0 0 0-.805-.813.81.81 0 0 0-.805.813v8.208c0 1.98 1.6 3.59 3.567 3.59h1.48c.667 2.417 2.871 4.197 5.482 4.197 3.137 0 5.691-2.57 5.691-5.728 0-.8-.164-1.563-.46-2.255h20.22a5.7 5.7 0 0 0-.458 2.164h-17.03a.81.81 0 0 0-.805.81c0 .447.36.81.804.81H35.73c.667 2.417 2.87 4.197 5.482 4.197s4.816-1.78 5.483-4.196h1.48c1.966 0 3.567-1.61 3.567-3.59V12.437h.77c.486 0 .881.398.881.887v2.661c0 .448.362.81.805.81a.81.81 0 0 0 .805-.81v-2.661a2.504 2.504 0 0 0-2.493-2.51l-.004.007zM1.612 26.927v-.196h3.685a5.8 5.8 0 0 0-.459 2.164H3.565a1.964 1.964 0 0 1-1.955-1.968zm8.915 6.165c-2.25 0-4.079-1.841-4.079-4.106s1.83-4.107 4.08-4.107 4.079 1.842 4.079 4.107c0 2.264-1.831 4.106-4.08 4.106M32.355 7.125v17.982h-3.98V6.196h3.056c.509 0 .924.417.924.93zm-9.574 0c0-.512.415-.93.924-.93h3.058v18.912h-3.98V7.125zm19.445 8.41c-2.332 0-4.228-1.91-4.228-4.257V7.125c0-.512.415-.93.923-.93h9.96a9.2 9.2 0 0 1 1.246 4.634v4.707h-7.901zm6.261 6.404a.344.344 0 0 1-.342-.344v-.908c0-.19.153-.345.342-.345h1.64v1.596h-1.64zM41.21 33.092c-2.25 0-4.079-1.841-4.079-4.106s1.83-4.107 4.08-4.107 4.079 1.842 4.079 4.107c0 2.264-1.83 4.106-4.08 4.106m8.918-6.165a1.965 1.965 0 0 1-1.955 1.968H46.9a5.7 5.7 0 0 0-.46-2.164h3.686v.196z"/>
    <path fill="#fff" d="M13.232 4.574a2.546 2.546 0 0 0-2.535 2.551v3.483a2.546 2.546 0 0 0 2.535 2.551h3.525a2.546 2.546 0 0 0 2.535-2.551V7.125a2.546 2.546 0 0 0-2.535-2.551zm4.448 2.551v3.483c0 .512-.414.93-.923.93h-3.525a.93.93 0 0 1-.923-.93V7.125c0-.512.415-.93.923-.93h3.525c.509 0 .923.418.923.93m6.935 9.381h-.125a.806.806 0 0 0-.804.81c0 .448.36.81.804.81h.125a.807.807 0 0 0 .804-.81.81.81 0 0 0-.804-.81m5.907 1.622h.124a.81.81 0 0 0 .805-.81.81.81 0 0 0-.805-.81h-.124a.806.806 0 0 0-.805.81c0 .448.361.81.805.81"/>
  </g>
</svg>