<svg xmlns="http://www.w3.org/2000/svg" fill="none" aria-hidden="true" viewBox="0 0 48 48">
  <circle cx="24" cy="24" r="24" fill="#000" fill-opacity="0.5" />
  <g transform="translate(5, 11)">
    <mask id="a" width="38" height="26" x="0" y="0" fill="#fff" maskUnits="userSpaceOnUse" style="mask-type:luminance">
      <path d="M38 .317H0V25.22h38z"/>
    </mask>
    <g fill="#fff" mask="url(#a)">
      <path d="M33.981 16.758a.56.56 0 0 0-.15.777 2.5 2.5 0 0 1 .424 1.4 2.497 2.497 0 0 1-2.486 2.502 2.48 2.48 0 0 1-2.367-1.732.556.556 0 1 0-1.059.344 3.59 3.59 0 0 0 3.426 2.508c1.986 0 3.599-1.625 3.599-3.622a3.64 3.64 0 0 0-.615-2.028.55.55 0 0 0-.772-.149"/>
      <path d="m34.514 13.308.33-.258q.262-.207.492-.445l.006-.006a4.7 4.7 0 0 0 1.315-3.306 4.69 4.69 0 0 0-1.86-3.733L28.361.657a1.605 1.605 0 0 0-2.445.637l-2.02-.707a1.52 1.52 0 0 0-1.936.944 1.536 1.536 0 0 0 .938 1.95l1.902.665-.13.33a.395.395 0 0 1-.496.233L20.8 3.49a4.44 4.44 0 0 0-4.967 1.403l-.626.779a1.81 1.81 0 0 1-1.822.628l-3.648-.863a.33.33 0 0 1-.246-.237.34.34 0 0 1 .085-.332c.359-.364.484-.892.327-1.38a1.35 1.35 0 0 0-1.067-.926l-2.724-.451a5.42 5.42 0 0 0-3.738.74L.782 3.84c-.557.337-.85.949-.765 1.594a1.59 1.59 0 0 0 1.164 1.344l3.554.926a.555.555 0 0 0 .677-.402.56.56 0 0 0-.4-.682l-3.546-.924a.48.48 0 0 1-.346-.408.49.49 0 0 1 .238-.49l1.597-.99a4.3 4.3 0 0 1 2.973-.589l2.724.45c.125.02.172.112.19.164a.24.24 0 0 1-.058.247 1.45 1.45 0 0 0-.366 1.431c.146.515.545.897 1.064 1.019l3.648.862a2.93 2.93 0 0 0 2.943-1.016l.626-.779a3.33 3.33 0 0 1 3.724-1.052l3.379 1.22.007.001c.767.265 1.6-.122 1.895-.88l1.218-3.121a.497.497 0 0 1 .763-.215l6.437 4.903c.303.23.56.501.772.804h-2.868a1.6 1.6 0 0 0-1.593 1.603v.777c0 .61.353 1.174.896 1.443l2.593 1.271-5.671 4.435a4.3 4.3 0 0 0-.025-1.515 4.2 4.2 0 0 0-2.997-3.265L7.294 7.21a.56.56 0 0 0-.278 1.084l3.417.89-2.042 3.657a6.2 6.2 0 0 0-1.516-.187C3.438 12.654.64 15.47.64 18.93s2.798 6.275 6.235 6.275 6.234-2.816 6.234-6.275a6 6 0 0 0-.006-.274l1.072-.361c.146.526.516.957 1 1.188l-.462.293c-.482.307-.7.886-.54 1.437.16.553.648.923 1.22.923h2.064c.308 0 .557-.25.557-.56s-.25-.56-.557-.56h-2.064q-.118 0-.152-.115t.067-.178l3.401-2.166a2.64 2.64 0 0 0 1.223-2.238v-4.645l4.996 1.407a3.06 3.06 0 0 1 2.205 2.4 3.07 3.07 0 0 1-1.137 3.062l-2.234 1.748a3.4 3.4 0 0 1-2.091.723h-3.965a.56.56 0 0 0-.556.56c0 .31.249.56.556.56h3.965a4.53 4.53 0 0 0 2.773-.958l1.222-.957c.595 2.843 3.103 4.984 6.1 4.984 3.437 0 6.235-2.816 6.235-6.276a6.29 6.29 0 0 0-3.487-5.63v.01zM23.261 2.42a.412.412 0 0 1 .135-.8.4.4 0 0 1 .134.023l1.977.691-.299.766-1.945-.68zm-4.44 10h-1.934v-1.55l1.934.504v1.045zm-4.713 1.869v.49l-2.04.687a6 6 0 0 0-.803-.983l2.475-4.433 2.037.531v1.847a1.87 1.87 0 0 0-1.667 1.859zm0 1.671v1.181l-6.643 2.236a.553.553 0 0 1-.704-.355.563.563 0 0 1 .35-.709zm-1.485-6.2-.837 1.5-.936-.528.7-1.25 1.075.28-.002-.003zm-2.318 1.948.936.528-.848 1.52a6 6 0 0 0-.934-.533zM6.877 24.09c-2.824 0-5.122-2.312-5.122-5.155s2.298-5.155 5.122-5.155c1.67 0 3.152.808 4.088 2.055l-1.56.523a3.57 3.57 0 0 0-2.528-1.047c-1.985 0-3.598 1.626-3.598 3.622s1.615 3.624 3.598 3.624a3.57 3.57 0 0 0 2.183-.74.564.564 0 0 0 .105-.786.555.555 0 0 0-.78-.107 2.45 2.45 0 0 1-1.508.513 2.497 2.497 0 0 1-2.486-2.502 2.497 2.497 0 0 1 2.486-2.502c.462 0 .895.129 1.268.352l-1.387.468a1.67 1.67 0 0 0-.965.844c-.2.402-.23.858-.09 1.283a1.67 1.67 0 0 0 2.114 1.061l4.18-1.407c-.052 2.798-2.327 5.056-5.12 5.056m11.238-6.474-1.459.928h-.693a.75.75 0 0 1-.745-.747V14.29a.75.75 0 0 1 .745-.75h2.856v1.942h-1.113a.56.56 0 0 0-.556.56c0 .31.249.56.556.56h1.088a1.52 1.52 0 0 1-.68 1.014zm13.431-7.978v-.777c0-.266.216-.483.48-.483h3.39c.079.296.124.605.126.924a3.6 3.6 0 0 1-.752 2.23l-2.974-1.458a.49.49 0 0 1-.27-.434zm.714 8.94a.556.556 0 1 1-1.057.352l-.8-2.411.93-.73.925 2.785zm-.492 5.512c-2.654 0-4.841-2.04-5.095-4.647l2.803-2.19.677 2.037a1.673 1.673 0 0 0 2.111 1.061 1.676 1.676 0 0 0 1.055-2.127l-1.05-3.16 1.245-.973a5.16 5.16 0 0 1 3.376 4.844c0 2.843-2.297 5.155-5.122 5.155"/>
    </g>
  </g>
</svg>