<svg xmlns="http://www.w3.org/2000/svg" viewBox="0 0 239.59 346.94">
  <path d="M227.66 317c8.64 1.79 11.91 5.79 11.92 14.31v15.6H.2c0-6.41-.41-12.88.13-19.27.45-5.4 4.42-8.58 11.15-10.51.8-7.17 1.21-14.38 2.47-21.44 5.72-32 22.07-58 46.06-79.31a200 200 0 0 1 21.08-16.08c20.69-14 20.78-39.78-.08-53.57-26.43-17.47-47.16-39.81-59.5-69.35a125.9 125.9 0 0 1-9.6-47.28C2.1 26.65 0 23.66 0 13.29V0h239.47c0 6.53.33 13-.1 19.42-.36 5.56-4.51 9-10.72 10.34-1.75 10.71-2.65 21.34-5.31 31.52-8.61 33.12-28.51 58.59-55.45 78.95-3.38 2.55-6.92 4.9-10.45 7.25-19.26 12.82-19.31 39.33.07 52 22.29 14.59 40.81 32.73 53.85 56.14a127.5 127.5 0 0 1 16.3 61.38m-12.24.05a13 13 0 0 0 .17-1.62c0-1.75 0-3.5-.15-5.24A117.3 117.3 0 0 0 198 256.35c-12.22-19.83-29.07-34.88-48.26-47.76-25-16.76-24.88-53-.21-70.19 3-2.06 6-4 9-6.12 27.17-19.84 46.9-44.93 54.38-78.37 1.74-7.8 2.27-15.87 3.38-23.94H24.2c0 2.74-.17 5.24 0 7.7 2.36 29.3 14.63 54.06 34.6 75.25a165.7 165.7 0 0 0 29.68 24.44c13.56 8.95 20.49 21.7 19.88 37.91-.58 15.14-8 26.63-20.65 34.92-27 17.72-47.65 40.74-58.1 71.89a108 108 0 0 0-5.66 35z"/>
  <path d="M119.81 162.44c-4.08-16.7-14-28.41-28.07-37.49A127.2 127.2 0 0 1 50.2 81.6c-.57-1-1.06-2-1.55-3-.09-.19 0-.48.05-.85h142.68c-.78 1.5-1.37 2.77-2.07 4a122.65 122.65 0 0 1-38.86 41.36c-14.82 9.71-26.59 21.23-30.64 39.33M203.1 305.2h-167c2.31-4.12 4-7.94 6.38-11.22a55.64 55.64 0 0 1 21.39-17.19c10.32-4.9 21.06-8.93 31.61-13.34 3.9-1.63 7.91-3 11.66-5 5.84-3 8.45-5.74 12.72-12.18 5.92 10.63 16.23 14.5 26.85 18 14.14 4.64 28 10 39.75 19.42 5.06 4.06 9.18 9.37 13.4 14.39 1.49 1.83 2.05 4.44 3.24 7.12m-77.69-116.82v1.86c-.15 4.41-2.17 6.78-5.72 6.72-3.39-.06-5.35-2.37-5.49-6.56a43 43 0 0 1 0-4.83c.28-3.58 2.44-5.73 5.65-5.59 3.4.15 5.15 2.12 5.44 5.42.09 1 0 2 0 3zm0 29c0 6.93-1.67 9.53-5.62 9.53s-5.63-2.6-5.61-8.68a25 25 0 0 1 .12-3.34c.44-3.16 2.3-4.94 5.48-4.94s5 1.78 5.5 4.93a20 20 0 0 1 .13 2.5"/>
</svg>