<svg xmlns="http://www.w3.org/2000/svg" fill="none" aria-hidden="true" viewBox="0 0 54 54">
  <circle cx="27" cy="27" r="27" fill="#000" fill-opacity="0.5" />
  <g transform="translate(5.4, 14.4) scale(0.8)">
    <path fill="#fff" d="M.784 18.135a.786.786 0 0 0 .784-.789V2.896c0-.726.586-1.316 1.307-1.316h25.841A.786.786 0 0 0 29.5.79a.787.787 0 0 0-.784-.788H2.877A2.89 2.89 0 0 0 0 2.898v14.45c0 .437.352.79.784.79z"/>
    <path fill="#fff" d="M52.31 19.097 45.971 10.2a5.8 5.8 0 0 0-4.712-2.434h-.396v-.677a2.75 2.75 0 0 0-2.737-2.756h-4.041V2.896c0-1.597-1.29-2.896-2.877-2.896h-4.431a.786.786 0 0 0-.784.789c0 .435.352.789.784.789h4.43c.721 0 1.308.59 1.308 1.316v23.658h-18.19a5.507 5.507 0 0 0-8.15 0H1.569V20.82a.786.786 0 0 0-.783-.79.787.787 0 0 0-.784.79v7.504c0 1.928 1.558 3.494 3.473 3.494h1.44c.65 2.353 2.797 4.087 5.34 4.087 3.054 0 5.541-2.501 5.541-5.578 0-.78-.16-1.522-.45-2.196h22.866a5.6 5.6 0 0 0-.446 2.107h-19.76a.786.786 0 0 0-.784.79c0 .434.352.788.784.788h19.961c.65 2.353 2.797 4.087 5.34 4.087s4.689-1.734 5.339-4.087h1.44c1.915 0 3.473-1.568 3.473-3.494v-5.328a6.67 6.67 0 0 0-1.247-3.898zM1.57 28.324v-.193h3.588a5.6 5.6 0 0 0-.446 2.107H3.474c-1.05 0-1.905-.86-1.905-1.916zm8.682 6.003c-2.19 0-3.972-1.793-3.972-3.998s1.781-3.999 3.972-3.999 3.973 1.794 3.973 3.999-1.782 3.998-3.973 3.998m41.735-11.331v.839h-1.854a.334.334 0 0 1-.333-.335v-.885c0-.185.15-.335.333-.335h1.803q.049.355.05.716zm-2.777-5.542h-8.614a.94.94 0 0 1-.937-.943v-1.983c0-.52.42-.943.937-.943h5.855l2.757 3.87zM38.126 5.911c.644 0 1.168.527 1.168 1.176v.675h-5.21V5.91zv.002zm-4.041 20.643V9.344h7.174a4.23 4.23 0 0 1 3.437 1.776l.63.883h-4.732a2.517 2.517 0 0 0-2.506 2.523v1.983a2.517 2.517 0 0 0 2.506 2.523h9.738l.701.985q.233.33.411.683h-1.313a1.91 1.91 0 0 0-1.902 1.915v.885a1.91 1.91 0 0 0 1.902 1.915h1.854v1.139h-4.607a5.506 5.506 0 0 0-8.151 0h-5.144zm9.22 7.773c-2.191 0-3.973-1.793-3.973-3.998s1.782-3.999 3.973-3.999 3.972 1.794 3.972 3.999-1.782 3.998-3.972 3.998m8.682-6.003a1.913 1.913 0 0 1-1.904 1.916h-1.239a5.6 5.6 0 0 0-.445-2.107h3.588v.193z"/>
    <path fill="#fff" d="M43.304 27.956a2.367 2.367 0 0 0-2.357 2.373 2.367 2.367 0 0 0 2.357 2.372c1.3 0 2.355-1.064 2.355-2.372a2.367 2.367 0 0 0-2.355-2.373m0 3.163a.79.79 0 0 1-.787-.792c0-.437.353-.793.787-.793s.788.356.788.793a.79.79 0 0 1-.788.792m-33.052-3.163a2.367 2.367 0 0 0-2.356 2.373 2.367 2.367 0 0 0 2.356 2.372 2.37 2.37 0 0 0 2.357-2.372 2.367 2.367 0 0 0-2.357-2.373m0 3.163a.79.79 0 0 1-.788-.792c0-.437.354-.793.788-.793s.787.356.787.793a.79.79 0 0 1-.787.792m30.403-9.629a.786.786 0 0 0-.784-.79h-.995a.786.786 0 0 0-.784.79c0 .434.352.788.784.788h.995a.786.786 0 0 0 .784-.789z"/>
  </g>
</svg>