<svg xmlns="http://www.w3.org/2000/svg" viewBox="0 0 26 26.06">
  <path d="M25.23 24.44c-1.15-2.45-2.29-4.91-3.45-7.36a2.7 2.7 0 0 0-.53-.73.77.77 0 0 0-1.24 0c-.37.44-.67.94-1 1.41l-.19.29c-1.29-.64-2.55-1.28-3.82-1.9a.67.67 0 0 1-.41-.54q-.59-3.52-1.28-7.06a2.47 2.47 0 0 0-.7-1.38 11.8 11.8 0 0 0-2.74-2 1.46 1.46 0 0 0-.7-.17c-1.23 0-2.46.12-3.68.17a1.35 1.35 0 0 0-1 .49C3.43 6.84 2.37 8 1.31 9.11a.31.31 0 0 1-.31.13.78.78 0 0 0-.8 1 1 1 0 0 0 .59.62l16.91 8.45.3.16-.31.43a1.77 1.77 0 0 1-1.47.82 1 1 0 0 0-1 .67c-.73 1.57-1.5 3.13-2.25 4.7h12.8A2 2 0 0 0 26 26c-.26-.52-.52-1-.77-1.56M4.5 10.91 3 10.16l1.37-1.4c.29-.3.6-.6.9-.89.05-.06.12-.13.18-.13h1.22zm4.73 2.36 2.14-2.77 1.16 4.43z"/>
  <path d="M10.6 18.64c-.36-.6-.7-1.22-1.06-1.83a.85.85 0 0 0-.33-.32l-5.76-2.9-.25-.11c0 .11-.07.21-.09.3-.39 1.3-.77 2.6-1.15 3.9-.61 2.07-1.23 4.15-1.84 6.23a2.6 2.6 0 0 0-.11.62c0 .79.22 1.16 1.1 1.53h.31a1.58 1.58 0 0 0 1-1q1.47-4.06 3-8.15l.06-.15.2.16c.83.77 1.66 1.53 2.47 2.31a.7.7 0 0 1 .2.38c.23 1.76.44 3.51.66 5.27a1.33 1.33 0 0 0 .86 1.18h.46c.3-.11.62-.19.71-.57a2.5 2.5 0 0 0 .09-.54c-.05-1.71-.1-3.41-.17-5.11a2.44 2.44 0 0 0-.36-1.2m3.67-13.79A2.4 2.4 0 0 0 16 2.73 2.46 2.46 0 0 0 14.7.35a8 8 0 0 0-.91-.35h-.61L13 .05a2.44 2.44 0 0 0-1.84 1.52 2.34 2.34 0 0 0 .52 2.66 2.33 2.33 0 0 0 2.59.62"/>
</svg>