<svg xmlns="http://www.w3.org/2000/svg" viewBox="0 0 100 100" id="svg" style="--frame-c: #f6c6a4; fill: rgba(184, 20, 184, 0.2); stroke: rgba(240, 117, 240, 0.5); background-color: rgb(8, 8, 40); --frame-asr: 100 / 100.;"><g transform="translate(50 50) scale(1)"><circle cx="0" cy="0" r="9" stroke-width="0.15"></circle><circle cx="9" cy="0" r="9" stroke-width="0.15"></circle><circle cx="4.500000000000001" cy="7.794228634059947" r="9" stroke-width="0.15"></circle><circle cx="-4.499999999999998" cy="7.794228634059948" r="9" stroke-width="0.15"></circle><circle cx="-9" cy="1.102182119232618e-15" r="9" stroke-width="0.15"></circle><circle cx="-4.5000000000000036" cy="-7.794228634059945" r="9" stroke-width="0.15"></circle><circle cx="4.499999999999994" cy="-7.794228634059952" r="9" stroke-width="0.15"></circle><circle cx="18" cy="0" r="9" stroke-width="0.15"></circle><circle cx="13.5" cy="7.794228634059947" r="9" stroke-width="0.15"></circle><circle cx="9.000000000000002" cy="15.588457268119894" r="9" stroke-width="0.15"></circle><circle cx="2.6645352591003757e-15" cy="15.588457268119896" r="9" stroke-width="0.15"></circle><circle cx="-8.999999999999996" cy="15.588457268119896" r="9" stroke-width="0.15"></circle><circle cx="-13.499999999999998" cy="7.794228634059949" r="9" stroke-width="0.15"></circle><circle cx="-18" cy="2.204364238465236e-15" r="9" stroke-width="0.15"></circle><circle cx="-13.500000000000004" cy="-7.7942286340599445" r="9" stroke-width="0.15"></circle><circle cx="-9.000000000000007" cy="-15.58845726811989" r="9" stroke-width="0.15"></circle><circle cx="-9.769962616701378e-15" cy="-15.588457268119896" r="9" stroke-width="0.15"></circle><circle cx="8.999999999999988" cy="-15.588457268119903" r="9" stroke-width="0.15"></circle><circle cx="13.499999999999993" cy="-7.794228634059961" r="9" stroke-width="0.15"></circle><circle cx="27" cy="0" r="9" stroke-width="0.15"></circle><circle cx="22.5" cy="7.794228634059947" r="9" stroke-width="0.15"></circle><circle cx="18" cy="15.588457268119894" r="9" stroke-width="0.15"></circle><circle cx="13.500000000000004" cy="23.38268590217984" r="9" stroke-width="0.15"></circle><circle cx="4.5000000000000036" cy="23.382685902179844" r="9" stroke-width="0.15"></circle><circle cx="-4.499999999999996" cy="23.382685902179844" r="9" stroke-width="0.15"></circle><circle cx="-13.499999999999995" cy="23.382685902179844" r="9" stroke-width="0.15"></circle><circle cx="-17.999999999999996" cy="15.588457268119898" r="9" stroke-width="0.15"></circle><circle cx="-22.5" cy="7.79422863405995" r="9" stroke-width="0.15"></circle><circle cx="-27" cy="3.3065463576978537e-15" r="9" stroke-width="0.15"></circle><circle cx="-22.500000000000004" cy="-7.794228634059944" r="9" stroke-width="0.15"></circle><circle cx="-18.000000000000007" cy="-15.588457268119889" r="9" stroke-width="0.15"></circle><circle cx="-13.500000000000012" cy="-23.382685902179837" r="9" stroke-width="0.15"></circle><circle cx="-4.500000000000013" cy="-23.382685902179844" r="9" stroke-width="0.15"></circle><circle cx="4.499999999999984" cy="-23.382685902179848" r="9" stroke-width="0.15"></circle><circle cx="13.499999999999982" cy="-23.382685902179855" r="9" stroke-width="0.15"></circle><circle cx="17.999999999999986" cy="-15.588457268119914" r="9" stroke-width="0.15"></circle><circle cx="22.499999999999993" cy="-7.794228634059972" r="9" stroke-width="0.15"></circle><circle cx="36" cy="0" r="9" stroke-width="0.15"></circle><circle cx="31.5" cy="7.794228634059947" r="9" stroke-width="0.15"></circle><circle cx="27" cy="15.588457268119894" r="9" stroke-width="0.15"></circle><circle cx="22.500000000000004" cy="23.38268590217984" r="9" stroke-width="0.15"></circle><circle cx="18.000000000000004" cy="31.17691453623979" r="9" stroke-width="0.15"></circle><circle cx="9.000000000000005" cy="31.17691453623979" r="9" stroke-width="0.15"></circle><circle cx="5.329070518200751e-15" cy="31.176914536239792" r="9" stroke-width="0.15"></circle><circle cx="-8.999999999999993" cy="31.176914536239792" r="9" stroke-width="0.15"></circle><circle cx="-17.999999999999993" cy="31.176914536239792" r="9" stroke-width="0.15"></circle><circle cx="-22.499999999999993" cy="23.382685902179844" r="9" stroke-width="0.15"></circle><circle cx="-26.999999999999996" cy="15.588457268119898" r="9" stroke-width="0.15"></circle><circle cx="-31.5" cy="7.794228634059952" r="9" stroke-width="0.15"></circle><circle cx="-36" cy="4.408728476930472e-15" r="9" stroke-width="0.15"></circle><circle cx="-31.500000000000004" cy="-7.794228634059942" r="9" stroke-width="0.15"></circle><circle cx="-27.000000000000007" cy="-15.588457268119889" r="9" stroke-width="0.15"></circle><circle cx="-22.500000000000014" cy="-23.382685902179837" r="9" stroke-width="0.15"></circle><circle cx="-18.000000000000014" cy="-31.17691453623978" r="9" stroke-width="0.15"></circle><circle cx="-9.000000000000018" cy="-31.17691453623979" r="9" stroke-width="0.15"></circle><circle cx="-1.9539925233402755e-14" cy="-31.176914536239792" r="9" stroke-width="0.15"></circle><circle cx="8.999999999999979" cy="-31.1769145362398" r="9" stroke-width="0.15"></circle><circle cx="17.999999999999975" cy="-31.176914536239806" r="9" stroke-width="0.15"></circle><circle cx="22.499999999999982" cy="-23.382685902179865" r="9" stroke-width="0.15"></circle><circle cx="26.999999999999986" cy="-15.588457268119923" r="9" stroke-width="0.15"></circle><circle cx="31.499999999999993" cy="-7.794228634059982" r="9" stroke-width="0.15"></circle></g></svg>