	<svg viewbox="0 0 300 180" xmlns="http://www.w3.org/2000/svg">
	<style>
		line {stroke:currentColor;stroke-linecap:round;stroke-width:3;}
		</style>
		<!-- <path clip-rule="evenodd" d="M152.991 34.67C152.706 30.9785 147.294 30.9785 147.009 34.67L138.696 142.139C136.395 144.776 135 148.225 135 152C135 160.284 141.716 167 150 167C158.284 167 165 160.284 165 152C165 148.225 163.606 144.776 161.304 142.139L152.991 34.67Z" fill="currentColor" fill-rule="evenodd"></path> -->
		<g transform="translate(150, 152)">
			<line x1="-130" x2="-150" y1="-1.592040838891559e-14" y2="-1.8369701987210297e-14"></line>
			<line x1="-139.56842672263792" x2="-149.5376000599692" y1="-10.98427340189831" y2="-11.76886435917676"></line>
			<line x1="-138.27636768331928" x2="-148.15325108927064" y1="-21.900825105632336" y2="-23.465169756034648"></line>
			<line x1="-136.13178885567473" x2="-145.8554880596515" y1="-32.682350939826776" y2="-35.01680457838583"></line>
			<line x1="-133.14791228132148" x2="-142.65847744427302" y1="-43.262379212492654" y2="-46.35254915624213"></line>
			<line x1="-120.10433922646727" x2="-138.581929876693" y1="-49.74884620746169" y2="-57.40251485476348"></line>
			<line x1="-124.74091338637149" x2="-133.65097862825516" y1="-63.55866996353656" y2="-68.09857496093203"></line>
			<line x1="-119.3696230095729" x2="-127.89602465311383" y1="-73.14979906023285" y2="-78.37478470739234"></line>
			<line x1="-113.26237921249263" x2="-121.3525491562421" y1="-82.28993532094626" y2="-88.16778784387098"></line>
			<line x1="-106.45683518400433" x2="-114.06089484000464" y1="-90.92272676622572" y2="-97.41720724952756"></line>
			<line x1="-91.92388155425117" x2="-106.06601717798212" y1="-91.92388155425118" y2="-106.06601717798213"></line>
			<line x1="-90.9227267662257" x2="-97.41720724952754" y1="-106.45683518400435" y2="-114.06089484000465"></line>
			<line x1="-82.28993532094623" x2="-88.16778784387095" y1="-113.26237921249265" y2="-121.35254915624212"></line>
			<line x1="-73.14979906023284" x2="-78.37478470739232" y1="-119.36962300957292" y2="-127.89602465311384"></line>
			<line x1="-63.55866996353654" x2="-68.098574960932" y1="-124.7409133863715" y2="-133.6509786282552"></line>
			<line x1="-49.74884620746167" x2="-57.40251485476346" y1="-120.10433922646727" y2="-138.581929876693"></line>
			<line x1="-43.262379212492625" x2="-46.3525491562421" y1="-133.1479122813215" y2="-142.65847744427305"></line>
			<line x1="-32.68235093982675" x2="-35.0168045783858" y1="-136.13178885567473" y2="-145.8554880596515"></line>
			<line x1="-21.900825105632315" x2="-23.465169756034623" y1="-138.27636768331928" y2="-148.15325108927067"></line>
			<line x1="-10.984273401898282" x2="-11.768864359176732" y1="-139.56842672263792" y2="-149.5376000599692"></line>
			<line x1="7.960204194457796e-15" x2="9.184850993605149e-15" y1="-130" y2="-150"></line>
			<line x1="10.9842734018983" x2="11.76886435917675" y1="-139.56842672263792" y2="-149.5376000599692"></line>
			<line x1="21.90082510563233" x2="23.465169756034637" y1="-138.27636768331928" y2="-148.15325108927067"></line>
			<line x1="32.68235093982677" x2="35.01680457838582" y1="-136.13178885567473" y2="-145.8554880596515"></line>
			<line x1="43.26237921249265" x2="46.35254915624212" y1="-133.14791228132148" y2="-142.65847744427302"></line>
			<line x1="49.74884620746168" x2="57.402514854763474" y1="-120.10433922646727" y2="-138.581929876693"></line>
			<line x1="63.55866996353655" x2="68.09857496093203" y1="-124.74091338637149" y2="-133.65097862825516"></line>
			<line x1="73.14979906023285" x2="78.37478470739234" y1="-119.3696230095729" y2="-127.89602465311383"></line>
			<line x1="82.28993532094624" x2="88.16778784387097" y1="-113.26237921249265" y2="-121.35254915624212"></line>
			<line x1="90.92272676622571" x2="97.41720724952755" y1="-106.45683518400433" y2="-114.06089484000464"></line>
			<line x1="91.92388155425118" x2="106.06601717798213" y1="-91.92388155425117" y2="-106.06601717798212"></line>
			<line x1="106.45683518400433" x2="114.06089484000464" y1="-90.92272676622571" y2="-97.41720724952755"></line>
			<line x1="113.26237921249265" x2="121.35254915624212" y1="-82.28993532094624" y2="-88.16778784387097"></line>
			<line x1="119.3696230095729" x2="127.89602465311383" y1="-73.14979906023284" y2="-78.37478470739232"></line>
			<line x1="124.7409133863715" x2="133.6509786282552" y1="-63.558669963536545" y2="-68.09857496093201"></line>
			<line x1="120.10433922646727" x2="138.581929876693" y1="-49.748846207461675" y2="-57.40251485476347"></line>
			<line x1="133.14791228132148" x2="142.65847744427302" y1="-43.26237921249263" y2="-46.35254915624211"></line>
			<line x1="136.13178885567473" x2="145.8554880596515" y1="-32.682350939826755" y2="-35.01680457838581"></line>
			<line x1="138.27636768331928" x2="148.15325108927067" y1="-21.90082510563232" y2="-23.46516975603463"></line>
			<line x1="139.56842672263792" x2="149.5376000599692" y1="-10.984273401898292" y2="-11.768864359176742"></line>
			<line x1="130" x2="150" y1="0" y2="0"></line>
		</g>
	</svg>