<svg xmlns="http://www.w3.org/2000/svg" viewBox="0 0 300 100">
	<rect x="0" y="95" width="13.1" height="5" rx="6.5" />
	<rect x="15.1" y="90" width="13.1" height="10" rx="6.5" />
	<rect x="30.2" y="85" width="13.1" height="15" rx="6.5" />
	<rect x="45.3" y="80" width="13.1" height="20" rx="6.5" />
	<rect x="60.4" y="75" width="13.1" height="25" rx="6.5" />
	<rect x="75.5" y="70" width="13.1" height="30" rx="6.5" />
	<rect x="90.6" y="65" width="13.1" height="35" rx="6.5" />
	<rect x="105.7" y="60" width="13.1" height="40" rx="6.5" />
	<rect x="120.8" y="55" width="13.1" height="45" rx="6.5" />
	<rect x="135.9" y="50" width="13.1" height="50" rx="6.5" />
	<rect x="151" y="45" width="13.1" height="55" rx="6.5" />
	<rect x="166.1" y="40" width="13.1" height="60" rx="6.5" />
	<rect x="181.2" y="35" width="13.1" height="65" rx="6.5" />
	<rect x="196.3" y="30" width="13.1" height="70" rx="6.5" />
	<rect x="211.4" y="25" width="13.1" height="75" rx="6.5" />
	<rect x="226.5" y="20" width="13.1" height="80" rx="6.5" />
	<rect x="241.6" y="15" width="13.1" height="85" rx="6.5" />
	<rect x="256.7" y="10" width="13.1" height="90" rx="6.5" />
	<rect x="271.8" y="5" width="13.1" height="95" rx="6.5" />
	<rect x="286.9" y="0" width="13.1" height="100" rx="6.5" />
</svg>