<svg xmlns="http://www.w3.org/2000/svg" xml:space="preserve" stroke-linecap="round" stroke-linejoin="round" stroke-miterlimit="10" clip-rule="evenodd" viewBox="0 0 236.468 209.189">
  <path d="M40.7 8.326c-12.4 2.4-27.6 9.5-37.6 17.5l-3.1 2.6.2 81.2.3 81.2 5.2-3.5c9.3-6.3 16.9-9.5 28.3-12 13-2.9 19.3-3.1 34-1 10.6 1.5 34.2 8.9 50 15.5 35.1 14.9 42.4 17 61.5 17.7 19.4.8 33.3-2.6 48.8-12.1l6.7-4.1v-81.3c0-64.8-.3-81.2-1.2-80.6-.7.4-2.6 1.8-4.3 3-12.2 9.1-29.8 15.3-43.6 15.4-18.3 0-44.5-8.6-71.4-23.4-26.5-14.8-51.8-20.2-73.8-16.1Z"/>
</svg>
