<svg xmlns="http://www.w3.org/2000/svg" viewBox="0 0 950 620" class="map">
	<path id="AFG" data-country="afghanistan" d="m614.12 227.05 1.59 12.46 3.96.87.37 2.24-2.84 2.37 5.29 4.27 10.28-3.7.82-4.38 6.47-4.04 2.48-9.36 1.85-1.99-1.92-3.34 6.26-3.87-.8-1.12-2.89.18-.26 2.66-3.88-.04-.07-3.55-1.25-1.49-2.1 1.91.06 1.75-3.17 1.2-5.85-.37-7.6 7.96-6.8-.62z"/>
	<path id="AGO" data-country="angola" d="m488.62 356.71 3.41 12.73-.08 4.02-4.99 5.36-.75 8.71 19.2.17 6.24 2.26 5.15-.67-3-3.76.01-10.74 5.9-.25v-4.19l-4.79-.2-.96-9.92-2.02.03-1.09-.98-1.19.06-1.58 3.06H502l-1.41-1.42.42-2.01-1.66-2.43-10.73.17z"/>
	<path id="ALB" data-country="albania" d="M504.02 209.76v4.61l1.32 2.49.95-.11 1.63-2.97-.95-1.33-.37-3.29-1.26-1.17-1.32 1.77z"/>
	<path id="ARE" data-country="emirates" d="m594.01 264.94.87 3.48 9.86.87.69-7.14 1.9-1.04.52-2.61-3.11.87-3.46 5.23-7.27.34z"/>
	<g id="ARG" data-country="argentina">
		<path data-area="argentina-main" d="m305.47 418.2 1.94 1.82-7.37 10.95-2.59 2.87.9 12.51 5.69 6.91-4.78 8.34-3.62 1.56h-4.14l1.16 6.51-6.47 2.22 1.55 5.47-3.88 12.38 4.79 3.91-2.59 6.38-4.4 6.91 2.33 4.82-5.69.91-4.66-5.73-.78-17.85-7.24-30.32 2.19-10.6-4.66-13.55 3.1-17.59 2.85-3.39-.7-2.57 3.66-3.34 8.16.56 4.56 4.87 5.27.09 5.4 3.3-1.59 3.72.38 3.76 7.65-.36 3.58-5.47z"/>
		<path data-area="tierra del fuego argentina" d="m288.92 518.79.26 5.73 4.4-.39 3.75-2.48-6.34-1.3-2.07-1.56z"/>
	</g>
	<path id="ARM" data-country="armenia" d="m569.72 209.89 4.8 6.26-1.41 1.65-3.4-.59-4.22-3.78.23-2.48 4-1.06z"/>
	<g id="ATA" data-country="antarctica">
		<path data-area="east antarctica" d="m388.52 622.99 3.83-5.11 14.89-7.66 2.55-5.53 6.38-1.28 5.96-7.66 5.96-.43 1.28-5.96 5.11-3.83 4.26 1.28 12.34-3.83 2.98 2.98 5.53.43 5.11-2.55 30.64-.43 11.06 2.98 14.04-2.98 4.68.43 1.28-4.26h4.68l6.38 6.81 11.92-7.66 13.19-3.83 4.68 2.98.43-5.96 6.81-.85 7.23 3.4v3.4l18.3 7.66 5.11-.43 2.13 2.55-5.96 6.81v4.68l5.53 2.98 1.28-2.98 25.11-9.79 18.3-1.7 3.83 2.13 14.47 2.13 3.4 1.28 4.68-2.55 6.81-.43 6.38 4.68.43 5.11 14.47-2.98 2.13.85.85 4.68 13.19 4.26 4.26-2.98.43 3.83 4.68.43 6.38 5.11 5.96-2.55 5.11.43h3.83l2.55-.43.43 6.81 8.51 5.11-375.78.42z"/>
		<path data-area="antarctic peninsula" d="m260.01 622.99 13.62-3.83.85-3.83 14.47-3.4 8.51 2.13 18.72-7.66-.43-8.08-5.53-8.51 1.28-2.13-2.13-5.53v-5.96h3.4l-2.13-4.26 15.32-13.19-.43 5.96-2.98.85-2.98 5.11 2.98 1.28-2.98 4.26-3.4-.85-1.7 3.83.43 5.11 5.11-.43 3.4 4.68 1.28 5.96 6.81 8.51.43 10.64-2.55 1.28 2.13 5.53-1.28 2.13-70.22.4z"/>
		<path data-area="thurston" d="m250.22 615.33 5.11-.85 2.13 1.7-.85 2.13-.43 2.55-2.98 1.28-2.13-2.55h-8.51v-1.7l3.83-.85 3.83-1.71z"/>
		<path data-area="alexander" d="m304.69 587.67-4.26.85 2.55 4.68 2.98 1.28-1.28 2.55v1.7l-8.09 2.13.85 2.55 3.4 1.28 3.83-2.98 3.4.85-2.13 3.4 1.28.85 3.83-1.7 2.98-5.53-9.34-11.91z"/>
		<path data-area="smyley" d="m295.75 606.82-3.4 2.98 2.98.85 3.83.85 3.83-2.55-3.83-.85-3.41-1.28z"/>
		<path data-area="elephant" d="m329.33 547.24-2.16.85-.55 2.04 1.87.68 3.14-2.16-2.3-1.41z"/>
		<path data-area="robert" d="m319.57 556.47-2.49.5-.55 2.55 4.76-.7-1.72-2.35z"/>
		<path data-area="king_george" d="m323.59 552.54-2.99.57.57 2.31 3.64-.13-1.22-2.75z"/>
		<path data-area="james_ross" d="m328.34 557.17.02 3.56 2.05.09 1.66-2.64-3.73-1.01z"/>
	</g>
	<g id="AUS" data-country="australia">
		<path data-area="australia" d="m761.17 427.98-.35 25.38-3.9 2.86-.35 2.5 5.32 3.57 13.13-2.5h6.74l2.48-3.58 14.9-2.86 10.64 3.22-.71 4.29 1.42 4.29 8.16-1.43.35 2.14-5.32 3.93 1.77 1.43 3.9-1.43-1.06 11.8 7.45 5.72 4.26-1.43 2.13 2.14 12.42-1.79 11.71-18.95 4.26-1.07 8.51-15.73 2.13-13.58-5.32-6.79 2.13-1.43-4.26-13.23-4.61-3.22.71-17.87-4.26-3.22-1.06-10.01h-2.13l-7.1 23.59-3.9.36-8.87-8.94 4.97-13.23-9.22-1.79-10.29 2.86-2.84 8.22-4.61 1.07-.35-5.72-18.8 11.44.35 4.29-2.84 3.93h-7.1l-15.26 6.43-5.33 14.34z"/>
		<path data-area="tasmania" d="m825.74 496.26-1.77 7.15.35 5 5.32-.36 6.03-9.29-9.93-2.5z"/>
	</g>
	<path id="AUT" data-country="austria" d="m480.63 190.12-.65 1.35.56.96 2.33-.48h1.98l2.15 1.82 4.57-.83 3.36-2 .86-1.35-.13-1.74-3.02-2.26-4.05.04-.34 2.3-4.26 2.08-3.36.11z"/>
	<path id="AZE" data-country="azerbaijan" d="m571.41 207.72-1.01 1.72 4.71 6.18 1.64-.53 2.7 2.83 1.17-4.96 2.93.47-.12-1.42-4.82-4.22-.92 2.48-6.28-2.55z"/>
	<path id="BDI" data-country="burundi" d="m536.21 346.21 4.27-.09-1.11 3.74-1.08.94h-1.32l-.94-2.53.18-2.06z"/>
	<path id="BEL" data-country="belgium" d="m461.61 176.52-.64 1.6 6.88 4.54 1.98.47.07-2.15-1.73-1.94h-1.06l-1.45-1.65-4.05-.87z"/>
	<path id="BEN" data-country="benin" d="M458.71 319.49h2.12l.12-6.02 2.68-3.89-.12-6.77-2.43-.06-4.17 3.26 1.74 3.32.06 10.16z"/>
	<path id="BFA" data-country="burkina" d="m450.59 294.28 3.64-.29 5.97 8.44-5.54 4.18-4.01-1.03-5.39.07-.87 3.16-4.52.22-1.24-1.69 1.6-5.14 10.36-7.92z"/>
	<path id="BGD" data-country="bangladesh" d="m695.57 253.11-1.31 2.37 3.4 6.46.1 5.04.62 1.35 3.99.07 2.26-2.17 1.64.99.33 3.07 1.31-.82.08-3.92-1.1-.13-.69-3.33-2.78-.1-.69-1.85 1.7-2.27.03-1.12h-4.94l-3.95-3.64z"/>
	<path id="BGR" data-country="bulgaria" d="m511.44 202.39.16 4.98 1.68 3.5 6.31.11 2.84-2.01 2.79-1.11-.68-3.18.63-1.7-1.42-.74-1.95.16-1.53 1.54-6.42.05-2.41-1.6z"/>
	<g id="BHS" data-country="bahamas">
		<path id="bimini" d="m239.61 259.13-1.26-.39-.1 2.43 1.55 1.56 1.06-1.56-1.25-2.04z"/>
		<path id="andros" d="m242.12 262.93-1.74.97 1.64 2.34.87-1.17-.77-2.14z"/>
		<path id="inagua" d="m247.73 264.68-1.84-.1.19 1.17 1.35 1.95 1.16-1.27-.86-1.75z"/>
		<path id="eleuthera" d="m246.86 262.35-3-1.27-.58-3.02 1.16-.49 1.16 2.34 1.16.88.1 1.56z"/>
		<path id="grand bahama" d="m243.96 256.21-1.55-.39-.29-1.95-1.64-.58 1.06-1.07 1.93.68 1.45.88-.96 2.43z"/>
	</g>
	<path id="BIH" data-country="bosnia" d="m494.8 198.94-.37.61 6.71 6.92 2.46-3.62-.09-1.43-2.15-2.61-6.56.13z"/>
	<path id="BLR" data-country="belarus" d="m510.66 166.29 1.5 2.47-.6 1.97.1 1.56.55 1.87 3.1-1.76 3.85.1 2.7 1.11h6.85l2-4.79 1.2-1.81v-1.21l-4.3-6.05-3.8-1.51-3.1-.35-2.7.86.1 2.72-3.75 4.74-3.7.08z"/>
	<path id="BLZ" data-country="belize" d="m204.56 282.4-.05 3.65h.84l2.86-5.34h-1.94l-1.71 1.69z"/>
	<path id="BOL" data-country="bolivia" d="m258.71 372.79 8.23-3.59 2.72.26 1.81 7.56 12.54 4.17 2.07 6.39 5.17.65 2.2 5.47-1.55 4.95-8.41.65-3.1 7.95-6.6-.13-2.07-.39-3.81 3.7-1.88-.18-6.47-14.99 1.79-2.68.63-10.6-1.6-6.31-1.67-2.88z"/>
	<path id="BRA" data-country="brazil" d="m314.24 438.85 6.25-12.02.23-10.1 11.66-7.52h6.53l5.13-8.69.93-16.68-2.1-4.46 12.36-11.28.47-12.45-16.79-8.22-20.28-6.34-9.56-.94 2.57-5.4-.7-8.22-2.09-.69-3.09 6.14-1.62 2.03-4.16-1.84-13.99 4.93-4.66-5.87.75-6.13-4.4 4.48-4.86-2.62-.49.69.01 2.13 4.19 2.25-6.29 6.63-3.97-.04-4.02-4.09-4.55.14-.56 4.86 2.61 3.17-3.08 9.87-3.6.28-5.73 3.62-1.4 7.11 4.97 5.32.91-1.03 3.49-.94 2.98 5.02 8.53-3.66 3.31.19 2.28 8.07 12.17 3.86 2.1 6.44 5.18.62 2.47 6.15-1.67 5.47 2.18 2.86-.32 4.26 5.84-.55 5.35 6.76-.42 4.75 3.17 2.68-7.6 11.51 13.38 7.49z"/>
	<path id="BRN" data-country="brunei" d="m779.77 319.25-2.88 3.49 2.36.74 1.33-1.86-.81-2.37z"/>
	<path id="BTN" data-country="bhutan" d="m695.4 248.08 1.55 2.12 5.24.04-.53-2.9-6.26.74z"/>
	<path id="BWA" data-country="botswana" d="m508.51 411.23 2.15.66-.3 6.15 2.21.3 5.08-4.58 6.1.66 1.62-4.1 7.72-7.05-9.27-10.67-.12-1.75-1.02-.3-2.81 2.59-7.3.18-1.02 9.1-2.87.66-.17 8.15z"/>
	<path id="CAB" data-country="cabinda" d="m486.55 353.23 1.74 2.26 2.25-2.13-.66-2.21-.56-.04-2.77 2.12z"/>
	<path id="CAF" data-country="centrafrique" d="m495.66 324.05 4.66 5.04 1.84-2.38 2.93.12.63-2.32 2.88-1.8 5.98 4.12 3.45-3.42 13.39.59L519 311.18l1.67-1.04.23-2.26-2.82-1.33h-4.14l-6.67 6.61-.23 2.72-5.29-.17-.17 1.16-3.45-.35-3.11 5.91.64 1.62z"/>
	<g id="CAN" data-country="canada">
		<path data-area="canada-main" d="m158.22 48.66 1.99 3.01 1 4.02 4.98 1.25 3.49-3.76 2.99 1.51 8.47.75 5.98-2.51 1 8.28h3.49V57.7l3.49.25 8.72 10.29 5.73 3.51-2.99 4.77 1.25 1.25L219 80.03l.25 5.02 2.99.5.75-7.53 4.73-1.25 3.49 5.27 7.47 3.51 3.74.75 2.49-3.01.25-4.77 4.48-2.76 1.49 4.02-3.99 7.03.5 3.51 2.24-3.51 4.48-4.02.25-5.27-2.49-4.02.75-3.26 5.98-3.01 2.74 2.01.5 17.57 4.23-3.76 2.49 1.51-3.49 6.02 4.48 1 6.48-10.04 5.48 5.77-2.24 10.29-5.48 3.01-5.23-2.51-9.46 2.01 1 3.26-2.49 4.02-7.72 1.76-8.72 6.78-7.72 10.29-1 3.26 5.23 2.01 1.99 5.02 7.22 7.28 11.46 5.02-2.49 11.54-.25 3.26 2.99 2.01 3.99-5.27.5-10.04 6.23-.25 2.99-5.77.5-8.78 7.97-15.56 9.96 3.51 5.23 7.28-2.24 7.28 3.99 2.26 9.71-6.53 2.74 17.82 8.97 10.79.25 5.52-9.96 2.51-4.73 5.02-9.96-2.26-4.98-.25-8.72 6.78 5.23-1.25 6.48-1.25 1.25 1.51-1.74 5.52.25 5.02 2.99 2.01 2.99-.75 1.5-2.26h1.99l-3.24 6.02-6.23.25-2.74 4.02h-3.49l-1-3.01 4.98-5.02-5.98 2.01-.27-8.53-1.72-1-5.23 2.26-.5 4.27h-11.96l-10.21 7.03-13.7 4.52-1.49-2.01 6.9-10.3-3.92-3.77-2.49-4.78-5.07-3.87-5.44-.45-9.75-6.83-70.71-11.62-1.17-4.79-6.48-6.02v-5.02l1-4.52-.5-2.51-2.49-2.51-.5-4.02 6.48-4.52-3.99-21.58-5.48-.25-4.98-6.53 27.36-46.49z"/>
		<path data-area="haida gwaii" d="m133.83 128.41-1.7 3.26.59 2.31 1.11.69-.26.94-1.19.34.34 3.43 1.28 1.29 1.02-1.11-1.28-3.34.76-2.66 1.87-2.49-1.36-2.31-1.18-.35z"/>
		<path data-area="vancouver" d="m139.45 147.95-1.53.6 2.81 3.26.68 3.86 2.81 3 2.38-.43v-3.94l-2.89-1.8-4.26-4.55z"/>
		<path data-area="banks" d="m203.73 35.89.22 4.02-7.98 8.27 2 6.7 5.76-1.56 3.33-4.92 8.42-3.13 6.87-.45-5.32-5.81-2.66 2.01-2-.67-1.11-2.46-2.44-2.46-5.09.46z"/>
		<path data-area="prince patrick" d="m214.15 24.05-1.77 3.13 8.65 3.13 3.1-4.69 1.33 3.13h2.22l4.21-4.69-5.1-1.34-2-1.56-2.66 2.68-7.98.21z"/>
		<path data-area="eglinton" d="m229.23 30.31-6.87 2.9v2.23l8.87 3.35-2 2.23 1.33 2.9 5.54-2.46h4.66l2.22 3.57 3.77-3.8-.89-3.58-3.1 1.12-.44-4.47 1.55-2.68h-1.55l-2.44 1.56-1.11.89.67 3.13-1.77 1.34-2.66-.22-.67-4.02-5.11-3.99z"/>
		<path data-area="mackenzie king" d="m238.32 23.38-.67 2.23 4.21 2.01 3.1-1.79-.22-1.34-6.42-1.11z"/>
		<path data-area="king christian" d="m241.64 19.58-3.1 1.12.22 1.56 6.87-.45-.22-1.56-3.77-.67z"/>
		<path data-area="ellef ringnes" d="m256.5 23.38-.44 1.56-1.11 1.56v2.23l4.21-.67 4.43 3.8h1.55v-3.8l-4.43-4.92-4.21.24z"/>
		<path data-area="amund ringnes" d="m267.81 27.85 1.77 2.01-1.55 2.68 1.11 2.9 4.88-2.68v-2.01l-2.88-3.35-3.33.45z"/>
		<path data-area="axel heiberg" d="m274.24 22.71.22 3.57h5.99l1.55 1.34-.22 1.56-5.32.67 3.77 5.14 5.1.89 7.09-3.13-10.2-15.42-3.1 2.01.22 2.68-3.55-1.34-1.55 2.03z"/>
		<path data-area="victoria" d="m222.58 47.96-8.42 2.23-4.88 4.25.44 4.69 8.87 2.68-2 4.47-6.43-4.02-1.77 3.35 4.21 2.9-.22 4.69 6.43 1.79 7.76-.45 1.33-2.46 5.76 6.48 3.99-1.34.67-4.47 2.88 2.01.44-4.47-3.55-2.23.22-14.07-3.1-2.46-3.32 4.47-9.31-8.04z"/>
		<path data-area="prince of wales" d="m249.63 57.79-2.88-1.34-1.55 2.01 3.1 4.92.22 4.69 6.65-4.02v-5.81l2.44-2.46-2.44-1.79h-3.99l-1.55 3.8z"/>
		<path data-area="prescott" d="m263.82 55.78-4.66 3.8 1.11 4.69h2.88l1.33-2.46 2 2.01 2-.22 5.32-4.47-9.98-3.35z"/>
		<path data-area="cornwallis" d="m263.37 48.4-1.11 2.23 4.88 1.79 1.33-2.01-5.1-2.01z"/>
		<path data-area="bathurst" d="m260.49 39.91-4.88.67-2.88 2.68 5.32.22-1.55 4.02 1.11 1.79 1.55-.22 3.77-6.03-2.44-3.13z"/>
		<path data-area="devon" d="m268.92 38.35-2.66.89.44 3.57 4.43 2.9.22 2.23-1.33 1.34.67 4.47 17.07 5.58 4.66 1.56 4.66-4.02-5.54-4.47-5.1 1.34-7.09-.67-2.66-2.68-.67-7.37-4.43-2.23-2.67-2.44z"/>
		<path data-area="baffin" d="m282.88 61.59-4.88-.45-5.76 2.23-3.1 4.24.89 11.62 9.53.45 9.09 4.47 6.43 7.37 4.88-.22-1.33 6.92-4.43 7.37-4.88 2.23-3.55-.67-1.77-1.56-2.66 3.57 1.11 3.57 3.77.22 4.66-2.23 3.99 10.28 9.98 6.48 6.87-8.71-5.76-9.38 3.33-3.8 4.66 7.82 8.42-7.37-1.55-3.35-5.76 1.79-3.99-10.95 3.77-6.25-7.54-8.04-4.21 2.9-3.99-8.71-8.42 1.12-2.22-10.5-6.87 4.69-.67 5.81h-3.77l.44-5.14 5.29-7.82z"/>
		<path data-area="bylot" d="m292.86 65.61-1.77 1.79 1.55 2.46 7.32.89-4.66-4.92-2.44-.22z"/>
		<path data-area="ellesmere" d="M285.77 40.36v2.01l-4.88 1.12 1.33 2.23 5.54 2.23 6.21.67 4.43 3.13 4.43-2.46-3.1-3.13h3.99l2.44-2.68 5.99-.89v-1.34l-3.33-2.23.44-2.46 9.31 1.56 13.75-5.36-5.1-1.56 1.33-1.79h10.64l1.77-1.79-21.51-7.6-5.1-1.79-5.54 4.02-6.21-5.14-3.33-.22-.67 4.25-4.21-3.8-4.88 1.56.89 2.46 7.32 1.56-.44 3.57 3.99 2.46 9.76-2.46.22 3.35-7.98 3.8-4.88-3.8-4.43.45 4.43 6.26-2.22 1.12-3.33-2.9-2.44 1.56 2.22 4.24h3.77l-.89 4.02-3.1-.45-3.99-4.25-2.64.47z"/>
		<path data-area="southhampton" d="m266.01 101.85-4.23 5.32-.26 5.86 3.7-2.13h4.49l3.17 2.93 2.91-2.4-9.78-9.58z"/>
		<path data-area="newfoundland" d="m317.52 171.05-10.57 10.12 1.06 2.4 12.94 4.79 1.85-3.19-1.06-5.32-4.23.53-2.38-2.66 3.96-3.99-1.57-2.68z"/>
	</g>
	<path id="CHE" data-country="switzerland" d="m472.91 189.38-4.36 4.64.09.47 1.79-.56 1.61 2.24 2.72-.96 1.88 1.46.77-.44 2.32-3.64-.59-.56-2.29-.06-1.11-2.27-2.83-.32z"/>
	<g id="CHL" data-country="chile">
		<path data-area="chile-main" d="m283.59 512.63-3.21 3.55-.39 4.17-6.21-3.52-6.6-9.51-1.94-3.39 2.72-3.52-.26-4.43-3.1-1.3-2.46-1.82.52-2.48 3.23-.91.65-14.33-5.04-2.87-3.29-74.59.85-1.48 6.44 14.85 2.06.04.67 2.37-2.74 3.32-3.15 17.87 4.48 13.76-2.07 10.42 7.3 30.64.77 17.92 5.23 6.05 5.54-.81z"/>
		<path data-area="chiloe" d="m262.28 475.14-1.29 1.95.65 3.39 1.29.13.65-4.3-1.3-1.17z"/>
		<path data-area="tierra del fuego chile" d="m285.04 514.1-4.27 9.38 7.37.78.13-6.25-3.23-3.91z"/>
	</g>
	<g id="CHN" data-country="china">
		<path data-area="china" d="m670.4 170.07-3.46 8.7-4.77-.25-5.03 11.01 4.27 5.44-8.8 12.15-4.52-.76-3.02 3.8.75 2.28 3.52.25 1.76 4.05 3.52.76 10.81 13.93v7.09l5.28 3.29 5.78-1.01 7.29 4.3 8.8 2.53 4.27-.51 4.78-.51 10.05-6.58 3.27.51 1.25 2.97 2.77.83 3.77 5.57-2.51 5.57 1.51 3.8 4.27 1.52.75 4.56 5.03.51.75-2.28 7.29-3.8 4.52.25 5.28 5.82 3.52-1.52 2.26.25 1.01 2.79 1.76.25 2.51-3.54 10.05-3.8 9.05-10.89 3.02-10.38-.25-6.84-3.77-.76 2.26-2.53-.5-4.05-9.55-9.62v-4.81l2.76-3.54 2.76-1.27.25-2.79h-7.04l-1.26 3.8-3.27-.76-4.02-4.3 2.51-6.58 3.52-3.8 3.27.25-.5 5.82 1.76 1.52 4.27-4.3 1.51-.25-.5-3.29 4.02-4.81 3.02.25 1.76-5.57 2.06-1.09.21-3.47-2-2.1-.17-5.48 3.85-.25-.25-14.13-2.7 1.62-1.01 3.62-4.51-.01-13.07-7.35-9.44-11.38-9.58-.1-2.44 2.12 3.1 7.1-1.08 6.66-3.86 1.6-2.17-.17-.16 6.59 2.26.51 4.02-1.77 5.28 2.53v2.53l-3.77.25-3.02 6.58-2.76.25-9.8 12.91-10.3 4.56-7.04.51-4.77-3.29-6.79 3.55-7.29-2.28-1.76-4.81-12.31-.76-6.53-10.63h-2.76l-2.22-4.93-2.64-.21z"/>
		<path data-area="hainan" d="m759.83 270.17-2.39.67-1.72 2.12 1.43 2.79 2.1.19 2.39-2.12.57-2.79-2.38-.86z"/>
	</g>
	<path id="CIV" data-country="ivoire" d="m432.07 326.75 4.28-3.03 5.32-.93 5.43 1.17-2.77-4.19-.81-2.56.81-7.57-4.85.23-2.2-2.1-4.62.12-2.2.35.23 5.12-1.16.47-1.39 2.56 3.58 4.19.35 6.17z"/>
	<path id="CMR" data-country="cameroon" d="m477.82 324.28 3.22 2.96-.23 4.58 17.66-.41 1.44-1.62-5.06-5.45-.75-1.97 3.22-6.03-2.19-4-1.84-.99v-2.03l2.13-1.39.12-6.32-1.69-.19-.03 3.32-7.42 13.85-4.54.23-3.11 2.14-.93 3.32z"/>
	<path id="COD" data-country="drc" d="m489.38 355.71 10.31-.18 2.09 2.97-.08 2.19.77.7h5.12l1.47-2.89h2.09l.85.86 2.87-.08.85 10.08 4.96.16v.78l13.33 6.01.62 1.17h2.79l-.31-4.22-5.04-2.42.31-3.2 2.17-5.08 4.96-.16-4.26-14.14.08-6.01 6.74-10.54.08-1.48-1.01-.55.04-2.86-1.23-.11-1.24-1.58-20.35-.92-3.73 3.63-6.11-4.02-2.15 1.32-1.56 13.13-3.86 2.98-1.16 2.64.21 3.91-6.96 5.69-1.85-.84.25 1.09-2.06 1.97z"/>
	<path id="COG" data-country="congo" d="m491 332.52-.06 1.45 4.78.12.17 12.41-4.37-.12-2.53-1.97-1.96 1.1-.09.55 1.01.49.29 2.55-2.7 2.32.58 1.22 2.99-2.32h1.44l.46 1.39 1.9.81 6.1-5.16-.12-3.77 1.27-3.07 3.91-2.9 1.05-9.81-2.78.01-3.22 4.41-8.12.29z"/>
	<path id="COL" data-country="colombia" d="m253.73 299.78-2.06-.21-13.62 11.23-1.44 3.95-1.86.21.83 8.73-4.75 11.65 5.16 4.37 6.61.42 4.54 6.66 6.6.21-.21 4.99H256l2.68-9.15-2.48-3.12.62-5.82 5.16-.42-.62-13.52-11.56-3.74-2.68-7.28 6.61-9.16z"/>
	<path id="COM" data-country="comoros" d="m577.69 371.23.46 1.53 1.98.31.76-1.99-3.2.15z"/>
	<g id="CPV" data-country="capo verde">
		<path data-area="santo antao" d="m387.56 290.54-1.9 1.09 1.36 1.09 1.63-.82-1.09-1.36z"/>
		<path data-area="boa vista" d="m392.23 292.74-1.24 1.1.88 1.63 2.12-.95-1.76-1.78z"/>
		<path data-area="santiago" d="m389.52 295.83-1.59.95 1.71 2.29 1.35-.71-1.47-2.53z"/>
	</g>
	<path id="CRI" data-country="costa rica" d="m217.38 304.98 1.39 2.72 1.13 1.5-1.52 4.51-2.9-2.04-4.74-4.34v-2.87l6.64.52z"/>
	<path id="CUB" data-country="cuba" d="M220.85 266.92v1.27l5.32.1 2.51-1.46.39 1.07 5.22 1.27 4.64 4.19-1.06 1.46.19 1.66 3.87.97 3.87-1.75 1.74-1.75-2.51-1.27-12.95-7.6-4.54-.49-6.69 2.33z"/>
	<path id="CYP" data-country="cyprus" d="m543.21 229.84 1.23.89-3.81 3.61-1.82-.06-1.35-.95.18-1.77 2.76-.18 2.81-1.54z"/>
	<path id="CZE" data-country="czech" d="M488.43 184.87h4.43l2.37 1.69 4.39-3.65-4.26-3.04-4.22-2.04-2.89.52-3.92 2.52 4.1 4z"/>
	<path id="DEU" data-country="germany" d="m471.14 167.88 3.57-.58v-2.52l2.99-.49 1.64 1.65 1.73.19 2.7-1.17 2.41.68 2.12 1.84.29 6.89 2.12 2.82-2.79.39-4.63 2.91.39.97 4.14 3.88-.29 1.94-3.85 1.94-3.57.1-.87 1.84h-1.83l-.87-1.94-3.18-.78-.1-3.2-2.7-1.84.29-2.33-1.83-2.52.48-3.3 2.5-1.17-.86-6.2z"/>
	<path id="DJI" data-country="djibouti" d="m571.48 301.54-.57 3.36 3.96-.06.06-4.94-1.45-.89-2 2.53z"/>
	<path id="DMA" data-country="dominica" d="m279.07 284.88-.88 1.87 1.06 1.42 1.32-1.15-1.5-2.14z"/>
	<g id="DNK" data-country="denmark">
		<path data-area="jylland" d="m476.77 151.5-4.15 4.59-.15 2.99 1.89 4.93 2.96-.56-.37-4.03 2.04-2.28-.04-1.79-1.44-3.73-.74-.12z"/>
		<path data-area="sjaelland" d="m481.44 159.64-.93-.04-1.22 1.12.15 1.75 2.89.08.15-1.98-1.04-.93z"/>
	</g>
	<path id="DOM" data-country="domincan republic" d="m263.11 280.44-5.29-3.46-2.5-.85-.84 6 .88 1.69 1.15-1.33 3.35-.89 2.91.62.34-1.78z"/>
	<path id="DZA" data-country="algeria" d="m473.88 227.49-4.08-1.37-16.98 3.19-3.7 2.81 2.26 11.67-6.75.27-4.06 6.53-9.67 2.32.03 4.75 31.85 24.35 5.43.46 18.11-14.15-1.81-2.28-3.4-.46-2.04-3.42v-14.15l-1.36-1.37.23-3.65-3.62-3.65-.45-3.88 1.58-1.14-.68-4.11-.89-2.72z"/>
	<g id="ECU" data-country="ecuador">
		<path data-area="ecuador-main" d="m230.2 335.85-4.73 2.94-.34 4.36-.95 1.43 2.98 2.86-1.29 1.41.3 3.6 5.33 1.27 8.07-9.55-.02-3.33-3.87-.25-5.48-4.74z"/>
		<path data-area="galapagos" d="m194.97 338.18-.62 2.75-1.15 1.16.79 1.42 2.03-.8.97-1.69-.62-1.78-1.4-1.06z"/>
	</g>
	<path id="EGY" data-country="egypt" d="m521.93 243.06 2.67.07 5.2 1.44 2.47.07 3.06-2.56h1.43l2.6 1.44h3.29l.59-.04 2.08 5.98.59 1.93.55 2.89-.98.72-1.69-.85-1.95-6.36-1.76-.13-.13 2.16 1.17 3.74 9.37 11.6.2 4.98-2.73 3.15-25.64-.29-.39-29.94z"/>
	<path id="ERI" data-country="eritrea" d="m556.71 294.7-.25-5.89 3.96-4.62 1.07.82 1.95 6.52 9.36 6.97-1.7 2.09-6.85-5.89h-7.54z"/>
	<g id="ESP" data-country="spain">
		<path data-area="spain-main" d="M448.36 205h-12.74l-2.57-1.16-1.24.09-1.5 3.12.53 3.21 4.87.45.62 2.05-2.12 11.95.09 2.14 3.45 1.87 3.98.27 7.96-1.96 3.89-4.9.09-4.99 6.9-6.24.35-2.76-6.28-.09-6.28-3.05z"/>
		<path data-area="majorca" d="m461.1 217.21-1.59.54.35 1.43h2.3l.97-1.07-2.03-.9z"/>
		<path data-area="lanzarote" d="m415.62 253.73-1.75 1.01.81.82.94-1.83z"/>
		<path data-area="gran-canaria" d="m409.54 253.92-2.17.55 1.08 1.64h1.63l-.54-2.19z"/>
		<path data-area="tenerife" d="m404.38 252.28-1.36 1.37 1.9 1.64 1.08-2.46-1.62-.55z"/>
	</g>
	<g id="EST" data-country="estonia">
		<path data-area="estonia" d="m517.77 143.66-5.6-.2-3.55 2.17-.05 1.61 2.3 2.17 7.15 1.21-.25-6.96z"/>
		<path data-area="hiiumaa" d="m506.76 147.64-1.55-.05-.9.91.65.96 1.55.1.8-1.16-.55-.76z"/>
		<path data-area="saaremaa" d="m506.61 151.72-1.5-.15-2.7 3.23v1.51l.9.35 1.75.05 2.9-2.37.4-.81-1.75-1.81z"/>
	</g>
	<path id="ETH" data-country="ethiopia" d="m549.49 311.76 7.28-16.2 7.23.04 6.41 5.57-.45 4.59h4.97l.51 2.76 8.04 4.81 4.96.25-9.43 10.13-12.95 3.99h-3.21l-5.72-4.88-2.26-.95-4.38-6.45-2.89.04-.34-2.96 2.23-.74z"/>
	<path id="FIN" data-country="finland" d="m506.79 116.94 2.07.91 1.28 2.4-1.28 1.66-6.42 7.02-1.1 3.7 1.47 5.36 4.95 3.7 6.6-3.14 5.32-.74 4.95-7.95-3.67-8.69-3.49-8.32.55-5.36-2.2-.37-.57-3.91-2.96-4.83-3.28 2.27-1.29 5.27-3.48-2.09-4.84-1.18-1.08 1.26 1.86 1.68 3.39-.06 2.73 4.41.49 7z"/>
	<path id="FJI" data-country="fiji" d="m948.62 412.29-1.24 1.66-.1 1.87 1.44 1.46-.1-4.99z"/>
	<g id="FRA" data-country="france">
		<path data-area="france-main" d="m460.4 178.7-2.21.54-4.42 4.81-1.33.09-1.77-1.25-1.15.27-.88 2.76-6.46.18.18 1.43 4.42 2.94 5.13 4.1-.09 4.9-2.74 4.81 5.93 2.85 6.02.18 1.86-2.14 3.8.09 1.06.98 3.8-.27 1.95-2.5-2.48-2.94-.18-1.87.53-2.05-1.24-1.78-2.12.62-.27-1.6 4.69-5.17v-3.12l-3.1-1.78-1.59-.27-7.34-4.81z"/>
		<path data-area="corsica" d="m477.83 206.96-1.95 1.96-.18 1.78 1.59.98.62-.09.35-2.59-.43-2.04z"/>
		<path data-area="guyane" d="m302.13 321.8 5.85 3.65-3.06 6.08-1.11 1.4-3.25-1.87.09-6.55 1.48-2.71z"/>
		<path data-area="kerguelen" d="m622.76 499.62-.15 4.29 5.94 1.38 1.37-3.53-2.13.61-2.74.61-.76-3.22-1.53-.14z"/>
		<path data-area="raiatea" d="m27.25 402.68-1.9-.14-.14 1.78 1.49.96 1.77-1.09-1.22-1.51z"/>
		<path data-area="tahiti" d="m33.77 404.6-2.72 1.78 2.04 2.46 1.77-.41.95-1.23-2.04-2.6z"/>
		<path data-area="guadeloupe" d="m276.6 283.37-1.5.62.53 1.33 1.76-1.15-.35-.36-.44-.44z"/>
		<path data-area="martinique" d="m282.07 290.03-1.06.98.79 1.6 1.5-.44-1.23-2.14z"/>
		<path data-area="new_caledonia" d="m906.64 420.47-.35 1.79 4.61 6.43 2.48 1.07.35-2.5-7.09-6.79z"/>
		<path data-area="reunion" d="m607.38 402.37-2.28.15-.15 1.99 1.52.31 2.28-1.07-1.37-1.38z"/>
		<path data-area="mayotte" d="m580.58 374.3.76 1.69h1.22l.61-2.15-2.59.46z"/>
	</g>
	<path id="GAB" data-country="gabon" d="m486.39 332.63-.12 2.49-5.64-.12-3.45 6.67 8.11 8.87 2.01-1.68-.06-1.74-1.38-.64v-1.22l3.11-1.97 2.76 2.09 3.05.06-.06-10.49-4.83-.23-.06-2.2-3.44.11z"/>
	<g id="GBR" data-country="United Kingdom of Great Britain">
		<path data-area="britain" d="m446.12 149.08-1.83 2.77.73 1.11h4.22v1.85l-1.1 1.48.73 3.88 2.38 4.62 1.83 4.25 2.93 1.11 1.28 2.22-.18 2.03-1.83 1.11-.18.92 1.28.74-1.1 1.48-2.57 1.11-4.95-.55-7.71 3.51-2.57-1.29 7.34-4.25-.92-.55-3.85-.37 2.38-3.51.37-2.96 3.12-.37-.55-5.73-3.67-.18-1.1-1.29.18-4.25-2.2.18 2.2-7.39 4.04-2.96 1.3 1.28z"/>
		<path data-area="ulster" d="m438.42 161.47-3.3.37-.18 2.96 2.2 1.48 2.38-.55.92-1.66-2.02-2.6z"/>
		<path data-area="falklands west" d="m307.95 508.18-2.63-.29-2.62 1.76 1.9 2.06 3.35-3.53z"/>
		<path data-area="falklands east" d="m310.57 506.86-.87 2.79-2.48 2.2.15.73 4.23-1.62 1.75-2.2-2.78-1.9z"/>
	</g>
	<path id="GEO" data-country="georgia" d="m555.46 204.16 3.27 4.27 4.08 1.88 2.51-.01 4.31-1.17 1.08-1.69-12.75-4.77-2.5 1.49z"/>
	<path id="GHA" data-country="ghana" d="m444.34 317.05 1.12 2.63 2.92 4.58 1.62-.06 4.42-2.51-.31-14.29-3.42-1-4.79.13-1.56 10.52z"/>
	<path id="GIN" data-country="guinee" d="m410.42 307.94 3.04 4.68 3.96-3.44 4.06-.18 3.38 4.49 2.87 1.89 1.08-2.1.96-.54-.07-4.62-1.91-5.48-5.86.65-7.25-.58-.04 1.86-4.22 3.37z"/>
	<path id="GMB" data-country="gambia" d="m406.89 298.34-.13 1.11 6.92-.1.35-1.03-.15-1.04-1.99.81-5 .25z"/>
	<path id="GNB" data-country="bissau" d="m408.6 304.53 1.4 2.77 3.93-3.38.04-1.04-4.63-.67-.74 2.32z"/>
	<g id="GNQ" data-country="equatorial guinea">
		<path data-area="equatorial guinea" d="m480.99 332.69-.06 1.39 4.54.23-.06-1.57-4.42-.05z"/>
		<path data-area="bioko" d="m476.84 327.41-.46 1.97 1.38.75 1.32-.99-.46-2.03-1.78.3z"/>
	</g>
	<g id="GRC" data-country="greece-main">
		<path data-area="greece" d="m506.71 217.6-.11 1.33 4.63 2.33 2.21.85-1.16 1.22-2.58.26-.37 1.17.89 2.01 2.89 1.54 1.26.11.16-3.45 1.89-2.28-5.16-6.1.68-2.07 1.21-.05 1.84 1.48 1.16-.58.37-2.07 5.42.05.21-3.18-2.26 1.59-6.63-.16-4.31 2.23-2.24 3.77z"/>
		<path data-area="crete" d="m516.76 230.59 1.63.05.68 1.01h2.37l1.58-.58.53.64-1.05 1.38-4.63.16-.84-1.11-.89-.53.62-1.02z"/>
	</g>
	<path id="GRD" data-country="grenada" d="m280.57 301.31-1.15 1.15.44.71h1.41l.44-1.16-1.14-.7z"/>
	<path id="GUM" data-country="guatemala" d="m194.88 291.52 5.93 4.34 5.98-7.43-1.02-1.54-2.04-.07v-4.35l-1.53-.93-4.63 1.38 1.77 4.08-4.46 4.52z"/>
	<g id="GRL" data-country="greenland">
		<path data-area="greenland" d="m321.13 50.07-1.36 2.17 2.45 2.45-1.09 2.45 3.54 4.62 4.35-1.36 5.71-.54 6.53 7.07 4.35 11.69-3.53 7.34 4.89-.82 2.72 1.63.27 3.54-5.98.27 3.26 3.26 4.08.82-8.97 11.96-1.09 7.34 1.9 5.98-1.36 3.54 2.45 7.61 4.62 5.17 1.36-.27 2.99-.82.27 4.35 1.9 2.72 3.53-.27 2.72-10.06 8.16-10.06 12.24-4.89 7.61-9.52 3.53 1.63h7.34l5.98-5.98 7.34-2.99.82-4.62-4.62-4.08-4.08-1.36-2.18-5.71 5.17-2.99 8.16 4.35 2.72-2.99-4.35-2.45 9.25-12.51-1.63-5.44-4.35-.27 1.63-4.89 5.44-2.45 11.15-9.79-3.26-3.53-12.51 1.09-6.53 6.53 3.81-8.43-4.35-1.09-2.45 4.35-3.53-2.99-9.79 1.09 2.72-4.35 16.04-.54-4.08-5.44-17.4-3.26-7.07 1.09.27 3.54-7.34-2.45.27-2.45-5.17 1.09-1.09 2.72 5.44 1.9-5.71 4.08-4.08-4.62-5.71-1.63-.82 4.35h-5.71l-2.18-4.62-8.97-1.36-4.89 2.45-.27 3.26-6.25-.82-3.81 1.63.27 3.81v1.9l-7.07 1.36-3.26-2.17-2.18 3.53 3.26 3.54 6.8-.82.54 2.18-5.17 2.45-4.61-2.2z"/>
		<path data-area="disko" d="m342.89 92.49 1.63 2.45-.82 2.99h-1.63l-2.18-2.45.54-1.9 2.46-1.09z"/>
		<path data-area="milne" d="m410.87 85.69 4.62 1.36-.27 3.81-4.89-2.45-1.09-1.36 1.63-1.36z"/>
	</g>
	<path id="GUY" data-country="guyana" d="m285.05 314.13 7.22 6.54-2.87 3.32-.23 1.97 3.77 3.89-.09 3.74-6.56 2.5-3.93-5.31.84-6.38-1.68-4.75 3.53-5.52z"/>
	<path id="HND" data-country="honduras" d="m207.55 288.78 9.24-.35 2.74 3.26-1.71-.39-3.29.14-4.3 4.04-1.84 4.09-1.21-.64-.01-4.48-2.66-1.78 3.04-3.89z"/>
	<path id="HRV" data-country="croatia" d="m495.62 195.16-3.53 2.91h-3.58l-.43 2.52 1.64.43.82-1.22 1.29 1.13 1.03 3.6 7.07 3.3.7-.8-7.17-7.4.73-1.35 6.81-.26.69-2.17-4.44.13-1.63-.82z"/>
	<path id="HTI" data-country="haiti" d="m250.86 275.38 3.44.36-.41 4.22-.34 2.22-4.01-.22-.71 1.07-1.23-.09-.44-2.31 4.23-.35-.26-2.4-1.94-.8 1.67-1.7z"/>
	<path id="HUN" data-country="hungary" d="m496.74 189.6-1.16 1.82.09 2.78 1.85.95 5.69.17 7.93-6.68.04-1.48-.86-.43-5.73 2.6-7.85.27z"/>
	<g id="IDN" data-country="indonesia">
		<path data-area="sumatra" d="m722.48 317.57-.28 2.28 6.79 11.41h1.98l14.15 23.67 5.66.57 2.83-8.27-4.53-2.85-.85-4.56-25.75-22.25z"/>
		<path data-area="irian jaya" d="m831.93 339.34-4.17.47-2.68 1.96 1.11 2.24 4.54.84v.84l-2.87 2.33 1.39 4.85 1.39.09 1.2-4.76h2.22l.93 4.66 10.83 8.96.28 7 3.7 4.01 1.67-.09.37-24.72-6.29-4.38-5.93 4.01-2.13 1.31-3.52-2.24-.09-7.09-1.95-.29z"/>
		<path data-area="java" d="m753.17 358.32-2.75 1.88.59 1.58 8.75 1.98 4.42.79 1.87 1.98 5.01.4 2.36 1.98 2.16-.5 1.97-1.78-3.64-1.68-3.14-2.67-8.16-1.98-9.44-1.98z"/>
		<path data-area="bali" d="m781.77 366.93-2.16 1.19 1.28 1.39 3.14-1.19-2.26-1.39z"/>
		<path data-area="lombok" d="m785.5 366.04.39 1.88 2.26.59.88-1.09-.98-1.49-2.55.11z"/>
		<path data-area="kalimantan" d="m781.68 324.4-2.31 8.68-12.53 4.23-3.75-4.4-1.82.5 3.4 13.12 5.09.57 6.79 2.57v2.57l3.11-.57 4.53-6.27v-5.13l2.55-5.13 2.83.57-3.4-7.13-.52-4.59-3.97.41z"/>
		<path data-area="sulawesi" d="m789.53 349.11 2.26 2.77-1.47 4.16v.79h3.34l1.18-10.4 1.08.3 1.96 9.5 1.87.5 1.77-4.06-1.77-6.14-1.47-2.67 4.62-3.37-1.08-1.49-4.42 2.87h-1.18l-2.16-3.17.69-1.39 3.64-1.78 5.5 1.68 1.67-.1 4.13-3.86-1.67-1.68-3.83 2.97h-2.46l-3.73-1.78-2.65.1-2.95 4.75-1.87 8.22-1 3.28z"/>
		<path data-area="maluku" d="m814.19 330.5-1.87 4.55 2.95 3.86h.98l1.28-2.57.69-.89-1.28-1.39-1.87-.69-.88-2.87z"/>
		<path data-area="seram" d="m819.99 345.45-4.03.89-1.18 1.29.98 1.68 2.65-.99 1.67-.99 2.46 1.98 1.08-.89-1.96-2.38-1.67-.59z"/>
		<path data-area="sumba" d="m790.91 370.99-2.75.4 2.46 2.08h1.96l-1.67-2.48z"/>
		<path data-area="flores" d="m791.69 367.72-.59 1.19 4.42.69 3.44-1.98-1.96-.59-3.14.89-1.18-.99-.99.79z"/>
	</g>
	<path id="IND" data-country="india" d="m670.98 313.01 4.58-2.24 2.72-9.84-.12-12.08 15.58-16.82v-3.99l3.21-1.25-.12-4.61-3.46-6.73 1.98-3.61 4.33 3.99 5.56.25v2.24l-1.73 1.87.37 1 2.97.12.62 3.36h.87l2.23-3.99 1.11-10.46 3.71-2.62.12-3.61-1.48-2.87-2.35-.12-9.2 6.08.58 3.91-6.46-.02-2.28-2.79-1.24.16.42 3.88-13.97-1-8.66-3.86-.46-4.75-5.77-3.58-.07-7.37-3.96-4.53-9.1.87.99 3.96 4.46 3.61-7.71 15.78-5.16.39-.85 1.9 5.08 4.7-.25 4.75-5.19-.08-.56 2.36 4.31-.19.12 1.87-3.09 1.62 1.98 3.74 3.83 1.25 2.35-1.74 1.11-3.11 1.36-.62 1.61 1.62-.49 3.99-1.11 1.87.25 3.24 16.43 34.1z"/>
	<path id="IRL" data-country="ireland" d="m439.51 166.55-.91 6-8.07 2.96h-2.57l-1.83-1.29v-1.11l4.04-2.59-1.1-2.22.18-3.14 3.49.18 1.6-3.76-.21 3.34 2.71 2.15 2.67-.52z"/>
	<path id="IRN" data-country="iran" d="m569.65 217.95-1.22 1.27.12 2.01 1.52 2.13 5.39 5.9-.82 2.36h-.94l-.47 2.36 3.05 3.9 2.81.24 5.63 7.79 3.16.24 2.46 1.77.12 3.54 9.73 5.67h3.63l2.23-1.89 2.81-.12 1.64 3.78 10.51 1.46.31-3.86 3.48-1.26.16-1.38-2.77-3.78-6.17-4.96 3.24-2.95-.23-1.3-4.06-.63-1.72-13.7-.2-3.15-11.01-4.21-4.88 1.1-2.73 3.35-2.42-.16-.7.59-5.39-.35-6.8-4.96-2.53-2.77-1.16.28-2.09 2.39-3.69-.7z"/>
	<path id="IRQ" data-country="iraq" d="m564.31 225.03-1.56 7.71-6.46 5.38.41 2.54 6.31.43 10.05 8.18 5.62-.16.15-1.89 2.06-2.21 2.88 1.63.38-.36-5.57-7.41-2.64-.16-3.51-4.51.7-3.32 1.07-.14.37-1.47-4.78-5.03-5.48.79z"/>
	<path id="ISL" data-country="iceland" d="m406.36 117.31-1.96-1.11-2.64 1.67-2.27 2.1.06 1.17 2.94.37-.18 2.1-1.04 1.05.25.68 2.94.19v3.4l4.23.74 2.51 1.42 2.82.12 4.84-2.41 3.74-4.94.06-3.34-2.27-1.92-1.9-1.61-.86.62-1.29 1.67-1.47-.19-1.47-1.61-1.9.18-2.76 2.29-1.66 1.79-.92-.8-.06-1.98.92-.62-.66-1.03z"/>
	<path id="ISR" data-country="israel" d="m545.32 238.06-1.58 5.03 2.05 6.03 2.35-8.81v-1.89l-2.82-.36z"/>
	<g id="ITA" data-country="italy">
		<path data-area="italy-main" d="m472.27 196.98-.62 1.57.17 1.71 2.39 2.79 3.76-.13 8.3 9.64 5.18 1.5 3.06 2.89.73 6.59 1.64-.96 1.42-3.59-.35-2.58 2.43-.22.35-1.46-6.85-3.28-6.5-6.39-2.59-3.82-.63-3.63 3.31-.79-.85-2.39-2.03-1.71-1.75-.08-2.44.67-2.3 3.22-1.39.92-2.15-1.32-2.29.85z"/>
		<path data-area="sicily" d="m492.44 223.02-1.45-.78-4.95.78.17 1.34 4.45 2.24.67.73 1.17.17-.06-4.48z"/>
		<path data-area="sardinia" d="m477.56 213.38-2.65 1.34.35 5.17 2.12.36 1.59-1.52v-4.9l-1.41-.45z"/>
	</g>
	<path id="JAM" data-country="jamaica" d="m238.93 279.59-3.48.88v.97l2.03 1.17h2.13l1.35-1.56-2.03-1.46z"/>
	<g id="JAP" data-country="japan">
		<path data-area="kyushu" d="m803.23 216.42-1.63 1.64.67 2.31 1.43.1.96 5.01 1.15 1.25 2.01-1.83.86-3.28-2.49-3.56-2.96-1.64z"/>
		<path data-area="shikoku" d="m812.03 213.15-2.77 2.6-.1 2.99.67.87 3.73-3.18-.29-3.18-1.24-.1z"/>
		<path data-area="honshu" d="m808.2 206.98-4.88 5.59.86 1.35 2.39.29 4.49-3.47 3.16-.58 2.87 3.37 2.2-.77.86-3.28 4.11-.1 4.02-4.82-2.1-8-.96-4.24 2.1-1.73-4.78-7.22-1.24.1-2.58 2.89v2.41l1.15 1.35.38 6.36-2.96 3.66-1.72-1.06-1.34 2.99-.29 2.79 1.05 1.64-.67 1.25-2.2-1.83h-1.53l-1.34.77-1.05.29z"/>
		<path data-area="hokkaido" d="m816.43 163.44-1.53 1.35.77 2.89 1.34 1.35-.1 4.43-1.72.67-1.34 2.99 3.92 5.39 2.58-.87.48-1.35-2.77-2.5 1.72-2.22 1.82.29 1.43 1.54.1-3.18 3.92-3.18 2.2-.58-1.82-3.08-.86-1.35-1.43.96-1.24 1.54-2.68-.58-2.77-1.83-2.02-2.68z"/>
	</g>
	<path id="JOR" data-country="jordan" d="m548.9 240.78-2.46 8.58-.11 1.31h3.87l4.33-3.82.11-1.45-1.77-1.81 3.17-2.63-.46-2.44-.87.2-2.64 1.89-3.17.17z"/>
	<path id="KAZ" data-country="kazakhstan" d="m576.69 188.62 4.1-1.75 4.58-.16.32 7h-2.68l-2.05 3.34 2.68 4.45 3.95 2.23.36 2.55 1.45-.48 1.34-1.59 2.21.48 1.11 2.23h2.84v-2.86l-1.74-5.09-.79-4.13 5.05-2.23 6.79 1.11 4.26 4.29 9.63-.95 5.37 7.63 6.31.32 1.74-2.86 2.21-.48.32-3.18 3.31-.16 1.74 2.07 1.74-4.13 14.99 2.07 2.52-3.34-4.26-5.25 5.68-12.4 4.58.32 3.16-7.63-6.31-.64-3.63-3.5-10 1.16-12.88-12.45-4.54 4.03-13.77-6.25-16.89 8.27-.47 5.88 3.95 4.61-7.7 4.35-9.99-.22-2.09-3.07-7.83-.43-7.42 4.77-.16 6.52 6.91 5.55z"/>
	<path id="KEN" data-country="kenya" d="m550.83 326.52 2.66 5.19-3.19 6.69-.42 2.03 15.93 9.85 4.94-7.76-2.5-2.03-.05-10.22 3.13-3.42-4.99 1.66-3.77.05-5.9-4.98-1.86-.8-3.45.32-.61 1.02.08 2.4z"/>
	<path id="KGZ" data-country="kirgizstan" d="m636.81 199.21-.31 2.53.25 1.56 8.7 2.92-7.64 3.08-.87-.72-1.65 1.06.08.58.88.4 5.36.14 2.72-.82 3.49-4.4 4.37.76 5.27-7.3-14.1-1.92-1.95 4.73-2.46-2.64-2.14.04z"/>
	<path id="KHM" data-country="cambodia" d="m740.48 299.47 4.09 4.37 7.61-5.64.67-8.9-3.93 2.71-2.04-1.14-2.77-.37-1.55-1.09-.75.04-2.03 3.33.33 1.54 2.06 1.15-.25 3.13-1.44.87z"/>
	<path id="KOR" data-country="south korea" d="m788.34 198.2 6.18 5.04 1.05 4.88-.21 2.62-3.02 3.4-2.6.14-2.95-6.37-1.12-3.04 1.19-.92-.28-1.27-1.47-.66 3.23-3.82z"/>
	<path id="KWT" data-country="kuwait" d="m583.29 247.17-2.25-1.22-1.56 1.57.17 3.14 3.63 1.39.01-4.88z"/>
	<path id="LAO" data-country="laos" d="m735.47 262.93-2.42 1.23-2.01 5.86 3.36 4.28-.56 4.73.56.23 5.59-2.71 7.5 8.38-.18 5.28 1.63.88 4.03-3.27-.33-2.59-11.63-11.05.11-1.69 1.45-1.01-1.01-2.82-4.81-.79-1.28-4.94z"/>
	<path id="LBN" data-country="lebanon" d="m546.2 232.44.06 1.95-.82 2.96 2.82.24.18-4.2-2.24-.95z"/>
	<path id="LBR" data-country="liberia" d="m420.17 319.19 10.98 7.34-.26-5.56-3.32-3.91-3.24-2.87-4.16 5z"/>
	<path id="LBY" data-country="libya" d="m480.05 248.03 1.56-.26.46-3.6h.78l3.19-5.24 7.87 2.29 2.15 3.34 7.74 3.54 4.03-1.7-.39-1.7-1.76-1.7.2-1.18 2.86-2.42h5.66l2.15 2.88 4.55.66.59 36.89-3.38-.13-20.42-10.62-2.21 1.25-8.39-2.1-2.28-3.01-3.32-.46-1.69-3.01.05-13.72z"/>
	<path id="LKA" data-country="sri lanka" d="m680.54 308.05.25 2.72.25 1.98-1.47.25.74 4.45 2.21 1.24 3.43-1.98-.98-4.69.25-1.73-3.19-2.96-1.49.72z"/>
	<path id="LSO" data-country="lesotho" d="m527.41 425.39 3.05-2.35 1.44.06 1.74 2.17-.18 2.17-2.93 1.08v.84l-3.23-.18-.78-2.35.89-1.44z"/>
	<path id="LTU" data-country="lithuania" d="m510.81 154.7-2.15-.05-2.95 2.82h-2.5l.15 3.53-1.5 2.77 5.4.05 1.55-.2 1.55 1.87 3.55-.15 3.4-4.33-.2-2.57-6.3-3.74z"/>
	<path id="LVA" data-country="latvia" d="m518.07 151.37-6.85-1.11.15 3.83 6.35 3.88 2.6-.76-.15-2.92-2.1-2.92z" />
	<path id="MAR" data-country="morocco" d="M448.29 232.28h-11.55l-2.26 5.02-5.21 2.51-4.3 11.64-8.38 5.02-11.77 19.39 11.55-.23.45-5.7h2.94v-7.76h10.19l.23-10.04 9.74-2.28 4.08-6.62 6.34-.23-2.05-10.72z"/>
	<path id="MDA" data-country="moldova" d="m520.75 187.71 3.1 4.77-.26 2.7 1.11.05 2.63-4.45-3.16-3.92-1.79-.74-1.63 1.59z"/>
	<path id="MDG" data-country="madagascar" d="m592.3 372.92-2.13 5.06-3.65 6.44-6.39.46-2.74 3.22.46 9.82-3.96 4.6.46 7.82 3.35 3.83 3.96-.46 3.96-2.92-.91-4.6 9.13-15.8-1.83-1.99 1.83-3.83 1.98.61.61-1.53-1.83-7.82-1.07-3.22-1.23.31z"/>
	<g id="MDV" data-country="maldives">
		<path data-area="male" d="m656.4 320.76.3 2.61 1.67.61.3-2.3-2.27-.92z"/>
		<path data-area="maldive" d="m658.53 326.28-.15 3.22 1.22.61 1.07-2.15-2.14-1.68z"/>
		<path data-area="gan" d="m658.84 332.57-1.07 1.07 1.22 1.07 1.52-1.07-1.67-1.07z"/>
	</g>
	<path id="MEX" data-country="mexico" d="m137.49 225.43 4.83 15.21-2.25 1.26.25 3.02 4.25 3.27v6.05l5.25 5.04-2.25-14.86-3-9.83.75-6.8 2.5.25 1 2.27-1 5.79 13 25.44v9.07l10.5 12.34 11.5 5.29 4.75-2.77 6.75 5.54 4-4.03-1.75-4.54 5.75-1.76 1.75 1.01 1.75-1.76h2.75l5-8.82-2.5-2.27-9.75 2.27-2.25 6.55-5.75 1.01-6.75-2.77-3-9.57 2.27-12.07-4.64-2.89-2.21-11.59-1.85-.79-3.38 3.43-3.88-2.07-1.52-7.73-15.37-1.61-7.94-5.97-7.56.39z"/>
	<path id="MKD" data-country="north macedonia" d="m510.92 208.01-3.37 1.11.16 2.86.79 1.01 4-1.86-1.58-3.12z"/>
	<path id="MLI" data-country="mali" d="m419.46 295.84 3.08-2.11 17.12-.1-3.96-27.54 4.52-.13 21.87 16.69 2.94.42-1.11 9.28-13.75 1.25-10.61 7.92-1.93 5.42-7.37.31-1.88-5.41-5.65.4.22-1.77-3.49-4.63z"/>
	<path id="MLT" data-country="malta" d="m492.61 230.47-1.67.34.06 1.85 1.5.5.67-.56-.56-2.13z"/>
	<path id="MMR" data-country="burma" d="m729.44 303.65-2.77-4.44 2.01-2.82-1.9-3.49-1.79-.34-.34-5.86-2.68-5.19-.78 1.24-1.79 3.04-2.24.34-1.12-1.47-.56-3.95-1.68-3.16-6.84-6.45 1.68-1.11.31-4.67 2.5-4.2 1.08-10.45 3.62-2.47.12-3.81 2.17.72 3.42 4.95-2.54 5.44 1.71 4.27 4.23 1.66.77 4.65 5.68.88-1.57 2.71-7.16 2.82-.78 4.62 5.26 6.76.22 3.61-1.23 1.24.11 1.13 3.92 5.75.11 5.97-1.15 2.08z"/>
	<path id="MNE" data-country="montenegro" d="m504.902 207.248-.045-.935-1.32-1.854-2.137 3.021.42 1.27 1.74.32 1.342-1.822z"/>
	<path id="MNG" data-country="mongolia" d="m673.8 170.17 5.82-7.72 6.99 3.23 4.75 1.27 5.82-5.34-3.95-2.91 2.6-3.67 7.76 2.74 2.69 4.41 4.86.13 2.54-1.89 5.23-.21 1.14 1.94 8.69.44 5.5-5.61 7.61.8-.44 7.64 3.33.76 4.09-1.86 4.33 2.14-.1 1.08-3.14.09-3.27 6.86-2.54.25-9.88 12.91-10.09 4.45-6.31.49-5.24-3.38-6.7 3.58-6.6-2.05-1.87-4.79-12.5-.88-6.4-10.85-3.11-.2-1.61-3.85z"/>
	<path id="MOZ" data-country="mozambique" d="m541.17 413.28 2.69 2.23 6.34-3.86 1.02-5.73v-9.46l10.17-8.32 1.74.06 6.16-5.91-.96-12.18-16.33 2.06.48 3.68 2.81 2.17.66 6.63-5.5 5.37-1.32-3.01.24-3.98-3.17-3.44-7.78 3.62 7.24 3.68.24 10.73-4.79 7.11.06 8.55z"/>
	<path id="MRT" data-country="mauretania" d="m404.9 276.66 2.18 2.85-.45 12.32 3.17-2.28 2.26-.46 3.17 1.14 3.62 5.02 3.4-2.28 16.53-.23-4.08-27.61 4.38-.02-8.16-6.25.01 4.06-10.33.01-.05 7.75-2.97-.01-.38 5.72-12.3.27z"/>
	<path id="MUS" data-country="mauritius" d="m613.01 398.99-1.52 1.99.3 2.15 3.2-2.61-1.98-1.53z"/>
	<path id="MWI" data-country="malawi" d="m547.16 379.4 3.11 3.25-.06 4.16.6 1.75 4.13-4.46-.48-5.67-2.21-1.69-1.97-9.95-3.41-.12 1.55 7.17-1.26 5.56z"/>
	<g id="MYS" data-country="malaysia">
		<path id="MYS" data-area="malaysia-main" d="m732.71 315.45 2.01 4.51.45 5.86 2.69 4.17 6.49 3.94 2.46.23-.45-4.06-2.13-5.18-3.12-6.63-.26 1.16-3.76-.17-2.7-3.88-1.68.05z"/>
		<path data-area="east_malaysia" d="m764.14 332.92 3.02 3.49 11.58-4.01 2.29-8.84 5.16-.37 4.72-3.42-6.12-4.46-1.4-2.45-3.02 5.57 1.11 3.2-1.84 2.67-3.47-.89-8.41 6.17.22 3.57-3.84-.23z"/>
	</g>
	<path id="NAM" data-country="namibia" d="m496.55 421.96 3.35.24 1.97 1.99 4.67.06 1.14-13.26v-8.68l2.99-.6 1.14-9.1 7.6-.24 2.69-2.23-4.55-.18-6.16.84-6.64-2.41h-18.66l.48 5.3 6.22 9.16-1.08 4.7.06 2.47 4.78 11.94z"/>
	<path id="NER" data-country="niger" d="m460.89 302 2.55-.06 2.3-3.45 3.86-.69 4.11 2.51 8.77.25 6.78-2.76 2.55-2.19.19-2.88 4.73-4.77 1.25-10.53-3.11-6.52-7.96-1.94-18.42 14.36-2.61-.25-1.12 9.97-9.4.94 5.53 8.01z"/>
	<path id="NGA" data-country="nigeria" d="m461.57 319.37 3.92.19 4.73 5.27 2.3.63 1.8-.88 2.74-.38.93-3.82 3.73-2.45 4.04-.19 7.4-13.61-.12-3.07-3.42-2.63-6.84 3.01-9.15-.13-4.36-2.76-3.11.69-1.62 2.82-.12 7.96-2.61 3.7-.24 5.65z"/>
	<path id="NIC" data-country="nicaragua" d="m217.74 292.11 2.19.44.07 4.49-2.55 7.28-6.87-.68-1.53-3.51 2.04-4.26 3.87-3.6 2.78-.16z"/>
	<path id="NLD" data-country="netherlands" d="m470.09 168.27-4.53 2.23.96.87.1 2.23-.96-.19-1.06-1.65-2.53 4.01 3.89.81 1.45 1.53.77.02.51-3.46 2.45-1.03-1.05-5.37z"/>
	<g id="NOR" data-country="norway">
		<path data-area="norway" d="m515.46 102.14 2.02-1.48-.18-1.66-1.28-.74.18-2.03h1.1v-1.11l-4.77-1.29-7.15.74-.73 3.14-1.65-.55-1.1-1.85-3.49.18-.37 3.51-1.65.74-.92-1.85-7.34 5.91 1.47 1.66-2.75 1.29-6.24 12.38-2.2 1.48.18 1.11 2.2 1.11-.55 2.4-3.67-.19-1.1-1.29-2.38 2.77-1.47 1.11-.37 2.59-1.28.74-3.3.74-1.65 5.18 1.1 8.5 1.28 3.88 1.47 1.48 3.3-.18 4.77-4.62 1.83-3.14.55 4.62 3.12-5.54.18-15.53 2.54-1.6.76-8.57 7.7-11.09 3.67-1.29 1.65-2.03 5.5 1.29 2.75 1.66.92-4.62 4.59-2.77 2.76 4.81z"/>
		<path data-area="spitsbergen" d="m488.26 53.96-1.65-1.66-3.66 1.78h-6.72L475.17 58l3.77 3.33 1.65-.24 2.36-4.04 2 1.43-1.42 2.85-.71 4.16 1.65 2.61 3.54-5.94 4.6-5.59-1.77-1.54-2.58-1.07z"/>
		<path data-area="nordaustlandet" d="m490.26 46.83-2.95 2.73 1.77 2.73h3.18l1.3 1.78 3.89 2.02 4.48-2.61 3.07-2.61-1.06-2.14-3.07-1.78-2.24 2.02-1.53-1.9-1.18.12-1.53 3.33-2.24-2.26-.24-1.54-1.65.11z"/>
		<path data-area="edgeoya" d="m496.98 59.07-2.36 2.14-2 1.54.94 1.66 1.89.59 3.07-1.43 1.42-1.78-1.3-2.14-1.66-.58z"/>
	</g>
	<path id="NPL" data-country="nepal" d="m671.19 242.56.46 4.27 8.08 3.66 12.95.96-.49-3.13-8.65-2.38-7.34-4.37-5.01.99z"/>
	<g id="NZL" data-country="New_Zealand">
		<path data-area="new zealand north island" d="m913.02 481.96 1.06 11.8-1.42 5.36-5.32 3.93.35 4.65v5l1.42 1.79 14.55-12.51v-2.86h-3.55l-4.97-16.8-2.12-.36z"/>
		<path data-area="new zealand south island" d="m902.38 507.7 2.84 5.36-7.81 7.51-.71 3.93-5.32.71-8.87 8.22-8.16-3.93-.71-2.86 14.9-6.43 13.84-12.51z"/>
	</g>
	<path id="OMN" data-country="oman" d="m598.38 280.84 7.39-4.26 1.31-6.25-1.62-.93.67-6.7 1.41-.82 1.51 2.37 8.99 4.7v2.61l-10.89 16.03-5.01.17-3.76-6.92z"/>
	<path id="PAK" data-country="pakistan" d="m623.13 249.84 2.6 3.86-.25 1.99-3.46 1.37-.25 3.24h3.96l1.36-1.12h7.54l6.8 5.98.87-2.87h5.07l.12-3.61-5.19-4.98 1.11-2.74 5.32-.37 7.17-14.95-3.96-3.11-1.48-5.23 9.64-.87-5.69-8.1-3.03-.82-1.24 1.5-.93.07-5.69 3.61 1.86 3.12-2.1 2.24-2.6 9.59-6.43 4.11-.87 4.49-10.25 3.6z"/>
	<path id="PAN" data-country="panama" d="m220.59 309.61-1.46 4.56 4.82 1.25 2.99.59.51-3.53 3.21-1.62 2.85 1.47 1.12 1.79 1.36-.16 1.07-3.25-3.56-1.47-2.7-1.47-2.7 1.84-3.21 1.62-3.28-1.32-1.02-.3z"/>
	<path id="PER" data-country="peru" d="m225.03 349.52-1.94 1.96.13 3.13 16.94 30.88 17.59 11.34 2.72-4.56.65-10.03-1.42-6.25-4.79-8.08-2.85.91-1.29 1.43-5.69-6.52 1.42-7.69 6.6-4.3-.52-4.04-6.72-.26-3.49-5.86-1.94-.65.13 3.52-8.66 10.29-6.47-1.56-.4-3.66z"/>
	<g id="PHL" data-country="philipines">
		<path data-area="palawan" d="m789.37 297.53-.86 1.64-.48 2.02-4.78 6.07.29 1.25 2.01-.29 6.21-6.94-2.39-3.75z"/>
		<path data-area="negros" d="m797.11 295.22-.1 5.01 1.82 1.83.67 3.56 1.82.39.86-2.22-1.43-1.06-.38-6.26-3.26-1.25z"/>
		<path data-area="cebu" d="m802.28 297.15-.1 4.43 1.05 1.73 1.82-2.12-.48-3.85-2.29-.19z"/>
		<path data-area="samar" d="m803.42 293.29 1.82 2.41.86 2.31h1.63l-.29-3.95-1.82-1.25-2.2.48z"/>
		<path data-area="path7462" d="m806.96 302.35.38 2.89-3.35 2.7-2.77.29-2.96 3.18.1 1.45 2.77-.87 1.91-1.25 1.63 4.14 2.87 2.02 1.15-.39 1.05-1.25-2.29-2.31 1.34-1.06 1.53 1.25 1.05-1.73-1.05-2.12-.19-4.72-3.17-2.22z"/>
		<path data-area="luzon" d="m791.38 272.97-2.58 1.83-.29 5.78 4.02 7.8 1.34 1.06 1.72-1.16 2.96.48.57 2.6 2.2.19 1.05-1.44-1.34-1.83-1.63-1.54-3.44-.38-1.82-2.99 2.1-3.18.19-2.79-1.43-3.56-3.62-.87z"/>
		<path data-area="mindoro" d="m792.72 290.21.76 2.7 1.34.87.96-1.25-1.53-2.12-1.53-.2z"/>
	</g>
	<path id="POL" data-country="poland" d="m511.46 174.76.85 1.56.2 1.66-.7 1.61-1.6 3.08-1.35.61-1.75-.76-1.05.05-2.55.96-2.9-.86-4.7-3.33-4.6-2.47-1.85-2.82-.35-6.65 3.6-3.13 4.7-1.56 1.75-.2-.7 1.41.45.55 7.91.15 1.7-.05 2.8 4.29-.7 1.76.3 2.07.54 2.07z"/>
	<g id="PNG" data-country="papua_new_guinea">
		<path data-area="papua_new_guinea" d="m852.76 348.29-.37 24.44 3.52-.19 4.63-5.41 3.89.19 2.5 2.24.83 6.9 7.96 4.2 2.04-.75v-2.52l-6.39-5.32-3.15-7.28 2.5-1.21-1.85-4.01-3.7-.09-.93-4.29-9.81-6.62-1.67-.28z"/>
		<path data-area="bougainville" d="m889.38 359.51 1.24 3.45 2.19 2.13.66-.59-.22-2.28-2.48-3.01-1.39.3z"/>
		<path data-area="new_ireland" d="m880.48 349-.88 1.25 4.81 4.26.66 2.5 1.31-.15.15-2.57-1.46-1.32-4.59-3.97z"/>
		<path data-area="new_britain" d="m882.89 355.03-.95.22-.58 2.57-1.82 1.18-5.47.96.22 2.06 5.76-.29 3.65-2.28-.22-3.97-.59-.45z"/>
	</g>
	<path id="PRK" data-country="north korea" d="m778.28 194.27 1.84.77.56 6.44 3.65.21 3.44-4.03-1.19-1.06.14-4.32 3.16-3.82-1.61-2.9 1.05-1.2.58-3-1.83-.83-1.56.79-1.93 5.86-3.12-.27-3.61 4.26.43 3.1z"/>
	<g id="PRT" data-country="portugal">
		<path data-area="portugal-main" d="m430.93 211.24-.62 8.65-1.77 1.6.18.98 1.24 2.05-.8 2.5 1.33.45 3.1-.36-.18-2.5 2.03-11.59-.44-1.6-4.07-.18z"/>
		<path data-area="madeira" d="m408.18 236.42-1.08 1.37 1.08 1.37 1.63-.82-1.63-1.92z"/>
		<path data-area="faial" d="m372.64 217.02-1.36 1.37 2.44 1.37.27-1.91-1.35-.83z"/>
		<path data-area="terceira" d="m379.97 216.2-1.63 1.09 1.36 1.09 2.17-.55-1.9-1.63z"/>
		<path data-area="pico" d="m381.05 220.03-.81 2.19 1.08 1.37 1.36-1.09-1.63-2.47z"/>
		<path data-area="sao miguel" d="m387.56 224.4-.54 1.37.81.82 2.17-1.37-2.44-.82z"/>
	</g>
	<path id="PRY" data-country="paraguay" d="m291.76 399.51 2.2 2.4-.26 5.08 6.34-.39 4.79 6.13-.39 5.47-3.1 4.69-6.34.26-.26-2.61 1.81-4.3-6.21-3.91h-5.17l-3.88-4.17 2.82-8.06 7.65-.59z"/>
	<path id="QAT" data-country="qatar" d="m592.63 259.02-.52 4.01 1.54 1.17 1.4-.13.52-5.05-1.21-.87-1.73.87z"/>
	<path id="ROU" data-country="romania" d="m512.18 187.6-.26 1.48-5.79 4.82 4.84 7.1 3.1 2.17h5.58l1.84-1.54 2.47-.32 1.84 1.11 3.26-3.71-.63-1.86-3.31-.85-2.26-.11.11-3.18-3-4.72-7.79-.39z"/>
	<g id="RUS" data-country="Russia">
		<path data-area="russia-main" d="m817.97 72.93 1.76 6.08 3.52 1.01 3.52-5.57-2.01-3.8.75-3.29h5.28l-1.26 2.53.5 9.12-7.54 18.74.75 4.05-.25 6.84 14.07 20.51 2.76.76.25-16.71 2.76-2.53-3.02-6.58 2.51-2.79-5.53-7.34-3.02.25-1-12.15 7.79-2.03.5-3.55 4.02-1.01 2.26 2.03 2.76-11.14 4.77-8.1 3.77-2.03 3.27.25v-3.8l-5.28-1.01-7.29-6.08 3.52-4.05-3.02-6.84 2.51-2.53 3.02 4.05 7.54 2.79 8.29.76 1.01-3.54-4.27-4.3 4.77-6.58-10.81-3.8-2.76 5.57-3.52-4.56-19.85-6.84-18.85 3.29-2.76 1.52v1.52l4.02 2.03-.5 4.81-7.29-3.04-16.08 6.33-2.76-5.82h-11.06l-5.03 5.32-17.84-4.05-16.33 3.29-2.01 5.06 2.51.76-.25 3.8-15.83 1.77 1.01 5.06-14.58-2.53 3.52-6.58-14.83-.76 1.26 6.84-4.77 2.28-4.02-3.8-16.33 2.79-6.28 5.82-.25 3.54-4.02.25-.5-4.05 12.82-11.14v-7.6l-8.29-2.28-10.81 3.54-4.52-4.56h-2.01l-2.51 5.06 2.01 2.28-14.33 7.85-12.31 9.37-7.54 10.38v4.3l8.04 3.29-4.02 3.04-8.54-3.04-3.52 3.04-5.28-6.08-1.01 2.28 5.78 18.23 1.51.51 4.02-2.03 2.01 1.52v3.29l-3.77-1.52-2.26 1.77 1.51 3.29-1.26 8.61-7.79.76-.5-2.79 4.52-2.79 1.01-7.6-5.03-6.58-1.76-11.39-8.04-1.27-.75 4.05 1.51 2.03-3.27 2.79 1.26 7.6 4.77 2.03 1.01 5.57-4.78-3.04-12.31-2.28-1.51 4.05-9.8 3.54-1.51-2.53-12.82 7.09-.25 4.81-5.03.76 1.51-3.54v-3.54l-5.03-1.77-3.27 1.27 2.76 5.32 2.01 3.54v2.79l-3.77-.76-.75-.76-3.77 4.05 2.01 3.54-8.54-.25 2.76 3.55-.75 1.52h-4.52l-3.27-2.28-.75-6.33-5.28-2.03v-2.53l11.06 2.28 6.03.51 2.51-3.8-2.26-4.05-16.08-6.33-5.55 1.38-1.9 1.63.59 3.75 2.36.41-.55 5.9 7.28 17.1-5.26 8.34-.36 1.88 2.67 1.88-2.41 1.59-1.6.03.3 7.35 2.21 3.13.03 3.04 2.83.26 4.33 1.65 4.58 6.3.05 1.66-1.49 2.55 3.42-.19 3.33.96 4.5 6.37 11.08 1.01-.48 7.58-3.82 3.27.79 1.28-3.77 4.05-1 3.8 2.26 3.29 7.29 2.53 3.02-1.77 19.35 7.34.75-2.03-4.02-3.8v-4.81l-2.51-.76.5-4.05 4.02-4.81-7.21-5.4.5-7.51 7.71-5.07 9.05.51 1.51 2.79 9.3.51 6.79-3.8-3.52-3.8.75-7.09 17.59-8.61 13.53 6.1 4.52-4.05 13.32 12.66 10.05-1.01 3.52 3.54 9.55 1.01 6.28-8.61 8.04 3.55 4.27.76 4.27-3.8-3.77-2.53 3.27-5.06 9.3 3.04 2.01 4.05 4.02.25 2.51-1.77 6.79-.25.75 1.77 7.79.51 5.28-5.57 10.81 1.27 3.27-1.27 1-6.08-3.27-7.34 3.27-2.79h10.3l9.8 11.65 12.56 7.09h3.77l.5-3.04 4.52-2.79.5 16.46-4.02.25v4.05l2.26 2.79-.42 3.62 1.67.69 1.01-2.53 1.51.51 1 1.01 4.52-1.01 4.52-13.17.5-16.46-5.78-13.17-7.29-8.86-3.52.51v2.79l-8.54-3.29 3.27-7.09 2.76-18.74 11.56-3.54 5.53-3.54h6.03L805.86 96l1.51 2.53 5.28-5.57 3.02.25-.5-3.29-4.78-1.01 3.27-11.9 4.31-4.08z"/>
		<path data-area="novaya zemlya north" d="m584.49 51.98-.52 2.43-3.96 3.47-8.44 1.91-6.89 11.45-1.21 3.3 6.89 1.74 1.03-4.16 2.07-6.42 5.34-2.78 4.48-3.47 3.27-1.39h1.72v-4.68l-3.78-1.4z"/>
		<path data-area="novaya zemlya south" d="m562.28 77.31 4.65.52 1.55 5.38 3.96 4.16-1.38 2.78h-2.41l-2.24-2.6-4.99-.17-2.07-2.78v-1.91l3.1-.87-.17-4.51z"/>
		<path data-area="komsomolets" d="m634.95 18.15-2.24-1.39h-2.58l-.52 1.56-2.75 1.56-2.07.69-.34 2.08 4.82.35 5.68-4.85z"/>
		<path data-area="october" d="m640.28 18.67-1.21 2.6-2.41-.17-3.79 2.78-1.03 3.47h2.41l1.38-2.26 3.27 2.43 3.1-1.39 2.24-1.91-.86-2.95-1.21-2.08-1.89-.52z"/>
		<path data-area="bolshevik" d="m645.28 20.58 1.21 4.86 1.89 4.51 2.07-3.64 3.96-.87v-2.6l-2.58-1.91-6.55-.35z"/>
		<path data-area="kotelny" d="m739.76 12.8 2.69 2.26 1.91-.79.56-3.17L741 8.39l-2.58 1.7-6.28.57v2.83l-6.62.11v4.63l7.74 5.76 2.02-1.47-.45-4.07 4.94-1.24-1.01-1.92-1.79-1.81 2.79-.68z"/>
		<path data-area="novaya sibir" d="m746.94 10.09 1.79 3.39 6.96-.79 1.91-2.49-.45-2.15-1.91-.79-1.79 1.36-5.16 1.13-1.35.34z"/>
		<path data-area="lyakhovsky" d="m746.49 23.31-3.48-.9-2.01 2.15-.9 2.94 4.71-.45 3.59-1.81-1.91-1.93z"/>
		<path data-area="salisbury" d="M554.36 36.88v2.08l1.72 1.39 2.41-.17 2.07-1.91v-1.39h-1.89l-1.55.52-1.21-1.39-1.55.87z"/>
		<path data-area="wilczek" d="m564.18 37.06 1.21 2.6 2.41.17 1.72-.69-.86-2.43-2.24-.52-2.24.87z"/>
		<path data-area="bell" d="m573.99 33.59-1.89-.35-1.72 1.74.86 1.56.52 2.43 2.24-1.73.52-1.91-.53-1.74z"/>
		<path data-area="wrangel" d="m836.68 3.76-2.92-.9-3.36 1.24-1.68 2.49 2.13 2.83 5.61-2.49 1.12-1.24-.9-1.93z"/>
		<path data-area="zemlya george" d="m547.82 38.79 1.72.69-1.21 2.08v2.95l-2.58 1.56H543l-1.55-1.91.17-2.08 1.21-1.56h2.41l2.58-1.73z"/>
		<path data-area="bering island" d="m852.57 103.42-1.91.19 1.15 1.64 2.39 1.64.67-.77-2.3-2.7z"/>
		<path data-area="medny" d="m856.29 104.58.29 1.64 2.96.87.29-1.16-3.54-1.35z"/>
		<path data-area="iturup" d="m830.86 160.45-2.68 3.76.19 1.83 1.34-.58 3.15-3.95-2-1.06z"/>
		<path data-area="urup" d="m834.4 154.96-.96 2.6.1 1.73 1.63-1.06 1.53-3.08V154l-2.3.96z"/>
		<path data-area="paramushir" d="m840.04 132.03-1.24 1.54.1 2.41 1.15-.1 1.91-3.37-1.92-.48z"/>
		<path data-area="onekotan" d="M837.75 137.91v4.24l1.34.48.96-1.54v-3.27l-2.3.09z"/>
		<path data-area="sakhalin" d="m798.64 122.59-.09 6.17 7.74 11.95 2.77 10.4 4.88 9.25 1.91.67 1.63-1.35.76-2.22-6.98-7.61.19-3.95 1.53-.67.38-2.31-13.67-19.36-1.05-.97z"/>
		<!-- COPIES ON LEFT SIDE OF MAP -->
		<path data-area="chukotka" d="m1.17 54.95 14.01 1.57 2.34 4.84 11.16-6.54 18.68-2.61 1.3-9.67 9.34-3.4 6.1-5.75v7.84l6.23 8.5L83.3 41.5l-6.23-7.06-7.78-21.04-9.35-10.73-6.62-.52-.26 5.75-5.45 2.75-1.69-3.4L49.16.32 1.3.45l-.13 54.5z"/>
		<path data-area="wrangel-w" d="M78.49 3.32 74.6 6.85l1.17 2.61 2.08-1.44 1.17 1.31L82.9 7.9l-.13-2.22-4.28-2.36z"/>
	</g>
	<path id="RWA" data-country="rwanda" d="m537.82 339.9 2.81 2.59-.12 2.77-4.36.09v-3.06l1.67-2.39z"/>
	<path id="SAU" data-country="saudi" d="m584 253.24 7.01 9.77 2.26 1.8 1.01 4.38 10.79.85 1.22.64-1.21 5.4-7.09 4.18-10.37 3.14-5.53 5.4-6.57-3.83-3.98 3.48-5.54-9.05-3.8-1.74-1.38-2.09v-4.53l-13.83-16.72-.52-2.96h3.98l4.84-4.18.17-2.09-1.38-1.39 2.77-2.26 5.88.35 10.03 8.36 5.92-.27.38 1.46 4.94 1.9z"/>
	<path id="SDN" data-country="sudan" d="m552 270.61-3.69 3.72-25.8-.23.28 6.57-2.46-.07-.18 11.83-3.73 3.21-.15 4.94 2.69 5.31 2.95 1.74-.045.415 4.02-2.059 3.066 2.45 5.639.324 3.258-2.729 2.886 1.375 3.25-4.748.274-1.576 2.476-.47.385 4.47 2.477 4.16 6.004-12.912v-7.85l4.36-5.14-7.96-12.73z"/>
	<g id="SEN" data-country="senegal">
		<path data-area="senegal-main" d="m410.12 290.32-3.94 2.86-.9 1.6-.28 1.6 1.45 1.04 4.84-.07 3.11-.84.35 1.53-.28 2.02 2.97 1.46.62.7 3.94.14.14-1.74-3.6-4.32-4.01-5.43-2.49-1.04-1.92.49z"/>
		<path data-area="casamance" d="m406.79 300.22 1.24 3.01.69-1.86 8.41.88-3.64-1.87-6.7-.16z"/>
	</g>
	<g id="SLB" data-country="solomon islands">
		<path data-area="rennell" d="m903.02 384.05-1.75.81 1.53 2.13 1.31-.74-1.09-2.2z"/>
		<path data-area="santa_isabel" d="m900.03 368.99 1.02 2.5 1.97 2.35 1.09-1.76-1.46-2.5-2.62-.59z"/>
		<path data-area="malaita" d="m905.14 372.74.58 3.09 1.39 1.91 1.17-2.42-3.14-2.58z"/>
		<path data-area="santa_ana" d="m906.74 379.65-.51.88 1.68 2.21 1.17.07-.73-2.87-1.61-.29z"/>
		<path data-area="new_georgia" d="m897.18 370.31-1.17 1.25 1.24 2.28 1.46.44-.07-1.54-1.46-2.43z"/>
		<path data-area="choiseul" d="m895.43 364.65.15 2.28 1.39 1.32 1.31-.81-1.17-2.43-1.68-.36z"/>
	</g>
	<path id="SLE" data-country="sierra_leone" d="m413.93 313.13 5.65 5.46 4.03-4.89-2.52-3.95-3.47.35-3.69 3.03z"/>
	<path id="SLV" data-country="el salvador" d="m201.65 296.27 4.7 2.34-.07-3.71-2.41-1.47-2.22 2.84z"/>
	<path id="SOM" data-country="somalia" d="m591.97 304.05 4.37-1.68 1.55.93-.17 3.88-4.03 11.48-21.81 23.36-2.53-1.74-.17-9.86 3.28-3.77 6.96-2.15 10.21-10.78 2.67-2.38.75-3.48-1.08-3.81z"/>
	<path id="SOM" data-country="somaliland" d="m575.74 305.04 4.08 2.78 1.21-.06 10.13-3.48 1.15 3.71-.81 3.13-2.19 1.74-5.47-.35-7.83-4.81-.27-2.66z"/>
	<path id="SRB" data-country="serbia" d="m505.55 194.54-2.05 1.54h-1l-.68 2.12 2.42 2.81.16 2.23-.341.483 1.636 2.298.057 1.22 1.178 1.14 3.84-1.17-.32-5.461-4.9-7.21z"/>
	<path id="SSD" data-country="south_sudan" d="m549.084 310.34-2.943-4.944-.309-3.595-.707.135-.191 1.107-3.858 5.635-3.078-1.469-3.07 2.572-6.352-.365-2.81-2.246-4.034 2.064-.152 1.375-1.23.74 12.32 12.68 6.71.381.98 1.49 9.6.17.08-2.15.82-1.49 3.2-.41-3.99-5.79h-2.94l-.75-4.11 2.36-1.04.344-.74z"/>
	<g id="STP" data-country="sao_tome">
		<path data-area="sao_tome" d="m470.74 337.15 1.15-.58.86.7-.86 1.33-1.04-.41-.11-1.04z"/>
		<path data-area="principe" d="m473.05 333.5 1.73-.29.58 1.1-.86.93-.86-.12-.59-1.62z"/>
	</g>
	<path id="SUR" data-country="suriname" d="m293.13 321.14 2.04 1.87 3.16-1.96 2.88.09-.37 1.12-1.21 2.52-.19 6.27-5.75 2.34.28-4.02-3.71-3.46.19-1.78 2.68-2.99z"/>
	<g id="SVC" data-country="seychelles">
		<path data-area="aldabra" d="m602.35 358.34-.61 1.23 1.67 1.38 1.22-1.38-2.28-1.23z"/>
		<path data-area="praslin" d="m610.88 349.14-1.83 1.23 1.37 2.15h1.83l-1.37-3.38z"/>
		<path data-area="mahe" d="m611.64 354.51-1.22 1.38.91 1.38 1.67.31.15-2.92-1.51-.15z"/>
	</g>
	<path id="SVK" data-country="slovakia" d="m495.84 187.13.69.61.09 1.04 7.63-.17 5.64-2.43-.09-2.47-1.08.48-1.55-.83-.95-.04-2.5 1-3.4-.82-4.48 3.63z"/>
	<path id="SVN" data-country="slovenia" d="m494.8 191.99-2.54 1.52-4.74 1.04.95 2.74 3.32.04 3.06-2.56-.05-2.78z"/>
	<g id="SWE" data-country="sweden">
		<path data-area="sweden" d="m497.72 104.58 1.96 1.81h3.67l2.02 3.88.55 6.65-4.95 3.51v3.51l-3.49 4.81-2.02.18-2.75 4.62.18 4.44 4.77 3.51-.37 2.03-1.83 2.77-2.75 2.4.18 7.95-4.22 1.48-1.47 3.14h-2.02l-1.1-5.54-4.59-7.04 3.77-6.31.26-15.59 2.6-1.43.63-8.92 7.41-10.61 3.56-1.25z"/>
		<path data-area="gotland" d="m498.49 150.17-2.11 1.67 1.06 2.45 1.87-1.82-.82-2.3z"/>
	</g>
	<path id="SWZ" data-country="swaziland" d="m540.87 414-2.51.42-1.08 2.95 1.92 1.75h2.33l1.97-2.83-2.63-2.29z"/>
	<path id="SYR" data-country="syria" d="m546.67 229.13-.35 2.54 2.82 1.18-.12 7.04 2.82-.06 2.82-2.13 1.06-.18 6.4-5.09 1.29-7.39-12.79 1.3-1.35 2.96-2.6-.17z"/>
	<path id="TCD" data-country="chad" d="m492.79 296 .13-2.95 4.74-4.61 1.27-11.32-3.16-6.04 2.21-1.13 21.4 11.15-.13 10.94-3.77 3.21v5.64l2.47 4.78h-4.36l-7.22 7.14-.19 2.16-5.33-.07-.07.98-3.04-.4-2.08-3.93-1.56-.77.2-1.2 1.96-1.5v-7.02l-2.71-.42-3.27-2.43 2.51-2.21z"/>
	<path id="TGO" data-country="togo" d="m455.22 321.25 2.68-1.57-.06-10.35-1.74-2.82-1.12.94.24 13.8z"/>
	<path id="THA" data-country="thailand" d="m730.03 270.47 3.24 4.17v5.07l1.12.56 5.15-2.48 1.01.34 6.15 7.1-.22 4.85-2.01-.34-1.79-1.13-1.34.11-2.35 3.94.45 2.14 1.9 1.01-.11 2.37-1.34.68-4.59-3.16v-2.82l-1.9-.11-.78 1.24-.4 12.62 2.97 5.42 5.26 5.07-.22 1.47-2.8-.11-2.57-3.83h-2.69l-3.36-2.71-1.01-2.82 1.45-2.37.5-2.14 1.58-2.8-.07-6.44-3.86-5.58-.16-.68 1.25-1.26-.29-4.43-5.14-6.51.6-3.75 6.37-2.69z"/>
	<path id="TJK" data-country="tajikistan" d="m630.19 211.84 4.11-5.1h1.55l.54 1.14-1.9 1.38v1.14l1.25.9 6.01.36 1.96-.84.89.18.6 1.92 3.57.36 1.79 3.78-.54 1.14-.71.06-.71-1.44-1.55-.12-2.68.36-.18 2.52-2.68-.18.12-3.18-1.96-1.92-2.98 2.46.06 1.62-2.62.9h-1.55l.12-5.58-2.51-1.86z"/>
	<path id="TKM" data-country="turkmenistan" d="m593.85 207.59-.62 2.63h-4.15v3.56l4.46 2.94-1.38 4.03v1.86l1.85.31 2.46-3.25 5.54-1.24 11.84 4.49.15 3.25 6.61.62 7.38-7.75-.92-2.48-4.92-1.08-13.84-8.99-.62-3.25h-5.23l-2.31 4.34h-2.31l-3.99.01z"/>
	<path id="TLS" data-country="timor" d="m806.14 368.42-5.11 4.26.49 1.09 2.16-.4 2.55-2.38 5.01-.69-.98-1.68-4.12-.2z"/>
	<path id="TTO" data-country="trinidad" d="m282.24 304.78-1.06.98-1.15.18v1.42l2.12 1.95.88-1.42.53-1.6-.18-1.33-1.14-.18z"/>
	<path id="TUN" data-country="tunisia" d="m474.91 227.33 5.53-2.23 1.82 1.18.07 1.44-.85 1.11.13 1.97.85.46v3.54l-.98 1.64.13 1.05 3.71 1.31-2.99 4.65-1.17-.07-.2 3.74-1.3.2-1.11-.98.26-3.8-3.64-3.54-.46-3.08 1.76-1.38-1.56-7.21z"/>
	<path id="TUR" data-country="turkey" d="m558.7 209.19-2.23 2.36-8.2-.24-4.92-2.95-4.8-.12-5.51 3.9-5.16.24-.47 2.95h-5.86l-2.34 2.13v1.18l1.41 1.18v1.3l-.59 1.54.59 1.3 1.88-.94 1.88 2.01-.47 1.42-.7.95 1.05 1.18 5.16 1.06 3.63-1.54v-2.24l1.76.35 4.22 2.48 4.57-.71 1.99-1.89 1.29.47v2.13h1.76l1.52-2.95 13.36-1.42 5.83-.71-1.54-2.02-.03-2.73 1.17-1.4-4.26-3.42.23-2.95h-2.34l-3.88-1.9z"/>
	<path id="TWN" data-country="taiwan" d="m787.46 248.31-3.54 2.7-.19 5.2 3.06 3.56.76-.67-.09-10.79z"/>
	<path id="TZA" data-country="tanzania" d="m550.57 371.42 17.47-2.14-3.93-7.6-.21-7.28 1.27-3.48-16.62-10.44-5.21.86-1.81 1.34-.16 3.05-1.17 4.23-1.22 1.45-1.75.16 3.35 11.61 5.47 2.57 3.77.11.75 5.56z"/>
	<path id="UGA" data-country="uganda" d="m538.3 339.09 3.03 2.84 1.9-1.21 5.14-.84.88.09.33-1.95 2.9-6.1-2.44-5.08-7.91.05-.05 2.09 1.06 1.02-.16 2.09-4.68 7z"/>
	<path id="UKR" data-country="ukraine" d="m515.57 173.15-2.9 1.63.72 3.08-2.68 5.65.02 2.49 1.26.8 8.08.4 2.26-1.87 2.42.81 3.47 4.63-2.54 4.56 3.02.88 3.95-4.55 2.26.41 2.1 1.46-1.85 2.44 2.5 3.9h2.66l1.37-2.6 2.82-.57.08-2.11-5.24-.81.16-2.27h5.08l5.48-4.39 2.42-2.11.4-6.66-10.8-.97-4.43-6.25-3.06-1.05-3.71.16-1.67 4.13-7.6.1-2.47-1.14-3.58-.18z"/>
	<path id="URV" data-country="uruguay" d="m300.36 431.93-2.05 2.19.85 11.78 6.44 1.87 8.19-8.21-13.43-7.63z"/>
	<g id="USA" data-country="United States of America">
		<path data-area="usa" d="m148.76 158.34-1 4.02-3.49-2.26h-1.74l-1 4.27-12.21 27.36 3.24 23.84 3.99 2.01.75 6.53h8.22l7.97 6.02 15.69 1.51 1.74 8.03 2.49 1.76 3.49-3.51 2.74 1.25 2.49 11.54 4.23 2.76 3.49-6.53 10.71-7.78 6.97 3.26 5.98.5.25-3.76 12.45.25 2.49 2.76.5 6.27-1.49 3.51 1.74 6.02h3.74l3.74-5.77-1.49-2.76-1.49-6.02 2.24-6.78 10.21-8.78 7.72-2.26-1-7.28 10.71-11.55 10.71-1.76-1.74-6.01 10.46-6.02v-8.03l-1-.5-3.74 1.25-.5 4.92-12.43.15-9.74 6.47-15.29 5-2.44-2.99 6.94-10.5-3.43-3.27-2.33-4.44-4.83-3.88-5.25-.44-9.92-6.77-70.54-11.61z"/>
		<path data-area="alaska" d="m93.11 44.89-8.39 1.99 1.73 9.45 9.13 2.49.49 1.99-13.57 4.23-7.65 12.68 2.71 13.43L82 94.13l3.46-3.23.99 1.99-4.2 4.97-16.29 7.46-10.37 2.49-.25 3.73 23.94-6.96 9.87-2.74 9.13-11.19 10.12-6.71-5.18 8.7 5.68.75 9.63-4.23 1.73 6.96 6.66 1.49 6.91 6.71.49 4.97-.99 1.24 1.23 4.72h1.73l.25-7.96h1.97l.49 19.64 4.94-4.23-3.46-20.39h-5.18l-5.68-7.21 27.89-47.25-27.64-21.63-30.85 5.97-1.23 9.45 6.66 3.98-2.47 6.47-8.87-7.2z"/>
		<path data-area="st lawrence island west" d="m69.17 53.35 3.46 6.47 2.22-.5v-2.24l-5.68-3.73z"/>
		<path data-area="unalaska west" d="m49.66 110.26-.17 3.01 2.16-.5v-1.34l-1.99-1.17z"/>
		<path data-area="umnak west" d="m46.34 111.6-4.32 2.18.67 2.34 1.66-1.34 3.32-1.51-1.33-1.67z"/>
		<path data-area="another aleutian west" d="m28.39 114.44-2.99-.67-.5 1.34.33 2.51 3.16-3.18z"/>
		<path data-area="adak west" d="m22.07 114.28-2.83-1.17-1 1.84 1.83 1.84 2-2.51z"/>
		<path data-area="amchitka west" d="m12.27 111.6-1.33-1.84-1.33.5v2.51l1.5 1 1.16-2.17z"/>
		<path data-area="attu west" d="m1.47 99.71 1.66 1.17-.5 1.34H1.47v-2.51z"/>
		<path data-area="kauai" d="m10 248.7-.14 2.33 2.04 1.37 1.22-1.09L10 248.7z"/>
		<path data-area="oahu" d="m15.29 252.13-1.9 1.37 1.63 2.05 1.9-1.64-1.63-1.78z"/>
		<path data-area="kahului" d="m19.1 255.41-1.63 2.19.54 1.37 2.31-1.09-1.22-2.47z"/>
		<path data-area="hawaii" d="m21.81 259.65-.95 5.47.95 2.05 3.12-.96 1.63-2.74-3.4-3.15-1.35-.67z"/>
		<path data-area="puerto rico" d="m271.05 281.06-2.64-.89-2.12 1.33 1.06 1.24 3.61.53.09-2.21z"/>
		<!-- COPIES ON RIGHT SIDE OF MAP -->
		<path data-area="attu" d="m872.54 110.87 1.25 2.24 2.08-.14.42-1.54-3.75-.56z"/>
		<path data-area="amchitka" d="m893.51 114.37 1.67 3.08 1.25-1.4v-2.1l-2.92.42z"/>
		<path data-area="adak" d="m907.81 104.57-2.36 3.08.55 1.4 2.92-1.82.28-1.82-1.39-.84z"/>
		<path data-area="umnak" d="m919.61 94.92-2.08 2.52 2.22.84-.14-3.36z"/>
		<path data-area="unalaska" d="m922.53 90.72-1.39 2.24.14 2.24 1.94-.84-.69-3.64z"/>
		<path data-area="alaska" d="m883.4 17.54-4.22 7.57 8.08 5.11 9.05-7.59 5.5 9.17-5.74 1.18-2.27 5.88 12.71 17.22 7.65 1.27 11.03 2.17 1.36-4L930.4 57l.73 16.75L924 85.62l3.44.75 8.98-18.92 2.73-14.16-5.54-2.59-.89-19 4.27.83-.04 11.43 4.66 4.07 2.72-9.93-2.18-5.9 6.58 3.15.69-34.99-75.76.14-4.36 3.35.59 6.77 13.43 1.84 10.31-2.35-3.7 6.92-6.53.51z"/>
		<path data-area="st lawrence island" d="m881.29 38.39-2.36 1.54-.56 1.96 1.11 1.26 2.5-.84 2.5.84 1.39.42-.14-4.62-4.44-.56z"/>
	</g>
	<path id="UZB" data-country="uzbekistan" d="m628.92 219.06 3.08.16v-5.27l-2.92-1.7 4.92-6.2h2l2 2.33 5.23-2.01-7.23-2.48-.28-1.5-1.72.42-1.69 2.94-7.29-.24-5.35-7.57-9.4.93-4.48-4.44-6.2-1.05-4.5 1.83 2.61 8.68.03 2.92 1.9.04 2.33-4.44 6.2.08.92 3.41 13.29 8.82 5.14 1.18 1.41 3.16z"/>
	<g id="VCT" data-country="saint vincent">
		<path data-area="st. lucia" d="m281.98 294.03-.71 1.51 1.15 1.24 1.5-.8-1.94-1.95z"/>
		<path data-area="st. vincent" d="m282.07 297.85-1.23.89.97 1.78 1.59-.89-1.33-1.78z"/>
	</g>
	<path id="VEN" data-country="venezuela" d="m250.46 305.92.44 2.59 3.25 1.03.74-4.77 3.43-3.55 3.43 4.02 7.89 2.15 6.68-1.4 4.55 5.61 3.43 2.15-3.76 5.73 1.26 4.34-2.15 2.66-2.23 1.87-4.83-2.43-1.11 1.12v3.46l3.53 1.68-2.6 2.81-2.6 2.81-3.43-.28-3.45-3.79-.73-14.26-11.78-4.02-2.14-6.27 2.18-3.26z"/>
	<path id="VNM" data-country="vietnam" d="m745.06 304.45 1.19 1.87.22 2.14 3.13.34 3.8-5.07 3.58-1.01 1.9-5.18-.89-8.34-3.69-5.07-3.89-3.11-4.95-8.5 3.55-5.94-5.08-5.83-4.07-.18-3.66 1.97 1.09 4.71 4.88.86 1.31 3.63-1.72 1.12.11.9 11.45 11.2.45 3.29-.69 10.4-8.02 5.8z"/>
	<g id="VUT" data-country="vanuatu">
		<path data-area="espiritu santo" d="m920.87 397.22-1.24 1.66.52 1.87.62.42 1.13-1.46-1.03-2.49z"/>
		<path data-area="malakula" d="m921.49 402.31.1 1.35 1.34.42.93-.52-.93-1.46-1.44.21z"/>
		<path data-area="efate" d="m923.45 414.37-.62.94.93 1.04 1.55-.52-1.86-1.46z"/>
	</g>
	<g id="YEM" data-country="yemen">
		<path data-area="yemen" d="m571.99 289.23 1.44 4.28v4.18l3.46 3.14 24.38-9.93.23-2.73-3.91-7.02-9.81 3.13-5.63 5.54-6.53-3.86-3.63 3.27z"/>
		<path data-area="soqotra" d="m599.62 299.65 2.13 2.38 2.88-1.74 1.04-.35-1.32-1.28-2.53.75-2.2.24z"/>
	</g>
	<path id="ZAF" data-country="south africa" d="m534.16 403.63-7.9 7.3-1.88 4.51-6.26-.78-5.21 4.63-3.46-.34.28-6.4-1.23-.43-.86 13.09-6.14-.06-1.85-2.18-2.71-.03 2.47 7.09 4.41 4.17-3.15 3.67 2.04 4.6 4.72 1.8 3.76-3.2 10.77.06.77-.96 4.78-.84 16.17-16.1-.06-5.07-1.73 2.24h-2.59l-3.15-2.64 1.6-3.98 2.75-.56-.25-8.18-6.09-1.41zm-3.79 18.5 1.51-.06 2.45 2.66-.07 3.08-2.87 1.45-.18 1.02-4.38.05-1.37-3.3 1.25-2.42 3.66-2.48z"/>
	<path id="ZMB" data-country="zambia" d="m514.55 384.7 3.17 4.4 4.91.3 1.74.96 5.14.06 4.43-6.21 12.38-5.54 1.08-4.88-1.44-6.99-6.46-3.68-4.31.3-2.15 4.76.06 2.17 5.08 2.47.3 5.37-4.37.24-1.08-1.81-12.14-5.18-.36 3.98-5.74.18-.24 9.1z"/>
	<path id="ZWE" data-country="zimbabwe" d="m524.66 392.3 8.97 10.13 6.88 1.75 4.61-7.23-.36-9.58-7.48-3.86-2.81 1.27-4.19 6.39-5.8-.06.18 1.19z"/>

	<!-- <path id="haiti-dominican border" d="m250.87 275.38-1.67 1.71 1.91.78.28 2.39-4.23.37.43 2.3 1.23.09.71-1.06 4.94.16.89 1.71 1.14-1.34 3.33-.9 2.93.62.34-1.77-5.28-3.45-3.42-1.28-3.53-.33z"/> -->
	<!-- <path id="thrace" d="m523.02 209.7-.16 3.55 3.1-.95 1.42-.95-.42-1.54-1.47-1.17-2.47 1.06z"/> -->

</svg>