<?xml version="1.0" encoding="UTF-8" standalone="no"?>
<!-- Created with Inkscape (http://www.inkscape.org/) -->

<svg
   width="55.273636mm"
   height="61.453854mm"
   viewBox="0 0 55.273636 61.453854"
   version="1.1"
   id="svg1"
   xml:space="preserve"
   xmlns="http://www.w3.org/2000/svg"
   xmlns:svg="http://www.w3.org/2000/svg"><defs
     id="defs1" /><g
     id="layer1"
     transform="translate(-50.389966,-104.12821)"><path
       style="fill:#000000"
       d="m 73.040733,164.16662 c -0.5464,-0.77851 -3.08982,-4.46944 -5.65204,-8.20209 -5.685266,-8.28229 -7.335646,-10.57217 -8.888516,-12.33269 -1.1042,-1.25185 -1.31518,-1.34618 -2.64583,-1.18287 -5.45018,0.66886 -5.61415,0.66608 -5.41594,-0.0919 0.10216,-0.39067 1.33949,-2.50831 2.74962,-4.70586 7.26629,-11.32381 8.83852,-13.75551 9.768196,-15.10804 0.46679,-0.6791 1.35386,-1.9933 1.97127,-2.92046 l 1.12256,-1.68573 6.0372,0.179 c 3.32046,0.0985 6.25733,0.25589 6.52639,0.34988 0.26905,0.094 1.36231,0.24739 2.42946,0.34091 1.06716,0.0935 3.57946,0.4188 5.5829,0.72284 2.00344,0.30405 3.78323,0.46592 3.95509,0.3597 0.17185,-0.10621 0.40472,-0.78286 0.51749,-1.50365 0.11276,-0.7208 0.59254,-3.3743 1.06618,-5.89666 1.0728,-5.71322 1.39222,-7.68717 1.29868,-8.02569 -0.24792,-0.89719 0.78984,0.07 2.30858,2.1515 1.52678,2.09255 1.94593,2.44632 3.13015,2.64195 2.428897,0.40123 2.484377,0.37817 5.898767,-2.45231 0.358,-0.29677 0.73117,-0.45931 0.82928,-0.36121 0.19219,0.1922 -0.44631,4.43037 -1.89406,12.57215 -0.50027,2.8134 -1.11679,6.46465 -1.37004,8.11389 -0.25325,1.64924 -0.85155,4.82424 -1.32955,7.05556 -0.478,2.23132 -1.00489,4.75977 -1.170857,5.61879 l -0.30177,1.56186 -4.93889,1.02048 c -7.89349,1.63097 -9.85783,1.95009 -10.18612,1.6548 -0.16958,-0.15253 -0.68733,-2.47221 -1.15056,-5.15483 -1.35544,-7.84965 -2.00537,-10.5016 -2.59813,-10.60125 -0.31801,-0.0534 -1.2325,0.968 -2.2923,2.56041 -1.41969,2.13317 -2.00391,2.71622 -2.99861,2.99258 -1.86017,0.5168 -2.03514,0.47141 -4.78155,-1.24034 -1.40087,-0.87313 -2.74574,-1.5875 -2.98859,-1.5875 -0.48538,0 -0.26055,3.13696 0.36662,5.11527 0.18453,0.58209 0.81814,3.67771 1.40802,6.87917 0.58988,3.20146 1.54803,7.88458 2.12924,10.40694 1.57164,6.82079 2.71527,12.17084 2.60163,12.17084 -0.0553,0 -0.54757,-0.63696 -1.09397,-1.41546 z"
       id="path1" /></g></svg>
