<?xml version="1.0" standalone="yes"?>
<svg xmlns="http://www.w3.org/2000/svg" width="172" height="194">
<path style="fill:#f9fcfb; stroke:none;" d="M0 0L0 194L172 194L172 0L0 0z"/>
<path style="fill:#363429; stroke:none;" d="M130 10C129.035 21.062 125.304 31.9107 124.05 43C123.616 46.8425 123.541 52.7245 119.772 54.9684C115.382 57.5809 105.89 53.8662 101 53.2855C89.1293 51.8757 76.9517 51.0192 65 51C61.4175 50.9942 56.6008 49.6531 53.1852 50.6535C47.3469 52.3637 42.0552 64.1139 39.0748 69C32.7716 79.3336 26.0153 89.5636 19.4313 99.7145C14.8429 106.789 9.00265 113.666 7 122L30 121L30 125C34.4132 127.599 36.624 132.826 39.7199 136.83C48.5849 148.297 55.8053 160.789 64.2585 172.576C67.7069 177.384 70.9689 183.798 76 187C74.2838 173.433 70.3068 160.295 67.2353 147C64.7152 136.092 63.3316 124.918 60.9853 114C59.1557 105.486 56.6917 96.6923 56 88C61.1207 90.6383 66.5299 95.9456 72 97.3935C83.376 100.405 87.9693 85.2199 95 80C97.8982 94.9449 102.345 110.786 103 126C113.914 125.137 125.362 122.562 136 120.001C139.103 119.254 144.814 119.886 147.062 117.397C148.905 115.355 149.108 111.584 149.576 109C150.722 102.672 151.811 96.296 153.12 90C158.182 65.6389 162.873 40.7245 166 16C160.586 18.2772 156.487 23.355 151 25.2469C140.808 28.7608 136.276 15.0935 130 10z"/>
</svg>
