<svg viewBox="0 0 100 100">
        <rect rx="4" width="28" height="31.33" x="0" y="0" />
        <text x="11" y="18.665%">1</text>
        <rect rx="4" width="18" height="31.33" x="30" y="0" />
        <text x="36" y="18.665%">2</text>
        <rect rx="4" width="18" height="31.33" x="50" y="0" />
        <text x="56" y="18.665%">3</text>
        <rect rx="4" width="28" height="48" x="70" y="0" />
        <text x="81" y="27%">4</text>
        <rect rx="4" width="28" height="31.33" x="0" y="33.33" />
        <text x="11" y="51.995%">5</text>
        <rect rx="4" width="38" height="31.33" x="30" y="33.33" />
        <text x="46" y="51.995%">6</text>
        <rect rx="4" width="38" height="31.33" x="0" y="66.67" />
        <text x="16" y="85.33500000000001%">7</text>
        <rect rx="4" width="28" height="48" x="70" y="50" />
        <text x="81" y="77%">8</text>
        <rect rx="4" width="28" height="31.33" x="40" y="66.67" />
        <text x="51" y="85.33500000000001%">9</text>
    </svg>