<svg viewBox="0 0 100 100">
        <rect rx="4" width="23" height="48" x="0" y="0" />
        <text x="8.5" y="27%">1</text>
        <rect rx="4" width="48" height="48" x="25" y="0" />
        <text x="46" y="27%">2</text>
        <rect rx="4" width="23" height="23" x="75" y="0" />
        <text x="83.5" y="14.5%">3</text>
        <rect rx="4" width="23" height="23" x="75" y="25" />
        <text x="83.5" y="39.5%">4</text>
        <rect rx="4" width="23" height="23" x="0" y="50" />
        <text x="8.5" y="64.5%">5</text>
        <rect rx="4" width="23" height="48" x="25" y="50" />
        <text x="33.5" y="77%">6</text>
        <rect rx="4" width="23" height="48" x="50" y="50" />
        <text x="58.5" y="77%">7</text>
        <rect rx="4" width="23" height="48" x="75" y="50" />
        <text x="83.5" y="77%">8</text>
        <rect rx="4" width="23" height="23" x="0" y="75" />
        <text x="8.5" y="89.5%">9</text>
    </svg>