<svg xmlns="http://www.w3.org/2000/svg" style="display: none;">
  <symbol id="100" viewBox="0 0 475 475">
    <circle cx="237.5" cy="237.5" r="207" fill="#fff" stroke="#f06b72" stroke-miterlimit="10" stroke-width="61"/>
  <path d="M198.9 380.6v-41.3h7.7v21.1l9.2-9.3h10.7L212 365.4l14.4 15.2h-10.8l-8.9-9.9v9.9zm67 0v-18.3c.1-1.2-.4-2.4-1.3-3.2-.9-.7-2-1.1-3.2-1.1-.7 0-1.5.1-2.2.4-.6.2-1.2.6-1.7 1s-.9.8-1.2 1.3c-.3.4-.4.9-.4 1.3v18.5h-7.6v-18.3c.1-1.2-.4-2.4-1.3-3.2-.9-.7-2-1-3.2-1-.7 0-1.4.1-2 .4s-1.2.6-1.8 1c-.5.4-.9.8-1.3 1.3-.3.4-.5.8-.5 1.3v18.6h-7.7V351h7.7v1.1c.9-.5 1.9-.8 2.9-1.1 2.7-.7 5.6-.5 8.3.4 1.5.6 2.8 1.5 3.8 2.6 1.1-.9 2.4-1.7 3.8-2.4 1.6-.7 3.4-1.1 5.2-1.1 1.5 0 3 .2 4.4.7 1.3.4 2.6 1.1 3.6 2.1 1.1 1 1.9 2.1 2.5 3.5.6 1.5 1 3.1.9 4.8v19zm-166.2-75V156.7l29.6-10.9v159.8zm102.8 1.6c-8.2.1-16.2-1.8-23.5-5.4-7.2-3.7-13.5-9.1-18.4-15.6-5.5-7.4-9.6-15.8-12.1-24.8-3-10.7-4.4-21.8-4.3-32.9-.1-11 1.3-21.9 4.3-32.5 2.5-9 6.6-17.5 12.1-25 4.9-6.6 11.2-12 18.4-15.9 14.8-7.5 32.2-7.5 47 0 7.2 3.9 13.5 9.3 18.3 15.9 5.5 7.5 9.5 16 12 25 3 10.6 4.4 21.5 4.3 32.5.1 11.1-1.3 22.2-4.3 32.9-2.5 8.9-6.5 17.3-12 24.8-4.8 6.5-11.1 11.9-18.3 15.6-7.3 3.6-15.3 5.5-23.5 5.4m0-28.5c4 0 7.9-1.2 11.2-3.5 3.7-2.7 6.7-6.1 8.9-10.1 2.8-4.9 4.8-10.3 6-15.8 1.5-6.8 2.2-13.8 2.2-20.8 0-15.5-2.7-27.6-8-36.4-5.3-8.7-12.1-13.1-20.3-13.1-8.4 0-15.4 4.4-20.9 13.1s-8.2 20.9-8.2 36.3c-.1 7 .6 14 2.1 20.8 1.2 5.6 3.2 10.9 6.1 15.8 2.3 4 5.5 7.4 9.3 10.1 3.4 2.4 7.5 3.6 11.6 3.6m131.3 28.5c-8.2.1-16.2-1.8-23.5-5.4-7.2-3.7-13.5-9.1-18.4-15.6-5.5-7.4-9.6-15.8-12.1-24.8-3-10.7-4.5-21.8-4.3-32.9-.1-11 1.3-22 4.3-32.5 2.5-9 6.6-17.5 12.1-25 4.9-6.6 11.2-12 18.4-15.9 14.8-7.5 32.2-7.5 47 0 7.2 3.9 13.5 9.3 18.3 15.9 5.5 7.5 9.5 16 12 25 3 10.6 4.4 21.5 4.3 32.5.1 11.1-1.3 22.2-4.3 32.9-2.5 8.9-6.5 17.3-12 24.8-4.8 6.5-11.1 11.9-18.3 15.6-7.3 3.6-15.3 5.5-23.5 5.4m0-28.5c4 0 7.9-1.2 11.2-3.5 3.7-2.7 6.7-6.1 8.9-10.1 2.8-4.9 4.8-10.3 6-15.8 1.5-6.8 2.2-13.8 2.1-20.8 0-15.5-2.7-27.6-8-36.4-5.3-8.7-12.1-13.1-20.2-13.1-8.4 0-15.4 4.4-20.9 13.1s-8.3 20.9-8.3 36.4c-.1 7 .6 14 2.1 20.8 1.2 5.6 3.2 10.9 6.1 15.8 2.3 4 5.5 7.4 9.3 10.1 3.5 2.3 7.6 3.5 11.7 3.5" class="st1"/>
  <path d="m88.8 160.4 40.5-14.6-28.3 33.7-10.9-.4z" class="st1"/>
  </symbol>
  <symbol id="110" viewBox="0 0 475 475">
    <circle cx="237.5" cy="237.5" r="207" fill="#fff" stroke="#f06b72" stroke-miterlimit="10" stroke-width="61"/>
  <path d="M198.9 380.6v-41.3h7.7v21.1l9.2-9.3h10.7L212 365.4l14.4 15.2h-10.8l-8.9-9.9v9.9zm67 0v-18.3c.1-1.2-.4-2.4-1.3-3.2-.9-.7-2-1.1-3.2-1.1-.7 0-1.5.1-2.2.4-.6.2-1.2.6-1.7 1s-.9.8-1.2 1.3c-.3.4-.4.9-.4 1.3v18.5h-7.6v-18.3c.1-1.2-.4-2.4-1.3-3.2-.9-.7-2-1-3.2-1-.7 0-1.4.1-2 .4s-1.2.6-1.8 1c-.5.4-.9.8-1.3 1.3-.3.4-.5.8-.5 1.3v18.6h-7.7V351h7.7v1.1c.9-.5 1.9-.8 2.9-1.1 2.7-.7 5.6-.5 8.3.4 1.5.6 2.8 1.5 3.8 2.6 1.1-.9 2.4-1.7 3.8-2.4 1.6-.7 3.4-1.1 5.2-1.1 1.5 0 3 .2 4.4.7 1.3.4 2.6 1.1 3.6 2.1 1.1 1 1.9 2.1 2.5 3.5.6 1.5 1 3.1.9 4.8v19zm-142.1-75V156.7l29.7-10.8v159.8h-29.7zm72.8 0V156.7l29.6-10.9v159.8zm117.1 1.6c-8.2.1-16.2-1.8-23.5-5.4-7.2-3.7-13.5-9.1-18.4-15.6-5.5-7.4-9.6-15.8-12.1-24.8-3-10.7-4.4-21.8-4.3-32.9-.1-11 1.3-22 4.3-32.5 2.5-9 6.6-17.5 12.1-25 4.9-6.6 11.2-12 18.4-15.9 14.8-7.5 32.2-7.5 47 0 7.2 3.9 13.5 9.4 18.3 16 5.5 7.5 9.5 16 12 25 3 10.6 4.4 21.5 4.3 32.5.2 11.1-1.3 22.2-4.3 32.9-2.5 8.9-6.5 17.3-12 24.8-4.8 6.5-11.1 11.9-18.3 15.6-7.3 3.5-15.4 5.4-23.5 5.3m0-28.5c4 0 7.9-1.2 11.2-3.5 3.7-2.7 6.7-6.1 8.9-10.1 2.8-4.9 4.8-10.3 6-15.8 1.5-6.8 2.2-13.8 2.1-20.8 0-15.5-2.7-27.6-8-36.4-5.3-8.7-12.1-13.1-20.2-13.1-8.4 0-15.4 4.4-20.9 13.1s-8.3 20.9-8.3 36.4c-.1 7 .6 14 2.1 20.8 1.2 5.6 3.2 10.9 6.1 15.8 2.3 4 5.5 7.4 9.3 10.1 3.5 2.3 7.5 3.5 11.7 3.5" class="st1"/>
  <path d="m185.7 160.4 40.5-14.6-28.3 33.7-10.9-.4zm-72.7 0 40.5-14.6-28.3 33.7-10.9-.4z" class="st1"/>
  </symbol>
  <symbol id="130" viewBox="0 0 475 475">
    <circle cx="237.5" cy="237.5" r="207" fill="#fff" stroke="#f06b72" stroke-miterlimit="10" stroke-width="61"/>
  <path d="M198.9 380.6v-41.3h7.7v21.1l9.2-9.3h10.7L212 365.4l14.4 15.2h-10.8l-8.9-9.9v9.9zm67 0v-18.3c.1-1.2-.4-2.4-1.3-3.2-.9-.7-2-1.1-3.2-1.1-.7 0-1.5.1-2.2.4-.6.2-1.2.6-1.7 1s-.9.8-1.2 1.3c-.3.4-.4.9-.4 1.3v18.5h-7.6v-18.3c.1-1.2-.4-2.4-1.3-3.2-.9-.7-2-1-3.2-1-.7 0-1.4.1-2 .4s-1.2.6-1.8 1c-.5.4-.9.8-1.3 1.3-.3.4-.5.8-.5 1.3v18.6h-7.7V351h7.7v1.1c.9-.5 1.9-.8 2.9-1.1 2.7-.7 5.6-.5 8.3.4 1.5.6 2.8 1.5 3.8 2.6 1.1-.9 2.4-1.7 3.8-2.4 1.6-.7 3.4-1.1 5.2-1.1 1.5 0 3 .2 4.4.7 1.3.4 2.6 1.1 3.6 2.1 1.1 1 1.9 2.1 2.5 3.5.6 1.5 1 3.1.9 4.8v19zm-160.2-74.9V156.5l29.7-10.9v160.1zM257 257.8c.1 7.2-1.4 14.2-4.4 20.7-2.8 6-6.9 11.3-12 15.5-5.2 4.3-11.1 7.6-17.6 9.7-6.8 2.3-13.9 3.4-21 3.4-9.2.1-18.2-1.9-26.5-5.9-8-3.9-16.4-10.3-25.1-19l24-20.4c4.7 6.2 9.3 10.6 14 13.1 4.1 2.4 8.8 3.7 13.6 3.8 7.7 0 13.7-2 18.1-6.1 4.3-3.8 6.6-9.2 6.6-14.9 0-6.3-2.8-11.5-8.4-15.4s-13.4-5.9-23.3-5.8h-12.7v-29.7h13.1c7.2 0 13.2-1.4 17.9-4.1 4.5-2.3 7.2-7 7-12 0-4.1-1.8-7.4-5.4-10.1-3.6-2.6-8.1-4-13.6-4-4.9-.1-9.6 1.3-13.8 3.8-4.1 2.5-8.3 6.4-12.7 11.7l-23.3-19.2c7.8-8.3 15.6-14.5 23.2-18.5s16.5-6 26.6-6c6.6 0 13.1.8 19.5 2.6 5.7 1.6 11.1 4.3 15.7 7.9 4.5 3.6 8.1 8.1 10.5 13.2 2.6 5.8 3.9 12 3.8 18.4.1 5.6-1 11.2-3.3 16.4-2.1 4.8-5.2 9.1-9.1 12.6 5.8 4 10.4 9.4 13.5 15.7 3.4 7 5.2 14.7 5.1 22.6m73.3 49.5c-8.2.1-16.2-1.8-23.5-5.4-7.2-3.8-13.6-9.1-18.5-15.6-5.5-7.4-9.6-15.9-12.1-24.8-3-10.7-4.5-21.8-4.3-33-.1-11 1.3-22 4.3-32.6 2.5-9 6.6-17.5 12.1-25 4.9-6.6 11.2-12.1 18.5-16 14.8-7.5 32.3-7.5 47.1 0 7.2 3.9 13.5 9.3 18.3 16 5.5 7.6 9.5 16 12 25 3 10.6 4.4 21.6 4.3 32.6.1 11.1-1.3 22.2-4.3 32.9-2.5 8.9-6.6 17.3-12 24.8-4.8 6.5-11.1 11.9-18.3 15.6-7.4 3.7-15.4 5.6-23.6 5.5m0-28.5c4 0 7.9-1.2 11.2-3.5 3.7-2.7 6.7-6.1 8.9-10.1 2.8-5 4.8-10.3 6-15.8 1.5-6.9 2.2-13.9 2.1-20.9 0-15.5-2.7-27.7-8-36.5s-12.1-13.1-20.3-13.1c-8.5 0-15.4 4.4-20.9 13.1-5.5 8.8-8.3 20.9-8.3 36.5-.1 7 .6 14 2.2 20.8 1.2 5.6 3.3 10.9 6.1 15.8 2.3 4 5.5 7.5 9.3 10.1 3.5 2.4 7.5 3.6 11.7 3.6" class="st1"/>
  <path d="m94.8 160.3 40.6-14.6-28.3 33.7-10.9-.4z" class="st1"/>
  </symbol>
  <symbol id="30" viewBox="0 0 475 475">
    <circle cx="237.5" cy="237.5" r="207" fill="#fff" stroke="#f06b72" stroke-miterlimit="10" stroke-width="61"/>
  <path d="M198.9 380.6v-41.3h7.7v21.1l9.2-9.3h10.7L212 365.4l14.4 15.2h-10.8l-8.9-9.9v9.9zm67 0v-18.3c.1-1.2-.4-2.4-1.3-3.2-.9-.7-2-1.1-3.2-1.1-.7 0-1.5.1-2.2.4-.6.2-1.2.6-1.7 1s-.9.8-1.2 1.3c-.3.4-.4.9-.4 1.3v18.5h-7.6v-18.3c.1-1.2-.4-2.4-1.3-3.2-.9-.7-2-1-3.2-1-.7 0-1.4.1-2 .4s-1.2.6-1.8 1c-.5.4-.9.8-1.3 1.3-.3.4-.5.8-.5 1.3v18.6h-7.7V351h7.7v1.1c.9-.5 1.9-.8 2.9-1.1 2.7-.7 5.6-.5 8.3.4 1.5.6 2.8 1.5 3.8 2.6 1.1-.9 2.4-1.7 3.8-2.4 1.6-.7 3.4-1.1 5.2-1.1 1.5 0 3 .2 4.4.7 1.3.4 2.6 1.1 3.6 2.1 1.1 1 1.9 2.1 2.5 3.5.6 1.5 1 3.1.9 4.8v19zm-39.4-127.1c.1 8.3-1.6 16.4-5.1 23.9-3.2 6.9-8 13-13.8 17.9-6 5-12.8 8.8-20.3 11.2-7.8 2.7-16 3.9-24.2 3.9-10.6.1-21-2.2-30.6-6.8-9.2-4.5-18.9-11.9-29-21.9l27.7-23.5c5.4 7.2 10.7 12.2 16.2 15.1 4.7 2.8 10.2 4.3 15.7 4.4 8.9 0 15.8-2.3 20.9-7 5-4.4 7.6-10.6 7.6-17.2 0-7.3-3.2-13.3-9.7-17.8s-15.5-6.8-26.9-6.7h-14.7v-34.3h15.1c8.3 0 15.2-1.6 20.7-4.7 5.2-2.7 8.3-8.1 8.1-13.8 0-4.7-2.1-8.5-6.2-11.7-4.2-3-9.3-4.6-15.7-4.6-5.7-.1-11.1 1.5-15.9 4.4q-7.05 4.35-14.7 13.5l-26.9-22.2c9-9.6 18-16.7 26.8-21.3s19-6.9 30.7-6.9c7.6 0 15.1.9 22.5 3 6.6 1.8 12.8 5 18.1 9.1 5.2 4.2 9.3 9.3 12.1 15.2 3 6.7 4.5 13.8 4.4 21.2.1 6.5-1.2 12.9-3.8 18.9-2.4 5.5-6 10.5-10.5 14.5 6.7 4.6 12 10.8 15.6 18.1 3.8 8.1 5.9 16.9 5.8 26.1m78 58.9c-9.5.1-18.8-2-27.3-6.3-8.4-4.3-15.7-10.5-21.4-18.1-6-7.9-10.7-17.4-14-28.7s-5-24-5-38.1c-.1-12.8 1.5-25.5 5-37.7 3.3-11.3 8-21 14-29 5.7-7.6 13-14 21.4-18.5 17.1-8.7 37.4-8.7 54.5 0 8.4 4.5 15.6 10.8 21.2 18.5 5.9 8 10.6 17.6 13.9 29 3.4 12.3 5.1 25 5 37.7 0 14.1-1.7 26.9-5 38.1-3.3 11.3-8 20.8-13.9 28.7a61.56 61.56 0 0 1-21.2 18.1c-8.4 4.3-17.7 6.5-27.2 6.3m0-33c4.7 0 9.2-1.4 13-4.1 4.3-3.1 7.8-7.1 10.4-11.7 3.2-5.7 5.6-11.9 6.9-18.3 1.7-7.9 2.6-16 2.5-24.1 0-18-3.1-32.1-9.3-42.2s-14-15.2-23.5-15.2c-9.8 0-17.9 5.1-24.2 15.2-6.4 10.1-9.6 24.2-9.6 42.2-.1 8.1.7 16.2 2.5 24.1 1.4 6.4 3.8 12.6 7.1 18.3 2.7 4.6 6.3 8.6 10.7 11.7 4 2.7 8.7 4.2 13.5 4.1" class="st1"/>
  </symbol>
  <symbol id="40" viewBox="0 0 475 475">
    <circle cx="237.5" cy="237.5" r="207" fill="#fff" stroke="#f06b72" stroke-miterlimit="10" stroke-width="61"/>
  <path d="M198.95 380.61v-41.3h7.73v21.06l9.2-9.26h10.68l-14.57 14.28 14.4 15.22h-10.8l-8.91-9.85v9.85Zm66.9 0v-18.29a3.79 3.79 0 0 0-1.3-3.16 5.24 5.24 0 0 0-3.19-1.09 6 6 0 0 0-2.18.38 6.5 6.5 0 0 0-1.74 1 5 5 0 0 0-1.18 1.33 2.65 2.65 0 0 0-.44 1.33v18.53h-7.61v-18.32a3.86 3.86 0 0 0-1.3-3.22 5 5 0 0 0-3.19-1 5.3 5.3 0 0 0-2 .38 7.7 7.7 0 0 0-1.77 1 5.8 5.8 0 0 0-1.3 1.3 2.3 2.3 0 0 0-.5 1.3v18.58h-7.65v-29.61h7.73v1.06a15 15 0 0 1 2.86-1.06 14.3 14.3 0 0 1 8.29.44 9.8 9.8 0 0 1 3.83 2.63 17.6 17.6 0 0 1 3.75-2.36 12.6 12.6 0 0 1 5.22-1.12 14.1 14.1 0 0 1 4.43.68 9.9 9.9 0 0 1 3.6 2.06 10.1 10.1 0 0 1 2.45 3.45 11.7 11.7 0 0 1 .92 4.78v19Zm-94.74-70.26v-44.28H95.65v-24.63l81.75-114.23h28.3v104h13.89v34.85h-13.9v44.28Zm0-79.12v-24.9q0-1.83-.13-3.54c-.09-1.13-.13-2.44-.13-3.93v-6.16q-9.17 11.53-17.16 21.48t-13.49 17Zm133.39 81.21a59 59 0 0 1-27.25-6.29 62.7 62.7 0 0 1-21.35-18.08q-9-11.79-14-28.69t-5-38.12a134.2 134.2 0 0 1 5-37.73q5-17 14-29a65 65 0 0 1 21.35-18.47 60 60 0 0 1 54.5 0 63.8 63.8 0 0 1 21.22 18.47q8.9 11.93 13.89 29a134.3 134.3 0 0 1 5 37.73q0 21.22-5 38.12t-13.89 28.69a61.56 61.56 0 0 1-21.22 18.08 59 59 0 0 1-27.25 6.29m0-33a22.36 22.36 0 0 0 13-4.06 35.8 35.8 0 0 0 10.35-11.66 65.4 65.4 0 0 0 6.94-18.34 107.2 107.2 0 0 0 2.49-24.1q0-27-9.3-42.18t-23.48-15.21q-14.68 0-24.23 15.2t-9.56 42.18a107 107 0 0 0 2.49 24.1 62.6 62.6 0 0 0 7.07 18.34 35.66 35.66 0 0 0 10.74 11.66 24 24 0 0 0 13.49 4.06Z" class="cls-2"/>
  </symbol>
  <symbol id="50" viewBox="0 0 475 475">
    <circle cx="237.5" cy="237.5" r="207" fill="#fff" stroke="#f06b72" stroke-miterlimit="10" stroke-width="61"/>
  <path d="M198.95 380.61v-41.3h7.73v21.06l9.2-9.26h10.68l-14.57 14.28 14.4 15.22h-10.8l-8.91-9.85v9.85Zm66.9 0v-18.29a3.79 3.79 0 0 0-1.3-3.16 5.24 5.24 0 0 0-3.19-1.09 6 6 0 0 0-2.18.38 6.5 6.5 0 0 0-1.74 1 5 5 0 0 0-1.18 1.33 2.65 2.65 0 0 0-.44 1.33v18.53h-7.61v-18.32a3.86 3.86 0 0 0-1.3-3.22 5 5 0 0 0-3.19-1 5.3 5.3 0 0 0-2 .38 7.7 7.7 0 0 0-1.77 1 5.8 5.8 0 0 0-1.3 1.3 2.3 2.3 0 0 0-.5 1.3v18.58h-7.65v-29.61h7.73v1.06a15 15 0 0 1 2.86-1.06 14.3 14.3 0 0 1 8.29.44 9.8 9.8 0 0 1 3.83 2.63 17.6 17.6 0 0 1 3.75-2.36 12.6 12.6 0 0 1 5.22-1.12 14.1 14.1 0 0 1 4.43.68 9.9 9.9 0 0 1 3.6 2.06 10.1 10.1 0 0 1 2.45 3.45 11.7 11.7 0 0 1 .92 4.78v19Zm-44.96-138.65a67.2 67.2 0 0 1-4.85 24.5 76 76 0 0 1-13.54 22.4 72.4 72.4 0 0 1-20.57 16.38 54.1 54.1 0 0 1-26.07 6.42 67.66 67.66 0 0 1-31.13-7.16q-14.15-7.2-29.08-21.61l27-24.1q7.86 10.48 16.64 14.41a40.8 40.8 0 0 0 16.64 3.93 24.1 24.1 0 0 0 11.92-3.14 34.4 34.4 0 0 0 9.69-8 41.5 41.5 0 0 0 6.55-10.87 31.4 31.4 0 0 0 2.49-12.05q0-13.88-10.35-22.14t-27.12-8.25a72 72 0 0 0-7.6.52q-4.72.53-10.35 1.57t-11.79 2.36q-6.16 1.31-12.18 3.14l9.17-93.27h91.14v34.5h-61v1.83a36 36 0 0 0-.26 3.93v2.88a26 26 0 0 1-.26 3.27q-.26 2-.52 5.11h7.04a88.9 88.9 0 0 1 26.07 3.8 62.1 62.1 0 0 1 21.93 11.7 55.7 55.7 0 0 1 14.93 19.78q5.46 11.92 5.46 28.16m84.88 70.48a59 59 0 0 1-27.27-6.29 62.7 62.7 0 0 1-21.35-18.08q-9-11.79-14-28.69t-5-38.12a134.2 134.2 0 0 1 5-37.73q5-17 14-29a65 65 0 0 1 21.35-18.41 60 60 0 0 1 54.5 0 63.8 63.8 0 0 1 21.22 18.47q8.9 11.93 13.89 29a134.3 134.3 0 0 1 5 37.73q0 21.22-5 38.12t-13.89 28.69A61.55 61.55 0 0 1 333 306.21a59 59 0 0 1-27.23 6.23m0-33a22.36 22.36 0 0 0 13-4.06 35.8 35.8 0 0 0 10.35-11.66 65.4 65.4 0 0 0 6.94-18.34 107 107 0 0 0 2.49-24.1q0-27-9.3-42.18t-23.45-15.2q-14.68 0-24.24 15.2T272 221.28a107 107 0 0 0 2.49 24.1 62.7 62.7 0 0 0 7.01 18.33 35.65 35.65 0 0 0 10.74 11.66 24 24 0 0 0 13.53 4.06Z" class="cls-2"/>
  </symbol>
  <symbol id="60" viewBox="0 0 475 475">
    <circle cx="237.5" cy="237.5" r="207" fill="#fff" stroke="#f06b72" stroke-miterlimit="10" stroke-width="61"/>
  <path d="M198.95 380.61v-41.3h7.73v21.06l9.2-9.26h10.68l-14.57 14.28 14.4 15.22h-10.8l-8.91-9.85v9.85Zm66.9 0v-18.29a3.79 3.79 0 0 0-1.3-3.16 5.24 5.24 0 0 0-3.19-1.09 6 6 0 0 0-2.18.38 6.5 6.5 0 0 0-1.74 1 5 5 0 0 0-1.18 1.33 2.65 2.65 0 0 0-.44 1.33v18.53h-7.61v-18.32a3.86 3.86 0 0 0-1.3-3.22 5 5 0 0 0-3.19-1 5.3 5.3 0 0 0-2 .38 7.7 7.7 0 0 0-1.77 1 5.8 5.8 0 0 0-1.3 1.3 2.3 2.3 0 0 0-.5 1.3v18.58h-7.65v-29.61h7.73v1.06a15 15 0 0 1 2.86-1.06 14.3 14.3 0 0 1 8.29.44 9.8 9.8 0 0 1 3.83 2.63 17.6 17.6 0 0 1 3.75-2.36 12.6 12.6 0 0 1 5.22-1.12 14.1 14.1 0 0 1 4.43.68 9.9 9.9 0 0 1 3.6 2.06 10.1 10.1 0 0 1 2.45 3.45 11.7 11.7 0 0 1 .92 4.78v19ZM95.65 240.13a119.8 119.8 0 0 1 5.5-35.24 106.3 106.3 0 0 1 17.55-33.67q12-15.72 31.31-27.51t46.77-16.77l9.72 30.92a137.4 137.4 0 0 0-21.88 7.07 118 118 0 0 0-17.55 9.17 96.4 96.4 0 0 0-13.62 10.48 74.3 74.3 0 0 0-9.83 11 67 67 0 0 1 9.69-1.57q5.5-.52 10.74-.52a54.7 54.7 0 0 1 20.57 4.06 53.5 53.5 0 0 1 17.69 11.53 57.74 57.74 0 0 1 17 42.05 66.4 66.4 0 0 1-4.32 24.24 57.4 57.4 0 0 1-12.31 19.39 55.6 55.6 0 0 1-19.26 12.84 66.2 66.2 0 0 1-25.15 4.59 59.2 59.2 0 0 1-26.59-5.76 58.2 58.2 0 0 1-19.65-15.59 69.3 69.3 0 0 1-12.18-22.92 90.5 90.5 0 0 1-4.2-27.79m35.11 3.37a44.6 44.6 0 0 0 2 13.36 39.8 39.8 0 0 0 5.5 11.27 26 26 0 0 0 8.78 7.86 24.56 24.56 0 0 0 12.05 2.88q12 0 18.86-7.47t6.81-19.26q0-11.53-6.68-18.08a22.83 22.83 0 0 0-16.64-6.55 42.6 42.6 0 0 0-30.13 12.05 22 22 0 0 0-.55 3.94m173.44 68.94a59 59 0 0 1-27.25-6.29 62.7 62.7 0 0 1-21.35-18.08q-9-11.79-14-28.69t-5-38.12a134.2 134.2 0 0 1 5-37.73q5-17 14-29a65 65 0 0 1 21.35-18.47 60 60 0 0 1 54.5 0 63.8 63.8 0 0 1 21.22 18.47q8.9 11.93 13.89 29a134.3 134.3 0 0 1 5 37.73q0 21.22-5 38.12t-13.89 28.69a61.55 61.55 0 0 1-21.17 18.08 59 59 0 0 1-27.3 6.29m0-33a22.36 22.36 0 0 0 13-4.06 35.8 35.8 0 0 0 10.3-11.67 65.4 65.4 0 0 0 7-18.34 107 107 0 0 0 2.49-24.1q0-27-9.3-42.18t-23.45-15.2q-14.68 0-24.24 15.2t-9.56 42.18a107 107 0 0 0 2.49 24.1 62.7 62.7 0 0 0 7.07 18.34 35.65 35.65 0 0 0 10.74 11.66 24 24 0 0 0 13.46 4.06Z" class="cls-2"/>
  </symbol>
  <symbol id="70" viewBox="0 0 475 475">
    <circle cx="237.5" cy="237.5" r="207" fill="#fff" stroke="#f06b72" stroke-miterlimit="10" stroke-width="61"/>
  <path d="M198.95 380.61v-41.3h7.73v21.06l9.2-9.26h10.68l-14.57 14.28 14.4 15.22h-10.8l-8.91-9.85v9.85Zm66.9 0v-18.29a3.79 3.79 0 0 0-1.3-3.16 5.24 5.24 0 0 0-3.19-1.09 6 6 0 0 0-2.18.38 6.5 6.5 0 0 0-1.74 1 5 5 0 0 0-1.18 1.33 2.65 2.65 0 0 0-.44 1.33v18.53h-7.61v-18.32a3.86 3.86 0 0 0-1.3-3.22 5 5 0 0 0-3.19-1 5.3 5.3 0 0 0-2 .38 7.7 7.7 0 0 0-1.77 1 5.8 5.8 0 0 0-1.3 1.3 2.3 2.3 0 0 0-.5 1.3v18.58h-7.65v-29.61h7.73v1.06a15 15 0 0 1 2.86-1.06 14.3 14.3 0 0 1 8.29.44 9.8 9.8 0 0 1 3.83 2.63 17.6 17.6 0 0 1 3.75-2.36 12.6 12.6 0 0 1 5.22-1.12 14.1 14.1 0 0 1 4.43.68 9.9 9.9 0 0 1 3.6 2.06 10.1 10.1 0 0 1 2.45 3.45 11.7 11.7 0 0 1 .92 4.78v19Zm-42.68-225.04-26.52 49.21q-5.87 11.22-11.86 23.59t-10.71 24.48a216 216 0 0 0-7.65 23.21 78.3 78.3 0 0 0-2.93 19.76v14.79h-33.15v-14.54a133.4 133.4 0 0 1 1.91-22.95 141 141 0 0 1 6-22.57 242 242 0 0 1 10.24-24.35q6.12-12.75 14.54-28.05v.25a31 31 0 0 1 1.91-3.7q1.15-1.91 3.06-5.35t5-9.05q3.06-5.61 7.65-14.53h-65.61v-33.66h108.12Zm82.62 156.82a57.45 57.45 0 0 1-26.52-6.12 61 61 0 0 1-20.77-17.59q-8.8-11.48-13.64-27.92t-4.84-37.1a130.6 130.6 0 0 1 4.84-36.72q4.84-16.57 13.64-28.18a63.3 63.3 0 0 1 20.78-18 58.35 58.35 0 0 1 53 0 62.1 62.1 0 0 1 20.65 18q8.67 11.61 13.52 28.18a130.8 130.8 0 0 1 4.84 36.72q0 20.66-4.84 37.1t-13.52 27.92a59.9 59.9 0 0 1-20.65 17.59 57.5 57.5 0 0 1-26.49 6.12m0-32.13a21.76 21.76 0 0 0 12.62-4 34.9 34.9 0 0 0 10.09-11.3 63.7 63.7 0 0 0 6.76-17.85 104.2 104.2 0 0 0 2.42-23.46q0-26.26-9.05-41.05t-22.82-14.79q-14.28 0-23.59 14.79t-9.31 41.05a104 104 0 0 0 2.42 23.46 61 61 0 0 0 6.89 17.85 34.7 34.7 0 0 0 10.45 11.35 23.35 23.35 0 0 0 13.12 3.95" class="cls-2"/>
  </symbol>
  <symbol id="80" viewBox="0 0 475 475">
    <circle cx="237.5" cy="237.5" r="207" fill="#fff" stroke="#f06b72" stroke-miterlimit="10" stroke-width="61"/>
  <path d="M198.95 380.61v-41.3h7.73v21.06l9.2-9.26h10.68l-14.57 14.28 14.4 15.22h-10.8l-8.91-9.85v9.85Zm66.9 0v-18.29a3.79 3.79 0 0 0-1.3-3.16 5.24 5.24 0 0 0-3.19-1.09 6 6 0 0 0-2.18.38 6.5 6.5 0 0 0-1.74 1 5 5 0 0 0-1.18 1.33 2.65 2.65 0 0 0-.44 1.33v18.53h-7.61v-18.32a3.86 3.86 0 0 0-1.3-3.22 5 5 0 0 0-3.19-1 5.3 5.3 0 0 0-2 .38 7.7 7.7 0 0 0-1.77 1 5.8 5.8 0 0 0-1.3 1.3 2.3 2.3 0 0 0-.5 1.3v18.58h-7.65v-29.61h7.73v1.06a15 15 0 0 1 2.86-1.06 14.3 14.3 0 0 1 8.29.44 9.8 9.8 0 0 1 3.83 2.63 17.6 17.6 0 0 1 3.75-2.36 12.6 12.6 0 0 1 5.22-1.12 14.1 14.1 0 0 1 4.43.68 9.9 9.9 0 0 1 3.6 2.06 10.1 10.1 0 0 1 2.45 3.45 11.7 11.7 0 0 1 .92 4.78v19ZM95.65 254.28a62.8 62.8 0 0 1 5.89-27q5.89-12.58 15.33-19.13a45.3 45.3 0 0 1-10.48-14.54 44.8 44.8 0 0 1-3.93-19 48 48 0 0 1 4.45-21.22 43.1 43.1 0 0 1 12.31-15.33 53.3 53.3 0 0 1 18.34-9.17 81.3 81.3 0 0 1 22.53-3h1a57.4 57.4 0 0 1 17 2.36h-.26q17.29 4.46 27.9 16t10.61 30.39a44.8 44.8 0 0 1-3.93 19 45.3 45.3 0 0 1-10.48 14.54q9.57 6.54 15.57 19.11a61.66 61.66 0 0 1 6 27 55.73 55.73 0 0 1-32.62 51.48 63 63 0 0 1-20.83 5.63h-21.21a61.7 61.7 0 0 1-20.7-5.63 57.2 57.2 0 0 1-16.9-12.05 55.62 55.62 0 0 1-15.59-39.43Zm92 0q0-9.43-7.47-17t-20.83-8.91q-13.36 1.05-20.7 8.65t-7.34 17.29a18.75 18.75 0 0 0 2.62 9.69 31.3 31.3 0 0 0 6.55 7.86 28.5 28.5 0 0 0 8.91 5.24 27.9 27.9 0 0 0 9.69 1.83 31.7 31.7 0 0 0 10.09-1.7 30.8 30.8 0 0 0 9.3-5 25.1 25.1 0 0 0 6.68-7.86 20.8 20.8 0 0 0 2.47-10.09Zm-28.82-94.84a30.1 30.1 0 0 0-15.07 4.58q-6.16 4.06-6.16 10.87 0 7.6 6.55 12.31a33 33 0 0 0 16 5.76 33.3 33.3 0 0 0 14.8-6q6.42-4.72 6.42-12.05 0-6.81-6.55-11.14a27.9 27.9 0 0 0-15.72-4.32Zm149.57 153a59 59 0 0 1-27.25-6.29 62.7 62.7 0 0 1-21.35-18.08q-9-11.79-14-28.69t-5-38.12a134.2 134.2 0 0 1 5-37.73q5-17 14-29a65 65 0 0 1 21.35-18.47 60 60 0 0 1 54.5 0 63.8 63.8 0 0 1 21.22 18.47q8.9 11.93 13.89 29a134.3 134.3 0 0 1 5 37.73q0 21.22-5 38.12t-13.89 28.69a61.56 61.56 0 0 1-21.22 18.08 59 59 0 0 1-27.25 6.29m0-33a22.36 22.36 0 0 0 13-4.06 35.8 35.8 0 0 0 10.35-11.66 65.4 65.4 0 0 0 6.94-18.34 107.2 107.2 0 0 0 2.49-24.1q0-27-9.3-42.18t-23.45-15.2q-14.68 0-24.23 15.2t-9.56 42.18a107 107 0 0 0 2.49 24.1 62.6 62.6 0 0 0 7.07 18.34 35.66 35.66 0 0 0 10.74 11.66 24 24 0 0 0 13.46 4.05Z" class="cls-2"/>
  </symbol>
  <symbol id="90" viewBox="0 0 475 475">
    <circle cx="237.5" cy="237.5" r="207" fill="#fff" stroke="#f06b72" stroke-miterlimit="10" stroke-width="61"/>
  <path d="M198.95 380.61v-41.3h7.73v21.06l9.2-9.26h10.68l-14.57 14.28 14.4 15.22h-10.8l-8.91-9.85v9.85Zm66.9 0v-18.29a3.79 3.79 0 0 0-1.3-3.16 5.24 5.24 0 0 0-3.19-1.09 6 6 0 0 0-2.18.38 6.5 6.5 0 0 0-1.74 1 5 5 0 0 0-1.18 1.33 2.65 2.65 0 0 0-.44 1.33v18.53h-7.61v-18.32a3.86 3.86 0 0 0-1.3-3.22 5 5 0 0 0-3.19-1 5.3 5.3 0 0 0-2 .38 7.7 7.7 0 0 0-1.77 1 5.8 5.8 0 0 0-1.3 1.3 2.3 2.3 0 0 0-.5 1.3v18.58h-7.65v-29.61h7.73v1.06a15 15 0 0 1 2.86-1.06 14.3 14.3 0 0 1 8.29.44 9.8 9.8 0 0 1 3.83 2.63 17.6 17.6 0 0 1 3.75-2.36 12.6 12.6 0 0 1 5.22-1.12 14.1 14.1 0 0 1 4.43.68 9.9 9.9 0 0 1 3.6 2.06 10.1 10.1 0 0 1 2.45 3.45 11.7 11.7 0 0 1 .92 4.78v19Zm-46.53-181.88a122.4 122.4 0 0 1-5.5 35.5 107.2 107.2 0 0 1-17.55 34.06q-12.05 15.85-31.31 28t-46.78 17.21l-9.43-30.65a101.6 101.6 0 0 0 21.48-7.21 114 114 0 0 0 31-21.35 104 104 0 0 0 10.09-11.27 76 76 0 0 1-9.43 1.57 102 102 0 0 1-10.74.52 55.9 55.9 0 0 1-20.7-3.93 53.4 53.4 0 0 1-17.69-11.4 56.6 56.6 0 0 1-12.44-18.21 59.3 59.3 0 0 1-4.67-24.07 66.4 66.4 0 0 1 4.32-24.23 57.4 57.4 0 0 1 12.31-19.39 55.6 55.6 0 0 1 19.22-12.87 66.2 66.2 0 0 1 25.15-4.58 59.3 59.3 0 0 1 26.59 5.76 58.35 58.35 0 0 1 19.65 15.59 69.5 69.5 0 0 1 12.18 22.92 91.6 91.6 0 0 1 4.25 28.03m-35.11-3.41a47.2 47.2 0 0 0-2-13.62 35.8 35.8 0 0 0-5.63-11.4 29.6 29.6 0 0 0-8.91-7.86 23.27 23.27 0 0 0-11.79-3q-12.05 0-18.86 7.73t-6.81 19.52q0 11.53 6.68 17.82a23.33 23.33 0 0 0 16.64 6.29 43.64 43.64 0 0 0 30.13-11.53q.26-1.31.39-2.36a14 14 0 0 0 .16-1.58ZM304.2 312.44a59 59 0 0 1-27.25-6.29 62.7 62.7 0 0 1-21.35-18.08q-9-11.79-14-28.69t-5-38.12a134.2 134.2 0 0 1 5-37.73q5-17 14-29a65 65 0 0 1 21.35-18.47 60 60 0 0 1 54.5 0 63.8 63.8 0 0 1 21.22 18.47q8.9 11.93 13.89 29a134.3 134.3 0 0 1 5 37.73q0 21.22-5 38.12t-13.89 28.69a61.55 61.55 0 0 1-21.17 18.08 59 59 0 0 1-27.3 6.29m0-33a22.36 22.36 0 0 0 13-4.06 35.8 35.8 0 0 0 10.3-11.67 65.4 65.4 0 0 0 7-18.34 107 107 0 0 0 2.49-24.1q0-27-9.3-42.18t-23.45-15.2q-14.68 0-24.24 15.2t-9.56 42.18a107 107 0 0 0 2.49 24.1 62.7 62.7 0 0 0 7.07 18.34 35.65 35.65 0 0 0 10.74 11.66 24 24 0 0 0 13.46 4.06Z" class="cls-2"/>
  </symbol>
  <symbol id="bil" viewBox="0 0 48 48">
    <circle cx="24" cy="24" r="24" fill="#000" fill-opacity="0.5" />
  <g transform="translate(4.8, 13.2) scale(0.8)">
    <path fill="#fff" d="M17.306 10.306c1.172 0 2.124-.96 2.124-2.14V5.45c0-1.18-.954-2.137-2.124-2.137h-3.86c-1.172 0-2.124.96-2.124 2.137v2.717c0 1.18.954 2.14 2.124 2.14h3.86zm-4.592-2.14V5.45c0-.406.329-.739.734-.739h3.86c.403 0 .734.331.734.74v2.716a.74.74 0 0 1-.734.74h-3.86a.737.737 0 0 1-.734-.74zm24.641 11.145c-1.153 0-2.09.943-2.09 2.103s.937 2.103 2.09 2.103 2.09-.943 2.09-2.103-.937-2.103-2.09-2.103m0 2.805a.702.702 0 0 1 0-1.404.702.702 0 0 1 0 1.404m-26.848-2.805a2.1 2.1 0 0 0-2.089 2.103c0 1.16.937 2.103 2.09 2.103a2.1 2.1 0 0 0 2.089-2.103 2.1 2.1 0 0 0-2.09-2.103m0 2.805a.702.702 0 0 1 0-1.404.702.702 0 0 1 0 1.404m11.92-8.235a.7.7 0 0 0 .696-.7c0-.387-.312-.7-.696-.7h-.698a.7.7 0 0 0-.696.7c0 .386.312.7.696.7zM12.018 12.48a.7.7 0 0 0-.696.7c0 .387.312.701.696.701h.698a.7.7 0 0 0 .696-.7c0-.387-.312-.7-.696-.7h-.698z"/>
    <path fill="#fff" d="M.696 14.325a.7.7 0 0 0 .696-.7v-.62c0-.925.156-1.835.453-2.697h5.739c1.171 0 2.125-.96 2.125-2.14V5.451c0-1.18-.954-2.138-2.125-2.138h-.566l.072-.086A5.13 5.13 0 0 1 11.015 1.4H21.5a.7.7 0 0 0 .696-.7.7.7 0 0 0-.696-.701H11.015c-1.923 0-3.74.845-4.986 2.319L2.29 6.744A9.7 9.7 0 0 0 0 13.005v.62c0 .387.312.7.696.7m5.136-9.613h1.752c.405 0 .734.331.734.74v2.716a.74.74 0 0 1-.734.739H2.476c.25-.44.54-.862.871-1.253l2.485-2.94z"/>
    <path fill="#fff" d="M43.99 8.905h-7.174a4.6 4.6 0 0 1-3.26-1.345L27.84 1.893A6.5 6.5 0 0 0 23.247 0h-1.91a.7.7 0 0 0-.695.7c0 .387.312.7.696.7h1.91a5.1 5.1 0 0 1 3.616 1.492l.425.42H23.16c-1.171 0-2.123.96-2.123 2.137v2.717c0 1.18.954 2.14 2.123 2.14h20.832a2.12 2.12 0 0 1 2.11 2.124v.027h-1.386c-.929 0-1.686.762-1.686 1.697v.785c0 .935.757 1.697 1.686 1.697h1.386v1.43h-5.13a4.885 4.885 0 0 0-7.23 0h-19.62a4.884 4.884 0 0 0-7.228 0H1.392v-1.653c0-.387-.312-.7-.696-.7a.7.7 0 0 0-.696.7v3.223c0 1.709 1.382 3.1 3.08 3.1h2.693c.576 2.086 2.48 3.623 4.735 3.623 2.71 0 4.915-2.218 4.915-4.947 0-.69-.141-1.349-.398-1.947H32.84a5 5 0 0 0-.396 1.868H15.41c-.385 0-2.897.314-.41.7 0 .387.025.701.41.701h17.212c.576 2.088 2.48 3.623 4.735 3.623s4.158-1.537 4.736-3.623h2.322c1.698 0 3.08-1.391 3.08-3.1v-7.208c0-1.943-1.572-3.525-3.502-3.525zm-20.832 0a.737.737 0 0 1-.734-.739V5.45c0-.406.328-.739.734-.739h5.54l3.878 3.845q.186.181.383.348zv.002zM1.392 19.638v-.17h4.6a5 5 0 0 0-.397 1.87H3.08a1.695 1.695 0 0 1-1.688-1.7m9.116 5.322c-1.942 0-3.523-1.59-3.523-3.546s1.581-3.546 3.523-3.546 3.524 1.591 3.524 3.546-1.581 3.546-3.524 3.546m34.207-9.723a.296.296 0 0 1-.294-.296v-.785c0-.163.132-.296.294-.296h1.386v1.378h-1.386zm-7.36 9.723c-1.942 0-3.523-1.59-3.523-3.546s1.581-3.546 3.523-3.546 3.524 1.591 3.524 3.546-1.581 3.546-3.523 3.546zm7.056-3.623h-2.145a4.9 4.9 0 0 0-.395-1.868h4.228v.17c0 .936-.757 1.698-1.688 1.698"/>
  </g>
  </symbol>
  <symbol id="bus" viewBox="0 0 55 55">
    <circle cx="27.5" cy="27.5" r="27.5" fill="#000" fill-opacity="0.5" />
  <g transform="translate(8.25, 15.75) scale(0.7)">
    <path fill="#fff" d="M.805 16.119a.81.81 0 0 0 .805-.81v-2.15h4.567a2.546 2.546 0 0 0 2.534-2.551V7.125a2.546 2.546 0 0 0-2.534-2.551H1.898c.644-1.722 2.296-2.952 4.23-2.952h30.567a.807.807 0 0 0 .805-.81.81.81 0 0 0-.805-.81H6.13C2.749.002 0 2.769 0 6.171v9.14c0 .448.361.81.805.81zm6.297-8.994v3.483c0 .512-.415.93-.924.93H1.612V6.195h4.566c.509 0 .924.417.924.93M41.21 26.55a2.43 2.43 0 0 0-2.42 2.436 2.43 2.43 0 0 0 2.42 2.436 2.43 2.43 0 0 0 2.42-2.436 2.43 2.43 0 0 0-2.42-2.436m0 3.248a.813.813 0 0 1-.81-.814c0-.449.364-.814.81-.814.445 0 .808.365.808.814a.813.813 0 0 1-.809.814zM10.528 26.55a2.43 2.43 0 0 0-2.42 2.436 2.43 2.43 0 0 0 2.42 2.436 2.43 2.43 0 0 0 2.42-2.436 2.43 2.43 0 0 0-2.42-2.436m0 3.248a.813.813 0 0 1-.81-.814c0-.449.364-.814.81-.814.445 0 .808.365.808.814a.813.813 0 0 1-.808.814"/>
    <path fill="#fff" d="M52.507 10.822h-.77C51.733 4.852 46.908 0 40.978 0h-4.655a.807.807 0 0 0-.804.81c0 .446.36.81.804.81h4.655a9.1 9.1 0 0 1 6.704 2.952H38.92a2.547 2.547 0 0 0-2.535 2.551v4.153c0 3.242 2.621 5.878 5.84 5.878h7.9v1.564h-1.64a1.96 1.96 0 0 0-1.955 1.965v.908c0 1.083.876 1.967 1.954 1.967h1.64v1.547h-4.73a5.66 5.66 0 0 0-4.187-1.851 5.66 5.66 0 0 0-4.187 1.85h-3.058V7.125a2.547 2.547 0 0 0-2.535-2.552H23.7a2.546 2.546 0 0 0-2.535 2.551v17.982h-6.456a5.66 5.66 0 0 0-8.37 0H1.611v-6.39a.81.81 0 0 0-.805-.813.81.81 0 0 0-.805.813v8.208c0 1.98 1.6 3.59 3.567 3.59h1.48c.667 2.417 2.871 4.197 5.482 4.197 3.137 0 5.691-2.57 5.691-5.728 0-.8-.164-1.563-.46-2.255h20.22a5.7 5.7 0 0 0-.458 2.164h-17.03a.81.81 0 0 0-.805.81c0 .447.36.81.804.81H35.73c.667 2.417 2.87 4.197 5.482 4.197s4.816-1.78 5.483-4.196h1.48c1.966 0 3.567-1.61 3.567-3.59V12.437h.77c.486 0 .881.398.881.887v2.661c0 .448.362.81.805.81a.81.81 0 0 0 .805-.81v-2.661a2.504 2.504 0 0 0-2.493-2.51l-.004.007zM1.612 26.927v-.196h3.685a5.8 5.8 0 0 0-.459 2.164H3.565a1.964 1.964 0 0 1-1.955-1.968zm8.915 6.165c-2.25 0-4.079-1.841-4.079-4.106s1.83-4.107 4.08-4.107 4.079 1.842 4.079 4.107c0 2.264-1.831 4.106-4.08 4.106M32.355 7.125v17.982h-3.98V6.196h3.056c.509 0 .924.417.924.93zm-9.574 0c0-.512.415-.93.924-.93h3.058v18.912h-3.98V7.125zm19.445 8.41c-2.332 0-4.228-1.91-4.228-4.257V7.125c0-.512.415-.93.923-.93h9.96a9.2 9.2 0 0 1 1.246 4.634v4.707h-7.901zm6.261 6.404a.344.344 0 0 1-.342-.344v-.908c0-.19.153-.345.342-.345h1.64v1.596h-1.64zM41.21 33.092c-2.25 0-4.079-1.841-4.079-4.106s1.83-4.107 4.08-4.107 4.079 1.842 4.079 4.107c0 2.264-1.83 4.106-4.08 4.106m8.918-6.165a1.965 1.965 0 0 1-1.955 1.968H46.9a5.7 5.7 0 0 0-.46-2.164h3.686v.196z"/>
    <path fill="#fff" d="M13.232 4.574a2.546 2.546 0 0 0-2.535 2.551v3.483a2.546 2.546 0 0 0 2.535 2.551h3.525a2.546 2.546 0 0 0 2.535-2.551V7.125a2.546 2.546 0 0 0-2.535-2.551zm4.448 2.551v3.483c0 .512-.414.93-.923.93h-3.525a.93.93 0 0 1-.923-.93V7.125c0-.512.415-.93.923-.93h3.525c.509 0 .923.418.923.93m6.935 9.381h-.125a.806.806 0 0 0-.804.81c0 .448.36.81.804.81h.125a.807.807 0 0 0 .804-.81.81.81 0 0 0-.804-.81m5.907 1.622h.124a.81.81 0 0 0 .805-.81.81.81 0 0 0-.805-.81h-.124a.806.806 0 0 0-.805.81c0 .448.361.81.805.81"/>
  </g>
  </symbol>
  <symbol id="byzone" viewBox="0 0 34 34">
    <circle cx="17" cy="17" r="16.5" stroke="red" stroke-width="1" fill="white" />
    <path transform="translate(5.25, -1)" fill="#000" d="M1 26.5h21v-4.098L20.5 22v-5.5l-3-9-3 9V22h-2v-2L7 14.5l-6 6z"/>
  </symbol>
  <symbol id="landevej" viewBox="0 0 34 34">
    <circle cx="17" cy="17" r="17" fill="#007ac2" />
	<g transform="translate(5.5 0.5)">
		<rect width="16.867" height="6.133" x="3.066" y="15.467" fill="#fff" rx="1"/>
		<path fill="#fff" d="M6.133 9.333h10.733L18.4 17H4.6z"/>
		<path fill="#007ac2" d="M7 10.5h9l.866 4.967H6.133zm2.199 8.033h4.6v1.533h-4.6z"/>
		<rect width="4" height="3" x="8" y="20" fill="#fff" rx="1" transform="rotate(90 8 20)"/>
		<rect width="4" height="3" x="18" y="20" fill="#fff" rx="1" transform="rotate(90 18 20)"/>
		<circle cx="6.133" cy="18.533" r="1.533" fill="#007ac2"/>
		<circle cx="16.867" cy="18.533" r="1.533" fill="#007ac2"/>
	</g>
  </symbol>
  <symbol id="motorcykel" viewBox="0 0 48 48">
    <circle cx="24" cy="24" r="24" fill="#000" fill-opacity="0.5" />
  <g transform="translate(5, 11)">
    <mask id="a" width="38" height="26" x="0" y="0" fill="#fff" maskUnits="userSpaceOnUse" style="mask-type:luminance">
      <path d="M38 .317H0V25.22h38z"/>
    </mask>
    <g fill="#fff" mask="url(#a)">
      <path d="M33.981 16.758a.56.56 0 0 0-.15.777 2.5 2.5 0 0 1 .424 1.4 2.497 2.497 0 0 1-2.486 2.502 2.48 2.48 0 0 1-2.367-1.732.556.556 0 1 0-1.059.344 3.59 3.59 0 0 0 3.426 2.508c1.986 0 3.599-1.625 3.599-3.622a3.64 3.64 0 0 0-.615-2.028.55.55 0 0 0-.772-.149"/>
      <path d="m34.514 13.308.33-.258q.262-.207.492-.445l.006-.006a4.7 4.7 0 0 0 1.315-3.306 4.69 4.69 0 0 0-1.86-3.733L28.361.657a1.605 1.605 0 0 0-2.445.637l-2.02-.707a1.52 1.52 0 0 0-1.936.944 1.536 1.536 0 0 0 .938 1.95l1.902.665-.13.33a.395.395 0 0 1-.496.233L20.8 3.49a4.44 4.44 0 0 0-4.967 1.403l-.626.779a1.81 1.81 0 0 1-1.822.628l-3.648-.863a.33.33 0 0 1-.246-.237.34.34 0 0 1 .085-.332c.359-.364.484-.892.327-1.38a1.35 1.35 0 0 0-1.067-.926l-2.724-.451a5.42 5.42 0 0 0-3.738.74L.782 3.84c-.557.337-.85.949-.765 1.594a1.59 1.59 0 0 0 1.164 1.344l3.554.926a.555.555 0 0 0 .677-.402.56.56 0 0 0-.4-.682l-3.546-.924a.48.48 0 0 1-.346-.408.49.49 0 0 1 .238-.49l1.597-.99a4.3 4.3 0 0 1 2.973-.589l2.724.45c.125.02.172.112.19.164a.24.24 0 0 1-.058.247 1.45 1.45 0 0 0-.366 1.431c.146.515.545.897 1.064 1.019l3.648.862a2.93 2.93 0 0 0 2.943-1.016l.626-.779a3.33 3.33 0 0 1 3.724-1.052l3.379 1.22.007.001c.767.265 1.6-.122 1.895-.88l1.218-3.121a.497.497 0 0 1 .763-.215l6.437 4.903c.303.23.56.501.772.804h-2.868a1.6 1.6 0 0 0-1.593 1.603v.777c0 .61.353 1.174.896 1.443l2.593 1.271-5.671 4.435a4.3 4.3 0 0 0-.025-1.515 4.2 4.2 0 0 0-2.997-3.265L7.294 7.21a.56.56 0 0 0-.278 1.084l3.417.89-2.042 3.657a6.2 6.2 0 0 0-1.516-.187C3.438 12.654.64 15.47.64 18.93s2.798 6.275 6.235 6.275 6.234-2.816 6.234-6.275a6 6 0 0 0-.006-.274l1.072-.361c.146.526.516.957 1 1.188l-.462.293c-.482.307-.7.886-.54 1.437.16.553.648.923 1.22.923h2.064c.308 0 .557-.25.557-.56s-.25-.56-.557-.56h-2.064q-.118 0-.152-.115t.067-.178l3.401-2.166a2.64 2.64 0 0 0 1.223-2.238v-4.645l4.996 1.407a3.06 3.06 0 0 1 2.205 2.4 3.07 3.07 0 0 1-1.137 3.062l-2.234 1.748a3.4 3.4 0 0 1-2.091.723h-3.965a.56.56 0 0 0-.556.56c0 .31.249.56.556.56h3.965a4.53 4.53 0 0 0 2.773-.958l1.222-.957c.595 2.843 3.103 4.984 6.1 4.984 3.437 0 6.235-2.816 6.235-6.276a6.29 6.29 0 0 0-3.487-5.63v.01zM23.261 2.42a.412.412 0 0 1 .135-.8.4.4 0 0 1 .134.023l1.977.691-.299.766-1.945-.68zm-4.44 10h-1.934v-1.55l1.934.504v1.045zm-4.713 1.869v.49l-2.04.687a6 6 0 0 0-.803-.983l2.475-4.433 2.037.531v1.847a1.87 1.87 0 0 0-1.667 1.859zm0 1.671v1.181l-6.643 2.236a.553.553 0 0 1-.704-.355.563.563 0 0 1 .35-.709zm-1.485-6.2-.837 1.5-.936-.528.7-1.25 1.075.28-.002-.003zm-2.318 1.948.936.528-.848 1.52a6 6 0 0 0-.934-.533zM6.877 24.09c-2.824 0-5.122-2.312-5.122-5.155s2.298-5.155 5.122-5.155c1.67 0 3.152.808 4.088 2.055l-1.56.523a3.57 3.57 0 0 0-2.528-1.047c-1.985 0-3.598 1.626-3.598 3.622s1.615 3.624 3.598 3.624a3.57 3.57 0 0 0 2.183-.74.564.564 0 0 0 .105-.786.555.555 0 0 0-.78-.107 2.45 2.45 0 0 1-1.508.513 2.497 2.497 0 0 1-2.486-2.502 2.497 2.497 0 0 1 2.486-2.502c.462 0 .895.129 1.268.352l-1.387.468a1.67 1.67 0 0 0-.965.844c-.2.402-.23.858-.09 1.283a1.67 1.67 0 0 0 2.114 1.061l4.18-1.407c-.052 2.798-2.327 5.056-5.12 5.056m11.238-6.474-1.459.928h-.693a.75.75 0 0 1-.745-.747V14.29a.75.75 0 0 1 .745-.75h2.856v1.942h-1.113a.56.56 0 0 0-.556.56c0 .31.249.56.556.56h1.088a1.52 1.52 0 0 1-.68 1.014zm13.431-7.978v-.777c0-.266.216-.483.48-.483h3.39c.079.296.124.605.126.924a3.6 3.6 0 0 1-.752 2.23l-2.974-1.458a.49.49 0 0 1-.27-.434zm.714 8.94a.556.556 0 1 1-1.057.352l-.8-2.411.93-.73.925 2.785zm-.492 5.512c-2.654 0-4.841-2.04-5.095-4.647l2.803-2.19.677 2.037a1.673 1.673 0 0 0 2.111 1.061 1.676 1.676 0 0 0 1.055-2.127l-1.05-3.16 1.245-.973a5.16 5.16 0 0 1 3.376 4.844c0 2.843-2.297 5.155-5.122 5.155"/>
    </g>
  </g>
  </symbol>
  <symbol id="motorvej" viewBox="0 0 34 34">
    <circle cx="17" cy="17" r="17" fill="#00ab67" />
	<g transform="translate(6.5 1.5) scale(0.9)">
  <path fill="#fff" d="M5.8 17.5H10l-.5 14H3zm11.4 0H13l.5 14H20zM1 14h21v1H1z"/>
  <path fill="#fff" d="M3 15h2l-.5 3H3zm17 0h-2l.5 3H20zM10.5 1 10 12H6.5l2-11zM12 1l.5 11H16L14 1z"/>
	</g>
  </symbol>
  <symbol id="proveperiode" viewBox="0 0 239.59 346.94">
    <path d="M227.66 317c8.64 1.79 11.91 5.79 11.92 14.31v15.6H.2c0-6.41-.41-12.88.13-19.27.45-5.4 4.42-8.58 11.15-10.51.8-7.17 1.21-14.38 2.47-21.44 5.72-32 22.07-58 46.06-79.31a200 200 0 0 1 21.08-16.08c20.69-14 20.78-39.78-.08-53.57-26.43-17.47-47.16-39.81-59.5-69.35a125.9 125.9 0 0 1-9.6-47.28C2.1 26.65 0 23.66 0 13.29V0h239.47c0 6.53.33 13-.1 19.42-.36 5.56-4.51 9-10.72 10.34-1.75 10.71-2.65 21.34-5.31 31.52-8.61 33.12-28.51 58.59-55.45 78.95-3.38 2.55-6.92 4.9-10.45 7.25-19.26 12.82-19.31 39.33.07 52 22.29 14.59 40.81 32.73 53.85 56.14a127.5 127.5 0 0 1 16.3 61.38m-12.24.05a13 13 0 0 0 .17-1.62c0-1.75 0-3.5-.15-5.24A117.3 117.3 0 0 0 198 256.35c-12.22-19.83-29.07-34.88-48.26-47.76-25-16.76-24.88-53-.21-70.19 3-2.06 6-4 9-6.12 27.17-19.84 46.9-44.93 54.38-78.37 1.74-7.8 2.27-15.87 3.38-23.94H24.2c0 2.74-.17 5.24 0 7.7 2.36 29.3 14.63 54.06 34.6 75.25a165.7 165.7 0 0 0 29.68 24.44c13.56 8.95 20.49 21.7 19.88 37.91-.58 15.14-8 26.63-20.65 34.92-27 17.72-47.65 40.74-58.1 71.89a108 108 0 0 0-5.66 35z"/>
  <path d="M119.81 162.44c-4.08-16.7-14-28.41-28.07-37.49A127.2 127.2 0 0 1 50.2 81.6c-.57-1-1.06-2-1.55-3-.09-.19 0-.48.05-.85h142.68c-.78 1.5-1.37 2.77-2.07 4a122.65 122.65 0 0 1-38.86 41.36c-14.82 9.71-26.59 21.23-30.64 39.33M203.1 305.2h-167c2.31-4.12 4-7.94 6.38-11.22a55.64 55.64 0 0 1 21.39-17.19c10.32-4.9 21.06-8.93 31.61-13.34 3.9-1.63 7.91-3 11.66-5 5.84-3 8.45-5.74 12.72-12.18 5.92 10.63 16.23 14.5 26.85 18 14.14 4.64 28 10 39.75 19.42 5.06 4.06 9.18 9.37 13.4 14.39 1.49 1.83 2.05 4.44 3.24 7.12m-77.69-116.82v1.86c-.15 4.41-2.17 6.78-5.72 6.72-3.39-.06-5.35-2.37-5.49-6.56a43 43 0 0 1 0-4.83c.28-3.58 2.44-5.73 5.65-5.59 3.4.15 5.15 2.12 5.44 5.42.09 1 0 2 0 3zm0 29c0 6.93-1.67 9.53-5.62 9.53s-5.63-2.6-5.61-8.68a25 25 0 0 1 .12-3.34c.44-3.16 2.3-4.94 5.48-4.94s5 1.78 5.5 4.93a20 20 0 0 1 .13 2.5"/>
  </symbol>
  <symbol id="trailer" viewBox="0 0 48 16">
    <path d="M7.929 7.108a4.374 4.374 0 1 1 0 8.748 4.374 4.374 0 0 1 0-8.748m12.437 0a4.374 4.374 0 1 1 0 8.748 4.374 4.374 0 0 1 0-8.748m20.505-1.777h3.553V3.555h.002a1.778 1.778 0 1 1 1.777 1.776h-.002v1.777h-5.33v3.554H26.655V8.331a3 3 0 0 0-3-3H4.777a3 3 0 0 0-3 3v2.331H0V0h40.871z"/>
  </symbol>
  <symbol id="lastbil" viewBox="0 0 54 54">
    <circle cx="27" cy="27" r="27" fill="#000" fill-opacity="0.5" />
  <g transform="translate(5.4, 14.4) scale(0.8)">
    <path fill="#fff" d="M.784 18.135a.786.786 0 0 0 .784-.789V2.896c0-.726.586-1.316 1.307-1.316h25.841A.786.786 0 0 0 29.5.79a.787.787 0 0 0-.784-.788H2.877A2.89 2.89 0 0 0 0 2.898v14.45c0 .437.352.79.784.79z"/>
    <path fill="#fff" d="M52.31 19.097 45.971 10.2a5.8 5.8 0 0 0-4.712-2.434h-.396v-.677a2.75 2.75 0 0 0-2.737-2.756h-4.041V2.896c0-1.597-1.29-2.896-2.877-2.896h-4.431a.786.786 0 0 0-.784.789c0 .435.352.789.784.789h4.43c.721 0 1.308.59 1.308 1.316v23.658h-18.19a5.507 5.507 0 0 0-8.15 0H1.569V20.82a.786.786 0 0 0-.783-.79.787.787 0 0 0-.784.79v7.504c0 1.928 1.558 3.494 3.473 3.494h1.44c.65 2.353 2.797 4.087 5.34 4.087 3.054 0 5.541-2.501 5.541-5.578 0-.78-.16-1.522-.45-2.196h22.866a5.6 5.6 0 0 0-.446 2.107h-19.76a.786.786 0 0 0-.784.79c0 .434.352.788.784.788h19.961c.65 2.353 2.797 4.087 5.34 4.087s4.689-1.734 5.339-4.087h1.44c1.915 0 3.473-1.568 3.473-3.494v-5.328a6.67 6.67 0 0 0-1.247-3.898zM1.57 28.324v-.193h3.588a5.6 5.6 0 0 0-.446 2.107H3.474c-1.05 0-1.905-.86-1.905-1.916zm8.682 6.003c-2.19 0-3.972-1.793-3.972-3.998s1.781-3.999 3.972-3.999 3.973 1.794 3.973 3.999-1.782 3.998-3.973 3.998m41.735-11.331v.839h-1.854a.334.334 0 0 1-.333-.335v-.885c0-.185.15-.335.333-.335h1.803q.049.355.05.716zm-2.777-5.542h-8.614a.94.94 0 0 1-.937-.943v-1.983c0-.52.42-.943.937-.943h5.855l2.757 3.87zM38.126 5.911c.644 0 1.168.527 1.168 1.176v.675h-5.21V5.91zv.002zm-4.041 20.643V9.344h7.174a4.23 4.23 0 0 1 3.437 1.776l.63.883h-4.732a2.517 2.517 0 0 0-2.506 2.523v1.983a2.517 2.517 0 0 0 2.506 2.523h9.738l.701.985q.233.33.411.683h-1.313a1.91 1.91 0 0 0-1.902 1.915v.885a1.91 1.91 0 0 0 1.902 1.915h1.854v1.139h-4.607a5.506 5.506 0 0 0-8.151 0h-5.144zm9.22 7.773c-2.191 0-3.973-1.793-3.973-3.998s1.782-3.999 3.973-3.999 3.972 1.794 3.972 3.999-1.782 3.998-3.972 3.998m8.682-6.003a1.913 1.913 0 0 1-1.904 1.916h-1.239a5.6 5.6 0 0 0-.445-2.107h3.588v.193z"/>
    <path fill="#fff" d="M43.304 27.956a2.367 2.367 0 0 0-2.357 2.373 2.367 2.367 0 0 0 2.357 2.372c1.3 0 2.355-1.064 2.355-2.372a2.367 2.367 0 0 0-2.355-2.373m0 3.163a.79.79 0 0 1-.787-.792c0-.437.353-.793.787-.793s.788.356.788.793a.79.79 0 0 1-.788.792m-33.052-3.163a2.367 2.367 0 0 0-2.356 2.373 2.367 2.367 0 0 0 2.356 2.372 2.37 2.37 0 0 0 2.357-2.372 2.367 2.367 0 0 0-2.357-2.373m0 3.163a.79.79 0 0 1-.788-.792c0-.437.354-.793.788-.793s.787.356.787.793a.79.79 0 0 1-.787.792m30.403-9.629a.786.786 0 0 0-.784-.79h-.995a.786.786 0 0 0-.784.79c0 .434.352.788.784.788h.995a.786.786 0 0 0 .784-.789z"/>
  </g>
  </symbol>
  <symbol id="vejarbejde" viewBox="0 0 26 26.06">
    <path d="M25.23 24.44c-1.15-2.45-2.29-4.91-3.45-7.36a2.7 2.7 0 0 0-.53-.73.77.77 0 0 0-1.24 0c-.37.44-.67.94-1 1.41l-.19.29c-1.29-.64-2.55-1.28-3.82-1.9a.67.67 0 0 1-.41-.54q-.59-3.52-1.28-7.06a2.47 2.47 0 0 0-.7-1.38 11.8 11.8 0 0 0-2.74-2 1.46 1.46 0 0 0-.7-.17c-1.23 0-2.46.12-3.68.17a1.35 1.35 0 0 0-1 .49C3.43 6.84 2.37 8 1.31 9.11a.31.31 0 0 1-.31.13.78.78 0 0 0-.8 1 1 1 0 0 0 .59.62l16.91 8.45.3.16-.31.43a1.77 1.77 0 0 1-1.47.82 1 1 0 0 0-1 .67c-.73 1.57-1.5 3.13-2.25 4.7h12.8A2 2 0 0 0 26 26c-.26-.52-.52-1-.77-1.56M4.5 10.91 3 10.16l1.37-1.4c.29-.3.6-.6.9-.89.05-.06.12-.13.18-.13h1.22zm4.73 2.36 2.14-2.77 1.16 4.43z"/>
  <path d="M10.6 18.64c-.36-.6-.7-1.22-1.06-1.83a.85.85 0 0 0-.33-.32l-5.76-2.9-.25-.11c0 .11-.07.21-.09.3-.39 1.3-.77 2.6-1.15 3.9-.61 2.07-1.23 4.15-1.84 6.23a2.6 2.6 0 0 0-.11.62c0 .79.22 1.16 1.1 1.53h.31a1.58 1.58 0 0 0 1-1q1.47-4.06 3-8.15l.06-.15.2.16c.83.77 1.66 1.53 2.47 2.31a.7.7 0 0 1 .2.38c.23 1.76.44 3.51.66 5.27a1.33 1.33 0 0 0 .86 1.18h.46c.3-.11.62-.19.71-.57a2.5 2.5 0 0 0 .09-.54c-.05-1.71-.1-3.41-.17-5.11a2.44 2.44 0 0 0-.36-1.2m3.67-13.79A2.4 2.4 0 0 0 16 2.73 2.46 2.46 0 0 0 14.7.35a8 8 0 0 0-.91-.35h-.61L13 .05a2.44 2.44 0 0 0-1.84 1.52 2.34 2.34 0 0 0 .52 2.66 2.33 2.33 0 0 0 2.59.62"/>
  </symbol>
</svg>