<svg xmlns="http://www.w3.org/2000/svg" style="display: none;">
  <symbol id="oldbus" viewBox="0 0 128 115">
    <defs>
    <linearGradient id="a" x1=".303" x2=".136" y1="1" y2="-.11" gradientUnits="objectBoundingBox">
      <stop offset="0" stop-opacity="0"/>
      <stop offset="1" stop-opacity=".251"/>
    </linearGradient>
    <linearGradient id="c" x1=".5" x2=".5" y2="1" gradientUnits="objectBoundingBox">
      <stop offset="0" stop-color="#fff" stop-opacity=".502"/>
      <stop offset="1" stop-opacity=".502"/>
    </linearGradient>
    <linearGradient id="d" x1=".396" x2=".658" y1=".898" y2=".138" gradientUnits="objectBoundingBox">
      <stop offset="0" stop-color="#fff" stop-opacity=".302"/>
      <stop offset="1" stop-opacity=".302"/>
    </linearGradient>
    <clipPath id="b">
      <path fill="none" d="M.623.005h41.4V65H.623Z" data-name="Clip 34"/>
    </clipPath>
    <clipPath id="e">
      <path fill="none" d="M0 20.806C.648 15.4 3.87 4.029 7.489 0l27.824 16.062c-3.595 5.179-6.9 14.312-7.768 20.654Z"/>
    </clipPath>
  </defs>
  <path fill="#555" d="M123.724 61.734 109.7 53.725c6.118-8.444 18.085-.271 14.024 8.009" data-name="Fill 1"/>
  <path fill="#555" d="m106.538 71.607-14.024-8.009c6.118-8.444 18.085-.271 14.024 8.009" data-name="Fill 3"/>
  <path d="M90.578 68.795c-2.035 3.728-3.56 10.065.9 12.619l3.856 2.203c-4.483-3.68-.435-18.939 7.122-16.923l-3.809-2.202c-3.051-1.764-6.56 1.765-8.069 4.303" data-name="Fill 5"/>
  <path d="M107.77 58.966c-2.035 3.728-3.56 10.065.9 12.618l3.855 2.203c-4.482-3.679-.435-18.938 7.123-16.922l-3.809-2.203c-3.051-1.763-6.56 1.765-8.069 4.304" data-name="Fill 7"/>
  <path fill="#555" d="m56.299 100.572-14.012-8.018c6.119-8.444 18.073-.262 14.012 8.018" data-name="Fill 9"/>
  <path d="M40.382 97.787c-2.034 3.728-3.56 10.065.9 12.618l3.855 2.203c-4.482-3.679-.435-18.938 7.123-16.923l-3.809-2.202c-3.051-1.763-6.56 1.766-8.069 4.304" data-name="Fill 11"/>
  <path fill="#262828" d="M49.848 95.064a7.05 7.05 0 0 0-4.97 2.935 13.16 13.16 0 0 0-2.651 6.582 9.88 9.88 0 0 0 1.145 6.271 4.63 4.63 0 0 0 4.244 2.348 7.06 7.06 0 0 0 4.807-2.865 13.1 13.1 0 0 0 2.668-6.371 10.2 10.2 0 0 0-.991-6.329 4.67 4.67 0 0 0-4.252-2.571" data-name="Fill 13"/>
  <path fill="#a9adaf" d="M49.973 97.277a5 5 0 0 0-3.314 2.1 10.96 10.96 0 0 0-2.184 5.446 7.78 7.78 0 0 0 .822 4.84 2.41 2.41 0 0 0 2.218 1.306 5 5 0 0 0 3.215-2.04 10.87 10.87 0 0 0 2.2-5.274 8.07 8.07 0 0 0-.714-4.921 2.48 2.48 0 0 0-2.243-1.457" data-name="Fill 15"/>
  <path fill="#a4adaf" d="M49.337 101.126a2.13 2.13 0 0 0-1.46.892 4.3 4.3 0 0 0-.866 2.155 3.16 3.16 0 0 0 .348 1.981 1.23 1.23 0 0 0 1.125.636 2.13 2.13 0 0 0 1.414-.87 4.3 4.3 0 0 0 .871-2.086 3.26 3.26 0 0 0-.307-2.008 1.24 1.24 0 0 0-1.125-.7" data-name="Fill 17"/>
  <path fill="#424242" d="M49.351 101.471a1.82 1.82 0 0 0-1.2.761 4 4 0 0 0-.793 1.98 2.83 2.83 0 0 0 .294 1.759.88.88 0 0 0 .805.475 1.82 1.82 0 0 0 1.171-.741 3.95 3.95 0 0 0 .8-1.917 2.94 2.94 0 0 0-.264-1.788.9.9 0 0 0-.813-.529" data-name="Fill 19"/>
  <path fill="#519165" d="m42.025 67.53 85.328-49.526v41.643l-3.63 2.083-.008-.058-.008-.059-.01-.058v-.016l-.007-.043-.019-.115-.01-.058-.01-.058-.012-.061-.034-.174-.012-.057-.011-.053q-.038-.173-.079-.344l-.013-.051v-.006l-.015-.057-.013-.048v-.008l-.015-.057-.013-.046v-.01l-.016-.057-.012-.043v-.013l-.017-.056-.012-.041v-.015l-.018-.057-.012-.038v-.016l-.018-.056-.012-.037-.006-.019-.018-.055-.011-.034-.008-.021-.02-.056-.01-.031-.008-.023-.029-.079v-.006l-.009-.026-.021-.054-.01-.027-.028-.029-.022-.055-.009-.024-.012-.03-.021-.054-.009-.023-.014-.031-.03-.074-.015-.033-.023-.054-.008-.017-.016-.036-.023-.053-.008-.016-.018-.038-.024-.052-.006-.013-.019-.04-.025-.052v-.011l-.006-.01-.041-.084v-.015l-.044-.088v-.006l-.023-.046-.028-.051-.006-.012-.047-.084-.027-.049-.029-.05a5.91 5.91 0 0 0-5.397-3.199 8.23 8.23 0 0 0-5.894 3.4 14.4 14.4 0 0 0-2.913 7.209l-.008.073-.005.039v.034l-.007.073v.005l-.006.068v.045l-.01.1v.011l-.009.113v2.113l.006.072.008.074.006.074.008.074.008.071.006.043v.052l.016.121v.012l.009.069.011.073v.016l.009.059.009.055v.018l.011.075.012.068v.005l.011.061v.013l.013.073.006.027.008.046.013.067v.007l.015.073.015.073.016.072.017.073.016.069.017.073.017.068.011.044.007.028.019.072v.01l.017.062-2.135 1.254-.009-.059-.008-.055-.013-.065v-.058l-.01-.058-.006-.035v-.024l-.01-.059-.01-.058-.011-.058-.011-.059-.011-.057-.005-.026-.006-.032-.012-.058v-.023l-.007-.036-.013-.057-.01-.047v-.011l-.013-.057v-.016l-.01-.042-.013-.058v-.012l-.011-.045-.014-.057-.013-.049v-.009l-.015-.056v-.021l-.024-.088v-.016l-.027-.1-.017-.055-.016-.055-.017-.057-.058-.051v-.005l-.017-.056-.015-.048v-.008l-.018-.056-.016-.044v-.012l-.03-.088v-.008l-.006-.014-.033-.093-.006-.017-.021-.055-.013-.035-.007-.02-.021-.054-.013-.032-.009-.023-.022-.054-.011-.029-.011-.025-.023-.055-.01-.025-.012-.028-.024-.054-.01-.023-.013-.031-.024-.053-.015-.024-.016-.034-.024-.052-.008-.017-.017-.037-.025-.052-.007-.014v-.005l-.043-.086-.005-.011v-.009l-.043-.083v-.009l-.008-.013-.044-.081v-.011l-.047-.086v-.006l-.006-.011-.05-.088a5.91 5.91 0 0 0-5.376-3.19 8.24 8.24 0 0 0-5.894 3.4 14.4 14.4 0 0 0-2.913 7.209l-.009.074v.073l-.007.073-.007.068v.045l-.008.1v.01l-.043.112v.031l-.005.075v.148l-.005.075v1.648l.006.074v.018l.01.115v.018l.007.074v.023l.005.052.007.063v.012l.009.075v.028l.006.047.007.067v.007l.01.075v.032l.006.042.01.072.011.074.006.037.006.038.012.073.012.072.008.041.006.033.013.073v.007l.013.067.009.046.005.027.016.074v.012l.014.062.011.05v.023l.017.073v.016l.013.057.014.055v.017l.018.073.006.021v.012l.019.073.007.026v.013l.02.072c-8.841 5.081-18.2 10.493-35.209 20.373a9.3 9.3 0 0 0-1.144-3.543 5.89 5.89 0 0 0-5.354-3.178 8.22 8.22 0 0 0-5.876 3.395 14.37 14.37 0 0 0-2.908 7.2 12.5 12.5 0 0 0 .348 4.846l-8.586 4.982v-22.65c0-6.625 5.063-19.869 9.273-24.077Z" data-name="Fill 21"/>
  <g data-name="Fill 27">
    <path fill="#73c68f" d="M42.025 67.53 127.353 18 95.731 0 10.403 49.273Z" data-name="Fill 27"/>
    <path fill="url(#a)" d="M31.622 67.53 116.95 18 85.328 0 0 49.273Z" data-name="Fill 27" style="mix-blend-mode:multiply;isolation:isolate" transform="translate(10.403)"/>
  </g>
  <path fill="#b1c0ca" d="m1.447 61.991-1.157.608a.44.44 0 0 1 .366.054l2.434 1.4a1.58 1.58 0 0 1 .656 1.265L3.73 72.34a.77.77 0 0 1-.229.566l1.089-.631c.273-.159.288-.207.3-.553l.017-7.021c0-.647-.066-.92-.657-1.266-.808-.471-1.626-.93-2.437-1.395-.176-.1-.248-.111-.366-.049" data-name="Fill 29"/>
  <path fill="#929a9e" d="M3.091 64.05.656 62.656C.3 62.451 0 62.681 0 63.17v6.573c0 .974.05 1.4.656 1.745l2.435 1.393c.366.2.639-.052.64-.543l.016-7.023c0-.7-.1-.948-.656-1.265" data-name="Fill 31"/>
  <g data-name="Group 35">
    <path fill="none" d="M.623 49.273h41.4v64.995H.623Z" data-name="Clip 34"/>
    <g clip-path="url(#b)" data-name="Group 35" transform="translate(0 49.268)">
      <path fill="#5c9f69" d="m10.403.005 31.62 18.254c-4.214 4.195-9.287 17.459-9.287 24.09v22.656L.623 46.693l.094-22.426C.869 18.672 5.909 2.605 10.403.005" data-name="Fill 33"/>
    </g>
  </g>
  <path fill="#8c8c8c" d="M32.773 107.845.662 89.498.63 95.965l32.109 18.3Z" data-name="Fill 38"/>
  <path fill="#cbcbcb" d="M25.454 14.341.892.174C.186-.233 0 .117 0 .784v2.545a1.13 1.13 0 0 0 .485.9l26.857 15.485c.678.391.9.093.908-.6v-2.55a1.14 1.14 0 0 0-.491-.9Z" data-name="Fill 40" style="mix-blend-mode:multiply;isolation:isolate" transform="translate(2.626 81.797)"/>
  <path fill="#7b7e80" d="m32.773 107.845 8.499-4.916a15 15 0 0 0-.254 1.513 12.5 12.5 0 0 0 .347 4.846l-8.626 4.979Z" data-name="Fill 46"/>
  <path fill="#fff" d="m26.7 110.183 5.32 3.071v-4.882l-5.32-3.07Z" data-name="Fill 48"/>
  <path fill="#feef7c" d="M27.171 109.911v-3.794l4.378 2.526.005 3.8Z" data-name="Fill 50"/>
  <path fill="#fff" d="M1.338 95.528 6.657 98.6v-4.883l-5.319-3.07Z" data-name="Fill 52"/>
  <path fill="#feef7c" d="M1.809 95.256v-3.794l4.377 2.527.005 3.794Z" data-name="Fill 54"/>
  <g data-name="Fill 23">
    <path fill="#21314b" d="m57.883 61.137 22.656-13.17V62.59L57.883 75.687Z" data-name="Fill 23"/>
    <path fill="url(#c)" d="M0 13.17 22.656 0v14.623L0 27.72Z" data-name="Fill 23" style="mix-blend-mode:multiply;isolation:isolate" transform="translate(57.883 47.967)"/>
  </g>
  <g data-name="Fill 25">
    <path fill="#21314b" d="M55.864 61.596v15.389L34.738 89.196c.96-6.345 4.775-16.452 8.305-20.146Z" data-name="Fill 25"/>
    <path fill="url(#c)" d="M21.126 0v15.389L0 27.6c.96-6.345 4.775-16.452 8.305-20.146Z" data-name="Fill 25" style="mix-blend-mode:multiply;isolation:isolate" transform="translate(34.738 61.596)"/>
  </g>
  <g data-name="Fill 36">
    <path fill="#2f405c" d="m10.65 52.123 27.824 16.062c-3.594 5.179-6.9 14.312-7.768 20.654L3.161 72.929c.648-5.406 3.87-16.777 7.489-20.806" data-name="Fill 36"/>
    <path fill="url(#d)" d="m7.489 0 27.824 16.062c-3.594 5.179-6.9 14.312-7.768 20.654L0 20.806C.648 15.4 3.87 4.029 7.489 0" data-name="Fill 36" transform="translate(3.161 52.123)"/>
  </g>
  <g data-name="Fill 42 + Fill 46 Mask">
    <path fill="#2f405c" d="M38.474 68.185c-3.594 5.179-6.9 14.312-7.768 20.654L3.161 72.929c.648-5.406 3.87-16.777 7.489-20.806Z" data-name="Mask"/>
    <path fill="none" d="M38.474 68.185c-3.594 5.179-6.9 14.312-7.768 20.654L3.161 72.929c.648-5.406 3.87-16.777 7.489-20.806Z" data-name="Mask"/>
    <g clip-path="url(#e)" data-name="Fill 42 + Fill 46 Mask" transform="translate(3.161 52.123)">
      <path fill="#276379" d="M12.839 29.877c-12.968-7.487-15-8-15-8s6.004-22.998 9-24 4.417 1.735 17 9c0 0-7 5-11 23" data-name="Fill 42" opacity=".5"/>
      <path fill="#327f93" d="M2.818 18.555c.405.615 8.317 5.789 9.02 5.322s1.325-4.799.865-5.001-.733 1.176-1.8.997-1.235-.704-1.997-1.204-1.5-.349-2.212-.667a2.36 2.36 0 0 1-1.204-1.665 1.217 1.217 0 0 0-1.845-.539c-.498.542-1.232 2.142-.827 2.757" data-name="Fill 46" opacity=".5"/>
    </g>
  </g>
  <g data-name="Fill 44">
    <path fill="#21314b" d="m82.519 46.815 20.307-11.805v14.7L82.519 61.445Z" data-name="Fill 44"/>
    <path fill="url(#c)" d="M0 11.805 20.307 0v14.7L0 26.435Z" data-name="Fill 44" style="mix-blend-mode:multiply;isolation:isolate" transform="translate(82.519 35.01)"/>
  </g>
  <g data-name="Fill 62">
    <path fill="#21314b" d="m104.817 33.926 20.306-11.805v14.695l-20.306 11.739Z" data-name="Fill 62"/>
    <path fill="url(#c)" d="M0 11.805 20.306 0v14.695L0 26.434Z" data-name="Fill 62" style="mix-blend-mode:multiply;isolation:isolate" transform="translate(104.817 22.121)"/>
  </g>
  <path fill="#b1c0ca" d="m37.186 84.208-1.232.622a.5.5 0 0 1 .39.05l2.593 1.347a1.52 1.52 0 0 1 .7 1.246v6.818a.61.61 0 0 1-.213.522l1.137-.579c.291-.161.3-.229.308-.572v-6.817a1.1 1.1 0 0 0-.7-1.246c-.859-.456-1.729-.898-2.593-1.348-.187-.1-.265-.106-.39-.043" data-name="Fill 56"/>
  <path fill="#929a9e" d="m38.938 86.227-2.594-1.347c-.384-.2-.7.036-.7.52v4.941l-.992-.513v2.509l4.286 2.473c.384.2.7-.035.7-.521v-6.816c0-.7-.109-.94-.7-1.246" data-name="Fill 58"/>
  <path fill="#262828" d="M97.529 84.219a4.68 4.68 0 0 1-3.959-2.356 10.03 10.03 0 0 1-1.145-6.273 13.1 13.1 0 0 1 2.651-6.579c.84-1.056 2.6-2.842 4.971-2.935h.178a4.66 4.66 0 0 1 4.073 2.568 10.3 10.3 0 0 1 .99 6.331 13.06 13.06 0 0 1-2.668 6.369 7.17 7.17 0 0 1-4.806 2.866 5 5 0 0 1-.285.009m17.191-9.829a4.68 4.68 0 0 1-3.958-2.357 10.04 10.04 0 0 1-1.146-6.271 13.1 13.1 0 0 1 2.652-6.579c.839-1.058 2.601-2.845 4.972-2.939h.178a4.66 4.66 0 0 1 4.073 2.572 10.3 10.3 0 0 1 .989 6.328 13.07 13.07 0 0 1-2.668 6.37 7.17 7.17 0 0 1-4.806 2.866q-.144.01-.286.01" data-name="Fill 60"/>
  <path fill="#a9adaf" d="M117.36 58.457a5 5 0 0 0-3.313 2.1 10.95 10.95 0 0 0-2.184 5.447 7.77 7.77 0 0 0 .821 4.839 2.41 2.41 0 0 0 2.218 1.307 5 5 0 0 0 3.215-2.041 10.87 10.87 0 0 0 2.2-5.274 8.08 8.08 0 0 0-.714-4.921 2.48 2.48 0 0 0-2.243-1.457" data-name="Fill 64"/>
  <path fill="#a4adaf" d="M116.725 62.305a2.13 2.13 0 0 0-1.46.893 4.3 4.3 0 0 0-.866 2.155 3.16 3.16 0 0 0 .348 1.98 1.23 1.23 0 0 0 1.125.636 2.13 2.13 0 0 0 1.414-.87 4.3 4.3 0 0 0 .871-2.085 3.26 3.26 0 0 0-.307-2.009 1.24 1.24 0 0 0-1.125-.7" data-name="Fill 66"/>
  <path fill="#424242" d="M116.739 62.65a1.82 1.82 0 0 0-1.205.762 4 4 0 0 0-.793 1.98 2.8 2.8 0 0 0 .299 1.758.88.88 0 0 0 .8.475 1.82 1.82 0 0 0 1.176-.741 3.95 3.95 0 0 0 .8-1.917 2.94 2.94 0 0 0-.264-1.788.9.9 0 0 0-.813-.529" data-name="Fill 68"/>
  <path fill="#a9adaf" d="M100.169 68.286a5 5 0 0 0-3.314 2.1 10.95 10.95 0 0 0-2.183 5.447 7.78 7.78 0 0 0 .821 4.839 2.41 2.41 0 0 0 2.218 1.307 5 5 0 0 0 3.216-2.041 10.9 10.9 0 0 0 2.2-5.274 8.07 8.07 0 0 0-.714-4.92 2.48 2.48 0 0 0-2.244-1.458" data-name="Fill 70"/>
  <path fill="#a4adaf" d="M99.534 72.135a2.13 2.13 0 0 0-1.461.893 4.3 4.3 0 0 0-.866 2.155 3.15 3.15 0 0 0 .349 1.98 1.22 1.22 0 0 0 1.12.636 2.13 2.13 0 0 0 1.415-.869 4.3 4.3 0 0 0 .871-2.086 3.26 3.26 0 0 0-.303-2.009 1.24 1.24 0 0 0-1.125-.7" data-name="Fill 72"/>
  <path fill="#424242" d="M99.548 72.479a1.82 1.82 0 0 0-1.2.762 4 4 0 0 0-.794 1.98 2.83 2.83 0 0 0 .295 1.758.88.88 0 0 0 .806.476 1.82 1.82 0 0 0 1.17-.742 3.95 3.95 0 0 0 .8-1.916 2.93 2.93 0 0 0-.264-1.788.9.9 0 0 0-.813-.53" data-name="Fill 74"/>
  <path fill="#444" d="m18.699 80.134 3.476.561 9.247 5.557-.417 1.839v.01l-.006.03-.007.03-.022.116v.029l-.006.03v.029l-.005.028-.028.145v.029l-.006.028v.087l-.026.142v.058l-.015.085v.028l-.01.057v.028l-.005.028v.025l-.005.027v.277l-.02.137v.082l-.023.163v.056l-27.66-15.75c.126-1.051-.338-1.868 0-3.32" data-name="Fill 76"/>
  </symbol>
  <symbol id="oldbustempo100" viewBox="0 0 128 115">
    <defs>
    <linearGradient id="a" x1=".435" x2=".242" y1=".891" gradientUnits="objectBoundingBox">
      <stop offset="0" stop-opacity="0"/>
      <stop offset="1" stop-opacity=".251"/>
    </linearGradient>
    <linearGradient id="c" x1=".5" x2=".5" y2="1" gradientUnits="objectBoundingBox">
      <stop offset="0" stop-color="#fff" stop-opacity=".502"/>
      <stop offset="1" stop-opacity=".502"/>
    </linearGradient>
    <linearGradient id="d" x1=".396" x2=".658" y1=".898" y2=".138" gradientUnits="objectBoundingBox">
      <stop offset="0" stop-color="#fff" stop-opacity=".302"/>
      <stop offset="1" stop-opacity=".302"/>
    </linearGradient>
    <clipPath id="b">
      <path fill="none" d="M.623.005h41.4V65H.623Z" data-name="Clip 34"/>
    </clipPath>
    <clipPath id="e">
      <path fill="none" d="M0 20.806C.648 15.4 3.87 4.029 7.489 0l27.824 16.062c-3.595 5.179-6.9 14.312-7.768 20.654Z"/>
    </clipPath>
  </defs>
  <path fill="#555" d="M123.724 61.734 109.7 53.725c6.118-8.444 18.085-.271 14.024 8.009" data-name="Fill 1"/>
  <path fill="#555" d="m106.538 71.607-14.024-8.009c6.118-8.444 18.085-.271 14.024 8.009" data-name="Fill 3"/>
  <path d="M90.578 68.795c-2.035 3.728-3.56 10.065.9 12.619l3.856 2.203c-4.483-3.68-.435-18.939 7.122-16.923l-3.809-2.202c-3.051-1.764-6.56 1.765-8.069 4.303" data-name="Fill 5"/>
  <path d="M107.77 58.966c-2.035 3.728-3.56 10.065.9 12.618l3.855 2.203c-4.482-3.679-.435-18.938 7.123-16.922l-3.809-2.203c-3.051-1.763-6.56 1.765-8.069 4.304" data-name="Fill 7"/>
  <path fill="#555" d="m56.299 100.572-14.012-8.018c6.119-8.444 18.073-.262 14.012 8.018" data-name="Fill 9"/>
  <path d="M40.382 97.787c-2.034 3.728-3.56 10.065.9 12.618l3.855 2.203c-4.482-3.679-.435-18.938 7.123-16.923l-3.809-2.202c-3.051-1.763-6.56 1.766-8.069 4.304" data-name="Fill 11"/>
  <path fill="#262828" d="M49.848 95.064a7.05 7.05 0 0 0-4.97 2.935 13.16 13.16 0 0 0-2.651 6.582 9.88 9.88 0 0 0 1.145 6.271 4.63 4.63 0 0 0 4.244 2.348 7.06 7.06 0 0 0 4.807-2.865 13.1 13.1 0 0 0 2.668-6.371 10.2 10.2 0 0 0-.991-6.329 4.67 4.67 0 0 0-4.252-2.571" data-name="Fill 13"/>
  <path fill="#a9adaf" d="M49.973 97.277a5 5 0 0 0-3.314 2.1 10.96 10.96 0 0 0-2.184 5.446 7.78 7.78 0 0 0 .822 4.84 2.41 2.41 0 0 0 2.218 1.306 5 5 0 0 0 3.215-2.04 10.87 10.87 0 0 0 2.2-5.274 8.07 8.07 0 0 0-.714-4.921 2.48 2.48 0 0 0-2.243-1.457" data-name="Fill 15"/>
  <path fill="#a4adaf" d="M49.337 101.126a2.13 2.13 0 0 0-1.46.892 4.3 4.3 0 0 0-.866 2.155 3.16 3.16 0 0 0 .348 1.981 1.23 1.23 0 0 0 1.125.636 2.13 2.13 0 0 0 1.414-.87 4.3 4.3 0 0 0 .871-2.086 3.26 3.26 0 0 0-.307-2.008 1.24 1.24 0 0 0-1.125-.7" data-name="Fill 17"/>
  <path fill="#424242" d="M49.351 101.471a1.82 1.82 0 0 0-1.2.761 4 4 0 0 0-.793 1.98 2.83 2.83 0 0 0 .294 1.759.88.88 0 0 0 .805.475 1.82 1.82 0 0 0 1.171-.741 3.95 3.95 0 0 0 .8-1.917 2.94 2.94 0 0 0-.264-1.788.9.9 0 0 0-.813-.529" data-name="Fill 19"/>
  <path fill="#70808a" d="m42.025 67.53 85.328-49.526v41.643l-3.63 2.083-.008-.058-.008-.059-.01-.058v-.016l-.007-.043-.019-.115-.01-.058-.01-.058-.012-.061-.034-.174-.012-.057-.011-.053q-.038-.173-.079-.344l-.013-.051v-.006l-.015-.057-.013-.048v-.008l-.015-.057-.013-.046v-.01l-.016-.057-.012-.043v-.013l-.017-.056-.012-.041v-.015l-.018-.057-.012-.038v-.016l-.018-.056-.012-.037-.006-.019-.018-.055-.011-.034-.008-.021-.02-.056-.01-.031-.008-.023-.029-.079v-.006l-.009-.026-.021-.054-.01-.027-.028-.029-.022-.055-.009-.024-.012-.03-.021-.054-.009-.023-.014-.031-.03-.074-.015-.033-.023-.054-.008-.017-.016-.036-.023-.053-.008-.016-.018-.038-.024-.052-.006-.013-.019-.04-.025-.052v-.011l-.006-.01-.041-.084v-.015l-.044-.088v-.006l-.023-.046-.028-.051-.006-.012-.047-.084-.027-.049-.029-.05a5.91 5.91 0 0 0-5.397-3.199 8.23 8.23 0 0 0-5.894 3.4 14.4 14.4 0 0 0-2.913 7.209l-.008.073-.005.039v.034l-.007.073v.005l-.006.068v.045l-.01.1v.011l-.009.113v2.113l.006.072.008.074.006.074.008.074.008.071.006.043v.052l.016.121v.012l.009.069.011.073v.016l.009.059.009.055v.018l.011.075.012.068v.005l.011.061v.013l.013.073.006.027.008.046.013.067v.007l.015.073.015.073.016.072.017.073.016.069.017.073.017.068.011.044.007.028.019.072v.01l.017.062-2.135 1.254-.009-.059-.008-.055-.013-.065v-.058l-.01-.058-.006-.035v-.024l-.01-.059-.01-.058-.011-.058-.011-.059-.011-.057-.005-.026-.006-.032-.012-.058v-.023l-.007-.036-.013-.057-.01-.047v-.011l-.013-.057v-.016l-.01-.042-.013-.058v-.012l-.011-.045-.014-.057-.013-.049v-.009l-.015-.056v-.021l-.024-.088v-.016l-.027-.1-.017-.055-.016-.055-.017-.057-.058-.051v-.005l-.017-.056-.015-.048v-.008l-.018-.056-.016-.044v-.012l-.03-.088v-.008l-.006-.014-.033-.093-.006-.017-.021-.055-.013-.035-.007-.02-.021-.054-.013-.032-.009-.023-.022-.054-.011-.029-.011-.025-.023-.055-.01-.025-.012-.028-.024-.054-.01-.023-.013-.031-.024-.053-.015-.024-.016-.034-.024-.052-.008-.017-.017-.037-.025-.052-.007-.014v-.005l-.043-.086-.005-.011v-.009l-.043-.083v-.009l-.008-.013-.044-.081v-.011l-.047-.086v-.006l-.006-.011-.05-.088a5.91 5.91 0 0 0-5.376-3.19 8.24 8.24 0 0 0-5.894 3.4 14.4 14.4 0 0 0-2.913 7.209l-.009.074v.073l-.007.073-.007.068v.045l-.008.1v.01l-.043.112v.031l-.005.075v.148l-.005.075v1.648l.006.074v.018l.01.115v.018l.007.074v.023l.005.052.007.063v.012l.009.075v.028l.006.047.007.067v.007l.01.075v.032l.006.042.01.072.011.074.006.037.006.038.012.073.012.072.008.041.006.033.013.073v.007l.013.067.009.046.005.027.016.074v.012l.014.062.011.05v.023l.017.073v.016l.013.057.014.055v.017l.018.073.006.021v.012l.019.073.007.026v.013l.02.072c-8.841 5.081-18.2 10.493-35.209 20.373a9.3 9.3 0 0 0-1.144-3.543 5.89 5.89 0 0 0-5.354-3.178 8.22 8.22 0 0 0-5.876 3.395 14.37 14.37 0 0 0-2.908 7.2 12.5 12.5 0 0 0 .348 4.846l-8.586 4.982v-22.65c0-6.625 5.063-19.869 9.273-24.077Z" data-name="Fill 21"/>
  <g data-name="Fill 27">
    <path fill="#b1c0ca" d="M42.025 67.53 127.353 18 95.731 0 10.403 49.273Z" data-name="Fill 27"/>
    <path fill="url(#a)" d="M31.622 67.53 116.95 18 85.328 0 0 49.273Z" data-name="Fill 27" transform="translate(10.403)"/>
  </g>
  <path fill="#b1c0ca" d="m1.447 61.991-1.157.608a.44.44 0 0 1 .366.054l2.434 1.4a1.58 1.58 0 0 1 .656 1.265L3.73 72.34a.77.77 0 0 1-.229.566l1.089-.631c.273-.159.288-.207.3-.553l.017-7.021c0-.647-.066-.92-.657-1.266-.808-.471-1.626-.93-2.437-1.395-.176-.1-.248-.111-.366-.049" data-name="Fill 29"/>
  <path fill="#929a9e" d="M3.091 64.05.656 62.656C.3 62.451 0 62.681 0 63.17v6.573c0 .974.05 1.4.656 1.745l2.435 1.393c.366.2.639-.052.64-.543l.016-7.023c0-.7-.1-.948-.656-1.265" data-name="Fill 31"/>
  <g data-name="Group 35">
    <path fill="none" d="M.623 49.273h41.4v64.995H.623Z" data-name="Clip 34"/>
    <g clip-path="url(#b)" data-name="Group 35" transform="translate(0 49.268)">
      <path fill="#9aaeb8" d="m10.403.005 31.62 18.254c-4.214 4.195-9.287 17.459-9.287 24.09v22.656L.623 46.693l.094-22.426C.869 18.672 5.909 2.605 10.403.005" data-name="Fill 33"/>
    </g>
  </g>
  <path fill="#8c8c8c" d="M32.773 107.845.662 89.498.63 95.965l32.109 18.3Z" data-name="Fill 38"/>
  <path fill="#cbcbcb" d="M25.454 14.341.892.174C.186-.233 0 .117 0 .784v2.545a1.13 1.13 0 0 0 .485.9l26.857 15.485c.678.391.9.093.908-.6v-2.55a1.14 1.14 0 0 0-.491-.9Z" data-name="Fill 40" style="mix-blend-mode:multiply;isolation:isolate" transform="translate(2.626 81.797)"/>
  <path fill="#7b7e80" d="m32.773 107.845 8.499-4.916a15 15 0 0 0-.254 1.513 12.5 12.5 0 0 0 .347 4.846l-8.626 4.979Z" data-name="Fill 46"/>
  <path fill="#fff" d="m26.7 110.183 5.32 3.071v-4.882l-5.32-3.07Z" data-name="Fill 48"/>
  <path fill="#feef7c" d="M27.171 109.911v-3.794l4.378 2.526.005 3.8Z" data-name="Fill 50"/>
  <path fill="#fff" d="M1.338 95.528 6.657 98.6v-4.883l-5.319-3.07Z" data-name="Fill 52"/>
  <path fill="#feef7c" d="M1.809 95.256v-3.794l4.377 2.527.005 3.794Z" data-name="Fill 54"/>
  <g data-name="Fill 23">
    <path fill="#21314b" d="m57.883 61.137 22.656-13.17V62.59L57.883 75.687Z" data-name="Fill 23"/>
    <path fill="url(#c)" d="M0 13.17 22.656 0v14.623L0 27.72Z" data-name="Fill 23" style="mix-blend-mode:multiply;isolation:isolate" transform="translate(57.883 47.967)"/>
  </g>
  <g data-name="Fill 25">
    <path fill="#21314b" d="M55.864 61.596v15.389L34.738 89.196c.96-6.345 4.775-16.452 8.305-20.146Z" data-name="Fill 25"/>
    <path fill="url(#c)" d="M21.126 0v15.389L0 27.6c.96-6.345 4.775-16.452 8.305-20.146Z" data-name="Fill 25" style="mix-blend-mode:multiply;isolation:isolate" transform="translate(34.738 61.596)"/>
  </g>
  <g data-name="Fill 36">
    <path fill="#2f405c" d="m10.65 52.123 27.824 16.062c-3.594 5.179-6.9 14.312-7.768 20.654L3.161 72.929c.648-5.406 3.87-16.777 7.489-20.806" data-name="Fill 36"/>
    <path fill="url(#d)" d="m7.489 0 27.824 16.062c-3.594 5.179-6.9 14.312-7.768 20.654L0 20.806C.648 15.4 3.87 4.029 7.489 0" data-name="Fill 36" transform="translate(3.161 52.123)"/>
  </g>
  <g data-name="Fill 42 + Fill 46 Mask">
    <path fill="#2f405c" d="M38.474 68.185c-3.594 5.179-6.9 14.312-7.768 20.654L3.161 72.929c.648-5.406 3.87-16.777 7.489-20.806Z" data-name="Mask"/>
    <path fill="none" d="M38.474 68.185c-3.594 5.179-6.9 14.312-7.768 20.654L3.161 72.929c.648-5.406 3.87-16.777 7.489-20.806Z" data-name="Mask"/>
    <g clip-path="url(#e)" data-name="Fill 42 + Fill 46 Mask" transform="translate(3.161 52.123)">
      <path fill="#276379" d="M12.839 29.877c-12.968-7.487-15-8-15-8s6.004-22.998 9-24 4.417 1.735 17 9c0 0-7 5-11 23" data-name="Fill 42" opacity=".5"/>
      <path fill="#327f93" d="M2.818 18.555c.405.615 8.317 5.789 9.02 5.322s1.325-4.799.865-5.001-.733 1.176-1.8.997-1.235-.704-1.997-1.204-1.5-.349-2.212-.667a2.36 2.36 0 0 1-1.204-1.665 1.217 1.217 0 0 0-1.845-.539c-.498.542-1.232 2.142-.827 2.757" data-name="Fill 46" opacity=".5"/>
    </g>
  </g>
  <g data-name="Fill 44">
    <path fill="#21314b" d="m82.519 46.815 20.307-11.805v14.7L82.519 61.445Z" data-name="Fill 44"/>
    <path fill="url(#c)" d="M0 11.805 20.307 0v14.7L0 26.435Z" data-name="Fill 44" style="mix-blend-mode:multiply;isolation:isolate" transform="translate(82.519 35.01)"/>
  </g>
  <g data-name="Fill 62">
    <path fill="#21314b" d="m104.817 33.926 20.306-11.805v14.695l-20.306 11.739Z" data-name="Fill 62"/>
    <path fill="url(#c)" d="M0 11.805 20.306 0v14.695L0 26.434Z" data-name="Fill 62" style="mix-blend-mode:multiply;isolation:isolate" transform="translate(104.817 22.121)"/>
  </g>
  <path fill="#b1c0ca" d="m37.186 84.208-1.232.622a.5.5 0 0 1 .39.05l2.593 1.347a1.52 1.52 0 0 1 .7 1.246v6.818a.61.61 0 0 1-.213.522l1.137-.579c.291-.161.3-.229.308-.572v-6.817a1.1 1.1 0 0 0-.7-1.246c-.859-.456-1.729-.898-2.593-1.348-.187-.1-.265-.106-.39-.043" data-name="Fill 56"/>
  <path fill="#929a9e" d="m38.938 86.227-2.594-1.347c-.384-.2-.7.036-.7.52v4.941l-.992-.513v2.509l4.286 2.473c.384.2.7-.035.7-.521v-6.816c0-.7-.109-.94-.7-1.246" data-name="Fill 58"/>
  <path fill="#262828" d="M97.529 84.219a4.68 4.68 0 0 1-3.959-2.356 10.03 10.03 0 0 1-1.145-6.273 13.1 13.1 0 0 1 2.651-6.579c.84-1.056 2.6-2.842 4.971-2.935h.178a4.66 4.66 0 0 1 4.073 2.568 10.3 10.3 0 0 1 .99 6.331 13.06 13.06 0 0 1-2.668 6.369 7.17 7.17 0 0 1-4.806 2.866 5 5 0 0 1-.285.009m17.191-9.829a4.68 4.68 0 0 1-3.958-2.357 10.04 10.04 0 0 1-1.146-6.271 13.1 13.1 0 0 1 2.652-6.579c.839-1.058 2.601-2.845 4.972-2.939h.178a4.66 4.66 0 0 1 4.073 2.572 10.3 10.3 0 0 1 .989 6.328 13.07 13.07 0 0 1-2.668 6.37 7.17 7.17 0 0 1-4.806 2.866q-.144.01-.286.01" data-name="Fill 60"/>
  <path fill="#a9adaf" d="M117.36 58.457a5 5 0 0 0-3.313 2.1 10.95 10.95 0 0 0-2.184 5.447 7.77 7.77 0 0 0 .821 4.839 2.41 2.41 0 0 0 2.218 1.307 5 5 0 0 0 3.215-2.041 10.87 10.87 0 0 0 2.2-5.274 8.08 8.08 0 0 0-.714-4.921 2.48 2.48 0 0 0-2.243-1.457" data-name="Fill 64"/>
  <path fill="#a4adaf" d="M116.725 62.305a2.13 2.13 0 0 0-1.46.893 4.3 4.3 0 0 0-.866 2.155 3.16 3.16 0 0 0 .348 1.98 1.23 1.23 0 0 0 1.125.636 2.13 2.13 0 0 0 1.414-.87 4.3 4.3 0 0 0 .871-2.085 3.26 3.26 0 0 0-.307-2.009 1.24 1.24 0 0 0-1.125-.7" data-name="Fill 66"/>
  <path fill="#424242" d="M116.739 62.65a1.82 1.82 0 0 0-1.205.762 4 4 0 0 0-.793 1.98 2.8 2.8 0 0 0 .299 1.758.88.88 0 0 0 .8.475 1.82 1.82 0 0 0 1.176-.741 3.95 3.95 0 0 0 .8-1.917 2.94 2.94 0 0 0-.264-1.788.9.9 0 0 0-.813-.529" data-name="Fill 68"/>
  <path fill="#a9adaf" d="M100.169 68.286a5 5 0 0 0-3.314 2.1 10.95 10.95 0 0 0-2.183 5.447 7.78 7.78 0 0 0 .821 4.839 2.41 2.41 0 0 0 2.218 1.307 5 5 0 0 0 3.216-2.041 10.9 10.9 0 0 0 2.2-5.274 8.07 8.07 0 0 0-.714-4.92 2.48 2.48 0 0 0-2.244-1.458" data-name="Fill 70"/>
  <path fill="#a4adaf" d="M99.534 72.135a2.13 2.13 0 0 0-1.461.893 4.3 4.3 0 0 0-.866 2.155 3.15 3.15 0 0 0 .349 1.98 1.22 1.22 0 0 0 1.12.636 2.13 2.13 0 0 0 1.415-.869 4.3 4.3 0 0 0 .871-2.086 3.26 3.26 0 0 0-.303-2.009 1.24 1.24 0 0 0-1.125-.7" data-name="Fill 72"/>
  <path fill="#424242" d="M99.548 72.479a1.82 1.82 0 0 0-1.2.762 4 4 0 0 0-.794 1.98 2.83 2.83 0 0 0 .295 1.758.88.88 0 0 0 .806.476 1.82 1.82 0 0 0 1.17-.742 3.95 3.95 0 0 0 .8-1.916 2.93 2.93 0 0 0-.264-1.788.9.9 0 0 0-.813-.53" data-name="Fill 74"/>
  <path fill="#444" d="m18.699 80.134 3.476.561 9.247 5.557-.417 1.839v.01l-.006.03-.007.03-.022.116v.029l-.006.03v.029l-.005.028-.028.145v.029l-.006.028v.087l-.026.142v.058l-.015.085v.028l-.01.057v.028l-.005.028v.025l-.005.027v.277l-.02.137v.082l-.023.163v.056l-27.66-15.75c.126-1.051-.338-1.868 0-3.32" data-name="Fill 76"/>
  </symbol>
  <symbol id="oldlastbil" viewBox="0 0 111 105">
    <defs>
    <linearGradient id="b" x1=".384" x2=".384" y1="1" y2="-.507" gradientUnits="objectBoundingBox">
      <stop offset="0" stop-opacity="0"/>
      <stop offset="1" stop-opacity=".251"/>
    </linearGradient>
    <linearGradient id="a" x1=".5" x2=".5" y2="1" gradientUnits="objectBoundingBox">
      <stop offset="0" stop-color="#fff" stop-opacity=".251"/>
      <stop offset="1" stop-opacity=".251"/>
    </linearGradient>
    <linearGradient id="d" x1=".364" y1=".336" y2=".848" href="#a"/>
    <clipPath id="c">
      <path fill="#2f405c" d="M6.249 0C3.229 3.362.541 12.846 0 17.359l22.982 13.275a46.2 46.2 0 0 1 6.48-17.234Z"/>
    </clipPath>
  </defs>
  <g data-name="Group 83">
    <path fill="#3f4444" d="m85.801 70.685-11.71-6.758c5.105-7.044 15.1-.152 11.71 6.758" data-name="Fill 1"/>
    <path fill="#3f4444" d="m100.729 62.068-11.71-6.758c5.105-7.044 15.1-.152 11.71 6.758" data-name="Fill 3"/>
    <path d="M72.552 68.258c-1.7 3.11-2.97 8.4.75 10.526l3.218 1.844c-3.74-3.074-.364-15.8 5.942-14.123l-3.178-1.834c-2.545-1.475-5.471 1.469-6.732 3.587" data-name="Fill 5"/>
    <path d="M87.587 59.577c-1.7 3.109-2.97 8.4.75 10.527l3.218 1.842c-3.739-3.074-.364-15.804 5.942-14.122l-3.178-1.834c-2.545-1.475-5.471 1.469-6.732 3.587" data-name="Fill 7"/>
    <path fill="#3b4043" d="M55.557 88.149 25.942 71.055v-11.4L55.557 76.75Z" data-name="Fill 9"/>
    <path fill="#c9b243" d="M52.992 79.339 20.236 60.672v-27.6l32.756 18.909Z" data-name="Fill 11"/>
    <g data-name="Fill 13">
      <path fill="#e2d14c" d="M20.236 33.072 77.517.001l32.549 18.792-57.074 33.188Z" data-name="Fill 13"/>
      <path fill="url(#b)" d="M0 33.071 57.281 0 89.83 18.792 32.756 51.98Z" data-name="Fill 13" style="mix-blend-mode:multiply;isolation:isolate" transform="translate(20.236 .001)"/>
    </g>
    <path fill="#262828" d="M80.451 65.987a5.88 5.88 0 0 0-4.146 2.451 10.97 10.97 0 0 0-2.212 5.489 8.24 8.24 0 0 0 .955 5.233 3.87 3.87 0 0 0 3.541 1.958 5.9 5.9 0 0 0 4.01-2.391 10.9 10.9 0 0 0 2.223-5.314 8.5 8.5 0 0 0-.826-5.281 3.89 3.89 0 0 0-3.545-2.145" data-name="Fill 15"/>
    <path fill="#a9adaf" d="M80.553 67.834a4.17 4.17 0 0 0-2.764 1.75 9.14 9.14 0 0 0-1.823 4.545 6.5 6.5 0 0 0 .686 4.038 2.01 2.01 0 0 0 1.851 1.091 4.17 4.17 0 0 0 2.682-1.7 9.1 9.1 0 0 0 1.832-4.4 6.73 6.73 0 0 0-.6-4.106 2.07 2.07 0 0 0-1.864-1.218" data-name="Fill 17"/>
    <path fill="#a4adaf" d="M80.024 71.044a1.78 1.78 0 0 0-1.218.745 3.6 3.6 0 0 0-.722 1.8 2.62 2.62 0 0 0 .29 1.651 1.02 1.02 0 0 0 .935.532 1.78 1.78 0 0 0 1.18-.728 3.6 3.6 0 0 0 .727-1.741 2.72 2.72 0 0 0-.255-1.674 1.03 1.03 0 0 0-.937-.585" data-name="Fill 19"/>
    <path fill="#424242" d="M80.035 71.331a1.52 1.52 0 0 0-1 .635 3.33 3.33 0 0 0-.667 1.654 2.35 2.35 0 0 0 .25 1.467.73.73 0 0 0 .672.395 1.5 1.5 0 0 0 .974-.618 3.3 3.3 0 0 0 .667-1.6 2.45 2.45 0 0 0-.217-1.49.75.75 0 0 0-.679-.443" data-name="Fill 21"/>
    <path fill="#262828" d="M95.486 57.305a5.88 5.88 0 0 0-4.146 2.452 10.96 10.96 0 0 0-2.212 5.489 8.24 8.24 0 0 0 .955 5.233 3.87 3.87 0 0 0 3.541 1.957 5.9 5.9 0 0 0 4.01-2.39 10.9 10.9 0 0 0 2.223-5.314 8.5 8.5 0 0 0-.826-5.281 3.9 3.9 0 0 0-3.545-2.146" data-name="Fill 23"/>
    <path fill="#a9adaf" d="M95.589 59.151a4.18 4.18 0 0 0-2.765 1.75 9.14 9.14 0 0 0-1.822 4.55 6.48 6.48 0 0 0 .686 4.037 2.01 2.01 0 0 0 1.851 1.091 4.16 4.16 0 0 0 2.681-1.7 9.06 9.06 0 0 0 1.833-4.4 6.73 6.73 0 0 0-.6-4.1 2.07 2.07 0 0 0-1.864-1.228" data-name="Fill 25"/>
    <path fill="#a4adaf" d="M95.059 62.362a1.78 1.78 0 0 0-1.218.746 3.6 3.6 0 0 0-.722 1.8 2.63 2.63 0 0 0 .291 1.654 1.02 1.02 0 0 0 .934.53 1.78 1.78 0 0 0 1.18-.73 3.6 3.6 0 0 0 .727-1.74 2.7 2.7 0 0 0-.255-1.674 1.03 1.03 0 0 0-.937-.586" data-name="Fill 27"/>
    <path fill="#424242" d="M95.07 62.65a1.52 1.52 0 0 0-1 .635 3.3 3.3 0 0 0-.667 1.653 2.36 2.36 0 0 0 .249 1.468.73.73 0 0 0 .673.395 1.5 1.5 0 0 0 .974-.618 3.3 3.3 0 0 0 .667-1.6 2.45 2.45 0 0 0-.217-1.49.75.75 0 0 0-.679-.443" data-name="Fill 29"/>
    <path fill="#3f4444" d="m46.937 93.122-11.711-6.757c5.105-7.046 15.1-.154 11.711 6.757" data-name="Fill 31"/>
    <path d="M33.635 90.73c-1.7 3.109-2.97 8.4.75 10.527l3.218 1.843c-3.739-3.074-.363-15.805 5.943-14.123l-3.179-1.834c-2.545-1.472-5.47 1.472-6.732 3.59" data-name="Fill 33"/>
    <path fill="#262828" d="M41.534 88.458a5.88 5.88 0 0 0-4.146 2.452 11 11 0 0 0-2.212 5.489 8.24 8.24 0 0 0 .955 5.233 3.87 3.87 0 0 0 3.541 1.958 5.88 5.88 0 0 0 4.01-2.391 10.9 10.9 0 0 0 2.223-5.314 8.5 8.5 0 0 0-.827-5.281 3.89 3.89 0 0 0-3.544-2.146" data-name="Fill 35"/>
    <path fill="#a9adaf" d="M41.637 90.305a4.18 4.18 0 0 0-2.765 1.75 9.14 9.14 0 0 0-1.822 4.55 6.5 6.5 0 0 0 .686 4.038 2.01 2.01 0 0 0 1.85 1.09 4.17 4.17 0 0 0 2.682-1.7 9.07 9.07 0 0 0 1.833-4.4 6.74 6.74 0 0 0-.6-4.1 2.07 2.07 0 0 0-1.864-1.228" data-name="Fill 37"/>
    <path fill="#a4adaf" d="M41.107 93.516a1.78 1.78 0 0 0-1.218.745 3.6 3.6 0 0 0-.722 1.8 2.62 2.62 0 0 0 .291 1.65 1.02 1.02 0 0 0 .934.531 1.78 1.78 0 0 0 1.18-.726 3.6 3.6 0 0 0 .726-1.741 2.7 2.7 0 0 0-.254-1.674 1.03 1.03 0 0 0-.937-.585" data-name="Fill 39"/>
    <path fill="#424242" d="M41.119 93.803a1.52 1.52 0 0 0-1 .636 3.3 3.3 0 0 0-.667 1.653 2.36 2.36 0 0 0 .249 1.467.73.73 0 0 0 .672.395 1.5 1.5 0 0 0 .975-.618 3.3 3.3 0 0 0 .667-1.6 2.45 2.45 0 0 0-.217-1.49.75.75 0 0 0-.679-.443" data-name="Fill 41"/>
    <path fill="#5c6163" d="m35.007 65.487 14.186-8.19V91.82l-2.256 1.3a8.1 8.1 0 0 0-.977-3.023 4.91 4.91 0 0 0-4.467-2.652 6.85 6.85 0 0 0-4.9 2.832 12 12 0 0 0-2.426 6 10.4 10.4 0 0 0 .29 4.043l-7.197 4.161.079-18.9c.021-5.526 4.146-16.575 7.658-20.084Z" data-name="Fill 43"/>
    <g data-name="Fill 45">
      <path fill="#21314b" d="M46.553 60.536v12.838L28.928 83.562c.8-5.293 3.983-13.726 6.928-16.808Z" data-name="Fill 45"/>
      <path fill="url(#a)" d="M17.625 0v12.838L0 23.026C.8 17.733 3.983 9.3 6.928 6.218Z" data-name="Fill 45" style="mix-blend-mode:multiply;isolation:isolate" transform="translate(28.928 60.536)"/>
    </g>
    <path fill="#c6cdd1" d="m35.007 65.487 14.185-8.19-26.383-15.232-14.185 8.189Z" data-name="Fill 47"/>
    <path fill="#b3b9bc" d="m1.207 61.346-.965.507a.37.37 0 0 1 .305.047l2.032 1.163a1.32 1.32 0 0 1 .547 1.051l-.013 5.864a.65.65 0 0 1-.191.472l.908-.524c.228-.133.24-.173.248-.461l.013-5.859c0-.539-.054-.767-.547-1.055-.672-.393-1.355-.776-2.031-1.164-.147-.084-.208-.092-.306-.041" data-name="Fill 49"/>
    <path fill="#71777a" d="M2.579 63.063.547 61.9c-.3-.17-.547.022-.547.429v5.484c0 .812.041 1.167.547 1.456l2.032 1.162c.305.17.533-.043.534-.453l.013-5.859c0-.585-.086-.791-.547-1.056" data-name="Fill 51"/>
    <path fill="#f2f2f2" d="M8.83 52.631C5.81 55.993 3.122 65.477 2.581 69.99l22.982 13.275a46.2 46.2 0 0 1 6.48-17.234Z" data-name="Fill 53"/>
    <g data-name="Fill 42 + Fill 46 Mask">
      <path fill="#2f405c" d="M8.83 52.631C5.81 55.993 3.122 65.477 2.581 69.99l22.982 13.275a46.2 46.2 0 0 1 6.48-17.234Z" data-name="Mask"/>
      <g clip-path="url(#c)" data-name="Fill 42 + Fill 46 Mask" transform="translate(2.581 52.631)">
        <path fill="#276379" d="M12.432 24.642c-12.968-7.487-15-8-15-8S2.42-.632 5.42-1.631s1.422.737 14 8a40.4 40.4 0 0 0-6.988 18.273" data-name="Fill 42" opacity=".5"/>
        <path fill="#327f93" d="M2.41 13.32c.406.615 8.318 5.789 9.021 5.322s1.325-4.799.865-5.001-.733 1.176-1.8.997-1.235-.704-1.997-1.204-1.5-.349-2.212-.667a2.36 2.36 0 0 1-1.204-1.665 1.217 1.217 0 0 0-1.845-.539c-.498.542-1.232 2.142-.827 2.757" data-name="Fill 46" opacity=".5"/>
      </g>
    </g>
    <path fill="#92989b" d="M27.264 104.481.464 89.207l.079-18.711a43 43 0 0 1 2.682-11.059c1.784-4.883 3.752-8.231 5.4-9.183l26.382 15.233c-1.635 1.629-3.558 5.1-5.143 9.286a34.8 34.8 0 0 0-2.525 10.809l-.079 18.9ZM8.831 52.632c-1.34 1.492-2.78 4.422-4.054 8.248a52 52 0 0 0-2.195 9.111l22.982 13.275a46.15 46.15 0 0 1 6.48-17.233Z" data-name="Fill 55"/>
    <path fill="#a9adaf" d="M27.288 99.122.497 83.815.47 89.21l26.79 15.271Z" data-name="Fill 57"/>
    <path fill="#cbcbcb" d="M23.528 13.256.825.16C.173-.215 0 .109 0 .724v2.353a1.04 1.04 0 0 0 .448.829l24.825 14.316c.627.361.833.086.84-.55v-2.356a1.05 1.05 0 0 0-.454-.831Z" data-name="Fill 59" style="mix-blend-mode:multiply;isolation:isolate" transform="translate(.864 78.437)"/>
    <path fill="#7b7e80" d="m27.288 99.121 7.091-4.1a12 12 0 0 0-.213 1.262 10.4 10.4 0 0 0 .294 4.038l-7.2 4.16Z" data-name="Fill 63"/>
    <path fill="#fff" d="m19.261 99.363 7.4 4.271v-4.073l-7.4-4.27Z" data-name="Fill 65"/>
    <path fill="#feef7c" d="M19.653 99.137v-3.166l6.612 3.818.005 3.165Z" data-name="Fill 67"/>
    <path fill="#a1a7a9" d="m31.025 79.881-1.028.519a.4.4 0 0 1 .325.042l2.164 1.124a1.26 1.26 0 0 1 .583 1.039v5.689a.51.51 0 0 1-.178.436l.949-.482c.242-.136.248-.192.257-.478v-5.688c0-.537-.057-.762-.582-1.04-.718-.381-1.444-.749-2.164-1.125-.154-.081-.221-.088-.326-.036" data-name="Fill 69"/>
    <path fill="#83898c" d="m32.487 81.566-2.165-1.124c-.319-.166-.582.029-.582.434v4.337l-.828-.43v2.1l2.742 1.413.833.433c.32.165.583-.03.583-.435v-5.688c0-.582-.092-.785-.583-1.04" data-name="Fill 71"/>
    <path fill="#fff" d="m1.041 88.845 7.4 4.271v-4.074l-7.4-4.27Z" data-name="Fill 73"/>
    <path fill="#feef7c" d="M1.433 88.617v-3.166l6.612 3.817.005 3.165Z" data-name="Fill 75"/>
    <path fill="#444" d="m13.412 73.396 3.519.567 9.362 5.627-.422 1.862v.01l-.006.03-.007.03-.023.118-.005.029-.006.031v.029l-.006.029-.027.146v.029l-.006.029v.03l-.005.029v.029l-.027.144v.058l-.016.087v.028l-.01.058-.005.028v.053l-.005.028v.057l-.005.029v.056l-.005.029v.053l-.005.028v.029l-.021.139v.083l-.024.165v.057L2.582 69.99a21 21 0 0 1 .538-2.906" data-name="Fill 77"/>
    <path fill="#71777a" d="m55.557 88.149 17.868-10.317a10.4 10.4 0 0 1-.286-4.014 11.93 11.93 0 0 1 2.418-5.976 6.8 6.8 0 0 1 4.861-2.811 4.86 4.86 0 0 1 4.416 2.623 8.1 8.1 0 0 1 .972 3.032l2.761-1.594a10.3 10.3 0 0 1-.276-3.943 11.83 11.83 0 0 1 2.391-5.917 6.7 6.7 0 0 1 4.775-2.768 4.74 4.74 0 0 1 4.313 2.566 8 8 0 0 1 .963 3.038l6.158-3.553v-11.4L55.557 76.75Z" data-name="Fill 79"/>
    <g data-name="Fill 81">
      <path fill="#bba733" d="m52.992 79.339 56.787-32.951.287-27.595-57.074 33.188Z" data-name="Fill 81"/>
      <path fill="url(#d)" d="m0 60.546 56.787-32.951L57.074 0 0 33.188Z" data-name="Fill 81" style="mix-blend-mode:multiply;isolation:isolate" transform="translate(52.992 18.793)"/>
    </g>
  </g>
  </symbol>
  <symbol id="oldmotorcykel" viewBox="0 0 54 54">
    <defs>
    <clipPath id="clip-path">
      <path id="Clip_2" data-name="Clip 2" d="M0,0H17.668V20.879H0Z" transform="translate(0.038 0.974)" fill="none"/>
    </clipPath>
    <clipPath id="clip-path-2">
      <path id="Clip_13" data-name="Clip 13" d="M0,0H17.668V20.879H0Z" transform="translate(0 0.021)" fill="none"/>
    </clipPath>
    <linearGradient id="linear-gradient" x1="0.5" x2="0.5" y2="1" gradientUnits="objectBoundingBox">
      <stop offset="0" stop-color="#fff" stop-opacity="0.251"/>
      <stop offset="1" stop-opacity="0.251"/>
    </linearGradient>
  </defs>
  <g id="Group_45" data-name="Group 45" transform="translate(3 4)">
    <g id="Group_3" data-name="Group 3" transform="translate(30.7 6.883)">
      <path id="Clip_2-2" data-name="Clip 2" d="M0,0H17.668V20.879H0Z" transform="translate(0.038 0.974)" fill="none"/>
      <g id="Group_3-2" data-name="Group 3" clip-path="url(#clip-path)">
        <path id="Fill_1" data-name="Fill 1" d="M16.019,2.456l.011,0A11.086,11.086,0,0,0,11.349.031a6.332,6.332,0,0,0-3.866.99A16.539,16.539,0,0,0,0,13.978a5.81,5.81,0,0,0,1.519,4.341,14.785,14.785,0,0,0,3.55,2.158l-.018-.018c1.341.691,3.145.553,5.136-.6A16.536,16.536,0,0,0,17.668,6.906a5.677,5.677,0,0,0-1.649-4.451" transform="translate(0.038 0.974)" fill="#424242"/>
      </g>
    </g>
    <path id="Fill_4" data-name="Fill 4" d="M4.907.671A10.845,10.845,0,0,0,0,9.17C0,12.3,2.2,13.568,4.907,12A10.85,10.85,0,0,0,9.815,3.5c0-3.131-2.2-4.4-4.908-2.834" transform="translate(36.015 12.745)" fill="#a9adaf"/>
    <path id="Fill_6" data-name="Fill 6" d="M.974.133A2.152,2.152,0,0,0,0,1.819c0,.62.436.872.974.561A2.153,2.153,0,0,0,1.947.695c0-.62-.437-.872-.974-.562" transform="translate(39.949 17.825)" fill="#424242"/>
    <path id="Fill_8" data-name="Fill 8" d="M12.191.852A12.424,12.424,0,0,0,8.166.01C5.867-.068,1.946.261,0,2.06a3.7,3.7,0,0,1,.415.574C2.955,7.206,1.792,10.8,1.792,10.8l6.009,3.3,4.64-8.57a23.321,23.321,0,0,1-.25-4.672" transform="translate(12.232 24.222)" fill="#11315b"/>
    <path id="Fill_10" data-name="Fill 10" d="M29.943,4.826c-4.332,5.089-6.338,6.806-8.429,8.012a8.885,8.885,0,0,0-6.424.661c-2.3,1.544-.383-.587-.383-.587L8.995,9.82C.7,18.4,0,26.985,0,26.985s6.519-3.627,9.822-1.4c2-1.861,5.736-2.495,8.176-2.412a16.383,16.383,0,0,1,4.825.887c.267-3.035,1.214-6.66,3.919-9.236C32.271,9.561,37.2,9.647,37.2,9.647l6.863-6.8L38.949,0s-4.673-.265-9.006,4.824" transform="translate(1.665 0)" fill="#2c76d4"/>
    <g id="Group_14" data-name="Group 14" transform="translate(0 25.583)">
      <path id="Clip_13-2" data-name="Clip 13" d="M0,0H17.668V20.879H0Z" transform="translate(0 0.021)" fill="none"/>
      <g id="Group_14-2" data-name="Group 14" clip-path="url(#clip-path-2)">
        <path id="Fill_12" data-name="Fill 12" d="M16.019,2.455l.011,0A11.086,11.086,0,0,0,11.349.031a6.34,6.34,0,0,0-3.866.99A16.539,16.539,0,0,0,0,13.978a5.81,5.81,0,0,0,1.519,4.341,14.807,14.807,0,0,0,3.55,2.158l-.018-.018c1.341.691,3.145.553,5.136-.6A16.536,16.536,0,0,0,17.668,6.906a5.677,5.677,0,0,0-1.649-4.451" transform="translate(-0.001 0.021)" fill="#424242"/>
      </g>
    </g>
    <path id="Fill_15" data-name="Fill 15" d="M4.907.671A10.845,10.845,0,0,0,0,9.17C0,12.3,2.2,13.568,4.907,12A10.852,10.852,0,0,0,9.814,3.5c0-3.131-2.2-4.4-4.907-2.834" transform="translate(5.278 30.492)" fill="#a9adaf"/>
    <path id="Fill_17" data-name="Fill 17" d="M1.3.177A2.87,2.87,0,0,0,0,2.427c0,.828.582,1.165,1.3.75A2.872,2.872,0,0,0,2.6.927C2.6.1,2.016-.237,1.3.177" transform="translate(8.886 35.152)" fill="#424242"/>
    <path id="Fill_19" data-name="Fill 19" d="M16.7,0c-.485-.06-.926.575-3.639,3.214S4.141,9.759,2.906,10.52C1.168,11.59-1.8,14.115,1.467,13.729S11.647,8.023,14.285,5.9,17.183.064,16.7,0" transform="translate(21.549 5.732)" fill="#444"/>
    <path id="Fill_21" data-name="Fill 21" d="M16.7,0c-.485-.06-.926.575-3.639,3.213S4.141,9.759,2.907,10.52c-1.739,1.07-4.709,3.595-1.44,3.209C2.528,13.6,4.483,15,6.22,14.5c3.615-1.053,7.543-4.486,9.325-5.92,1.612-1.3,5.409-4.286,5.618-5.573C21.3,2.181,16.887.027,16.7,0" transform="translate(17.234 2.942)" fill="#2e2e2e"/>
    <path id="Fill_23" data-name="Fill 23" d="M10.735.182A7.427,7.427,0,0,0,5.717.806C.114,4-.507,7.439.273,8.18s4.746,4.324,8.22,3.26c4.009-1.8,7.879-6.732,7.546-8.262-1.316-2.017-4.928-2.947-5.3-3" transform="translate(11.484 12.195)" fill="#424242"/>
    <path id="Fill_25" data-name="Fill 25" d="M5.593.672C1.5,2.843.456,5.089.019,6.734c-.276,1.041,2.436,4.539,6.614,2.913,4.444-1.992,7.852-7.2,6.63-8.1A6.833,6.833,0,0,0,9.224,0,7.686,7.686,0,0,0,5.593.672" transform="translate(14.043 13.735)" fill="#424242"/>
    <path id="Fill_27" data-name="Fill 27" d="M11.1.182A7.435,7.435,0,0,0,6.079.806C3.5,1.959,2.384,3.122.374,5.558-.727,6.944.5,10.309,5.383,8.122S13.207.46,11.1.182" transform="translate(15.992 15.007)" fill="#2a2929"/>
    <path id="Fill_29" data-name="Fill 29" d="M30.616,3.359c.661,4.671-9.379,10.878-11.1,11.948a12.883,12.883,0,0,1-4.019,4.237,9.913,9.913,0,0,1-6.534.879C4.7,19.085,8.59,10.539,8.59,10.539.3,19.122,0,26.971,0,26.971s8.44-4.7,10.98-.13a13.055,13.055,0,0,1,1.271,9.1l12.935-7.377S22.166,18.149,29.067,10.6C35.364,4,37.4,5.1,37.4,5.1l.547-4.62s-3-2.206-7.331,2.883" transform="translate(7.782 2.374)" fill="#1d539a"/>
    <path id="Fill_31" data-name="Fill 31" d="M.841.323A14.033,14.033,0,0,0,0,4.1L6.117,6.458S6.731,2.329,7.96,1.294,1.068-.441.841.323" transform="translate(1.665 22.887)" fill="#2c76d4"/>
    <path id="Fill_33" data-name="Fill 33" d="M.822,2.856A22.877,22.877,0,0,0,0,5.334c.121.4,4.143,2.425,6.988,1.489a9.144,9.144,0,0,0,4.468-3.774L2.158,0S1.391,1.473.822,2.856" transform="translate(2.506 17.876)" fill="#feef7c"/>
    <path id="Fill_35" data-name="Fill 35" d="M10.282.459C8.923-.317,6.591-.673,3.489,4.18A37.515,37.515,0,0,0,0,10.261s2.27,3.115,11,1.322c0,0-.221-4.739,1.523-7.658.5-.731-.882-2.689-2.241-3.466" transform="translate(3.904 9.166)" fill="#2c76d4"/>
    <g id="Fill_37" data-name="Fill 37">
      <path id="Fill_37-2" data-name="Fill 37" d="M0,8.426C.941,10.9,8.747,10.3,8.747,10.3a15.686,15.686,0,0,1,2.818-7.356C10.656.762,8.35-.834,5.783.471S0,8.426,0,8.426Z" transform="translate(4.824 9.123)" fill="#2f405c"/>
      <path id="Fill_37-3" data-name="Fill 37" d="M0,8.426C.941,10.9,8.747,10.3,8.747,10.3a15.686,15.686,0,0,1,2.818-7.356C10.656.762,8.35-.834,5.783.471S0,8.426,0,8.426Z" transform="translate(4.824 9.123)" fill="url(#linear-gradient)" style="mix-blend-mode: multiply;isolation: isolate"/>
    </g>
    <path id="Fill_37_Copy" data-name="Fill 37 Copy" d="M0,8.426C7.276.777,11.565,2.949,11.565,2.949,10.656.762,8.35-.834,5.783.471S0,8.426,0,8.426Z" transform="translate(4.824 9.123)" fill="#276379" opacity="0.5"/>
    <path id="Fill_39" data-name="Fill 39" d="M2.629.26A2.412,2.412,0,0,0,.451.26C.188.412,0,.541,0,.541V.98a.756.756,0,0,0,.451.639,2.4,2.4,0,0,0,2.178,0A.764.764,0,0,0,3.08.991c0-.012,0-.437,0-.437A4.206,4.206,0,0,0,2.629.26" transform="translate(18.291 13.752)" fill="#3b3b3b"/>
    <path id="Fill_41" data-name="Fill 41" d="M2.629.261a2.4,2.4,0,0,0-2.178,0,.664.664,0,0,0,0,1.257,2.4,2.4,0,0,0,2.178,0,.664.664,0,0,0,0-1.257" transform="translate(18.291 13.405)" fill="#616565"/>
    <path id="Fill_43" data-name="Fill 43" d="M2,.2A1.825,1.825,0,0,0,.342.2a.5.5,0,0,0,0,.955A1.831,1.831,0,0,0,2,1.153.5.5,0,0,0,2,.2" transform="translate(18.662 13.619)" fill="#353535"/>
  </g>
  </symbol>
  <symbol id="oldbil" viewBox="0 0 100 71">
    <defs>
    <linearGradient id="d" x1=".256" x2=".614" y1=".854" gradientUnits="objectBoundingBox">
      <stop offset="0" stop-opacity="0"/>
      <stop offset="1" stop-opacity=".251"/>
    </linearGradient>
    <linearGradient id="a" x1=".5" x2=".5" y2="1" gradientUnits="objectBoundingBox">
      <stop offset="0" stop-color="#fff" stop-opacity=".251"/>
      <stop offset="1" stop-opacity=".251"/>
    </linearGradient>
    <linearGradient id="e" x1=".366" x2=".623" y1="-.245" y2="1.623" href="#a"/>
    <clipPath id="c">
      <path fill="#2f405c" d="M10.75.875C9.015 2.329 0 12.768 0 12.768s5.079 10.815 24.281 12.427c1.241-.309 9.073-15.222 9.073-15.222L13.188.265s-.7-.844-2.438.61"/>
    </clipPath>
    <clipPath id="g">
      <path fill="#2f405c" d="M12 .624c-1.048-.191-7.6.491-12 2.111 0 0 12.684 4.32 19.367 11.706a37.3 37.3 0 0 0 6.716-1.758 38 38 0 0 0 3.965-1.679A33.46 33.46 0 0 0 12 .624" data-name="Mask"/>
    </clipPath>
    <path id="b" fill="#2f405c" d="M31.887 18.505c-1.735 1.454-10.75 11.893-10.75 11.893s5.079 10.815 24.281 12.427c1.241-.309 9.073-15.222 9.073-15.222l-20.166-9.708s-.7-.844-2.438.61"/>
    <path id="f" fill="#2f405c" d="M70.548 2.624c-1.048-.191-7.6.491-12 2.111 0 0 12.684 4.32 19.367 11.706a37.3 37.3 0 0 0 6.716-1.758 38 38 0 0 0 3.965-1.679 33.46 33.46 0 0 0-18.048-10.38"/>
  </defs>
  <g data-name="Group 46">
    <use data-name="Fill 1" href="#b"/>
    <g data-name="Fill 42 + Fill 46 Mask">
      <use data-name="Mask" href="#b"/>
      <g clip-path="url(#c)" data-name="Fill 42 + Fill 46 Mask" transform="translate(21.137 17.63)">
        <path fill="#276379" d="M10.863 22.37c-3.002-1.001-12-10-12-10s9-13 12-14 .416-.262 12.998 7.003A153.5 153.5 0 0 0 10.863 22.37" data-name="Fill 42" opacity=".5"/>
        <path fill="#327f93" d="M3.856 13.32c.405.616 7.304 5.517 8.007 5.05a7.84 7.84 0 0 0 2-4c0-1-.856.448-1.923.269s-1.234-.704-1.996-1.203-1.5-.35-2.213-.668a2.36 2.36 0 0 1-1.204-1.665c-.207-.684-2.17-.272-2.664.267a1.58 1.58 0 0 0-.007 1.95" data-name="Fill 46" opacity=".5"/>
      </g>
    </g>
    <path fill="#f56c6f" d="M21.137 29.518C3.041 39.309.873 51.011 1.256 52.583c1.507 3.531 23.278 16.672 27.288 16.823l17.13-26.985c-27.644-7.54-21.6-14.6-24.537-12.9" data-name="Fill 3"/>
    <path fill="#0c0c0c" d="M88.024 25.977a14.17 14.17 0 0 0-6.414 11.108c0 1.987.678 3.4 1.781 4.092.085.054 3.265 1.886 3.265 1.886s-2.587-2.6-.9-3.578a14.18 14.18 0 0 0 6.414-11.11c0-1.984 3.412-1.1 3.412-1.1s-3.061-1.774-3.134-1.808c-1.149-.6-2.709-.48-4.424.51" data-name="Fill 5"/>
    <path fill="#0c0c0c" d="M41.689 52.729a14.18 14.18 0 0 0-6.414 11.108c0 1.987.678 3.4 1.781 4.093.085.054 3.265 1.885 3.265 1.885s-2.587-2.6-.9-3.578a14.18 14.18 0 0 0 6.414-11.11c0-1.984 3.412-1.1 3.412-1.1s-3.061-1.774-3.134-1.808c-1.15-.6-2.709-.48-4.424.51" data-name="Fill 7"/>
    <g data-name="Fill 9">
      <path fill="#f56c6f" d="M75.036 0c-1.192.148-5.19 1.961-6.4 2.241-2.11.49-4.8.821-6.636 1.29-1.517.386-4.617.966-4.92 1.067C45.724 8.387 37.993 13.9 34.269 16.161c0 0-7.164 7.064-13.133 13.357l1.1.793s7.624-9.566 11.18-12.142l19.307 11.472 1.134.688.818-.688 42.751-16.952C89.85 4.5 77.328-.069 75.036 0" data-name="Fill 9"/>
      <path fill="url(#d)" d="M53.9 0c-1.192.148-5.19 1.961-6.4 2.241-2.11.49-4.8.821-6.636 1.29-1.517.386-4.617.966-4.92 1.067C24.588 8.387 16.857 13.9 13.133 16.161c0 0-7.164 7.064-13.133 13.357l1.1.793s7.624-9.566 11.18-12.142l19.307 11.472 1.134.688.818-.688L76.29 12.689C68.714 4.5 56.192-.069 53.9 0" data-name="Fill 9" style="mix-blend-mode:multiply;isolation:isolate" transform="translate(21.136)"/>
    </g>
    <path fill="#202025" d="m43.026 52.761 8.527 5.065 1.266-2.3-3.329-4.711Z" data-name="Fill 11"/>
    <path fill="#202025" d="m89.253 24.893 8.527 5.065 1.266-2.3-3.33-4.711Z" data-name="Fill 13"/>
    <path fill="#c84548" d="M90.425 13.984a21.9 21.9 0 0 1-6.855 2.644c-6.12 1.371-7.377.686-8.3 1.02-4.18 1.512-14.76 5.788-22.546 11.993a90 90 0 0 0-7.43 12.206c-.66 2.168-16.37 11.096-17.614 26.673-.048 1.412 3.913 1.719 8.549-1.349.29-.192.78-.5 1.445-.916 0 0-1.375-7.341 6.433-12.064s7.445 3.635 7.445 3.635c9.933-5.983 22.665-13.607 32.186-19.3.431-3.174 1.872-8.85 7.306-11.417s6.736 2.849 6.736 2.849c.7-.812.79-.755 1.462-1.642 1.523-2.465-.888-14.886-1.784-15.6-1.971-1.581-4.536-.244-7.033 1.268" data-name="Fill 15"/>
    <path fill="#262828" d="M44.708 54.477a14.18 14.18 0 0 0-6.413 11.108c0 4.089 2.871 5.748 6.413 3.7a14.18 14.18 0 0 0 6.414-11.105c0-4.09-2.872-5.747-6.414-3.7" data-name="Fill 17"/>
    <path fill="#c3c3c4" d="M44.708 57.444a8.5 8.5 0 0 0-3.844 6.658c0 2.451 1.722 3.444 3.844 2.217a8.49 8.49 0 0 0 3.844-6.656c0-2.451-1.72-3.444-3.844-2.219" data-name="Fill 19"/>
    <path fill="#262828" d="M91.044 27.726a14.18 14.18 0 0 0-6.413 11.108c0 4.09 2.871 5.747 6.413 3.7a14.18 14.18 0 0 0 6.414-11.105c0-4.09-2.871-5.748-6.414-3.7" data-name="Fill 21"/>
    <path fill="#c3c3c4" d="M91.044 30.692a8.5 8.5 0 0 0-3.843 6.658c0 2.451 1.721 3.445 3.843 2.217a8.49 8.49 0 0 0 3.845-6.655c0-2.451-1.721-3.445-3.845-2.22" data-name="Fill 23"/>
    <g data-name="Fill 25">
      <path fill="#21314b" d="M56.319 29.64c-2.763 2.945-7.073 13.423-7.073 13.423s8.888-4.786 17.5-10.1a23.1 23.1 0 0 0-2.345-8.654c-4.368 2.388-7.618 4.722-8.082 5.331" data-name="Fill 25"/>
      <path fill="url(#a)" d="M7.073 5.331C4.31 8.276 0 18.754 0 18.754s8.888-4.786 17.5-10.1A23.1 23.1 0 0 0 15.155 0c-4.368 2.388-7.618 4.722-8.082 5.331" data-name="Fill 25" style="mix-blend-mode:multiply;isolation:isolate" transform="translate(49.246 24.309)"/>
    </g>
    <g data-name="Fill 27">
      <path fill="#21314b" d="M74.562 19.818a58.4 58.4 0 0 0-8.666 3.697 23.6 23.6 0 0 1 2.42 8.466c8.014-5.034 15.292-10.307 14.274-12.312-.527-1-3.749-.9-8.028.149" data-name="Fill 27"/>
      <path fill="url(#e)" d="M8.666.844A58.4 58.4 0 0 0 0 4.541a23.6 23.6 0 0 1 2.42 8.466C10.434 7.973 17.712 2.7 16.694.695c-.527-1-3.749-.9-8.028.149" data-name="Fill 27" style="mix-blend-mode:multiply;isolation:isolate" transform="translate(65.896 18.974)"/>
    </g>
    <use data-name="Fill 29" href="#f"/>
    <g data-name="Fill 42">
      <use data-name="Mask" href="#f"/>
      <g clip-path="url(#g)" data-name="Fill 42" transform="translate(58.548 2)">
        <path fill="#276379" d="M8.452 11C5.451 9.999-2.47 3.654-2.47 3.654S9.454-2.001 12.456-3s.414.735 12.996 8c0 0-11 0-17 6" data-name="Fill 42" opacity=".5"/>
      </g>
    </g>
    <path fill="#fff" d="M27.356 58.157c.226-1.912-.958-2.874-2.643-2.149a6.52 6.52 0 0 0-3.461 4.774c-.228 1.911.957 2.874 2.643 2.149a6.52 6.52 0 0 0 3.461-4.774" data-name="Fill 31"/>
    <path fill="#feef7c" d="M26.596 58.484c.174-1.477-.737-2.22-2.037-1.66a5.03 5.03 0 0 0-2.679 3.687c-.175 1.477.74 2.221 2.042 1.661a5.04 5.04 0 0 0 2.674-3.688" data-name="Fill 33"/>
    <path fill="#fff" d="M3.761 49.83c-.35 1.84.763 2.82 2.485 2.188a6.57 6.57 0 0 0 3.751-4.477c.352-1.84-.76-2.82-2.483-2.188a6.56 6.56 0 0 0-3.753 4.477" data-name="Fill 35"/>
    <path fill="#feef7c" d="M4.538 49.545c-.263 1.382.573 2.118 1.866 1.643a4.93 4.93 0 0 0 2.819-3.362c.267-1.387-.573-2.117-1.867-1.643a4.93 4.93 0 0 0-2.818 3.362" data-name="Fill 37"/>
    <path fill="#bcbcbd" d="M27.919 66.554c-.892-.086-5.63.226-16.622-7.039-4.734-3.129-7.616-4.609-8.81-6.376a4.69 4.69 0 0 1-.569-4.453S-5.757 53.543 9.6 62.838c12.2 7.193 17.33 9.265 24.1 5.724 0 0-4.866.338-5.783-2.008" data-name="Fill 39"/>
    <path fill="#424242" d="M45.327 59.776a1.55 1.55 0 0 0-1.027.651 3.4 3.4 0 0 0-.678 1.69 2.4 2.4 0 0 0 .255 1.5.75.75 0 0 0 .688.4 1.55 1.55 0 0 0 1-.633 3.4 3.4 0 0 0 .682-1.636 2.5 2.5 0 0 0-.226-1.52.77.77 0 0 0-.694-.452" data-name="Fill 42"/>
    <path fill="#424242" d="M91.727 32.644a1.55 1.55 0 0 0-1.027.651 3.4 3.4 0 0 0-.678 1.69 2.4 2.4 0 0 0 .255 1.5.75.75 0 0 0 .688.4 1.55 1.55 0 0 0 1-.633 3.4 3.4 0 0 0 .682-1.636 2.5 2.5 0 0 0-.226-1.52.77.77 0 0 0-.694-.452" data-name="Fill 44"/>
  </g>
  </symbol>
</svg>