<svg xmlns="http://www.w3.org/2000/svg" viewBox="0 0 100 100" id="svg" style="--frame-c: #000000; --frame-bdw: 1em; background-color: rgb(64, 54, 63); --frame-asr: 100 / 100.;">
		<defs>
			<clipPath id="clipPath43451000">
				<rect width="16.666666666666668" height="16.666666666666668"></rect>
			</clipPath>
		</defs>
		<g transform="translate(0, 0)">
			
			<g transform="translate(0, 0)" clip-path="url(#clipPath43451000)">
				<rect width="16.666666666666668" height="16.666666666666668" fill="#A6A8AB"></rect>
				<circle cx="8.333333333333334" cy="16.666666666666668" r="8.333333333333334" fill="#4B4F52"></circle>
			</g>
			<g transform="translate(16.666666666666668, 0)" clip-path="url(#clipPath43451000)">
				<rect width="16.666666666666668" height="16.666666666666668" fill="#A6A8AB"></rect>
				<rect width="8.333333333333334" height="16.666666666666668" fill="#919497"></rect>
									<circle cx="8.333333333333334" cy="16.666666666666668" r="8.333333333333334" fill="#919497"></circle>;
									<circle cx="8.333333333333334" cy="0" r="8.333333333333334" fill="#A6A8AB"></circle>
			</g>
			<g transform="translate(33.333333333333336, 0)" clip-path="url(#clipPath43451000)">
				<rect width="16.666666666666668" height="16.666666666666668" fill="#919497"></rect>
				<rect width="8.333333333333334" height="16.666666666666668" fill="#A6A8AB"></rect>
									<circle cx="8.333333333333334" cy="16.666666666666668" r="8.333333333333334" fill="#A6A8AB"></circle>;
									<circle cx="8.333333333333334" cy="0" r="8.333333333333334" fill="#919497"></circle>
			</g>
			<g transform="translate(50, 0)" clip-path="url(#clipPath43451000)">
				<rect width="16.666666666666668" height="16.666666666666668" fill="#A6A8AB"></rect>
				<circle cx="16.666666666666668" cy="0" r="16.666666666666668" fill="#919497"></circle>
			</g>
			<g transform="translate(66.66666666666667, 0)" clip-path="url(#clipPath43451000)">
				<rect width="16.666666666666668" height="16.666666666666668" fill="#C1C3C5"></rect>
				<circle cx="0" cy="8.333333333333334" r="8.333333333333334" fill="#4B4F52"></circle>
									 <circle cx="16.666666666666668" cy="8.333333333333334" r="8.333333333333334" fill="#4B4F52"></circle>
			</g>
			<g transform="translate(83.33333333333334, 0)" clip-path="url(#clipPath43451000)">
				<rect width="16.666666666666668" height="16.666666666666668" fill="#919497"></rect>
				<rect width="16.666666666666668" height="8.333333333333334" fill="#6B6E70"></rect>
			</g>
			<g transform="translate(0, 16.666666666666668)" clip-path="url(#clipPath43451000)">
				<rect width="16.666666666666668" height="16.666666666666668" fill="#919497"></rect>
				<rect width="8.333333333333334" height="16.666666666666668" fill="#3A3C3F"></rect>
									<circle cx="8.333333333333334" cy="16.666666666666668" r="8.333333333333334" fill="#3A3C3F"></circle>;
									<circle cx="8.333333333333334" cy="0" r="8.333333333333334" fill="#919497"></circle>
			</g>
			<g transform="translate(16.666666666666668, 16.666666666666668)" clip-path="url(#clipPath43451000)">
				<rect width="16.666666666666668" height="16.666666666666668" fill="#C1C3C5"></rect>
				<circle cx="0" cy="0" r="16.666666666666668" fill="#919497"></circle>
			</g>
			<g transform="translate(33.333333333333336, 16.666666666666668)" clip-path="url(#clipPath43451000)">
				<rect width="16.666666666666668" height="16.666666666666668" fill="#919497"></rect>
				<circle cx="8.333333333333334" cy="16.666666666666668" r="8.333333333333334" fill="#3A3C3F"></circle>
			</g>
			<g transform="translate(50, 16.666666666666668)" clip-path="url(#clipPath43451000)">
				<rect width="16.666666666666668" height="16.666666666666668" fill="#C1C3C5"></rect>
				<rect width="8.333333333333334" height="16.666666666666668" fill="#4B4F52"></rect>
									<circle cx="8.333333333333334" cy="16.666666666666668" r="8.333333333333334" fill="#4B4F52"></circle>;
									<circle cx="8.333333333333334" cy="0" r="8.333333333333334" fill="#C1C3C5"></circle>
			</g>
			<g transform="translate(66.66666666666667, 16.666666666666668)" clip-path="url(#clipPath43451000)">
				<rect width="16.666666666666668" height="16.666666666666668" fill="#C1C3C5"></rect>
				<circle cx="16.666666666666668" cy="0" r="16.666666666666668" fill="#919497"></circle>
			</g>
			<g transform="translate(83.33333333333334, 16.666666666666668)" clip-path="url(#clipPath43451000)">
				<rect width="16.666666666666668" height="16.666666666666668" fill="#A6A8AB"></rect>
				<polygon points="16.666666666666668,0 16.666666666666668,16.666666666666668 0,16.666666666666668" fill="#4B4F52"></polygon>
			</g>
			<g transform="translate(0, 33.333333333333336)" clip-path="url(#clipPath43451000)">
				<rect width="16.666666666666668" height="16.666666666666668" fill="#2D2E30"></rect>
				<circle cx="8.333333333333334" cy="0" r="8.333333333333334" fill="#C1C3C5"></circle>
									 <circle cx="8.333333333333334" cy="16.666666666666668" r="8.333333333333334" fill="#C1C3C5"></circle>
			</g>
			<g transform="translate(16.666666666666668, 33.333333333333336)" clip-path="url(#clipPath43451000)">
				<rect width="16.666666666666668" height="16.666666666666668" fill="#919497"></rect>
				<circle cx="16.666666666666668" cy="8.333333333333334" r="8.333333333333334" fill="#3A3C3F"></circle>
			</g>
			<g transform="translate(33.333333333333336, 33.333333333333336)" clip-path="url(#clipPath43451000)">
				<rect width="16.666666666666668" height="16.666666666666668" fill="#919497"></rect>
				<circle cx="0" cy="0" r="8.333333333333334" fill="#C1C3C5"></circle>
			</g>
			<g transform="translate(50, 33.333333333333336)" clip-path="url(#clipPath43451000)">
				<rect width="16.666666666666668" height="16.666666666666668" fill="#787A7C"></rect>
				<circle cx="8.333333333333334" cy="0" r="8.333333333333334" fill="#4B4F52"></circle>
									 <circle cx="8.333333333333334" cy="16.666666666666668" r="8.333333333333334" fill="#4B4F52"></circle>
			</g>
			<g transform="translate(66.66666666666667, 33.333333333333336)" clip-path="url(#clipPath43451000)">
				<rect width="16.666666666666668" height="16.666666666666668" fill="#787A7C"></rect>
				<polygon points="16.666666666666668,0 16.666666666666668,16.666666666666668 0,16.666666666666668" fill="#4B4F52"></polygon>
			</g>
			<g transform="translate(83.33333333333334, 33.333333333333336)" clip-path="url(#clipPath43451000)">
				<rect width="16.666666666666668" height="16.666666666666668" fill="#C1C3C5"></rect>
				<rect width="8.333333333333334" height="16.666666666666668" fill="#4B4F52"></rect>
									<circle cx="8.333333333333334" cy="16.666666666666668" r="8.333333333333334" fill="#4B4F52"></circle>;
									<circle cx="8.333333333333334" cy="0" r="8.333333333333334" fill="#C1C3C5"></circle>
			</g>
			<g transform="translate(0, 50)" clip-path="url(#clipPath43451000)">
				<rect width="16.666666666666668" height="16.666666666666668" fill="#A6A8AB"></rect>
				<circle cx="0" cy="0" r="16.666666666666668" fill="#2D2E30"></circle>
			</g>
			<g transform="translate(16.666666666666668, 50)" clip-path="url(#clipPath43451000)">
				<rect width="16.666666666666668" height="16.666666666666668" fill="#A6A8AB"></rect>
				<circle cx="16.666666666666668" cy="8.333333333333334" r="8.333333333333334" fill="#919497"></circle>
			</g>
			<g transform="translate(33.333333333333336, 50)" clip-path="url(#clipPath43451000)">
				<rect width="16.666666666666668" height="16.666666666666668" fill="#2D2E30"></rect>
				<circle cx="0" cy="0" r="16.666666666666668" fill="#3A3C3F"></circle>
			</g>
			<g transform="translate(50, 50)" clip-path="url(#clipPath43451000)">
				<rect width="16.666666666666668" height="16.666666666666668" fill="#C1C3C5"></rect>
				<rect width="8.333333333333334" height="16.666666666666668" fill="#4B4F52"></rect>
			</g>
			<g transform="translate(66.66666666666667, 50)" clip-path="url(#clipPath43451000)">
				<rect width="16.666666666666668" height="16.666666666666668" fill="#919497"></rect>
				<rect width="16.666666666666668" height="8.333333333333334" fill="#4B4F52"></rect>
									<circle cx="0" cy="8.333333333333334" r="8.333333333333334" fill="#4B4F52"></circle>;
									<circle cx="16.666666666666668" cy="8.333333333333334" r="8.333333333333334" fill="#919497"></circle>
			</g>
			<g transform="translate(83.33333333333334, 50)" clip-path="url(#clipPath43451000)">
				<rect width="16.666666666666668" height="16.666666666666668" fill="#2D2E30"></rect>
				<circle cx="16.666666666666668" cy="16.666666666666668" r="16.666666666666668" fill="#3A3C3F"></circle>
			</g>
			<g transform="translate(0, 66.66666666666667)" clip-path="url(#clipPath43451000)">
				<rect width="16.666666666666668" height="16.666666666666668" fill="#919497"></rect>
				<rect width="8.333333333333334" height="16.666666666666668" fill="#787A7C"></rect>
			</g>
			<g transform="translate(16.666666666666668, 66.66666666666667)" clip-path="url(#clipPath43451000)">
				<rect width="16.666666666666668" height="16.666666666666668" fill="#787A7C"></rect>
				<rect width="8.333333333333334" height="16.666666666666668" fill="#A6A8AB"></rect>
									<circle cx="8.333333333333334" cy="16.666666666666668" r="8.333333333333334" fill="#A6A8AB"></circle>;
									<circle cx="8.333333333333334" cy="0" r="8.333333333333334" fill="#787A7C"></circle>
			</g>
			<g transform="translate(33.333333333333336, 66.66666666666667)" clip-path="url(#clipPath43451000)">
				<rect width="16.666666666666668" height="16.666666666666668" fill="#3A3C3F"></rect>
				<circle cx="8.333333333333334" cy="8.333333333333334" r="8.333333333333334" fill="#4B4F52"></circle>
			</g>
			<g transform="translate(50, 66.66666666666667)" clip-path="url(#clipPath43451000)">
				<rect width="16.666666666666668" height="16.666666666666668" fill="#3A3C3F"></rect>
				<circle cx="0" cy="16.666666666666668" r="16.666666666666668" fill="#C1C3C5"></circle>
			</g>
			<g transform="translate(66.66666666666667, 66.66666666666667)" clip-path="url(#clipPath43451000)">
				<rect width="16.666666666666668" height="16.666666666666668" fill="#2D2E30"></rect>
				<circle cx="16.666666666666668" cy="0" r="8.333333333333334" fill="#A6A8AB"></circle>
			</g>
			<g transform="translate(83.33333333333334, 66.66666666666667)" clip-path="url(#clipPath43451000)">
				<rect width="16.666666666666668" height="16.666666666666668" fill="#2D2E30"></rect>
				<circle cx="16.666666666666668" cy="0" r="16.666666666666668" fill="#919497"></circle>
			</g>
			<g transform="translate(0, 83.33333333333334)" clip-path="url(#clipPath43451000)">
				<rect width="16.666666666666668" height="16.666666666666668" fill="#2D2E30"></rect>
				<circle cx="16.666666666666668" cy="16.666666666666668" r="16.666666666666668" fill="#3A3C3F"></circle>
			</g>
			<g transform="translate(16.666666666666668, 83.33333333333334)" clip-path="url(#clipPath43451000)">
				<rect width="16.666666666666668" height="16.666666666666668" fill="#919497"></rect>
				<polygon points="16.666666666666668,0 16.666666666666668,16.666666666666668 0,16.666666666666668" fill="#2D2E30"></polygon>
			</g>
			<g transform="translate(33.333333333333336, 83.33333333333334)" clip-path="url(#clipPath43451000)">
				<rect width="16.666666666666668" height="16.666666666666668" fill="#6B6E70"></rect>
				<circle cx="0" cy="8.333333333333334" r="8.333333333333334" fill="#919497"></circle>
									 <circle cx="16.666666666666668" cy="8.333333333333334" r="8.333333333333334" fill="#919497"></circle>
			</g>
			<g transform="translate(50, 83.33333333333334)" clip-path="url(#clipPath43451000)">
				<rect width="16.666666666666668" height="16.666666666666668" fill="#C1C3C5"></rect>
				<circle cx="0" cy="0" r="16.666666666666668" fill="#2D2E30"></circle>
			</g>
			<g transform="translate(66.66666666666667, 83.33333333333334)" clip-path="url(#clipPath43451000)">
				<rect width="16.666666666666668" height="16.666666666666668" fill="#3A3C3F"></rect>
				<rect width="16.666666666666668" height="8.333333333333334" fill="#6B6E70"></rect>
			</g>
			<g transform="translate(83.33333333333334, 83.33333333333334)" clip-path="url(#clipPath43451000)">
				<rect width="16.666666666666668" height="16.666666666666668" fill="#919497"></rect>
				<circle cx="16.666666666666668" cy="16.666666666666668" r="16.666666666666668" fill="#3A3C3F"></circle>
			</g>
		</g></svg>