<svg xmlns="http://www.w3.org/2000/svg" viewBox="0 0 100 100" id="svg" style="--frame-c: #f6c6a4; --frame-bdw: 1em; background-color: rgb(64, 54, 63); --frame-asr: 100 / 100.;">
		<defs>
			<clipPath id="clipPath65351000">
				<rect width="25" height="25"></rect>
			</clipPath>
		</defs>
		<g transform="translate(0, 0)">
			
			<g transform="translate(0, 0)" clip-path="url(#clipPath65351000)">
				<rect width="25" height="25" fill="#baccc0"></rect>
				<rect width="25" height="12.5" fill="#d7a26c"></rect>
									<circle cx="0" cy="12.5" r="12.5" fill="#d7a26c"></circle>;
									<circle cx="25" cy="12.5" r="12.5" fill="#baccc0"></circle>
			</g>
			<g transform="translate(25, 0)" clip-path="url(#clipPath65351000)">
				<rect width="25" height="25" fill="#e47a2c"></rect>
				<circle cx="12.5" cy="0" r="12.5" fill="#d7a26c"></circle>
			</g>
			<g transform="translate(50, 0)" clip-path="url(#clipPath65351000)">
				<rect width="25" height="25" fill="#40363f"></rect>
				<circle cx="25" cy="12.5" r="12.5" fill="#d7a26c"></circle>
			</g>
			<g transform="translate(75, 0)" clip-path="url(#clipPath65351000)">
				<rect width="25" height="25" fill="#f7e6d4"></rect>
				<circle cx="0" cy="12.5" r="12.5" fill="#baccc0"></circle>
									 <circle cx="25" cy="12.5" r="12.5" fill="#baccc0"></circle>
			</g>
			<g transform="translate(0, 25)" clip-path="url(#clipPath65351000)">
				<rect width="25" height="25" fill="#f7e6d4"></rect>
				<circle cx="12.5" cy="0" r="12.5" fill="#ae4935"></circle>
									 <circle cx="12.5" cy="25" r="12.5" fill="#ae4935"></circle>
			</g>
			<g transform="translate(25, 25)" clip-path="url(#clipPath65351000)">
				<rect width="25" height="25" fill="#d7a26c"></rect>
				<circle cx="0" cy="25" r="25" fill="#40363f"></circle>
			</g>
			<g transform="translate(50, 25)" clip-path="url(#clipPath65351000)">
				<rect width="25" height="25" fill="#d7a26c"></rect>
				<circle cx="25" cy="25" r="25" fill="#baccc0"></circle>
			</g>
			<g transform="translate(75, 25)" clip-path="url(#clipPath65351000)">
				<rect width="25" height="25" fill="#baccc0"></rect>
				<path d="M 0,25 A 25,25 0 0 1 25,0 A 25,25 0 0 1 0,25 Z" fill="#f7e6d4"></path>
			</g>
			<g transform="translate(0, 50)" clip-path="url(#clipPath65351000)">
				<rect width="25" height="25" fill="#f7e6d4"></rect>
				<circle cx="12.5" cy="25" r="12.5" fill="#e47a2c"></circle>
			</g>
			<g transform="translate(25, 50)" clip-path="url(#clipPath65351000)">
				<rect width="25" height="25" fill="#40363f"></rect>
				<circle cx="12.5" cy="25" r="12.5" fill="#d7a26c"></circle>
			</g>
			<g transform="translate(50, 50)" clip-path="url(#clipPath65351000)">
				<rect width="25" height="25" fill="#ae4935"></rect>
				<circle cx="0" cy="0" r="25" fill="#6c958f"></circle>
			</g>
			<g transform="translate(75, 50)" clip-path="url(#clipPath65351000)">
				<rect width="25" height="25" fill="#baccc0"></rect>
				<circle cx="12.5" cy="12.5" r="12.5" fill="#40363f"></circle>
			</g>
			<g transform="translate(0, 75)" clip-path="url(#clipPath65351000)">
				<rect width="25" height="25" fill="#e47a2c"></rect>
				<rect width="25" height="12.5" fill="#ae4935"></rect>
			</g>
			<g transform="translate(25, 75)" clip-path="url(#clipPath65351000)">
				<rect width="25" height="25" fill="#e47a2c"></rect>
				<polygon points="0,0 25,0 25,25" fill="#40363f"></polygon>
			</g>
			<g transform="translate(50, 75)" clip-path="url(#clipPath65351000)">
				<rect width="25" height="25" fill="#6c958f"></rect>
				<circle cx="0" cy="12.5" r="12.5" fill="#baccc0"></circle>
									 <circle cx="25" cy="12.5" r="12.5" fill="#baccc0"></circle>
			</g>
			<g transform="translate(75, 75)" clip-path="url(#clipPath65351000)">
				<rect width="25" height="25" fill="#ae4935"></rect>
				<rect width="25" height="12.5" fill="#d7a26c"></rect>
			</g>
		</g></svg>