<svg xmlns="http://www.w3.org/2000/svg" viewBox="0 0 24 24">
  <style>
    path {
      fill: #6495ED;
    }
    @media (prefers-color-scheme: dark) {
      path {
        fill: #7A8CA8;
      }
    }
  </style>
  <path fill-rule="evenodd" d="M9 2a1 1 0 0 1 .993 .883l.007 .117v1h4v-1a1 1 0 0 1 1.993 -.117l.007 .117v1.032a5 5 0 0 1 3.995 4.661l.005 .207v6a5 5 0 0 1 -4.783 4.995l-.217 .005h-6a5 5 0 0 1 -4.995 -4.783l-.005 -.217v-6a5 5 0 0 1 4 -4.9v-1a1 1 0 0 1 1 -1m.5 7a2 2 0 0 0 -1.995 1.85l-.005 .15a2 2 0 1 0 2 -2m5 0a2 2 0 0 0 -1.995 1.85l-.005 .15a2 2 0 1 0 2 -2M9 15h6a1 1 0 0 1 0 2H9a1 1 0 0 1 0 -2" />
</svg>
