<svg style="position: absolute; width: 0; height: 0; overflow: hidden;" version="1.1" xmlns="http://www.w3.org/2000/svg" xmlns:xlink="http://www.w3.org/1999/xlink">
	<title>OneBlock Editor Icons</title>

	<!-- NAV -->
	<symbol id="icon-close" viewBox="0 0 24 24">
		<line x1="18" y1="6" x2="6" y2="18" />
		<line x1="6" y1="6" x2="18" y2="18" />
	</symbol>

	<symbol id="icon-code" viewBox="0 0 24 24">
		<polyline points="7 8 3 12 7 16" />
		<polyline points="17 8 21 12 17 16" />
		<line x1="14" y1="4" x2="10" y2="20" />
	</symbol>

	<symbol id="icon-colormode" viewBox="0 0 24 24">
		<path d="M9 16a5 5 0 1 1 6 0a3.5 3.5 0 0 0 -1 3a2 2 0 0 1 -4 0a3.5 3.5 0 0 0 -1 -3" />
		<line x1="9.7" y1="17" x2="14.3" y2="17" />
	</symbol>

	<symbol id="icon-container" viewBox="0 0 24 24">
		<path d="M20 4v.01" />
		<path d="M20 20v.01" />
		<path d="M20 16v.01" />
		<path d="M20 12v.01" />
		<path d="M20 8v.01" />
		<rect x="8" y="4" width="8" height="16" rx="1" />
		<path d="M4 4v.01" />
		<path d="M4 20v.01" />
		<path d="M4 16v.01" />
		<path d="M4 12v.01" />
		<path d="M4 8v.01" />
	</symbol>

	<symbol id="icon-logo" viewBox="0 0 100 100">
		<polygon points="45,90 65,90 65,70, 45,70" fill="hsl(200,25%,98%)"></polygon>
		<polygon points="45,70 65,70 95,50 75,50" fill="hsl(200,25%,60%)"></polygon>
		<polygon points="45,50 65,50 65,30, 45,30" fill="hsl(200,25%,98%)"></polygon>
		<polygon points="45,30 65,30 95,10 75,10" fill="hsl(200,25%,60%)"></polygon>
		<polygon points="5,90 30,90 30,30, 5,30" fill="hsl(200,25%,98%)"></polygon>
		<polygon points="5,30 30,30 60,10 35,10" fill="hsl(200,25%,60%)"></polygon>
	</symbol>

	<symbol id="icon-search" viewBox="0 0 24 24">
		<circle cx="10" cy="10" r="7" />
		<line x1="21" y1="21" x2="15" y2="15" />
	</symbol>

	<symbol id="icon-settings" viewBox="0 0 24 24">
		<rect x="4" y="8" width="4" height="4" />
		<line x1="6" y1="4" x2="6" y2="8" />
		<line x1="6" y1="12" x2="6" y2="20" />
		<rect x="10" y="14" width="4" height="4" />
		<line x1="12" y1="4" x2="12" y2="14" />
		<line x1="12" y1="18" x2="12" y2="20" />
		<rect x="16" y="5" width="4" height="4" />
		<line x1="18" y1="4" x2="18" y2="5" />
		<line x1="18" y1="9" x2="18" y2="20" />
	</symbol>

	<symbol id="icon-toggle" viewBox="0 0 24 24">
		<circle cx="8" cy="12" r="2" />
		<rect x="2" y="6" width="20" height="12" rx="6" />
	</symbol>

	<!-- DEVICES -->
	<symbol id="icon-device-laptop" viewBox="0 0 24 24">
		<line x1="3" y1="19" x2="21" y2="19" />
		<rect x="5" y="6" width="14" height="10" rx="1" />
	</symbol>
	
	<symbol id="icon-device-desktop" viewBox="0 0 24 24">
		<rect x="3" y="4" width="18" height="12" rx="1" />
		<line x1="7" y1="20" x2="17" y2="20" />
		<line x1="9" y1="16" x2="9" y2="20" />
		<line x1="15" y1="16" x2="15" y2="20" />
	</symbol>
	
	<symbol id="icon-device-tablet" viewBox="0 0 24 24">
		<rect x="5" y="3" width="14" height="18" rx="1" />
		<circle cx="12" cy="17" r="1" />
	</symbol>
	
	<symbol id="icon-device-mobile" viewBox="0 0 24 24">
		<rect x="7" y="4" width="10" height="16" rx="1" />
		<line x1="11" y1="5" x2="13" y2="5" />
		<line x1="12" y1="17" x2="12" y2="17.01" />
	</symbol>

	<!-- PANELS -->
	<symbol id="icon-caption" viewBox="0 0 24 24">
		<path d="M7 12h10" />
		<path d="M7 4v16" />
		<path d="M17 4v16" />
		<path d="M15 20h4" />
		<path d="M15 4h4" />
		<path d="M5 20h4" />
		<path d="M5 4h4" />
	</symbol>

	<symbol id="icon-content" viewBox="0 0 24 24">
		<rect x="4" y="4" width="16" height="16" rx="2" />
		<path d="M8 16v.01" />
		<path d="M8 12v.01" />
		<path d="M8 8v.01" />
		<path d="M16 16v.01" />
		<path d="M16 12v.01" />
		<path d="M16 8v.01" />
		<path d="M12 8v.01" />
		<path d="M12 16v.01" />
	</symbol>

	<symbol id="icon-cta" viewBox="0 0 24 24">
		<rect x="2" y="5" width="20" height="12" rx="2" />
	</symbol>

	<symbol id="icon-heading" viewBox="0 0 24 24">
		<path d="M17 12a2 2 0 1 1 4 0c0 .591 -.417 1.318 -.816 1.858l-3.184 4.143l4 -.001" />
		<path d="M4 6v12" />
		<path d="M12 6v12" />
		<path d="M11 18h2" />
		<path d="M3 18h2" />
		<path d="M4 12h8" />
		<path d="M3 6h2" />
		<path d="M11 6h2" />
	</symbol>

	<symbol id="icon-image" viewBox="0 0 24 24">
		<line x1="15" y1="8" x2="15.01" y2="8" />
		<rect x="4" y="4" width="16" height="16" rx="3" />
		<path d="M4 15l4 -4a3 5 0 0 1 3 0l5 5" />
		<path d="M14 14l1 -1a3 5 0 0 1 3 0l2 2" />
	</symbol>

	<symbol id="icon-layout" viewBox="0 0 24 24">
		<rect x="4" y="4" width="16" height="16" rx="2" />
		<line x1="9" y1="4" x2="9" y2="20" />
	</symbol>

	<symbol id="icon-link" viewBox="0 0 24 24">
		<path d="M10 14a3.5 3.5 0 0 0 5 0l4 -4a3.5 3.5 0 0 0 -5 -5l-.5 .5" />
		<path d="M14 10a3.5 3.5 0 0 0 -5 0l-4 4a3.5 3.5 0 0 0 5 5l.5 -.5" />
	</symbol>

	<symbol id="icon-media" viewBox="0 0 24 24">
		<path d="M11 19h-6a2 2 0 0 1 -2 -2v-10a2 2 0 0 1 2 -2h14a2 2 0 0 1 2 2v4" />
		<rect x="14" y="14" width="7" height="5" rx="1" />
	</symbol>

	<symbol id="icon-offer" viewBox="0 0 24 24">
		<path d="M5 21v-16a2 2 0 0 1 2 -2h10a2 2 0 0 1 2 2v16l-3 -2l-2 2l-2 -2l-2 2l-2 -2l-3 2" />
		<path d="M14 8h-2.5a1.5 1.5 0 0 0 0 3h1a1.5 1.5 0 0 1 0 3h-2.5m2 0v1.5m0 -9v1.5" />
	</symbol>

	<symbol id="icon-share" viewBox="0 0 24 24">
		<circle cx="6" cy="12" r="3" />
		<circle cx="18" cy="6" r="3" />
		<circle cx="18" cy="18" r="3" />
		<line x1="8.7" y1="10.7" x2="15.3" y2="7.3" />
		<line x1="8.7" y1="13.3" x2="15.3" y2="16.7" />
	</symbol>

	<symbol id="icon-share" viewBox="0 0 24 24">
		<circle cx="6" cy="12" r="3" />
		<circle cx="18" cy="6" r="3" />
		<circle cx="18" cy="18" r="3" />
		<line x1="8.7" y1="10.7" x2="15.3" y2="7.3" />
		<line x1="8.7" y1="13.3" x2="15.3" y2="16.7" />
	</symbol>

	<symbol id="icon-splash" viewBox="0 0 24 24">
		<line x1="9" y1="15" x2="15" y2="9" />
		<circle cx="9.5" cy="9.5" r=".5" fill="currentColor" />
		<circle cx="14.5" cy="14.5" r=".5" fill="currentColor" />
		<path d="M5 7.2a2.2 2.2 0 0 1 2.2 -2.2h1a2.2 2.2 0 0 0 1.55 -.64l.7 -.7a2.2 2.2 0 0 1 3.12 0l.7 .7a2.2 2.2 0 0 0 1.55 .64h1a2.2 2.2 0 0 1 2.2 2.2v1a2.2 2.2 0 0 0 .64 1.55l.7 .7a2.2 2.2 0 0 1 0 3.12l-.7 .7a2.2 2.2 0 0 0 -.64 1.55v1a2.2 2.2 0 0 1 -2.2 2.2h-1a2.2 2.2 0 0 0 -1.55 .64l-.7 .7a2.2 2.2 0 0 1 -3.12 0l-.7 -.7a2.2 2.2 0 0 0 -1.55 -.64h-1a2.2 2.2 0 0 1 -2.2 -2.2v-1a2.2 2.2 0 0 0 -.64 -1.55l-.7 -.7a2.2 2.2 0 0 1 0 -3.12l.7 -.7a2.2 2.2 0 0 0 .64 -1.55v-1" />
	</symbol>

	<symbol id="icon-tag" viewBox="0 0 24 24">
		<path d="M11 3l9 9a1.5 1.5 0 0 1 0 2l-6 6a1.5 1.5 0 0 1 -2 0l-9 -9v-4a4 4 0 0 1 4 -4h4" />
		<circle cx="9" cy="9" r="2" />
	</symbol>

	<symbol id="icon-text" viewBox="0 0 24 24">
		<line x1="4" y1="6" x2="20" y2="6" />
		<line x1="4" y1="12" x2="14" y2="12" />
		<line x1="4" y1="18" x2="18" y2="18" />
	</symbol>

	<!-- EDITOR -->
	<symbol id="icon-help" viewBox="0 0 24 24">
		<circle cx="12" cy="12" r="9" />
		<line x1="12" y1="17" x2="12" y2="17.01" />
		<path d="M12 13.5a1.5 1.5 0 0 1 1 -1.5a2.6 2.6 0 1 0 -3 -4" />
	</symbol>

	<symbol id="hidden" viewBox="0 0 24 24">
		<line x1="3" y1="3" x2="21" y2="21" />
		<path d="M10.584 10.587a2 2 0 0 0 2.828 2.83" />
		<path d="M9.363 5.365a9.466 9.466 0 0 1 2.637 -.365c4 0 7.333 2.333 10 7c-.778 1.361 -1.612 2.524 -2.503 3.488m-2.14 1.861c-1.631 1.1 -3.415 1.651 -5.357 1.651c-4 0 -7.333 -2.333 -10 -7c1.369 -2.395 2.913 -4.175 4.632 -5.341" />
	</symbol>

	<symbol id="one-column" viewBox="0 0 24 24">
		<line x1="4" y1="6" x2="20" y2="6" />
		<line x1="4" y1="10" x2="20" y2="10" />
		<line x1="4" y1="14" x2="20" y2="14" />
		<line x1="4" y1="18" x2="20" y2="18" />
	</symbol>

	<symbol id="icon-play" viewBox="0 0 24 24">
		<path d="M7 4v16l13 -8z" />
	</symbol>

	<symbol id="icon-raw" viewBox="0 0 24 24">
		<path d="M7 4a2 2 0 0 0 -2 2v3a2 3 0 0 1 -2 3a2 3 0 0 1 2 3v3a2 2 0 0 0 2 2" />
		<path d="M17 4a2 2 0 0 1 2 2v3a2 3 0 0 0 2 3a2 3 0 0 0 -2 3v3a2 2 0 0 1 -2 2" />
	</symbol>

	<symbol id="icon-reset" viewBox="0 0 30 30">
		<path d="M3.05 11a9 9 0 1 1 .5 4m-.5 5v-5h5" transform="rotate(180 12 12) translate(-3,-3)" />
	</symbol>

	<symbol id="two-columns" viewBox="0 0 24 24">
		<line x1="4" y1="6" x2="9.5" y2="6" />
		<line x1="4" y1="10" x2="9.5" y2="10" />
		<line x1="4" y1="14" x2="9.5" y2="14" />
		<line x1="4" y1="18" x2="9.5" y2="18" />
		<line x1="14.5" y1="6" x2="20" y2="6" />
		<line x1="14.5" y1="10" x2="20" y2="10" />
		<line x1="14.5" y1="14" x2="20" y2="14" />
		<line x1="14.5" y1="18" x2="20" y2="18" />
	</symbol>

	<symbol id="visible" viewBox="0 0 24 24">
		<circle cx="12" cy="12" r="2" />
		<path d="M22 12c-2.667 4.667 -6 7 -10 7s-7.333 -2.333 -10 -7c2.667 -4.667 6 -7 10 -7s7.333 2.333 10 7" />
	</symbol>

	<!-- PRESETS -->
	<symbol id="icon-laytop" viewBox="0 0 100 100">
		<title>Layout Top</title>
		<rect x="0" y="0" width="100" height="40" rx="5" ry="5" />
		<rect x="5" y="60" width="50" height="3" />
		<rect x="5" y="70" width="35" height="3" />
		<rect x="5" y="80" width="35" height="3" />
	</symbol>
	<symbol id="icon-laybottom" viewBox="0 0 100 100">
		<title>Layout Bottom</title>
		<rect x="0" y="60" width="100" height="40" rx="5" ry="5" />
		<rect x="5" y="10" width="50" height="3" />
		<rect x="5" y="20" width="35" height="3" />
		<rect x="5" y="30" width="35" height="3" />
	</symbol>
	<symbol id="icon-layleft" viewBox="0 0 100 100">
		<title>Layout Left</title>
		<rect x="0" y="00" width="40" height="100" rx="5" ry="5" />
		<rect x="50" y="10" width="45" height="3" />
		<rect x="50" y="20" width="30" height="3" />
		<rect x="50" y="30" width="30" height="3" />
	</symbol>
	<symbol id="icon-layright" viewBox="0 0 100 100">
		<title>Layout Right</title>
		<rect x="60" y="00" width="40" height="100" rx="5" ry="5" />
		<rect x="5" y="10" width="45" height="3" />
		<rect x="5" y="20" width="30" height="3" />
		<rect x="5" y="30" width="30" height="3" />
	</symbol>
	<symbol id="icon-laymixed" viewBox="0 0 100 100">
		<rect x="0" y="0" width="100" height="100" rx="5" ry="5" />
		<rect x="15" y="25" width="70" height="50" fill="#363636" />
		<rect x="28" y="37" width="44" height="3" />
		<rect x="28" y="47" width="30" height="3" />
		<rect x="28" y="57" width="30" height="3" />
	</symbol>
	<symbol id="icon-laytext" viewBox="0 0 100 100">
		<title>Layout Text Only</title>
		<rect x="28" y="37" width="30" height="3" />
		<rect x="28" y="47" width="44" height="3" />
		<rect x="28" y="57" width="30" height="3" />
	</symbol>
	<symbol id="icon-layflip" viewBox="0 0 52 52">
		<path transform="translate(10,10)" d="M 16 9 C 8.019 9 2 11.794 2 15.5 C 2 18.888348 7.0378334 21.506372 14 21.931641 L 14 25 L 19 21 L 14 17 L 14 19.925781 C 8.1622506 19.52162 4 17.411516 4 15.5 C 4 13.376 9.132 11 16 11 C 22.868 11 28 13.376 28 15.5 C 28 16.801 26.07 18.194078 23 19.080078 L 23 21.179688 C 27.245 20.088687 30 18.004 30 15.5 C 30 11.794 23.981 9 16 9 z"></path>
	</symbol>
	<symbol id="icon-laygrow" viewBox="0 0 100 100">
		<rect x="0" y="0" width="100" height="40" rx="5" ry="5" />
		<polyline points="30,70 50,50 70,70" fill="none"></polyline>
		<polyline points="30,80 50,100 70,80" fill="none"></polyline>
	</symbol>
		<symbol id="icon-mediaarea" viewBox="0 0 100 100">
		<title>Image</title>
		<rect x="5" y="5" width="90" height="90" rx="5" ry="5" fill="currentColor" />
		<path d="M48.75 16.875c0 3.107-2.518 5.625-5.625 5.625s-5.625-2.518-5.625-5.625 2.518-5.625 5.625-5.625 5.625 2.518 5.625 5.625z" transform="translate(20,20)" fill="#363636"></path>
		<path d="M52.5 48.75h-45v-7.5l13.125-22.5 15 18.75h3.75l13.125-11.25z" transform="translate(20,20)" fill="#363636"></path>
	</symbol>
</svg>