<svg xmlns="http://www.w3.org/2000/svg" fill="currentColor" viewBox="0 0 24 24">
  <path d="m19.46 11-3.91-3.91a7 7 0 0 1-1.69-2.74l-.49-1.47A2.76 2.76 0 0 0 10.76 1 2.75 2.75 0 0 0 8 3.74v1.12a9.19 9.19 0 0 0 .46 2.85L8.89 9H4.12A2.12 2.12 0 0 0 2 11.12a2.16 2.16 0 0 0 .92 1.76A2.11 2.11 0 0 0 2 14.62a2.14 2.14 0 0 0 1.28 2 2 2 0 0 0-.28 1 2.12 2.12 0 0 0 2 2.12v.14A2.12 2.12 0 0 0 7.12 22h7.49a8.08 8.08 0 0 0 3.58-.84l.31-.16H21V11zM19 19h-1l-.73.37a6.14 6.14 0 0 1-2.69.63H7.72a1 1 0 0 1-1-.72l-.25-.87-.85-.41A1 1 0 0 1 5 17l.17-1-.76-.74A1 1 0 0 1 4.27 14l.66-1.09-.73-1.1a.49.49 0 0 1 .08-.7.48.48 0 0 1 .34-.11h7.05l-1.31-3.92A7 7 0 0 1 10 4.86V3.75a.77.77 0 0 1 .75-.75.75.75 0 0 1 .71.51L12 5a9 9 0 0 0 2.13 3.5l4.5 4.5H19z"/>
</svg>