<svg xmlns="http://www.w3.org/2000/svg" viewBox="0 0 48 48">
  <circle cx="24" cy="27" r="18" fill="#79deee" stroke="#104e58" stroke-width="2"/>
  <path fill="#104e58" d="M21.68 22.33c-2.58-2.25-6.55-1.7-8.43 1.16l-.22.33.82.84.47-.29a8.716 8.716 0 0 1 6.81-1.01l.55-1.03Zm5-.27-.32.24.5 1.07c2.5-.59 5.14-.12 7.29 1.29l.85-.79c-1.66-3-5.57-3.84-8.32-1.8Z"/>
  <path fill="none" stroke="#104e58" stroke-linecap="round" stroke-width="2" d="M29 16.08c1.11-.07 3.66.25 5 2.12m-16-2.12c-1.11-.07-3.66.25-5 2.12"/>
  <path fill="#13707e" d="M32.59 29.5H15.41c-.69 0-1.18.68-.93 1.32 1.2 3.16 3.56 7.68 9.53 7.68s8.33-4.52 9.53-7.68a.982.982 0 0 0-.93-1.32Z"/>
  <path fill="#aef0fa" d="M24.01 33.5c-3.89 0-6.88 1.8-4.87 3.5 1.03.87 2.86 1.53 4.87 1.5 1.51-.02 3.49-.44 4.87-1.5 1.95-1.5-.97-3.5-4.87-3.5Z"/>
  <path fill="#104e58" d="M32.43 28H15.57c-1.67 0-2.95 1.66-2.33 3.31C14.58 34.83 17.33 40 24 40s9.42-5.17 10.76-8.69c.63-1.65-.65-3.31-2.33-3.31ZM24 38c-5.3 0-7.6-3.99-8.89-7.4-.1-.26.09-.6.46-.6h16.86c.37 0 .56.34.46.6C31.6 34.01 29.3 38 24 38Z"/>
</svg>