<svg xmlns="http://www.w3.org/2000/svg" viewBox="0 0 48 48">
  <path fill="#378fe9" d="M25.39 22H10.13c-2 0-3.2 2.11-3.12 3.92a3.23 3.23 0 0 0 3.3 3h.57a2.75 2.75 0 0 0-2.69 2.84 2.84 2.84 0 0 0 2.62 2.83 2.83 2.83 0 0 0 1.18 5 2.9 2.9 0 0 0-.29 2 3 3 0 0 0 3 2.24h8.18a13.06 13.06 0 0 0 3.17-.41l5.13-1.5c.3-.09 4.74 0 6.74 0 3.57-.14 4.53-16.52 0-16.52 0 0-1.65.06-2 0-.16 0-.52-.68-1.41-1.64l-.08-.1c-1.3-1.41-2.78-3.23-3.82-4.26-2.53-2.48-4.63-4.61-6.09-7.84C23.8 9.83 23.71 9 22 9a2.77 2.77 0 0 0-2.38 2.9 27.06 27.06 0 0 0 .38 2.85c.63 3.38 3.43 7.08 3.51 7.25"/>
  <path fill="none" stroke="#004182" stroke-linecap="round" stroke-linejoin="round" stroke-width="2" d="M23.49 23H10.13c-2 0-3.21 1.19-3.13 3a3.22 3.22 0 0 0 3.31 3h.57a2.77 2.77 0 0 0-2.69 2.84 2.84 2.84 0 0 0 2.62 2.83v0a2.83 2.83 0 0 0 1.18 5 2.9 2.9 0 0 0-.29 2 3 3 0 0 0 3 2.24h8.18a13.06 13.06 0 0 0 3.17-.41l5.13-1.5c.3-.09 4.74 0 6.74 0 3.57-.14 4.53-16.52 0-16.52 0 0-1.65.06-2 0-.16 0-.52-.68-1.41-1.64l-.08-.1c-1.3-1.41-2.78-3.23-3.82-4.26-2.53-2.48-4.63-4.6-6.09-7.84C23.8 9.87 23.71 9 22 9a2.66 2.66 0 0 0-2.38 2.9 27.06 27.06 0 0 0 .38 2.85c.63 3.38 3.43 8 3.51 8.21z"/>
</svg>