<svg viewBox="0 0 100 100">
        <rect rx="4" width="48" height="28" x="0" y="0" />
        <text x="21" y="17%">1</text>
        <rect rx="4" width="18" height="28" x="50" y="0" />
        <text x="56" y="17%">2</text>
        <rect rx="4" width="28" height="48" x="70" y="0" />
        <text x="81" y="27%">3</text>
        <rect rx="4" width="28" height="18" x="70" y="50" />
        <text x="81" y="62%">4</text>
        <rect rx="4" width="48" height="28" x="50" y="70" />
        <text x="71" y="87%">5</text>
        <rect rx="4" width="18" height="28" x="30" y="70" />
        <text x="36" y="87%">6</text>
        <rect rx="4" width="28" height="48" x="0" y="50" />
        <text x="11" y="77%">7</text>
        <rect rx="4" width="28" height="18" x="0" y="30" />
        <text x="11" y="42%">8</text>
        <rect rx="4" width="38" height="38" x="30" y="30" />
        <text x="46" y="52%">9</text>
    </svg>