<svg viewBox="0 0 100 100" xmlns="http://www.w3.org/2000/svg" width="40" height="40" fill="currentColor">
        <rect rx="4" width="38" height="38" x="0" y="0" />
        <text x="16" y="22%">1</text>
        <rect rx="4" width="18" height="18" x="40" y="0" />
        <text x="46" y="12%">2</text>
        <rect rx="4" width="18" height="18" x="60" y="0" />
        <text x="66" y="12%">3</text>
        <rect rx="4" width="38" height="38" x="40" y="20" />
        <text x="56" y="42%">4</text>
        <rect rx="4" width="18" height="18" x="0" y="40" />
        <text x="6" y="52%">5</text>
        <rect rx="4" width="18" height="18" x="20" y="40" />
        <text x="26" y="52%">6</text>
        <rect rx="4" width="38" height="38" x="0" y="60" />
        <text x="16" y="82%">7</text>
        <rect rx="4" width="18" height="18" x="40" y="60" />
        <text x="46" y="72%">8</text>
        <rect rx="4" width="18" height="18" x="60" y="60" />
        <text x="66" y="72%">9</text>
        <rect rx="4" width="38" height="18" x="40" y="80" />
        <text x="56" y="92%">10</text>
    </svg>