<?xml version="1.0" encoding="utf-8"?>
<!-- Generator: Adobe Illustrator 20.1.0, SVG Export Plug-In . SVG Version: 6.00 Build 0)  -->
<svg version="1.1" id="Ebene_1" xmlns="http://www.w3.org/2000/svg" xmlns:xlink="http://www.w3.org/1999/xlink" x="0px" y="0px"
	 viewBox="0 0 100 100" style="enable-background:new 0 0 100 100;" xml:space="preserve">
<g id="_x31_6x16_16_" transform="matrix(0.27963717,0,0,0.27963717,-22.506326,-21.807749)">
	<path id="path5_2_" style="fill:#000C2A;" d="M400.683,355.72l-66.015-100.756c-3.467-5.326-9.255-8.232-15.187-8.302
		l-77.781,0.046V221.35h61.317c4.722,0,10.373-0.315,10.373-6.186l-0.092-15.126c0-4.952-6.116-4.952-10.278-4.952h-61.317V165.6
		c0-8.673-2.116-19.716-11.883-19.716l-29.066-0.025c-9.883,0-11.579,10.673-11.579,19.741v107.387
		c0,14.507,11.763,26.252,26.252,26.252h104.269l50.225,76.642c0,0,7.763,14.418,18.694,7.999l13.628-10.964
		C407.941,368.231,404.149,361.025,400.683,355.72"/>
	<path id="path7_3_" style="fill:#000C2A;" d="M326.665,344.527c-2.579-3.929-4.254,0.658-4.254,0.658
		c-13.671,35.372-48.02,60.552-88.179,60.552c-52.133,0-94.57-42.428-94.57-94.561c0-25.636,10.532-48.657,26.95-65.923
		c2.419-2.52,2.536-6.835,2.536-6.835v-26.102c0-2.735-2.839-0.977-2.839-0.977c-31.902,21.765-52.902,58.377-52.902,99.838
		c0,66.634,54.203,120.84,120.825,120.84c45.276,0,84.804-25.045,105.503-62.019c0,0,1.697-2.919-0.325-6.033L326.665,344.527z"/>
	<path id="path9_2_" style="fill:#000C2A;" d="M214.308,134.742h2.233c10.838,0,21.091-3.118,21.091-22.644v-7.8
		c0-19.713-9.95-22.736-21.091-22.736h-2.233c-10.838,0-21.067,3.317-21.067,22.736v7.8
		C193.241,131.811,203.194,134.742,214.308,134.742"/>
</g>
</svg>
