<?xml version="1.0" encoding="utf-8"?>
<!-- Generator: Adobe Illustrator 26.2.0, SVG Export Plug-In . SVG Version: 6.00 Build 0)  -->
<svg version="1.1" id="Ebene_1" xmlns="http://www.w3.org/2000/svg" xmlns:xlink="http://www.w3.org/1999/xlink" x="0px" y="0px"
	 viewBox="0 0 100 100" style="enable-background:new 0 0 100 100;" xml:space="preserve">
<g id="_x33_0x30_42_" transform="matrix(1.25,0,0,-1.25,-123.87244,344.69315)">
	<g id="g3850_4_">
		<g>
			<path id="path718-7_18_" style="fill:#FFFFFF;" d="M139.099,274.954c-21.607,0-39.201-17.588-39.201-39.198
				c0-21.621,17.594-39.201,39.201-39.201c21.609,0,39.199,17.58,39.199,39.201C178.298,257.366,160.708,274.954,139.099,274.954"/>
			<g id="g710_9_" transform="matrix(0.12901598,0,0,0.12901598,89.49801,193.19443)">
				<g id="g716_27_" transform="translate(297.6431,231.0303)">
					<path id="path718_31_" style="fill:#000C2A;" d="M86.814-185.445c-156.749,0-284.29,127.53-284.29,284.309
						c0,156.815,127.541,284.313,284.29,284.313c156.777,0,284.286-127.498,284.286-284.313
						C371.1-57.914,243.591-185.445,86.814-185.445 M86.814,402.69c-167.48,0-303.847-136.324-303.847-303.826
						c0-167.586,136.367-303.851,303.847-303.851c167.491,0,303.829,136.264,303.829,303.851
						C390.643,266.366,254.305,402.69,86.814,402.69"/>
				</g>
				<g id="g720_31_" transform="translate(307.9111,393.1904)">
					<path id="path722_31_" style="fill:#000C2A;" d="M92.269-99.297l27.314,116.603l8.658-116.603H92.269z M24.752-99.297
						l7.884,116.138L58.727-99.297H24.752z M239.581-99.297h-70.698L155.458,62.259l-0.107,1.929h-1.652H99.503h-1.943h-1.377
						l-0.266-1.648L76.479-30.36L58.977,62.438l-0.262,1.75h-1.302h-1.435H-1.727h-1.766l-0.237-1.929L-16.902-99.297h-69.961
						c-5,0-9.186-4.435-9.186-9.751v-61.964c0-5.385,4.186-9.965,9.186-9.965h326.444c5.562,0,9.9,4.58,9.9,9.965v61.964
						C249.481-103.731,245.143-99.297,239.581-99.297"/>
				</g>
			</g>
		</g>
	</g>
</g>
</svg>
