<?xml version="1.0" encoding="utf-8"?>
<!-- Generator: Adobe Illustrator 26.2.0, SVG Export Plug-In . SVG Version: 6.00 Build 0)  -->
<svg version="1.1" id="Ebene_1" xmlns="http://www.w3.org/2000/svg" xmlns:xlink="http://www.w3.org/1999/xlink" x="0px" y="0px"
	 viewBox="0 0 100 100" style="enable-background:new 0 0 100 100;" xml:space="preserve">
<g id="_x33_0x30_45_">
	<path id="path718-7_4_" style="fill:#FFFFFF;" d="M50.001,1.001C22.992,1.001,1,22.985,1,49.998
		c0,27.026,21.992,49.001,49.001,49.001C77.012,98.999,99,77.024,99,49.998C99,22.985,77.012,1.001,50.001,1.001"/>
	<path style="fill:#000C2A;" d="M50,1C23.001,1,1,22.954,1,50c0,26.999,21.954,49,49,49c26.999,0,49-22.001,49-49
		C99,22.954,76.999,1,50,1z M50,96.151c-25.458,0-46.197-20.693-46.197-46.197S24.496,3.756,50,3.756
		c25.458,0,46.197,20.693,46.197,46.197S75.458,96.151,50,96.151z"/>
	<path style="fill:#000C2A;" d="M62.332,76.719h2.569l-7.147-10.697h-2.569l1.448,2.149H43.414l1.448-2.149h-2.569l-7.147,10.697
		h2.569l1.448-2.149h21.721L62.332,76.719z M40.518,72.421l1.448-2.149h16.069l1.448,2.149H40.518z"/>
	<path style="fill:#000C2A;" d="M62.145,27.812c-2.896-2.476-8.034-2.943-12.192-2.943s-9.249,0.467-12.192,2.943
		c-2.896,2.476-3.69,12.005-3.69,20.273s0.42,12.051,1.635,13.873c1.074,1.588,3.083,1.915,6.867,1.915H57.24
		c3.83,0,5.792-0.327,6.867-1.915c1.214-1.775,1.635-5.605,1.635-13.873C65.835,39.817,65.088,30.288,62.145,27.812z M50,27.018
		c0.701,0,2.522,0.093,2.522,1.728c0,1.635-1.775,1.728-2.522,1.728c-0.701,0-2.522-0.093-2.522-1.728
		C47.478,27.112,49.253,27.018,50,27.018z M41.452,60.183c-1.541,0-2.849-1.261-2.849-2.849c0-1.541,1.261-2.849,2.849-2.849
		s2.849,1.261,2.849,2.849C44.255,58.875,42.993,60.183,41.452,60.183z M58.548,60.183c-1.541,0-2.849-1.261-2.849-2.849
		c0-1.541,1.261-2.849,2.849-2.849c1.541,0,2.849,1.261,2.849,2.849C61.398,58.875,60.136,60.183,58.548,60.183z M36.547,47.851
		c0,0-0.327-11.024,1.775-13.126c2.149-2.102,8.455-2.102,11.678-2.102c3.223,0,9.529,0,11.678,2.102s1.775,13.126,1.775,13.126
		C54.484,48.272,45.516,48.272,36.547,47.851z"/>
</g>
</svg>
