<?xml version="1.0" encoding="utf-8"?>
<!-- Generator: Adobe Illustrator 26.2.0, SVG Export Plug-In . SVG Version: 6.00 Build 0)  -->
<svg version="1.1" id="Ebene_1" xmlns="http://www.w3.org/2000/svg" xmlns:xlink="http://www.w3.org/1999/xlink" x="0px" y="0px"
	 viewBox="0 0 100 100" style="enable-background:new 0 0 100 100;" xml:space="preserve">
<g id="_x33_0x30_00000161596947142807312010000017170535069774499246_" transform="matrix(1.25,0,0,-1.25,-123.87225,344.69304)">
	<g id="g3854_00000144331539169329563730000016573407126159542667_">
		<path id="path718-7_00000020396317981138675450000003912462958169895090_" style="fill:#FFFFFF;" d="M139.099,274.954
			c-21.607,0-39.201-17.588-39.201-39.198c0-21.621,17.594-39.201,39.201-39.201c21.609,0,39.199,17.58,39.199,39.201
			C178.298,257.366,160.708,274.954,139.099,274.954"/>
		
			<g id="g716_00000101785634671348500040000014231187859521649575_" transform="matrix(0.12901564,0,0,0.12901564,127.89851,223.00093)">
			<path id="path718_00000106857125561683261980000004345415217590617510_" style="fill:#000C2A;" d="M86.814-185.444
				c-156.749,0-284.29,127.53-284.29,284.308c0,156.816,127.541,284.314,284.29,284.314c156.777,0,284.287-127.498,284.287-284.314
				C371.1-57.915,243.591-185.444,86.814-185.444 M86.814,402.69c-167.479,0-303.847-136.324-303.847-303.827
				c0-167.584,136.368-303.85,303.847-303.85c167.491,0,303.83,136.266,303.83,303.85C390.644,266.367,254.305,402.69,86.814,402.69
				"/>
		</g>
		
			<g id="g720_00000104699001865534001350000000669790148937788320_" transform="matrix(0.12901564,0,0,0.12901564,127.36751,239.46579)">
			<path id="path722_00000070099586557150126080000006737450770550906796_" style="fill:#000C2A;" d="M84.627-117.647
				c-25.503,0-52.058,3.156-74.7,6.355v29.608c18.785-2.692,40.227-6.368,62.614-6.368c14.64,0,48.45,0,48.45,21.395
				c0,38.566-108.071,3.156-108.071,73.301c0,47.06,56.495,53.46,86.375,53.46c19.948,0,46.505-3.199,63.165-5.082V27.324
				c-15.822,1.363-42.38,4.58-64.868,4.58c-12.144,0-36.343-0.959-36.343-17.62c0-36.9,110.634-2.689,110.634-75.106
				C171.884-104.029,126.541-117.647,84.627-117.647 M206.276,112.933c-10.553,17.721-27.095,27.062-48.002,27.062l-134.92,0.064
				c-20.843,0-37.471-9.376-47.969-27.126L-92.192-1.385c-10.455-17.674-10.368-37.174,0.119-54.672l67.49-114.421
				c10.495-17.686,27.126-27.037,47.968-27.037l134.952-0.06c20.843,0,37.385,9.345,47.939,27.097l67.58,114.3
				c10.631,17.914,10.68,36.846,0.075,54.793L206.276,112.933z"/>
		</g>
	</g>
</g>
</svg>
