<?xml version="1.0" encoding="utf-8"?>
<!-- Generator: Adobe Illustrator 26.2.0, SVG Export Plug-In . SVG Version: 6.00 Build 0)  -->
<svg version="1.1" id="Ebene_1" xmlns="http://www.w3.org/2000/svg" xmlns:xlink="http://www.w3.org/1999/xlink" x="0px" y="0px"
	 viewBox="0 0 100 100" style="enable-background:new 0 0 100 100;" xml:space="preserve">
<g id="_x33_0x30_36_">
	<path id="path718-7_12_" style="fill:#FFFFFF;" d="M50.001,1C22.992,1,1,22.985,1,49.998C1,77.025,22.992,99,50.001,99
		C77.013,99,99,77.025,99,49.998C99,22.985,77.013,1,50.001,1"/>
	<g id="_x32_4x24_5_">
		<path id="path7_6_" style="fill:#000C2A;" d="M56.158,27.929c3.013,0,5.488-2.475,5.488-5.488s-2.475-5.488-5.488-5.488
			s-5.488,2.475-5.488,5.488S53.145,27.929,56.158,27.929z M69.177,47.513l-4.842-2.69c0,0-5.595-3.766-5.38-8.608
			c0,0-0.968-5.38-5.811-6.994c0,0-2.367-1.829-5.38-0.753l-12.697,5.918c0,0-1.829,1.076-1.829,2.367c0,1.291,0,12.697,0,12.697
			s-0.323,2.367,1.291,2.367c0,0,2.798-0.968,2.798-1.722l0.108-9.577c0,0,0.323-0.753,2.367-2.152l2.152-1.614
			c0,0,2.367-1.614,1.937,0.538c0,0-4.304,6.349-4.304,10.222v9.684l-8.823,20.337c0,0-2.69,4.196,1.614,5.488
			c0,0,2.905,0.43,4.196-2.26l7.747-14.957c0,0,1.722-4.412,3.228-2.905l5.488,6.133c0,0,1.506,3.228,1.506,11.836
			c0,0-0.538,2.152,3.443,2.152c0,0,2.905,0.108,2.905-2.044v-7.963c0,0-0.43-9.146-8.501-18.292v-2.69L53.79,44.5
			c0,0,1.614-1.829,2.69-0.215c0,0-0.215,2.26,4.304,4.734l5.38,2.044c0,0,3.013,1.076,3.551-0.538
			C69.715,50.525,70.791,48.051,69.177,47.513z"/>
	</g>
	<g id="g716_22_" transform="matrix(0.12901568,0,0,0.12901568,127.21331,222.31486)">
		<path id="path718_26_" style="fill:#000C2A;" d="M-598.468-980.239c-195.936,0-355.364-159.416-355.364-355.385
			c0-196.021,159.428-355.391,355.364-355.391c195.971,0,355.354,159.37,355.354,355.391
			C-243.114-1139.655-402.497-980.239-598.468-980.239 M-598.468-1715.406c-209.348,0-379.808,170.405-379.808,379.782
			c0,209.482,170.46,379.812,379.808,379.812c209.363,0,379.787-170.33,379.787-379.812
			C-218.681-1545.001-389.105-1715.406-598.468-1715.406"/>
	</g>
</g>
</svg>
