<svg xmlns="http://www.w3.org/2000/svg">
	<defs>
		<symbol id="amfetamin" viewBox="0 0 20 19">
			<g transform="translate(1, 1)">
				<path d="M7.621 0 3.608 4.207l1.89 1.89L7.62 0Zm3.401 6.364L8.512.112 6.058 6.364h4.965Zm-4.775 9.105L3.693 5.162 5.351 6.82l1.692 9.258-.505-.394-.291-.215Zm7.384-11.184L9.405 0l2.336 6.175 1.89-1.89Zm-2.638 11.261 2.553-10.307-1.657 1.658-1.693 9.258.506-.394.29-.215ZM6 6.978 7.738 16.5h1.603l1.738-9.522H6Z"/>
			</g>
		</symbol>
		<symbol id="andre" viewBox="0 0 20 19">
			<g transform="translate(3, 1)">
				<path d="M6.456 9.533 2.624 13.36l-1.54-1.54C-1.37 9.215 2.3 5.534 4.91 7.989l1.546 1.545Zm3.137 4.052a2.688 2.688 0 0 0-.758-1.673L7.272 10.35l-3.826 3.832 1.54 1.54a2.711 2.711 0 0 0 4.607-2.136Zm-.388-3.456c-.035.145-.064.284-.098.423a4.259 4.259 0 0 1 1.655 3.456 2 2 0 0 0 2.026-1.552c.012-.075.156-.677.33-1.418l-3.913-.909Zm4.55-2.107A2.005 2.005 0 0 0 9.8 7.577c0 .029-.15.66-.33 1.43l3.913.902c.158-.621.282-1.251.37-1.887ZM5.605 2.75a2.002 2.002 0 0 0 1.962 3.49l1.28-.717-1.963-3.49-1.28.717ZM9.17.747l-1.279.717L9.853 4.96l1.28-.717A2.005 2.005 0 0 0 9.17.747Z"/>
			</g>
		</symbol>
		<symbol id="cannabis" viewBox="0 0 20 19">
			<path d="M12.223 12.316c4.125-3.16 5.39-7.022 5.41-7.081-.06.022-3.886 1.505-6.84 5.75C12.06 4.656 9.81 0 9.81 0s-2.25 4.655-.985 10.986C5.87 6.74 2.044 5.257 1.984 5.235c.02.06 1.286 3.921 5.41 7.081-4.074-.784-7.085.343-7.085.343s2.602 1.529 6.558 1.537c-1.378.628-2.112 1.434-2.112 1.434s2.269.134 4.539-1.529l-.016-.043a.86.86 0 0 0 .032.011v.032h.166V18h.666v-3.899h.165v-.032l.032-.011-.016.043c2.27 1.663 4.54 1.529 4.54 1.529s-.735-.806-2.113-1.434c3.956-.008 6.559-1.537 6.559-1.537s-3.012-1.127-7.086-.343Z"/>
		</symbol>
		<symbol id="kokain" viewBox="0 0 20 19">
			<g transform="translate(2, 1)">
				<path d="M14.121 1H1.501v15.827H14.12V1Zm-.6 15.226H2.1V4.606h11.42v11.62Zm0-12.221H2.1v-.601h11.42v.6Zm0-1.202H2.1V1.6h11.42v1.202Z"/>
				<path d="M3.003 15.625h9.616a.3.3 0 0 0 .3-.3v-4.508a.3.3 0 0 0-.3-.3c-1.695 0-2.627-.755-3.702-1.626-.298-.237-.601-.484-.932-.721-1.62-1.166-4.937-.087-5.075-.042a.303.303 0 0 0-.208.285v6.912c.001.166.135.3.301.3Z"/>
			</g>
		</symbol>
		<symbol id="opioider" viewBox="0 0 20 19">
			<g transform="translate(2, 1)">
				<path d="M5.414 5.051 8.72 1.747a4.273 4.273 0 0 1 6.034 0 4.273 4.273 0 0 1 0 6.035l-3.304 3.304L5.414 5.05Zm-.862.863L1.247 9.218a4.273 4.273 0 0 0 0 6.035A4.254 4.254 0 0 0 4.264 16.5a4.26 4.26 0 0 0 3.018-1.247l3.304-3.305-6.034-6.034Z"/>
			</g>
		</symbol>
		<symbol id="gas" viewBox="0 0 23 21">
			<path d="M13.376 3.504c.579.07 1.05.318 1.476.58.368.226.647.48.865.752-1.64 1.819-2.895 3.222-4.538 5.422l-.082.108-.05.128c-.18.466-.307.88-.366 1.323a5 5 0 0 0-.03.977l-.616.92-.235.352.015.078L8.254 15.4l-.071.058-.081.042c-.6.324-1.14.55-1.74.672-.491.1-.985.119-1.533.1l-.766.52-.211.145-.256.024c-.369.035-.754.024-1.152-.129-.38-.147-.68-.39-.941-.636l-.085-.08-.064-.095A4 4 0 0 1 .9 15.17a4.2 4.2 0 0 1-.214-.947l-.061-.47.324-.345 1.1-1.17c.138-.401.256-.745.409-1.065.192-.402.43-.752.796-1.214.16-.203.43-.438.683-.65.28-.233.632-.51 1.024-.808a121 121 0 0 1 2.712-1.99 287 287 0 0 1 3.402-2.394l.232-.162.06-.041.016-.012.005-.002.105-.074.12-.043c.616-.225 1.183-.35 1.763-.28M2.333 15.6l.009.006a4 4 0 0 1-.155-.137zm-.626-1.296.001.004zm12.62-9.367a6 6 0 0 0-.284-.165zm-2.347 5.92c-.331.849-.389 1.333-.305 2.206l-.809 1.209c.181.849.388 1.112.831 1.335.546.357.862.403 1.452.13l.662-.698c1.535-.292 2.231-.57 2.973-1.412l5.07-6.792c-.022-1.416-.237-2.293-1.624-3.058-.997-.411-1.532-.242-2.473.286-2.355 2.636-3.762 4.096-5.778 6.794"/>
		</symbol>
		<symbol id="high" viewBox="0 0 13 10">
			<rect width="13" height="1.5" y=".75"  rx=".75"/>
			<path d="M0 5a.75.75 0 0 1 .75-.75h11.5a.75.75 0 0 1 0 1.5H.75A.75.75 0 0 1 0 5Z"/>
			<rect width="13" height="1.5" y="7.75"  rx=".75"/>
		</symbol>
		<symbol id="medium" viewBox="0 0 13 10">
			<rect width="13" height="1.5" y=".75" fill="#888" rx=".75"/>
			<path d="M0 5a.75.75 0 0 1 .75-.75h11.5a.75.75 0 0 1 0 1.5H.75A.75.75 0 0 1 0 5Z"/>
			<rect width="13" height="1.5" y="7.75"  rx=".75"/>
		</symbol>
		<symbol id="low" viewBox="0 0 13 10">
			<rect width="13" height="1.5" y=".75" fill="#888" rx=".75"/>
			<path fill="#888" d="M0 5a.75.75 0 0 1 .75-.75h11.5a.75.75 0 0 1 0 1.5H.75A.75.75 0 0 1 0 5Z"/>
			<rect width="13" height="1.5" y="7.75"  rx=".75"/>
		</symbol>
	</defs>
</svg>
