<svg xmlns="http://www.w3.org/2000/svg" viewBox="0 0 100 100" id="svg" style="--frame-c: #000000; --frame-bdw: 1em; background-color: rgb(109, 118, 120); --frame-asr: 100 / 100.;">
        <g transform="translate(43.2813463851959,84.62671855511371) rotate(0)">
          <rect y="4.650537857472859" width="9.301075714945718" height="22.023199226118564" fill="#332822"></rect>
          <circle r="4.650537857472859" cx="4.650537857472859" cy="4.650537857472859" fill="#c7bfb4"></circle>
          <circle r="4.650537857472859" cx="4.650537857472859" cy="26.673737083591423" fill="#c7bfb4"></circle>
        </g>
        <g transform="translate(30.941006600182497,25.679170917104358) rotate(0)">
          <rect y="1.6685066044881536" width="3.337013208976307" height="35.94218258771678" fill="#c7bfb4"></rect>
          <circle r="1.6685066044881536" cx="1.6685066044881536" cy="1.6685066044881536" fill="#332822"></circle>
          <circle r="1.6685066044881536" cx="1.6685066044881536" cy="37.61068919220494" fill="#332822"></circle>
        </g>
        <g transform="translate(54.2184651110541,78.4570544238476) rotate(0)">
          <rect y="1.999565705694132" width="3.999131411388264" height="7.998262822776528" fill="#332822"></rect>
          <circle r="1.999565705694132" cx="1.999565705694132" cy="1.999565705694132" fill="#b73825"></circle>
          <circle r="1.999565705694132" cx="1.999565705694132" cy="9.99782852847066" fill="#b73825"></circle>
        </g>
        <g transform="translate(79.69976642452043,31.93497249318418) rotate(0)">
          <rect y="4.3769009915028345" width="8.753801983005669" height="34.18981115978205" fill="#c1b6b2"></rect>
          <circle r="4.3769009915028345" cx="4.3769009915028345" cy="4.3769009915028345" fill="#b73825"></circle>
          <circle r="4.3769009915028345" cx="4.3769009915028345" cy="38.56671215128489" fill="#b73825"></circle>
        </g>
        <g transform="translate(55.115867771489775,21.338537865230172) rotate(0)">
          <rect y="3.3038821426219336" width="6.607764285243867" height="17.852261280765255" fill="#c7bfb4"></rect>
          <circle r="3.3038821426219336" cx="3.3038821426219336" cy="3.3038821426219336" fill="#332822"></circle>
          <circle r="3.3038821426219336" cx="3.3038821426219336" cy="21.15614342338719" fill="#332822"></circle>
        </g>
        <g transform="translate(35.74242979538823,29.540965654616173) rotate(0)">
          <rect y="4.0755084528397285" width="8.151016905679457" height="29.172202162784927" fill="#332822"></rect>
          <circle r="4.0755084528397285" cx="4.0755084528397285" cy="4.0755084528397285" fill="#b73825"></circle>
          <circle r="4.0755084528397285" cx="4.0755084528397285" cy="33.247710615624655" fill="#b73825"></circle>
        </g>
        <g transform="translate(29.743648306452496,80.89322030026068) rotate(0)">
          <rect y="3.40236969036188" width="6.80473938072376" height="21.525084651776044" fill="#b73825"></rect>
          <circle r="3.40236969036188" cx="3.40236969036188" cy="3.40236969036188" fill="#332822"></circle>
          <circle r="3.40236969036188" cx="3.40236969036188" cy="24.927454342137924" fill="#332822"></circle>
        </g>
        <g transform="translate(17.46654136086797,59.95572757973717) rotate(0)">
          <rect y="4.333769296307393" width="8.667538592614786" height="17.335077185229572" fill="#332822"></rect>
          <circle r="4.333769296307393" cx="4.333769296307393" cy="4.333769296307393" fill="#bfb9bb"></circle>
          <circle r="4.333769296307393" cx="4.333769296307393" cy="21.668846481536967" fill="#bfb9bb"></circle>
        </g>
        <g transform="translate(39.953861815302304,8.453946685629788) rotate(0)">
          <rect y="1.688568464386945" width="3.37713692877389" height="12.421270306725377" fill="#b73825"></rect>
          <circle r="1.688568464386945" cx="1.688568464386945" cy="1.688568464386945" fill="#c7bfb4"></circle>
          <circle r="1.688568464386945" cx="1.688568464386945" cy="14.109838771112322" fill="#c7bfb4"></circle>
        </g>
        <g transform="translate(78.8954576041837,77.15945032454013) rotate(0)">
          <rect y="0.824925000074141" width="1.649850000148282" height="23.74773672397626" fill="#bfb9bb"></rect>
          <circle r="0.824925000074141" cx="0.824925000074141" cy="0.824925000074141" fill="#c1b6b2"></circle>
          <circle r="0.824925000074141" cx="0.824925000074141" cy="24.5726617240504" fill="#c1b6b2"></circle>
        </g>
        <g transform="translate(57.90509098022475,55.40255639777353) rotate(0)">
          <rect y="0.6054849032793181" width="1.2109698065586363" height="20.72529631935675" fill="#332822"></rect>
          <circle r="0.6054849032793181" cx="0.6054849032793181" cy="0.6054849032793181" fill="#c1b6b2"></circle>
          <circle r="0.6054849032793181" cx="0.6054849032793181" cy="21.33078122263607" fill="#c1b6b2"></circle>
        </g>
        <g transform="translate(85.77156868970823,46.129366940436284) rotate(0)">
          <rect y="3.6313519413623703" width="7.2627038827247405" height="35.33296172268698" fill="#c1b6b2"></rect>
          <circle r="3.6313519413623703" cx="3.6313519413623703" cy="3.6313519413623703" fill="#332822"></circle>
          <circle r="3.6313519413623703" cx="3.6313519413623703" cy="38.96431366404936" fill="#332822"></circle>
        </g>
        <g transform="translate(96.09390852585628,23.35037294346328) rotate(0)">
          <rect y="0.8691137120428262" width="1.7382274240856523" height="16.48757459264358" fill="#c7bfb4"></rect>
          <circle r="0.8691137120428262" cx="0.8691137120428262" cy="0.8691137120428262" fill="#332822"></circle>
          <circle r="0.8691137120428262" cx="0.8691137120428262" cy="17.356688304686408" fill="#332822"></circle>
        </g>
        <g transform="translate(65.04790970595505,95.33258800210581) rotate(0)">
          <rect y="0.6696053834463297" width="1.3392107668926594" height="41.142098004956885" fill="#c7bfb4"></rect>
          <circle r="0.6696053834463297" cx="0.6696053834463297" cy="0.6696053834463297" fill="#b73825"></circle>
          <circle r="0.6696053834463297" cx="0.6696053834463297" cy="41.81170338840322" fill="#b73825"></circle>
        </g>
        <g transform="translate(61.3393954120372,13.738768887034986) rotate(0)">
          <rect y="4.39536806248711" width="8.79073612497422" height="17.58147224994844" fill="#332822"></rect>
          <circle r="4.39536806248711" cx="4.39536806248711" cy="4.39536806248711" fill="#bfb9bb"></circle>
          <circle r="4.39536806248711" cx="4.39536806248711" cy="21.97684031243555" fill="#bfb9bb"></circle>
        </g></svg>