<svg xmlns="http://www.w3.org/2000/svg" viewBox="0 0 100 100" id="svg" style="--frame-c: #000000; --frame-bdw: 1em; background-color: rgb(255, 0, 0); --frame-asr: 100 / 100.;">
        <g transform="translate(78.21149312048337,72.76004450135653) rotate(59)">
          <rect y="4.329192767723721" width="8.658385535447442" height="17.31677107089488" fill="#F57C00"></rect>
          <circle r="4.329192767723721" cx="4.329192767723721" cy="4.329192767723721" fill="#388E3C"></circle>
          <circle r="4.329192767723721" cx="4.329192767723721" cy="21.645963838618602" fill="#388E3C"></circle>
        </g>
        <g transform="translate(25.642838360447453,79.78185045999929) rotate(59)">
          <rect y="1.2336709867468154" width="2.467341973493631" height="35.831920867794686" fill="#D32F2F"></rect>
          <circle r="1.2336709867468154" cx="1.2336709867468154" cy="1.2336709867468154" fill="#455A64"></circle>
          <circle r="1.2336709867468154" cx="1.2336709867468154" cy="37.0655918545415" fill="#455A64"></circle>
        </g>
        <g transform="translate(34.51136287499912,61.5768790248133) rotate(59)">
          <rect y="2.3101840716306627" width="4.6203681432613255" height="10.44860172267237" fill="#7B1FA2"></rect>
          <circle r="2.3101840716306627" cx="2.3101840716306627" cy="2.3101840716306627" fill="#F57C00"></circle>
          <circle r="2.3101840716306627" cx="2.3101840716306627" cy="12.758785794303034" fill="#F57C00"></circle>
        </g>
        <g transform="translate(78.22370034541234,10.253716693080996) rotate(59)">
          <rect y="3.0920603931521504" width="6.184120786304301" height="12.3682415726086" fill="#388E3C"></rect>
          <circle r="3.0920603931521504" cx="3.0920603931521504" cy="3.0920603931521504" fill="#D32F2F"></circle>
          <circle r="3.0920603931521504" cx="3.0920603931521504" cy="15.46030196576075" fill="#D32F2F"></circle>
        </g>
        <g transform="translate(91.99989487133398,54.16211573604227) rotate(59)">
          <rect y="1.9390428003016007" width="3.8780856006032014" height="22.6823637228687" fill="#FFC107"></rect>
          <circle r="1.9390428003016007" cx="1.9390428003016007" cy="1.9390428003016007" fill="#F57C00"></circle>
          <circle r="1.9390428003016007" cx="1.9390428003016007" cy="24.621406523170304" fill="#F57C00"></circle>
        </g>
        <g transform="translate(64.01089268789585,4.359963774637947) rotate(59)">
          <rect y="1.2074141421454057" width="2.4148282842908113" height="35.38923824022217" fill="#7B1FA2"></rect>
          <circle r="1.2074141421454057" cx="1.2074141421454057" cy="1.2074141421454057" fill="#455A64"></circle>
          <circle r="1.2074141421454057" cx="1.2074141421454057" cy="36.59665238236758" fill="#455A64"></circle>
        </g>
        <g transform="translate(96.17090728068769,40.587364540802646) rotate(59)">
          <rect y="2.775541126462064" width="5.551082252924128" height="34.3909368302717" fill="#FBC02D"></rect>
          <circle r="2.775541126462064" cx="2.775541126462064" cy="2.775541126462064" fill="#D32F2F"></circle>
          <circle r="2.775541126462064" cx="2.775541126462064" cy="37.16647795673376" fill="#D32F2F"></circle>
        </g>
        <g transform="translate(58.438507746864275,3.5687855457405107) rotate(59)">
          <rect y="1.8082720425031873" width="3.6165440850063746" height="7.233088170012749" fill="#7B1FA2"></rect>
          <circle r="1.8082720425031873" cx="1.8082720425031873" cy="1.8082720425031873" fill="#455A64"></circle>
          <circle r="1.8082720425031873" cx="1.8082720425031873" cy="9.041360212515936" fill="#455A64"></circle>
        </g>
        <g transform="translate(19.853239489393324,72.46170771439219) rotate(59)">
          <rect y="1.1675335258906592" width="2.3350670517813183" height="4.670134103562637" fill="#7B1FA2"></rect>
          <circle r="1.1675335258906592" cx="1.1675335258906592" cy="1.1675335258906592" fill="#388E3C"></circle>
          <circle r="1.1675335258906592" cx="1.1675335258906592" cy="5.837667629453296" fill="#388E3C"></circle>
        </g>
        <g transform="translate(37.80079856444673,23.31683184477333) rotate(59)">
          <rect y="2.018565995559973" width="4.037131991119946" height="9.398944024100608" fill="#388E3C"></rect>
          <circle r="2.018565995559973" cx="2.018565995559973" cy="2.018565995559973" fill="#455A64"></circle>
          <circle r="2.018565995559973" cx="2.018565995559973" cy="11.41751001966058" fill="#455A64"></circle>
        </g>
        <g transform="translate(5.678895484915877,83.0467081610195) rotate(59)">
          <rect y="1.529668338686778" width="3.059336677373556" height="38.81465528953357" fill="#FBC02D"></rect>
          <circle r="1.529668338686778" cx="1.529668338686778" cy="1.529668338686778" fill="#D32F2F"></circle>
          <circle r="1.529668338686778" cx="1.529668338686778" cy="40.34432362822035" fill="#D32F2F"></circle>
        </g>
        <g transform="translate(15.635724542081832,8.287083058139622) rotate(59)">
          <rect y="2.907386518097003" width="5.814773036194006" height="11.629546072388013" fill="#FFC107"></rect>
          <circle r="2.907386518097003" cx="2.907386518097003" cy="2.907386518097003" fill="#FBC02D"></circle>
          <circle r="2.907386518097003" cx="2.907386518097003" cy="14.536932590485016" fill="#FBC02D"></circle>
        </g>
        <g transform="translate(94.27819629132318,67.67147833877574) rotate(59)">
          <rect y="4.538919013492477" width="9.077838026984955" height="18.323195404630894" fill="#FBC02D"></rect>
          <circle r="4.538919013492477" cx="4.538919013492477" cy="4.538919013492477" fill="#388E3C"></circle>
          <circle r="4.538919013492477" cx="4.538919013492477" cy="22.86211441812337" fill="#388E3C"></circle>
        </g>
        <g transform="translate(18.175080854027225,24.81732508883202) rotate(59)">
          <rect y="0.78594709871816" width="1.57189419743632" height="11.962441595375791" fill="#7B1FA2"></rect>
          <circle r="0.78594709871816" cx="0.78594709871816" cy="0.78594709871816" fill="#388E3C"></circle>
          <circle r="0.78594709871816" cx="0.78594709871816" cy="12.74838869409395" fill="#388E3C"></circle>
        </g>
        <g transform="translate(58.9888351661574,97.13534613167062) rotate(59)">
          <rect y="2.9108884906591865" width="5.821776981318373" height="17.702659777693025" fill="#FFC107"></rect>
          <circle r="2.9108884906591865" cx="2.9108884906591865" cy="2.9108884906591865" fill="#F57C00"></circle>
          <circle r="2.9108884906591865" cx="2.9108884906591865" cy="20.61354826835221" fill="#F57C00"></circle>
        </g>
        <g transform="translate(27.584686338121333,16.744984330002573) rotate(59)">
          <rect y="2.4152157906533778" width="4.8304315813067555" height="9.660863162613513" fill="#FFC107"></rect>
          <circle r="2.4152157906533778" cx="2.4152157906533778" cy="2.4152157906533778" fill="#F57C00"></circle>
          <circle r="2.4152157906533778" cx="2.4152157906533778" cy="12.07607895326689" fill="#F57C00"></circle>
        </g>
        <g transform="translate(77.32062059592475,96.85209590204741) rotate(59)">
          <rect y="2.790944829338977" width="5.581889658677954" height="27.483785304704927" fill="#7B1FA2"></rect>
          <circle r="2.790944829338977" cx="2.790944829338977" cy="2.790944829338977" fill="#D32F2F"></circle>
          <circle r="2.790944829338977" cx="2.790944829338977" cy="30.274730134043907" fill="#D32F2F"></circle>
        </g>
        <g transform="translate(69.08201641993806,97.03977355042275) rotate(59)">
          <rect y="2.119707741358196" width="4.239415482716392" height="23.978886611398888" fill="#F57C00"></rect>
          <circle r="2.119707741358196" cx="2.119707741358196" cy="2.119707741358196" fill="#455A64"></circle>
          <circle r="2.119707741358196" cx="2.119707741358196" cy="26.098594352757083" fill="#455A64"></circle>
        </g>
        <g transform="translate(87.73721608811884,96.75213257930125) rotate(59)">
          <rect y="2.1697863035817124" width="4.339572607163425" height="32.77288949944558" fill="#FBC02D"></rect>
          <circle r="2.1697863035817124" cx="2.1697863035817124" cy="2.1697863035817124" fill="#388E3C"></circle>
          <circle r="2.1697863035817124" cx="2.1697863035817124" cy="34.9426758030273" fill="#388E3C"></circle>
        </g>
        <g transform="translate(27.22156445888451,79.35297552675776) rotate(59)">
          <rect y="1.6645764217458585" width="3.329152843491717" height="24.957267851466412" fill="#F57C00"></rect>
          <circle r="1.6645764217458585" cx="1.6645764217458585" cy="1.6645764217458585" fill="#FFC107"></circle>
          <circle r="1.6645764217458585" cx="1.6645764217458585" cy="26.621844273212268" fill="#FFC107"></circle>
        </g>
        <g transform="translate(7.492127854744105,34.15807564995364) rotate(59)">
          <rect y="3.557483291160848" width="7.114966582321696" height="25.304942088688595" fill="#F57C00"></rect>
          <circle r="3.557483291160848" cx="3.557483291160848" cy="3.557483291160848" fill="#FBC02D"></circle>
          <circle r="3.557483291160848" cx="3.557483291160848" cy="28.86242537984944" fill="#FBC02D"></circle>
        </g>
        <g transform="translate(41.25597702913533,44.83800605776899) rotate(59)">
          <rect y="2.5706173132882766" width="5.141234626576553" height="32.43383054844838" fill="#1976D2"></rect>
          <circle r="2.5706173132882766" cx="2.5706173132882766" cy="2.5706173132882766" fill="#388E3C"></circle>
          <circle r="2.5706173132882766" cx="2.5706173132882766" cy="35.00444786173666" fill="#388E3C"></circle>
        </g>
        <g transform="translate(54.78318763048701,43.28817634287533) rotate(59)">
          <rect y="4.987017097581054" width="9.974034195162108" height="19.948068390324217" fill="#455A64"></rect>
          <circle r="4.987017097581054" cx="4.987017097581054" cy="4.987017097581054" fill="#D32F2F"></circle>
          <circle r="4.987017097581054" cx="4.987017097581054" cy="24.93508548790527" fill="#D32F2F"></circle>
        </g>
        <g transform="translate(31.79556721618861,96.93400169208094) rotate(59)">
          <rect y="0.8649561927097937" width="1.7299123854195875" height="9.744957399008893" fill="#388E3C"></rect>
          <circle r="0.8649561927097937" cx="0.8649561927097937" cy="0.8649561927097937" fill="#FFC107"></circle>
          <circle r="0.8649561927097937" cx="0.8649561927097937" cy="10.609913591718687" fill="#FFC107"></circle>
        </g>
        <g transform="translate(20.78175524910065,26.706094828480843) rotate(59)">
          <rect y="2.2084196577346322" width="4.4168393154692644" height="8.833678630938529" fill="#D32F2F"></rect>
          <circle r="2.2084196577346322" cx="2.2084196577346322" cy="2.2084196577346322" fill="#455A64"></circle>
          <circle r="2.2084196577346322" cx="2.2084196577346322" cy="11.042098288673161" fill="#455A64"></circle>
        </g>
        <g transform="translate(94.57202109874348,98.05604119981302) rotate(59)">
          <rect y="2.455082208947916" width="4.910164417895832" height="15.098833963011632" fill="#FBC02D"></rect>
          <circle r="2.455082208947916" cx="2.455082208947916" cy="2.455082208947916" fill="#388E3C"></circle>
          <circle r="2.455082208947916" cx="2.455082208947916" cy="17.55391617195955" fill="#388E3C"></circle>
        </g>
        <g transform="translate(42.49246755425197,95.8795918025024) rotate(59)">
          <rect y="4.939752978674449" width="9.879505957348899" height="20.35445350323807" fill="#7B1FA2"></rect>
          <circle r="4.939752978674449" cx="4.939752978674449" cy="4.939752978674449" fill="#FFC107"></circle>
          <circle r="4.939752978674449" cx="4.939752978674449" cy="25.294206481912518" fill="#FFC107"></circle>
        </g>
        <g transform="translate(74.48018502534117,37.19799133281482) rotate(59)">
          <rect y="1.8432126293214433" width="3.6864252586428865" height="12.757710525727786" fill="#F57C00"></rect>
          <circle r="1.8432126293214433" cx="1.8432126293214433" cy="1.8432126293214433" fill="#FBC02D"></circle>
          <circle r="1.8432126293214433" cx="1.8432126293214433" cy="14.60092315504923" fill="#FBC02D"></circle>
        </g>
        <g transform="translate(46.75530827506011,67.3018533253583) rotate(59)">
          <rect y="1.1667681916298251" width="2.3335363832596503" height="5.654406749942573" fill="#F57C00"></rect>
          <circle r="1.1667681916298251" cx="1.1667681916298251" cy="1.1667681916298251" fill="#388E3C"></circle>
          <circle r="1.1667681916298251" cx="1.1667681916298251" cy="6.821174941572398" fill="#388E3C"></circle>
        </g>
        <g transform="translate(57.24447275267686,61.52081976029644) rotate(59)">
          <rect y="3.7684174390912033" width="7.536834878182407" height="15.073669756364811" fill="#7B1FA2"></rect>
          <circle r="3.7684174390912033" cx="3.7684174390912033" cy="3.7684174390912033" fill="#FFC107"></circle>
          <circle r="3.7684174390912033" cx="3.7684174390912033" cy="18.842087195456017" fill="#FFC107"></circle>
        </g>
        <g transform="translate(82.64067009388583,22.695064273786997) rotate(59)">
          <rect y="3.0138625436185786" width="6.027725087237157" height="33.20630821662123" fill="#455A64"></rect>
          <circle r="3.0138625436185786" cx="3.0138625436185786" cy="3.0138625436185786" fill="#1976D2"></circle>
          <circle r="3.0138625436185786" cx="3.0138625436185786" cy="36.22017076023981" fill="#1976D2"></circle>
        </g>
        <g transform="translate(30.44660762949928,74.0160808613415) rotate(59)">
          <rect y="2.200564276545959" width="4.401128553091918" height="8.802257106183834" fill="#1976D2"></rect>
          <circle r="2.200564276545959" cx="2.200564276545959" cy="2.200564276545959" fill="#FFC107"></circle>
          <circle r="2.200564276545959" cx="2.200564276545959" cy="11.002821382729794" fill="#FFC107"></circle>
        </g>
        <g transform="translate(86.45015368975494,9.387681532248102) rotate(59)">
          <rect y="1.6490431657701867" width="3.2980863315403735" height="6.596172663080747" fill="#D32F2F"></rect>
          <circle r="1.6490431657701867" cx="1.6490431657701867" cy="1.6490431657701867" fill="#FFC107"></circle>
          <circle r="1.6490431657701867" cx="1.6490431657701867" cy="8.245215828850935" fill="#FFC107"></circle>
        </g>
        <g transform="translate(67.14141755291413,36.20030982183317) rotate(59)">
          <rect y="1.127043515655394" width="2.254087031310788" height="7.642082278523614" fill="#FBC02D"></rect>
          <circle r="1.127043515655394" cx="1.127043515655394" cy="1.127043515655394" fill="#D32F2F"></circle>
          <circle r="1.127043515655394" cx="1.127043515655394" cy="8.769125794179008" fill="#D32F2F"></circle>
        </g>
        <g transform="translate(30.664058623215713,9.465752618362025) rotate(59)">
          <rect y="0.8050815808408824" width="1.6101631616817649" height="20.291461200518317" fill="#1976D2"></rect>
          <circle r="0.8050815808408824" cx="0.8050815808408824" cy="0.8050815808408824" fill="#D32F2F"></circle>
          <circle r="0.8050815808408824" cx="0.8050815808408824" cy="21.096542781359197" fill="#D32F2F"></circle>
        </g>
        <g transform="translate(20.160719817952387,36.799987909647726) rotate(59)">
          <rect y="3.197035171095163" width="6.394070342190326" height="12.788140684380654" fill="#1976D2"></rect>
          <circle r="3.197035171095163" cx="3.197035171095163" cy="3.197035171095163" fill="#FFC107"></circle>
          <circle r="3.197035171095163" cx="3.197035171095163" cy="15.985175855475816" fill="#FFC107"></circle>
        </g>
        <g transform="translate(66.62269945843032,9.148834751702772) rotate(59)">
          <rect y="3.0400836864557608" width="6.0801673729115215" height="12.160334745823043" fill="#455A64"></rect>
          <circle r="3.0400836864557608" cx="3.0400836864557608" cy="3.0400836864557608" fill="#FFC107"></circle>
          <circle r="3.0400836864557608" cx="3.0400836864557608" cy="15.200418432278804" fill="#FFC107"></circle>
        </g>
        <g transform="translate(11.432983664164972,76.42705338620905) rotate(59)">
          <rect y="1.4815564846564613" width="2.9631129693129226" height="30.804615022454065" fill="#F57C00"></rect>
          <circle r="1.4815564846564613" cx="1.4815564846564613" cy="1.4815564846564613" fill="#FFC107"></circle>
          <circle r="1.4815564846564613" cx="1.4815564846564613" cy="32.28617150711053" fill="#FFC107"></circle>
        </g>
        <g transform="translate(19.361468556126265,97.46552843791443) rotate(59)">
          <rect y="1.8073033554601579" width="3.6146067109203157" height="30.801943144576658" fill="#7B1FA2"></rect>
          <circle r="1.8073033554601579" cx="1.8073033554601579" cy="1.8073033554601579" fill="#FBC02D"></circle>
          <circle r="1.8073033554601579" cx="1.8073033554601579" cy="32.60924650003682" fill="#FBC02D"></circle>
        </g>
        <g transform="translate(97.43052771437081,89.8314061521992) rotate(59)">
          <rect y="3.9372416484473245" width="7.874483296894649" height="28.708933581883986" fill="#FBC02D"></rect>
          <circle r="3.9372416484473245" cx="3.9372416484473245" cy="3.9372416484473245" fill="#7B1FA2"></circle>
          <circle r="3.9372416484473245" cx="3.9372416484473245" cy="32.64617523033131" fill="#7B1FA2"></circle>
        </g>
        <g transform="translate(34.19271595231533,72.33174299700354) rotate(59)">
          <rect y="1.303232417629487" width="2.606464835258974" height="28.958395362250975" fill="#D32F2F"></rect>
          <circle r="1.303232417629487" cx="1.303232417629487" cy="1.303232417629487" fill="#F57C00"></circle>
          <circle r="1.303232417629487" cx="1.303232417629487" cy="30.261627779880463" fill="#F57C00"></circle>
        </g>
        <g transform="translate(41.26306580776023,3.158042477225976) rotate(59)">
          <rect y="0.7949686862787332" width="1.5899373725574664" height="9.541053121566582" fill="#D32F2F"></rect>
          <circle r="0.7949686862787332" cx="0.7949686862787332" cy="0.7949686862787332" fill="#388E3C"></circle>
          <circle r="0.7949686862787332" cx="0.7949686862787332" cy="10.336021807845317" fill="#388E3C"></circle>
        </g>
        <g transform="translate(38.09417021906346,64.49828490433498) rotate(59)">
          <rect y="0.713156648626307" width="1.426313297252614" height="6.76620286622169" fill="#FFC107"></rect>
          <circle r="0.713156648626307" cx="0.713156648626307" cy="0.713156648626307" fill="#F57C00"></circle>
          <circle r="0.713156648626307" cx="0.713156648626307" cy="7.479359514847997" fill="#F57C00"></circle>
        </g>
        <g transform="translate(70.2757281891227,10.59876466506661) rotate(59)">
          <rect y="0.7940536312060318" width="1.5881072624120636" height="36.630277774539564" fill="#FBC02D"></rect>
          <circle r="0.7940536312060318" cx="0.7940536312060318" cy="0.7940536312060318" fill="#FFC107"></circle>
          <circle r="0.7940536312060318" cx="0.7940536312060318" cy="37.4243314057456" fill="#FFC107"></circle>
        </g>
        <g transform="translate(45.17588847000151,6.607475981233804) rotate(59)">
          <rect y="1.549169805733398" width="3.098339611466796" height="32.66280734454859" fill="#FFC107"></rect>
          <circle r="1.549169805733398" cx="1.549169805733398" cy="1.549169805733398" fill="#455A64"></circle>
          <circle r="1.549169805733398" cx="1.549169805733398" cy="34.21197715028199" fill="#455A64"></circle>
        </g></svg>