<svg xmlns="http://www.w3.org/2000/svg" viewBox="0 0 100 100" id="svg" style="--frame-c: #000000; --frame-bdw: 1em; background-color: rgb(212, 212, 212); --frame-asr: 100 / 100.;">
        <g transform="translate(78.4696133900637,34.500355492224685) rotate(0)">
          <rect y="3.7853740671571545" width="7.570748134314309" height="29.416394238711852" fill="#3A3C3F"></rect>
          <circle r="3.7853740671571545" cx="3.7853740671571545" cy="3.7853740671571545" fill="#919497"></circle>
          <circle r="3.7853740671571545" cx="3.7853740671571545" cy="33.201768305869" fill="#919497"></circle>
        </g>
        <g transform="translate(74.53263169032817,61.25274410747763) rotate(0)">
          <rect y="2.70229697999761" width="5.40459395999522" height="20.101175647032925" fill="#6B6E70"></rect>
          <circle r="2.70229697999761" cx="2.70229697999761" cy="2.70229697999761" fill="#4B4F52"></circle>
          <circle r="2.70229697999761" cx="2.70229697999761" cy="22.803472627030537" fill="#4B4F52"></circle>
        </g>
        <g transform="translate(48.58853794200916,63.96191546277048) rotate(0)">
          <rect y="3.722795065420163" width="7.445590130840326" height="14.891180261680653" fill="#3A3C3F"></rect>
          <circle r="3.722795065420163" cx="3.722795065420163" cy="3.722795065420163" fill="#C1C3C5"></circle>
          <circle r="3.722795065420163" cx="3.722795065420163" cy="18.613975327100817" fill="#C1C3C5"></circle>
        </g>
        <g transform="translate(82.20778825301372,91.72002874540763) rotate(0)">
          <rect y="2.2284119215262552" width="4.4568238430525104" height="11.194354678132644" fill="#2D2E30"></rect>
          <circle r="2.2284119215262552" cx="2.2284119215262552" cy="2.2284119215262552" fill="#C1C3C5"></circle>
          <circle r="2.2284119215262552" cx="2.2284119215262552" cy="13.422766599658898" fill="#C1C3C5"></circle>
        </g>
        <g transform="translate(29.777764247248864,86.59072402084223) rotate(0)">
          <rect y="1.3167506248115344" width="2.6335012496230688" height="11.366824779057541" fill="#A6A8AB"></rect>
          <circle r="1.3167506248115344" cx="1.3167506248115344" cy="1.3167506248115344" fill="#4B4F52"></circle>
          <circle r="1.3167506248115344" cx="1.3167506248115344" cy="12.683575403869074" fill="#4B4F52"></circle>
        </g>
        <g transform="translate(49.31721922737036,90.90280357806472) rotate(0)">
          <rect y="3.0972838441505988" width="6.1945676883011975" height="12.389135376602393" fill="#787A7C"></rect>
          <circle r="3.0972838441505988" cx="3.0972838441505988" cy="3.0972838441505988" fill="#919497"></circle>
          <circle r="3.0972838441505988" cx="3.0972838441505988" cy="15.486419220752992" fill="#919497"></circle>
        </g>
        <g transform="translate(59.21422867256235,79.6400485399949) rotate(0)">
          <rect y="2.4809262372074645" width="4.961852474414929" height="32.96452934177768" fill="#3A3C3F"></rect>
          <circle r="2.4809262372074645" cx="2.4809262372074645" cy="2.4809262372074645" fill="#4B4F52"></circle>
          <circle r="2.4809262372074645" cx="2.4809262372074645" cy="35.44545557898515" fill="#4B4F52"></circle>
        </g>
        <g transform="translate(27.61199342373272,35.883441309554755) rotate(0)">
          <rect y="2.3768357694306217" width="4.753671538861243" height="32.51828384400409" fill="#4B4F52"></rect>
          <circle r="2.3768357694306217" cx="2.3768357694306217" cy="2.3768357694306217" fill="#919497"></circle>
          <circle r="2.3768357694306217" cx="2.3768357694306217" cy="34.89511961343471" fill="#919497"></circle>
        </g>
        <g transform="translate(69.27788308310679,31.99379481475734) rotate(0)">
          <rect y="0.7460363159231436" width="1.4920726318462871" height="9.882490681556986" fill="#919497"></rect>
          <circle r="0.7460363159231436" cx="0.7460363159231436" cy="0.7460363159231436" fill="#2D2E30"></circle>
          <circle r="0.7460363159231436" cx="0.7460363159231436" cy="10.62852699748013" fill="#2D2E30"></circle>
        </g>
        <g transform="translate(2.702283162818077,50.34767322770936) rotate(0)">
          <rect y="4.987445913644058" width="9.974891827288117" height="28.49376716766642" fill="#2D2E30"></rect>
          <circle r="4.987445913644058" cx="4.987445913644058" cy="4.987445913644058" fill="#A6A8AB"></circle>
          <circle r="4.987445913644058" cx="4.987445913644058" cy="33.48121308131048" fill="#A6A8AB"></circle>
        </g>
        <g transform="translate(4.968783549162872,86.31700456887242) rotate(0)">
          <rect y="2.1615568875436924" width="4.323113775087385" height="40.24671870646634" fill="#787A7C"></rect>
          <circle r="2.1615568875436924" cx="2.1615568875436924" cy="2.1615568875436924" fill="#2D2E30"></circle>
          <circle r="2.1615568875436924" cx="2.1615568875436924" cy="42.408275594010036" fill="#2D2E30"></circle>
        </g>
        <g transform="translate(69.15567208354608,4.453607944185016) rotate(0)">
          <rect y="1.0658675575241237" width="2.1317351150482473" height="8.344500616623927" fill="#A6A8AB"></rect>
          <circle r="1.0658675575241237" cx="1.0658675575241237" cy="1.0658675575241237" fill="#4B4F52"></circle>
          <circle r="1.0658675575241237" cx="1.0658675575241237" cy="9.41036817414805" fill="#4B4F52"></circle>
        </g>
        <g transform="translate(95.56150898215242,62.5371604621996) rotate(0)">
          <rect y="3.1891922838002644" width="6.378384567600529" height="12.75676913520106" fill="#C1C3C5"></rect>
          <circle r="3.1891922838002644" cx="3.1891922838002644" cy="3.1891922838002644" fill="#3A3C3F"></circle>
          <circle r="3.1891922838002644" cx="3.1891922838002644" cy="15.945961419001325" fill="#3A3C3F"></circle>
        </g>
        <g transform="translate(52.350267146617995,53.84048824942511) rotate(0)">
          <rect y="1.4103756692848015" width="2.820751338569603" height="5.641502677139205" fill="#2D2E30"></rect>
          <circle r="1.4103756692848015" cx="1.4103756692848015" cy="1.4103756692848015" fill="#4B4F52"></circle>
          <circle r="1.4103756692848015" cx="1.4103756692848015" cy="7.051878346424006" fill="#4B4F52"></circle>
        </g>
        <g transform="translate(19.004677032363677,98.28145788330238) rotate(0)">
          <rect y="3.3692005296428924" width="6.738401059285785" height="29.094183534643953" fill="#3A3C3F"></rect>
          <circle r="3.3692005296428924" cx="3.3692005296428924" cy="3.3692005296428924" fill="#6B6E70"></circle>
          <circle r="3.3692005296428924" cx="3.3692005296428924" cy="32.46338406428684" fill="#6B6E70"></circle>
        </g>
        <g transform="translate(65.28350674416771,56.102954243707224) rotate(0)">
          <rect y="2.046719666032568" width="4.093439332065136" height="26.71212582748339" fill="#A6A8AB"></rect>
          <circle r="2.046719666032568" cx="2.046719666032568" cy="2.046719666032568" fill="#787A7C"></circle>
          <circle r="2.046719666032568" cx="2.046719666032568" cy="28.758845493515956" fill="#787A7C"></circle>
        </g>
        <g transform="translate(94.80537385548601,84.39035433791213) rotate(0)">
          <rect y="1.7278125109902347" width="3.4556250219804694" height="6.911250043960938" fill="#4B4F52"></rect>
          <circle r="1.7278125109902347" cx="1.7278125109902347" cy="1.7278125109902347" fill="#6B6E70"></circle>
          <circle r="1.7278125109902347" cx="1.7278125109902347" cy="8.639062554951172" fill="#6B6E70"></circle>
        </g>
        <g transform="translate(35.432018696719965,81.29842437949878) rotate(0)">
          <rect y="2.2058741590464015" width="4.411748318092803" height="8.823496636185606" fill="#2D2E30"></rect>
          <circle r="2.2058741590464015" cx="2.2058741590464015" cy="2.2058741590464015" fill="#4B4F52"></circle>
          <circle r="2.2058741590464015" cx="2.2058741590464015" cy="11.029370795232008" fill="#4B4F52"></circle>
        </g>
        <g transform="translate(43.29300066055433,16.387108872937148) rotate(0)">
          <rect y="3.3806071431345224" width="6.761214286269045" height="29.403521561085185" fill="#2D2E30"></rect>
          <circle r="3.3806071431345224" cx="3.3806071431345224" cy="3.3806071431345224" fill="#3A3C3F"></circle>
          <circle r="3.3806071431345224" cx="3.3806071431345224" cy="32.78412870421971" fill="#3A3C3F"></circle>
        </g>
        <g transform="translate(23.286176491976452,94.87187781133841) rotate(0)">
          <rect y="2.8805818886673866" width="5.761163777334773" height="11.522327554669548" fill="#919497"></rect>
          <circle r="2.8805818886673866" cx="2.8805818886673866" cy="2.8805818886673866" fill="#A6A8AB"></circle>
          <circle r="2.8805818886673866" cx="2.8805818886673866" cy="14.402909443336934" fill="#A6A8AB"></circle>
        </g>
        <g transform="translate(22.07561770757466,30.700889502164603) rotate(0)">
          <rect y="0.8350338735746327" width="1.6700677471492653" height="16.364609102362092" fill="#919497"></rect>
          <circle r="0.8350338735746327" cx="0.8350338735746327" cy="0.8350338735746327" fill="#2D2E30"></circle>
          <circle r="0.8350338735746327" cx="0.8350338735746327" cy="17.199642975936722" fill="#2D2E30"></circle>
        </g>
        <g transform="translate(63.977650102796325,10.636098754433668) rotate(0)">
          <rect y="1.8897023715421293" width="3.7794047430842586" height="24.032973368137604" fill="#787A7C"></rect>
          <circle r="1.8897023715421293" cx="1.8897023715421293" cy="1.8897023715421293" fill="#3A3C3F"></circle>
          <circle r="1.8897023715421293" cx="1.8897023715421293" cy="25.922675739679732" fill="#3A3C3F"></circle>
        </g>
        <g transform="translate(59.56959798100828,21.706898249043842) rotate(0)">
          <rect y="0.9420960172927026" width="1.8841920345854053" height="11.933867603762417" fill="#6B6E70"></rect>
          <circle r="0.9420960172927026" cx="0.9420960172927026" cy="0.9420960172927026" fill="#919497"></circle>
          <circle r="0.9420960172927026" cx="0.9420960172927026" cy="12.87596362105512" fill="#919497"></circle>
        </g>
        <g transform="translate(14.703129116192102,59.56713267792058) rotate(0)">
          <rect y="0.6550733624622164" width="1.3101467249244327" height="10.767565343489114" fill="#3A3C3F"></rect>
          <circle r="0.6550733624622164" cx="0.6550733624622164" cy="0.6550733624622164" fill="#A6A8AB"></circle>
          <circle r="0.6550733624622164" cx="0.6550733624622164" cy="11.42263870595133" fill="#A6A8AB"></circle>
        </g>
        <g transform="translate(31.940793865696328,84.388085377283) rotate(0)">
          <rect y="0.5080517461316161" width="1.0161034922632322" height="7.528814267060396" fill="#4B4F52"></rect>
          <circle r="0.5080517461316161" cx="0.5080517461316161" cy="0.5080517461316161" fill="#6B6E70"></circle>
          <circle r="0.5080517461316161" cx="0.5080517461316161" cy="8.03686601319201" fill="#6B6E70"></circle>
        </g>
        <g transform="translate(66.98652446363862,81.0576585317537) rotate(0)">
          <rect y="3.281405085496553" width="6.562810170993106" height="27.77531987197921" fill="#787A7C"></rect>
          <circle r="3.281405085496553" cx="3.281405085496553" cy="3.281405085496553" fill="#6B6E70"></circle>
          <circle r="3.281405085496553" cx="3.281405085496553" cy="31.056724957475765" fill="#6B6E70"></circle>
        </g>
        <g transform="translate(83.89111188362207,57.342911370627114) rotate(0)">
          <rect y="1.065188333690685" width="2.13037666738137" height="4.260753334762741" fill="#919497"></rect>
          <circle r="1.065188333690685" cx="1.065188333690685" cy="1.065188333690685" fill="#2D2E30"></circle>
          <circle r="1.065188333690685" cx="1.065188333690685" cy="5.325941668453426" fill="#2D2E30"></circle>
        </g>
        <g transform="translate(28.50430962540191,71.64904617370604) rotate(0)">
          <rect y="1.1847212092452142" width="2.3694424184904284" height="4.738884836980857" fill="#919497"></rect>
          <circle r="1.1847212092452142" cx="1.1847212092452142" cy="1.1847212092452142" fill="#787A7C"></circle>
          <circle r="1.1847212092452142" cx="1.1847212092452142" cy="5.923606046226071" fill="#787A7C"></circle>
        </g>
        <g transform="translate(7.890757329983465,69.1820126923457) rotate(0)">
          <rect y="3.25588942814072" width="6.51177885628144" height="13.023557712562882" fill="#919497"></rect>
          <circle r="3.25588942814072" cx="3.25588942814072" cy="3.25588942814072" fill="#2D2E30"></circle>
          <circle r="3.25588942814072" cx="3.25588942814072" cy="16.279447140703603" fill="#2D2E30"></circle>
        </g>
        <g transform="translate(30.80915178430828,49.461538464183185) rotate(0)">
          <rect y="3.013349869795948" width="6.026699739591896" height="12.05339947918379" fill="#A6A8AB"></rect>
          <circle r="3.013349869795948" cx="3.013349869795948" cy="3.013349869795948" fill="#C1C3C5"></circle>
          <circle r="3.013349869795948" cx="3.013349869795948" cy="15.066749348979737" fill="#C1C3C5"></circle>
        </g>
        <g transform="translate(36.107266109355145,91.15213029593437) rotate(0)">
          <rect y="2.089654585905616" width="4.179309171811232" height="10.07801877855915" fill="#6B6E70"></rect>
          <circle r="2.089654585905616" cx="2.089654585905616" cy="2.089654585905616" fill="#A6A8AB"></circle>
          <circle r="2.089654585905616" cx="2.089654585905616" cy="12.167673364464765" fill="#A6A8AB"></circle>
        </g>
        <g transform="translate(13.652689852310743,4.479108552708993) rotate(0)">
          <rect y="3.0960433434715986" width="6.192086686943197" height="12.384173373886393" fill="#6B6E70"></rect>
          <circle r="3.0960433434715986" cx="3.0960433434715986" cy="3.0960433434715986" fill="#2D2E30"></circle>
          <circle r="3.0960433434715986" cx="3.0960433434715986" cy="15.48021671735799" fill="#2D2E30"></circle>
        </g>
        <g transform="translate(85.88517117686081,43.79811924456109) rotate(0)">
          <rect y="1.8629591397048242" width="3.7259182794096484" height="7.451836558819298" fill="#787A7C"></rect>
          <circle r="1.8629591397048242" cx="1.8629591397048242" cy="1.8629591397048242" fill="#4B4F52"></circle>
          <circle r="1.8629591397048242" cx="1.8629591397048242" cy="9.314795698524122" fill="#4B4F52"></circle>
        </g>
        <g transform="translate(89.89736829056477,12.684071995213756) rotate(0)">
          <rect y="2.5194118466065927" width="5.038823693213185" height="16.859431153771073" fill="#6B6E70"></rect>
          <circle r="2.5194118466065927" cx="2.5194118466065927" cy="2.5194118466065927" fill="#C1C3C5"></circle>
          <circle r="2.5194118466065927" cx="2.5194118466065927" cy="19.378843000377664" fill="#C1C3C5"></circle>
        </g>
        <g transform="translate(15.681012721504572,60.49221670992806) rotate(0)">
          <rect y="2.88407355640713" width="5.76814711281426" height="11.536294225628518" fill="#3A3C3F"></rect>
          <circle r="2.88407355640713" cx="2.88407355640713" cy="2.88407355640713" fill="#C1C3C5"></circle>
          <circle r="2.88407355640713" cx="2.88407355640713" cy="14.420367782035648" fill="#C1C3C5"></circle>
        </g>
        <g transform="translate(95.02040514329249,4.5263085119632365) rotate(0)">
          <rect y="2.8623826619208534" width="5.724765323841707" height="24.616634273751025" fill="#6B6E70"></rect>
          <circle r="2.8623826619208534" cx="2.8623826619208534" cy="2.8623826619208534" fill="#2D2E30"></circle>
          <circle r="2.8623826619208534" cx="2.8623826619208534" cy="27.47901693567188" fill="#2D2E30"></circle>
        </g>
        <g transform="translate(55.16626466236135,36.79962066055792) rotate(0)">
          <rect y="2.891050047859327" width="5.782100095718654" height="11.564200191437308" fill="#4B4F52"></rect>
          <circle r="2.891050047859327" cx="2.891050047859327" cy="2.891050047859327" fill="#919497"></circle>
          <circle r="2.891050047859327" cx="2.891050047859327" cy="14.455250239296635" fill="#919497"></circle>
        </g>
        <g transform="translate(71.11448071879488,79.97827021088247) rotate(0)">
          <rect y="4.010612888590354" width="8.021225777180709" height="19.602355294288394" fill="#3A3C3F"></rect>
          <circle r="4.010612888590354" cx="4.010612888590354" cy="4.010612888590354" fill="#787A7C"></circle>
          <circle r="4.010612888590354" cx="4.010612888590354" cy="23.61296818287875" fill="#787A7C"></circle>
        </g>
        <g transform="translate(91.20259437000837,30.162630344775128) rotate(0)">
          <rect y="3.246777420150531" width="6.493554840301062" height="12.987109680602124" fill="#919497"></rect>
          <circle r="3.246777420150531" cx="3.246777420150531" cy="3.246777420150531" fill="#3A3C3F"></circle>
          <circle r="3.246777420150531" cx="3.246777420150531" cy="16.233887100752654" fill="#3A3C3F"></circle>
        </g>
        <g transform="translate(22.177144486605794,57.484776730687564) rotate(0)">
          <rect y="1.0328544740081487" width="2.0657089480162973" height="10.687507165124444" fill="#C1C3C5"></rect>
          <circle r="1.0328544740081487" cx="1.0328544740081487" cy="1.0328544740081487" fill="#4B4F52"></circle>
          <circle r="1.0328544740081487" cx="1.0328544740081487" cy="11.720361639132593" fill="#4B4F52"></circle>
        </g>
        <g transform="translate(39.63290459635962,90.9815535207926) rotate(0)">
          <rect y="1.6416783950447837" width="3.2833567900895675" height="12.00808511906995" fill="#3A3C3F"></rect>
          <circle r="1.6416783950447837" cx="1.6416783950447837" cy="1.6416783950447837" fill="#A6A8AB"></circle>
          <circle r="1.6416783950447837" cx="1.6416783950447837" cy="13.649763514114733" fill="#A6A8AB"></circle>
        </g>
        <g transform="translate(9.85414430497196,24.111683943326017) rotate(0)">
          <rect y="2.964220863956225" width="5.92844172791245" height="11.8568834558249" fill="#919497"></rect>
          <circle r="2.964220863956225" cx="2.964220863956225" cy="2.964220863956225" fill="#A6A8AB"></circle>
          <circle r="2.964220863956225" cx="2.964220863956225" cy="14.821104319781124" fill="#A6A8AB"></circle>
        </g>
        <g transform="translate(40.24039777697574,41.67499315152954) rotate(0)">
          <rect y="0.8183316028365206" width="1.6366632056730412" height="7.972210248163581" fill="#C1C3C5"></rect>
          <circle r="0.8183316028365206" cx="0.8183316028365206" cy="0.8183316028365206" fill="#4B4F52"></circle>
          <circle r="0.8183316028365206" cx="0.8183316028365206" cy="8.790541851000102" fill="#4B4F52"></circle>
        </g>
        <g transform="translate(96.82331292167119,88.91020897732241) rotate(0)">
          <rect y="4.033573714965993" width="8.067147429931985" height="16.13429485986397" fill="#2D2E30"></rect>
          <circle r="4.033573714965993" cx="4.033573714965993" cy="4.033573714965993" fill="#6B6E70"></circle>
          <circle r="4.033573714965993" cx="4.033573714965993" cy="20.167868574829964" fill="#6B6E70"></circle>
        </g>
        <g transform="translate(47.10108039705251,2.4438887233094277) rotate(0)">
          <rect y="1.4580798560347228" width="2.9161597120694456" height="9.132512969145266" fill="#6B6E70"></rect>
          <circle r="1.4580798560347228" cx="1.4580798560347228" cy="1.4580798560347228" fill="#A6A8AB"></circle>
          <circle r="1.4580798560347228" cx="1.4580798560347228" cy="10.59059282517999" fill="#A6A8AB"></circle>
        </g>
        <g transform="translate(87.06454607646714,58.62802340417669) rotate(0)">
          <rect y="2.351169530763978" width="4.702339061527956" height="13.561161963092198" fill="#787A7C"></rect>
          <circle r="2.351169530763978" cx="2.351169530763978" cy="2.351169530763978" fill="#4B4F52"></circle>
          <circle r="2.351169530763978" cx="2.351169530763978" cy="15.912331493856176" fill="#4B4F52"></circle>
        </g>
        <g transform="translate(76.60185234106936,97.29873965459454) rotate(0)">
          <rect y="0.8030065614654406" width="1.6060131229308812" height="3.212026245861762" fill="#787A7C"></rect>
          <circle r="0.8030065614654406" cx="0.8030065614654406" cy="0.8030065614654406" fill="#4B4F52"></circle>
          <circle r="0.8030065614654406" cx="0.8030065614654406" cy="4.015032807327203" fill="#4B4F52"></circle>
        </g>
        <g transform="translate(53.046611865564486,65.90309325544757) rotate(0)">
          <rect y="1.0690622974623003" width="2.1381245949246006" height="38.731878967356366" fill="#3A3C3F"></rect>
          <circle r="1.0690622974623003" cx="1.0690622974623003" cy="1.0690622974623003" fill="#C1C3C5"></circle>
          <circle r="1.0690622974623003" cx="1.0690622974623003" cy="39.80094126481866" fill="#C1C3C5"></circle>
        </g>
        <g transform="translate(50.26306731074402,27.725161292088025) rotate(0)">
          <rect y="0.904691064570546" width="1.809382129141092" height="5.599347486990024" fill="#3A3C3F"></rect>
          <circle r="0.904691064570546" cx="0.904691064570546" cy="0.904691064570546" fill="#919497"></circle>
          <circle r="0.904691064570546" cx="0.904691064570546" cy="6.50403855156057" fill="#919497"></circle>
        </g>
        <g transform="translate(36.681942554931645,48.20327784713258) rotate(0)">
          <rect y="1.641767241834343" width="3.283534483668686" height="6.567068967337373" fill="#6B6E70"></rect>
          <circle r="1.641767241834343" cx="1.641767241834343" cy="1.641767241834343" fill="#2D2E30"></circle>
          <circle r="1.641767241834343" cx="1.641767241834343" cy="8.208836209171716" fill="#2D2E30"></circle>
        </g>
        <g transform="translate(41.82484410153711,63.13823186870448) rotate(0)">
          <rect y="1.0235933954177248" width="2.0471867908354495" height="29.545792461842737" fill="#6B6E70"></rect>
          <circle r="1.0235933954177248" cx="1.0235933954177248" cy="1.0235933954177248" fill="#3A3C3F"></circle>
          <circle r="1.0235933954177248" cx="1.0235933954177248" cy="30.569385857260464" fill="#3A3C3F"></circle>
        </g>
        <g transform="translate(32.966611003245674,17.84167785445512) rotate(0)">
          <rect y="1.4399803095848007" width="2.8799606191696014" height="5.759921238339203" fill="#C1C3C5"></rect>
          <circle r="1.4399803095848007" cx="1.4399803095848007" cy="1.4399803095848007" fill="#2D2E30"></circle>
          <circle r="1.4399803095848007" cx="1.4399803095848007" cy="7.199901547924004" fill="#2D2E30"></circle>
        </g>
        <g transform="translate(43.40728882715209,40.12224070256572) rotate(0)">
          <rect y="1.7270839672339755" width="3.454167934467951" height="6.908335868935903" fill="#787A7C"></rect>
          <circle r="1.7270839672339755" cx="1.7270839672339755" cy="1.7270839672339755" fill="#4B4F52"></circle>
          <circle r="1.7270839672339755" cx="1.7270839672339755" cy="8.635419836169879" fill="#4B4F52"></circle>
        </g>
        <g transform="translate(43.80151374077461,83.33156373118047) rotate(0)">
          <rect y="0.9256642567107727" width="1.8513285134215454" height="37.337384699727394" fill="#919497"></rect>
          <circle r="0.9256642567107727" cx="0.9256642567107727" cy="0.9256642567107727" fill="#3A3C3F"></circle>
          <circle r="0.9256642567107727" cx="0.9256642567107727" cy="38.26304895643816" fill="#3A3C3F"></circle>
        </g>
        <g transform="translate(7.7964592793716605,45.955223854934594) rotate(0)">
          <rect y="0.8072810822020287" width="1.6145621644040573" height="10.522962721035702" fill="#787A7C"></rect>
          <circle r="0.8072810822020287" cx="0.8072810822020287" cy="0.8072810822020287" fill="#C1C3C5"></circle>
          <circle r="0.8072810822020287" cx="0.8072810822020287" cy="11.330243803237732" fill="#C1C3C5"></circle>
        </g>
        <g transform="translate(86.64338397440861,92.21473728532482) rotate(0)">
          <rect y="2.5427872740753736" width="5.085574548150747" height="25.07507005526393" fill="#A6A8AB"></rect>
          <circle r="2.5427872740753736" cx="2.5427872740753736" cy="2.5427872740753736" fill="#3A3C3F"></circle>
          <circle r="2.5427872740753736" cx="2.5427872740753736" cy="27.6178573293393" fill="#3A3C3F"></circle>
        </g>
        <g transform="translate(77.84867071778748,74.30512318067701) rotate(0)">
          <rect y="0.7359501819135332" width="1.4719003638270665" height="36.71802526463097" fill="#787A7C"></rect>
          <circle r="0.7359501819135332" cx="0.7359501819135332" cy="0.7359501819135332" fill="#3A3C3F"></circle>
          <circle r="0.7359501819135332" cx="0.7359501819135332" cy="37.453975446544504" fill="#3A3C3F"></circle>
        </g>
        <g transform="translate(7.896679943841001,82.86210485381018) rotate(0)">
          <rect y="1.8935564650682144" width="3.787112930136429" height="38.33995230246827" fill="#6B6E70"></rect>
          <circle r="1.8935564650682144" cx="1.8935564650682144" cy="1.8935564650682144" fill="#A6A8AB"></circle>
          <circle r="1.8935564650682144" cx="1.8935564650682144" cy="40.233508767536485" fill="#A6A8AB"></circle>
        </g>
        <g transform="translate(34.856072932423665,24.085298783745973) rotate(0)">
          <rect y="0.8354614662775608" width="1.6709229325551216" height="8.710532150243422" fill="#A6A8AB"></rect>
          <circle r="0.8354614662775608" cx="0.8354614662775608" cy="0.8354614662775608" fill="#6B6E70"></circle>
          <circle r="0.8354614662775608" cx="0.8354614662775608" cy="9.545993616520983" fill="#6B6E70"></circle>
        </g>
        <g transform="translate(12.672094270968735,88.36794024553312) rotate(0)">
          <rect y="0.5286508068431491" width="1.0573016136862983" height="25.68559249038529" fill="#787A7C"></rect>
          <circle r="0.5286508068431491" cx="0.5286508068431491" cy="0.5286508068431491" fill="#6B6E70"></circle>
          <circle r="0.5286508068431491" cx="0.5286508068431491" cy="26.21424329722844" fill="#6B6E70"></circle>
        </g>
        <g transform="translate(29.92776037725712,97.47440556303158) rotate(0)">
          <rect y="1.9320409965403043" width="3.8640819930806085" height="35.964589628194986" fill="#A6A8AB"></rect>
          <circle r="1.9320409965403043" cx="1.9320409965403043" cy="1.9320409965403043" fill="#2D2E30"></circle>
          <circle r="1.9320409965403043" cx="1.9320409965403043" cy="37.896630624735295" fill="#2D2E30"></circle>
        </g>
        <g transform="translate(97.88693436157774,6.679856596732158) rotate(0)">
          <rect y="4.018042867208477" width="8.036085734416954" height="16.072171468833908" fill="#787A7C"></rect>
          <circle r="4.018042867208477" cx="4.018042867208477" cy="4.018042867208477" fill="#4B4F52"></circle>
          <circle r="4.018042867208477" cx="4.018042867208477" cy="20.090214336042386" fill="#4B4F52"></circle>
        </g>
        <g transform="translate(61.78114682283187,27.37104136376982) rotate(0)">
          <rect y="1.1039744475329307" width="2.2079488950658614" height="6.3587592869441" fill="#919497"></rect>
          <circle r="1.1039744475329307" cx="1.1039744475329307" cy="1.1039744475329307" fill="#6B6E70"></circle>
          <circle r="1.1039744475329307" cx="1.1039744475329307" cy="7.46273373447703" fill="#6B6E70"></circle>
        </g>
        <g transform="translate(55.6725421447619,46.608210221906354) rotate(0)">
          <rect y="0.6166304932110037" width="1.2332609864220074" height="6.323482521991437" fill="#787A7C"></rect>
          <circle r="0.6166304932110037" cx="0.6166304932110037" cy="0.6166304932110037" fill="#919497"></circle>
          <circle r="0.6166304932110037" cx="0.6166304932110037" cy="6.940113015202441" fill="#919497"></circle>
        </g>
        <g transform="translate(72.8755231310164,96.82196321287213) rotate(0)">
          <rect y="0.6085807869808044" width="1.2171615739616088" height="11.663974336479278" fill="#4B4F52"></rect>
          <circle r="0.6085807869808044" cx="0.6085807869808044" cy="0.6085807869808044" fill="#A6A8AB"></circle>
          <circle r="0.6085807869808044" cx="0.6085807869808044" cy="12.272555123460082" fill="#A6A8AB"></circle>
        </g>
        <g transform="translate(35.59223355723953,2.6261336900049344) rotate(0)">
          <rect y="1.9477427204739532" width="3.8954854409479065" height="7.790970881895813" fill="#3A3C3F"></rect>
          <circle r="1.9477427204739532" cx="1.9477427204739532" cy="1.9477427204739532" fill="#4B4F52"></circle>
          <circle r="1.9477427204739532" cx="1.9477427204739532" cy="9.738713602369767" fill="#4B4F52"></circle>
        </g>
        <g transform="translate(19.905192868030504,64.99296410916489) rotate(0)">
          <rect y="0.9378730672231833" width="1.8757461344463666" height="3.7514922688927337" fill="#919497"></rect>
          <circle r="0.9378730672231833" cx="0.9378730672231833" cy="0.9378730672231833" fill="#6B6E70"></circle>
          <circle r="0.9378730672231833" cx="0.9378730672231833" cy="4.689365336115917" fill="#6B6E70"></circle>
        </g>
        <g transform="translate(9.203446618053704,36.4759020730388) rotate(0)">
          <rect y="1.6427637536519906" width="3.285527507303981" height="17.111760199852" fill="#6B6E70"></rect>
          <circle r="1.6427637536519906" cx="1.6427637536519906" cy="1.6427637536519906" fill="#C1C3C5"></circle>
          <circle r="1.6427637536519906" cx="1.6427637536519906" cy="18.75452395350399" fill="#C1C3C5"></circle>
        </g>
        <g transform="translate(53.60475109777452,95.56068548367968) rotate(0)">
          <rect y="1.0935805331450719" width="2.1871610662901437" height="27.979181104111184" fill="#4B4F52"></rect>
          <circle r="1.0935805331450719" cx="1.0935805331450719" cy="1.0935805331450719" fill="#3A3C3F"></circle>
          <circle r="1.0935805331450719" cx="1.0935805331450719" cy="29.072761637256257" fill="#3A3C3F"></circle>
        </g>
        <g transform="translate(14.931686119286105,24.60859903715932) rotate(0)">
          <rect y="0.7195045170957216" width="1.4390090341914432" height="19.4296961810536" fill="#3A3C3F"></rect>
          <circle r="0.7195045170957216" cx="0.7195045170957216" cy="0.7195045170957216" fill="#2D2E30"></circle>
          <circle r="0.7195045170957216" cx="0.7195045170957216" cy="20.149200698149322" fill="#2D2E30"></circle>
        </g>
        <g transform="translate(31.555103470674283,60.36721372911984) rotate(0)">
          <rect y="1.4134981125451889" width="2.8269962250903777" height="5.6539924501807555" fill="#6B6E70"></rect>
          <circle r="1.4134981125451889" cx="1.4134981125451889" cy="1.4134981125451889" fill="#4B4F52"></circle>
          <circle r="1.4134981125451889" cx="1.4134981125451889" cy="7.067490562725944" fill="#4B4F52"></circle>
        </g>
        <g transform="translate(24.39641171159124,4.4458841326909635) rotate(0)">
          <rect y="0.5873848927959823" width="1.1747697855919645" height="2.3495395711839295" fill="#3A3C3F"></rect>
          <circle r="0.5873848927959823" cx="0.5873848927959823" cy="0.5873848927959823" fill="#A6A8AB"></circle>
          <circle r="0.5873848927959823" cx="0.5873848927959823" cy="2.9369244639799117" fill="#A6A8AB"></circle>
        </g>
        <g transform="translate(16.672090913776557,32.957858906397995) rotate(0)">
          <rect y="1.6755484919610757" width="3.3510969839221514" height="6.702193967844304" fill="#C1C3C5"></rect>
          <circle r="1.6755484919610757" cx="1.6755484919610757" cy="1.6755484919610757" fill="#787A7C"></circle>
          <circle r="1.6755484919610757" cx="1.6755484919610757" cy="8.37774245980538" fill="#787A7C"></circle>
        </g>
        <g transform="translate(97.24458399734715,36.65583456986129) rotate(0)">
          <rect y="1.5115316159602368" width="3.0230632319204735" height="6.046126463840946" fill="#6B6E70"></rect>
          <circle r="1.5115316159602368" cx="1.5115316159602368" cy="1.5115316159602368" fill="#A6A8AB"></circle>
          <circle r="1.5115316159602368" cx="1.5115316159602368" cy="7.5576580798011825" fill="#A6A8AB"></circle>
        </g>
        <g transform="translate(1.7050673176904425,12.925109425602038) rotate(0)">
          <rect y="2.5234528093808555" width="5.046905618761711" height="10.093811237523422" fill="#C1C3C5"></rect>
          <circle r="2.5234528093808555" cx="2.5234528093808555" cy="2.5234528093808555" fill="#A6A8AB"></circle>
          <circle r="2.5234528093808555" cx="2.5234528093808555" cy="12.617264046904278" fill="#A6A8AB"></circle>
        </g>
        <g transform="translate(21.92509165955857,7.51816068297056) rotate(0)">
          <rect y="0.6352869970148045" width="1.270573994029609" height="2.8956076342363493" fill="#6B6E70"></rect>
          <circle r="0.6352869970148045" cx="0.6352869970148045" cy="0.6352869970148045" fill="#919497"></circle>
          <circle r="0.6352869970148045" cx="0.6352869970148045" cy="3.5308946312511535" fill="#919497"></circle>
        </g>
        <g transform="translate(33.26281090109113,63.73195785440831) rotate(0)">
          <rect y="1.2552729717817956" width="2.5105459435635913" height="5.021091887127183" fill="#919497"></rect>
          <circle r="1.2552729717817956" cx="1.2552729717817956" cy="1.2552729717817956" fill="#3A3C3F"></circle>
          <circle r="1.2552729717817956" cx="1.2552729717817956" cy="6.276364858908979" fill="#3A3C3F"></circle>
        </g>
        <g transform="translate(46.77265205925878,20.754998556382887) rotate(0)">
          <rect y="1.0503433455165831" width="2.1006866910331663" height="7.778004649744181" fill="#919497"></rect>
          <circle r="1.0503433455165831" cx="1.0503433455165831" cy="1.0503433455165831" fill="#A6A8AB"></circle>
          <circle r="1.0503433455165831" cx="1.0503433455165831" cy="8.828347995260764" fill="#A6A8AB"></circle>
        </g>
        <g transform="translate(92.73897154875523,42.688553331594974) rotate(0)">
          <rect y="1.091427485860629" width="2.182854971721258" height="6.075063116397097" fill="#6B6E70"></rect>
          <circle r="1.091427485860629" cx="1.091427485860629" cy="1.091427485860629" fill="#A6A8AB"></circle>
          <circle r="1.091427485860629" cx="1.091427485860629" cy="7.166490602257726" fill="#A6A8AB"></circle>
        </g>
        <g transform="translate(54.62527768880818,11.759774731265352) rotate(0)">
          <rect y="1.9247099175183855" width="3.849419835036771" height="7.698839670073541" fill="#A6A8AB"></rect>
          <circle r="1.9247099175183855" cx="1.9247099175183855" cy="1.9247099175183855" fill="#2D2E30"></circle>
          <circle r="1.9247099175183855" cx="1.9247099175183855" cy="9.623549587591928" fill="#2D2E30"></circle>
        </g>
        <g transform="translate(82.81753799967919,12.473015856715769) rotate(0)">
          <rect y="0.5400382898507153" width="1.0800765797014307" height="5.446140258383363" fill="#787A7C"></rect>
          <circle r="0.5400382898507153" cx="0.5400382898507153" cy="0.5400382898507153" fill="#919497"></circle>
          <circle r="0.5400382898507153" cx="0.5400382898507153" cy="5.986178548234079" fill="#919497"></circle>
        </g>
        <g transform="translate(78.86668395483491,3.645191883003193) rotate(0)">
          <rect y="0.9395222270611782" width="1.8790444541223563" height="9.065657029408863" fill="#6B6E70"></rect>
          <circle r="0.9395222270611782" cx="0.9395222270611782" cy="0.9395222270611782" fill="#919497"></circle>
          <circle r="0.9395222270611782" cx="0.9395222270611782" cy="10.00517925647004" fill="#919497"></circle>
        </g>
        <g transform="translate(89.6076646457319,41.54473266383765) rotate(0)">
          <rect y="0.5173579198151724" width="1.0347158396303449" height="22.239288144410942" fill="#919497"></rect>
          <circle r="0.5173579198151724" cx="0.5173579198151724" cy="0.5173579198151724" fill="#2D2E30"></circle>
          <circle r="0.5173579198151724" cx="0.5173579198151724" cy="22.756646064226114" fill="#2D2E30"></circle>
        </g>
        <g transform="translate(37.33551751599886,65.65613637961326) rotate(0)">
          <rect y="1.40177678536386" width="2.80355357072772" height="5.60710714145544" fill="#919497"></rect>
          <circle r="1.40177678536386" cx="1.40177678536386" cy="1.40177678536386" fill="#787A7C"></circle>
          <circle r="1.40177678536386" cx="1.40177678536386" cy="7.0088839268193" fill="#787A7C"></circle>
        </g>
        <g transform="translate(47.560311072338884,37.887139455837264) rotate(0)">
          <rect y="1.0623370422931355" width="2.124674084586271" height="4.249348169172542" fill="#787A7C"></rect>
          <circle r="1.0623370422931355" cx="1.0623370422931355" cy="1.0623370422931355" fill="#3A3C3F"></circle>
          <circle r="1.0623370422931355" cx="1.0623370422931355" cy="5.311685211465678" fill="#3A3C3F"></circle>
        </g>
        <g transform="translate(68.83034062427478,52.99218404592197) rotate(0)">
          <rect y="0.8151617883731729" width="1.6303235767463458" height="3.260647153492692" fill="#C1C3C5"></rect>
          <circle r="0.8151617883731729" cx="0.8151617883731729" cy="0.8151617883731729" fill="#919497"></circle>
          <circle r="0.8151617883731729" cx="0.8151617883731729" cy="4.075808941865865" fill="#919497"></circle>
        </g>
        <g transform="translate(56.60968677360054,49.18744869871378) rotate(0)">
          <rect y="1.2974608432169288" width="2.5949216864338576" height="8.18145717690022" fill="#A6A8AB"></rect>
          <circle r="1.2974608432169288" cx="1.2974608432169288" cy="1.2974608432169288" fill="#2D2E30"></circle>
          <circle r="1.2974608432169288" cx="1.2974608432169288" cy="9.478918020117149" fill="#2D2E30"></circle>
        </g>
        <g transform="translate(10.245106041963425,92.43712338282) rotate(0)">
          <rect y="0.8541035974487675" width="1.708207194897535" height="3.4164143897950696" fill="#4B4F52"></rect>
          <circle r="0.8541035974487675" cx="0.8541035974487675" cy="0.8541035974487675" fill="#C1C3C5"></circle>
          <circle r="0.8541035974487675" cx="0.8541035974487675" cy="4.270517987243838" fill="#C1C3C5"></circle>
        </g>
        <g transform="translate(18.835282368318758,7.224231930982548) rotate(0)">
          <rect y="0.6242920323945935" width="1.248584064789187" height="25.68871415399016" fill="#C1C3C5"></rect>
          <circle r="0.6242920323945935" cx="0.6242920323945935" cy="0.6242920323945935" fill="#4B4F52"></circle>
          <circle r="0.6242920323945935" cx="0.6242920323945935" cy="26.313006186384754" fill="#4B4F52"></circle>
        </g>
        <g transform="translate(18.381640132425265,39.88561452761988) rotate(0)">
          <rect y="0.5116833202877433" width="1.0233666405754867" height="8.030558507180062" fill="#3A3C3F"></rect>
          <circle r="0.5116833202877433" cx="0.5116833202877433" cy="0.5116833202877433" fill="#C1C3C5"></circle>
          <circle r="0.5116833202877433" cx="0.5116833202877433" cy="8.542241827467807" fill="#C1C3C5"></circle>
        </g>
        <g transform="translate(91.30583083379159,78.1452166627094) rotate(0)">
          <rect y="0.6281753258025183" width="1.2563506516050367" height="19.591533611196287" fill="#2D2E30"></rect>
          <circle r="0.6281753258025183" cx="0.6281753258025183" cy="0.6281753258025183" fill="#6B6E70"></circle>
          <circle r="0.6281753258025183" cx="0.6281753258025183" cy="20.219708936998803" fill="#6B6E70"></circle>
        </g>
        <g transform="translate(49.96665844018956,5.729163291804845) rotate(0)">
          <rect y="0.822018182963562" width="1.644036365927124" height="21.396192283106387" fill="#3A3C3F"></rect>
          <circle r="0.822018182963562" cx="0.822018182963562" cy="0.822018182963562" fill="#787A7C"></circle>
          <circle r="0.822018182963562" cx="0.822018182963562" cy="22.21821046606995" fill="#787A7C"></circle>
        </g>
        <g transform="translate(30.17042545246283,12.513065251487618) rotate(0)">
          <rect y="4.818024261201929" width="9.636048522403858" height="24.591363567868424" fill="#6B6E70"></rect>
          <circle r="4.818024261201929" cx="4.818024261201929" cy="4.818024261201929" fill="#3A3C3F"></circle>
          <circle r="4.818024261201929" cx="4.818024261201929" cy="29.409387829070354" fill="#3A3C3F"></circle>
        </g></svg>