<svg xmlns="http://www.w3.org/2000/svg" fill="none" viewBox="0 0 1090 777">
  <path stroke="#009CD3" stroke-linecap="round" stroke-linejoin="round" stroke-width="10" d="M455.706 447.952c-37.189 37.264-216.551 216.979-168.401 168.651M783.523 63.596S660.628 186.807 645.619 201.701c15.548 25.183 24.473 54.835 24.473 86.518 0 91.122-73.821 165.048-164.81 165.048-7.977 0-35.558-1.624-48.806-5.957"/>
  <circle cx="506.718" cy="288.348" r="148" stroke="#FF0A0A" stroke-width="10"/>
  <path fill="#FFC600" fill-rule="evenodd" d="M650.192 328.253a4.974 4.974 0 0 1 3.116 1.447l264.929 264.929a5 5 0 1 1-7.071 7.071l-263.67-263.67H80.71a5 5 0 0 1 0-10h568c.516 0 1.014.078 1.482.223Z" clip-rule="evenodd"/>
  <path fill="#008D41" fill-rule="evenodd" d="M75.71 352.2a5 5 0 0 1 5-5h557a4.98 4.98 0 0 1 3.131 1.101 4.98 4.98 0 0 1 2.186 1.271l39.814 39.533a4.976 4.976 0 0 1 1.457 3.104c.265.61.412 1.283.412 1.991v292a5 5 0 0 1-10 0V395.124L636.516 357.2H80.71a5 5 0 0 1-5-5Z" clip-rule="evenodd"/>
</svg>