<svg xmlns="http://www.w3.org/2000/svg" viewBox="0 0 100 100" id="svg" style="--frame-c: #f6c6a4; --frame-bdw: 1em; stroke: rgb(128, 82, 128); stroke-width: 0; background-color: rgb(210, 55, 55); --frame-asr: 100 / 100.;">
		<g transform="translate(50, 50) scale(0.95)">
			<polygon points="7,0 50,0 24.912321481237605,-2.091946083307896" fill="#fa8500"></polygon><polygon points="6.975450014746531,0.5857449033262083 49.82464296247522,4.183892166615774 25,0" fill="#fa8600"></polygon><polygon points="6.901972259493535,1.1673812270127157 49.29980185352525,8.338437335805112 24.91232148123761,2.091946083307887" fill="#fa8600"></polygon><polygon points="6.7800821279004175,1.7408292101539833 48.429158056431554,12.434494358242738 24.649900926762626,4.169218667902556" fill="#fa8700"></polygon><polygon points="6.610634591662368,2.3020665271700826 47.218818511874055,16.44333233692916 24.214579028215777,6.217247179121369" fill="#fa8700"></polygon><polygon points="6.394818203498206,2.847156501530601 45.67727288213004,20.336832153790006 23.609409255937027,8.22166616846458" fill="#fa8800"></polygon><polygon points="6.134146760307045,3.3722757187120065 43.81533400219318,24.08768370508576 22.83863644106502,10.168416076895003" fill="#fa8800"></polygon><polygon points="5.830448684970697,3.873740844703408 41.646062035504976,27.6695774621672 21.90766700109659,12.04384185254288" fill="#fa8900"></polygon><polygon points="5.485854201280879,4.348034461948172 39.18467286629199,31.057389013915515 20.823031017752488,13.8347887310836" fill="#fa8900"></polygon><polygon points="5.102780391949881,4.791829741500821 36.448431371070576,34.22735529643443 19.592336433145995,15.528694506957757" fill="#fa8a00"></polygon><polygon points="4.683914244512008,5.20201377834176 33.456530317942914,37.157241273869715 18.224215685535288,17.113677648217216" fill="#fa8a00"></polygon><polygon points="4.2321938040366245,5.575709426169373 30.229955743118747,39.82649590120981 16.728265158971457,18.578620636934858" fill="#fa8b00"></polygon><polygon points="3.7507875648529776,5.910295478514104 26.791339748949838,42.21639627510075 15.114977871559374,19.913247950604905" fill="#fa8b00"></polygon><polygon points="3.2430722458390324,6.203425054618503 23.16480175599309,44.31017896156074 13.395669874474919,21.108198137550374" fill="#fa8c00"></polygon><polygon points="2.712609105164722,6.453042061119504 19.375779322605155,46.093157579425025 11.582400877996545,22.15508948078037" fill="#fa8c00"></polygon><polygon points="2.163118960624632,6.657395614066075 15.450849718747373,47.552825814757675 9.687889661302577,23.046578789712513" fill="#fa8d00"></polygon><polygon points="1.5984560907745913,6.815052320112121 11.417543505532795,48.67894514365801 7.725424859373686,23.776412907378838" fill="#fa8d00"></polygon><polygon points="1.022581199936883,6.924906330740918 7.304151428120593,49.46361664814942 5.708771752766397,24.339472571829006" fill="#fa8e00"></polygon><polygon points="0.4395336367051947,6.986187098997901 3.139525976465676,49.901336421413575 3.6520757140602966,24.73180832407471" fill="#fa8e00"></polygon><polygon points="-0.14659693918349692,6.998464784323918 -1.0471209941678352,49.989034173742276 1.569762988232838,24.950668210706787" fill="#fa8f00"></polygon><polygon points="-0.7316992428735734,6.961653267577914 -5.226423163382667,49.72609476841367 -0.5235604970839176,24.994517086871138" fill="#fa8f00"></polygon><polygon points="-1.3116692021000707,6.876010755100821 -9.36906572928622,49.114362536434435 -2.6132115816913335,24.863047384206833" fill="#fa9000"></polygon><polygon points="-1.882438744306859,6.7421379675836075 -13.44599103076328,48.15812833988291 -4.68453286464311,24.557181268217217" fill="#fa9000"></polygon><polygon points="-2.4400043312527053,6.560973926443241 -17.42860236609075,46.86409947459458 -6.72299551538164,24.079064169941454" fill="#fa9100"></polygon><polygon points="-2.980455040955506,6.3337893672621375 -21.288964578253616,45.24135262330098 -8.714301183045375,23.43204973729729" fill="#fa9100"></polygon><polygon points="-3.4999999999999982,6.062177826491071 -24.99999999999999,43.30127018922194 -10.644482289126808,22.62067631165049" fill="#fa9200"></polygon><polygon points="-3.9949949737910213,5.748044463935929 -28.53567838422158,41.057460456685206 -12.499999999999995,21.65063509461097" fill="#fa9200"></polygon><polygon points="-4.461967928240826,5.393592699430526 -31.87119948743447,38.52566213878947 -14.26783919211079,20.528730228342603" fill="#fa9300"></polygon><polygon points="-4.897643383593556,5.001308757429625 -34.98316702566826,35.72363398164018 -15.935599743717235,19.262831069394736" fill="#fa9300"></polygon><polygon points="-5.298965389562294,4.573944227930739 -37.849752782587814,32.67103019950528 -17.49158351283413,17.86181699082009" fill="#fa9400"></polygon><polygon points="-5.663118960624631,4.114496766047313 -40.450849718747364,29.38926261462366 -18.924876391293907,16.33551509975264" fill="#fa9400"></polygon><polygon points="-5.987549821123545,3.6261890656119142 -42.76821300802532,25.90135046865653 -20.225424859373682,14.69463130731183" fill="#fa9500"></polygon><polygon points="-6.269982321675888,3.1124462542944946 -44.78558801197063,22.23175895924639 -21.38410650401266,12.950675234328266" fill="#fa9500"></polygon><polygon points="-6.50843540121776,2.5768718687927468 -46.48882429441257,18.406227634233908 -22.392794005985316,11.115879479623194" fill="#fa9600"></polygon><polygon points="-6.70123648272447,2.0232225786113047 -47.86597487660336,14.451589847223605 -23.244412147206283,9.203113817116954" fill="#fa9600"></polygon><polygon points="-6.847033205136639,1.4553818357243182 -48.90738003669028,10.395584540887986 -23.93298743830168,7.225794923611803" fill="#fa9700"></polygon><polygon points="-6.944802909201345,0.8773326349501318 -49.60573506572389,6.266661678215227 -24.45369001834514,5.197792270443993" fill="#fa9700"></polygon><polygon points="-6.993859810692008,0.29312957610439866 -49.95614150494292,2.0937826864599907 -24.802867532861946,3.1333308391076136" fill="#fa9800"></polygon><polygon points="-6.993859810692008,-0.2931295761043939 -49.95614150494292,-2.093782686459956 -24.97807075247146,1.0468913432299953" fill="#fa9700"></polygon><polygon points="-6.9448029092013455,-0.8773326349501269 -49.60573506572389,-6.2666616782151925 -24.97807075247146,-1.046891343229978" fill="#fa9700"></polygon><polygon points="-6.84703320513664,-1.4553818357243133 -48.907380036690284,-10.395584540887953 -24.802867532861946,-3.1333308391075962" fill="#fa9600"></polygon><polygon points="-6.701236482724473,-2.023222578611297 -47.865974876603374,-14.45158984722355 -24.453690018345142,-5.197792270443976" fill="#fa9600"></polygon><polygon points="-6.508435401217761,-2.5768718687927423 -46.48882429441258,-18.406227634233872 -23.932987438301687,-7.225794923611775" fill="#fa9500"></polygon><polygon points="-6.269982321675891,-3.1124462542944897 -44.78558801197065,-22.231758959246356 -23.24441214720629,-9.203113817116936" fill="#fa9500"></polygon><polygon points="-5.987549821123547,-3.62618906561191 -42.76821300802534,-25.9013504686565 -22.392794005985326,-11.115879479623178" fill="#fa9400"></polygon><polygon points="-5.663118960624635,-4.114496766047309 -40.45084971874739,-29.389262614623636 -21.38410650401267,-12.95067523432825" fill="#fa9400"></polygon><polygon points="-5.298965389562297,-4.573944227930736 -37.849752782587835,-32.67103019950525 -20.225424859373696,-14.694631307311818" fill="#fa9300"></polygon><polygon points="-4.897643383593559,-5.001308757429622 -34.98316702566828,-35.723633981640155 -18.924876391293918,-16.335515099752627" fill="#fa9300"></polygon><polygon points="-4.461967928240831,-5.393592699430521 -31.87119948743451,-38.52566213878944 -17.49158351283414,-17.861816990820078" fill="#fa9200"></polygon><polygon points="-3.994994973791025,-5.748044463935926 -28.535678384221608,-41.057460456685185 -15.935599743717255,-19.26283106939472" fill="#fa9200"></polygon><polygon points="-3.500000000000003,-6.062177826491069 -25.00000000000002,-43.30127018922192 -14.267839192110804,-20.528730228342592" fill="#fa9100"></polygon><polygon points="-2.9804550409555106,-6.333789367262136 -21.288964578253648,-45.24135262330097 -12.50000000000001,-21.65063509461096" fill="#fa9100"></polygon><polygon points="-2.440004331252708,-6.56097392644324 -17.42860236609077,-46.864099474594575 -10.644482289126824,-22.620676311650485" fill="#fa9000"></polygon><polygon points="-1.8824387443068606,-6.742137967583607 -13.44599103076329,-48.15812833988291 -8.714301183045386,-23.432049737297287" fill="#fa9000"></polygon><polygon points="-1.3116692021000784,-6.876010755100819 -9.369065729286275,-49.11436253643443 -6.722995515381645,-24.079064169941454" fill="#fa8f00"></polygon><polygon points="-0.7316992428735797,-6.961653267577913 -5.226423163382711,-49.72609476841367 -4.6845328646431375,-24.557181268217214" fill="#fa8f00"></polygon><polygon points="-0.1465969391835033,-6.998464784323918 -1.0471209941678807,-49.989034173742276 -2.6132115816913557,-24.863047384206833" fill="#fa8e00"></polygon><polygon points="0.43953363670518986,-6.986187098997901 3.1395259764656416,-49.901336421413575 -0.5235604970839404,-24.994517086871138" fill="#fa8e00"></polygon><polygon points="1.0225811999368783,-6.924906330740918 7.30415142812056,-49.46361664814942 1.5697629882328208,-24.950668210706787" fill="#fa8d00"></polygon><polygon points="1.5984560907745882,-6.815052320112122 11.417543505532771,-48.67894514365801 3.65207571406028,-24.73180832407471" fill="#fa8d00"></polygon><polygon points="2.1631189606246304,-6.6573956140660755 15.450849718747362,-47.55282581475768 5.708771752766386,-24.339472571829006" fill="#fa8c00"></polygon><polygon points="2.7126091051647148,-6.453042061119506 19.375779322605105,-46.09315757942504 7.725424859373681,-23.77641290737884" fill="#fa8c00"></polygon><polygon points="3.2430722458390266,-6.2034250546185055 23.164801755993047,-44.31017896156075 9.687889661302552,-23.04657878971252" fill="#fa8b00"></polygon><polygon points="3.750787564852972,-5.910295478514109 26.7913397489498,-42.21639627510078 11.582400877996523,-22.155089480780376" fill="#fa8b00"></polygon><polygon points="4.232193804036621,-5.575709426169377 30.22995574311872,-39.82649590120984 13.3956698744749,-21.10819813755039" fill="#fa8a00"></polygon><polygon points="4.683914244512005,-5.202013778341762 33.45653031794289,-37.15724127386973 15.11497787155936,-19.91324795060492" fill="#fa8a00"></polygon><polygon points="5.102780391949879,-4.791829741500822 36.44843137107056,-34.227355296434446 16.728265158971446,-18.578620636934865" fill="#fa8900"></polygon><polygon points="5.485854201280877,-4.348034461948174 39.18467286629198,-31.057389013915532 18.22421568553528,-17.113677648217223" fill="#fa8900"></polygon><polygon points="5.830448684970692,-3.873740844703415 41.64606203550495,-27.66957746216725 19.59233643314599,-15.528694506957766" fill="#fa8800"></polygon><polygon points="6.134146760307042,-3.3722757187120127 43.815334002193154,-24.087683705085805 20.823031017752474,-13.834788731083625" fill="#fa8800"></polygon><polygon points="6.394818203498204,-2.8471565015306064 45.677272882130026,-20.336832153790045 21.907667001096577,-12.043841852542903" fill="#fa8700"></polygon><polygon points="6.6106345916623654,-2.302066527170087 47.21881851187404,-16.443332336929195 22.838636441065013,-10.168416076895022" fill="#fa8700"></polygon><polygon points="6.780082127900417,-1.7408292101539875 48.42915805643155,-12.434494358242768 23.60940925593702,-8.221666168464598" fill="#fa8600"></polygon><polygon points="6.901972259493534,-1.167381227012719 49.299801853525246,-8.338437335805136 24.214579028215773,-6.217247179121384" fill="#fa8600"></polygon><polygon points="6.97545001474653,-0.5857449033262109 49.82464296247521,-4.183892166615792 24.649900926762623,-4.169218667902568" fill="#fa8500"></polygon>
		</g>
	</svg>