<svg xmlns="http://www.w3.org/2000/svg" viewBox="0 0 100 100" id="svg" style="--frame-c: #f6c6a4; --frame-bdw: 1em; stroke: rgb(128, 82, 128); stroke-width: 0; background-color: rgb(30, 118, 84); --frame-asr: 100 / 100.;">
		<g transform="translate(50, 50) scale(1)">
			<polygon points="18,0 50,0 21.65063509461096,-12.50000000000001" fill="#367d5e"></polygon><polygon points="15.588457268119896,8.999999999999998 43.30127018922194,24.999999999999996 25,0" fill="#408667"></polygon><polygon points="9.000000000000002,15.588457268119894 25.000000000000007,43.30127018922193 21.65063509461097,12.499999999999998" fill="#4b8f70"></polygon><polygon points="1.102182119232618e-15,18 3.061616997868383e-15,50 12.500000000000004,21.650635094610966" fill="#55987a"></polygon><polygon points="-8.999999999999996,15.588457268119896 -24.99999999999999,43.30127018922194 1.5308084989341915e-15,25" fill="#5fa183"></polygon><polygon points="-15.588457268119893,9.000000000000005 -43.301270189221924,25.000000000000018 -12.499999999999995,21.65063509461097" fill="#6aaa8c"></polygon><polygon points="-18,2.204364238465236e-15 -50,6.123233995736766e-15 -21.650635094610962,12.500000000000009" fill="#6aaa8c"></polygon><polygon points="-15.5884572681199,-8.999999999999995 -43.30127018922194,-24.999999999999986 -25,3.061616997868383e-15" fill="#5fa183"></polygon><polygon points="-9.000000000000007,-15.58845726811989 -25.00000000000002,-43.30127018922192 -21.65063509461097,-12.499999999999993" fill="#55987a"></polygon><polygon points="-3.3065463576978533e-15,-18 -9.184850993605149e-15,-50 -12.50000000000001,-21.65063509461096" fill="#4b8f70"></polygon><polygon points="8.999999999999988,-15.588457268119903 24.999999999999968,-43.30127018922195 -4.592425496802574e-15,-25" fill="#408667"></polygon><polygon points="15.58845726811989,-9.000000000000007 43.30127018922192,-25.00000000000002 12.499999999999984,-21.650635094610976" fill="#367d5e"></polygon>
		</g>
	</svg>