<svg xmlns="http://www.w3.org/2000/svg" viewBox="0 0 100 100" id="svg" style="--frame-c: #f6c6a4; --frame-bdw: 1em; stroke: rgb(128, 82, 128); stroke-width: 0; background-color: rgb(228, 170, 12); --frame-asr: 100 / 100.;">
		<g transform="translate(50, 50) scale(0.95)">
			<polygon points="12,0 50,0 24.950668210706787,-1.5697629882328317" fill="#f20d0d"></polygon><polygon points="11.976320741139258,0.7534862343517605 49.901336421413575,3.1395259764656687 25,0" fill="#f20e0d"></polygon><polygon points="11.905376415773734,1.503998802771651 49.60573506572389,6.266661678215213 24.950668210706787,1.5697629882328343" fill="#f20f0d"></polygon><polygon points="11.787447008744264,2.2485757750286957 49.114362536434435,9.369065729286232 24.802867532861946,3.1333308391076065" fill="#f2100d"></polygon><polygon points="11.622997933543573,2.9842786459782573 48.429158056431554,12.43449435824274 24.557181268217217,4.684532864643116" fill="#f2110d"></polygon><polygon points="11.412678195541842,3.7082039324993685 47.552825814757675,15.450849718747369 24.214579028215777,6.21724717912137" fill="#f2110c"></polygon><polygon points="11.157317830659016,4.417494632216136 46.48882429441257,18.4062276342339 23.776412907378838,7.7254248593736845" fill="#f2120c"></polygon><polygon points="10.857924629592233,5.109351498780873 45.241352623300976,21.288964578253637 23.244412147206283,9.20311381711695" fill="#f2130c"></polygon><polygon points="10.515680160526363,5.781044089220584 43.81533400219318,24.087683705085766 22.620676311650488,10.644482289126818" fill="#f3140c"></polygon><polygon points="10.13193510602418,6.42992153974796 42.216396275100756,26.791339748949834 21.90766700109659,12.043841852542883" fill="#f3150c"></polygon><polygon points="9.70820393249937,7.053423027509678 40.45084971874737,29.389262614623657 21.108198137550378,13.395669874474917" fill="#f3160c"></polygon><polygon points="9.24615891330947,7.649087876984277 38.52566213878946,31.871199487434488 20.225424859373685,14.694631307311829" fill="#f3170c"></polygon><polygon points="8.747623529056938,8.214565271144265 36.448431371070576,34.22735529643444 19.26283106939473,15.935599743717244" fill="#f3180c"></polygon><polygon points="8.214565271144263,8.747623529056938 34.22735529643443,36.448431371070576 18.224215685535288,17.11367764821722" fill="#f3180b"></polygon><polygon points="7.649087876984275,9.246158913309472 31.87119948743448,38.525662138789464 17.113677648217216,18.224215685535288" fill="#f3190b"></polygon><polygon points="7.053423027509677,9.70820393249937 29.38926261462365,40.45084971874737 15.93559974371724,19.262831069394732" fill="#f31a0b"></polygon><polygon points="6.4299215397479585,10.13193510602418 26.791339748949827,42.216396275100756 14.694631307311825,20.225424859373685" fill="#f31b0b"></polygon><polygon points="5.781044089220582,10.515680160526365 24.08768370508576,43.81533400219318 13.395669874474914,21.108198137550378" fill="#f31c0b"></polygon><polygon points="5.109351498780872,10.857924629592235 21.288964578253633,45.241352623300976 12.04384185254288,21.90766700109659" fill="#f31d0b"></polygon><polygon points="4.417494632216134,11.157317830659018 18.406227634233893,46.488824294412574 10.644482289126817,22.620676311650488" fill="#f31e0b"></polygon><polygon points="3.7082039324993694,11.412678195541842 15.450849718747373,47.552825814757675 9.203113817116947,23.244412147206287" fill="#f31f0b"></polygon><polygon points="2.984278645978257,11.622997933543573 12.434494358242738,48.429158056431554 7.725424859373686,23.776412907378838" fill="#f31f0a"></polygon><polygon points="2.2485757750286943,11.787447008744264 9.369065729286225,49.114362536434435 6.217247179121369,24.214579028215777" fill="#f4200a"></polygon><polygon points="1.503998802771651,11.905376415773734 6.266661678215213,49.60573506572389 4.684532864643113,24.557181268217217" fill="#f4210a"></polygon><polygon points="0.7534862343517597,11.976320741139258 3.139525976465665,49.901336421413575 3.1333308391076065,24.802867532861946" fill="#f4220a"></polygon><polygon points="-1.9297471796119636e-15,12 -8.040613248383182e-15,50 1.5697629882328326,24.950668210706787" fill="#f4230a"></polygon><polygon points="-0.7534862343517608,11.976320741139258 -3.13952597646567,49.901336421413575 -4.020306624191591e-15,25" fill="#f4240a"></polygon><polygon points="-1.5039988027716524,11.905376415773734 -6.266661678215218,49.60573506572389 -1.569762988232835,24.950668210706787" fill="#f4250a"></polygon><polygon points="-2.248575775028698,11.787447008744262 -9.369065729286241,49.11436253643443 -3.133330839107609,24.802867532861946" fill="#f4260a"></polygon><polygon points="-2.984278645978258,11.622997933543573 -12.434494358242743,48.429158056431554 -4.684532864643121,24.557181268217214" fill="#f42609"></polygon><polygon points="-3.7082039324993707,11.412678195541842 -15.450849718747378,47.552825814757675 -6.2172471791213715,24.214579028215777" fill="#f42709"></polygon><polygon points="-4.417494632216136,11.157317830659016 -18.4062276342339,46.48882429441257 -7.725424859373689,23.776412907378838" fill="#f42809"></polygon><polygon points="-5.109351498780873,10.857924629592233 -21.288964578253637,45.241352623300976 -9.20311381711695,23.244412147206283" fill="#f42909"></polygon><polygon points="-5.781044089220585,10.515680160526362 -24.087683705085773,43.815334002193175 -10.644482289126818,22.620676311650488" fill="#f42a09"></polygon><polygon points="-6.429921539747962,10.13193510602418 -26.791339748949845,42.21639627510075 -12.043841852542887,21.907667001096588" fill="#f42b09"></polygon><polygon points="-7.053423027509677,9.70820393249937 -29.38926261462365,40.45084971874737 -13.395669874474923,21.108198137550374" fill="#f42c09"></polygon><polygon points="-7.649087876984277,9.246158913309472 -31.871199487434488,38.525662138789464 -14.694631307311825,20.225424859373685" fill="#f52d09"></polygon><polygon points="-8.214565271144265,8.747623529056938 -34.22735529643444,36.44843137107057 -15.935599743717244,19.262831069394732" fill="#f52e09"></polygon><polygon points="-8.74762352905694,8.214565271144263 -36.44843137107058,34.227355296434425 -17.11367764821722,18.224215685535285" fill="#f52e08"></polygon><polygon points="-9.246158913309472,7.649087876984274 -38.52566213878947,31.871199487434478 -18.22421568553529,17.113677648217212" fill="#f52f08"></polygon><polygon points="-9.708203932499368,7.0534230275096785 -40.450849718747364,29.38926261462366 -19.262831069394736,15.935599743717239" fill="#f53008"></polygon><polygon points="-10.13193510602418,6.42992153974796 -42.216396275100756,26.791339748949834 -20.225424859373682,14.69463130731183" fill="#f53108"></polygon><polygon points="-10.515680160526363,5.7810440892205825 -43.81533400219318,24.08768370508576 -21.108198137550378,13.395669874474917" fill="#f53208"></polygon><polygon points="-10.857924629592235,5.10935149878087 -45.241352623300976,21.288964578253626 -21.90766700109659,12.04384185254288" fill="#f53308"></polygon><polygon points="-11.157317830659018,4.417494632216133 -46.488824294412574,18.406227634233886 -22.620676311650488,10.644482289126813" fill="#f53408"></polygon><polygon points="-11.412678195541844,3.7082039324993654 -47.55282581475768,15.450849718747357 -23.244412147206287,9.203113817116943" fill="#f53508"></polygon><polygon points="-11.622997933543573,2.9842786459782578 -48.429158056431554,12.434494358242741 -23.77641290737884,7.725424859373678" fill="#f53507"></polygon><polygon points="-11.787447008744264,2.2485757750286948 -49.114362536434435,9.369065729286229 -24.214579028215777,6.217247179121371" fill="#f53607"></polygon><polygon points="-11.905376415773734,1.503998802771649 -49.60573506572389,6.266661678215205 -24.557181268217217,4.684532864643114" fill="#f53707"></polygon><polygon points="-11.976320741139258,0.7534862343517577 -49.901336421413575,3.1395259764656567 -24.802867532861946,3.1333308391076025" fill="#f53807"></polygon><polygon points="-12,-3.859494359223928e-15 -50,-1.6081226496766367e-14 -24.950668210706787,1.5697629882328283" fill="#f53807"></polygon><polygon points="-11.976320741139258,-0.7534862343517601 -49.901336421413575,-3.1395259764656673 -25,-8.040613248383184e-15" fill="#f53707"></polygon><polygon points="-11.905376415773734,-1.5039988027716515 -49.60573506572389,-6.266661678215215 -24.950668210706787,-1.5697629882328337" fill="#f53607"></polygon><polygon points="-11.787447008744262,-2.248575775028697 -49.11436253643443,-9.369065729286238 -24.802867532861946,-3.1333308391076073" fill="#f53507"></polygon><polygon points="-11.622997933543573,-2.98427864597826 -48.429158056431554,-12.43449435824275 -24.557181268217214,-4.684532864643119" fill="#f53508"></polygon><polygon points="-11.412678195541842,-3.708203932499373 -47.552825814757675,-15.450849718747387 -24.214579028215777,-6.217247179121375" fill="#f53408"></polygon><polygon points="-11.157317830659014,-4.4174946322161395 -46.48882429441256,-18.406227634233915 -23.776412907378838,-7.725424859373693" fill="#f53308"></polygon><polygon points="-10.857924629592233,-5.109351498780872 -45.241352623300976,-21.288964578253633 -23.24441214720628,-9.203113817116957" fill="#f53208"></polygon><polygon points="-10.515680160526362,-5.781044089220584 -43.815334002193175,-24.08768370508577 -22.620676311650488,-10.644482289126817" fill="#f53108"></polygon><polygon points="-10.13193510602418,-6.429921539747961 -42.21639627510075,-26.791339748949838 -21.907667001096588,-12.043841852542885" fill="#f53008"></polygon><polygon points="-9.708203932499366,-7.05342302750968 -40.450849718747364,-29.389262614623668 -21.108198137550374,-13.395669874474919" fill="#f52f08"></polygon><polygon points="-9.246158913309468,-7.64908787698428 -38.52566213878945,-31.8711994874345 -20.225424859373682,-14.694631307311834" fill="#f52e08"></polygon><polygon points="-8.747623529056938,-8.214565271144265 -36.448431371070576,-34.22735529643444 -19.262831069394725,-15.93559974371725" fill="#f52e09"></polygon><polygon points="-8.214565271144263,-8.747623529056938 -34.22735529643443,-36.448431371070576 -18.224215685535288,-17.11367764821722" fill="#f52d09"></polygon><polygon points="-7.649087876984274,-9.246158913309472 -31.871199487434478,-38.52566213878947 -17.113677648217216,-18.224215685535288" fill="#f42c09"></polygon><polygon points="-7.0534230275096785,-9.708203932499368 -29.38926261462366,-40.450849718747364 -15.935599743717239,-19.262831069394736" fill="#f42b09"></polygon><polygon points="-6.429921539747956,-10.131935106024184 -26.791339748949817,-42.21639627510076 -14.69463130731183,-20.225424859373682" fill="#f42a09"></polygon><polygon points="-5.781044089220583,-10.515680160526363 -24.087683705085762,-43.81533400219318 -13.395669874474908,-21.10819813755038" fill="#f42909"></polygon><polygon points="-5.109351498780866,-10.857924629592237 -21.28896457825361,-45.24135262330099 -12.043841852542881,-21.90766700109659" fill="#f42809"></polygon><polygon points="-4.417494632216133,-11.157317830659018 -18.40622763423389,-46.488824294412574 -10.644482289126804,-22.620676311650495" fill="#f42709"></polygon><polygon points="-3.7082039324993707,-11.412678195541842 -15.450849718747378,-47.552825814757675 -9.203113817116945,-23.244412147206287" fill="#f42609"></polygon><polygon points="-2.9842786459782533,-11.622997933543575 -12.434494358242722,-48.42915805643156 -7.725424859373689,-23.776412907378838" fill="#f4260a"></polygon><polygon points="-2.2485757750286957,-11.787447008744264 -9.369065729286232,-49.114362536434435 -6.217247179121361,-24.21457902821578" fill="#f4250a"></polygon><polygon points="-1.5039988027716449,-11.905376415773734 -6.266661678215186,-49.60573506572389 -4.684532864643116,-24.557181268217217" fill="#f4240a"></polygon><polygon points="-0.7534862343517585,-11.976320741139258 -3.1395259764656602,-49.901336421413575 -3.133330839107593,-24.802867532861946" fill="#f4230a"></polygon><polygon points="-2.204364238465236e-15,-12 -9.184850993605149e-15,-50 -1.5697629882328301,-24.950668210706787" fill="#f4220a"></polygon><polygon points="0.7534862343517646,-11.976320741139258 3.139525976465686,-49.901336421413575 -4.592425496802574e-15,-25" fill="#f4210a"></polygon><polygon points="1.5039988027716507,-11.905376415773734 6.266661678215211,-49.60573506572389 1.569762988232843,-24.950668210706787" fill="#f4200a"></polygon><polygon points="2.2485757750287014,-11.787447008744262 9.369065729286257,-49.11436253643443 3.1333308391076056,-24.802867532861946" fill="#f31f0a"></polygon><polygon points="2.984278645978259,-11.622997933543573 12.434494358242747,-48.429158056431554 4.684532864643129,-24.557181268217214" fill="#f31f0b"></polygon><polygon points="3.7082039324993668,-11.412678195541844 15.450849718747362,-47.55282581475768 6.217247179121373,-24.214579028215777" fill="#f31e0b"></polygon><polygon points="4.417494632216139,-11.157317830659014 18.40622763423391,-46.48882429441256 7.725424859373681,-23.77641290737884" fill="#f31d0b"></polygon><polygon points="5.109351498780871,-10.857924629592235 21.28896457825363,-45.241352623300976 9.203113817116956,-23.24441214720628" fill="#f31c0b"></polygon><polygon points="5.781044089220589,-10.51568016052636 24.087683705085787,-43.81533400219317 10.644482289126815,-22.620676311650488" fill="#f31b0b"></polygon><polygon points="6.429921539747961,-10.13193510602418 26.791339748949838,-42.21639627510075 12.043841852542894,-21.907667001096584" fill="#f31a0b"></polygon><polygon points="7.053423027509684,-9.708203932499364 29.389262614623686,-40.45084971874735 13.395669874474919,-21.108198137550374" fill="#f3190b"></polygon><polygon points="7.64908787698428,-9.246158913309468 31.8711994874345,-38.52566213878945 14.694631307311843,-20.225424859373675" fill="#f3180b"></polygon><polygon points="8.214565271144263,-8.747623529056938 34.22735529643443,-36.448431371070576 15.93559974371725,-19.262831069394725" fill="#f3180c"></polygon><polygon points="8.747623529056943,-8.21456527114426 36.4484313710706,-34.22735529643441 17.113677648217216,-18.224215685535288" fill="#f3170c"></polygon><polygon points="9.246158913309472,-7.649087876984275 38.52566213878947,-31.87119948743448 18.2242156855353,-17.113677648217205" fill="#f3160c"></polygon><polygon points="9.708203932499373,-7.053423027509671 40.45084971874739,-29.38926261462363 19.262831069394736,-15.93559974371724" fill="#f3150c"></polygon><polygon points="10.131935106024184,-6.429921539747956 42.21639627510076,-26.791339748949817 20.225424859373696,-14.694631307311814" fill="#f3140c"></polygon><polygon points="10.515680160526363,-5.781044089220584 43.81533400219318,-24.087683705085766 21.10819813755038,-13.395669874474908" fill="#f2130c"></polygon><polygon points="10.857924629592237,-5.109351498780867 45.24135262330098,-21.288964578253612 21.90766700109659,-12.043841852542883" fill="#f2120c"></polygon><polygon points="11.157317830659018,-4.417494632216134 46.488824294412574,-18.406227634233893 22.62067631165049,-10.644482289126806" fill="#f2110c"></polygon><polygon points="11.412678195541845,-3.7082039324993614 47.55282581475769,-15.450849718747339 23.244412147206287,-9.203113817116947" fill="#f2110d"></polygon><polygon points="11.622997933543575,-2.9842786459782538 48.42915805643156,-12.434494358242725 23.776412907378845,-7.725424859373669" fill="#f2100d"></polygon><polygon points="11.787447008744264,-2.248575775028696 49.114362536434435,-9.369065729286234 24.21457902821578,-6.217247179121363" fill="#f20f0d"></polygon><polygon points="11.905376415773734,-1.5039988027716453 49.60573506572389,-6.266661678215189 24.557181268217217,-4.684532864643117" fill="#f20e0d"></polygon><polygon points="11.976320741139258,-0.7534862343517592 49.901336421413575,-3.1395259764656633 24.802867532861946,-3.1333308391075945" fill="#f20d0d"></polygon>
		</g>
	</svg>