<svg xmlns="http://www.w3.org/2000/svg" viewBox="0 0 100 100" id="svg" style="--frame-c: #f6c6a4; background-color: rgb(50, 63, 103); --frame-asr: 100 / 100.;"><g transform="translate(50 49.23) scale(0.925)"><circle cx="1" cy="0" r="0.2" fill="#00ffbf"></circle><circle cx="1.0862895552256828" cy="0.24978423182426351" r="0.20323671497584542" fill="#00ffbf"></circle><circle cx="1.1058109566796355" cy="0.5369357917771789" r="0.20647342995169082" fill="#00ffbf"></circle><circle cx="1.0466430634166153" cy="0.842994997750808" r="0.20971014492753626" fill="#00ffbf"></circle><circle cx="0.9020087973119612" cy="1.146189489531698" r="0.21294685990338166" fill="#00fec0"></circle><circle cx="0.6711176608672295" cy="1.4228572821637886" r="0.21618357487922707" fill="#00fec0"></circle><circle cx="0.3596203622835849" cy="1.6490694633162024" r="0.21942028985507248" fill="#00fec0"></circle><circle cx="-0.020368656145862033" cy="1.8023486769261745" r="0.22265700483091788" fill="#00fec0"></circle><circle cx="-0.4506976980375668" cy="1.8633704816265964" r="0.2258937198067633" fill="#00fec0"></circle><circle cx="-0.9080412586418878" cy="1.8175326590584122" r="0.2291304347826087" fill="#00fec0"></circle><circle cx="-1.3651595609230904" cy="1.6562828232429296" r="0.23236714975845413" fill="#00fdc0"></circle><circle cx="-1.7924863982333332" cy="1.378107052659704" r="0.23560386473429953" fill="#00fdc1"></circle><circle cx="-2.159954228335332" cy="0.9891010984293218" r="0.23884057971014494" fill="#00fdc1"></circle><circle cx="-2.438947346955606" cy="0.5030699763005556" r="0.24207729468599035" fill="#00fdc1"></circle><circle cx="-2.6042622365612127" cy="-0.058869960423817515" r="0.24531400966183575" fill="#00fdc1"></circle><circle cx="-2.635949699822204" cy="-0.6691817030163366" r="0.2485507246376812" fill="#00fdc1"></circle><circle cx="-2.520916585071421" cy="-1.295255048731784" r="0.25178743961352656" fill="#00fcc1"></circle><circle cx="-2.254175773538772" cy="-1.901145009339409" r="0.255024154589372" fill="#00fcc1"></circle><circle cx="-1.839651142175981" cy="-2.4496086891401703" r="0.25826086956521743" fill="#00fcc2"></circle><circle cx="-1.290468515913838" cy="-2.904326419398123" r="0.2614975845410628" fill="#00fcc2"></circle><circle cx="-0.6286928585536371" cy="-3.2321775496751455" r="0.26473429951690824" fill="#00fcc2"></circle><circle cx="0.11549552205362501" cy="-3.4054333476564684" r="0.2679710144927536" fill="#00fcc2"></circle><circle cx="0.9051590375420727" cy="-3.403729614923769" r="0.27120772946859906" fill="#00fbc2"></circle><circle cx="1.6984350794898284" cy="-3.215690085378693" r="0.27444444444444444" fill="#00fbc2"></circle><circle cx="2.4507516476726274" cy="-2.840088145013954" r="0.27768115942028987" fill="#00fbc2"></circle><circle cx="3.117309259177345" cy="-2.2864581242882567" r="0.28091787439613525" fill="#00fbc3"></circle><circle cx="3.655691972510308" cy="-1.5750971496835258" r="0.2841545893719807" fill="#00fbc3"></circle><circle cx="4.028457814477567" cy="-0.7364326982258598" r="0.2873913043478261" fill="#00fbc3"></circle><circle cx="4.205554826119717" cy="0.19023232020365985" r="0.2906280193236715" fill="#00fac3"></circle><circle cx="4.166413814837775" cy="1.158548013536082" r="0.2938647342995169" fill="#00fac3"></circle><circle cx="3.9015826687050015" cy="2.1174351693201827" r="0.2971014492753623" fill="#00fac3"></circle><circle cx="3.4137891915592515" cy="3.0137762706218667" r="0.30033816425120774" fill="#00fac3"></circle><circle cx="2.7183487914063047" cy="3.7953382635372974" r="0.3035748792270532" fill="#00fac3"></circle><circle cx="1.8428684902850816" cy="4.413767171300297" r="0.30681159420289855" fill="#00fac4"></circle><circle cx="0.8262377417302732" cy="4.827485052641896" r="0.310048309178744" fill="#00f9c4"></circle><circle cx="-0.2830627063930642" cy="5.004319700406816" r="0.31328502415458936" fill="#01f9c4"></circle><circle cx="-1.4292624810748995" cy="4.923707133450874" r="0.3165217391304348" fill="#01f9c4"></circle><circle cx="-2.5521050683490203" cy="4.578326059595028" r="0.31975845410628023" fill="#01f9c4"></circle><circle cx="-3.59001220584968" cy="3.9750512396256625" r="0.3229951690821256" fill="#01f9c4"></circle><circle cx="-4.4834431686031495" cy="3.1351477084066848" r="0.32623188405797104" fill="#01f9c4"></circle><circle cx="-5.178266526076794" cy="2.093668308075669" r="0.3294685990338164" fill="#01f9c5"></circle><circle cx="-5.628955408148872" cy="0.8980608041711841" r="0.33270531400966186" fill="#01f8c5"></circle><circle cx="-5.801421276876173" cy="-0.3939644077805057" r="0.3359420289855073" fill="#01f8c5"></circle><circle cx="-5.6753157135797005" cy="-1.7172118462613601" r="0.33917874396135267" fill="#01f8c5"></circle><circle cx="-5.245654255747407" cy="-3.002290489966442" r="0.34241545893719805" fill="#01f8c5"></circle><circle cx="-4.523649737018047" cy="-4.179249357585929" r="0.3456521739130435" fill="#01f8c5"></circle><circle cx="-3.5366832503969206" cy="-5.181368805390424" r="0.3488888888888889" fill="#01f8c5"></circle><circle cx="-2.327386678031221" cy="-5.948902834382352" r="0.35212560386473435" fill="#01f7c6"></circle><circle cx="-0.9518592799310127" cy="-6.43256432225753" r="0.3553623188405797" fill="#01f7c6"></circle><circle cx="0.5229105313389129" cy="-6.596553205094387" r="0.3585990338164251" fill="#01f7c6"></circle><circle cx="2.022301089948128" cy="-6.420947069674294" r="0.36183574879227054" fill="#01f7c6"></circle><circle cx="3.4678331431438125" cy="-5.903303584917426" r="0.365072463768116" fill="#01f7c6"></circle><circle cx="4.781274250890563" cy="-5.059363301094424" r="0.3683091787439614" fill="#01f7c6"></circle><circle cx="5.888857423497497" cy="-3.9227876397526766" r="0.37154589371980684" fill="#01f6c6"></circle><circle cx="6.725387241879582" cy="-2.5439180037321005" r="0.37478260869565216" fill="#01f6c7"></circle><circle cx="7.238006598221436" cy="-0.9875951523808297" r="0.3780193236714976" fill="#01f6c7"></circle><circle cx="7.389409543081332" cy="0.6698695689155738" r="0.38125603864734303" fill="#01f6c7"></circle><circle cx="7.16031015026389" cy="2.3444307873104617" r="0.38449275362318847" fill="#01f6c7"></circle><circle cx="6.551012761378125" cy="3.9485707655208695" r="0.38772946859903384" fill="#01f6c7"></circle><circle cx="5.581973766362205" cy="5.395870076567478" r="0.3909661835748792" fill="#01f5c7"></circle><circle cx="4.293296982421199" cy="6.605648745555239" r="0.39420289855072466" fill="#01f5c7"></circle><circle cx="2.7431610405217763" cy="7.507429303559208" r="0.3974396135265701" fill="#01f5c8"></circle><circle cx="1.0052350027127488" cy="8.044976466133003" r="0.40067632850241547" fill="#01f5c8"></circle><circle cx="-0.8348054031766672" cy="8.17968482248306" r="0.4039130434782609" fill="#01f5c8"></circle><circle cx="-2.6834971282645887" cy="7.893115400133942" r="0.4071497584541063" fill="#01f5c8"></circle><circle cx="-4.444337157256669" cy="7.1885229419297225" r="0.4103864734299517" fill="#01f4c8"></circle><circle cx="-6.022816736721345" cy="6.0912662314629715" r="0.4136231884057971" fill="#01f4c8"></circle><circle cx="-7.331480022166089" cy="4.648051303484527" r="0.4168599033816425" fill="#01f4c8"></circle><circle cx="-8.294737045259028" cy="2.9250189178342545" r="0.42009661835748796" fill="#01f4c9"></circle><circle cx="-8.853167647884279" cy="1.0047500178925879" r="0.42333333333333334" fill="#01f4c9"></circle><circle cx="-8.96707411366083" cy="-1.0176773144353324" r="0.4265700483091788" fill="#01f4c9"></circle><circle cx="-8.619074822223178" cy="-3.0393919387283215" r="0.4298067632850242" fill="#01f4c9"></circle><circle cx="-7.815577781447309" cy="-4.954962215638402" r="0.4330434782608696" fill="#01f3c9"></circle><circle cx="-6.587029105537167" cy="-6.661890890949464" r="0.436280193236715" fill="#01f3c9"></circle><circle cx="-4.986894581976066" cy="-8.066086087322793" r="0.4395169082125604" fill="#01f3c9"></circle><circle cx="-3.0893991606863915" cy="-9.08701702548275" r="0.44275362318840583" fill="#01f3ca"></circle><circle cx="-0.9861159977312883" cy="-9.662273422232646" r="0.44599033816425127" fill="#01f3ca"></circle><circle cx="1.218439988361923" cy="-9.751273090684649" r="0.44922705314009664" fill="#01f3ca"></circle><circle cx="3.4120027027199944" cy="-9.337902039229668" r="0.4524637681159421" fill="#01f2ca"></circle><circle cx="5.48027197044193" cy="-8.431923487956833" r="0.45570048309178746" fill="#01f2ca"></circle><circle cx="7.312866003160381" cy="-7.069054153960439" r="0.4589371980676329" fill="#01f2ca"></circle><circle cx="8.80919941429699" cy="-5.309674784944146" r="0.4621739130434783" fill="#01f2ca"></circle><circle cx="9.883974397507771" cy="-3.236213710330964" r="0.4654106280193237" fill="#01f2ca"></circle><circle cx="10.471986689959758" cy="-0.9493133610737798" r="0.46864734299516914" fill="#01f2cb"></circle><circle cx="10.531978096219687" cy="1.4370435245753" r="0.4718840579710145" fill="#01f1cb"></circle><circle cx="10.049312354914804" cy="3.8012125852920273" r="0.47512077294685995" fill="#01f1cb"></circle><circle cx="9.037308877229458" cy="6.020088620037862" r="0.4783574879227053" fill="#01f1cb"></circle><circle cx="7.537136543443593" cy="7.975512389010759" r="0.48159420289855076" fill="#01f1cb"></circle><circle cx="5.616243900756719" cy="9.560550171987503" r="0.48483091787439614" fill="#01f1cb"></circle><circle cx="3.3653789440667783" cy="10.68531297177078" r="0.4880676328502416" fill="#01f1cb"></circle><circle cx="0.8943271511039736" cy="11.282000039112127" r="0.49130434782608695" fill="#01f0cc"></circle><circle cx="-1.6734334461138405" cy="11.308886206293941" r="0.4945410628019324" fill="#01f0cc"></circle><circle cx="-4.206900456294711" cy="10.753022815094297" r="0.49777777777777776" fill="#01f0cc"></circle><circle cx="-6.574230568236523" cy="9.631485426884685" r="0.5010144927536232" fill="#01f0cc"></circle><circle cx="-8.649597263952561" cy="7.991074886487532" r="0.5042512077294686" fill="#01f0cc"></circle><circle cx="-10.319866281718657" cy="5.906457971640581" r="0.507487922705314" fill="#01f0cc"></circle><circle cx="-11.490735278519972" cy="3.4768156942025135" r="0.5107246376811594" fill="#01efcc"></circle><circle cx="-12.09200581031164" cy="0.8211470397652609" r="0.5139613526570048" fill="#01efcd"></circle><circle cx="-12.08169529493559" cy="-1.9275507097841804" r="0.5171980676328503" fill="#01efcd"></circle><circle cx="-11.448752268305082" cy="-4.6289409149667655" r="0.5204347826086957" fill="#01efcd"></circle><circle cx="-10.214207329992108" cy="-7.142512461865824" r="0.5236714975845411" fill="#01efcd"></circle><circle cx="-8.430671285185904" cy="-9.334884791881324" r="0.5269082125603866" fill="#01efcd"></circle><circle cx="-6.18017712544986" cy="-11.086873474478145" r="0.530144927536232" fill="#01eecd"></circle><circle cx="-3.5704492661700766" cy="-12.299942630722917" r="0.5333816425120773" fill="#01eecd"></circle><circle cx="-0.7297673312948766" cy="-12.901696162124423" r="0.5366183574879227" fill="#02eece"></circle><circle cx="2.1993317173860754" cy="-12.850104098668464" r="0.5398550724637682" fill="#02eece"></circle><circle cx="5.067204315347357" cy="-12.136221426137539" r="0.5430917874396136" fill="#02eece"></circle><circle cx="7.724745229074821" cy="-10.785231548162614" r="0.5463285024154589" fill="#02eece"></circle><circle cx="10.031136134377718" cy="-8.8557313743667" r="0.5495652173913044" fill="#02eece"></circle><circle cx="11.861295348584404" cy="-6.437265606657771" r="0.5528019323671498" fill="#02edce"></circle><circle cx="13.112635187218578" cy="-3.6462094557852014" r="0.5560386473429952" fill="#02edce"></circle><circle cx="13.710763136476292" cy="-0.6201869648721988" r="0.5592753623188407" fill="#02edcf"></circle><circle cx="13.613812280854011" cy="2.4887083278119877" r="0.562512077294686" fill="#02edcf"></circle><circle cx="12.815152923221827" cy="5.521556792506271" r="0.5657487922705314" fill="#02edcf"></circle><circle cx="11.344317864119304" cy="8.320736118356402" r="0.5689855072463769" fill="#02edcf"></circle><circle cx="9.266064364065931" cy="10.738109500532758" r="0.5722222222222223" fill="#02eccf"></circle><circle cx="6.677591806565543" cy="12.642853427773481" r="0.5754589371980676" fill="#02eccf"></circle><circle cx="3.704030565650898" cy="13.928512016102529" r="0.578695652173913" fill="#02eccf"></circle><circle cx="0.49240951638010255" cy="14.518898724103144" r="0.5819323671497585" fill="#02ecd0"></circle><circle cx="-2.7956078700182405" cy="14.37252049586842" r="0.5851690821256039" fill="#02ecd0"></circle><circle cx="-5.991860289586683" cy="13.485271376857913" r="0.5884057971014494" fill="#02ecd0"></circle><circle cx="-8.930288738282679" cy="11.891228933738399" r="0.5916425120772948" fill="#02ebd0"></circle><circle cx="-11.455560197348763" cy="9.661483081324745" r="0.5948792270531401" fill="#02ebd0"></circle><circle cx="-13.431267219694522" cy="6.901028292724057" r="0.5981159420289855" fill="#02ebd0"></circle><circle cx="-14.747271158333819" cy="3.7438514207017213" r="0.6013526570048309" fill="#02ebd0"></circle><circle cx="-15.325794930024607" cy="0.3464431992783887" r="0.6045893719806763" fill="#02ebd1"></circle><circle cx="-15.125930453103148" cy="-3.11995315686689" r="0.6078260869565217" fill="#02ebd1"></circle><circle cx="-14.146303446278466" cy="-6.477972585656161" r="0.6110628019323672" fill="#02ead1"></circle><circle cx="-12.425730337551373" cy="-9.553203097945072" r="0.6142995169082126" fill="#02ead1"></circle><circle cx="-10.041804011303237" cy="-12.183240680706362" r="0.617536231884058" fill="#02ead1"></circle><circle cx="-7.107451837561495" cy="-14.226254274804157" r="0.6207729468599035" fill="#02ead1"></circle><circle cx="-3.765615382885604" cy="-15.568609691552226" r="0.6240096618357489" fill="#02ead1"></circle><circle cx="-0.18230086459024214" cy="-16.131143839029214" r="0.6272463768115941" fill="#02ead1"></circle><circle cx="3.4616624998348136" cy="-15.873744980777632" r="0.6304830917874396" fill="#02e9d2"></circle><circle cx="6.97974732436156" cy="-14.797977891533755" r="0.633719806763285" fill="#02e9d2"></circle><circle cx="10.189275648093178" cy="-12.947590631698285" r="0.6369565217391304" fill="#02e9d2"></circle><circle cx="12.920900606888827" cy="-10.406847337703217" r="0.6401932367149759" fill="#02e9d2"></circle><circle cx="15.027530245648592" cy="-7.296743446213208" r="0.6434299516908213" fill="#02e9d2"></circle><circle cx="16.39222379409469" cy="-3.7692703649799286" r="0.6466666666666667" fill="#02e9d2"></circle><circle cx="16.934637681159423" cy="-2.0738949830952045e-14" r="0.6499033816425122" fill="#02e9d2"></circle><circle cx="16.615668089552653" cy="3.820649724587941" r="0.6531400966183576" fill="#02e8d3"></circle><circle cx="15.44002563198846" cy="7.497034043381591" r="0.656376811594203" fill="#02e8d3"></circle><circle cx="13.456581398323731" cy="10.838299322964149" r="0.6596135265700485" fill="#02e8d3"></circle><circle cx="10.75643698249216" cy="13.668286884654918" r="0.6628502415458937" fill="#02e8d3"></circle><circle cx="7.4687883835472055" cy="15.834808946523653" r="0.6660869565217391" fill="#02e8d3"></circle><circle cx="3.7547688435405457" cy="17.217808809199163" r="0.6693236714975845" fill="#02e8d3"></circle><circle cx="-0.20043727193584257" cy="17.735968897184755" r="0.67256038647343" fill="#02e7d3"></circle><circle cx="-4.196824187418577" cy="17.35140503593282" r="0.6757971014492754" fill="#02e7d4"></circle><circle cx="-8.029678204673404" cy="16.072179804419275" r="0.6790338164251208" fill="#02e7d4"></circle><circle cx="-11.500063582795665" cy="13.952477295406128" r="0.6822705314009663" fill="#02e7d4"></circle><circle cx="-14.425143727850426" cy="11.090400644921896" r="0.6855072463768117" fill="#02e7d4"></circle><circle cx="-16.647802413501307" cy="7.623476200381922" r="0.6887439613526571" fill="#02e7d4"></circle><circle cx="-18.04505930938486" cy="3.722067870979609" r="0.6919806763285025" fill="#02e6d4"></circle><circle cx="-18.53483020405141" cy="-0.4189841964668168" r="0.6952173913043478" fill="#02e6d4"></circle><circle cx="-18.08066238544712" cy="-4.590090792541688" r="0.6984541062801932" fill="#02e6d5"></circle><circle cx="-16.694175820703354" cy="-8.57752122550669" r="0.7016908212560387" fill="#02e6d5"></circle><circle cx="-14.435056106011164" cy="-12.174354457015095" r="0.7049275362318841" fill="#02e6d5"></circle><circle cx="-11.408569839834573" cy="-15.1912127085494" r="0.7081642512077295" fill="#02e6d5"></circle><circle cx="-7.7607007588894446" cy="-17.466220964813033" r="0.711400966183575" fill="#02e5d5"></circle><circle cx="-3.6711290867718" cy="-18.87366916099698" r="0.7146376811594204" fill="#02e5d5"></circle><circle cx="0.6556093902120638" cy="-19.330914660296553" r="0.7178743961352658" fill="#02e5d5"></circle><circle cx="5.000350010248483" cy="-18.8031480755959" r="0.7211111111111113" fill="#02e5d6"></circle><circle cx="9.140400510280367" cy="-17.305751425087056" r="0.7243478260869567" fill="#02e5d6"></circle><circle cx="12.860954588097469" cy="-14.904098786960342" r="0.7275845410628019" fill="#02e5d6"></circle><circle cx="15.966232810715793" cy="-11.71077993524878" r="0.7308212560386473" fill="#02e4d6"></circle><circle cx="18.289773261578087" cy="-7.880360257182056" r="0.7340579710144928" fill="#02e4d6"></circle><circle cx="19.70333158890491" cy="-3.6019187277844726" r="0.7372946859903382" fill="#02e4d6"></circle><circle cx="20.123915731415668" cy="0.9102768456123628" r="0.7405314009661836" fill="#02e4d6"></circle><circle cx="19.518571478553014" cy="5.427497895914075" r="0.7437681159420291" fill="#02e4d7"></circle><circle cx="17.906646751024553" cy="9.718149483116514" r="0.7470048309178745" fill="#02e4d7"></circle><circle cx="15.359389516906909" cy="13.55964327608328" r="0.7502415458937199" fill="#02e3d7"></circle><circle cx="11.996870189218729" cy="16.749940484376136" r="0.7534782608695654" fill="#02e3d7"></circle><circle cx="7.982357253074953" cy="19.11816636886708" r="0.7567149758454106" fill="#02e3d7"></circle><circle cx="3.514407637732619" cy="20.53373924134177" r="0.759951690821256" fill="#03e3d7"></circle><circle cx="-1.1829459362675057" cy="20.913527355171283" r="0.7631884057971015" fill="#03e3d7"></circle><circle cx="-5.871426109854391" cy="20.226643463612294" r="0.7664251207729469" fill="#03e3d8"></circle><circle cx="-10.310597621226075" cy="18.496604377575917" r="0.7696618357487923" fill="#03e3d8"></circle><circle cx="-14.270196523750071" cy="15.800715743808938" r="0.7728985507246378" fill="#03e2d8"></circle><circle cx="-17.542069700292654" cy="12.266683785961252" r="0.7761352657004832" fill="#03e2d8"></circle><circle cx="-19.95110581708915" cy="8.06659868702262" r="0.7793719806763286" fill="#03e2d8"></circle><circle cx="-21.36458425487437" cy="3.4085712757538302" r="0.7826086956521738" fill="#03e2d8"></circle><circle cx="-21.69944400683127" cy="-1.473571423160003" r="0.7858454106280193" fill="#03e2d8"></circle><circle cx="-20.92707645936652" cy="-6.3320219380313265" r="0.7890821256038647" fill="#03e2d8"></circle><circle cx="-19.075369385355412" cy="-10.917570489038937" r="0.7923188405797101" fill="#03e1d9"></circle><circle cx="-16.227868231791557" cy="-14.992387082429138" r="0.7955555555555556" fill="#03e1d9"></circle><circle cx="-12.520067871241778" cy="-18.34235200512872" r="0.798792270531401" fill="#03e1d9"></circle><circle cx="-8.132995904223055" cy="-20.788295663692516" r="0.8020289855072464" fill="#03e1d9"></circle><circle cx="-3.28438972410369" cy="-22.19555831949147" r="0.8052657004830919" fill="#03e1d9"></circle><circle cx="1.7821034617618496" cy="-22.48136076432527" r="0.8085024154589373" fill="#03e1d9"></circle><circle cx="6.8091683136015995" cy="-21.619584515607983" r="0.8117391304347825" fill="#03e0d9"></circle><circle cx="11.538889773094766" cy="-19.642689412018665" r="0.814975845410628" fill="#03e0da"></circle><circle cx="15.725984498458136" cy="-16.640641107390888" r="0.8182125603864734" fill="#03e0da"></circle><circle cx="19.150516577095665" cy="-12.756873587014654" r="0.8214492753623188" fill="#03e0da"></circle><circle cx="21.62943855516651" cy="-8.181464675887984" r="0.8246859903381643" fill="#03e0da"></circle><circle cx="23.026352743799222" cy="-3.141847694968338" r="0.8279227053140097" fill="#03e0da"></circle><circle cx="23.25897337330733" cy="2.1084876100260246" r="0.8311594202898551" fill="#03dfda"></circle><circle cx="22.30388336493996" cy="7.302743839304163" r="0.8343961352657006" fill="#03dfda"></circle><circle cx="20.19831470727919" cy="12.174373317687472" r="0.837632850241546" fill="#03dfdb"></circle><circle cx="17.03883190516931" cy="16.47075516026361" r="0.8408695652173914" fill="#03dfdb"></circle><circle cx="12.976956105309936" cy="19.966290282071995" r="0.8441062801932369" fill="#03dfdb"></circle><circle cx="8.211925219672377" cy="22.474235789335157" r="0.8473429951690821" fill="#03dfdb"></circle><circle cx="2.9809345363952353" cy="23.856658520311566" r="0.8505797101449275" fill="#03dedb"></circle><circle cx="-2.4526648372603104" cy="24.031978312113267" r="0.8538164251207729" fill="#03dedb"></circle><circle cx="-7.812622810685213" cy="22.979690484087183" r="0.8570531400966184" fill="#03dedb"></circle><circle cx="-12.82383516125581" cy="20.741998187445173" r="0.8602898550724638" fill="#03dedc"></circle><circle cx="-17.226462346063382" cy="17.422241612695455" r="0.8635265700483092" fill="#03dedc"></circle><circle cx="-20.789397730183826" cy="13.18017466136258" r="0.8667632850241547" fill="#03dedc"></circle><circle cx="-23.32238737793078" cy="8.224302219260611" r="0.8700000000000001" fill="#03dedc"></circle><circle cx="-24.68616639082459" cy="2.801644237337961" r="0.8732367149758455" fill="#03dddc"></circle><circle cx="-24.80007285660117" cy="-2.8145715338804655" r="0.876473429951691" fill="#03dddc"></circle><circle cx="-23.64672515489501" cy="-8.33867524015445" r="0.8797101449275364" fill="#03dddc"></circle><circle cx="-21.273495489465088" cy="-13.487085573516389" r="0.8829468599033818" fill="#03dddd"></circle><circle cx="-17.790674714879362" cy="-17.99286627218179" r="0.8861835748792273" fill="#03dddd"></circle><circle cx="-13.366392585975412" cy="-21.619561332838114" r="0.8894202898550725" fill="#03dddd"></circle><circle cx="-8.21852484310708" cy="-24.173592109435972" r="0.8926570048309179" fill="#03dcdd"></circle><circle cx="-2.603975431815172" cy="-25.514566911862826" r="0.8958937198067634" fill="#03dcdd"></circle><circle cx="3.19413952204433" cy="-25.562955144863224" r="0.8991304347826088" fill="#03dcdd"></circle><circle cx="8.880766881870386" cy="-24.30470852500569" r="0.9023671497584542" fill="#03dcdd"></circle><circle cx="14.163931093330465" cy="-21.792565024473724" r="0.9056038647342997" fill="#03dcde"></circle><circle cx="18.76972414196744" cy="-18.14393923765662" r="0.9088405797101451" fill="#03dcde"></circle><circle cx="22.456501360197922" cy="-13.535477337110969" r="0.9120772946859905" fill="#03dbde"></circle><circle cx="25.02754761218377" cy="-8.194526762324886" r="0.915314009661836" fill="#03dbde"></circle><circle cx="26.34155052018573" cy="-2.3879314021844626" r="0.9185507246376812" fill="#03dbde"></circle><circle cx="26.320324241797504" cy="3.5912960671625656" r="0.9217874396135266" fill="#03dbde"></circle><circle cx="24.95336366820176" cy="9.438759257447835" r="0.925024154589372" fill="#03dbde"></circle><circle cx="22.298968030827773" cy="14.854174567299626" r="0.9282608695652175" fill="#03dbdf"></circle><circle cx="18.481846791011332" cy="19.556790195307062" r="0.9314975845410629" fill="#03dadf"></circle><circle cx="13.687300530707871" cy="23.299935999088625" r="0.9347342995169083" fill="#03dadf"></circle><circle cx="8.152246167720484" cy="25.883950417704398" r="0.9379710144927538" fill="#03dadf"></circle><circle cx="2.153520081526991" cy="27.166807598343" r="0.9412077294685992" fill="#03dadf"></circle><circle cx="-4.005963890286303" cy="27.07188020352792" r="0.9444444444444446" fill="#03dadf"></circle><circle cx="-10.012509682486314" cy="25.59241564440455" r="0.9476811594202899" fill="#03dadf"></circle><circle cx="-15.557615189081323" cy="22.792468626623023" r="0.9509178743961353" fill="#03d9e0"></circle><circle cx="-20.353815758725894" cy="18.804212611330925" r="0.9541545893719807" fill="#03d9e0"></circle><circle cx="-24.14958141132654" cy="13.821737970713281" r="0.9573913043478262" fill="#03d9e0"></circle><circle cx="-26.74249602430673" cy="8.091625785972695" r="0.9606280193236716" fill="#03d9e0"></circle><circle cx="-27.990028540266724" cy="1.900754055145005" r="0.963864734299517" fill="#03d9e0"></circle><circle cx="-27.8173241416611" cy="-4.4380611813667565" r="0.9671014492753625" fill="#03d9e0"></circle><circle cx="-26.221591559317527" cy="-10.601871293913474" r="0.9703381642512079" fill="#03d8e0"></circle><circle cx="-23.272833861681747" cy="-16.274048539420196" r="0.9735748792270531" fill="#03d8e0"></circle><circle cx="-19.11085560308646" cy="-21.160549296064445" r="0.9768115942028985" fill="#03d8e1"></circle><circle cx="-13.93866967832713" cy="-25.005151792458914" r="0.980048309178744" fill="#03d8e1"></circle><circle cx="-8.012612894949644" cy="-27.602878960884315" r="0.9832850241545894" fill="#04d8e1"></circle><circle cx="-1.6296505611695293" cy="-28.81090381688888" r="0.9865217391304348" fill="#04d8e1"></circle><circle cx="4.8875016133881815" cy="-28.55635828736838" r="0.9897584541062803" fill="#04d8e1"></circle><circle cx="11.206693078137162" cy="-26.840620623704346" r="0.9929951690821257" fill="#04d7e1"></circle><circle cx="17.00326662688704" cy="-23.739833769001603" r="0.9962318840579711" fill="#04d7e1"></circle><circle cx="21.97673645972532" cy="-19.401598379828172" r="0.9994685990338166" fill="#04d7e2"></circle><circle cx="25.866359430903856" cy="-14.03797992045429" r="1.0027053140096618" fill="#04d7e2"></circle><circle cx="28.46479285093375" cy="-7.915159338163435" r="1.0059420289855072" fill="#04d7e2"></circle><circle cx="29.629124041772243" cy="-1.3402314902809782" r="1.0091787439613527" fill="#04d7e2"></circle><circle cx="29.2886860552814" cy="5.354194357370347" r="1.012415458937198" fill="#04d6e2"></circle><circle cx="27.4492342122897" cy="11.826819900004576" r="1.0156521739130435" fill="#04d6e2"></circle><circle cx="24.19324141565788" cy="17.745057929316758" r="1.018888888888889" fill="#04d6e2"></circle><circle cx="19.67626730449096" cy="22.802120142478977" r="1.0221256038647344" fill="#04d6e3"></circle><circle cx="14.119557237356151" cy="26.73291476748181" r="1.0253623188405798" fill="#04d6e3"></circle><circle cx="7.799221538357508" cy="29.327930476774604" r="1.028599033816425" fill="#04d6e3"></circle><circle cx="1.0325233845387896" cy="30.44438003674322" r="1.0318357487922705" fill="#04d5e3"></circle><circle cx="-5.838044098236196" cy="30.014012107190293" r="1.035072463768116" fill="#04d5e3"></circle><circle cx="-12.462092532562057" cy="28.047165922272928" r="1.0383091787439613" fill="#04d5e3"></circle><circle cx="-18.49920743594121" cy="24.632832953147677" r="1.0415458937198068" fill="#04d5e3"></circle><circle cx="-23.636440529821023" cy="19.934692529000586" r="1.0447826086956522" fill="#04d5e4"></circle><circle cx="-27.60452645532634" cy="14.183294469499186" r="1.0480193236714976" fill="#04d5e4"></circle><circle cx="-30.191983843958713" cy="7.664760510227148" r="1.051256038647343" fill="#04d4e4"></circle><circle cx="-31.256362897514798" cy="0.7065574353216442" r="1.0544927536231883" fill="#04d4e4"></circle><circle cx="-30.73204241553245" cy="-6.338951051545699" r="1.0577294685990337" fill="#04d4e4"></circle><circle cx="-28.634151631444528" cy="-13.112347687608576" r="1.0609661835748792" fill="#04d4e4"></circle><circle cx="-25.05838766716862" cy="-19.265496690207062" r="1.0642028985507246" fill="#04d4e4"></circle><circle cx="-20.176708033175874" cy="-24.47943515286951" r="1.06743961352657" fill="#04d4e5"></circle><circle cx="-14.229088783593243" cy="-28.4809014201649" r="1.0706763285024155" fill="#04d3e5"></circle><circle cx="-7.511741872266858" cy="-31.056644245858386" r="1.0739130434782609" fill="#04d3e5"></circle><circle cx="-0.36236948038042566" cy="-32.064764059287796" r="1.0771497584541063" fill="#04d3e5"></circle><circle cx="6.856810981091526" cy="-31.44248432666065" r="1.0803864734299518" fill="#04d3e5"></circle><circle cx="13.777418047041463" cy="-29.20992955589365" r="1.0836231884057972" fill="#04d3e5"></circle><circle cx="20.043703833273216" cy="-25.469688026821625" r="1.0868599033816426" fill="#04d3e5"></circle><circle cx="25.330838941795783" cy="-20.402151662916758" r="1.0900966183574878" fill="#04d2e6"></circle><circle cx="29.361744920957356" cy="-14.256841697817746" r="1.0933333333333333" fill="#04d2e6"></circle><circle cx="31.921602328421606" cy="-7.3401358577438565" r="1.0965700483091787" fill="#04d2e6"></circle><circle cx="32.869275362318845" cy="-8.050650572551346e-14" r="1.0998067632850241" fill="#04d2e6"></circle><circle cx="32.14504662387963" cy="7.391515217351583" r="1.1030434782608696" fill="#04d2e6"></circle><circle cx="29.774240307297354" cy="14.457132294985865" r="1.106280193236715" fill="#04d2e6"></circle><circle cx="25.866519733230867" cy="20.833603648177455" r="1.1095169082125604" fill="#04d2e6"></circle><circle cx="20.610865167672383" cy="26.19038427977812" r="1.1127536231884059" fill="#04d1e7"></circle><circle cx="14.266459106227435" cy="30.246760610883403" r="1.1159903381642513" fill="#04d1e7"></circle><circle cx="7.149917324797541" cy="32.78654815508212" r="1.1192270531400967" fill="#04d1e7"></circle><circle cx="-0.38050588772603255" cy="33.66958911744334" r="1.122463768115942" fill="#04d1e7"></circle><circle cx="-7.942950676799316" cy="32.8394395902391" r="1.1257004830917874" fill="#04d1e7"></circle><circle cx="-15.151315150704894" cy="30.326826949780152" r="1.1289371980676328" fill="#04d1e7"></circle><circle cx="-21.634967604668205" cy="26.24867176756935" r="1.1321739130434783" fill="#04d0e7"></circle><circle cx="-27.057801057467348" cy="20.802694237184305" r="1.1354106280193237" fill="#04d0e7"></circle><circle cx="-31.135650598667276" cy="14.25785130233455" r="1.1386473429951691" fill="#04d0e8"></circle><circle cx="-33.651171271814114" cy="6.941065765658701" r="1.1418840579710146" fill="#04d0e8"></circle><circle cx="-34.465398171541615" cy="-0.7790984325095403" r="1.14512077294686" fill="#04d0e8"></circle><circle cx="-33.5253750710721" cy="-8.510999882066761" r="1.1483574879227054" fill="#04d0e8"></circle><circle cx="-30.867435056335303" cy="-15.859787402281567" r="1.1515942028985509" fill="#04cfe8"></circle><circle cx="-26.615936438483413" cy="-22.44756390469094" r="1.154830917874396" fill="#04cfe8"></circle><circle cx="-20.977488537493397" cy="-27.932816727958457" r="1.1580676328502415" fill="#04cfe8"></circle><circle cx="-14.230933001865077" cy="-32.028115510227934" r="1.161304347826087" fill="#04cfe9"></circle><circle cx="-6.713565314989739" cy="-34.51516077231886" r="1.1645410628019324" fill="#04cfe9"></circle><circle cx="1.195723258370216" cy="-35.256395972936645" r="1.1677777777777778" fill="#04cfe9"></circle><circle cx="9.095540982954867" cy="-34.20256653626804" r="1.1710144927536232" fill="#04cee9"></circle><circle cx="16.58236594107087" cy="-31.395812764795444" r="1.1742512077294687" fill="#04cee9"></circle><circle cx="23.271157528522092" cy="-26.96810942890691" r="1.177487922705314" fill="#04cee9"></circle><circle cx="28.81515636225423" cy="-21.13510174620932" r="1.1807246376811595" fill="#04cee9"></circle><circle cx="32.92385455064585" cy="-14.185623364680621" r="1.183961352657005" fill="#04ceea"></circle><circle cx="35.3782053633322" cy="-6.467404757343361" r="1.1871980676328504" fill="#04ceea"></circle><circle cx="36.042276636711634" cy="1.6303213710207667" r="1.1904347826086956" fill="#04cdea"></circle><circle cx="34.87072914226826" cy="9.696447778292038" r="1.193671497584541" fill="#04cdea"></circle><circle cx="31.911710833343996" cy="17.318863796913057" r="1.1969082125603865" fill="#04cdea"></circle><circle cx="27.304989842254756" cy="24.105510281544465" r="1.200144927536232" fill="#04cdea"></circle><circle cx="21.275391587031173" cy="29.704542705214962" r="1.2033816425120774" fill="#04cdea"></circle><circle cx="14.121846015864868" cy="33.82256556643384" r="1.2066183574879228" fill="#05cdeb"></circle><circle cx="6.202577533735257" cy="36.2399934300416" r="1.2098550724637682" fill="#05cdeb"></circle><circle cx="-2.082829166141926" cy="36.822735009935755" r="1.2130917874396137" fill="#05cceb"></circle><circle cx="-10.313589738633844" cy="35.52957979377372" r="1.216328502415459" fill="#05cceb"></circle><circle cx="-18.069090174102875" cy="32.41488269555695" r="1.2195652173913045" fill="#05cceb"></circle><circle cx="-24.950380841650457" cy="27.62638024799222" r="1.2228019323671497" fill="#05cceb"></circle><circle cx="-30.60069623198213" cy="21.39821986351585" r="1.2260386473429952" fill="#05cceb"></circle><circle cx="-34.72394510810139" cy="14.039529065969832" r="1.2292753623188406" fill="#05ccec"></circle><circle cx="-37.10021310159981" cy="5.919081747336789" r="1.232512077294686" fill="#05cbec"></circle><circle cx="-37.59746673678637" cy="-2.553178438539472" r="1.2357487922705315" fill="#05cbec"></circle><circle cx="-36.178837205153265" cy="-10.946832029801543" r="1.238985507246377" fill="#05cbec"></circle><circle cx="-32.90508451496357" cy="-18.832850488111166" r="1.2422222222222223" fill="#05cbec"></circle><circle cx="-27.932086726565085" cy="-25.805524807272334" r="1.2454589371980678" fill="#05cbec"></circle><circle cx="-21.503452492086677" cy="-31.503335204866993" r="1.2486956521739132" fill="#05cbec"></circle><circle cx="-13.938605130415167" cy="-35.627688493002566" r="1.2519323671497586" fill="#05caed"></circle><circle cx="-5.616920168276383" cy="-37.95855231672541" r="1.2551690821256039" fill="#05caed"></circle><circle cx="3.0412963921847473" cy="-38.36616832355615" r="1.2584057971014493" fill="#05caed"></circle><circle cx="11.596035537254783" cy="-36.81822196154177" r="1.2616425120772947" fill="#05caed"></circle><circle cx="19.60994640304572" cy="-33.38207523911991" r="1.2648792270531402" fill="#05caed"></circle><circle cx="26.670694746025678" cy="-28.22191891368738" r="1.2681159420289856" fill="#05caed"></circle><circle cx="32.41217573069398" cy="-21.590959534276415" r="1.271352657004831" fill="#05c9ed"></circle><circle cx="36.53348986845332" cy="-13.819011348044164" r="1.2745893719806765" fill="#05c9ee"></circle><circle cx="38.814698889377006" cy="-5.296100237555872" r="1.277826086956522" fill="#05c9ee"></circle><circle cx="39.1285372035333" cy="3.547105651136753" r="1.281062801932367" fill="#05c9ee"></circle><circle cx="37.44745657961613" cy="12.261056891297562" r="1.2842995169082125" fill="#05c9ee"></circle><circle cx="33.845616653180265" cy="20.400175869854067" r="1.287536231884058" fill="#05c9ee"></circle><circle cx="28.49569004397645" cy="27.54564024395971" r="1.2907729468599034" fill="#05c8ee"></circle><circle cx="21.66061522819893" cy="33.32693181858859" r="1.2940096618357488" fill="#05c8ee"></circle><circle cx="13.680689398822986" cy="37.441042275111094" r="1.2972463768115943" fill="#05c8ee"></circle><circle cx="4.956634070077761" cy="39.668340574490124" r="1.3004830917874397" fill="#05c8ef"></circle><circle cx="-4.070524271343644" cy="39.8842718017435" r="1.3037198067632851" fill="#05c8ef"></circle><circle cx="-12.941748493105516" cy="38.066265568040535" r="1.3069565217391306" fill="#05c8ef"></circle><circle cx="-21.20333316525493" cy="34.295473432960634" r="1.3101932367149758" fill="#05c7ef"></circle><circle cx="-28.430107955405614" cy="28.753216993927744" r="1.3134299516908212" fill="#05c7ef"></circle><circle cx="-34.24731543820138" cy="21.712298019240908" r="1.3166666666666667" fill="#05c7ef"></circle><circle cx="-38.35003771060253" cy="13.523585520686987" r="1.319903381642512" fill="#05c7ef"></circle><circle cx="-40.519165133764936" cy="4.598538456783038" r="1.3231400966183575" fill="#05c7f0"></circle><circle cx="-40.633071599541545" cy="-4.611465753325271" r="1.326376811594203" fill="#05c7f0"></circle><circle cx="-38.67437548756684" cy="-13.637958541580572" r="1.3296135265700484" fill="#05c7f0"></circle><circle cx="-34.731413197482894" cy="-22.019208931394346" r="1.3328502415458938" fill="#05c6f0"></circle><circle cx="-28.994320324221793" cy="-29.323841653413883" r="1.336086956521739" fill="#05c6f0"></circle><circle cx="-21.745890589974763" cy="-35.17303657835343" r="1.3393236714975845" fill="#05c6f0"></circle><circle cx="-13.3476505255278" cy="-39.26016719338918" r="1.34256038647343" fill="#05c6f0"></circle><circle cx="-4.221834865899355" cy="-41.36686040149298" r="1.3457971014492753" fill="#05c6f1"></circle><circle cx="5.169839055726403" cy="-41.374637199041835" r="1.3490338164251208" fill="#05c6f1"></circle><circle cx="14.34953106102074" cy="-39.27151501078173" r="1.3522705314009662" fill="#05c5f1"></circle><circle cx="22.847590216219242" cy="-35.15320656099045" r="1.3555072463768116" fill="#05c5f1"></circle><circle cx="30.226582280774263" cy="-29.218824321353043" r="1.358743961352657" fill="#05c5f1"></circle><circle cx="36.10380330609886" cy="-21.761279889277798" r="1.3619806763285025" fill="#05c5f1"></circle><circle cx="40.17112082685986" cy="-13.152839814318522" r="1.3652173913043477" fill="#05c5f1"></circle><circle cx="42.21111435041168" cy="-3.8265494432954843" r="1.3684541062801931" fill="#05c5f2"></circle><circle cx="42.10867038737532" cy="5.745548609749829" r="1.3716908212560386" fill="#05c4f2"></circle><circle cx="39.85741498148872" cy="15.076305929603606" r="1.374927536231884" fill="#05c4f2"></circle><circle cx="35.56062718442625" cy="23.688260514561136" r="1.3781642512077295" fill="#05c4f2"></circle><circle cx="29.426557038579077" cy="31.13806800160337" r="1.3814009661835749" fill="#05c4f2"></circle><circle cx="21.758357160659056" cy="37.03932182618973" r="1.3846376811594203" fill="#05c4f2"></circle><circle cx="12.93911339137448" cy="41.082587863637926" r="1.3878743961352658" fill="#05c4f2"></circle><circle cx="3.4127130119503524" cy="43.05161515757385" r="1.391111111111111" fill="#05c3f3"></circle><circle cx="-6.338494334458727" cy="42.834874200761895" r="1.3943478260869564" fill="#05c3f3"></circle><circle cx="-15.818118908678208" cy="40.43180847371469" r="1.3975845410628018" fill="#05c3f3"></circle><circle cx="-24.540999809925836" cy="35.95345182636156" r="1.4008212560386473" fill="#05c3f3"></circle><circle cx="-32.05803425349924" cy="29.617350336174322" r="1.4040579710144927" fill="#05c3f3"></circle><circle cx="-37.97929654093459" cy="21.73701796978571" r="1.4072946859903381" fill="#05c3f3"></circle><circle cx="-41.99425677009338" cy="12.706435877743216" r="1.4105314009661836" fill="#05c2f3"></circle><circle cx="-43.88805127022181" cy="2.9803610705247454" r="1.413768115942029" fill="#05c2f4"></circle><circle cx="-43.552952988386615" cy="-6.948571652949295" r="1.4170048309178744" fill="#05c2f4"></circle><circle cx="-40.99443085033009" cy="-16.5748016728599" r="1.4202415458937199" fill="#05c2f4"></circle><circle cx="-36.33146039337139" cy="-25.405584616974572" r="1.423478260869565" fill="#05c2f4"></circle><circle cx="-29.791039920987043" cy="-32.98621380024755" r="1.4267149758454105" fill="#05c2f4"></circle><circle cx="-21.697162231204672" cy="-38.923430110439526" r="1.429951690821256" fill="#06c2f4"></circle><circle cx="-12.454776523729555" cy="-42.90581529104561" r="1.4331884057971014" fill="#06c1f4"></circle><circle cx="-2.529533791044221" cy="-44.72011147165334" r="1.4364251207729468" fill="#06c1f5"></circle><circle cx="7.575671509390608" cy="-44.26261247606824" r="1.4396618357487923" fill="#06c1f5"></circle><circle cx="17.346181840926636" cy="-41.54501982127129" r="1.4428985507246377" fill="#06c1f5"></circle><circle cx="26.281788024699264" cy="-36.694435989840585" r="1.4461352657004831" fill="#06c1f5"></circle><circle cx="33.9223367850729" cy="-29.947465385289675" r="1.4493719806763286" fill="#06c1f5"></circle><circle cx="39.87142351322313" cy="-21.638694234251126" r="1.452608695652174" fill="#06c0f5"></circle><circle cx="43.81695051464892" cy="-12.184109220541659" r="1.4558454106280194" fill="#06c0f5"></circle><circle cx="45.54748494706819" cy="-2.060276015689797" r="1.4590821256038646" fill="#06c0f5"></circle><circle cx="44.96355982970885" cy="8.219680386928397" r="1.46231884057971" fill="#06c0f6"></circle><circle cx="42.083315501357575" cy="18.132083007502892" r="1.4655555555555555" fill="#06c0f6"></circle><circle cx="37.04216496719648" cy="27.16937974027708" r="1.468792270531401" fill="#06c0f6"></circle><circle cx="30.08647024491623" cy="34.866130784424996" r="1.4720289855072464" fill="#06bff6"></circle><circle cx="21.56152266814708" cy="40.822976107189966" r="1.4752657004830918" fill="#06bff6"></circle><circle cx="11.894412511064155" cy="44.72734893744667" r="1.4785024154589372" fill="#06bff6"></circle><circle cx="1.5726372526971346" cy="46.369861349383314" r="1.4817391304347827" fill="#06bff6"></circle><circle cx="-8.880480326453789" cy="45.65550371851224" r="1.484975845410628" fill="#06bff7"></circle><circle cx="-18.932324775537438" cy="42.60906046768793" r="1.4882125603864735" fill="#06bff7"></circle><circle cx="-28.06812613359971" cy="37.37443697255698" r="1.4914492753623187" fill="#06bef7"></circle><circle cx="-35.817320862293045" cy="30.207901976676713" r="1.4946859903381642" fill="#06bef7"></circle><circle cx="-41.777785690958154" cy="21.4655606462743" r="1.4979227053140096" fill="#06bef7"></circle><circle cx="-45.636696529583595" cy="11.585669599752613" r="1.501159420289855" fill="#06bef7"></circle><circle cx="-47.18693086500499" cy="1.0666716713652196" r="1.5043961352657005" fill="#06bef7"></circle><circle cx="-46.33815437796176" cy="-9.557948946224524" r="1.507632850241546" fill="#06bef8"></circle><circle cx="-43.121999816610604" cy="-19.746722789560955" r="1.5108695652173914" fill="#06bdf8"></circle><circle cx="-37.69104499678565" cy="-28.977790282469336" r="1.5141062801932368" fill="#06bdf8"></circle><circle cx="-30.3116120550488" cy="-36.775629625032416" r="1.5173429951690822" fill="#06bdf8"></circle><circle cx="-21.350725729624973" cy="-42.73554856552565" r="1.5205797101449277" fill="#06bdf8"></circle><circle cx="-11.257868361647764" cy="-46.54467880016463" r="1.5238164251207729" fill="#06bdf8"></circle><circle cx="-0.5424380961709891" cy="-47.99838427954637" r="1.5270531400966183" fill="#06bdf8"></circle><circle cx="10.251959462348255" cy="-47.011223672543665" r="1.5302898550724637" fill="#06bcf9"></circle><circle cx="20.575088769721333" cy="-43.62188122025357" r="1.5335265700483092" fill="#06bcf9"></circle><circle cx="29.89813201845296" cy="-37.99178542194521" r="1.5367632850241546" fill="#06bcf9"></circle></g></svg>