<svg xmlns="http://www.w3.org/2000/svg" xmlns:xlink="http://www.w3.org/1999/xlink" version="1.0" viewBox="0 0 600 300"><path d="M0 0h600v300H0z" style="font-size:12px;fill:#fff;fill-rule:evenodd;stroke:none;stroke-width:.991189pt"/><path id="b" d="M600 260.881c-6.723 4.045-12.5 13.498-30.36 13.498-35.71 0-44.641-19.902-71.427-19.902-17.856 0-26.785 19.902-44.641 19.902-35.715 0-44.643-19.902-71.429-19.902-17.857 0-26.786 19.902-44.643 19.902-35.714 0-44.643-19.902-71.428-19.902-17.858 0-26.786 19.902-44.643 19.902-35.714 0-44.643-19.902-71.429-19.902-17.858 0-26.786 19.902-44.643 19.902-35.714 0-44.643-19.902-71.428-19.902-17.858 0-23.215 14.182-33.929 14.182v25.621c10.714 0 16.071-14.181 33.929-14.181 26.785 0 35.714 19.901 71.428 19.901 17.857 0 26.785-19.9 44.643-19.9 26.785 0 35.715 19.901 71.429 19.901 17.857 0 26.785-19.901 44.643-19.901 26.785 0 35.714 19.901 71.428 19.901 17.857 0 26.786-19.901 44.643-19.901 26.786 0 35.714 19.901 71.429 19.901 17.856 0 26.785-19.901 44.64-19.901C525 280.099 533.93 300 569.64 300c17.86 0 23.637-5.64 30.36-9.684z" style="font-size:12px;fill:#002b7f;fill-opacity:1;fill-rule:evenodd;stroke:none;stroke-width:1pt;stroke-opacity:1"/><use xlink:href="#a" width="600" height="300" transform="translate(0 49.753)"/><use xlink:href="#b" id="a" width="600" height="300" x="0" y="0" transform="translate(0 -99.507)"/><path id="c" d="M266.072 130.838c26.785 0 35.714 19.902 71.428 19.902 17.857 0 26.786-19.902 44.643-19.902 26.786 0 35.714 19.902 71.429 19.902 17.856 0 26.785-19.902 44.64-19.902 26.787 0 35.717 19.902 71.428 19.902 17.86 0 23.637-5.64 30.36-9.685v-29.434c-6.723 4.045-12.5 13.497-30.36 13.497-35.71 0-44.641-19.901-71.427-19.901-17.856 0-26.785 19.901-44.641 19.901-35.715 0-44.643-19.901-71.429-19.901-17.857 0-26.786 19.901-44.643 19.901-35.714 0-44.643-19.901-71.428-19.901" style="font-size:12px;fill:#002b7f;fill-opacity:1;fill-rule:evenodd;stroke:none;stroke-width:1pt;stroke-opacity:1"/><use xlink:href="#c" width="600" height="300" transform="translate(0 -49.754)"/><use xlink:href="#c" width="600" height="300" transform="translate(0 -99.507)"/><g transform="matrix(.5 0 0 .5 0 154.722)"><path id="f" d="M0-309.444h600v300H0z" style="fill:#fff;fill-opacity:1;fill-rule:evenodd;stroke-opacity:1"/><path id="d" d="m-238.29 473.04-.214-94.3 81.772 46.965z" style="fill:#002b7f;fill-opacity:1;fill-rule:evenodd;stroke-opacity:1" transform="matrix(2.84937 0 0 2.44966 679.586 -1202.729)"/><use xlink:href="#d" width="600" height="600" transform="matrix(-1 0 0 1 600 0)"/><use xlink:href="#d" id="e" width="600" height="600" x="0" y="0" transform="matrix(0 -.50215 2.01732 0 621.65 -9.444)"/><use xlink:href="#e" width="600" height="600" transform="matrix(1 0 0 -1 0 -318.889)"/></g><path d="M177.64 50H200L300 0h-22.36zM0 0v11.18L77.64 50H100zm300 150v-11.18L222.36 100H200zM0 150h22.36l100-50H100z" style="fill:#ce1126;fill-opacity:1;fill-rule:evenodd;stroke:none;stroke-width:1pt;stroke-linecap:butt;stroke-linejoin:miter;stroke-opacity:1"/><g transform="scale(.5)"><use xlink:href="#f" id="g" width="600" height="300" x="0" y="0" transform="matrix(1 0 0 .33333 0 203.148)"/><use xlink:href="#g" width="600" height="300" transform="matrix(0 .5 -1 0 450 0)"/></g><rect id="h" width="300" height="30" x="0" y="60" rx="0" ry="0" style="fill:#ce1124;fill-opacity:1;fill-rule:evenodd;stroke-opacity:1"/><use xlink:href="#h" width="600" height="300" transform="matrix(0 .5 -1 0 225 0)"/><path d="M814.961-301.181 797.244 407.48c0 37.298 80.097 37.298 88.583 0L868.11-301.181z" style="fill:#a24300;fill-opacity:1;fill-rule:evenodd;stroke:#fff;stroke-width:6.93489981;stroke-linecap:butt;stroke-linejoin:miter;stroke-dasharray:none;stroke-opacity:1" transform="matrix(.12095 0 0 .28726 347.839 166.046)"/><path d="m496.063 549.213 17.717 70.866 35.433-53.15-17.717 88.583 35.433-35.433-35.433 88.582 35.433-35.433-35.433 88.583 35.433-35.433-35.433 106.299 35.433-35.433-35.433 106.299 35.433-35.433-35.433 106.299-17.716 53.151-17.717 17.72-17.717-17.72-17.716-53.151-35.433-106.299 35.433 35.433-35.433-106.299 35.433 35.433-35.433-106.299 35.433 35.433-35.433-88.583 35.433 35.433-35.433-88.582 35.433 35.433-17.717-88.583 35.433 53.15z" style="font-size:12px;fill:#006d00;fill-rule:evenodd;stroke:#fff;stroke-width:8.25;stroke-dasharray:none" transform="matrix(-.13794 .03951 -.06065 -.11427 570.303 198.336)"/><path d="M496.063 549.213v496.067m-70.866-177.17 70.866 106.299 70.866-106.299" style="font-size:12px;fill:none;fill-rule:evenodd;stroke:#000;stroke-width:1pt" transform="matrix(-.13794 .03951 -.06065 -.11427 570.303 198.336)"/><path d="m425.197 797.244 70.866 106.299 70.866-106.299" style="font-size:12px;fill:none;fill-rule:evenodd;stroke:#000;stroke-width:1pt" transform="matrix(-.13794 .03951 -.06065 -.11427 570.303 198.336)"/><path d="m425.197 726.378 70.866 106.299 70.866-106.299" style="font-size:12px;fill:none;fill-rule:evenodd;stroke:#000;stroke-width:1pt" transform="matrix(-.13794 .03951 -.06065 -.11427 570.303 198.336)"/><path d="m425.197 673.228 70.866 88.583 70.866-88.583" style="font-size:12px;fill:none;fill-rule:evenodd;stroke:#000;stroke-width:1pt" transform="matrix(-.13794 .03951 -.06065 -.11427 570.303 198.336)"/><path d="m425.197 620.079 70.866 88.582 70.866-88.582" style="font-size:12px;fill:none;fill-rule:evenodd;stroke:#000;stroke-width:1pt" transform="matrix(-.13794 .03951 -.06065 -.11427 570.303 198.336)"/><path d="m442.913 566.929 53.15 106.299 53.15-106.299" style="font-size:12px;fill:none;fill-rule:evenodd;stroke:#000;stroke-width:1pt" transform="matrix(-.13794 .03951 -.06065 -.11427 570.303 198.336)"/><path d="m496.063 549.213 17.717 70.866 35.433-53.15-17.717 88.583 35.433-35.433-35.433 88.582 35.433-35.433-35.433 88.583 35.433-35.433-35.433 106.299 35.433-35.433-35.433 106.299 35.433-35.433-35.433 106.299-17.716 53.151-17.717 17.72-17.717-17.72-17.716-53.151-35.433-106.299 35.433 35.433-35.433-106.299 35.433 35.433-35.433-106.299 35.433 35.433-35.433-88.583 35.433 35.433-35.433-88.582 35.433 35.433-17.717-88.583 35.433 53.15z" style="font-size:12px;fill:#006d00;fill-rule:evenodd;stroke:#fff;stroke-width:8.25;stroke-dasharray:none" transform="matrix(.10373 -.10621 .12936 .08577 267.096 64.142)"/><path d="M496.063 549.213v496.067m-70.866-177.17 70.866 106.299 70.866-106.299" style="font-size:12px;fill:none;fill-rule:evenodd;stroke:#000;stroke-width:1pt" transform="matrix(.10373 -.10621 .12936 .08577 267.096 64.142)"/><path d="m425.197 797.244 70.866 106.299 70.866-106.299" style="font-size:12px;fill:none;fill-rule:evenodd;stroke:#000;stroke-width:1pt" transform="matrix(.10373 -.10621 .12936 .08577 267.096 64.142)"/><path d="m425.197 726.378 70.866 106.299 70.866-106.299" style="font-size:12px;fill:none;fill-rule:evenodd;stroke:#000;stroke-width:1pt" transform="matrix(.10373 -.10621 .12936 .08577 267.096 64.142)"/><path d="m425.197 673.228 70.866 88.583 70.866-88.583" style="font-size:12px;fill:none;fill-rule:evenodd;stroke:#000;stroke-width:1pt" transform="matrix(.10373 -.10621 .12936 .08577 267.096 64.142)"/><path d="m425.197 620.079 70.866 88.582 70.866-88.582" style="font-size:12px;fill:none;fill-rule:evenodd;stroke:#000;stroke-width:1pt" transform="matrix(.10373 -.10621 .12936 .08577 267.096 64.142)"/><path d="m442.913 566.929 53.15 106.299 53.15-106.299" style="font-size:12px;fill:none;fill-rule:evenodd;stroke:#000;stroke-width:1pt" transform="matrix(.10373 -.10621 .12936 .08577 267.096 64.142)"/><path d="m496.063 549.213 17.717 70.866 35.433-53.15-17.717 88.583 35.433-35.433-35.433 88.582 35.433-35.433-35.433 88.583 35.433-35.433-35.433 106.299 35.433-35.433-35.433 106.299 35.433-35.433-35.433 106.299-17.716 53.151-17.717 17.72-17.717-17.72-17.716-53.151-35.433-106.299 35.433 35.433-35.433-106.299 35.433 35.433-35.433-106.299 35.433 35.433-35.433-88.583 35.433 35.433-35.433-88.582 35.433 35.433-17.717-88.583 35.433 53.15z" style="font-size:12px;fill:#006d00;fill-rule:evenodd;stroke:#fff;stroke-width:8.25;stroke-dasharray:none" transform="matrix(.0665 .12633 -.146 .06305 564.714 -24.518)"/><path d="M496.063 549.213v496.067m-70.866-177.17 70.866 106.299 70.866-106.299" style="font-size:12px;fill:none;fill-rule:evenodd;stroke:#000;stroke-width:1pt" transform="matrix(.0665 .12633 -.146 .06305 564.714 -24.518)"/><path d="m425.197 797.244 70.866 106.299 70.866-106.299" style="font-size:12px;fill:none;fill-rule:evenodd;stroke:#000;stroke-width:1pt" transform="matrix(.0665 .12633 -.146 .06305 564.714 -24.518)"/><path d="m425.197 726.378 70.866 106.299 70.866-106.299" style="font-size:12px;fill:none;fill-rule:evenodd;stroke:#000;stroke-width:1pt" transform="matrix(.0665 .12633 -.146 .06305 564.714 -24.518)"/><path d="m425.197 673.228 70.866 88.583 70.866-88.583" style="font-size:12px;fill:none;fill-rule:evenodd;stroke:#000;stroke-width:1pt" transform="matrix(.0665 .12633 -.146 .06305 564.714 -24.518)"/><path d="m425.197 620.079 70.866 88.582 70.866-88.582" style="font-size:12px;fill:none;fill-rule:evenodd;stroke:#000;stroke-width:1pt" transform="matrix(.0665 .12633 -.146 .06305 564.714 -24.518)"/><path d="m442.913 566.929 53.15 106.299 53.15-106.299" style="font-size:12px;fill:none;fill-rule:evenodd;stroke:#000;stroke-width:1pt" transform="matrix(.0665 .12633 -.146 .06305 564.714 -24.518)"/><path d="m496.063 549.213 17.717 70.866 35.433-53.15-17.717 88.583 35.433-35.433-35.433 88.582 35.433-35.433-35.433 88.583 35.433-35.433-35.433 106.299 35.433-35.433-35.433 106.299 35.433-35.433-35.433 106.299-17.716 53.151-17.717 17.72-17.717-17.72-17.716-53.151-35.433-106.299 35.433 35.433-35.433-106.299 35.433 35.433-35.433-106.299 35.433 35.433-35.433-88.583 35.433 35.433-35.433-88.582 35.433 35.433-17.717-88.583 35.433 53.15z" style="font-size:12px;fill:#006d00;fill-rule:evenodd;stroke:#fff;stroke-width:8.25;stroke-dasharray:none" transform="matrix(-.09189 .11398 -.13802 -.07516 637.412 125.238)"/><path d="M496.063 549.213v496.067m-70.866-177.17 70.866 106.299 70.866-106.299" style="font-size:12px;fill:none;fill-rule:evenodd;stroke:#000;stroke-width:1pt" transform="matrix(-.09189 .11398 -.13802 -.07516 637.412 125.238)"/><path d="m425.197 797.244 70.866 106.299 70.866-106.299" style="font-size:12px;fill:none;fill-rule:evenodd;stroke:#000;stroke-width:1pt" transform="matrix(-.09189 .11398 -.13802 -.07516 637.412 125.238)"/><path d="m425.197 726.378 70.866 106.299 70.866-106.299" style="font-size:12px;fill:none;fill-rule:evenodd;stroke:#000;stroke-width:1pt" transform="matrix(-.09189 .11398 -.13802 -.07516 637.412 125.238)"/><path d="m425.197 673.228 70.866 88.583 70.866-88.583" style="font-size:12px;fill:none;fill-rule:evenodd;stroke:#000;stroke-width:1pt" transform="matrix(-.09189 .11398 -.13802 -.07516 637.412 125.238)"/><path d="m425.197 620.079 70.866 88.582 70.866-88.582" style="font-size:12px;fill:none;fill-rule:evenodd;stroke:#000;stroke-width:1pt" transform="matrix(-.09189 .11398 -.13802 -.07516 637.412 125.238)"/><path d="m442.913 566.929 53.15 106.299 53.15-106.299" style="font-size:12px;fill:none;fill-rule:evenodd;stroke:#000;stroke-width:1pt" transform="matrix(-.09189 .11398 -.13802 -.07516 637.412 125.238)"/><path d="m496.063 549.213 17.717 70.866 35.433-53.15-17.717 88.583 35.433-35.433-35.433 88.582 35.433-35.433-35.433 88.583 35.433-35.433-35.433 106.299 35.433-35.433-35.433 106.299 35.433-35.433-35.433 106.299-17.716 53.151-17.717 17.72-17.717-17.72-17.716-53.151-35.433-106.299 35.433 35.433-35.433-106.299 35.433 35.433-35.433-106.299 35.433 35.433-35.433-88.583 35.433 35.433-35.433-88.582 35.433 35.433-17.717-88.583 35.433 53.15z" style="font-size:12px;fill:#006d00;fill-rule:evenodd;stroke:#fff;stroke-width:8.25;stroke-dasharray:none" transform="matrix(-.0911 -.09737 .10358 -.08861 385.46 241.427)"/><path d="M496.063 549.213v496.067m-70.866-177.17 70.866 106.299 70.866-106.299" style="font-size:12px;fill:none;fill-rule:evenodd;stroke:#000;stroke-width:1pt" transform="matrix(-.0911 -.09737 .10358 -.08861 385.46 241.427)"/><path d="m425.197 797.244 70.866 106.299 70.866-106.299" style="font-size:12px;fill:none;fill-rule:evenodd;stroke:#000;stroke-width:1pt" transform="matrix(-.0911 -.09737 .10358 -.08861 385.46 241.427)"/><path d="m425.197 726.378 70.866 106.299 70.866-106.299" style="font-size:12px;fill:none;fill-rule:evenodd;stroke:#000;stroke-width:1pt" transform="matrix(-.0911 -.09737 .10358 -.08861 385.46 241.427)"/><path d="m425.197 673.228 70.866 88.583 70.866-88.583" style="font-size:12px;fill:none;fill-rule:evenodd;stroke:#000;stroke-width:1pt" transform="matrix(-.0911 -.09737 .10358 -.08861 385.46 241.427)"/><path d="m425.197 620.079 70.866 88.582 70.866-88.582" style="font-size:12px;fill:none;fill-rule:evenodd;stroke:#000;stroke-width:1pt" transform="matrix(-.0911 -.09737 .10358 -.08861 385.46 241.427)"/><path d="m442.913 566.929 53.15 106.299 53.15-106.299" style="font-size:12px;fill:none;fill-rule:evenodd;stroke:#000;stroke-width:1pt" transform="matrix(-.0911 -.09737 .10358 -.08861 385.46 241.427)"/><path d="m460.63 549.213 28.643 70.866 42.223-53.15-10.184 88.583 27.9-35.433-17.716 88.582 25.249-35.433-25.249 88.583 35.433-35.433-35.433 106.299 35.433-35.433-35.433 106.299 35.433-35.433-35.433 106.299-17.716 53.151-17.717 17.72-17.717-17.72-17.716-53.151-35.433-106.299 35.433 35.433-35.433-106.299 35.433 35.433-35.433-106.299 35.433 35.433-45.617-88.583 45.617 35.433-53.15-88.582 42.966 35.433-25.25-88.583 35.433 53.15z" style="font-size:12px;fill:#006d00;fill-rule:evenodd;stroke:#fff;stroke-width:8.25" transform="matrix(-.15884 -.03748 -.09202 .11973 624.7 -9.546)"/><path d="m467.208 584.646 28.855 124.016v336.618" style="font-size:12px;fill:none;fill-rule:evenodd;stroke:#000;stroke-width:1pt" transform="matrix(-.15884 -.03748 -.09202 .11973 624.7 -9.546)"/><path d="m436.23 885.827 59.833 88.582 60.682-88.582" style="font-size:12px;fill:none;fill-rule:evenodd;stroke:#000;stroke-width:1pt" transform="matrix(-.15884 -.03748 -.09202 .11973 624.7 -9.546)"/><path d="m434.533 814.961 61.53 88.582 60.682-88.582" style="font-size:12px;fill:none;fill-rule:evenodd;stroke:#000;stroke-width:1pt" transform="matrix(-.15884 -.03748 -.09202 .11973 624.7 -9.546)"/><path d="m435.381 744.095 60.682 88.582 59.833-88.582" style="font-size:12px;fill:none;fill-rule:evenodd;stroke:#000;stroke-width:1pt" transform="matrix(-.15884 -.03748 -.09202 .11973 624.7 -9.546)"/><path d="m432.835 690.945 63.228 70.866 53.149-70.866" style="font-size:12px;fill:none;fill-rule:evenodd;stroke:#000;stroke-width:1pt" transform="matrix(-.15884 -.03748 -.09202 .11973 624.7 -9.546)"/><path d="m425.197 637.796 70.866 70.865 45.406-70.865" style="font-size:12px;fill:none;fill-rule:evenodd;stroke:#000;stroke-width:1pt" transform="matrix(-.15884 -.03748 -.09202 .11973 624.7 -9.546)"/><path d="m436.124 593.238 53.15 86.886 35.327-95.478" style="font-size:12px;fill:none;fill-rule:evenodd;stroke:#000;stroke-width:1pt" transform="matrix(-.15884 -.03748 -.09202 .11973 624.7 -9.546)"/><path d="m460.63 549.213 28.643 70.866 42.223-53.15-10.184 88.583 27.9-35.433-17.716 88.582 25.249-35.433-25.249 88.583 35.433-35.433-35.433 106.299 35.433-35.433-35.433 106.299 35.433-35.433-35.433 106.299-17.716 53.151-17.717 17.72-17.717-17.72-17.716-53.151-35.433-106.299 35.433 35.433-35.433-106.299 35.433 35.433-35.433-106.299 35.433 35.433-45.617-88.583 45.617 35.433-53.15-88.582 42.966 35.433-25.25-88.583 35.433 53.15z" style="font-size:12px;fill:#006d00;fill-rule:evenodd;stroke:#fff;stroke-width:8.25" transform="matrix(.15827 .03923 .0058 .1434 364.914 -71.766)"/><path d="m467.208 584.646 28.855 124.016v336.618" style="font-size:12px;fill:none;fill-rule:evenodd;stroke:#000;stroke-width:1pt" transform="matrix(.15827 .03923 .0058 .1434 364.914 -71.766)"/><path d="m436.23 885.827 59.833 88.582 60.682-88.582" style="font-size:12px;fill:none;fill-rule:evenodd;stroke:#000;stroke-width:1pt" transform="matrix(.15827 .03923 .0058 .1434 364.914 -71.766)"/><path d="m434.533 814.961 61.53 88.582 60.682-88.582" style="font-size:12px;fill:none;fill-rule:evenodd;stroke:#000;stroke-width:1pt" transform="matrix(.15827 .03923 .0058 .1434 364.914 -71.766)"/><path d="m435.381 744.095 60.682 88.582 59.833-88.582" style="font-size:12px;fill:none;fill-rule:evenodd;stroke:#000;stroke-width:1pt" transform="matrix(.15827 .03923 .0058 .1434 364.914 -71.766)"/><path d="m432.835 690.945 63.228 70.866 53.149-70.866" style="font-size:12px;fill:none;fill-rule:evenodd;stroke:#000;stroke-width:1pt" transform="matrix(.15827 .03923 .0058 .1434 364.914 -71.766)"/><path d="m425.197 637.796 70.866 70.865 45.406-70.865" style="font-size:12px;fill:none;fill-rule:evenodd;stroke:#000;stroke-width:1pt" transform="matrix(.15827 .03923 .0058 .1434 364.914 -71.766)"/><path d="m436.124 593.238 53.15 86.886 35.327-95.478" style="font-size:12px;fill:none;fill-rule:evenodd;stroke:#000;stroke-width:1pt" transform="matrix(.15827 .03923 .0058 .1434 364.914 -71.766)"/><path d="m354.331 531.496 88.583 88.583 17.716-53.149v88.582l35.433-35.433-17.716 88.583 35.432-35.434-17.716 88.584 35.433-35.433-17.716 106.299 35.433-35.433-35.433 106.299 35.433-35.433-17.717 106.298-17.716 53.151-17.717 17.72-17.717-17.72-17.716-53.151-53.15-82.294 35.434 11.429-35.433-106.299 35.433 35.433-53.15-106.299 35.433 35.433-53.15-88.584 53.15 35.434-70.866-88.583 53.149 35.433-70.866-70.866 70.866 35.433z" style="font-size:12px;fill:#006d00;fill-rule:evenodd;stroke:#fff;stroke-width:8.25" transform="matrix(.02023 -.13745 .14298 .02442 291.49 143.837)"/><path d="m378.962 560.015 63.952 95.497 17.716 53.15 8.859 45.205 8.858 78.811 9.315 70.866 8.401 141.736" style="font-size:12px;fill:none;fill-rule:evenodd;stroke:#000;stroke-width:1pt" transform="matrix(.02023 -.13745 .14298 .02442 291.49 143.837)"/><path d="m425.197 903.544 63.665 70.866 50.749-88.583" style="font-size:12px;fill:none;fill-rule:evenodd;stroke:#000;stroke-width:1pt" transform="matrix(.02023 -.13745 .14298 .02442 291.49 143.837)"/><path d="m417.082 814.961 70.579 88.583 50.75-88.583" style="font-size:12px;fill:none;fill-rule:evenodd;stroke:#000;stroke-width:1pt" transform="matrix(.02023 -.13745 .14298 .02442 291.49 143.837)"/><path d="m407.48 752.443 70.867 80.235 45.948-88.583M372.047 637.796l88.583 70.866 25.831-70.866" style="font-size:12px;fill:none;fill-rule:evenodd;stroke:#000;stroke-width:1pt" transform="matrix(.02023 -.13745 .14298 .02442 291.49 143.837)"/><path d="m360.618 602.363 82.296 53.149 10.515-53.149m-63.665 88.582 81.095 70.866 33.946-70.866" style="font-size:12px;fill:none;fill-rule:evenodd;stroke:#000;stroke-width:1pt" transform="matrix(.02023 -.13745 .14298 .02442 291.49 143.837)"/><path d="m52.504 257.674 98.536-17.68 102.642 17.68-47.626 19.801-87.861 1.415z" style="fill:#9d9d9d;fill-opacity:1;fill-rule:evenodd;stroke:#000;stroke-width:1.00763929px;stroke-linecap:butt;stroke-linejoin:miter;stroke-opacity:1" transform="translate(412 157.18)scale(.25333)"/><path d="M151.789 98.445c-17.223 5.987-36.302-8.425-67.36 15.094 0 0-54.143-23.163-58.256 30.37-.165 2.168 8.57 15.224 9.786 14.29 6.804-5.223-3.23 5.073-3.23 6.56 0 1.501.998 2.334 1.335 2.995.33.667 1.163 1.665 1.329 4.494s-6.137 10.544-3.474 13.372c2.657 2.829 2.822 10.984 2.822 13.31s1.666 8.817 2.829 10.152c1.163 1.328 3.16 4.653 3.16 7.481 0 2.83 1.162 10.647.66 12.637-.496 1.996 2.994 4.494 6.16 5.492 3.159.998 43.935 1.706 101.162.708 57.233-.998 76.328 8.057 99.974-.543 3.655-1.328 4.322-4.322 3.992-5.988-.337-1.659 0-6.979.998-8.314.998-1.328 7.653-11.975 6.318-13.971 1.256-1.134 10.59 5.39 4.645-.436-1.524-1.493.853-17.216 1.673-20.528.827-3.318 2.096-9.55 3.621-10.706 1.532-1.157-2.598-5.488-2.305-6.27.298-.788 1.41-3.229 2.962-4.341 0 0 2.885-13.527 1.106-20.176-1.767-6.655-8.27-36.583-48.862-30.588 0 0-54.34-20.9-71.045-15.094z" style="font-size:12px;fill:#c00;fill-opacity:1;stroke:#000;stroke-width:1.62866855;stroke-miterlimit:4;stroke-dasharray:none;stroke-opacity:1" transform="translate(412 157.18)scale(.25333)"/><g style="stroke-width:1.2411145;stroke-miterlimit:4;stroke-dasharray:none"><path d="M49.75.125c-5.093.89-15.156 29.245-12.61 38.75 1.764 6.58 4.499 11.12 6.047 13.906-3.404-4.685-11.382-13.75-22.25-13.75-13.663 0-15.43 29.948-15.093 31.875.001.007-.002.026 0 .031.001.005.03.028.031.032h.031c.613-.715 6.142-13.094 19.657-13.094 8.896 0 15.829 7.035 18.375 10.031-.001.945.022 1.858.03 2.781-2.003 2.829-3.28 9.532-9.468 17.97C27.023 98.851 4.128 99.896.28 100h49.532c.047 0 .109.003.156 0 .022.002.04-.001.062 0 .047.003.11 0 .157 0h49.53c-3.846-.103-27.179-1.148-34.655-11.344-6.188-8.437-7.028-15.14-9.032-17.969.009-.923.032-1.836.032-2.78 2.545-2.997 9.478-10.032 18.374-10.032 13.515 0 19.044 12.38 19.657 13.094h.031c.002-.004.03-.027.031-.031.002-.006-.001-.025 0-.032.337-1.927-1.43-31.875-15.094-31.875-10.867 0-18.845 9.065-22.25 13.75 1.55-2.786 4.29-8.575 5.72-13.906C65.117 29.219 55.091.132 50 .125c-.08 0-.17-.014-.25 0zm-6.437 52.844c.352.49.662.912.906 1.281.005.008.541 2.977.547 2.984-.003.064 2.627 10.186 2.624 10.25-.264-.392-3.737-13.915-4.078-14.515zm13.374 0c-.34.6-4.032 14.123-4.296 14.515-.003-.064 3.393-13.139 3.39-13.203 0-.01-.437 2.964-.437 2.953.244-.369.991-3.775 1.343-4.265z" style="fill:#f7d917;fill-opacity:1;fill-rule:evenodd;stroke:#000;stroke-width:1.2411145;stroke-linecap:butt;stroke-linejoin:miter;stroke-miterlimit:4;stroke-dasharray:none;stroke-opacity:1" transform="matrix(.1367 -.01227 .0246 .1999 426.047 191.451)"/><path d="M42 67.578s4-1.86 8-1.86 8 1.86 8 1.86v4.953s-4-1.86-8-1.86-8 1.86-8 1.86z" style="fill:#f7d917;fill-opacity:1;fill-rule:evenodd;stroke:#000;stroke-width:1.2411145;stroke-linecap:butt;stroke-linejoin:miter;stroke-miterlimit:4;stroke-dasharray:none;stroke-opacity:1" transform="matrix(.1367 -.01227 .0246 .1999 426.047 191.451)"/></g><g style="stroke-width:1.24111438;stroke-miterlimit:4;stroke-dasharray:none"><path d="M49.75.125c-5.093.89-15.156 29.245-12.61 38.75 1.764 6.58 4.499 11.12 6.047 13.906-3.404-4.685-11.382-13.75-22.25-13.75-13.663 0-15.43 29.948-15.093 31.875.001.007-.002.026 0 .031.001.005.03.028.031.032h.031c.613-.715 6.142-13.094 19.657-13.094 8.896 0 15.829 7.035 18.375 10.031-.001.945.022 1.858.03 2.781-2.003 2.829-3.28 9.532-9.468 17.97C27.023 98.851 4.128 99.896.28 100h49.532c.047 0 .109.003.156 0 .022.002.04-.001.062 0 .047.003.11 0 .157 0h49.53c-3.846-.103-27.179-1.148-34.655-11.344-6.188-8.437-7.028-15.14-9.032-17.969.009-.923.032-1.836.032-2.78 2.545-2.997 9.478-10.032 18.374-10.032 13.515 0 19.044 12.38 19.657 13.094h.031c.002-.004.03-.027.031-.031.002-.006-.001-.025 0-.032.337-1.927-1.43-31.875-15.094-31.875-10.867 0-18.845 9.065-22.25 13.75 1.55-2.786 4.29-8.575 5.72-13.906C65.117 29.219 55.091.132 50 .125c-.08 0-.17-.014-.25 0zm-6.437 52.844c.352.49.662.912.906 1.281.005.008.541 2.977.547 2.984-.003.064 2.627 10.186 2.624 10.25-.264-.392-3.737-13.915-4.078-14.515zm13.374 0c-.34.6-4.032 14.123-4.296 14.515-.003-.064 3.393-13.139 3.39-13.203 0-.01-.437 2.964-.437 2.953.244-.369.991-3.775 1.343-4.265z" style="fill:#f7d917;fill-opacity:1;fill-rule:evenodd;stroke:#000;stroke-width:1.24111438;stroke-linecap:butt;stroke-linejoin:miter;stroke-miterlimit:4;stroke-dasharray:none;stroke-opacity:1" transform="matrix(.13626 .01642 -.0175 .20066 460.215 190.364)"/><path d="M42 67.578s4-1.86 8-1.86 8 1.86 8 1.86v4.953s-4-1.86-8-1.86-8 1.86-8 1.86z" style="fill:#f7d917;fill-opacity:1;fill-rule:evenodd;stroke:#000;stroke-width:1.24111438;stroke-linecap:butt;stroke-linejoin:miter;stroke-miterlimit:4;stroke-dasharray:none;stroke-opacity:1" transform="matrix(.13626 .01642 -.0175 .20066 460.215 190.364)"/></g><path d="m24.308 134.56 9.69-11.814s.903 1.168 0 0C14.132 97.065 13.128 82.331 15.363 74.87c2.236-7.461 6.709-15.544 18.635-25.493s20.156-4.419 31.336-4.419 14.163 2.487 23.852 3.73c9.69 1.244 35.778 2.488 35.778 2.488v-6.84s1.029.192 0 0c-11.518-2.147-26.088 0-35.778-2.487s-17.889-3.108-28.324-3.108-17.92-3.043-24.628 1.31c-6.709 4.352-14.908 11.813-20.87 18.031C9.4 64.3 6.418 76.735 7.163 84.818s3.727 14.923 8.2 21.14 3.726 11.192 5.217 15.544 3.727 13.68 3.727 13.058zm214.947 0-9.69-11.814s-.904 1.168 0 0c19.865-25.681 20.87-40.415 18.634-47.876s-6.708-15.544-18.634-25.493-20.156-4.419-31.337-4.419c-11.18 0-14.162 2.487-23.852 3.73-9.69 1.244-35.778 2.488-35.778 2.488v-6.84s-1.029.192 0 0c11.519-2.147 26.088 0 35.778-2.487s17.89-3.108 28.324-3.108c10.436 0 17.92-3.043 24.629 1.31s14.907 11.813 20.87 18.031 8.945 18.653 8.2 26.736-3.728 14.923-8.2 21.14-3.727 11.192-5.217 15.544c-1.491 4.353-3.727 13.68-3.727 13.058z" style="fill:#f7d917;fill-opacity:1;fill-rule:evenodd;stroke:#000;stroke-width:.71481037;stroke-linecap:butt;stroke-linejoin:miter;stroke-miterlimit:4;stroke-dasharray:none;stroke-opacity:1" transform="translate(413.752 163.796)scale(.27506)"/><path d="M115.553 38.701h34.563v70.894h-34.563z" style="fill:#f7d917;fill-opacity:1;fill-rule:evenodd;stroke:#000;stroke-width:.83496058;stroke-linecap:butt;stroke-linejoin:miter;stroke-miterlimit:4;stroke-dasharray:none;stroke-opacity:1" transform="translate(413.752 163.796)scale(.27506)"/><path d="M119.684-15.8s3.72 3.03 6.575 6.923 4.846 8.652 4.846 8.652-4.759-1.99-8.652-4.846c-3.894-2.855-6.922-6.575-6.922-6.575v26.302s3.028-3.72 6.922-6.575 8.652-4.846 8.652-4.846-1.534 3.927-2.524 8.653c-.891 4.25-8.183 14.064-8.183 14.064l21.303 1.429s-3.542-11.243-4.969-15.493c-1.536-4.578-2.167-8.653-2.167-8.653s4.76 1.99 8.653 4.846 6.921 6.575 6.921 6.575v-26.302s-3.028 3.72-6.921 6.575-8.653 4.846-8.653 4.846 1.99-4.759 4.846-8.652c2.855-3.894 6.575-6.922 6.575-6.922z" style="fill:#f7d917;fill-opacity:1;fill-rule:evenodd;stroke:#000;stroke-width:.5;stroke-linecap:butt;stroke-linejoin:miter;stroke-miterlimit:4;stroke-dasharray:none;stroke-opacity:1" transform="translate(413.752 161.595)scale(.27506)"/><path d="M150 23.076a17.143 17.143 0 1 1-34.286 0 17.143 17.143 0 1 1 34.286 0z" style="fill:#f7d917;fill-opacity:1;fill-rule:evenodd;stroke:#000;stroke-width:.75;stroke-linecap:butt;stroke-linejoin:miter;stroke-miterlimit:4;stroke-dasharray:none;stroke-opacity:1" transform="translate(413.746 163.796)scale(.27506)"/><path d="M116.074 33.535h34.102s.494-6.596-1.974-9.064h-10.595l-.178-9.888h-10.042l-.179 9.888s-7.127.357-10.41.357c-1.49 4.041-1.26 4.38-1.26 4.38z" style="fill:#f7d917;fill-opacity:1;fill-rule:evenodd;stroke:#000;stroke-width:.5;stroke-linecap:butt;stroke-linejoin:miter;stroke-miterlimit:4;stroke-dasharray:none;stroke-opacity:1" transform="translate(413.752 161.595)scale(.27506)"/><path d="M110.877 107.22s6.212 5.057 10.979 11.558 8.09 14.446 8.09 14.446-7.946-3.323-14.446-8.09c-6.501-4.767-11.557-10.979-11.557-10.979v43.916s5.056-6.211 11.557-10.979c6.5-4.767 14.446-8.09 14.446-8.09s-3.323 7.946-8.09 14.447-10.98 11.557-10.98 11.557h43.917s-6.212-5.057-10.979-11.557c-4.767-6.501-8.09-14.447-8.09-14.447s7.946 3.323 14.446 8.09c6.501 4.768 11.557 10.98 11.557 10.98v-43.917s-5.056 6.212-11.557 10.98c-6.5 4.766-14.446 8.089-14.446 8.089s3.323-7.945 8.09-14.446 10.98-11.557 10.98-11.557zM27.24 181.78l21.625-3.813s-6.995-3.9-12.82-9.475c-5.823-5.574-10.475-12.822-10.475-12.822s8.402 1.892 15.632 5.458 13.288 8.806 13.288 8.806l-7.626-43.25s-3.9 6.996-9.475 12.82-12.822 10.475-12.822 10.475 1.892-8.401 5.458-15.631 8.806-13.288 8.806-13.288l-21.625 3.813zm199.6-60.72s5.239 6.058 8.805 13.288 5.458 15.631 5.458 15.631-7.248-4.651-12.822-10.475-9.475-12.82-9.475-12.82l-7.626 43.25s6.058-5.24 13.288-8.806 15.632-5.458 15.632-5.458-4.652 7.248-10.476 12.822c-5.823 5.574-12.819 9.475-12.819 9.475l21.625 3.813 10.034-56.907z" style="fill:#f7d917;fill-opacity:1;fill-rule:evenodd;stroke:#000;stroke-width:.75;stroke-linecap:butt;stroke-linejoin:miter;stroke-miterlimit:4;stroke-dasharray:none;stroke-opacity:1" transform="translate(413.752 163.796)scale(.27506)"/><path d="m27.464 179.533.15 31.506s52.648-17.928 105.296-17.928 105.296 17.928 105.296 17.928v-31.506s-52.685-17.929-105.37-17.929c-52.687 0-105.372 17.929-105.372 17.929z" style="fill:#f7d917;fill-opacity:1;fill-rule:evenodd;stroke:#000;stroke-width:.75;stroke-linecap:butt;stroke-linejoin:miter;stroke-miterlimit:4;stroke-dasharray:none;stroke-opacity:1" transform="translate(413.752 163.796)scale(.27506)"/><path d="M2.02 723.052a12.122 12.122 0 1 1-24.243 0 12.122 12.122 0 1 1 24.243 0z" style="fill:#fff;fill-opacity:1;fill-rule:evenodd;stroke:#000;stroke-width:1.5;stroke-linecap:butt;stroke-linejoin:miter;stroke-miterlimit:4;stroke-dasharray:none;stroke-opacity:1" transform="translate(419.596 64.685)scale(.18188)"/><path d="M2.02 723.052a12.122 12.122 0 1 1-24.243 0 12.122 12.122 0 1 1 24.243 0z" style="fill:#fff;fill-opacity:1;fill-rule:evenodd;stroke:#000;stroke-width:1.5;stroke-linecap:butt;stroke-linejoin:miter;stroke-miterlimit:4;stroke-dasharray:none;stroke-opacity:1" transform="translate(416.768 59.656)scale(.18188)"/><path d="M2.02 723.052a12.122 12.122 0 1 1-24.243 0 12.122 12.122 0 1 1 24.243 0z" style="fill:#fff;fill-opacity:1;fill-rule:evenodd;stroke:#000;stroke-width:1.5;stroke-linecap:butt;stroke-linejoin:miter;stroke-miterlimit:4;stroke-dasharray:none;stroke-opacity:1" transform="translate(416.178 53.762)scale(.18188)"/><path d="M2.02 723.052a12.122 12.122 0 1 1-24.243 0 12.122 12.122 0 1 1 24.243 0z" style="fill:#fff;fill-opacity:1;fill-rule:evenodd;stroke:#000;stroke-width:1.5;stroke-linecap:butt;stroke-linejoin:miter;stroke-miterlimit:4;stroke-dasharray:none;stroke-opacity:1" transform="translate(417.947 48.26)scale(.18188)"/><path d="M2.02 723.052a12.122 12.122 0 1 1-24.243 0 12.122 12.122 0 1 1 24.243 0z" style="fill:#fff;fill-opacity:1;fill-rule:evenodd;stroke:#000;stroke-width:1.5;stroke-linecap:butt;stroke-linejoin:miter;stroke-miterlimit:4;stroke-dasharray:none;stroke-opacity:1" transform="translate(421.68 43.742)scale(.18188)"/><path d="M2.02 723.052a12.122 12.122 0 1 1-24.243 0 12.122 12.122 0 1 1 24.243 0z" style="fill:#fff;fill-opacity:1;fill-rule:evenodd;stroke:#000;stroke-width:1.5;stroke-linecap:butt;stroke-linejoin:miter;stroke-miterlimit:4;stroke-dasharray:none;stroke-opacity:1" transform="translate(426.788 40.598)scale(.18188)"/><path d="M2.02 723.052a12.122 12.122 0 1 1-24.243 0 12.122 12.122 0 1 1 24.243 0z" style="fill:#fff;fill-opacity:1;fill-rule:evenodd;stroke:#000;stroke-width:1.5;stroke-linecap:butt;stroke-linejoin:miter;stroke-miterlimit:4;stroke-dasharray:none;stroke-opacity:1" transform="translate(432.486 40.991)scale(.18188)"/><path d="M2.02 723.052a12.122 12.122 0 1 1-24.243 0 12.122 12.122 0 1 1 24.243 0z" style="fill:#fff;fill-opacity:1;fill-rule:evenodd;stroke:#000;stroke-width:1.5;stroke-linecap:butt;stroke-linejoin:miter;stroke-miterlimit:4;stroke-dasharray:none;stroke-opacity:1" transform="translate(438.184 41.934)scale(.18188)"/><path d="M2.02 723.052a12.122 12.122 0 1 1-24.243 0 12.122 12.122 0 1 1 24.243 0z" style="fill:#fff;fill-opacity:1;fill-rule:evenodd;stroke:#000;stroke-width:1.5;stroke-linecap:butt;stroke-linejoin:miter;stroke-miterlimit:4;stroke-dasharray:none;stroke-opacity:1" transform="translate(443.881 42.524)scale(.18188)"/><path d="M2.02 723.052a12.122 12.122 0 1 1-24.243 0 12.122 12.122 0 1 1 24.243 0z" style="fill:#fff;fill-opacity:1;fill-rule:evenodd;stroke:#000;stroke-width:1.5;stroke-linecap:butt;stroke-linejoin:miter;stroke-miterlimit:4;stroke-dasharray:none;stroke-opacity:1" transform="matrix(-.18188 0 0 .18188 480.404 64.685)"/><path d="M2.02 723.052a12.122 12.122 0 1 1-24.243 0 12.122 12.122 0 1 1 24.243 0z" style="fill:#fff;fill-opacity:1;fill-rule:evenodd;stroke:#000;stroke-width:1.5;stroke-linecap:butt;stroke-linejoin:miter;stroke-miterlimit:4;stroke-dasharray:none;stroke-opacity:1" transform="matrix(-.18188 0 0 .18188 483.232 59.656)"/><path d="M2.02 723.052a12.122 12.122 0 1 1-24.243 0 12.122 12.122 0 1 1 24.243 0z" style="fill:#fff;fill-opacity:1;fill-rule:evenodd;stroke:#000;stroke-width:1.5;stroke-linecap:butt;stroke-linejoin:miter;stroke-miterlimit:4;stroke-dasharray:none;stroke-opacity:1" transform="matrix(-.18188 0 0 .18188 483.821 53.762)"/><path d="M2.02 723.052a12.122 12.122 0 1 1-24.243 0 12.122 12.122 0 1 1 24.243 0z" style="fill:#fff;fill-opacity:1;fill-rule:evenodd;stroke:#000;stroke-width:1.5;stroke-linecap:butt;stroke-linejoin:miter;stroke-miterlimit:4;stroke-dasharray:none;stroke-opacity:1" transform="matrix(-.18188 0 0 .18188 482.053 48.26)"/><path d="M2.02 723.052a12.122 12.122 0 1 1-24.243 0 12.122 12.122 0 1 1 24.243 0z" style="fill:#fff;fill-opacity:1;fill-rule:evenodd;stroke:#000;stroke-width:1.5;stroke-linecap:butt;stroke-linejoin:miter;stroke-miterlimit:4;stroke-dasharray:none;stroke-opacity:1" transform="matrix(-.18188 0 0 .18188 478.32 43.742)"/><path d="M2.02 723.052a12.122 12.122 0 1 1-24.243 0 12.122 12.122 0 1 1 24.243 0z" style="fill:#fff;fill-opacity:1;fill-rule:evenodd;stroke:#000;stroke-width:1.5;stroke-linecap:butt;stroke-linejoin:miter;stroke-miterlimit:4;stroke-dasharray:none;stroke-opacity:1" transform="matrix(-.18188 0 0 .18188 473.212 40.598)"/><path d="M2.02 723.052a12.122 12.122 0 1 1-24.243 0 12.122 12.122 0 1 1 24.243 0z" style="fill:#fff;fill-opacity:1;fill-rule:evenodd;stroke:#000;stroke-width:1.5;stroke-linecap:butt;stroke-linejoin:miter;stroke-miterlimit:4;stroke-dasharray:none;stroke-opacity:1" transform="matrix(-.18188 0 0 .18188 467.514 40.991)"/><path d="M2.02 723.052a12.122 12.122 0 1 1-24.243 0 12.122 12.122 0 1 1 24.243 0z" style="fill:#fff;fill-opacity:1;fill-rule:evenodd;stroke:#000;stroke-width:1.5;stroke-linecap:butt;stroke-linejoin:miter;stroke-miterlimit:4;stroke-dasharray:none;stroke-opacity:1" transform="matrix(-.18188 0 0 .18188 461.816 41.934)"/><path d="M2.02 723.052a12.122 12.122 0 1 1-24.243 0 12.122 12.122 0 1 1 24.243 0z" style="fill:#fff;fill-opacity:1;fill-rule:evenodd;stroke:#000;stroke-width:1.5;stroke-linecap:butt;stroke-linejoin:miter;stroke-miterlimit:4;stroke-dasharray:none;stroke-opacity:1" transform="matrix(-.18188 0 0 .18188 456.119 42.524)"/><path d="M2.02 723.052a12.122 12.122 0 1 1-24.243 0 12.122 12.122 0 1 1 24.243 0z" style="fill:#fff;fill-opacity:1;fill-rule:evenodd;stroke:#000;stroke-width:1.5;stroke-linecap:butt;stroke-linejoin:miter;stroke-miterlimit:4;stroke-dasharray:none;stroke-opacity:1" transform="translate(452.127 59.734)scale(.18188)"/><path d="M2.02 723.052a12.122 12.122 0 1 1-24.243 0 12.122 12.122 0 1 1 24.243 0z" style="fill:#fff;fill-opacity:1;fill-rule:evenodd;stroke:#000;stroke-width:1.5;stroke-linecap:butt;stroke-linejoin:miter;stroke-miterlimit:4;stroke-dasharray:none;stroke-opacity:1" transform="translate(452.127 55.805)scale(.18188)"/><path d="M2.02 723.052a12.122 12.122 0 1 1-24.243 0 12.122 12.122 0 1 1 24.243 0z" style="fill:#fff;fill-opacity:1;fill-rule:evenodd;stroke:#000;stroke-width:1.5;stroke-linecap:butt;stroke-linejoin:miter;stroke-miterlimit:4;stroke-dasharray:none;stroke-opacity:1" transform="translate(452.127 52.662)scale(.18188)"/><path d="M2.02 723.052a12.122 12.122 0 1 1-24.243 0 12.122 12.122 0 1 1 24.243 0z" style="fill:#fff;fill-opacity:1;fill-rule:evenodd;stroke:#000;stroke-width:1.5;stroke-linecap:butt;stroke-linejoin:miter;stroke-miterlimit:4;stroke-dasharray:none;stroke-opacity:1" transform="translate(452.127 49.793)scale(.18188)"/><path d="M2.02 723.052a12.122 12.122 0 1 1-24.243 0 12.122 12.122 0 1 1 24.243 0z" style="fill:#fff;fill-opacity:1;fill-rule:evenodd;stroke:#000;stroke-width:1.5;stroke-linecap:butt;stroke-linejoin:miter;stroke-miterlimit:4;stroke-dasharray:none;stroke-opacity:1" transform="translate(452.127 40.598)scale(.18188)"/><path d="M2.02 723.052a12.122 12.122 0 1 1-24.243 0 12.122 12.122 0 1 1 24.243 0z" style="fill:#fff;fill-opacity:1;fill-rule:evenodd;stroke:#000;stroke-width:1.5;stroke-linecap:butt;stroke-linejoin:miter;stroke-miterlimit:4;stroke-dasharray:none;stroke-opacity:1" transform="translate(452.127 40.991)scale(.18188)"/><path d="M2.02 723.052a12.122 12.122 0 1 1-24.243 0 12.122 12.122 0 1 1 24.243 0z" style="fill:#fff;fill-opacity:1;fill-rule:evenodd;stroke:#000;stroke-width:1.5;stroke-linecap:butt;stroke-linejoin:miter;stroke-miterlimit:4;stroke-dasharray:none;stroke-opacity:1" transform="translate(452.127 43.034)scale(.18188)"/><path d="M2.02 723.052a12.122 12.122 0 1 1-24.243 0 12.122 12.122 0 1 1 24.243 0z" style="fill:#fff;fill-opacity:1;fill-rule:evenodd;stroke:#000;stroke-width:1.5;stroke-linecap:butt;stroke-linejoin:miter;stroke-miterlimit:4;stroke-dasharray:none;stroke-opacity:1" transform="translate(452.127 45.824)scale(.18188)"/><path d="M143.571 136.29a10.357 10.357 0 1 1-20.714 0 10.357 10.357 0 1 1 20.714 0z" style="opacity:1;fill:#fff;fill-opacity:1;fill-rule:evenodd;stroke:#000;stroke-width:1;stroke-linecap:butt;stroke-linejoin:miter;stroke-miterlimit:4;stroke-dasharray:none;stroke-opacity:1" transform="translate(413.626 163.246)scale(.27506)"/><path d="M143.571 136.29a10.357 10.357 0 1 1-20.714 0 10.357 10.357 0 1 1 20.714 0z" style="opacity:1;fill:#fff;fill-opacity:1;fill-rule:evenodd;stroke:#000;stroke-width:1;stroke-linecap:butt;stroke-linejoin:miter;stroke-miterlimit:4;stroke-dasharray:none;stroke-opacity:1" transform="translate(383.848 168.413)scale(.27506)"/><path d="M143.571 136.29a10.357 10.357 0 1 1-20.714 0 10.357 10.357 0 1 1 20.714 0z" style="opacity:1;fill:#fff;fill-opacity:1;fill-rule:evenodd;stroke:#000;stroke-width:1;stroke-linecap:butt;stroke-linejoin:miter;stroke-miterlimit:4;stroke-dasharray:none;stroke-opacity:1" transform="translate(443.262 168.413)scale(.27506)"/><path d="M134.791 210.096h34.762v15.153h-34.762z" style="fill:#002b7f;fill-opacity:1;fill-rule:evenodd;stroke:#000;stroke-width:.84141195;stroke-linecap:butt;stroke-linejoin:miter;stroke-miterlimit:4;stroke-dasharray:none;stroke-opacity:1" transform="translate(412 157.18)scale(.25333)"/><path d="M16.043 233.11a22.995 8.556 0 1 1-45.99 0 22.995 8.556 0 1 1 45.99 0z" style="fill:#3e8225;fill-opacity:1;fill-rule:evenodd;stroke:#000;stroke-width:1.5;stroke-linecap:butt;stroke-linejoin:miter;stroke-miterlimit:4;stroke-dasharray:none;stroke-opacity:1" transform="matrix(-.1718 -.01744 .00604 .24262 461.52 156.97)"/><path d="m36.937 229.285-8.71 8.71 10.102 5.831 23.493-6.294-4.187-13.304zm230.469 0 8.71 8.71-10.102 5.831-23.493-6.294 4.187-13.304z" style="fill:#c00;fill-opacity:1;fill-rule:evenodd;stroke:#000;stroke-width:1.08577895px;stroke-linecap:butt;stroke-linejoin:miter;stroke-opacity:1" transform="translate(412 157.18)scale(.25333)"/><path d="M16.043 233.11a22.995 8.556 0 1 1-45.99 0 22.995 8.556 0 1 1 45.99 0z" style="fill:#3e8225;fill-opacity:1;fill-rule:evenodd;stroke:#000;stroke-width:1.5;stroke-linecap:butt;stroke-linejoin:miter;stroke-miterlimit:4;stroke-dasharray:none;stroke-opacity:1" transform="matrix(.1718 -.01744 -.00604 .24262 439.58 156.97)"/><path d="M126.203 214.704a4.278 4.278 0 1 1-8.556 0 4.278 4.278 0 1 1 8.556 0z" style="fill:#fff;fill-opacity:1;fill-rule:evenodd;stroke:#000;stroke-width:.69999999;stroke-linecap:butt;stroke-linejoin:miter;stroke-miterlimit:4;stroke-dasharray:none;stroke-opacity:1" transform="translate(412.27 156.3)scale(.25333)"/><path d="M126.203 214.704a4.278 4.278 0 1 1-8.556 0 4.278 4.278 0 1 1 8.556 0z" style="fill:#fff;fill-opacity:1;fill-rule:evenodd;stroke:#000;stroke-width:.69999999;stroke-linecap:butt;stroke-linejoin:miter;stroke-miterlimit:4;stroke-dasharray:none;stroke-opacity:1" transform="translate(412.61 159.755)scale(.25333)"/><path d="M126.203 214.704a4.278 4.278 0 1 1-8.556 0 4.278 4.278 0 1 1 8.556 0z" style="fill:#fff;fill-opacity:1;fill-rule:evenodd;stroke:#000;stroke-width:.69999999;stroke-linecap:butt;stroke-linejoin:miter;stroke-miterlimit:4;stroke-dasharray:none;stroke-opacity:1" transform="translate(398.724 158.739)scale(.25333)"/><path d="M126.203 214.704a4.278 4.278 0 1 1-8.556 0 4.278 4.278 0 1 1 8.556 0z" style="fill:#fff;fill-opacity:1;fill-rule:evenodd;stroke:#000;stroke-width:.69999999;stroke-linecap:butt;stroke-linejoin:miter;stroke-miterlimit:4;stroke-dasharray:none;stroke-opacity:1" transform="translate(400.078 161.99)scale(.25333)"/><path d="M126.203 214.704a4.278 4.278 0 1 1-8.556 0 4.278 4.278 0 1 1 8.556 0z" style="fill:#fff;fill-opacity:1;fill-rule:evenodd;stroke:#000;stroke-width:.69999999;stroke-linecap:butt;stroke-linejoin:miter;stroke-miterlimit:4;stroke-dasharray:none;stroke-opacity:1" transform="matrix(-.25333 0 0 .25333 488.779 156.3)"/><path d="M126.203 214.704a4.278 4.278 0 1 1-8.556 0 4.278 4.278 0 1 1 8.556 0z" style="fill:#fff;fill-opacity:1;fill-rule:evenodd;stroke:#000;stroke-width:.69999999;stroke-linecap:butt;stroke-linejoin:miter;stroke-miterlimit:4;stroke-dasharray:none;stroke-opacity:1" transform="matrix(-.25333 0 0 .25333 488.44 159.755)"/><path d="M126.203 214.704a4.278 4.278 0 1 1-8.556 0 4.278 4.278 0 1 1 8.556 0z" style="fill:#fff;fill-opacity:1;fill-rule:evenodd;stroke:#000;stroke-width:.69999999;stroke-linecap:butt;stroke-linejoin:miter;stroke-miterlimit:4;stroke-dasharray:none;stroke-opacity:1" transform="matrix(-.25333 0 0 .25333 502.326 158.739)"/><path d="M126.203 214.704a4.278 4.278 0 1 1-8.556 0 4.278 4.278 0 1 1 8.556 0z" style="fill:#fff;fill-opacity:1;fill-rule:evenodd;stroke:#000;stroke-width:.69999999;stroke-linecap:butt;stroke-linejoin:miter;stroke-miterlimit:4;stroke-dasharray:none;stroke-opacity:1" transform="matrix(-.25333 0 0 .25333 500.971 161.99)"/><path d="M238.538 280.603c3.267-.567 22.977-5.253 27.127-7.76-2.678-4.828-7.484-8.605-3.744-7.018 2.014.855 3.607-5.799-2.24-10.885-16.972 5.567-57.679 15.739-108.828 15.739-52.344 0-93.562-10.707-110.535-16.273-5.846 5.086-4.025 10.864-4.378 13.023-.003.017.003 2.725 1.07 4.88 5.753 6.25 24.393 9.331 27.66 9.899 15.353 2.666 30.706 6.697 86.15 6.697 51.288 0 72.365-5.635 87.718-8.302z" style="font-size:12px;fill:#fff;fill-opacity:1;stroke:#000;stroke-width:1.71374691;stroke-miterlimit:4;stroke-dasharray:none;stroke-opacity:1" transform="translate(412 157.18)scale(.25333)"/><path d="M132.906 289.655c-3.01.523-22.147 7.3-25.969 9.61.004.014-.002.045 0 .06.326 1.99-3.321 11.252 2.063 15.936 15.632-5.127 59.525-20.406 106.634-20.406 48.209 0 88.14 15.279 103.772 20.406 5.384-4.684 1.737-13.947 2.063-15.935.003-.016-.004-.047 0-.061-3.822-2.31-22.96-9.087-25.969-9.61-14.14-2.455-28.772-11.586-79.835-11.586-47.237 0-68.62 9.13-82.759 11.586z" style="font-size:12px;fill:#fff;fill-opacity:1;stroke:#000;stroke-width:1.57835698;stroke-miterlimit:4;stroke-dasharray:none;stroke-opacity:1" transform="translate(391.394 139.673)scale(.27506)"/><path d="M115.508 301.56a1.872 1.872 0 1 1-3.743 0 1.872 1.872 0 1 1 3.743 0z" style="opacity:1;fill:#000;fill-opacity:1;fill-rule:evenodd;stroke:#000;stroke-width:1.60000002;stroke-linecap:butt;stroke-linejoin:miter;stroke-miterlimit:4;stroke-dasharray:none;stroke-opacity:1" transform="matrix(.19025 -.01968 .0215 .17422 395.712 172.242)"/><path d="M115.508 301.56a1.872 1.872 0 1 1-3.743 0 1.872 1.872 0 1 1 3.743 0z" style="opacity:1;fill:#000;fill-opacity:1;fill-rule:evenodd;stroke:#000;stroke-width:1.60000002;stroke-linecap:butt;stroke-linejoin:miter;stroke-miterlimit:4;stroke-dasharray:none;stroke-opacity:1" transform="matrix(.19025 -.01968 .0215 .17422 395.306 173.134)"/><path d="M115.508 301.56a1.872 1.872 0 1 1-3.743 0 1.872 1.872 0 1 1 3.743 0z" style="opacity:1;fill:#000;fill-opacity:1;fill-rule:evenodd;stroke:#000;stroke-width:1.60000002;stroke-linecap:butt;stroke-linejoin:miter;stroke-miterlimit:4;stroke-dasharray:none;stroke-opacity:1" transform="matrix(.19025 -.01968 .0215 .17422 396.088 173.62)"/><path d="m113.518 303.669 8.526-3.166-4.185 2.392 2.686-.083-2.492 1.168 4.001.275z" style="fill:#000;fill-opacity:1;fill-rule:evenodd;stroke:#000;stroke-width:1px;stroke-linecap:butt;stroke-linejoin:miter;stroke-opacity:1" transform="matrix(.3808 -.0394 .04303 .34872 367.566 121.86)"/><path d="M115.508 301.56a1.872 1.872 0 1 1-3.743 0 1.872 1.872 0 1 1 3.743 0z" style="opacity:1;fill:#000;fill-opacity:1;fill-rule:evenodd;stroke:#000;stroke-width:1.60000002;stroke-linecap:butt;stroke-linejoin:miter;stroke-miterlimit:4;stroke-dasharray:none;stroke-opacity:1" transform="matrix(.19025 -.01968 .0215 .17422 407.153 168.968)"/><path d="M115.508 301.56a1.872 1.872 0 1 1-3.743 0 1.872 1.872 0 1 1 3.743 0z" style="opacity:1;fill:#000;fill-opacity:1;fill-rule:evenodd;stroke:#000;stroke-width:1.60000002;stroke-linecap:butt;stroke-linejoin:miter;stroke-miterlimit:4;stroke-dasharray:none;stroke-opacity:1" transform="matrix(.19025 -.01968 .0215 .17422 406.747 169.86)"/><path d="M115.508 301.56a1.872 1.872 0 1 1-3.743 0 1.872 1.872 0 1 1 3.743 0z" style="opacity:1;fill:#000;fill-opacity:1;fill-rule:evenodd;stroke:#000;stroke-width:1.60000002;stroke-linecap:butt;stroke-linejoin:miter;stroke-miterlimit:4;stroke-dasharray:none;stroke-opacity:1" transform="matrix(.19025 -.01968 .0215 .17422 407.53 170.345)"/><path d="m113.518 303.669 8.526-3.166-4.185 2.392 2.686-.083-2.492 1.168 4.001.275z" style="fill:#000;fill-opacity:1;fill-rule:evenodd;stroke:#000;stroke-width:1px;stroke-linecap:butt;stroke-linejoin:miter;stroke-opacity:1" transform="matrix(.3808 -.0394 .04303 .34872 379.007 118.587)"/><path d="M115.508 301.56a1.872 1.872 0 1 1-3.743 0 1.872 1.872 0 1 1 3.743 0z" style="opacity:1;fill:#000;fill-opacity:1;fill-rule:evenodd;stroke:#000;stroke-width:1.60000002;stroke-linecap:butt;stroke-linejoin:miter;stroke-miterlimit:4;stroke-dasharray:none;stroke-opacity:1" transform="matrix(.18943 .02643 -.02084 .1743 434.213 162.083)"/><path d="M115.508 301.56a1.872 1.872 0 1 1-3.743 0 1.872 1.872 0 1 1 3.743 0z" style="opacity:1;fill:#000;fill-opacity:1;fill-rule:evenodd;stroke:#000;stroke-width:1.60000002;stroke-linecap:butt;stroke-linejoin:miter;stroke-miterlimit:4;stroke-dasharray:none;stroke-opacity:1" transform="matrix(.18943 .02643 -.02084 .1743 433.606 162.851)"/><path d="M115.508 301.56a1.872 1.872 0 1 1-3.743 0 1.872 1.872 0 1 1 3.743 0z" style="opacity:1;fill:#000;fill-opacity:1;fill-rule:evenodd;stroke:#000;stroke-width:1.60000002;stroke-linecap:butt;stroke-linejoin:miter;stroke-miterlimit:4;stroke-dasharray:none;stroke-opacity:1" transform="matrix(.18943 .02643 -.02084 .1743 434.249 163.51)"/><path d="m113.518 303.669 8.526-3.166-4.185 2.392 2.686-.083-2.492 1.168 4.001.275z" style="fill:#000;fill-opacity:1;fill-rule:evenodd;stroke:#000;stroke-width:1px;stroke-linecap:butt;stroke-linejoin:miter;stroke-opacity:1" transform="matrix(.37915 .0529 -.0417 .34888 418.947 106.429)"/><path d="M115.508 301.56a1.872 1.872 0 1 1-3.743 0 1.872 1.872 0 1 1 3.743 0z" style="opacity:1;fill:#000;fill-opacity:1;fill-rule:evenodd;stroke:#000;stroke-width:1.60000002;stroke-linecap:butt;stroke-linejoin:miter;stroke-miterlimit:4;stroke-dasharray:none;stroke-opacity:1" transform="matrix(.19025 .01968 .0215 -.17422 434.512 270.684)"/><path d="M115.508 301.56a1.872 1.872 0 1 1-3.743 0 1.872 1.872 0 1 1 3.743 0z" style="opacity:1;fill:#000;fill-opacity:1;fill-rule:evenodd;stroke:#000;stroke-width:1.60000002;stroke-linecap:butt;stroke-linejoin:miter;stroke-miterlimit:4;stroke-dasharray:none;stroke-opacity:1" transform="matrix(.19025 .01968 .0215 -.17422 434.107 269.793)"/><path d="M115.508 301.56a1.872 1.872 0 1 1-3.743 0 1.872 1.872 0 1 1 3.743 0z" style="opacity:1;fill:#000;fill-opacity:1;fill-rule:evenodd;stroke:#000;stroke-width:1.60000002;stroke-linecap:butt;stroke-linejoin:miter;stroke-miterlimit:4;stroke-dasharray:none;stroke-opacity:1" transform="matrix(.19025 .01968 .0215 -.17422 434.889 269.307)"/><path d="m113.518 303.669 8.526-3.166-4.185 2.392 2.686-.083-2.492 1.168 4.001.275z" style="fill:#000;fill-opacity:1;fill-rule:evenodd;stroke:#000;stroke-width:1px;stroke-linecap:butt;stroke-linejoin:miter;stroke-opacity:1" transform="matrix(.3808 .0394 .04303 -.34872 406.366 321.065)"/><path d="M115.508 301.56a1.872 1.872 0 1 1-3.743 0 1.872 1.872 0 1 1 3.743 0z" style="opacity:1;fill:#000;fill-opacity:1;fill-rule:evenodd;stroke:#000;stroke-width:1.60000002;stroke-linecap:butt;stroke-linejoin:miter;stroke-miterlimit:4;stroke-dasharray:none;stroke-opacity:1" transform="matrix(.19025 .01968 .0215 -.17422 446.06 273.7)"/><path d="M115.508 301.56a1.872 1.872 0 1 1-3.743 0 1.872 1.872 0 1 1 3.743 0z" style="opacity:1;fill:#000;fill-opacity:1;fill-rule:evenodd;stroke:#000;stroke-width:1.60000002;stroke-linecap:butt;stroke-linejoin:miter;stroke-miterlimit:4;stroke-dasharray:none;stroke-opacity:1" transform="matrix(.19025 .01968 .0215 -.17422 445.654 272.808)"/><path d="M115.508 301.56a1.872 1.872 0 1 1-3.743 0 1.872 1.872 0 1 1 3.743 0z" style="opacity:1;fill:#000;fill-opacity:1;fill-rule:evenodd;stroke:#000;stroke-width:1.60000002;stroke-linecap:butt;stroke-linejoin:miter;stroke-miterlimit:4;stroke-dasharray:none;stroke-opacity:1" transform="matrix(.19025 .01968 .0215 -.17422 446.435 272.322)"/><path d="m113.518 303.669 8.526-3.166-4.185 2.392 2.686-.083-2.492 1.168 4.001.275z" style="fill:#000;fill-opacity:1;fill-rule:evenodd;stroke:#000;stroke-width:1px;stroke-linecap:butt;stroke-linejoin:miter;stroke-opacity:1" transform="matrix(.3808 .0394 .04303 -.34872 417.913 324.08)"/></svg>