<svg xmlns="http://www.w3.org/2000/svg" viewBox="0 0 2880 1920"><path d="M0 0h2880v1920H0z" style="fill:#00785e;fill-opacity:1;stroke:none;stroke-width:0;stroke-miterlimit:4;stroke-dasharray:none;stroke-opacity:1"/><path d="m1440 362-23.656 72.906h-76.688l62.032 45.063L1378 552.844l62-45 62 45-23.687-72.875 62.03-45.063h-76.687zm-302.562 127.906 15.53 50.719-43.468 30.406 53.031.938 15.5 50.718 17.282-50.156 53.03.907L1206 541.53l17.25-50.156-43.469 30.438zm605.124 0-42.343 31.906-43.469-30.437 17.25 50.156-42.344 31.907 53.032-.907 17.28 50.157 15.5-50.72 53.032-.937-43.469-30.406zM1036.97 657.47l-22.407 48.062-52.625-6.468 38.782 36.156-22.407 48.093 46.375-25.718 38.782 36.156-10.094-52.062 46.344-25.72-52.625-6.437zm806.062 0-10.125 52.062-52.625 6.438 46.344 25.718-10.094 52.063 38.782-36.156 46.374 25.718-22.406-48.093 38.782-36.157-52.626 6.47z" style="fill:#fbd116;fill-opacity:1;fill-rule:evenodd;stroke:none;stroke-width:0;stroke-linecap:butt;stroke-linejoin:miter;stroke-miterlimit:4;stroke-dasharray:none;stroke-opacity:1"/><path d="M1440 614.406c-68.874 59.52-112.5 147.492-112.5 245.594 0 66.726 20.174 128.754 54.75 180.344-42.462-54.852-67.75-123.658-67.75-198.344 0-49.61 11.163-96.627 31.094-138.687-13.765-14.547-24.222-32.259-30.125-51.938C1288.757 698.52 1273.5 752.98 1273.5 811c0 72.17 23.602 138.846 63.5 192.75-69.483-72.84-167.463-118.25-276-118.25-5.832 0-11.638.147-17.406.406a130.6 130.6 0 0 1 27 35.594c107.963.165 205.43 45.281 274.75 117.594C1279.14 983.799 1193.934 950.5 1101 950.5c-51.937 0-101.452 10.396-146.594 29.219 46.38 122.554 164.857 209.781 303.594 209.781 8.983 0 17.889-.404 26.688-1.125A326 326 0 0 1 1227 1193.5c-87.532 0-166.987-34.72-225.375-91.125a129.3 129.3 0 0 1-38.781 8.406c59.47 67.267 146.379 109.719 243.156 109.719 91.924 0 174.944-38.292 234-99.781 59.056 61.489 142.076 99.781 234 99.781 96.777 0 183.686-42.452 243.156-109.719a129.3 129.3 0 0 1-38.781-8.406c-58.388 56.405-137.843 91.125-225.375 91.125a326 326 0 0 1-57.687-5.125c8.798.72 17.704 1.125 26.687 1.125 138.737 0 257.214-87.227 303.594-209.781-45.142-18.823-94.657-29.219-146.594-29.219-92.934 0-178.141 33.299-244.344 88.594 69.32-72.313 166.787-117.43 274.75-117.594a130.6 130.6 0 0 1 27-35.594A388 388 0 0 0 1819 885.5c-108.537 0-206.517 45.41-276 118.25 39.898-53.904 63.5-120.58 63.5-192.75 0-58.02-15.257-112.48-41.969-159.625-5.903 19.68-16.36 37.39-30.125 51.938 19.931 42.06 31.094 89.078 31.094 138.687 0 74.686-25.288 143.492-67.75 198.344 34.576-51.59 54.75-113.618 54.75-180.344 0-98.102-43.626-186.075-112.5-245.594m0 541.313c-58.257 55.62-137.158 89.781-224 89.781H963.469a578 578 0 0 0 23.406 32H1231c79.603 0 152.524-28.72 209-76.344 56.476 47.624 129.397 76.344 209 76.344h244.125a578 578 0 0 0 23.406-32H1664c-86.842 0-165.743-34.161-224-89.781M1014.875 1310.5a584 584 0 0 0 15.219 16h819.812a584 584 0 0 0 15.219-16zm50.594 49a579 579 0 0 0 31.281 25h686.5a579 579 0 0 0 31.281-25zm67.75 50a575 575 0 0 0 57.781 32h498a575 575 0 0 0 57.781-32zm94.343 48c65.748 26.129 137.418 40.5 212.438 40.5s146.69-14.371 212.438-40.5h-424.875" style="fill:#fff;fill-opacity:1;fill-rule:evenodd;stroke:none;stroke-width:0;stroke-linecap:butt;stroke-linejoin:miter;stroke-miterlimit:4;stroke-dasharray:none;stroke-opacity:1"/></svg>