<svg xmlns="http://www.w3.org/2000/svg" xmlns:xlink="http://www.w3.org/1999/xlink" viewBox="0 0 750 500"><path fill="#fff" d="M0 0h750v500H0z"/><path fill="#d42e12" d="M184.013 105.044V50.605h17.751l11.61 41.43 11.451-41.43h17.83v54.439h-11.252V61.138l-11.848 43.906h-12.283l-12.006-43.906v43.906zm92.56-43.536L268.49 84.68h16.207zM269.6 50.605h13.868l21.04 54.439h-12.6l-3.962-11.198H265.32l-3.844 11.198h-12.64zm67.004 54.439h-12.006v-20.29l-21.199-34.149h14.7l12.482 23.468 11.53-23.468h13.71l-19.217 34.15zm34.155-27.164q0 8.98 4.28 13.97 4.279 4.953 11.966 4.952 7.766 0 12.085-4.952 4.32-4.99 4.32-13.97t-4.32-13.933q-4.32-4.99-12.085-4.99-7.687 0-11.966 4.953-4.28 4.953-4.28 13.97m-12.243 0q0-13.194 7.687-20.918 7.726-7.76 20.802-7.761 13.075 0 20.802 7.761 7.767 7.761 7.767 20.918t-7.767 20.918q-7.726 7.761-20.802 7.761t-20.802-7.76q-7.687-7.763-7.687-20.919m78.653 27.164V60.325h-17.316v-9.72h46.518v9.72h-17.196v44.72zm48.182 0v-44.72h-17.316v-9.72h46.518v9.72h-17.196v44.72zm36.097 0v-54.44h42.358v9.462h-30.51V71.67h27.894v9.314h-27.895v14.007h31.937v10.052z"/><g id="a"><path fill="#dfdfdf" d="M220.568 144.814c-5.075.714-8.9 2.108-14.01 5.182-1.644 1-3.18 1.715-3.466 1.608s-.608-.965-.751-2.001c-.143-.965-.465-2.073-.715-2.395-.715-1-1.394-.179-2.716 3.18-.607 1.61-1.286 3.146-1.465 3.36-.643.786-1.501.5-2.538-.786-1.036-1.322-2.608-1.715-2.966-.75-.107.285-.036 1.429.179 2.573.643 3.36-.393 3.86-3.324 1.608-2.537-1.966-3.502-2.359-4.467-1.859-1 .537-.965 1.287.322 4.253 1.107 2.574 1.179 4.432.107 2.93-.286-.392-1.609-1.286-2.967-1.929-1.358-.679-3.466-1.787-4.717-2.502-1.25-.679-2.966-1.5-3.824-1.822-1.573-.536-10.078-1.787-10.793-1.537-.214.071.965 1.036 2.573 2.18 3.538 2.43 10.329 8.649 10.329 9.435 0 .465-.394.536-2.86.322-3.252-.286-3.18-.394-2.466 3.002.25 1.179.286 1.965.072 2.18s-1.322.143-3.002-.215c-1.465-.286-2.752-.536-2.895-.536-.536 0-.286 2.823.465 5.218.715 2.251.715 2.466.143 2.859-.715.536-1.537.286-6.97-2.216-3.216-1.5-4.038-1.751-5.789-1.68-1.108.036-2.43.286-2.966.572l-1 .5 2.322 2.502c2.752 3.002 5.54 7.005 5.968 8.613.787 2.68-1.858 3.145-10.757 2.002-4.86-.644-8.148-.536-9.756.321-1.251.644-5.54 4.646-5.54 5.182 0 .18 2.073.43 4.61.536 5.325.215 9.185 1.144 12.366 2.895 3.002 1.644 2.93 2.002-.322 2.002-2.716 0-4.288.428-5.718 1.572-.679.536-.679.572 0 1.322 1.036 1.144 3.038 2.038 5.504 2.43 1.25.215 2.323.43 2.394.537.072.071-1.036.321-2.466.536-3.716.607-8.934 2.144-11.472 3.43-2.287 1.144-2.394 1.287-2.859 4.61l-.214 1.359 1.143-.25c1.787-.393 11.008-.608 12.509-.286 2.287.5 1.644 1-1.894 1.43-4.432.536-6.934 1.036-8.113 1.643l-.93.5 1.93.93c1.073.536 3.539 1.287 5.504 1.68 8.363 1.715 9.4 2.68 2.395 2.323-5.754-.286-8.041-.072-7.862.822.178 1 3.716 2.716 7.397 3.645 2.252.572 1.394 1-2.287 1.144-3.324.107-5.825.965-6.862 2.358-.822 1.037-.321 5.754.644 6.362.214.107.643-.036.965-.322.321-.322 1.786-1.108 3.252-1.823 2.752-1.322 2.787-1.322 6.719-.714 1.68.25 3.145 1.644 4.395 4.217.608 1.215 1.859 3.145 2.788 4.288s2.001 2.466 2.359 2.931c.679.822.679.858-.072 2.359-.393.857-.822 1.822-.929 2.144-.643 2.216-11.58 1.465-20.192-1.394-3.431-1.143-8.506-3.645-10.793-5.325l-1.751-1.286v1.393c0 3.431 2.68 9.257 5.36 11.651l1.716 1.537-1.751 3.36c-2.18 4.18-2.323 5.789-.644 7.469.608.643 1.037 1.358.894 1.644-.107.285-1.037 1-2.073 1.572-3.216 1.823-3.073 1.644-1.751 2.323.643.357 2.394.715 3.824.822 1.572.143 2.823.393 3.038.68.893 1.071-.965 3.43-4.182 5.36-.536.321-.143.464 2.18.822 1.573.214 3.86.429 5.075.464l2.216.072-.75 1.358c-.894 1.608-2.574 3.36-3.968 4.217l-1 .643 1.108.143c.607.108 1.858.036 2.787-.107 2.68-.429 5.933-.357 6.648.143 1.107.822.178 2.68-2.61 5.36l-2.43 2.36 1.573.25c2.966.429 6.719-.036 8.72-1.072 1.037-.5 1.93-.894 2.002-.822.5.536-1.43 5.718-2.68 7.147-.287.322-.43.715-.287.894.143.143 2.073.25 4.253.25 3.11 0 4.289-.143 5.218-.643.679-.322 1.286-.608 1.358-.608.036 0 .107.75.107 1.68 0 1.215-.25 1.965-.929 2.859l-.893 1.18h1c2.323-.037 7.827-1.823 9.793-3.253 1.286-.893 1.393-.858 1.393.465-.035 1.5-.822 3.68-1.644 4.61-.75.858-.571.858 2.93-.036 3.146-.786 5.933-1.894 7.363-2.895 1.322-.965 1.465-.857 1.18.644-.322 1.787-1.001 2.823-2.36 3.538-.607.286-1.036.643-.929.714.286.322 7.827-.857 9.543-1.465.857-.286 1.858-.822 2.215-1.143.608-.537.644-.537.644.321 0 .5-.393 1.644-.894 2.573s-.893 1.752-.893 1.859c0 .286 1.965-.322 4.253-1.323 1.25-.571 2.716-1.036 3.252-1.036 1.215 0 2.644 1.108 3.752 2.86.608.964 1.537 1.679 3.324 2.572l2.502 1.251.143-1.465c.178-1.322 6.075-16.833 6.647-17.44.25-.25 7.434 4.681 14.367 9.828 4.181 3.109 13.795 12.651 16.618 16.51 7.755 10.58 10.293 17.87 10.329 29.664 0 6.504-.43 9.97-1.93 16.225-3.288 13.366-10.936 26.089-19.62 32.522-5.719 4.253-12.473 5.682-25.053 5.289-15.225-.465-24.731-3.645-31.772-10.543-5.218-5.146-8.648-11.865-10.078-19.727-.214-1.287-.393-4.432-.393-6.97 0-8.72 1.966-14.76 6.254-19.37 3.717-3.967 7.684-6.147 12.759-6.933 4.824-.75 10.328.858 13.723 3.967 2.359 2.18 2.466 3.217.608 6.933-1.644 3.324-1.787 4.182-.75 5.218.964.965 2.966.93 5.253-.179 3.324-1.536 4.968-5.289 4.682-10.507-.286-4.681-2.466-7.72-7.398-10.22-4.79-2.395-7.22-2.86-14.689-2.824-6.182 0-6.826.071-9.828 1-6.004 1.823-9.65 4.253-12.472 8.185-6.433 9.077-9.971 24.66-7.899 34.737 1.609 7.684 5.897 16.011 11.865 22.873 10.079 11.65 23.445 16.976 42.636 16.976 14.224 0 24.303-2.716 34.31-9.22 11.15-7.22 18.369-16.583 24.48-31.7 1.644-4.146 2.287-6.72 2.573-10.293.107-1.752.393-3.181.715-3.539 1.43-1.644 1.93-6.325 1.036-9.363l-.536-1.715 1.108-.965c1.966-1.752 1.751-5.54-.464-8.077l-1.037-1.18 1.18-1.179c1.536-1.572 2.215-4.539 1.93-8.47-.18-2.716-1.394-6.504-2.073-6.504-.715 0-.25-.965.786-1.573 1.608-.965 2.466-2.573 2.466-4.717 0-4.325-1.787-10.972-3.11-11.472-.536-.215-.643-1.18-.142-1.18.822 0 1.93-3.36 2.108-6.397.215-3.824-.536-6.754-2.108-8.327l-1.037-1.072 1.108-2.287c.965-1.966 1.108-2.538.93-4.182-.394-3.788-4.575-10.793-7.72-12.866-1.144-.75-1.465-1.179-1.465-2 0-2.395-1.966-5.934-5.254-9.472-3.43-3.645-4.539-5.289-5.254-7.862-.5-1.644-1.036-2.502-2.537-4.003-1.751-1.75-5.468-3.967-7.684-4.539-.464-.107-.715-.464-.715-1.036-.035-2.287-2.859-6.111-5.36-7.255-1.251-.572-1.43-.786-1.43-1.822 0-1.466-1.215-2.931-4.074-4.897-2.716-1.822-7.005-2.93-13.616-3.502-13.903-1.144-20.085-3.467-26.625-9.971-3.967-3.931-5.504-6.576-6.934-11.794-1.179-4.324-1.25-8.362-.178-11.507.75-2.216 3.145-6.72 3.573-6.72.143 0-.071 1.18-.464 2.574-.93 3.395-1.037 8.97-.179 11.686 1.18 3.789 3.503 6.612 6.755 8.292 2.216 1.143 3.288 1.393 7.076 1.75 3.931.358 6.576 1.144 7.862 2.324 1.93 1.787 6.255 2.001 10.4.572 1.072-.393 3.074-.822 4.468-.93l2.573-.25 3.323 2.323c3.431 2.359 18.263 10.722 20.872 11.758 4.753 1.894 10.114.572 12.365-3.038 1.823-2.894.179-5.61-7.576-12.615-6.29-5.647-7.791-7.577-8.613-10.865-.358-1.393-1.501-4.431-2.61-6.719-2.608-5.61-2.644-6.575-.178-9.149.965-1.036 2.037-2.465 2.323-3.216.572-1.322.822-4.324.429-4.753-.215-.179-2.609.321-3.86.786-.393.143-.464-.393-.357-2.859.071-1.93-.072-3.467-.322-4.146l-.464-1.072-1.287 1.251c-1.322 1.287-2.287 1.608-2.716.93-.107-.18-.358-1.216-.536-2.288-.358-2.252-1.787-5.754-2.145-5.325-.143.143-.464.893-.714 1.608-.215.75-.536 1.358-.715 1.358-.143 0-.393-.858-.536-1.894-.393-3.073-.822-4.36-1.787-5.253-.786-.751-1-.787-1.251-.358-.179.286-.357.93-.357 1.43 0 1.572-1.001 4.753-2.323 7.433-2.574 5.147-5.004 4.646-10.007-1.965-2.86-3.789-3.288-4.968-2.502-6.683 1.894-4.003 9.828-9.4 17.298-11.723 1.393-.428 2.537-.893 2.537-1.036 0-.68-1.787-2.287-3.36-3.038-1.786-.822-3.86-1-6.825-.607"/><path d="M146.735 215.84c2.27-1.261-8.741-1.063-11.069-1.038-1.576.475-3.024 1.162-3.508.938-.484-.225-.095-1.985.396-4.976 1.733-1.423 3.528-2.185 5.438-2.742 1.821-.646 3.428-1.07 5.506-1.733 1.992-.238 2.637-.147 5.472-.765-3.325-.529-5.686-.123-8.993-3.605 1.337-.804 1.863-1.821 3.47-2.207 1.607-.344 2.172-.29 3.492-.29 2.53 0 3.27.463 1.577-.758-1.694-1.22-4.927-2.605-8.557-3.265-3.19-.55-8.03-.567-10.362-.661 1.07-2.117 3.062-3.354 4.272-4.674 1.98-2.42 6.53-2.365 13.35-1.265 10.78 1.32 11.44 0 4.62-8.58l-4.335-4.771 2.75-1.092 3.003-.081c2.86.66 6.502 2.864 8.702 3.744 3.52 1.54 3.33.09 2.23-2.77-.88-2.42-.243-2.408-.584-5.086 1.76 0 6.4 1.76 6.4.66 0-1.32-.608-2.203-.95-5.239 1.54 0 4.993.414 5.753.25s-1.057-1.914-2.907-3.572l-4.762-4.268-6.727-4.536 9.98 1.25c3.081 0 7.954 3.346 10.539 4.693 1.292.674 2.519.883 3.296 1.697 1.777.66-.359 2.422.93.8.656-1.18-2.386-4.67-1.973-6.493 2.181-4.159 7.07 3.456 8.133 2.225 2.035-.22-.996-4.958.618-5.919 2.303-1.37 3.614 3.339 4.854 2.506s2.043-6.87 4.003-7.627c1.96-.759 1.161 6.16 2.481 5.225 2.86-1.98 9.05-5.865 14.142-6.57 2.545-.352 5.511-1.084 8.023-.632 2.51.453 4.88 2.179 5.563 4.288-3.382.986-3.916 1.077-7.436 2.617-3.52 1.32-8.14 4.62-10.34 6.82-3.74 4.18-3.74 4.62.44 9.9 5.28 7.26 7.92 6.82 10.78-1.54 1.21-3.3.833-5.396 1.407-6.52.332.242 1.536.741 2.26 1.874.635.99 1.2 5.37 1.194 6.514.53-.322 1.024-1.76 1.52-4.068 1.322 2.55 1.7 3.389 2.14 4.599s.06 4.421 1.38 4.421c.77 0 1.704-1.487 3.343-2.935 1.416 2.658 1.214 5.98.649 8.498 1.108-.362 3.381-1.136 4.485-1.24.344 1.326.322 2.92.054 4.126-.803 1.725-1.052 3.211-2.812 4.531-2.64 2.2-2.64 3.52 0 8.58 1.76 3.3 3.08 7.04 3.08 8.58 0 1.32 3.96 5.72 9.02 9.9 6.16 5.28 8.36 8.58 7.48 11-2.2 5.28-9.02 6.82-15.18 3.52-2.86-1.54-9.24-5.06-14.3-7.92-3.41-1.87-5.655-3.909-7.735-5.216-3.342-.045-5.889.262-8.765 1.696-4.4.66-7.92.22-8.8-1.1s-4.4-2.42-7.7-2.42c-8.8 0-14.561-5.82-14.906-14.341-.132-3.704.368-6.043 1.597-10.213-4.857 7.67-5.142 11.207-3.398 17.974 2.101 9.446 11.867 21.54 33.427 21.76 4.07.11 7.48 1.264 11.329 2.035 2.46 1.457 7.709 4.247 6.643 7.745 3.992 1.065 6.732 5.203 6.79 8.599 9.8 2.933 11.098 8.681 11.098 9.781s2.42 4.4 5.5 7.26 5.121 7.484 4.742 10.034c3.41 1.76 4.632 4.331 6.706 7.126 1.758 3.569 4.685 8.01.367 13.348 4.521 1.676 4.323 14.477.713 16.331 2.656 1.825 3.226 6.279 3.792 12.341.025 2.04-.634 3.866-3.873 5.48.863.435 1.55 1.63 2.019 3.193.47 1.562.723 3.493.72 5.398-.002 1.905-.26 3.786-.815 5.248s-1.403 2.508-2.587 2.743c4.037 2.636 3.94 9.61.46 10.328 1.949 3.56 1.337 10.556-1.15 11.93.544 7.181-2.3 12.275-3.806 16.07-3.012 7.59-6.979 14.025-11.953 19.429s-10.955 9.776-17.995 13.241c-15.4 7.48-41.58 7.26-56.54-.44-13.2-6.82-23.98-21.56-26.18-35.86-1.98-12.76 4.18-31.46 12.1-37.4 12.54-9.24 36.96-6.16 40.48 5.06 1.76 5.72-.44 12.54-4.62 14.08-5.5 1.98-7.7-.66-4.62-5.5 2.2-3.74 1.98-4.84-1.54-7.7-10.56-7.7-26.4-.88-30.14 12.76-4.62 17.6 2.64 35.42 17.38 42.68 12.32 6.16 37.18 6.6 45.98 1.1 17.16-10.78 27.94-40.04 22.66-62.04-2.86-12.1-14.74-27.06-30.14-37.4l-9.68-6.82-3.52 9.02c-1.87 4.73-3.52 7.357-3.075 10.345-2.858-1.743-3.89-1.428-5.862-3.286-.88-1.98-2.503-4.199-4.923-3.539-.55.165-3.885 2.128-7.205 2.58 1.144-2.673 2.303-2.75 2.167-5.414-1.78 2.27-6.88 2.551-13.492 3.251 5.173-2.961 4.191-3.54 4.576-6.03-1.98 2.24-6.922 3.636-12.637 4.664 2.947-3.079 2.443-4.025 2.732-6.829-2.898 2.852-9.956 4.445-12.574 4.277 2.293-2.668 2.33-2.633 2.285-5.932-2.573 2.02-7.328 1.735-11.581.983 2.621-2.807 3.424-5.903 3.574-8.255-3.448 3.205-9.095 2.514-12.785 1.902 2.89-2.563 4.641-4.007 5.539-5.615 1.046-2.022.341-2.682-3.179-2.682-2.42 0-4.094 1.552-7.666.184 5.179-2.047 6.585-8.665 7.748-8.799 4.633-.532-6.445 8.432 3.472 6.545 2.477-.356 3.604-.313 5.441-.208-1.287 1.891-1.507 1.969-2.615 3.378-1.245 1.835-1.493 4.227-4.439 5.773 2.5.015 4.545.243 6.2-1.071s1.674-1.85 5.164-4.362c.476 2.631.241 3.158-.017 4.902-.446 3.018-1.029 3.812-1.937 6.199 3.79.879 6.119-.317 6.78-1.952.99-1.034 2.404-3.666 4.347-4.198.789 2.371-.05 2.463-.34 4.472-.827 2.259-1.032 3.867-1.74 5.987 3.846-1.094 6.208-2.481 8.642-5.41 4.18-3.52 4.18-3.52 2.86 1.1-.544 3.08-.412 3.769-1.53 6.427 3.704-.645 7.14-2.357 9.01-5.327 2.2-3.3 2.42-3.08 1.54 1.1-.124 2.812.364 3.267-.328 5.987 3.362-.71 5.828-2.027 7.588-4.887 2.2-3.3 2.42-3.08 1.54 1.1-.55 2.64.46 3.184-1.098 5.939 3.799-1.62 3.958-1.209 5.278-3.299.88-1.76 2.33.59 4.09 3.89 1.43 2.53 2.592 2.724 3.658 2.847.261-1.93 1.052-3.217 2.812-7.397 1.98-4.84 3.3-8.8 3.08-9.24-.44-.22-5.94-3.08-12.1-6.38-6.38-3.08-11.66-6.6-11.66-7.92 0-1.1-1.1-1.98-2.64-1.98-3.52 0-12.76-8.8-12.76-12.1 0-1.54-1.98-5.28-4.4-8.14-3.3-4.4-7.04-5.94-16.94-7.04-6.999-1.237-12.871-3.08-16.5-5.06-1.816-.95-2.064-1.753-3.459-2.295-.055 1.155.709 4.715 3.239 7.135 1.43 1.54 2.895 1.874 4.196 2.678-1.224 1.246-2.106 3.592-3.096 5.242-2.2 3.52-2.2 4.62.88 5.72 2.86 1.1 2.86 1.76.44 3.3-.99.77-2.48 1.3-3.524 1.973 1.635.405 2.913.508 6.033-.29 3.96-2.397 4.263-1.69 2.551.737-1.403 2.117-2.351 4.482-4.391 6.124 2.335.125 3.401-.294 5.491-1.064 2.2-.88 4.062-1.47 2.55 1.945-1.436 2.387-.643-1.284-2.006 1.866-2.349.453-7.683-.107-11.584-1.05 3.51-1.925 4.794-3.43 5.234-4.42.66-1.98-1.234-1.86-2.994-1.86-.77 0-3.315.307-5.217-1.803 1.58-.86 3.982-1.639 5.428-3.453-4.51-2.6-1.89-6.542-.838-8.414.87-1.496.941-2.288 1.952-3.841-1.388-.1-3.415-2.73-4.405-4.49-2.09-3.74-2.997-7.293-2.694-10.351 2.981 2.3 4.137 3.042 5.994 3.965 3.152 1.884 9.917 4.255 15.894 5.16 5.977.903 11.166.786 11.166-1.414s2.392-2.017.662-3.776c-3.239-3.294-4.982-6.251-5.991-9.165-1.886-2.283-4.267-2.451-7.423-2.484-1.674.895-4.94 1.675-6.448 3.853-1.418-.678-2.149-5.047-1.43-7.127.308-.893 3.951-2.604 6.006-2.676 2.054-.072 3.145.513 4.954-.253-2.13-.614-3.294-.578-5.513-1.684-1.973-.984-3.886-1.568-3.627-2.82.32-1.55 11.233-.493 12.773-.438 1.265.055-2.386-1.46-5.076-1.8-1.765-.633-5.7-.386-9.68-3.34 2.937-1.887 4.484-1.093 6.892-1.982m9.065.362c-.886 1.866-11.493 1.358-8.543 2.129 0 0 8.193 1.51 10.904 3.837.48 2.06-2.38 2.973-2.38 2.973l-10.39-1.107c-.11 1.422 10.1 1.959 9.75 4.096-.115.692.565 1.997-2.834 1.61-3.094.142-6.89-.173-9.188 1.016-1.67.832-1.87 2.683-1.346 4.267 1.511-1.232 3.916-2.246 5.236-2.686 2.818-.365 4.857.214 6.762 1.029s3.229 1.687 4.885 4.946c1.1 2.86 4.62 6.16 7.92 7.48 3.52 1.1 9.144 4.113 11.66 7.48 2.79 3.732 4.87 6.757 11.59 10.638 6.6 5.94.9 3.829 3.726 4.263 7.575 1.163 11.744 2.919 13.064 4.679 1.54 1.76 5.06 3.74 7.92 4.4 3.08.88 5.5 2.42 5.5 3.52 0 1.32 1.54 2.2 3.52 2.2 4.84 0 26.4 22.66 30.36 31.68 7.48 16.94 8.8 23.1 8.8 39.6-.22 11-1.54 20.9-3.52 25.52-4.4 10.34-23.163 31.116-28.223 31.116-.895.252-.533.16-1.594.332-.486.726-.764.796-2.483 1.599-2.498 1.249-5.7 1.858-9.606 1.97s-8.514-.275-13.825-1.02c-5.31-.744-10.518-1.846-14.397-3.133-3.88-1.287-5.307-1.983-6.432-3.17-.336-.355-1.23-.817-1.08-2.363-.798.728-2.653.556-4.87-1.45-1.8-1.63-3.532-2.388-2.63-4.026-2.38-.249-2.787-1.26-4.662-3.896-1.234-1.735-2.636-3.268-2.036-5.72-1.64.325-2.452-1.969-3.391-4.142-.824-1.905-2.292-4.5-.465-5.439-2.1.052-1.706-2.516-1.962-4.302-.255-1.786-.782-4.56 1.336-5.045-2.17-.685-1.24-2.926-.914-4.936.458-2.82.717-4.345 2.517-4.718-1.609-.719-.628-3.364.433-6.974.85-2.895 2.798-3.95 5.04-3.47-2.144-1.636 1.772-4.305 2.614-5.007 2.338-1.952 4.997-2.676 5.519-1.408-.225-2.375 8.068-2.584 11.24-2.226s5.96 1.788 8.93 4.208c4.62 3.74 4.84 4.84 2.42 8.8-2.86 5.06-.66 6.16 3.52 1.98 4.4-4.4 3.08-9.9-3.3-14.96-4.84-3.96-8.14-4.62-16.5-3.96-14.74 1.54-20.68 6.16-24.86 19.8-6.6 22.66 2.42 45.1 22.22 54.78 8.8 4.18 14.08 5.28 28.38 5.28 20.9-.22 33.88-5.28 45.98-18.7 7.48-8.14 15.84-29.405 13.2-33.365-4.294-1.827 0-1.835 1.32-1.835 1.76 0 2.42-9.115-.856-10.772 6.539.024 3.076-8.147-.86-9.755 3.524-.084 5.268-3.53 5.373-7.176.104-3.646-1.43-7.491-4.461-8.373-2.285-.665-.181-1.272 1.964-1.76 2.558-.582 3.541-.964 3.226-5.521-.38-2.986-1.43-7.979-3.595-8.899-2.228-.947-5.698-1.222-7.633-1.395 2.35-.758 4.59-1.198 6.403-1.349 3.96-1.65 5.295-9.659 1.735-11.901-3.561-2.243-12.523 2.165-12.994.346 1.747-1.912 7.16-2.382 9.564-4.13 2.942-2.893 5.655-5.655.815-12.475-2.42-3.74-2.035-4.667-4.837-5.7-3.714-.15-11.68 4.85-17.774 4.655 2.791-2.323 12.284-4.187 15.313-6.384s.73-5.608-2.382-9.51c-3.74-3.3-5.28-3.52-10.12-1.32-3.3 1.32-8.523 2.693-14.183 3.64 2.197-2.267 12.203-4.74 14.403-6.5 4.18-3.08 4.18-4.372.22-8.772l-5.924-2.436-6.616 3.507c-4.84 2.2-12.33 4.812-12.33 4.152 0-.44 6.83-3.492 10.35-5.472 3.74-1.98 6.018-4.84 6.018-6.38 0-5.5-5.075-6.23-12.853-.81-3.96 2.31-13.846 5.325-14.437 4.213-.732-1.379 6.63-2.729 10.272-4.503 3.616-2.063 10.407-5.446 10.407-7.206-.893-2.984-4.907-5.114-22.287-7.094-12.98-1.54-19.8-5.72-25.52-15.18-7.04-11.44-5.72-21.34 3.74-30.36l7.92-7.48-4.62 7.04c-8.58 12.32-4.4 27.06 7.7 27.06 2.86 0 7.04 1.1 9.24 2.64 3.08 1.76 5.761 1.38 8.347.619l4.205-1.238 1.457-.315-6.089-4.126c-6.82-3.3-9.68-9.68-5.94-13.42 1.32-1.32 1.76 0 1.1 3.52-.88 4.18 0 6.16 3.08 7.26 2.2 1.1 6.6 3.52 9.46 5.72 9.46 6.82 22.22 14.74 23.54 14.74.66 0-.44-2.2-2.86-5.06-2.42-2.64-1.1-2.2 2.86 1.54 5.94 5.28 7.7 5.94 10.56 3.52 4.84-3.96 4.18-5.72-4.18-11-5.06-2.86-8.58-7.48-10.34-12.76-1.32-4.4-3.52-9.24-4.4-10.56-1.32-1.54-.66-3.52 1.32-5.28 1.87-1.54 3.74-5.117 3.54-6.426-.868.163-1.528.406-2.44.926-1.1.66-2.2-.22-2.2-2.2 0-.99.762-4.74.556-5.661-.52.954-2.096 3.131-2.756 3.461-1.1.66-2.42 0-2.42-1.54-.33-3.19-.74-4.123-1.013-5.624-.451.82-2.73 4.109-3.763 4.898.878-2.428.184-10.222-.194-10.947-.064 2.088-1.241 5.8-1.595 7.142-2.336 3.294-2.904 4.014-5.533 4.81-2.228.083-3.302-.829-6.382-4.459-3.08-3.74-4.964-6.542-5.143-8.45 0-1.98 6.527-9.81 14.256-12.756 3.274-1.19 3.718-1.526 5.727-2.062-.547-.124-1.35-.888-3.738-1.334-1.25-.233-6.316-.216-9.585 1.336-2.923.938-9.68 3.824-12.76 6.904-1.67.281.225-5.339-1.725-4.527-1.95.81-1.178 6.664-2.824 7.542-2.468 1.316-2.866-3.006-3.966-3.006-1.1.11.886 5.128-1.157 6.297-1.337.765-5.968-4.92-6.518-4.04-.406.687 3.575 5.388 2.502 6.086-1.326 1.045-1.197 2.444-4.13 1.282-2.404-1.212-13.02-7.877-15.754-7.686 2.537 1.664 4.51 3.687 7.261 6.2 4.4 4.62 5.644 5.196 2.124 5.732-3.27-.536-4.078-1.524-5.692-.433-.807.546.738 4.71-.355 5.377s-4.846-.799-5.265-.365c-1.677 1.732 1.307 4.054.317 6.584-1.32 3.74-1.98 3.74-6.38.66-3.52-2.53-8.02-4.34-8.154-3.383-.178 1.258.894 1.843 2.874 4.703 6.38 9.02 4.62 10.78-7.92 9.46 0 0-10.212-2.979-13.27 1.69 3.02-.568 10.259.872 12.189 1.71 1.046.453 3.31 1.809 5.265 3.363.977.777.412 1.387-.18 3.105-2.289.825-4.782 1.329-7.482 1.178 8.165 3.287 7.434.57 10.394 2.22-2.126 3.508-3.818 3.248-11.09 4.267-1.802.86-3.543 1.267-5.523 1.817-2.035.55-3.294 2.129-2.791 2.309.502.18 2.498-.324 4.74-.546 2.63.034 1.269.011 7.162.618 2.755.672 3.988 2.695 3.455 3.798"/><path d="M225.167 194.704c0 1.286-.747 2.328-1.668 2.328s-1.668-1.042-1.668-2.328.747-2.327 1.668-2.327c.898 0 1.635.992 1.667 2.245"/><path fill="none" stroke="#000" stroke-width="1.7" d="M228.519 196.421c-1.056 2.672-4.157 4.012-6.926 2.993s-4.159-4.01-3.103-6.681 4.157-4.012 6.926-2.993c2.766 1.017 4.156 4.002 3.107 6.672"/><path fill="none" stroke="#000" stroke-width="1.7" d="M209.11 187.76c6.945-3.663 16.541 2.02 16.541 2.02"/><path fill="#dfdfdf" d="M157.047 250.83c-.248-1.18.29-1.766 2.2-2.992 2.358.293 6.454 1.97 9.05 4.269 4.422 3.916 5.093 5.376 7.586 8.727-1.017 2.013-1.678 2.448-3.607 4.325-1.958 1.282-3.117 2.06-4.447 2.697-1.062-3.293-2.354-4.92-5.287-8.704-1.371-2.092-5.426-3.685-7.482-5.234.444-1.638 1.257-1.767 1.987-3.088m16.541 15.531c2.025-1.307 2.562-3.155 3.968-4.002 1.852.797 1.37 1.026 4.377 2.5 3.232 2.044 2.063 1.589 4.556 4.94-1.017 2.013-1.552 2.953-3.101 5.083-1.706 1.534-1.729 2.692-3.311 4.59-2.957-.767-4.88-1.89-7.18-4.536-1.625-1.966-3.533-2.044-4.326-5.36 2.085-1.386 3.782-2.02 5.017-3.215m11.491 9.344c1.52-2.064 1.805-3.534 3.084-5.012 2.231.292 4.023.647 6.65 1.49 3.611.78 4.084 1.967 5.945 3.93-1.017 2.013-1.173 4.594-1.965 8.239-.57 2.545-1.097 3.955-2.175 6.232-2.956-1.272-5.131-2.395-7.685-4.032-2.635-1.587-5.174-3.18-6.346-6.496 1.328-2.396 1.257-3.156 2.492-4.35m15.783 9.848c.636-2.822.542-5.807 1.948-8.043 2.231.293 1.876 1.026 4.503 1.87 2.727 1.16 4.589 1.461 6.071 4.434-2.406 2.266-2.94 1.943-3.733 5.588-.569 2.545.545 6.101-.533 8.379-2.956-1.273-3.237-2.017-5.791-3.653-2.635-1.588-2.9-.908-4.578-2.583.949-2.9 1.509-4.292 2.113-5.992m10.859 4.04c1.267-2.57 1.805-3.155 3.21-4.38 2.61 1.05 3.77.394 6.272 2.626 2.348 1.665 7.24 5.755 9.101 7.718-1.774.876-3.43 1.482-5.5 4.198s-1.476 3.45-2.68 6.485c-2.199-1.399-3.237-2.143-5.287-3.4-2.129-1.966-3.026-2.55-5.462-4.224.95-2.775-.006-6.818.346-9.023m14.521 11.87c1.267-2.57 3.068-3.03 4.473-4.255 2.61 1.05 3.644 3.3 6.145 5.532 3.106 3.432 3.578 3.987 5.06 6.076-2.279 1.129-2.925 1.23-4.995 3.062-2.14 1.895-2.738 1.934-4.194 3.58-1.568-1.777-1.344-1.637-3.393-3.653-2.13-1.966-2.395-1.917-5.21-4.476.823-2.901 1.257-3.913 2.114-5.866m12.122 12.248c1.52-1.18 2.941-2.019 4.22-2.866 1.222 1.43 2.381 2.542 3.115 4.143 1.212 1.538 1.306 1.84 2.283 3.929-2.28 1.13-2.042.851-3.733 1.673-1.644.8-2.36 1.682-4.321 2.95-1.567-1.778-.46-1.133-2.508-3.148-.993-1.209-1.512-2.17-3.063-3.72 2.211-1.89 2.52-2.145 4.007-2.96m5.998 8.901c1.836-.865 2.626-1.325 4.158-1.982 1.031 1.934 1.307 2.226 2.04 3.827.455 1.349.801 2.03 1.59 4.245-1.712.624-2.232.788-3.355 1.294-1.147.518-2.36 1.24-3.69 2.003-1.251-2.346-1.217-1.827-1.94-3.211-.677-1.335-1.133-1.729-2.368-3.53 1.832-1.386 2.393-1.893 3.565-2.646m4.554 9.107c1.836-.865 1.822-.655 3.354-1.312 1.032 1.934 1.754 5.35 2.309 7.443.41 2.375.756 5.02.874 7.905-1.622.312-.952.12-2.372.402-1.411.28-1.487.334-2.996.962-.448-3.149-.836-4.885-1.652-7.037-.543-1.513-1.668-4.942-2.904-6.744 1.565-.85 2.215-.866 3.387-1.619m3.973 16.294c.567-.132 1.174-.232 2.372-.33.228 4.121.236 5.127.121 9.229-.304 4.295-.36 7.788-1.045 12.146-.775-.224-.953-.46-2.372-.536-1.417-.075-1.333-.099-2.797-.007 1.025-4.086 1.06-5.487 1.363-10.354.127-3.79.117-5.015-.188-9.283 1.118-.359 1.597-.603 2.546-.865m-1.964 22.5c.567-.132 1.978.036 3.176-.062-1.29 7.246-2.354 9.949-4.79 14.407-2.894 4.206-5.717 8.146-9.438 12.147-.46-.319-.774-.74-1.211-1.161-.422-.407-.777-.53-1.28-.989 4.24-5.605 4.989-7.273 7.525-12.408 2.09-5.129 2.438-6.533 3.829-12.14 1.118.445 1.24.468 2.189.206m-13.304 26.518c.725.468.37.303 1.48 1.01-1.737 2.067-2.98 3.252-6.219 6.46-2.447 1.795-3.18 3.361-8.19 5.382-.596-.67-.621-.759-.91-1.188-.28-.413-.399-.519-.713-1.324 2.543-.783 5.552-2.557 7.462-4.477 3.162-2.719 3.957-3.944 6.062-6.604.487.318.71.435 1.028.741m-15.815 12.407c.398.63.247.812.621 1.555-2.272 1.353-2.78 1.468-8.353 2.555-6.85.232-9.735.068-12.952-.365.117-.857.127-.936.165-1.746.036-.766-.063-.516-.003-1.336 6.405.425 8.35-.004 10.884-.167 4.559-.426 7.995-1.498 9.078-1.773.487.887.432.654.56 1.276zm-22.366 2.142c-.137.676-.11.456-.316 1.422-5.308-.923-5.414-.808-11.836-2.132-4.84-1.376-6.437-2.42-9.43-4.014-.219-1.057-.158-.93.082-1.37.317-.58.078-.395.796-.832 3.559 2.137 7.371 2.764 9.414 3.45 4.87 1.003 7.28 1.27 11.4 1.709-.05.931-.06 1.145-.11 1.767m-22.947-7.455c-.806.61-.866.893-1.879.752-1.653-.23-1.866-.697-3.454-1.994-.778-.636-1.988-1.867-1.747-2.308.317-.58.852-2.324 1.555-1.188.614.994 3.234 2.53 4.786 3.596 1.235.848 1.052.905.739 1.142m-7.946-5.447c-.94.297-.704.484-1.477-.185-.627-.543-1.063-1.457-2.204-2.798-.651-.765-1.954-2.97-2.015-3.468-.174-1.429.622-2.372 1.242-1.189 1.106 2.11 2.52 4.316 4.474 6.096 1.108 1.009.355 1.426-.02 1.544m-5.714-9.196c-.94.297-.838.484-1.61-.185-.627-.543-1.254-1.953-1.982-3.557-.428-.944-1.38-2.357-1.033-3.29.386-1.036 1.739-1.746 2.09-.474.636 2.296.845 2.326 1.93 5.025.418 1.04.98 2.363.605 2.481m-3.081-9.777c-.368.708-1.046.622-2.146.127-.887-.398-.555-1.8-.687-3.556-.07-.944-.264-1.822-.006-3.067.224-1.083 2.266-1.475 2.403-.162.1.957-.042 1.514.144 3.15.3 2.644.58 2.956.292 3.508m-.803-9.241c-.214.598-1.09.399-1.61-.23-.62-.749.115-2.068.161-3.557.03-.946.293-1.899.798-3.066.313-.726 1.444-.812 1.465.508.01.644-.172 1.481-.347 2.882-.193 1.537-.125 2.51-.467 3.463m1.562-9.33c-.214.598-1.168.031-1.343-.766-.263-1.195.567-2.512.92-3.958.298-1.214.845-2.658 1.825-3.469.715-.59 2.008-.917 1.733.375-.213 1-1.645 2.91-2.133 4.533-.446 1.484-.66 2.331-1.002 3.285m5.848-10.67c-.634.025-1.37.203-1.164-.587.183-.704.867-1.052 2.17-2.083.667-.528 1.838-1.492 2.494-1.817.757-.375 2.242-.844 1.734.374-.213.51-.887.722-2.089 1.542-1.28.874-2.714 2.555-3.145 2.571"/></g><use xlink:href="#a" transform="matrix(-1 0 0 1 750 0)"/><path d="M278.855 412.412c-12.98 4.4-31.68 13.42-39.16 18.48-2.42 1.76-2.2 3.74 1.54 11.22 2.64 4.84 5.28 9.02 5.72 9.02.66 0 7.92-3.3 16.06-7.48 8.14-3.96 18.54-9.185 23.32-10.12 3.655-.715 6.993-1.392 9.059-2.25.832 2.02.32.894 1.836 4.068 2.18 4.56.823 4.457 4.591 5.705 3.974 1.316 13.774-4.003 13.774-4.003 11.44-3.96 17.82-4.4 58.96-4.4s47.52.44 58.96 4.62c0 0 9.206 3.132 10.39 3.51 1.175.377 1.796.674 3.038.376 1.133-.272 2.313-2.005 2.835-3.051 0 0 2.53-6.079 3.18-8.212 2.191 1.055 6.187 2.427 10.037 3.637 4.62 1.54 14.96 6.16 23.1 10.12 8.14 4.18 15.4 7.48 16.06 7.48.44 0 3.08-4.18 5.72-9.02 5.28-10.34 5.72-9.46-13.42-19.36-25.52-13.2-51.04-19.14-53.46-12.76-.44 1.21-.813 1.918-1.418 3.487-2.557-.589-9.252-2.167-15.962-3.267-20.68-3.74-77.44-3.74-98.12 0-6.71 1.1-11.246 2.935-15.038 3.987-2.146-4.294-1.697-2.586-2.137-3.796-1.76-4.4-13.405-3.711-29.465 2.009"/><g fill="#dfdfdf"><path d="M299.75 409.25c-9.446.297-27.165 6.347-45.094 15.469-15.4 7.7-15.836 8.141-11.656 16.281 1.76 3.74 3.749 7.06 3.969 7.5.005.003.025.03.031.031.82.216 7.677-2.825 15.562-6.875 8.36-4.18 18.943-8.774 23.563-10.094 3.41-1.21 5.888-1.32 8.937-1.968-.556-3.241.133-.446-2.03-6.625 2.495-6.259 7.316-11.667 12-12.844-1.205-.643-2.99-.947-5.282-.875"/><path d="M372.031 409.406c-18.237.174-36.17 1.065-44.375 2.344-13.97 2.31-21.503 6.738-26.687 9.437-1.897 1.416-3.56 1.76-5.625 3 1.636 3.708 1.572 5.94 2.968 9.188 1.469 3.417.735 5.577 4.75 5.687s12.75-4.219 12.75-4.219c11.22-3.96 17.83-4.406 58.75-4.406 41.14 0 49.43 1.31 58.938 4.625 6.893 2.373 9.735 4.246 12.5 3.75 1.42-.255 2.16-2.306 3.156-4.781 1.357-3.372 2.994-7.9 3.813-13.562-2.163-.316-1.208.79-4.157-.532-6.367-2.854-7.578-3.07-11.781-4.844-4.988-2.104-9.654-2.108-16.969-3.468-8.58-1.32-27.65-1.837-46.281-2.219-.589.004-1.162-.006-1.75 0"/><path d="M448.469 409.438c-1.242.01-2.297.144-3.187.406 1.919 1.207 4.16 3.223 5.406 3.875 4.62 2.42 4.601 4.657 4.156 8.813-.206 1.92-.382 2.652-1.125 5.281 1.724.778 5.98 2.54 9.5 3.75 4.4 1.32 14.953 5.914 23.313 10.094 7.758 3.984 14.533 6.985 15.53 6.875.02-.003.05-.026.063-.031h.031c.22-.44 2.21-3.76 3.97-7.5 2.86-5.5 3.074-7.46.874-9.22-4.84-3.96-24.42-13.003-38.5-17.843-9.013-3.004-15.642-4.535-20.031-4.5"/><path d="M442.938 411.219a4 4 0 0 0-.406.531c-.667.813-.761 1.683-.969 2.688 1.458.515 6.376 3.579 8.906 3.469.542 0 .97-.024 1.219-.125l.063-.032c.006-.003.025-.028.03-.03.022-.015.048-.047.063-.063.007-.008.026-.023.031-.032.003-.005.03-.026.032-.03.002-.006-.001-.027 0-.032v-.094a.6.6 0 0 0-.125-.25c-.353-.458-1.425-1.199-3.532-2.375-1.486-.83-3.892-2.466-5.312-3.625m-136.594.062c-1.445 1.1-3.895 2.618-5.469 3.688-2.827 1.92-3.248 3.41-4.469 6.093a1 1 0 0 0-.062.156v.032h.062c.4-.183 2.539-2.11 7.657-3.844 4.39-1.638 2.054-.837 4.78-1.969-1.796-2.776-2.03-2.965-2.25-3.625a2.7 2.7 0 0 0-.25-.531"/></g><path d="m325.41 417.812.504 4.357 2.986-.346q1.615-.187 2.218-.787.612-.602.47-1.824-.132-1.144-.815-1.542-.684-.4-2.377-.203zm-1.886-1.313 4.985-.576q1.214-.14 1.794-.101.588.038 1.07.23.864.351 1.375 1.097.519.745.644 1.82.12 1.038-.24 1.832-.36.784-1.194 1.306.776.122 1.147.584.381.46.597 1.638l.394 2.105q.122.675.292 1.001a.9.9 0 0 0 .465.424l.042.358-2.017.233q-.291-.374-.54-1.68l-.005-.053-.3-1.664q-.236-1.282-.743-1.613t-2.358-.116l-2.829.327.637 5.51-1.729.199zm15.272 6.036 4.023-.295-2.416-5.551zm-3.34 5.639 3.847-13.264 1.937-.142 5.76 12.558-1.902.14-1.65-3.757-5.085.373-1.093 3.958zm17.79-1.126-.38-12.94 1.757-.052.156 5.315 6.712-.197-.156-5.315 1.766-.052.38 12.94-1.767.053-.177-6.062-6.712.197.177 6.061zm15.28-5.722 4.035-.021-2.033-5.703zm-3.717 5.398 4.741-12.971 1.943-.01 4.891 12.921-1.907.01-1.39-3.86-5.098.026-1.36 3.875zm22.046-4.697 1.705.03q-.155 2.361-1.682 3.741-1.519 1.371-3.891 1.33-2.732-.046-4.256-1.936-1.515-1.89-1.458-5.186.053-3.04 1.71-4.796 1.656-1.764 4.415-1.717 2.197.038 3.575 1.196 1.386 1.158 1.572 3.121l-1.722-.03q-.225-1.286-1.135-1.988-.91-.71-2.387-.736-1.968-.034-3.082 1.327-1.105 1.361-1.148 3.874-.04 2.373 1.059 3.825 1.11 1.452 2.972 1.484 1.59.027 2.618-.94 1.037-.975 1.135-2.6m3.696 4.9.593-12.932 1.756.08-.243 5.312 6.707.308.244-5.312 1.764.08-.592 12.933-1.765-.08.278-6.059-6.708-.307-.278 6.058zm13.02.674.896-12.915 1.754.121-.896 12.916zm7.42-10.905-.424 4.365 2.992.291q1.619.158 2.334-.303.724-.459.844-1.684.111-1.146-.473-1.68-.584-.533-2.28-.698zm-1.568-1.68 4.995.486q1.216.117 1.774.278.568.162.999.45.77.526 1.112 1.363.351.837.247 1.913-.101 1.041-.62 1.741-.518.692-1.442 1.026.731.284.999.812.274.531.238 1.728l-.058 2.14q-.022.687.075 1.04.108.346.365.513l-.035.358-2.02-.196q-.205-.426-.174-1.757l.005-.052.059-1.69q.038-1.303-.388-1.733-.427-.43-2.28-.61l-2.835-.276-.537 5.52-1.732-.169zm10.669 14.146 1.687-12.836 1.742.229-1.686 12.836z"/><path fill="#171796" stroke="#000" stroke-width="2" d="M299.715 160.554c-5.955 3.1-9.056 7.669-9.545 13.869-.49 6.69.979 11.421 4.813 15.011 1.713 1.713 3.182 3.345 3.182 3.753 0 .326-1.305 1.958-2.937 3.508-3.834 3.59-6.037 8.321-6.037 13.216 0 5.058 1.55 8.566 5.71 13.135l3.427 3.752-3.753 4.161c-7.505 8.321-7.26 17.867.571 25.78l3.345 3.508h153.62l3.752-3.997c7.26-7.75 7.26-16.154.081-25.046l-3.67-4.487 3.426-4.08c7.505-8.973 7.342-17.213-.408-25.86-3.508-3.835-3.59-4.57-.816-6.364 4.487-3.019 7.26-13.216 5.221-19.417-3.018-9.3-15.99-15.5-23.903-11.421-1.469.734-4.406 2.774-6.608 4.487-2.203 1.795-4.243 3.182-4.65 3.182-.327 0-2.285-1.469-4.324-3.264-7.914-6.77-17.214-6.281-25.128 1.387l-3.018 2.937-3.998-3.671c-8.076-7.587-18.192-7.26-26.432.734l-3.019 2.937-3.263-2.937c-4.813-4.405-7.995-5.71-13.543-5.792-5.302-.082-10.279 2.121-14.195 6.363l-1.958 2.04-4.242-3.59c-7.832-6.69-14.114-7.832-21.7-3.834z"/><path fill="#d42e12" stroke="#000" stroke-width="2" d="M295.754 265.034c-7.995 8.892-7.913 17.948.163 26.922l3.019 3.345-3.427 3.753c-1.876 2.04-3.916 4.976-4.568 6.445-2.61 6.281-.653 14.684 4.487 19.498 3.1 3.018 3.181 4.242.244 7.832-1.305 1.55-2.855 3.752-3.426 4.894-6.119 11.585 3.019 26.107 16.561 26.107 5.384 0 9.464-1.714 13.135-5.63 2.937-3.1 4.487-3.181 7.097-.407 3.835 4.242 8.893 6.852 13.135 6.852 4.977 0 8.077-1.55 13.135-6.363l3.834-3.753 3.508 3.835c7.587 8.158 15.256 8.403 25.454.652l4.16-3.1 3.59 3.263c4.487 3.916 7.832 5.466 12.237 5.466s7.669-1.713 12.809-6.77l4.242-4.08 3.263 2.937c6.282 5.63 9.709 7.424 14.277 7.424 4.732 0 8.077-1.55 12.808-5.792 4.406-3.998 6.772-8.648 6.2-12.482-.57-4.161-4.323-11.748-7.097-14.359l-2.366-2.284 3.671-4.16c7.995-9.383 8.077-16.643.164-25.944l-3.264-3.916 3.427-4.16c7.668-9.056 7.587-17.459-.163-25.699l-4.161-4.323-76.36.081-76.361.082z"/><path d="M278.855 254.452s.05 76.333.206 105.481c-.26 4.313 2.267 5.358 5.968 8.23 5.986 4.645 12.372 9.508 46.626 6.85 31.46.22 38.06 2.64 41.36 15.18l1.76 7.04 1.54-7.04c2.42-12.1 9.886-14.96 40.246-15.18 39.084.587 42.33-1.866 47.93-6.644 0 0 4.092-3.15 5.147-6.174 1.184-3.395.617-6.17.617-6.17V147.531h-191.4zm189.2.88.411 88.069c0 11.856.854 15.492-.411 17.751s-3.826 5.266-3.826 5.266c-5.94 5.94-10.97 7.155-38.06 6.805-17.5.048-26.954.532-40.74 2.708-2.164 1.943-8.11 1.77-10.874 13.079-3.587-11.309-6.146-10.817-6.146-10.817-14.647-6.146-21.198-4.922-44.674-5.161-15.18 2.2-31.46-.66-37.62-6.82 0 0-.917.249-5.06-4.649.04-21.453 0-106.23 0-106.23v-105.6h187z"/><path fill="#fff" d="M348.088 195.609c-5.791 11.982-6.036 17.359-1.224 26.96 3.753 7.373 8.157 12.058 14.193 15.054 15.742 7.911 35.889 2.074 43.8-12.673 4.895-9.064 4.324-24.195-1.06-30.8l-1.468-1.767-1.387 5.223c-1.957 7.45-3.915 11.214-7.83 15.208-7.34 7.45-17.455 9.14-27.895 4.532-8.075-3.61-11.338-8.603-14.356-22.505l-.734-3.456z"/><path d="M346.175 196.372c-4.84 11-4.4 16.5 1.54 28.16 15.4 30.36 61.16 18.92 60.94-15.4-.22-5.5-.05-9.082-3.08-15.18-1.43-2.53-2.042-3.281-3.062-4.811-.403 1.657-1.008 4.591-2.218 9.431-4.4 16.94-18.92 24.86-34.1 18.48-8.58-3.52-12.54-9.24-14.74-21.12l-1.54-7.7zm14.96 21.78c10.56 6.82 26.62 4.62 34.76-4.4 3.3-3.74 5.327-9.575 6.16-12.54.822-2.926.983-3.364 1.48-6.287 1.276 2.833 1.978 4.322 2.58 8.704.89 6.473-.54 11.883-2.08 15.843-7.7 20.24-32.34 26.4-47.74 11.88-7.48-6.82-13.42-20.222-10.171-28.87 1.152-3.066 1.415-4.814 2.922-8.051.272 2.211.429 5.241 1.969 9.861 1.98 6.38 5.5 11 10.12 13.86"/><g id="b" stroke="#000"><path fill="#e9d315" stroke-width="1.625" d="M337.418 297.577c-.147 4.759.082 6.936.834 10.464-2.395-2.312-4.808-3.927-8.127-5.853-4.227-2.454-9.565-4.796-11.378-1.802-1.745 2.881 3.26 6.827 7.178 9.038 4.284 2.417 6.754 2.748 9.541 3.841-2.36 1.248-5.58 2.086-9.147 4.375-3.501 2.246-8.735 6.893-6.75 9.86 2.021 3.02 7.86-.374 11.152-2.577 2.742-1.835 6.37-4.732 7.781-6.214-.279 2.128-1.122 6.37-1.06 10.425.077 4.926.758 10.438 4.426 10.428 3.745-.009 4.541-6.5 4.482-10.889-.061-4.586-.585-7.828-1.036-10.091a76 76 0 0 0 7.297 6.571c2.664 2.1 9.187 5.21 11.14 2.23 1.99-3.032-1.107-6.047-6.796-9.657-3.987-2.53-6.81-3.396-9.408-4.472 2.627-1.077 5.498-1.353 9.697-3.905 6.229-3.786 8.868-6.318 6.959-9.578-1.856-3.169-5.607-1.438-11.303 2.186-3.052 1.942-5.908 4.515-7.843 6.366.442-2.913.918-7.206.882-10.387-.055-4.728-1.09-10.84-4.31-10.858s-4.05 5.294-4.211 10.499z"/><path fill="#fff" stroke-width="1.868" d="M346.662 313.299a5.011 5.011 0 1 1 0-.006"/></g><use xlink:href="#b" x="65.63"/></svg>