<svg xmlns="http://www.w3.org/2000/svg" version="1.0" viewBox="-15 -7.5 30 15"><defs><clipPath id="a"><path d="M-15-7.5h30v15h-30z"/></clipPath></defs><path fill="#00247D" d="M-15-7.5h30v15h-30z"/><g clip-path="url(#a)" transform="matrix(.5 0 0 .5 -7.5 -3.75)"><circle r="20" fill="#00247D"/><path stroke="#fff" stroke-width="3" d="m-20-10 40 20m-40 0 40-20"/><path stroke="#CF142B" stroke-width="2" d="m-20-10 40 20m-40 0 40-20"/><path fill="#fff" d="m0 0 20 10h-3L-3 0m3 0 20-10h3L3 0M0 0l-20 10h-3L-3 0m3 0-20-10h3L3 0"/><path stroke="#fff" stroke-width="5" d="M-20 0h40M0-10v20"/><path stroke="#CF142B" stroke-width="3" d="M-20 0h40M0-10v20"/></g><path d="M197.845 77.265c-2.706 2.296-5.284 5.64-5.917 8.663-1.782 8.513-4.149 10.407-7.805 8.579 0 4.57 4.008 4.921 5.766 2.25 0 4.289 1.555 8.006 5.062 11.179 1.477 1.336 1.758.422 1.055-1.054-.703-1.477-.703-6.258-2.109-9 2.25 1.617 5.554.703 5.273-3.727-2.883 1.688-5.748 1.621-6.047-2.39-.351-4.712 1.487-11.547 4.722-14.5zM194.422 43.4c.191-1.688-.17-3.423-1.404-4.51-2.384-2.1-4.72-1.405-6.458.286-2.602-1.406-3.984 3.58-6.937 2.737.492 1.617 1.266 2.32 2.742 1.758-1.547 1.406 0 3.093-1.828 4.78 3.305 1.056 5.063-.773 4.922-3.937 1.266 1.125 3.234 1.055 4.289-.21-1.758-.563-1.766-2.093-1.055-3.516 1.055-2.11 6.01-2.028 5.729 2.613z" style="fill:#f7e017;fill-opacity:1;stroke:#000;stroke-width:.125" transform="translate(-18.381 -8.684)scale(.11827)"/><path d="M202.053 67.858c-3.727 1.969-10.547 1.125-11.18-3.726-.633-4.852 4.078-7.032 5.344-7.665 1.973-.986 3.515.774 2.883 2.813 2.179-.773 2.672-3.305 1.617-4.781 2.883.21 5.555-1.969 6.68-5.063-1.011.963-3.768.312-6.038.166.703-.774.694-2.275.483-3.049-2.391 2.461-5.836 1.336-10.406 8.438.703-2.461 2.039-7.383 2.812-10.617.077-.324.137-.642.174-.973.281-4.64-4.668-4.724-5.723-2.615 1.156 1.305.549 2.827.135 5.135-.492 2.742-1.547 9.07-2.461 11.18-.281-3.305-2.461-3.516-2.883-5.133-.633.421-.984 1.546-.843 2.32-.774-.844-3.446.21-4.43-1.055-1.055 2.11.633 4.219 2.39 5.133-1.019.07-1.265 1.3-2.39 1.3 1.512 1.759 3.058 2.462 4.851 2.602s3.129.808 4.219 2.989c1.758 3.515 8.455 5.8 14.766 2.601z" style="fill:#337321;fill-opacity:1;stroke:#000;stroke-width:.125" transform="translate(-18.381 -8.684)scale(.11827)"/><path d="M211.334 63.57c-2.109 5.835-7.875 9.983-10.477 10.616-4.427 1.077-13.457 5.46-15.881 7.717-.383-.085-.738-.224-.994-.404-1.195-.844-2.179-3.586-.07-5.906 6.61-6.188 13.711-3.516 18.141-7.735-3.727 1.969-10.547 1.125-11.18-3.726 4.008 1.054 11.25 1.125 17.016-5.063.773.844 3.023 3.516 3.445 4.5z" style="fill:#f7e017;fill-opacity:1;stroke:#000;stroke-width:.125" transform="translate(-18.381 -8.684)scale(.11827)"/><path d="M197.845 77.265c-3.34 2.834-5.073 9.788-4.722 14.5.098 1.31.466 2.198 1.023 2.743.246-2.672 2.104-9.576 6.852-12.658 4.008-2.601 10.266-8.437 12.586-15.117-.422-1.195-1.125-2.039-2.461-2.883-2.296 6.304-8.462 9.328-13.278 13.415z" style="fill:#337321;fill-opacity:1;stroke:#000;stroke-width:.125" transform="translate(-18.381 -8.684)scale(.11827)"/><path d="M209.19 60.862c-1.196 1.793-3.903 4.254-6.504 5.238.562-.632.738-1.441.773-2.11-3.305 1.267-9.914 1.126-12.586.142 4.008 1.054 11.25 1.125 17.016-5.063.562.633 1.054 1.195 1.301 1.793z" style="fill:#316d3a;fill-opacity:1;stroke:#000;stroke-width:.125" transform="translate(-18.381 -8.684)scale(.11827)"/><path d="M183.912 75.593c-5.374 5.03-1.828 9.421.281 10.406-.562 3.515 2.743 3.094 2.672 6.047 1.336-.774 1.688-2.813 1.477-4.43 1.687 1.828 5.976-.211 6.89 3.164.563-3.727-2.32-7.453-5.906-7.102 1.477-1.335.633-3.515-.773-4.078-.281 2.743-3.375 2.743-4.571 1.899s-2.179-3.586-.07-5.906z" style="fill:#337321;fill-opacity:1;stroke:#000;stroke-width:.125" transform="translate(-18.381 -8.684)scale(.11827)"/><path d="M195.549 107.585c-.587.335-.544 1.091-.176 1.582.738.984-.52 3.215 1.863 3.691.704.141 1.245-.289 1.512-1.09.738-2.215-1.617-2.461-1.828-3.515s-.879-.95-1.371-.668z" style="fill:#f7e017;fill-opacity:1;stroke:#000;stroke-width:.125" transform="translate(-18.381 -8.684)scale(.11827)"/><path d="M197.553 111.733c-.789.364-1.477.879-1.16 3.41.13 1.047.07 3.586-.844 3.621.562.282 1.758.58 2.25-.07.474.791 1.547.563 1.969-.422.562.457 1.336-.316 1.336-.984.492.316 1.476-.141 1.23-1.652.598.21 1.371-.211 1.652-.598-.879-.176-3.093-1.371-3.621-2.32-.527-.95-1.898-1.407-2.812-.985z" style="fill:#f7e017;fill-opacity:1;stroke:#000;stroke-width:.125" transform="translate(-18.381 -8.684)scale(.11827)"/><path d="M185.371 40.62a9 9 0 0 1 1.189-1.444m12.188 10.752c.621-.354 1.564-.394 2.611-.326m-3.56 69.092c-.246-.351-.334-1.828-.158-2.725m2.127 2.303c-.387-.299-1.125-1.318-1.248-2.215m2.584 1.231c-.493-.229-1.688-1.776-1.952-2.777m3.182 1.125c-.58-.124-2.355-1.284-3.094-2.514" style="fill:none;stroke:#000;stroke-width:.125" transform="translate(-18.381 -8.684)scale(.11827)"/><path d="M234.748 75.663c8.649 7.242 9.211 13.008 7.875 16.383-.703-3.164-4.289-8.086-8.016-9.352z" style="fill:#f7e017;fill-opacity:1;stroke:#000;stroke-width:.125" transform="translate(-18.381 -8.684)scale(.11827)"/><path d="M219.279 71.585h16.032v18.984c0 16.172-9 25.734-18.141 30.797-9.141-5.063-18.141-14.625-18.141-30.797V71.585h11.25c.018.984.106 2.46 1.266 3.937 2.654-.264 5.66-2.25 7.734-3.937z" style="fill:#337321;fill-opacity:1;stroke:#000;stroke-width:.125" transform="translate(-18.381 -8.684)scale(.11827)"/><path d="M235.311 71.585v18.984c0 4.882-.821 9.162-2.217 12.897l-15.924-29.21-15.924 29.21c-1.397-3.735-2.217-8.015-2.217-12.897V71.585z" style="fill:#006ec7;stroke:#000;stroke-width:.125" transform="translate(-18.381 -8.684)scale(.11827)"/><path d="M233.579 102.065c-.281.861-.791 2.259-1.186 3.12l-15.223-28.29-15.223 28.29c-.395-.861-.905-2.259-1.186-3.12l16.409-30.426z" style="fill:#f7e017;fill-opacity:1;stroke:none;stroke-width:.125" transform="translate(-18.381 -8.684)scale(.11827)"/><g style="fill:#f7e017"><path d="M224.408 112.468c.422.211 1.199.601 1.551.742.844-1.688.984-4.078.703-6.188-.914 2.321-4.008 2.25-4.851 3.656.519.26 1 .6 1.415.9-1.055 1.054-3.525 2.827-4.931 3.249V99.745c0-1.055-.352-1.934-.352-2.813v-3.118c0-.703-.14-1.722-.773-1.722s-.773 1.02-.773 1.722v3.118c0 .88-.352 1.899-.352 2.813v15.082c-.773-2.25-3.802-1.48-5.208-3.73a4 4 0 0 1 1.692-.067c-1.054-3.586-3.937-3.867-4.5-4.922 0 1.477-.632 4.922.352 6.399.221-.265.553-.537.952-.781 1.195 2.602 6.571 2.609 7.837 6.898 1.016-1.575 4.676-3.405 7.238-6.156z" style="fill:#f7e017;fill-opacity:1;stroke:#000;stroke-width:.125" transform="translate(-18.381 -8.684)scale(.11827)"/><path d="M217.17 99.92c1.195 0 4.992-.388 6.363-.388.357 0 .647-.534.647-1.193 0-.66-.29-1.194-.647-1.194-1.371 0-5.168-.388-6.363-.388s-4.992.388-6.363.388c-.357 0-.647.535-.647 1.194s.29 1.193.647 1.193c1.371 0 5.168.389 6.363.389z" style="fill:#f7e017;fill-opacity:1;stroke:#000;stroke-width:.125" transform="translate(-18.381 -8.684)scale(.11827)"/><path d="M216.4 93.74a1.52 1.52 0 0 0-.952-.328c-.797 0-1.442.59-1.442 1.317s.645 1.316 1.442 1.316 1.441-.59 1.441-1.316c0-.563.818-.563.818 0 0 1.139-1.011 2.063-2.259 2.063s-2.26-.924-2.26-2.063 1.012-2.063 2.26-2.063c.374 0 .727.083 1.038.23-.028.189-.086.541-.086.844zm-5.593 5.792c.357 0 .646-.534.646-1.193 0-.66-.289-1.194-.646-1.194" style="fill:#f7e017;stroke:#000;stroke-width:.125" transform="translate(-18.381 -8.684)scale(.11827)"/><path d="M211.338 99.532c.357 0 .646-.534.646-1.193 0-.66-.289-1.194-.646-1.194m3.471 2.632c.43 0 .779-.644.779-1.438 0-.795-.349-1.439-.779-1.439m.808 2.942c.45 0 .815-.673.815-1.503s-.365-1.504-.815-1.504m2.698 3.025c.455 0 .824-.682.824-1.521 0-.84-.369-1.521-.824-1.521m.853 2.992c.45 0 .814-.658.814-1.471s-.364-1.473-.814-1.473m3.776 2.689c.364 0 .66-.544.66-1.216s-.296-1.217-.66-1.217m-13.611 14.604a5.4 5.4 0 0 1 1.504-.629m12.802.777q-.194-.137-.413-.296m1.182.89c.985-1.057 1.805-2.252 2.254-3.618" style="fill:#f7e017;stroke:#000;stroke-width:.125" transform="translate(-18.381 -8.684)scale(.11827)"/></g><path d="M213.95 85.006c0-.343.282-.49.61-.739.396-.299.554-.44.914-.44h4.615c.342 0 .421.089.421.405v6.275c0 .317-.079.405-.421.405h-6.139v-5.968" style="fill:#fff;stroke:#000;stroke-width:.125" transform="translate(-18.381 -8.684)scale(.11827)"/><path d="M218.946 91.457c.606 0 .497-.013.923-.44.444-.443.402-.404.402-.812v-5.738c0-.296-.073-.378-.391-.378h-4.27c-.334 0-.48.131-.846.41-.304.233-.561.37-.561.691v6.267z" style="fill:#e5e5e5;stroke:#000;stroke-width:.125" transform="translate(-18.381 -8.684)scale(.11827)"/><path d="M219.403 91.325c0 .316-.079.404-.422.404h-4.614c-.343 0-.417-.088-.417-.404v-6.276c0-.316.074-.404.417-.404h4.614c.343 0 .422.088.422.404z" style="fill:#fff;stroke:#000;stroke-width:.125" transform="translate(-18.381 -8.684)scale(.11827)"/><path d="M228.348 67.908c.899 1.001 1.195 2.352.705 3.67h-1.336c.562-1.687.211-3.298-2.18-3.509-3.575-.315-7.734 6.61-13.992 7.453-1.828-2.18-1.73-6.332.59-8.3-1.199-3.458-3.733-7.261-5.486-8.908-1.148-.186-2.474-.28-3.331-.23.914-1.968 3.519-4.04 5.629-4.884.341-.5.708-.979 1.051-1.408.211-2.707 13.078-1.442 15.82.246 0 3.023 1.194 13.127 2.53 15.87z" style="fill:#96877d;fill-opacity:1;stroke:#000;stroke-width:.125" transform="translate(-18.381 -8.684)scale(.11827)"/><g style="fill:#000"><path d="M212.752 69.753c-.306-4.686-2.2-8.546-4.863-11.176 1.265.351 3.867.351 5.625-.914 2.32-1.547 8.367-4.254 10.582-3.094.176.387.281 1.266.14 1.828-.527-1.406-6.363.774-8.015 1.442-1.582.738-2.285 1.722-1.723 3.937-.914-.773-.598-1.512-1.547-2.074.387.914.703 2.566.809 3.902-.352-.949-.985-2.988-2.356-4.183 1.196 2.32 2.233 7.892 1.741 10.845.949 0 3.041-.931 3.884-1.6-.738 1.055-2.865 1.794-4.236 2.075-.615.738-1.037 2.637-1.002 3.691-.105-1.3.305-4.471.961-4.679m15.596-1.845c-1.164-1.296-3.336-1.998-6.116-1.245a9 9 0 0 1 2.145-.703c-.105-.739-.773-3.903-.879-4.676l.774-.316c.386 1.898.878 4.078 1.195 4.956.246.07.808.176 1.301.422-.211-.738-1.407-6.047-1.371-6.609l1.054-.562c.422 2.882 1.09 7.066 1.897 8.733" style="fill:#000;stroke:none" transform="translate(-18.381 -8.684)scale(.11827)"/></g><path d="M227.717 71.579c.562-1.688.211-3.299-2.18-3.51-1.853-.163-3.863 1.637-6.242 3.51zm-15.539-15.147c-1.055.141-3.41-.07-4.606-.457.069-.317.192-.646.35-.994-.739.492-2.143 1.451-2.67 2.12 1.688.35 5.171.526 6.926-.669z" style="fill:#96877d;fill-opacity:1;stroke:#000;stroke-width:.125" transform="translate(-18.381 -8.684)scale(.11827)"/><path d="M212.135 67.222c.388 1.12.641 2.204.676 3.167M208.947 53.2c-.638.931-1.192 1.928-1.375 2.775 1.196.387 3.551.598 4.606.457" style="fill:none;stroke:#000;stroke-width:.125" transform="translate(-18.381 -8.684)scale(.11827)"/><path d="M206.649 58.314c.455.074.881.163 1.24.263 1.265.351 3.867.351 5.625-.914s6.539-5.203 11.953-5.625" style="fill:none;stroke:#000;stroke-width:.125" transform="translate(-18.381 -8.684)scale(.11827)"/><path d="M205.252 57.1c1.688.352 5.171.527 6.926-.668 4.078-2.777 8.015-4.394 11.953-4.605" style="fill:none;stroke:#000;stroke-width:.125" transform="translate(-18.381 -8.684)scale(.11827)"/><path d="M234.748 75.663c5.906 4.078 10.266 8.015 11.531 14.344s3.657 8.015 6.61 6.328c-.703 3.656-4.36 4.078-7.453 1.265.281 4.219-1.407 9.282-5.766 11.11-.281-2.532 1.392-4.536.914-6.61-.211-.914-.281-3.023.914-4.007-2.32.773-5.976-.704-6.328-4.149 2.672 1.266 6.117 1.477 7.453-1.898s.774-9.141-7.875-16.383zm7.453-32.906c1.828-4.782 6.61-4.29 8.227-2.25 4.711-2.672 5.344 3.375 9.351 2.18-.07 1.124-1.406 2.179-2.882 2.109 1.546 1.406-.633 3.515 2.671 4.78-2.812 1.407-6.75-.07-7.804-3.937-.914 1.828-4.219 1.828-5.555.352 2.883-.773 2.672-3.445 1.055-4.5-1.629-1.062-4.5-.633-5.063 1.266zm-14.263 10.529c1.312 4.232 4.026 8.164 6.951 10.846 3.375 3.093 8.472 2.32 11.32-.633.07 5.888-6.029 6.345-9.422 4.5-1.495-.814-2.705-.386-1.265.914 2.179 1.969 6.948 3.432 12.585 4.64 9.844 2.11 6.329 9.915 3.446 9.844.826-.018 1.504-.883.316-1.951-8.543-7.682-25.91-4.658-25.629-21.814-1.828 4.5-9.351 2.742-5.836-2.602 1.125.914 3.094.984 3.657-.422.437-1.094.151-2.997-1.819-4.632.324-.026 1.019 0 .948-.808.088.474.519 1.177 1.626.94.317.501.649.83 1.099.65.088-.035.352-.166.246-.668.088.932 1.195 1.266 1.777 1.196z" style="fill:#337321;fill-opacity:1;stroke:#000;stroke-width:.125" transform="translate(-18.381 -8.684)scale(.11827)"/><path d="M236.787 67.999c4.078 2.672 8.689 2.67 12.938-2.25 1.336-1.547 3.445-2.883 4.922-3.024 1.476-.14 1.406-1.547 2.531-1.828-.703-.21-.985-1.054-2.039-.949 2.636-.914 1.863-3.023 3.164-4.043-1.055.387-2.707-1.195-4.219.809.387-.914-.141-2.004-.527-2.426.14 1.055-2.075 1.265-2.496 3.937-.237 1.5-1.055 1.407-1.196-.914-.103-1.697-.914-6.398-1.898-8.789-.985-2.39-1.21-5.672.126-6.165a2.65 2.65 0 0 0-.829-.866c-1.629-1.062-4.5-.633-5.063 1.266-1.828 4.78 3.305 7.523 2.883 12.726-.773-3.867-7.031-4.851-6.961-8.648-2.039.914-1.758 2.601-.984 3.937-1.266-1.969-4.149 1.266-6.61-1.406-.281 3.516 2.813 4.852 5.344 4.992-1.266 2.25.422 4.149 2.109 4.781.071-3.937 8.145-2.321 8.227 4.43.07 5.766-6.117 6.258-9.422 4.43zm11.32 5.554c9.844 2.11 6.329 9.915 3.446 9.844-1.836-.045-3.586-1.582-3.692-2.918-2.109 1.125-1.546 3.34.071 4.219-4.43-.527-6.293 2.39-6.399 5.59.809-1.477 3.27-1.582 4.184-1.266s3.269.492 4.219-.562c-.774.668.492 2.215-.598 3.41 3.691-.14 5.309-3.586 4.676-5.098 4.781-4.36 3.867-11.46-5.907-13.219zm-7.494 33.408c.641.4.56 1.241.127 1.773-.867 1.067.44 3.612-2.241 4.04-.791.126-1.377-.378-1.64-1.283-.727-2.504 1.913-2.676 2.194-3.844.282-1.168 1.023-1.022 1.56-.686z" style="fill:#f7e017;fill-opacity:1;stroke:#000;stroke-width:.125" transform="translate(-18.381 -8.684)scale(.11827)"/><path d="M238.195 111.504c.865.441 1.61 1.045 1.147 3.857-.192 1.163-.235 3.999.784 4.079-.641.289-1.988.57-2.509-.177-.564.862-1.751.561-2.179-.557-.648.486-1.477-.411-1.448-1.157-.563.332-1.642-.221-1.302-1.898-.676.21-1.521-.295-1.818-.739.989-.158 3.513-1.395 4.143-2.432s2.18-1.487 3.182-.976z" style="fill:#f7e017;fill-opacity:1;stroke:#000;stroke-width:.125" transform="translate(-18.381 -8.684)scale(.11827)"/><path d="M237.617 119.263c.29-.382.453-2.026.296-3.034m-2.475 2.477c.445-.316 1.313-1.422 1.49-2.417m-2.938 1.26c.559-.233 1.961-1.908 2.299-3.015m-3.601 1.117c.653-.112 2.685-1.329 3.563-2.67" style="fill:none;stroke:#000;stroke-width:.125" transform="translate(-18.381 -8.684)scale(.11827)"/><path d="M226.24 59.632c-.118 7.207 2.878 10.853 7.027 13.227-1.542-.923-.874-4.087-2.949-5.106.493-.035 1.266.668 2.497.386-.598-1.336-1.583-3.375-3.868-3.656.598-.07 1.899.14 2.743-.176-1.196-1.828-4.36-.949-5.45-4.675zm-.746-6.854c-.253-.083-.468-.338-.678-.67-1.107.237-1.538-.466-1.626-.94.071.808-.628.778-.953.803 1.979 1.638 2.262 3.541 1.824 4.637-.563 1.406-2.532 1.336-3.657.422-.14 2.988 3.727 3.973 5.133.21 0 .634.809.563 1.02 1.407 1.004-1.616.246-3.937-1.063-5.869z" style="fill:#f7e017;fill-opacity:1;stroke:#000;stroke-width:.125" transform="translate(-18.381 -8.684)scale(.11827)"/><path d="M219.315 38.503c-1.758-1.617-2.567-4.325-2.497-5.871s.704-3.235 2.954-2.532c-.704 0-.211 1.407-.95 1.547.598.211 1.407-.281 1.512-.598.141.493 1.055.352 1.125.915.352-.282-.035-1.653-.562-1.934.386-.21.597-1.3.421-1.828-.351.07-.878.562-.984 1.265.176-.562-.035-1.968-1.019-2.18-.282.387-.352 1.337.035 1.864-.914-.21-2.25.387-2.567 1.16.071-.931.199-2.258.774-3.093.193-.282-.282-.774-.651-.106-.685-1.336-2.513-2.039-3.322-1.371s-1.898-.317-2.566.738-2.931 1.166-2.813 2.285c.07.668-.091 1.7-.422 2.075-.808.914.387 1.582.598 2.39-.141-2.672 4.113-7.875 8.367-5.836-.387.668-.725 2.002-.844 3.621-.175 2.391.176 5.766 2.496 7.735z" style="fill:#337321;fill-opacity:1;stroke:#000;stroke-width:.125" transform="translate(-18.381 -8.684)scale(.11827)"/><path d="M220.58 30.136c-.023-.634 1.072-1.457 2.549-1.442 1.775.018 3.146 1.635 4.57 1.477 1.424-.159.721.632.422.843s-.474.528-.369.914c.105.387-.077.64-.65.282-1.266-.791-2.532.316-4.202-.3-1.448-.533-2.285-.825-2.32-1.774z" style="fill:#cf142b;fill-opacity:1;stroke:#000;stroke-width:.125" transform="translate(-18.381 -8.684)scale(.11827)"/><path d="M213.338 46.73c-.703-2.216-3.375-4.641-4.676-5.204l-.07-1.195c.703-.282 2.39-1.617 3.164-2.356 5.273 2.532 12.445-1.054 15.75-4.78l1.266.773-.633.843-.668-.351c-.809.984-3.828 3.825-4.742 4.422 1.229.311 2.909.525 3.371.5 2.953-2.11 5.273-4.008 6.398-4.149l.949 1.266-.843.597-.668-.386c-3.164 2.601-6.75 8.297-8.157 12.093-1.968-.421-9-.14-10.441-2.074z" style="fill:#96877d;fill-opacity:1;stroke:#000;stroke-width:.125" transform="translate(-18.381 -8.684)scale(.11827)"/><path d="M222.729 38.882c-.455-.115-.847-.246-1.094-.38-.563.528-1.969.985-3.762 1.055" style="fill:none;stroke:#000;stroke-width:.125" transform="translate(-18.381 -8.684)scale(.11827)"/><path d="M213.619 45.956c-.474-2.62.281-5.52 1.617-6.399 2.918 1.934 7.911 1.934 10.864-.175" style="fill:none;stroke:#000;stroke-width:.125" transform="translate(-18.381 -8.684)scale(.11827)"/><path d="M213.619 44.585c2.25-.07 7.137.316 8.332.492s3.199.668 2.918 1.266m-10.209-2.131.647-.647-.647-.646-.646.646z" style="fill:none;stroke:#000;stroke-width:.125" transform="translate(-18.381 -8.684)scale(.11827)"/><path d="M216.186 31.12c-.809-1.125-3.037-1.481-3.516.035-.211.668-.527 1.371-1.055 1.688s-.403 1.274-.175 1.687c.562 1.02.07 2.004 1.16 2.672 0-.809 1.195-1.652 2.215-1.863s2.566-1.125 2.777-2.145.562-1.863-1.406-2.074z" style="fill:#337321;fill-opacity:1;stroke:#000;stroke-width:.125" transform="translate(-18.381 -8.684)scale(.11827)"/><path d="M211.123 41.245h.281l.005 1.923c.057.02.121.047.167.088l1.657-.955.141.243-1.663.966a.5.5 0 0 1 .007.189l1.656.957-.141.244-1.667-.958a.5.5 0 0 1-.161.101l-.001 1.913h-.281l-.004-1.923a.5.5 0 0 1-.168-.089l-1.657.956-.14-.244 1.662-.965a.5.5 0 0 1-.007-.19l-1.655-.957.14-.243 1.668.957a.5.5 0 0 1 .16-.1z" style="fill:#96877d;stroke:#000;stroke-width:.125" transform="translate(-18.381 -8.684)scale(.11827)"/><path d="M213.628 45.947a3.332 3.332 0 1 1 .286-4.365c-.172.419-.371 1.36-.386 1.786a2.276 2.276 0 1 0-2.264 2.509 2.326 2.326 0 0 0 2.223-1.705c-.001.417.009 1.423.141 1.775z" style="fill:#96877d;fill-opacity:1;stroke:#000;stroke-width:.125" transform="translate(-18.381 -8.684)scale(.11827)"/><path d="M209.857 49.12c-.21-.246-.597-.914-.562-1.406.316-.036.914.175 1.195.457-.035-.352-.175-1.125-.105-1.477.387.14 1.195.598 1.476 1.125-.07-.352-.211-1.266-.07-1.828.422.246 1.125.914 1.266 1.371.035-.703.281-1.863.492-2.145.316.317.808.598 1.125 1.02.07-.562.351-1.23.773-1.406.317.351.809 1.16.914 2.074.317-.105.739-.633.914-.914.176.281.352.773.247 1.371.386-.352.843-.844.949-1.266.281.211.808.739.949 1.301-.07-.457-.035-1.265-.176-1.722.528.28.949.773 1.055 1.3.141-.492.457-1.37.738-1.582.281.563.563 1.23.528 1.793.175-.351.457-.984.738-1.125.246.387.211 1.23.14 1.688.247-.352.704-.774.985-.914.035.21.07.633 0 .949.316-.176.844-1.125 1.019-1.617.493.246.985 1.09 1.02 1.511.351-.14 1.055-.773 1.265-1.125 0 .247.106.915-.035 1.442.211-.211.422-.633.528-.809.14.352.035 1.196-.106 1.653.317-.282.774-.457 1.055-.457.035.597-.387 1.652-.774 2.425-3.375-.949-10.441-1.3-17.543-1.687z" style="fill:#337321;fill-opacity:1;stroke:#000;stroke-width:.125" transform="translate(-18.381 -8.684)scale(.11827)"/><path d="M221.627 30.495c-.017-.259.562-.845 1.597-.84 1.242.008 2.389.92 3.386.855s.505.258.296.345-.333.215-.259.374c.074.158-.054.261-.455.115-.886-.324-1.772.13-2.941-.123-1.014-.218-1.6-.337-1.624-.726" style="fill:#f7e017;fill-opacity:1;stroke:none" transform="translate(-18.381 -8.684)scale(.11827)"/><g style="fill:#f7e017"><path d="M210.947 51.23c-1.054 1.265-2.109 1.054-2.32.245-.211-.808.563-1.195.281-1.898s.457-1.02.809-.703c.351.316 1.476-.703 1.969.351.492 1.055.879 1.793.597 2.215-.281.422-1.125.211-1.336-.21zm4.535-1.9c-.198-.462.897-1.353 1.459-.72s1.442-.685 1.934.316.65 1.53.897 2.092c.246.563-1.336.861-1.829.37.071.333-1.366.595-1.757-.352-.211-.51-.44-1.09-.704-1.705zm7.313.58c-.264-.491 1.02-1.194 1.687-.298.176-.37 1.442-.44 1.53.633s.123 1.705.158 2.127-.773.808-1.354-.264c-1.037.211-1.511-.37-1.634-.984-.123-.616-.246-.914-.387-1.213z" style="fill:#f7e017;stroke:#000;stroke-width:.125" transform="translate(-18.381 -8.684)scale(.11827)"/></g><g style="fill:#337321"><path d="M211.633 49.208c-.158-.352.896-1.055 1.617-.528.721.528 1.719-.455 2.145.492.861 1.917.914 2.057.65 2.426s-1.389.229-1.67-.281c-.053.352-1.023.294-1.529.018-.58-.317-.985-1.495-1.213-2.127zm7.4.088c-.246-.545 1.407-1.02 2.127-.07.369-.335 1.178-.352 1.635.685s.527 1.617.193 1.88c-.235.186-1.09.335-1.371-.14-.387.246-1.582.035-1.845-.633-.264-.668-.493-1.248-.739-1.722zm6.996 1.037c-.035-.492.862-.721 1.196 0 .334.72 1.402.071 1.494 1.265.017.229-.123 1.108-.457 1.53s-1.969 0-2.074-.897a22 22 0 0 1-.159-1.898z" style="fill:#337321;fill-opacity:1;stroke:#000;stroke-width:.125" transform="translate(-18.381 -8.684)scale(.11827)"/></g><path d="M210.947 51.23c-.386-.528-.914-1.372-1.582-.458m5.01.545c-.228-.299-.527-.79-.633-1.178m4.201 1.248c-.246-.175-.615-.527-.808-.896m.492-.949c.615.07 1.037.65 1.23.914.194.263.598.738.915.79m1.845.405c-.211-.334-.422-.633-.474-.879m.017-1.547c.211.3.369.545.492.826m3.164 2.057c-.281-.527-.72-1.037-1.089-1.213m.949-.72c.035 1.037 1.424 1.107 1.476 1.845m1.073-1.687c.14.263.193.527.211.967" style="fill:none;stroke:#000;stroke-width:.125" transform="translate(-18.381 -8.684)scale(.11827)"/></svg>