<svg xmlns="http://www.w3.org/2000/svg" xmlns:xlink="http://www.w3.org/1999/xlink" version="1.0" viewBox="0 0 750 375"><defs><linearGradient id="c"><stop offset="0" style="stop-color:#d5dfff;stop-opacity:1"/><stop offset="1" style="stop-color:#fff;stop-opacity:1"/></linearGradient><linearGradient id="a"><stop offset="0" style="stop-color:#474747;stop-opacity:1"/><stop offset="1" style="stop-color:#f50;stop-opacity:1"/></linearGradient><linearGradient id="b"><stop offset="0" style="stop-color:#b50000;stop-opacity:1"/><stop offset="1" style="stop-color:#ffc500;stop-opacity:1"/></linearGradient><linearGradient xlink:href="#a" id="g" x1="215.829" x2="228.969" y1="102.987" y2="102.987" gradientTransform="matrix(.74087 0 0 1.3286 40.513 .006)" gradientUnits="userSpaceOnUse"/><linearGradient xlink:href="#a" id="d" x1="109.339" x2="110.939" y1="218.473" y2="173.448" gradientTransform="matrix(1.51006 0 0 .65184 40.513 .006)" gradientUnits="userSpaceOnUse"/><linearGradient xlink:href="#b" id="e" x1="125.913" x2="126.024" y1="316.383" y2="337.232" gradientTransform="matrix(1.2315 0 0 .79928 40.513 .006)" gradientUnits="userSpaceOnUse"/><linearGradient xlink:href="#c" id="h" x1="117.597" x2="78.221" y1="1040.396" y2="1003.724" gradientTransform="matrix(2.56272 0 0 .38409 40.513 .006)" gradientUnits="userSpaceOnUse"/><linearGradient xlink:href="#c" id="i" x1="264.717" x2="255.03" y1="245.976" y2="226.378" gradientTransform="matrix(.88634 0 0 1.11054 40.513 .006)" gradientUnits="userSpaceOnUse"/><linearGradient xlink:href="#c" id="f" x1="407.874" x2="456.404" y1="149.375" y2="147.348" gradientTransform="matrix(.55904 0 0 1.76073 40.513 .006)" gradientUnits="userSpaceOnUse"/></defs><path d="M0 0h992.126v496.063H0z" style="font-size:12px;fill:#00247d;stroke-width:1pt;fill-opacity:1" transform="scale(.75595)"/><g style="font-size:12px"><path d="M0 0v3.354L53.292 30H60v-3.354L6.708 0zm60 0v3.354L6.708 30H0v-3.354L53.292 0z" style="font-size:12px;fill:#fff;stroke-width:1pt;stroke:none" transform="scale(6.25)"/><path d="M25 0v30h10V0zM0 10v10h60V10z" style="font-size:12px;fill:#fff;stroke-width:1pt;stroke:none" transform="scale(6.25)"/><path d="M0 12v6h60v-6zM27 0v30h6V0zM0 30l20-10h4.472l-20 10zM0 0l20 10h-4.472L0 2.236zm35.528 10 20-10H60L40 10zM60 30 40 20h4.472L60 27.764z" style="font-size:12px;fill:#cf142b;stroke-width:1pt;fill-opacity:1;stroke:none" transform="scale(6.25)"/></g><path d="M146.967 393.042s-3.346 8.842-5.257 8.842c-1.912 0-8.842-3.823-8.842-3.823s-5.019 8.125-7.647 8.603c-2.63.478-9.56-1.195-9.56-1.195s-6.69 0-6.93-.956c-.238-.956.24-2.868.24-2.868s-9.56 7.647-11.71 7.17-9.32-9.56-9.32-9.56l-1.195 4.78-13.621-.478-11.949-7.647s-6.69 10.993-6.93 10.754-11.71 2.628-11.71 2.628l-.716-2.15-7.647-4.54s5.974-8.365 5.974-8.604-2.868-1.195-2.868-1.195l-4.301 3.585-8.842 5.735-8.842-4.062 3.824-7.17.478-5.257 6.93-10.514 84.834-82.445 41.82 77.187z" style="fill:#6a4c2d;fill-opacity:1;fill-rule:evenodd;stroke:#000;stroke-width:1pt;stroke-linecap:butt;stroke-linejoin:miter;stroke-opacity:1" transform="translate(461.4 21.482)scale(.621)"/><path d="m207.237 398.037 22.083-.792-9.4-4.643 84.14-3.171-11.89-4.53-10.532-14.269-43.599-3.284s-3.284-2.491-8.606-1.245c-.227-3.398-4.304-7.814-4.304-7.814l-26.838-2.039-16.76 11.438 11.324 28.99z" style="fill:#fff;fill-opacity:1;fill-rule:evenodd;stroke:#000;stroke-width:1pt;stroke-linecap:butt;stroke-linejoin:miter;stroke-opacity:1" transform="translate(461.4 21.482)scale(.621)"/><path d="m121.319 150.758 2.224-7.562s3.891-6.56 3.891-9.452c0-2.891 2.892-6.338 2.892-6.338s8.896-2.558 10.786 2.891c9.563-14.456 20.794-.667 20.794-.667l3.114-3.67 6.338-7.784s9.007 8.451 9.119 9.897c.11 1.446 1.556.445 1.556.445l9.786-.778s4.644 3.635 3.67 10.563c3.448 2.034 6.56 14.012 6.56 14.012z" style="fill:url(#d);fill-opacity:1;fill-rule:evenodd;stroke:#000;stroke-width:1pt;stroke-linecap:butt;stroke-linejoin:miter;stroke-opacity:1" transform="translate(461.4 21.482)scale(.621)"/><path d="M207.254 240.725c1.686-1.038 7.004-2.724 6.355-10.506-.648-7.781-7.392-8.69-11.154-8.43-3.76.26-7.133 3.502-7.133 3.502l-12.45-7.912s6.225-39.297 12.84-41.762c6.281-4.526 7.392-6.484 7.392-7.522s-2.335-3.631-2.335-3.631l-40.595-4.8-38.39 4.54s-2.983 4.54-2.593 6.355c.389 1.816.518 3.761 7.392 9.079 7.606 5.85 12.84 39.427 12.84 39.427s-10.765 5.318-11.413 4.67c-.648-.649-3.89-1.297-5.577-1.038-1.686.26-7.263 3.113-7.263 10.505s5.577 11.673 5.577 11.673 36.704-4.28 42.151 5.836c5.318-12.191 40.206-7.911 44.356-9.986z" style="fill:#656263;fill-opacity:1;fill-rule:evenodd;stroke:#000;stroke-width:1pt;stroke-linecap:butt;stroke-linejoin:miter;stroke-opacity:1" transform="translate(461.4 21.482)scale(.621)"/><path d="M246.79 199.869s.407-4.266 3.453-6.297c3.047-2.031 23.359-3.047 28.234 0s6.703 18.078 6.703 18.078 3.047 5.281 3.25 9.14.609 6.5.609 6.5 16.25 21.125 16.453 40.218c1.829 13 1.422 47.733-3.656 60.936-.203 16.452-7.109 27.218-7.109 27.218s1.625 2.843 1.422 5.89-1.829 5.891-1.829 5.891l23.765 11.781-8.734-3.25s8.938 7.515 8.734 7.312c-.203-.203-9.952-4.672-9.952-4.672l5.89 5.891c-.203-.204-14.421-6.5-14.421-6.5s6.702 6.297 6.296 6.093a4543 4543 0 0 0-10.765-5.078s6.5 6.906 6.297 6.5-9.344-4.062-9.344-4.062l.406 3.453s-7.312-.406-7.312-5.891c-3.656-2.031-6.094-4.875-6.094-4.875l-16.858-2.843-19.094-57.077 4.469-96.482 1.219-4.875z" style="fill:#000;fill-opacity:1;fill-rule:evenodd;stroke:#000;stroke-width:1.25;stroke-linecap:butt;stroke-linejoin:round;stroke-dasharray:none;stroke-opacity:.978541" transform="translate(461.4 21.482)scale(.621)"/><path d="M234.031 508.205s-9.779-20.579-14.656-20.867c-4.4-8.387 15.291-76.962 53.381-80.871 20.941 1.725 1.722 24.141-12.047 17.243 1.72 6.035 8.605 14.657 8.605 14.657s-27.252 11.783-35.283 69.838z" style="font-size:12px;fill:#fb0;fill-opacity:1;fill-rule:evenodd;stroke:#000;stroke-width:.99322701pt" transform="translate(461.4 21.482)scale(.621)"/><path d="M102.914 511.196s8.094-23.416 13.009-23.705c4.914-.289-13.009-78.053-52.035-78.631-21.103 1.735-1.735 24.283 12.141 17.345-1.734 6.071-8.672 14.743-8.672 14.743s27.463 11.853 35.557 70.248z" style="fill:#fb0;fill-opacity:1;fill-rule:evenodd;stroke:#000;stroke-width:1pt;stroke-linecap:butt;stroke-linejoin:miter;stroke-opacity:1" transform="translate(461.4 21.482)scale(.621)"/><path d="M138.708 364.933c-.094-.188-9.686 3.009-3.479 13.448.47-4.044 4.796-6.489 4.796-6.489s-6.583 7.805.376 14.388c.846-6.206 4.796-8.181 4.796-8.181s-4.89 14.388.094 17.303c.564-5.737 4.232-8.276 4.232-8.276s-4.42 12.884-.47 15.799c.47-4.89 3.761-7.053 3.761-7.053s-1.975 13.354 3.198 14.294c.094-4.701 3.855-9.31 3.855-9.31s-1.693 10.909 6.395 11.379c.094-4.138 1.599-8.84 1.599-8.84s3.667 11.567 9.027 9.686c-.093-3.385.094-9.78 0-9.78s3.386 11.003 9.78 8.934c-.94-3.103.377-6.771.377-6.771s3.385 6.865 9.498 4.608c1.034-2.069-.283-6.112-.283-6.112s8.934 9.216 11.661 3.667-7.147-7.429-7.147-7.429h6.677s-2.163-5.642-11.191-6.865c3.104-1.41 6.301-.376 6.301-.376s-1.881-7.053-11.097-7.805c3.574-1.223 7.524-.377 7.524-.377s-1.223-6.676-11.379-8.557c1.599-1.787 5.924-1.223 5.924-1.223s-4.043-6.3-8.651-5.924-46.268-4.232-46.174-4.138z" style="fill:#00713d;fill-opacity:1;fill-rule:evenodd;stroke:#000;stroke-width:1pt;stroke-linecap:butt;stroke-linejoin:miter;stroke-opacity:1" transform="translate(461.4 21.482)scale(.621)"/><path d="M179.804 398.881s3.667 1.787 3.573 3.386m-1.41-6.301s4.702 3.291 4.608 5.736m-.471-7.429s3.762 2.351 3.95 6.019m2.351-4.514s1.881 4.044 1.222 4.796m2.54-2.633c.282 3.197-.283 3.479-.283 3.479" style="fill:none;fill-opacity:1;fill-rule:evenodd;stroke:#3ec26d;stroke-width:1.25;stroke-linecap:round;stroke-linejoin:miter;stroke-dasharray:none;stroke-opacity:1" transform="translate(461.4 21.482)scale(.621)"/><path d="M149.805 377.722s4.42 2.821 4.044 6.771m-4.326-3.385s2.069 1.974 1.599 3.291m3.855-6.583s2.915 4.044 1.975 6.865m3.009-4.232s1.317 2.539.094 3.95m2.257-2.727s1.599 2.539.188 3.385m-1.974 4.984s4.137.941 4.702 4.044m-2.257-6.865s4.325.282 4.796 4.89m.94-6.488c.094 0 2.915 4.984 2.445 6.582m3.103-6.112s1.129 4.796.282 6.3m3.292-4.419c0 .094.094 5.548.094 5.548m-5.548-13.072s2.727 1.035 2.539 3.668m0-6.113s3.479 1.975 3.103 5.737m.94-7.335s3.01 3.573 1.881 7.523m3.386-6.677s-1.129 4.42-.659 6.207m3.856-3.198s-1.975 1.505-.941 3.386m-16.174 13.824s.658 3.385 0 3.949m-4.326-5.924s2.163 3.761 1.41 5.642m-6.018-5.83s2.445 2.821 2.351 5.078m-6.113-4.514s2.257 2.163 2.069 3.385m-4.044-.094s2.163 2.257 2.069 2.727" style="font-size:12px;fill:none;fill-rule:evenodd;stroke:#3ec26d;stroke-width:1.25;stroke-linecap:round;stroke-dasharray:none" transform="translate(461.4 21.482)scale(.621)"/><path d="m108.863 244.779 31.103-.555s20.551 0 22.773 6.665c3.887-8.887 21.661-8.331 21.661-8.331l32.214-1.111.556 77.759c-6.295 30.178-28.142 51.469-52.21 60.541-28.696-9.258-46.841-33.511-52.765-61.097z" style="fill:#fff;fill-opacity:1;fill-rule:evenodd;stroke:#000;stroke-width:1pt;stroke-linecap:butt;stroke-linejoin:miter;stroke-opacity:1" transform="translate(461.4 21.482)scale(.621)"/><path d="m119.944 244.488 45.307 120.738 40.93-123.369c-12.696.819-39.939-1.998-43.323 9.587-5.236-10.369-33.895-6.189-42.914-6.956z" style="fill:#006b00;fill-opacity:1;fill-rule:evenodd;stroke:#000;stroke-width:1pt;stroke-linecap:butt;stroke-linejoin:miter;stroke-opacity:1" transform="translate(461.4 21.482)scale(.621)"/><path d="M150.784 309.86c1.742.912 1.695-32.768 3.983-33.813.654-2.789.982-4.01 1.799-6.972-1.962-3.487-10.79-3.312-14.06-.349 1.471 4.706 2.125 6.275 2.125 6.275 4.415 7.146 3.538 35.619 6.153 34.859z" style="font-size:12px;fill:#ffc900;fill-rule:evenodd;stroke:#006b00;stroke-width:.689179;stroke-linecap:round" transform="translate(461.4 21.482)scale(.621)"/><path d="M138.645 49.548s3.201-3.638 3.346-4.51c.146-.873 14.549-1.455 23.132-17.458 4.801-8.438 0-3.492 0-3.492l-.291-4.073s5.965-5.674 3.783-8.73-1.455 3.928-4.947 3.783-1.6-7.565-1.6-7.565-.29-.873-1.309-1.31c-1.455.146-1.019 2.765-2.328 3.056s-2.473-6.11-2.473-6.11-2.182-2.91-4.074 6.255c1.019 9.748 7.274 7.856 7.274 14.258 0 6.4-5.528 11.347-7.128 11.493-1.601.145-1.019-5.383-1.019-5.383s-.872-2.619-1.454-2.619 3.2-.582 2.619-7.856c-1.31-8.729-2.328 2.037-4.656 1.6s-.582-8.001.291-8.874-1.019-4.51-6.111 4.8c-.436 4.51-1.018-1.163-2.036-.872-1.746 3.637-1.455 6.256 1.018 9.602 3.637 3.346 5.965 6.692 5.819 8.438s-2.036 5.674-4.655 5.674.145-4.801 0-6.402c-.146-1.6-4.51-7.42-4.51-7.42s-3.055-4.946-2.764-5.091-.291-.873-1.746 4.219-3.201-3.346-3.201-3.346-2.036 6.256 2.328 10.038c-3.346-.436-3.637.873-3.637.873 0 1.746 4.51 2.473 5.092 5.528s-4.655 4.801-4.655 4.801 2.182 3.056 8.292-2.91c.146 3.783-2.328 6.402-2.328 6.402 2.037.921 3.637.824 3.928 3.2z" style="fill:#cdad56;fill-opacity:1;fill-rule:evenodd;stroke:#000;stroke-width:1.25;stroke-linecap:butt;stroke-linejoin:round;stroke-dasharray:none;stroke-opacity:1" transform="translate(461.4 21.482)scale(.621)"/><path d="M118.679 49.548s-2.718-4.037-2.842-4.832c-.123-.794-13.375 1.004-19.645-15.158-4.078-7.678 0-3.177 0-3.177l.247-3.707s-4.339-5.308-2.486-8.088 1.09 3.574 3.474 3.587c2.965-.132 1.36-6.884 1.36-6.884s.245-.794 1.111-1.191c1.235.132 1.738 4.115 2.851 4.38 1.111.265 3.408-4.687 4.136-5.705 1.018-.146.98-4.103 2.587 4.237-.865 8.87-8.214 7.149-8.214 12.974 0 5.824 4.695 10.325 6.053 10.458 1.36.132.865-4.898.865-4.898s.741-2.383 1.235-2.383-4.317.925-3.824-5.694c1.113-6.197 3.578.399 5.554.001 1.978-.397-.231-6.553.335-7.493.132-.94 3.047-4.976 4.172 3.932.371 4.104 2.61-3.532 3.475-3.267 1.483 3.31-.656 7.729-2.756 10.774-3.088 3.044-4.484 6.38-4.36 7.969.123 1.588.856 3.562 3.081 3.562s.749-2.768.873-4.224c.123-1.456 3.83-6.17 3.83-6.17.727-1.163.122-3.337.893-4.342 1.207.013 1.702-1.667 2.938 2.966 1.235 4.633 2.717-3.045 2.717-3.045s1.73 5.693-1.976 9.135c2.842-.398 3.088.794 3.088.794 0 1.589-1.356 2.25-1.851 5.03s1.48 4.37 1.48 4.37-1.853 2.779-7.042-2.649c-.124 3.442 1.977 5.825 1.977 5.825-1.73.839-3.088.75-3.336 2.913z" style="font-size:12px;fill:#cdad56;fill-opacity:1;fill-rule:evenodd;stroke:#000;stroke-width:1.09887004;stroke-linejoin:round" transform="translate(461.4 21.482)scale(.621)"/><path d="M198.621 262.502c-2.71-2.459-3.032-.311-4.365-.861-.653-.274-1.165-.886-1.733-1.442-.494-.507-1.081-.717-1.734-.992l-.739 2.185c-.247.728.686 1.934.665 3.027-.185 1.625-.847 2.969-2.885 3.526.581-1.152.911-1.208.734-2.613-.088-.702-2.053-1.948-1.811-2.613.361-1.068.975-2.304.521-3.371-.838.571-1.929.272-2.767.62-.702.314-.75 1.621-1.728 2.165-1.002.469-3.213.237-5.058-.811 1.128-.855 2.06-.278 3.188-1.134.564-.428.538-2.26 1.102-2.688s1.915-.884 2.479-1.312c-.507-.578-.48-1.493-.987-2.07-.508-.578-2.757-.453-3.265-1.031-1.014-1.155-.821-2.676-1.836-3.831 2.626.942 2.245 2.222 2.904 2.125 1.244-.596 2.486-.715 3.138-.441.653.275 1.895 1.898 2.548 2.173.246-.728.605-1.653.852-2.381.247-.729-1.108-1.991-.861-2.719.493-1.456 1.717-2.744 2.21-4.201.177 1.405.41 2.586.587 3.991.088.702 1.469 1.067 1.558 1.77.088.702-.722 2.332-.633 3.034.754-.15 1.845-.048 2.598-.199.754-.15 1.255-1.902 2.009-2.052 1.508-.301 2.594-.209 4.13.08-1.128 1.052-2.003.981-2.71 1.949-.564.428.22 1.839-1.411 2.829-.613.355-2.224-.072-2.788.356l1.522 1.733c.507.578 2.785.846 3.292 1.424 1.014 1.156 1.552 2.536 1.274 3.775m-69.669 1.187c2.71-2.46 3.032-.312 4.365-.861.652-.275 1.165-.887 1.733-1.442.494-.508 1.08-.718 1.733-.993l.74 2.185c.247.728-.687 1.934-.665 3.027.184 1.625.846 2.969 2.884 3.527-.581-1.152-.91-1.209-.733-2.613.088-.703 2.052-1.948 1.81-2.614-.36-1.067-.974-2.303-.52-3.371.838.572 1.929.273 2.767.62.702.314.75 1.621 1.728 2.165 1.002.47 3.213.237 5.058-.81-1.129-.856-2.061-.279-3.188-1.135-.564-.428-.538-2.26-1.102-2.688s-1.916-.884-2.48-1.312c.508-.577.481-1.492.988-2.07.508-.577 2.757-.453 3.264-1.031 1.015-1.155.822-2.676 1.836-3.831-2.625.943-2.244 2.222-2.904 2.125-1.243-.596-2.485-.715-3.138-.44-.652.274-1.894 1.898-2.547 2.172-.247-.728-.606-1.653-.852-2.381-.247-.728 1.108-1.99.861-2.718-.493-1.457-1.717-2.745-2.21-4.201-.177 1.405-.41 2.585-.587 3.99-.089.702-1.47 1.068-1.559 1.77-.088.703.722 2.332.634 3.035-.754-.151-1.845-.049-2.599-.199-.753-.151-1.254-1.902-2.009-2.053-1.508-.301-2.593-.209-4.13.08 1.128 1.053 2.004.981 2.711 1.949.564.428-.221 1.839 1.411 2.829.612.355 2.224-.071 2.788.357l-1.522 1.733c-.507.577-2.785.846-3.292 1.424-1.015 1.155-1.552 2.535-1.274 3.775" style="font-size:12px;fill:#ffc900;fill-rule:evenodd;stroke-width:1pt" transform="translate(461.4 21.482)scale(.621)"/><path d="M196.186 270.275c-2.453 1.917-18.311 5.925-18.474 19.695s2.78 16.907-.163 17.256c-5.723 0-6.54-15.338-6.376-22.136.162-6.798.326-5.752.326-5.752s3.923 1.045 3.597 4.358c-.327 3.311 3.923-8.192 2.453-11.33 2.615 2.615 6.048 1.569 6.048 1.394 0-.174-1.961-2.265-2.779-3.834s2.943.871 2.943.871.163-2.614-3.107-2.44c-4.25 0 .655-1.394.655-1.394s2.452 2.265 4.087-.175c-1.799-1.916-4.414-2.963-4.414-2.963s-2.289-4.357-5.395-5.228c-3.597-.872-3.107 1.568-7.194 1.22-.817 1.568-.817 1.743.818 2.265-2.779 1.918-1.308 5.752-1.308 5.752s4.414-1.917 4.25 1.22-2.616 2.615-4.25.698c-1.471-.872-1.962.871-1.962.871l2.289 2.44s-4.415-.174-5.559 2.789c2.453-.174 3.761.523 3.761.523s-5.069 2.266-5.56 3.486c-.489 1.22-.653-1.395-.817-1.395s-4.904-1.742-4.904-1.742l-1.637 7.537s3.272 3.269 5.07 2.223 5.068-4.183 7.03-3.312c-5.722 4.358-11.444 10.632-14.55 11.504-.818-.697-3.597-3.486-4.741-2.092-1.145 1.395-.328 3.138 1.144 2.963s-4.741 1.395-3.433 4.009 1.144 2.44 2.289 1.744c1.144-.698-.981-.872 3.269-2.092 4.251-1.22 4.087-2.441 4.087-2.441s-.817 1.918-3.105 2.441-4.088.523-3.597 1.22c.49.697 1.47 1.917 1.144 2.615-.327.696 4.741-3.661 6.049-.175 3.434-.174 5.722-4.357 4.087-6.797.164 2.614 1.798 3.485.817 4.705s7.684-4.009 3.433-7.146c1.146 2.615 1.308 4.706 1.308 4.706s1.962-.174 2.453-.871-.981 1.917-.327 2.44 3.76 3.486 2.452 5.578c-.817-1.22-.981-3.138-1.961-2.964-.982.175-5.069 3.138-7.521 3.312s2.943 9.064 2.943 9.064-3.761-.523-4.25-.175c-.491.349-2.943-3.137-3.434-1.045-.818 2.614.817 1.568.817 1.568s-2.125-1.046-3.269.175c-1.144 1.22-2.289 2.44-1.472 2.962s4.415.523 4.905.349-4.087.349-4.414.872c-.328.522-.981 2.44 0 3.137s3.433-.349 3.596-.871c.164-.524.328 1.917.328 1.917s4.25.348 4.25-4.009.328 3.137.328 3.137 4.25.697 4.413-3.66.49 2.963.49 2.963 2.78-.872 2.78-1.568c0-.698-.164 8.714-2.125 11.329-3.107-2.092-5.069 1.394-5.069 1.394s.164 5.055-.163 6.275c-.326 1.22 2.125-.698 2.289-1.22.163-.523 3.106-1.918 3.27-2.266l.98-2.092s-.654 2.44-1.798 2.789-2.289 1.569-1.799 2.615c.491 1.045 2.29 1.743 2.943 2.788.654 1.046 2.943-6.1 2.943-6.1l.163 1.568s2.943-.696 3.27-2.091c.327-1.394-3.106-2.614-.327-4.881 2.779-2.265 0 2.092 0 2.092s.981 3.312 1.635 3.312 2.288-6.275.654-7.844c-1.635-1.568 2.452 1.918 2.452 1.918s2.29-6.449-.163-7.321-3.597-1.22-3.597-1.22 1.308-1.743.654-1.917 3.433 3.835 4.087 2.789 1.635-4.184-3.105-5.926c-4.742-1.743-.164-6.624-.164-6.624s2.943 3.486 5.068 1.568c2.125-1.916-.164-1.916-.164-1.916s6.049-3.834 6.212-5.752c-1.144-.175-3.106.174-3.106.174s3.434-2.265 2.617-5.926c-1.309 1.917-3.107 1.918-3.107 1.918s2.943-2.964 2.452-5.752c-1.798 1.394-1.635 2.439-2.779 2.091s-3.106-11.329 1.471-12.027c4.578-.696 2.125 5.404 2.289 5.404.163 0 6.867-2.789 0-7.321 1.635-.523 5.068 2.615 5.068 2.615s-1.471-7.67-8.828-2.963c1.799-1.917 2.943-3.138 4.414-2.789 1.472.349 6.704-.174 6.704-1.743-1.308-1.046-4.088.523-5.56 0s10.463-1.395 9.483-7.32" style="font-size:12px;fill:#ffc900;fill-rule:evenodd;stroke:#006b00;stroke-width:.689179;stroke-linecap:round;stroke-linejoin:round" transform="translate(461.4 21.482)scale(.621)"/><path d="M481.299 118.544s12.247-6.43 18.37 1.531m4.899 12.247c-.306 0-4.286 3.98-5.205 3.98m13.472 8.879s11.328.918 18.676-10.41" style="font-size:12px;fill:none;fill-rule:evenodd;stroke:#006b00;stroke-width:1.25;stroke-linecap:round" transform="matrix(.3316 0 0 .35353 391.452 150.23)"/><path d="M525.081 141.813s.919 6.123 2.756 6.123-3.062 1.531-4.899.306c2.143 2.756 3.368 7.655 0 9.492" style="font-size:12px;fill:none;fill-rule:evenodd;stroke:#006b00;stroke-width:1.25;stroke-linecap:round" transform="matrix(.3316 0 0 .35353 391.452 150.23)"/><path d="M519.264 218.968s-3.98 4.286-8.879 4.592" style="font-size:12px;fill:#e80000;fill-rule:evenodd;stroke:#006b00;stroke-width:1.25;stroke-linecap:round" transform="matrix(.3316 0 0 .35353 391.452 150.23)"/><path d="M523.857 199.373s-2.45-12.247-.919-15.309c.919-3.979 4.899-5.511 7.961-10.716" style="font-size:12px;fill:none;fill-rule:evenodd;stroke:#006b00;stroke-width:1.25;stroke-linecap:round" transform="matrix(.3316 0 0 .35353 391.452 150.23)"/><path d="M522.632 190.494s-3.062 7.348-16.533 4.899m20.207-23.269s.919 9.797-11.328 6.123m-3.674-50.212s-4.899 4.287-3.062 10.104" style="font-size:12px;fill:none;fill-rule:evenodd;stroke:#006b00;stroke-width:1.25;stroke-linecap:round" transform="matrix(.3316 0 0 .35353 391.452 150.23)"/><path d="M529.674 117.319s6.43-2.449 7.654-3.674c1.225-1.224 3.368-3.674 3.98-5.511s-4.285-4.593-1.837-8.573c1.531-1.837 3.674-2.143 7.348 0 3.675 2.144-3.367-6.735-7.041-7.042s-6.124 2.45-7.042 1.837c-.919-.612.306 2.45-1.225 2.45s3.062 2.45 2.756 3.98c-.307 1.531 4.898 6.736 4.592 7.961-.306 1.224-7.654 8.266-9.185 8.572" style="font-size:12px;fill:#006b00;fill-rule:evenodd;stroke-width:1.25;stroke-linecap:round" transform="matrix(.3316 0 0 .35353 391.452 150.23)"/><path d="M534.267 97.112c2.794-.636 3.243.07 2.755 2.45-1.309-.66-1.79-1.218-2.755-2.45" style="font-size:12px;fill:#ffc900;fill-rule:evenodd;stroke:#ffc900;stroke-width:1.25;stroke-linecap:round;stroke-linejoin:round" transform="matrix(.3316 0 0 .35353 391.452 150.23)"/><path d="M514.708 233.517s-1.033 6.409 1.489 6.946c-.124-2.48.538-4.176 1.158-4.837-.538-.249-2.522-2.067-2.647-2.109zm-5.678-7.891c-2.316-.331-6.23 1.591-5.105 3.911 1.881-1.621 3.626.134 4.941-1.519.404-.453.29-1.812.164-2.392zm-.024-4.576s-3.651-.581-4.157 1.948c2.52-.32 3.274-.59 4.109-.06.242-.541.008-1.762.048-1.888z" style="font-size:12px;fill:#e80000;fill-rule:evenodd;stroke:#006b00;stroke-width:1.25;stroke-linejoin:round" transform="matrix(.3316 0 0 .35353 391.452 150.23)"/><path d="M493.54 184.936s2.191.828 2.811 3.06c1.736-1.075 2.564-5.83-2.811-3.06zm-5.417 5.458c.083-.041 4.59-2.77 5.045-.165-.952.95-1.365 1.57-2.109 1.778-.579-.001-1.737-1.778-2.936-1.613zm-.454 8.848c.082-.042 2.894-2.522 3.969-.868s-.868 1.571-.868 1.571-.993-.455-3.101-.703zm-3.97-49.284c-.041 0-3.597-1.364-5.085 1.116 2.357.29 3.184 1.117 4.258 1.944-.289-1.034-.785-2.605.827-3.06zm-6.904 18.564s.165-4.176 2.15-5.871c1.116.62 1.446 1.612 2.191 2.853-1.488.33-3.473.413-4.341 3.018zm9.509-2.977s-3.928 1.82-2.646 3.804c1.282-1.364 2.688-.951 2.688-.992s0-2.77-.042-2.812z" style="font-size:12px;fill:#e80000;fill-rule:evenodd;stroke:#006b00;stroke-width:1pt;stroke-linejoin:round" transform="matrix(.3316 0 0 .35353 391.452 150.23)"/><path d="M480.64 125.605c-1.406 1.571 1.736 5.003 5.044 4.507.827-3.72-4.217-5.664-5.044-4.507z" style="font-size:12px;fill:#ffc900;fill-rule:evenodd;stroke:#006b00;stroke-width:1pt;stroke-linejoin:round" transform="matrix(.3316 0 0 .35353 391.452 150.23)"/><path d="M480.599 118.412c-.689 1.75 2.053 4.203 3.638 3.514.648-1.792-2.922-4.906-3.638-3.514" style="font-size:12px;fill:none;fill-rule:evenodd;stroke-width:1pt;stroke-linejoin:round" transform="matrix(.3316 0 0 .35353 391.452 150.23)"/><path d="M484.278 122.753s.62 2.936 3.473 2.15c-.455-2.274-2.439-3.969-2.439-3.969-.124.662.413 1.695-1.034 1.819zm1.902 8.517s1.571 1.695 4.672-1.778c-1.405.413-3.886-.827-3.886-.827s0 2.398-.786 2.605z" style="font-size:12px;fill:#e80000;fill-rule:evenodd;stroke:#006b00;stroke-width:1pt;stroke-linejoin:round" transform="matrix(.3316 0 0 .35353 391.452 150.23)"/><path d="M480.463 118.863c-1.406 1.571.583 3.762 3.891 3.266.827-3.72-3.064-4.423-3.891-3.266z" style="font-size:12px;fill:#ffc900;fill-rule:evenodd;stroke:#006b00;stroke-width:1pt;stroke-linejoin:round" transform="matrix(.3316 0 0 .35353 391.452 150.23)"/><path d="M144.625 266.621s7.037-2.011 10.771 1.005 3.734.287 3.734.287 5.457 2.011 7.037 1.58-1.148.144 1.006-1.149-4.309.288-4.883-2.441c-1.006-1.724.143-3.878-2.154-3.16-1.58-2.011 1.005-3.446.43-5.601-1.579 1.149-2.441-.431-3.734 2.442-3.015-.575-.431-4.74-3.734-5.171 0 3.016-2.442 3.16-2.585 4.883-1.436 1.006-7.755 4.74-5.888 7.325" style="fill:url(#e);fill-opacity:1;fill-rule:evenodd;stroke:none;stroke-width:1pt;stroke-linecap:butt;stroke-linejoin:miter;stroke-opacity:1" transform="translate(461.4 21.482)scale(.621)"/><path d="M63.624 495.585c4.566-1.102 29.306 5.462 38.844 15.689-2.024-18.213-7.07-32.166-7.07-32.166s-14.743-4.205-16.767-2.181c-2.968 3.126-11.883 12.492-15.007 18.658zm-7.542-84.123c-1.734.289-3.469 1.446-5.203 4.336-2.024 4.914-3.47 17.345-6.36 20.236s-5.493 3.18-5.493 5.782.29 8.672 8.095 10.985c7.805.289 20.236-12.431 20.236-12.431s6.36-6.938 8.961-14.454c-15.032 5.204-25.728-8.673-20.236-14.454z" style="fill:#c01500;fill-opacity:1;fill-rule:evenodd;stroke:#000;stroke-width:1pt;stroke-linecap:butt;stroke-linejoin:miter;stroke-opacity:1" transform="translate(461.4 21.482)scale(.621)"/><path d="M273.493 492.685c-4.531-1.096-29.556 5.43-39.02 15.597 2.009-18.106 7.016-31.978 7.016-31.978 1.747-.476 14.47-4.18 16.479-2.168 2.945 3.108 12.426 12.419 15.525 18.549zm7.008-83.631c1.722.287 2.33 2.549 3.735 5.422 2.007 4.885 4.077 12.003 6.946 14.876 2.868 2.875 5.45 7.132 5.45 9.719 0 2.585-.605 6.081-8.35 8.379-7.745.288-18.968-9.657-18.968-9.657s-6.311-6.898-8.893-14.37c14.917 5.174 24.578-8.146 20.08-14.369z" style="font-size:12px;fill:#c01500;fill-opacity:1;fill-rule:evenodd;stroke:#000;stroke-width:.99322701pt" transform="translate(461.4 21.482)scale(.621)"/><path d="M47.41 479.686s15.61 10.696 15.9 15.61c41.917-62.153 148.879-81.522 209.875-4.336 8.094-10.696 16.478-14.165 16.478-14.165-64.177-83.835-191.953-73.428-242.253 2.891z" style="fill:#fb0;fill-opacity:1;fill-rule:evenodd;stroke:#000;stroke-width:1pt;stroke-linecap:butt;stroke-linejoin:miter;stroke-opacity:1" transform="translate(461.4 21.482)scale(.621)"/><g style="fill:#3fa4d5;fill-opacity:1"><path d="m206.44 241.876 6.11-.145-10.911 13.82 13.094 15.276-25.751 32.443 24.296 29.242c-2.667 6.547-5.771 12.512-9.893 17.894l-13.966-15.421 25.314-31.57-20.804-23.568zm-87.289 2.764-6.546.146 12.22 13.238-12.949 16.149 26.915 29.242-22.259 29.824c2.667 6.547 6.498 13.821 10.62 19.203l13.239-16.73-27.205-30.261 19.931-25.313z" style="fill:#1e5aa6;fill-opacity:1;fill-rule:evenodd;stroke:#000;stroke-width:1pt;stroke-linecap:butt;stroke-linejoin:miter;stroke-opacity:1" transform="translate(461.4 21.482)scale(.621)"/><path d="m149.411 323.201-9.602 12.803 34.334 39.716c6.062-3.055 10.815-6.546 16.003-10.765l-17.894-20.659 7.274-21.386 10.475 12.075-32.733 41.754c-5.48-2.328-11.542-5.965-17.022-10.475l17.312-21.968zM138.79 303.27l6.256 7.856-4.073-10.62z" style="font-size:12px;fill:#1e5aa6;fill-opacity:1;fill-rule:evenodd;stroke:#000;stroke-width:1pt" transform="translate(461.4 21.482)scale(.621)"/><path d="M183.597 310.217c.137-.146 5.049-6.693 5.049-6.693l-1.911-2.618z" style="font-size:12px;fill:#1e5aa6;fill-opacity:1;fill-rule:evenodd;stroke:#000;stroke-width:.96848698pt" transform="translate(461.4 21.482)scale(.621)"/></g><text x="-328.344" y="362.397" style="font-size:14px;font-style:normal;font-weight:700;line-height:100%;writing-mode:lr-tb;text-anchor:start;fill:#000;fill-opacity:1;stroke:none;stroke-width:1pt;stroke-linecap:butt;stroke-linejoin:miter;stroke-opacity:1;font-family:Timmons" transform="rotate(-49.556 253.967 -489.034)scale(.621)">
      <tspan x="-328.344" y="362.397">L</tspan>
    </text><text x="-292.335" y="384.266" style="font-size:14px;font-style:normal;font-weight:700;line-height:100%;writing-mode:lr-tb;text-anchor:start;fill:#000;fill-opacity:1;stroke:none;stroke-width:1pt;stroke-linecap:butt;stroke-linejoin:miter;stroke-opacity:1;font-family:Timmons" transform="matrix(.4361 -.44211 .44211 .4361 461.4 21.482)">
      <tspan x="-292.335" y="384.266">E</tspan>
    </text><text x="-239.78" y="451.681" style="font-size:14px;font-style:normal;font-weight:700;line-height:100%;writing-mode:lr-tb;text-anchor:start;fill:#000;fill-opacity:1;stroke:none;stroke-width:1pt;stroke-linecap:butt;stroke-linejoin:miter;stroke-opacity:1;font-family:Timmons" transform="matrix(.4737 -.33822 .35254 .46837 461.4 21.482)">
      <tspan x="-239.78" y="451.681">O</tspan>
    </text><text x="-188.526" y="429.958" style="font-size:14px;font-style:normal;font-weight:700;line-height:100%;writing-mode:lr-tb;text-anchor:start;fill:#000;fill-opacity:1;stroke:none;stroke-width:1pt;stroke-linecap:butt;stroke-linejoin:miter;stroke-opacity:1;font-family:Timmons" transform="matrix(.51447 -.3478 .3478 .51447 461.4 21.482)">
      <tspan x="-188.526" y="429.958">T</tspan>
    </text><text x="-115.426" y="451.479" style="font-size:14px;font-style:normal;font-weight:700;line-height:100%;writing-mode:lr-tb;text-anchor:start;fill:#000;fill-opacity:1;stroke:none;stroke-width:1pt;stroke-linecap:butt;stroke-linejoin:miter;stroke-opacity:1;font-family:Timmons" transform="rotate(-25.549 278.073 -1006.793)scale(.621)">
      <tspan x="-115.426" y="451.479">E</tspan>
    </text><text x="-94.111" y="453.046" style="font-size:14px;font-style:normal;font-weight:700;line-height:100%;writing-mode:lr-tb;text-anchor:start;fill:#000;fill-opacity:1;stroke:none;stroke-width:1pt;stroke-linecap:butt;stroke-linejoin:miter;stroke-opacity:1;font-family:Timmons" transform="rotate(-23.987 281.258 -1075.198)scale(.621)">
      <tspan x="-94.111" y="453.046">R</tspan>
    </text><text x="-68.371" y="454.982" style="font-size:14px;font-style:normal;font-weight:700;line-height:100%;writing-mode:lr-tb;text-anchor:start;fill:#000;fill-opacity:1;stroke:none;stroke-width:1pt;stroke-linecap:butt;stroke-linejoin:miter;stroke-opacity:1;font-family:Timmons" transform="rotate(-21.911 286.187 -1181.057)scale(.621)">
      <tspan x="-68.371" y="454.982">R</tspan>
    </text><text x="112.016" y="445.666" style="font-size:14px;font-style:normal;font-weight:700;line-height:100%;writing-mode:lr-tb;text-anchor:start;fill:#000;fill-opacity:1;stroke:none;stroke-width:1pt;stroke-linecap:butt;stroke-linejoin:miter;stroke-opacity:1;font-family:Timmons" transform="rotate(-4.763 488.986 -5536.796)scale(.621)">
      <tspan x="112.016" y="445.666">R</tspan>
    </text><text x="180.225" y="430.793" style="font-size:14px;font-style:normal;font-weight:700;line-height:100%;writing-mode:lr-tb;text-anchor:start;fill:#000;fill-opacity:1;stroke:none;stroke-width:1pt;stroke-linecap:butt;stroke-linejoin:miter;stroke-opacity:1;font-family:Timmons" transform="rotate(.857 -1206.318 30875.154)scale(.621)">
      <tspan x="180.225" y="430.793">R</tspan>
    </text><text x="414.759" y="275.217" style="font-size:14px;font-style:normal;font-weight:700;line-height:100%;writing-mode:lr-tb;text-anchor:start;fill:#000;fill-opacity:1;stroke:none;stroke-width:1pt;stroke-linecap:butt;stroke-linejoin:miter;stroke-opacity:1;font-family:Timmons" transform="rotate(29.645 190.11 882.512)scale(.621)">
      <tspan x="414.759" y="275.217">R</tspan>
    </text><text x="483.878" y="193.05" style="font-size:14px;font-style:normal;font-weight:700;line-height:100%;writing-mode:lr-tb;text-anchor:start;fill:#000;fill-opacity:1;stroke:none;stroke-width:1pt;stroke-linecap:butt;stroke-linejoin:miter;stroke-opacity:1;font-family:Timmons" transform="rotate(39.801 201.028 648.014)scale(.621)">
      <tspan x="483.878" y="193.05">E</tspan>
    </text><text x="309.116" y="414.028" style="font-size:14px;font-style:normal;font-weight:700;line-height:100%;writing-mode:lr-tb;text-anchor:start;fill:#000;fill-opacity:1;stroke:none;stroke-width:1pt;stroke-linecap:butt;stroke-linejoin:miter;stroke-opacity:1;font-family:Timmons" transform="matrix(.59837 .11248 -.09645 .5911 461.4 21.482)">
      <tspan x="309.116" y="414.028">O</tspan>
    </text><text x="105.058" y="459.272" style="font-size:14px;font-style:normal;font-weight:700;line-height:100%;writing-mode:lr-tb;text-anchor:start;fill:#000;fill-opacity:1;stroke:none;stroke-width:1pt;stroke-linecap:butt;stroke-linejoin:miter;stroke-opacity:1;font-family:Timmons" transform="matrix(.56007 -.08172 .08475 .60548 461.4 21.482)">
      <tspan x="105.058" y="459.272">O</tspan>
    </text><text x="-45.708" y="455.835" style="font-size:14px;font-style:normal;font-weight:700;line-height:100%;writing-mode:lr-tb;text-anchor:start;fill:#000;fill-opacity:1;stroke:none;stroke-width:1pt;stroke-linecap:butt;stroke-linejoin:miter;stroke-opacity:1;font-family:Timmons" transform="rotate(-20.292 290.719 -1278.387)scale(.621)">
      <tspan x="-45.708" y="455.835">A</tspan>
    </text><text x="518.35" y="144.724" style="font-size:14px;font-style:normal;font-weight:700;line-height:100%;writing-mode:lr-tb;text-anchor:start;fill:#000;fill-opacity:1;stroke:none;stroke-width:1pt;stroke-linecap:butt;stroke-linejoin:miter;stroke-opacity:1;font-family:Timmons" transform="rotate(45.196 204.891 565.011)scale(.621)">
      <tspan x="518.35" y="144.724">A</tspan>
    </text><text x="271.188" y="388.298" style="font-size:14px;font-style:normal;font-weight:700;line-height:100%;writing-mode:lr-tb;text-anchor:start;fill:#000;fill-opacity:1;stroke:none;stroke-width:1pt;stroke-linecap:butt;stroke-linejoin:miter;stroke-opacity:1;font-family:Timmons" transform="rotate(11.356 122.669 2331.012)scale(.621)">
      <tspan x="271.188" y="388.298">A</tspan>
    </text><text x="40.322" y="455.168" style="font-size:14px;font-style:normal;font-weight:700;line-height:100%;writing-mode:lr-tb;text-anchor:start;fill:#000;fill-opacity:1;stroke:none;stroke-width:1pt;stroke-linecap:butt;stroke-linejoin:miter;stroke-opacity:1;font-family:Timmons" transform="rotate(-10.645 345.994 -2465.597)scale(.621)">
      <tspan x="40.322" y="455.168">M</tspan>
    </text><text x="94.429" y="448.079" style="font-size:14px;font-style:normal;font-weight:700;line-height:100%;writing-mode:lr-tb;text-anchor:start;fill:#000;fill-opacity:1;stroke:none;stroke-width:1pt;stroke-linecap:butt;stroke-linejoin:miter;stroke-opacity:1;font-family:Timmons" transform="rotate(-5.94 437.708 -4435.503)scale(.621)">
      <tspan x="94.429" y="448.079">P</tspan>
    </text><text x="155.088" y="437.607" style="font-size:14px;font-style:normal;font-weight:700;line-height:100%;writing-mode:lr-tb;text-anchor:start;fill:#000;fill-opacity:1;stroke:none;stroke-width:1pt;stroke-linecap:butt;stroke-linejoin:miter;stroke-opacity:1;font-family:Timmons" transform="rotate(-1.454 1069.598 -18064.068)scale(.621)">
      <tspan x="155.088" y="437.607">P</tspan>
    </text><text x="405.134" y="276.665" style="font-size:14px;font-style:normal;font-weight:700;line-height:100%;writing-mode:lr-tb;text-anchor:start;fill:#000;fill-opacity:1;stroke:none;stroke-width:1pt;stroke-linecap:butt;stroke-linejoin:miter;stroke-opacity:1;font-family:Timmons" transform="rotate(29.499 189.9 887.018)scale(.621)">
      <tspan x="405.134" y="276.665">P</tspan>
    </text><text x="232.095" y="409.793" style="font-size:14px;font-style:normal;font-weight:700;line-height:100%;writing-mode:lr-tb;text-anchor:start;fill:#000;fill-opacity:1;stroke:none;stroke-width:1pt;stroke-linecap:butt;stroke-linejoin:miter;stroke-opacity:1;font-family:Timmons" transform="rotate(6.585 43.992 4020.844)scale(.621)">
      <tspan x="232.095" y="409.793">I</tspan>
    </text><text x="530.392" y="132.089" style="font-size:14px;font-style:normal;font-weight:700;line-height:100%;writing-mode:lr-tb;text-anchor:start;fill:#000;fill-opacity:1;stroke:none;stroke-width:1pt;stroke-linecap:butt;stroke-linejoin:miter;stroke-opacity:1;font-family:Timmons" transform="rotate(46.586 205.75 546.592)scale(.621)">
      <tspan x="530.392" y="132.089">T</tspan>
    </text><text x="464.158" y="218.519" style="font-size:14px;font-style:normal;font-weight:700;line-height:100%;writing-mode:lr-tb;text-anchor:start;fill:#000;fill-opacity:1;stroke:none;stroke-width:1pt;stroke-linecap:butt;stroke-linejoin:miter;stroke-opacity:1;font-family:Timmons" transform="rotate(36.816 198.424 703.922)scale(.621)">
      <tspan x="464.158" y="218.519">T</tspan>
    </text><text x="313.725" y="361.961" style="font-size:14px;font-style:normal;font-weight:700;line-height:100%;writing-mode:lr-tb;text-anchor:start;fill:#000;fill-opacity:1;stroke:none;stroke-width:1pt;stroke-linecap:butt;stroke-linejoin:miter;stroke-opacity:1;font-family:Timmons" transform="rotate(16.412 156.218 1610.49)scale(.621)">
      <tspan x="313.725" y="361.961">M</tspan>
    </text><text x="513.704" y="123.248" style="font-size:14px;font-style:normal;font-weight:700;line-height:100%;writing-mode:lr-tb;text-anchor:start;fill:#000;fill-opacity:1;stroke:none;stroke-width:1pt;stroke-linecap:butt;stroke-linejoin:miter;stroke-opacity:1;font-family:Timmons" transform="rotate(47.66 206.38 533.061)scale(.621)">
      <tspan x="513.704" y="123.248">G</tspan>
    </text><path d="M255.944 200.94s6.032-5.171 10.341-5.315" style="fill:none;fill-opacity:1;fill-rule:evenodd;stroke:#fff700;stroke-width:1pt;stroke-linecap:round;stroke-linejoin:miter;stroke-opacity:1" transform="translate(461.4 21.482)scale(.621)"/><path d="M256.806 200.221c.143-.143 36.05-5.17 37.199-6.319m-37.056 6.607c.144-.144 40.216-3.447 40.216-3.447m-40.359 3.59s42.657-2.011 45.242.144" style="fill:none;fill-opacity:1;fill-rule:evenodd;stroke:#fff700;stroke-width:1pt;stroke-linecap:round;stroke-linejoin:miter;stroke-opacity:1" transform="translate(461.4 21.482)scale(.621)"/><path d="M256.662 200.509s41.796.287 42.514 1.292m-42.37-1.292 40.215 3.303m-40.646-3.016c.143 0 40.934 3.591 44.955 8.761" style="fill:none;fill-opacity:1;fill-rule:evenodd;stroke:#fff700;stroke-width:1pt;stroke-linecap:round;stroke-linejoin:miter;stroke-opacity:1" transform="translate(461.4 21.482)scale(.621)"/><path d="M303.484 216.882c-.143-.143-13.931-16.517-47.253-16.23" style="fill:none;fill-opacity:1;fill-rule:evenodd;stroke:#fff700;stroke-width:1pt;stroke-linecap:round;stroke-linejoin:miter;stroke-opacity:1" transform="translate(461.4 21.482)scale(.621)"/><path d="M256.375 200.94s23.124 1.579 30.449 9.623" style="fill:none;fill-opacity:1;fill-rule:evenodd;stroke:#fff700;stroke-width:1pt;stroke-linecap:round;stroke-linejoin:miter;stroke-opacity:1" transform="translate(461.4 21.482)scale(.621)"/><path d="M256.806 200.652s14.937-2.872 30.592 15.943" style="fill:none;fill-opacity:1;fill-rule:evenodd;stroke:#fff700;stroke-width:1pt;stroke-linecap:round;stroke-linejoin:miter;stroke-opacity:1" transform="translate(461.4 21.482)scale(.621)"/><path d="M247.4 217.743s20.718.813 20.718 2.844-15.437 5.89-15.64 14.422 11.781 9.14 12.593 19.905c.813 10.766-9.343 12.39-11.375 15.234-2.031 1.422-6.906 16.656-6.296 25.593s3.249 39.203 7.921 45.296c3.657 2.844 9.141 11.984 15.031 9.14s1.828-13.202 1.219-16.046 2.437-7.516 2.437-11.781-2.234-7.719-2.031-8.734c.203-1.016 16.453 3.859 15.437 19.906-1.015 16.046-7.515 11.171-7.515 11.171s2.031 19.703-3.047 22.343c-9.14 4.875-15.843-1.015-15.843-1.015l.859 4.007-6.953-3.601s-8.937-12.797-10.968-18.484-4.469-31.077-3.656-36.561c.812-5.485 1.421-37.578 1.015-39.203s-2.031-28.436-1.015-32.499c1.015-4.062 7.312-21.937 7.109-21.937z" style="fill:url(#f);fill-opacity:1;fill-rule:evenodd;stroke:#000;stroke-width:1pt;stroke-linecap:butt;stroke-linejoin:miter;stroke-opacity:1" transform="translate(461.4 21.482)scale(.621)"/><path d="M225.057 212.462s14.421-14.015 22.749-12.39c4.266 0 .203 3.047.203 3.047s7.312.609 8.328 3.859c.203 1.422-3.453 1.828-3.453 1.828s3.047.609 3.25 3.25-30.874.609-31.077.406z" style="fill:#ff7000;fill-opacity:1;fill-rule:evenodd;stroke:#000;stroke-width:1pt;stroke-linecap:butt;stroke-linejoin:miter;stroke-opacity:1" transform="translate(461.4 21.482)scale(.621)"/><path d="M225.869 211.853s15.437-2.031 21.937-8.531" style="fill:none;fill-opacity:1;fill-rule:evenodd;stroke:#000;stroke-width:1pt;stroke-linecap:butt;stroke-linejoin:miter;stroke-opacity:1" transform="translate(461.4 21.482)scale(.621)"/><path d="M241.509 207.587s11.375-.406 11.375 1.219" style="fill:none;fill-opacity:1;fill-rule:evenodd;stroke:#000;stroke-width:1pt;stroke-linecap:butt;stroke-linejoin:miter;stroke-opacity:1" transform="translate(461.4 21.482)scale(.621)"/><path d="M281.93 373.739s9.75-2.234 12.39-5.687c1.626-1.219 10.157 12.796-12.39 5.687z" style="fill:#fff;fill-opacity:1;fill-rule:evenodd;stroke:#000;stroke-width:1.25;stroke-linecap:butt;stroke-linejoin:round;stroke-dasharray:none;stroke-opacity:1" transform="translate(461.4 21.482)scale(.621)"/><path d="M279.29 293.101s1.219 7.515-2.235 12.593c-1.828 2.031-7.312 5.484-7.312 7.922s2.031 5.687 1.625 8.531-3.453 5.688-3.25 8.125c0 2.437 3.453 15.437 3.047 15.64m-9.75-77.186s-7.718 2.641-9.343 10.36" style="fill:none;fill-opacity:1;fill-rule:evenodd;stroke:#fff;stroke-width:1.25;stroke-linecap:round;stroke-linejoin:miter;stroke-dasharray:none;stroke-opacity:1" transform="translate(461.4 21.482)scale(.621)"/><path d="M258.165 207.587s2.641 7.313 11.172.407c-5.484-7.515-11.172-.204-11.172-.407z" style="fill:#c75b00;fill-opacity:1;fill-rule:evenodd;stroke:#000;stroke-width:1pt;stroke-linecap:butt;stroke-linejoin:miter;stroke-opacity:1" transform="translate(461.4 21.482)scale(.621)"/><path d="M264.868 206.47c0 .393-.41.711-.914.711-.505 0-.914-.318-.914-.71 0-.393.41-.712.914-.712.505 0 .914.319.914.711" style="fill:#000;fill-opacity:1;fill-rule:evenodd;stroke:none;stroke-width:1pt;stroke-linecap:butt;stroke-linejoin:miter;stroke-opacity:1" transform="translate(461.148 21.987)scale(.621)"/><path d="M188.411 190.618s16.177 17.509 26.644 17.319c1.904 5.138-4.752 9.918-7.416 12.202-5.329-1.713-10.145.312-22.515-14.913.761-9.706 3.478-14.227 3.287-14.608zm21.887-40.728c2.093-6.47 6.28-11.608 9.896-12.18-.952-4.948 7.613-26.834 32.544-35.208 1.522 11.229-10.658 22.267-10.658 22.267s36.73-6.28 44.153-15.606c-.761 4.187-8.183 30.26-47.388 30.07 14.844 14.083-4.758 25.312-13.132 21.886 15.416-11.8-4.377-18.84-15.415-11.228z" style="fill:#fff;fill-opacity:1;fill-rule:evenodd;stroke:#000;stroke-width:1pt;stroke-linecap:butt;stroke-linejoin:miter;stroke-opacity:1" transform="translate(461.4 21.482)scale(.621)"/><path d="M222.858 140.756c7.423-4.758 10.087-4.758 16.177-3.807-4.377.571-4.377.762-4.377.762s-.38.57 2.284 3.045c-3.046-.762-5.71-2.474-14.084 0z" style="fill:#cccccd;fill-opacity:1;fill-rule:evenodd;stroke:#ccc;stroke-width:1pt;stroke-linecap:butt;stroke-linejoin:miter;stroke-opacity:1" transform="translate(461.4 21.482)scale(.621)"/><path d="M220.004 137.71s14.654-7.802 22.837-13.131" style="fill:none;fill-opacity:1;fill-rule:evenodd;stroke:#000;stroke-width:1pt;stroke-linecap:butt;stroke-linejoin:miter;stroke-opacity:1" transform="translate(461.4 21.482)scale(.621)"/><path d="M207.443 220.117s20.173 5.519 22.457-23.409c-4.377-12.56-10.467-39.585-1.142-47.388-8.564-5.9-17.89.19-17.89.19-.57 1.332-8.183 12.18 2.094 31.212-24.36-6.471-14.464 16.557-14.464 16.557.952-3.616 13.893-7.041 17.128 11.419 1.333 4.567-8.754 11.61-8.183 11.419z" style="fill:#00f;fill-opacity:1;fill-rule:evenodd;stroke:#000;stroke-width:1pt;stroke-linecap:butt;stroke-linejoin:miter;stroke-opacity:1" transform="translate(461.4 21.482)scale(.621)"/><path d="M230.09 196.899s21.315-11.42 20.744-38.254c-18.08.38-24.55 23.79-24.55 23.79z" style="fill:#00f;fill-opacity:1;fill-rule:evenodd;stroke:#000;stroke-width:1pt;stroke-linecap:butt;stroke-linejoin:miter;stroke-opacity:1" transform="translate(461.4 21.482)scale(.621)"/><path d="M134.552 195.566s-15.796 13.703-24.74 9.326c-6.662 3.996-14.464-3.045-14.464-3.045s9.135 33.685 41.869 9.325c-.571-7.422-2.284-15.035-2.665-15.606z" style="fill:#fff;fill-opacity:1;fill-rule:evenodd;stroke:#000;stroke-width:1pt;stroke-linecap:butt;stroke-linejoin:miter;stroke-opacity:1" transform="translate(461.4 21.482)scale(.621)"/><path d="M109.621 204.32c1.332-7.04 6.852-10.467 11.229-3.806 5.9 1.142 11.8-23.028-9.135-19.031 5.9-31.592-11.8-43.392-11.8-43.392s-6.28 35.018-3.426 41.489-4.186-11.99-26.834-17.129c-.38 26.454 25.312 38.825 25.312 38.825s7.232 6.66 14.654 3.045z" style="fill:#00f;fill-opacity:1;fill-rule:evenodd;stroke:#000;stroke-width:1pt;stroke-linecap:butt;stroke-linejoin:miter;stroke-opacity:1" transform="translate(461.4 21.482)scale(.621)"/><path d="M111.715 181.293s-9.897 8.374-7.613 19.792M96.68 180.15s-2.284 8.184 2.664 19.793" style="fill:none;fill-opacity:1;fill-rule:evenodd;stroke:#000;stroke-width:1pt;stroke-linecap:butt;stroke-linejoin:miter;stroke-opacity:1" transform="translate(461.4 21.482)scale(.621)"/><path d="M95.157 202.608s4.568-7.422 14.464 2.093" style="fill:none;fill-opacity:1;fill-rule:evenodd;stroke:#000;stroke-width:1pt;stroke-linecap:butt;stroke-linejoin:miter;stroke-opacity:1" transform="translate(461.4 21.482)scale(.621)"/><path d="M97.06 151.223c0-.19-15.034 0-6.09 15.225-6.66 2.094-21.505-7.613-11.228-20.554-33.686-.761-47.389-16.938-47.389-31.782 9.897 10.277 33.496 6.09 41.87 12.37-10.277-9.516-8.184-22.647-8.184-22.647s28.738 8.564 33.876 34.066c-1.713 4.948-2.474 13.703-2.855 13.322z" style="fill:#fff;fill-opacity:1;fill-rule:evenodd;stroke:#000;stroke-width:1pt;stroke-linecap:butt;stroke-linejoin:miter;stroke-opacity:1" transform="translate(461.4 21.482)scale(.621)"/><path d="M73.942 125.818c5.546 5.642 19.795 7.328 27.027 13.608" style="fill:none;fill-opacity:1;fill-rule:evenodd;stroke:#000;stroke-width:1pt;stroke-linecap:butt;stroke-linejoin:miter;stroke-opacity:1" transform="translate(461.4 21.482)scale(.621)"/><path d="M80.503 142.469s11.797-1.523 15.216 2.664c-4.616 0-6.155-1.142-12.822 1.332 1.88-.952 1.367-2.664 2.393-2.664s-4.274-1.332-4.787-1.332z" style="font-size:12px;fill:#cccccd;fill-rule:evenodd;stroke:#ccc;stroke-width:.94781297" transform="translate(461.4 21.482)scale(.621)"/><path d="M139.31 50.166s6.47-5.71 13.513-.571c-3.182 9.507-14.655 5.9-14.655 5.9s.381 4.758-.76 7.041c2.296 1.727 4.186 7.423 4.186 7.423s11.8-2.855 14.274 2.284c4.518-.624 7.803 0 7.803 0s9.135-2.284 12.37-2.284 13.512 2.664 14.464 4.567c.951 1.903 4.377 14.655 6.66 14.464 2.285-.19-5.518 3.045-7.612-.19-2.093-3.236-1.522 4.187-1.522 4.187s6.47 6.851 7.232 8.374c.76 1.522-3.997 13.893-.38 22.457-3.17.293-3.427 3.616-3.427 3.616-.174 3.77-4.948 4.757-4.948 4.757l-1.142-5.138-3.235 1.903 1.332-3.996s4.377-10.658 4.758-14.084c.38-3.425-3.997-9.515-7.422-9.515-3.426 0-5.9 10.847-5.9 10.847s-1.713 8.184-1.142 8.945-2.284-2.664-2.284-2.664-1.522 4.948-2.664 6.47c-1.142 1.523-3.616 2.094-3.616 2.094s-1.713-4.948-1.142-6.851 9.326-9.326 8.564-14.654c-.761-5.33 0-3.997-.19-4.187s-4.568-3.997-4.758-6.09-5.71 2.664-12.941 1.141c-2.214 3.868-2.474 13.513-2.474 13.513s-.762 11.609.76 12.941-3.805 4.187-3.805 4.187l-3.807 5.138s-1.332-3.235-1.332-3.044-2.664 1.903-2.664 1.903l1.522-3.807c-.093-2.88 3.7-10.75 3.7-17.411s.487-13.8.487-13.8-7.042-.38-6.851 6.851c.19 7.232-1.713 7.613-1.332 9.706.38 2.094 2.283 7.993 1.712 9.706-.57 1.713-2.854 2.284-2.854 2.284l-.571.952s-7.042 3.235-6.852 4.567-.19-3.806-.19-3.806l-.38-5.52s4.186-2.664 4.186-9.325-.964-7.608-.774-9.13 1.155-7.047.965-7.617-3.997 1.522-5.139 1.522 2.094-3.996 2.474-6.851-3.806 2.664-7.232-.571c1.593-3.514 3.997-4.568 4.378-7.232.38-2.665-2.665 2.284-5.33.38.217-2.553 2.856-4.757 2.856-4.757s-2.17-.266-3.046 0c-1.712-.571 1.904-3.236 2.094-7.042s-2.094-5.329-2.094-5.52-3.806-3.425-4.377-4.757-.57-2.855-.57-2.855-6.281 4.568-13.703-5.138c6.797-5.803 14.083-1.523 14.083-1.523s1.903-5.329 10.658-4.948 10.467 5.329 10.086 4.758z" style="fill:#923f00;fill-opacity:1;fill-rule:evenodd;stroke:#000;stroke-width:1pt;stroke-linecap:butt;stroke-linejoin:miter;stroke-opacity:1" transform="translate(461.4 21.482)scale(.621)"/><path d="M187.185 148.61c.159 0 16.167.476 16.326 9.035s-4.914 6.34-5.072 6.34-11.73-1.426-11.73-1.426z" style="fill:#00f;fill-opacity:1;fill-rule:evenodd;stroke:#000;stroke-width:1pt;stroke-linecap:butt;stroke-linejoin:miter;stroke-opacity:1" transform="translate(461.4 21.482)scale(.621)"/><path d="M171.653 146.234s19.97-.159 18.86 8.558-6.18 6.974-6.18 6.974l-9.669-.792z" style="fill:#fffeff;fill-opacity:1;fill-rule:evenodd;stroke:#000;stroke-width:1pt;stroke-linecap:butt;stroke-linejoin:miter;stroke-opacity:1" transform="translate(461.4 21.482)scale(.621)"/><path d="m160.4 145.283 11.57.95s6.973.951 6.656 7.608-7.132 6.816-7.132 6.816l-11.253-.634z" style="fill:#00f;fill-opacity:1;fill-rule:evenodd;stroke:#000;stroke-width:1pt;stroke-linecap:butt;stroke-linejoin:miter;stroke-opacity:1" transform="translate(461.4 21.482)scale(.621)"/><path d="M133.3 148.61c-.159 0-16.167.476-16.325 9.035-.159 8.56 4.913 6.34 5.072 6.34s11.728-1.426 11.728-1.426z" style="fill:#fff;fill-opacity:1;fill-rule:evenodd;stroke:#000;stroke-width:1pt;stroke-linecap:butt;stroke-linejoin:miter;stroke-opacity:1" transform="translate(461.4 21.482)scale(.621)"/><path d="M148.833 146.234s-19.971-.159-18.862 8.558 6.182 6.974 6.182 6.974l9.668-.792z" style="fill:#00f;fill-opacity:1;fill-rule:evenodd;stroke:#000;stroke-width:1pt;stroke-linecap:butt;stroke-linejoin:miter;stroke-opacity:1" transform="translate(461.4 21.482)scale(.621)"/><path d="m160.086 145.283-11.57.95s-6.974.951-6.657 7.608 7.132 6.816 7.132 6.816l11.253-.634z" style="fill:#fff;fill-opacity:1;fill-rule:evenodd;stroke:#000;stroke-width:1pt;stroke-linecap:butt;stroke-linejoin:miter;stroke-opacity:1" transform="translate(461.4 21.482)scale(.621)"/><path d="M191.072 241.51s8.32-12.26 11.823-10.947c3.066 1.022.73 10.51-.73 11.385zm-57.029 2.19c-2.628-3.65-6.423-13.721-9.926-10.948-3.066 1.022-.73 10.51.73 11.386z" style="fill:#5e0043;fill-opacity:1;fill-rule:evenodd;stroke:#000;stroke-width:1pt;stroke-linecap:butt;stroke-linejoin:miter;stroke-opacity:1" transform="translate(461.4 21.482)scale(.621)"/><path d="M139.553 219.455s16.212 9.986 21.53 10.246c5.317.259 22.177-12.97 22.177-12.97" style="fill:none;fill-opacity:1;fill-rule:evenodd;stroke:#000;stroke-width:1pt;stroke-linecap:butt;stroke-linejoin:miter;stroke-opacity:1" transform="translate(461.4 21.482)scale(.621)"/><path d="m141.11 180.286 3.112-3.89 15.564 7.911 15.822-7.004 3.113 3.243-17.639 12.45z" style="fill:#5e0043;fill-opacity:1;fill-rule:evenodd;stroke:#000;stroke-width:1pt;stroke-linecap:butt;stroke-linejoin:miter;stroke-opacity:1" transform="translate(461.4 21.482)scale(.621)"/><path d="M128.749 180.077c1.264 1.596 11.323 13.828 13.138 23.944 1.816 10.116-1.037-13.878-1.037-13.878s12.45 6.096 12.84 9.987c.389 3.89 5.952-.263 6.218-.928l-36.048-23.415zm61.515-.698s-13.1 17.25-11.543 36.055c-2.702-9.004-.519-23.864-.519-23.864l-2.853 1.816s-2.983 12.71-6.744 14.655c-.634-1.514-.519-2.075-.519-2.075s-4.02 5.188-4.799 5.707c-.778.519.26 17.509.26 17.509s1.35 12.314 2.906 12.185c-1.77.868-3.944 2.214-3.944 2.214l-1.614-32.882 3.69-3.695s4.928-5.966 5.317-11.802c-2.14 1.814-4.54 2.334-4.54 2.334s-.648 8.3-2.594 9.468-1.998 3.332-1.998 3.332l-.463-10.848z" style="fill:#474747;fill-opacity:1;fill-rule:evenodd;stroke:#474747;stroke-width:1.25;stroke-linecap:butt;stroke-linejoin:round;stroke-dasharray:none;stroke-opacity:1" transform="translate(461.4 21.482)scale(.621)"/><path d="m160.304 199.352 2.531 51.871" style="fill:none;fill-opacity:1;fill-rule:evenodd;stroke:#000;stroke-width:1.25;stroke-linecap:round;stroke-linejoin:miter;stroke-dasharray:none;stroke-opacity:1" transform="translate(461.4 21.482)scale(.621)"/><path d="M128.399 224.124s5.966 3.501 8.17 14.137c19.455-1.427 25.551 5.447 25.551 5.447s15.953-7.652 23.345-6.226c2.594-5.447 9.987-12.45 9.987-12.45" style="fill:none;fill-opacity:1;fill-rule:evenodd;stroke:#000;stroke-width:1pt;stroke-linecap:butt;stroke-linejoin:miter;stroke-opacity:1" transform="translate(461.4 21.482)scale(.621)"/><path d="m120.259 173.283 40.045 26.198 36.056-24.253s7.522-4.15 6.874-7.133-3.243-1.816-4.54-1.297-37.741 26.328-37.741 26.328l-38.78-24.512s-2.853-.908-3.371.908c-.52 1.815 1.068 2.853 1.457 3.76z" style="fill:#b4b6b9;fill-opacity:1;fill-rule:evenodd;stroke:#000;stroke-width:1pt;stroke-linecap:butt;stroke-linejoin:miter;stroke-opacity:1" transform="translate(461.4 21.482)scale(.621)"/><path d="M191.87 166.475s-10.246-4.35-10.246-.58.29 4.156 1.933 6.573c1.643 2.416-1.256 3.963-1.256 3.963s-.387-1.063-.967-2.707-6.09-2.803-6.573-4.736 1.16-5.026-2.127-5.413c-3.286-.386-6.476 1.354-7.152 5.123s-4.93 12.566-4.93 12.566l.58-20.009c7.217.516 20.62 2.095 30.931 3.287-3.093-.483 1.16.193 1.063 1.256-.29.87-1.353.967-1.256.677zm-36.248-5.026c-1.836 0-11.019 1.063-13.339 2.416s3.77 3.48 2.997 5.316c-.774 1.837-.87 5.51-3.77 4.737-2.9-.774-12.662-5.607-12.952-7.25s-2.32-1.74-2.32-1.74 28.031-3.77 29.384-3.48z" style="fill:#474747;fill-opacity:1;fill-rule:evenodd;stroke:#474747;stroke-width:1.25;stroke-linecap:butt;stroke-linejoin:round;stroke-dasharray:none;stroke-opacity:1" transform="translate(461.4 21.482)scale(.621)"/><path d="m160.045 159.146-.07 24.582m-18.863-53.542s-11.231 18.236-11.453 18.792" style="fill:none;fill-opacity:1;fill-rule:evenodd;stroke:#000;stroke-width:1pt;stroke-linecap:butt;stroke-linejoin:miter;stroke-opacity:1" transform="translate(461.4 21.482)scale(.621)"/><path d="M161.795 129.741s4.893 6.672 4.337 8.562c2.001 1.557 4.225 7.784 4.225 7.784" style="fill:url(#g);fill-opacity:1;fill-rule:evenodd;stroke:#000;stroke-width:1pt;stroke-linecap:butt;stroke-linejoin:miter;stroke-opacity:1" transform="translate(461.4 21.482)scale(.621)"/><path d="M180.699 128.629s-10.564 14.9-10.23 16.013" style="fill:none;fill-opacity:1;fill-rule:evenodd;stroke:#000;stroke-width:1pt;stroke-linecap:butt;stroke-linejoin:miter;stroke-opacity:1" transform="translate(461.4 21.482)scale(.621)"/><path d="M126.497 56.748c0 .793-1.134 1.437-2.533 1.437s-2.533-.644-2.533-1.437c0-.794 1.134-1.438 2.533-1.438s2.533.644 2.533 1.438" style="fill:#000;fill-opacity:1;fill-rule:evenodd;stroke:none;stroke-width:1pt;stroke-linecap:butt;stroke-linejoin:miter;stroke-opacity:1" transform="matrix(.631 .19324 -.18708 .65177 470.809 -4.066)"/><path d="M126.497 56.748c0 .793-1.134 1.437-2.533 1.437s-2.533-.644-2.533-1.437c0-.794 1.134-1.438 2.533-1.438s2.533.644 2.533 1.438" style="fill:#000;fill-opacity:1;fill-rule:evenodd;stroke:none;stroke-width:1pt;stroke-linecap:butt;stroke-linejoin:miter;stroke-opacity:1" transform="matrix(-.631 .19324 .18708 .65177 611.871 -4.25)"/><path d="M254.49 366.131s-3.917.735-3.794 1.102-11.384.734-11.63.367c-.244-.367-1.713 1.959-1.713 1.959l1.836-1.102s2.816 2.938 3.673 2.693-.368 1.102-.123 1.347 1.102-.49 1.102-.49l19.023-.318z" style="fill:#ff7000;fill-opacity:1;fill-rule:evenodd;stroke:#000;stroke-width:1pt;stroke-linecap:butt;stroke-linejoin:round;stroke-opacity:1" transform="translate(461.4 21.482)scale(.621)"/><path d="m261.581 372.047-15.537.45s-3.917 3.55-4.162 4.406c-.244.857 2.571 1.102 2.571 1.102l.857 2.938 1.958-.735s13.212 1.965 25.34-.734c6.12-2.142 7.19-4.713 2.906-6.274s-13.81-1.092-13.933-1.153z" style="fill:#ff7000;fill-opacity:1;fill-rule:evenodd;stroke:#000;stroke-width:1.25;stroke-linecap:butt;stroke-linejoin:round;stroke-dasharray:none;stroke-opacity:1" transform="translate(461.4 21.482)scale(.621)"/><path d="m208.37 403.926 27.97-1.246-5.209-4.416 75.648-3.058-2.605-6.002-84.707 3.398 10.192 4.756-22.875.68.68 2.377-6.003-.226s6.682 2.605 6.908 3.737z" style="fill:url(#h);fill-opacity:1;fill-rule:evenodd;stroke:#000;stroke-width:1pt;stroke-linecap:butt;stroke-linejoin:miter;stroke-opacity:1" transform="translate(461.4 21.482)scale(.621)"/><path d="M239.726 249.424c-2.222-1.11-11.997-2.444-22.884 4.666l.444 25.105s15.997-8.664 23.773-6.665c-.444-7.776-.444-17.774-1.333-23.106z" style="fill:url(#i);fill-opacity:1;fill-rule:evenodd;stroke:#000;stroke-width:1pt;stroke-linecap:butt;stroke-linejoin:miter;stroke-opacity:1" transform="translate(461.4 21.482)scale(.621)"/><path d="M85.074 325.653 19.118 391.13m95.349-65-53.53 70.497m51.14-88.897-71.452 86.507m-2.151-1.195 6.93-8.125m80.295-33.694-27.721 38.235m-1.195 5.018.717 14.577m40.864-44.448-29.393 36.801m24.136-2.867 11.948-19.596m-7.408-3.823-14.338 16.25m10.037-31.545-9.798 11.949m-2.868-29.394s-29.871 43.732-29.393 47.317m26.287-53.052c-.717.478-25.81 33.695-25.81 33.695m-1.434 10.515-4.54 5.496m-5.735 8.364-6.93 9.081" style="fill:none;fill-opacity:1;fill-rule:evenodd;stroke:#000;stroke-width:1pt;stroke-linecap:butt;stroke-linejoin:miter;stroke-opacity:1" transform="translate(461.4 21.482)scale(.621)"/><path d="M81.81 225.002s-2.023 6.36 0 9.54c2.025 3.18 14.744 28.908 14.744 28.908s8.673-10.696 11.853-10.985 1.734 27.752 1.734 27.752-5.203 4.915-8.383 4.626 7.805 10.985 7.516 20.525-14.454 56.949-19.658 57.817c-5.203.867 2.313-8.673 2.024-11.275-.29-2.601-1.735-.867-2.891-3.758s1.735-7.227 1.156-10.118c-.578-2.891-3.18-2.312-3.469-4.336s1.735-2.602 1.446-4.914c-.29-2.313-3.47-1.735-3.18-3.759.289-2.023.578-1.156.289-4.914-.29-3.758-.867 2.602-4.047 2.891s-5.782 7.516-5.782 7.516-6.36 8.962-12.72 4.914c3.758 8.095.867 11.564-.578 11.853s1.156 6.36-2.313 6.649 2.602 13.587-1.445 14.743c4.336 2.024.867 4.626.867 4.626s-10.02.832-7.805 13.876c-29.487-10.407-43.94-28.331-43.652-46.543.29-18.212 6.071-34.69 20.236-40.761 4.047-15.033 10.985-31.221 10.985-31.221s-1.156-6.649-.289-10.986c.867-4.336 4.915-8.672 4.915-8.672s-.578-10.407-.29-15.61c.29-5.204 2.313-7.517 2.602-10.407.29-2.891-.867-17.635 2.024-20.236 2.89-2.602 8.383-2.313 11.274-4.048s6.65-4.914 10.407-4.625c3.758.289 6.938 2.891 6.938 2.891s14.166 0 15.033 5.493c.867 5.492-2.891 7.516-2.891 7.516s2.024 7.805-6.65 15.032z" style="fill:#8a9396;fill-opacity:1;fill-rule:evenodd;stroke:#2b2b2b;stroke-width:1pt;stroke-linecap:butt;stroke-linejoin:miter;stroke-opacity:1" transform="translate(461.4 21.482)scale(.621)"/><path d="M69.666 206.453c0 .953-1.594 1.726-3.56 1.726s-3.558-.773-3.558-1.726 1.593-1.725 3.559-1.725c1.965 0 3.559.772 3.559 1.725z" style="fill:#cecfcf;fill-opacity:1;fill-rule:evenodd;stroke:#2b2b2b;stroke-width:1pt;stroke-linecap:butt;stroke-linejoin:miter;stroke-opacity:1" transform="matrix(.54613 -.29562 .29562 .54612 405.318 56.618)"/><path d="M66.68 206.444c0 .356-.446.645-.996.645s-.996-.289-.996-.645.445-.644.996-.644.996.288.996.644" style="fill:#000;fill-opacity:1;fill-rule:evenodd;stroke:none;stroke-width:1pt;stroke-linecap:butt;stroke-linejoin:miter;stroke-opacity:1" transform="matrix(.66971 0 0 .9221 458.25 -40.672)"/><path d="M87.971 216s3.511 15.676-.687 26.504m1.767-33.367s6.85 9.06 5.966 20.33m-5.303-22.319c.221 0 5.745 4.862 5.524 8.176M91.04 205.16s3.757 2.651 4.64 5.303" style="fill:none;fill-opacity:1;fill-rule:evenodd;stroke:#2b2b2b;stroke-width:.625;stroke-linecap:butt;stroke-linejoin:miter;stroke-dasharray:none;stroke-opacity:1" transform="translate(461.4 21.482)scale(.621)"/><path d="M89.272 203.613s-13.479 21.876-11.711 35.576" style="fill:none;fill-opacity:1;fill-rule:evenodd;stroke:#000;stroke-width:1pt;stroke-linecap:butt;stroke-linejoin:miter;stroke-opacity:1" transform="translate(461.4 21.482)scale(.621)"/><path d="M90.156 202.95s-17.899 10.607-21.213 45.299" style="fill:none;fill-opacity:1;fill-rule:evenodd;stroke:#2b2b2b;stroke-width:.625;stroke-linecap:butt;stroke-linejoin:miter;stroke-dasharray:none;stroke-opacity:1" transform="translate(461.4 21.482)scale(.621)"/><path d="m88.167 209.358-7.07 5.303" style="fill:none;fill-opacity:1;fill-rule:evenodd;stroke:#000;stroke-width:1pt;stroke-linecap:butt;stroke-linejoin:miter;stroke-opacity:1" transform="translate(461.4 21.482)scale(.621)"/><path d="M62.314 250.238s9.943-41.322 27.621-47.288" style="fill:none;fill-opacity:1;fill-rule:evenodd;stroke:#2b2b2b;stroke-width:.625;stroke-linecap:butt;stroke-linejoin:miter;stroke-dasharray:none;stroke-opacity:1" transform="translate(461.4 21.482)scale(.621)"/><path d="M96.785 264.159s9.502-11.933 11.712-11.49c2.21.441 1.546 27.62 1.546 27.62s-7.07 5.304-8.617 5.083c-1.547-.22 7.955 12.816 7.734 17.678-.221 4.861-.442 4.861-.442 4.861s0-2.873-2.21-7.513-.884-9.944-15.247-21.655c-3.536-7.292 7.071 4.42 9.28 2.652 2.21-1.768-3.977-17.015-3.756-17.236z" style="fill:#2b2b2b;fill-opacity:1;fill-rule:evenodd;stroke:#2b2b2b;stroke-width:1pt;stroke-linecap:butt;stroke-linejoin:miter;stroke-opacity:1" transform="translate(461.4 21.482)scale(.621)"/><path d="M79.893 196.957s-3.994 1.09-4.539 2.724-2.905 3.268-4.176 2.724c-1.271-.545-3.632-2.542-3.632-2.542" style="fill:none;fill-opacity:1;fill-rule:evenodd;stroke:#2b2b2b;stroke-width:1pt;stroke-linecap:butt;stroke-linejoin:miter;stroke-opacity:1" transform="translate(461.4 21.482)scale(.621)"/><path d="M57.196 210.939s-5.992 5.992-3.086 6.718c2.905.726 5.992-4.72 5.992-4.72s0 9.26 2.542 7.807 9.986-6.718 9.986-6.718 2.542-.182 3.087 0c.545.181 6.9 5.629 11.076 3.631-2.36 6.174-5.084 6.9-5.084 6.9s-4.358 5.629-9.986 4.358c-5.63-1.271-7.082-3.632-7.082-3.632s-4.72.363-6.174-1.815c-1.452-2.18-1.997-3.45-1.997-3.45s-2.723 2.723-3.45 1.452c-.726-1.27 0-8.715 4.176-10.531z" style="fill:#2b2b2b;fill-opacity:1;fill-rule:evenodd;stroke:#2b2b2b;stroke-width:1.25;stroke-linecap:butt;stroke-linejoin:round;stroke-dasharray:none;stroke-opacity:1" transform="translate(461.4 21.482)scale(.621)"/><path d="M91.151 202.586s-11.076-3.268-14.89 2.18c-3.812 5.446-2.904 8.533-.907 9.078" style="fill:none;fill-opacity:1;fill-rule:evenodd;stroke:#2b2b2b;stroke-width:1pt;stroke-linecap:butt;stroke-linejoin:miter;stroke-opacity:1" transform="translate(461.4 21.482)scale(.621)"/><path d="M92.86 202.28c0 1.307-.935 2.365-2.088 2.365s-2.088-1.058-2.088-2.364.935-2.365 2.088-2.365 2.088 1.059 2.088 2.365" style="fill:#000;fill-opacity:1;fill-rule:evenodd;stroke:none;stroke-width:1pt;stroke-linecap:butt;stroke-linejoin:miter;stroke-opacity:1" transform="translate(461.4 21.482)scale(.621)"/><path d="M60.625 230.544s4.516 6.948 9.9 8.86c5.386 1.91-3.734 3.56-9.119-.088-3.908-5.298-2.866-9.12-2.866-9.12s1.042-1.042 2.084.348zm38.65 40.996s-12.681-17.632-16.329-18.588 2.78-1.737 6.688 1.998-1.042-6.08-1.042-6.08z" style="fill:#2b2b2b;fill-opacity:1;fill-rule:evenodd;stroke:#2b2b2b;stroke-width:1pt;stroke-linecap:butt;stroke-linejoin:miter;stroke-opacity:1" transform="translate(461.4 21.482)scale(.621)"/><path d="M59.409 373.42c4.863-1.303 26.056 12.16 30.833 15.547s14.765 1.216 14.765 1.216-4.603 2.78-7.47 3.474c-2.865.695 8.512.695 8.512.695s-27.098 7.47-54.631-7.035c-2.519-11.291 5.906-13.81 7.99-13.897z" style="fill:#2b2b2b;fill-opacity:1;fill-rule:evenodd;stroke:#2b2b2b;stroke-width:1.25;stroke-linecap:butt;stroke-linejoin:round;stroke-dasharray:none;stroke-opacity:1" transform="translate(461.4 21.482)scale(.621)"/><path d="M90.416 275.882s-3.561-.695-5.385-2.78-4.43-7.208-7.122-9.38c-2.693-2.17-16.155-9.554-21.02-9.032-4.863.52-6.34-.522-6.948-1.13s-2.605.261-2.258 2.78c.348 2.519-3.735 8.077-2.258 10.683s8.425 13.202 9.815 13.55c1.39.347.52 6.166.52 6.166s6.167 6.253 7.73 6.6c1.564.348 3.127 1.478 2.954 2.954-.174 1.476-6.775 9.554-6.775 9.554s-7.122 3.735-7.209 5.82c-.087 2.084 1.737 6.427 7.383 7.816 5.645 1.39 20.845.26 21.627-1.042.781-1.303 1.997-9.12 1.476-9.901s-4.256-3.127-6.167-2.78c-1.91.348-3.647 1.91-3.474 2.258.174.348-2.692 1.824-2.692.435s5.645-7.644 6.166-7.123c.522.522 8.512 1.303 9.989 5.299 1.476 3.995 1.476 6.861 5.645 6.427 4.17-.434 9.989-4.256 10.51-12.247s-4.69-13.375-5.993-14.157-5.646-3.387-5.993-4.603-1.216-5.211-.521-6.167z" style="fill:#2b2b2b;fill-opacity:1;fill-rule:evenodd;stroke:#2b2b2b;stroke-width:1pt;stroke-linecap:butt;stroke-linejoin:miter;stroke-opacity:1" transform="translate(461.4 21.482)scale(.621)"/><path d="M15.286 311.145s13.463-3.474 16.937-3.387 16.59 6.167 20.41 9.901c3.822 3.735 11.64 12.594 16.764 11.812 5.124-.781 6.6-1.823 6.6-1.823L74 331.469s-4.169 1.13-6.253.608-6.167-1.824-10.25-5.82c-4.081-3.995-16.675-14.764-27.358-13.983-10.684.782-16.85 11.291-16.85 11.291s.087-5.124.52-6.253c.435-1.13-2.257 2.432-2.257 2.432z" style="fill:#2b2b2b;fill-opacity:1;fill-rule:evenodd;stroke:#2b2b2b;stroke-width:1pt;stroke-linecap:butt;stroke-linejoin:miter;stroke-opacity:1" transform="translate(461.4 21.482)scale(.621)"/><path d="M64.88 321.568c.087.087 3.388.955 8.946.955 5.56 0 8.512-2.432 8.512-2.432l-.347-2.171.868-3.04s4.256 4.343 4.17 5.211c-.088.869-1.738 1.216-1.738 1.216l-.608-2.084-1.476 1.824s-8.078 6.427-12.507 5.471-8.512-3.821-7.383-4.516 1.737-.434 1.563-.434zm-19.629 11.378s-4.864-.087-7.035.955-2.953 2.345-4.43 2.171c-1.476-.173-2.605-2.084-2.17-2.866.607-1.216 3.473-2.78 8.945-2.345s4.69 2.085 4.69 2.085zm17.024 13.202c0-.261-.348-7.123-3.04-9.902-2.693-2.78-5.993-2.78-7.47-2.432s5.472 3.387 6.167 5.385 2.953 7.557 2.345 8.946c-.608 1.39-1.737-3.908-5.993-5.385s-10.162-.695-8.946 1.216 5.993.174 8.425 4.256 4.256 8.425 4.256 8.425l.782-2.953 2.17-.608.261-5.646z" style="fill:#2b2b2b;fill-opacity:1;fill-rule:evenodd;stroke:#2b2b2b;stroke-width:1pt;stroke-linecap:butt;stroke-linejoin:miter;stroke-opacity:1" transform="translate(461.4 21.482)scale(.621)"/><path d="m58.8 368.382-4.429-8.859s-1.39-5.645-5.124-7.209c-3.735-1.563-8.686-1.303-8.773.608s7.99 4.343 8.512 5.385c.521 1.042.26 2.78-.434 2.866-.695.087-4.256-1.302-6.08-.868s-2.866 2.78-5.559 2.084-4.95-9.293-3.908-10.162c1.042-.868-1.998 1.564-2.606-.694s.869-9.294-.174-10.163-6.08-3.908-6.166-4.516.26-34.568 28.662-6.427c-12.16-14.418-16.937-12.855-19.195-12.941-1.65 0-12.68.955-15.46 15.025s-6.08 5.298-6.08 5.298-.608 6.08 2.345 7.817-1.39 6.775-1.39 6.775-5.298-12.941-4.516-18.587c-1.042 4.517-.956 15.72 5.732 27.967 7.817 8.252 15.2 15.895 34.829 24.493 10.336-15.807 9.815-17.718 9.815-17.892z" style="fill:#2b2b2b;fill-opacity:1;fill-rule:evenodd;stroke:#2b2b2b;stroke-width:1.25;stroke-linecap:butt;stroke-linejoin:round;stroke-dasharray:none;stroke-opacity:1" transform="translate(461.4 21.482)scale(.621)"/><path d="M40.214 368.47s5.732.694 7.295 3.647c1.564 2.953 2.259 7.47 2.259 7.47.955-1.911 1.39-3.561 3.3-4.951 1.911-1.39 3.3-1.564 3.214-2.606-.087-1.042-6.08-7.382-9.12-7.73-3.04-.347-8.338 3.3-8.338 3.3s-.955 1.39 1.39.87z" style="fill:#8a9396;fill-opacity:1;fill-rule:evenodd;stroke:#2b2b2b;stroke-width:1.25;stroke-linecap:butt;stroke-linejoin:round;stroke-dasharray:none;stroke-opacity:1" transform="translate(461.4 21.482)scale(.621)"/><path d="M53.307 383.407s14.856 6.773 39.324 7.21" style="fill:none;fill-opacity:1;fill-rule:evenodd;stroke:#8a9396;stroke-width:1.25;stroke-linecap:round;stroke-linejoin:miter;stroke-dasharray:none;stroke-opacity:1" transform="translate(461.4 21.482)scale(.621)"/><path d="M102.905 314.454s-1.279 12.463-10.866 37.07" style="fill:none;fill-opacity:1;fill-rule:evenodd;stroke:#2b2b2b;stroke-width:1.25;stroke-linecap:round;stroke-linejoin:miter;stroke-dasharray:none;stroke-opacity:1" transform="translate(461.4 21.482)scale(.621)"/><path d="M100.987 322.124s-2.876 8.948-10.866 15.659" style="fill:none;fill-opacity:1;fill-rule:evenodd;stroke:#2b2b2b;stroke-width:1pt;stroke-linecap:butt;stroke-linejoin:miter;stroke-opacity:1" transform="translate(461.4 21.482)scale(.621)"/></svg>