<svg xmlns="http://www.w3.org/2000/svg" version="1.0" viewBox="0 0 1200 600"><g style="fill:#00009e;stroke:none"><path d="M448.009 723.359V579.366H159.991v143.993z" style="fill:#00247d;fill-opacity:1;stroke:none" transform="matrix(4.1664 0 0 4.16687 -666.587 -2414.142)"/></g><g style="fill:#fff;stroke:none"><path d="M159.991 603.355h30.373l-30.373-15.24v-8.749h17.378l42.488 21.178v-21.178h23.925v21.178l42.488-21.178h17.528v8.749l-30.523 15.24h30.523v24.008h-30.523l30.523 15.24v8.752H286.27l-42.488-21.181v21.181h-23.925v-21.181l-42.488 21.181h-17.378v-8.752l30.373-15.24h-30.373z" style="stroke:none" transform="matrix(4.1664 0 0 4.16687 -666.587 -2414.142)"/></g><g style="fill:#ef072d;stroke:none"><path d="m292.494 579.366-48 24.006h11.49l47.814-24.006z" style="fill:#cf142b;fill-opacity:1;stroke:none" transform="matrix(4.1664 0 0 4.16687 -666.587 -2414.142)"/></g><g style="fill:#ef072d;stroke:none"><path d="m303.798 651.355-47.865-23.993h11.541l36.324 18.273z" style="fill:#cf142b;fill-opacity:1;stroke:none" transform="matrix(4.1664 0 0 4.16687 -666.587 -2414.142)"/></g><g style="fill:#ef072d;stroke:none"><path d="m208.083 603.372-48.092-24.006v5.733l36.501 18.273z" style="fill:#cf142b;fill-opacity:1;stroke:none" transform="matrix(4.1664 0 0 4.16687 -666.587 -2414.142)"/></g><g style="fill:#ef072d;stroke:none"><path d="m207.984 627.362-47.993 23.993h11.484l48-23.993z" style="fill:#cf142b;fill-opacity:1;stroke:none" transform="matrix(4.1664 0 0 4.16687 -666.587 -2414.142)"/></g><g style="fill:#ef072d;stroke:none"><path d="M159.991 608.336h64.962v-28.97h14.059v28.97h64.786v14.058h-64.786v28.961h-14.059v-28.961h-64.962z" style="fill:#cf142b;fill-opacity:1;stroke:none" transform="matrix(4.1664 0 0 4.16687 -666.587 -2414.142)"/></g><g style="fill:#4fa8ff;stroke:#fff;stroke-opacity:1"><path d="M399.668 640.771c-.046 16.332-2.623 33.927-23.764 42.308-21.142-8.381-23.719-25.976-23.765-42.308z" style="fill:#8fc5ff;fill-opacity:1;stroke:#fff;stroke-width:1.00902939;stroke-miterlimit:4;stroke-dasharray:none;stroke-opacity:1" transform="matrix(4.1664 0 0 4.16687 -666.166 -2413.139)"/></g><g style="fill:#fff;stroke:#000"><path stroke="none" d="M375.904 683.079c9.584-3.799 15.353-9.493 18.8-16.104-.516.02-1.597-.011-2.064-.043-.52-.034-20.271-2.018-22.61-2.876-2.035-.746-9.799.634-13.423 1.929 3.381 7.032 9.237 13.106 19.297 17.094" style="fill:#366cc9;fill-opacity:1;stroke:none;stroke-opacity:1" transform="matrix(4.1664 0 0 4.16687 -666.166 -2413.139)"/></g><g style="fill:#000;stroke:#000;stroke-width:.125"><path stroke="none" d="M361.129 672.954c.323-.105.94-.08 1.183-.036.286.052.338.078.442-.234s.338-.234.52-.078.649.078.831-.182c.182-.259.234-.233.416-.052s.26.13.442.078c.182-.051.494-.259.65-.545s.389-.39.519-.234.26.234.442.208.234.156.208.389c-.026.234.078.286.52-.077.39.389.519.233.519-.182s-.103-1.949-.259-2.157-.312-.806-.338-1.274c-.049-.883-.052-.935-1.118-1.481 0-.312-.078-.442-.831-.39.026-.104-.104-.416-.26-.546s-.182-.182-.104-.545c.312.026.65-.026.832-.286s.779-.208 1.143-.052.832.182 1.533.078c.26-.208.702-.442 1.17-.702s.597-.364.623-.728c.067-.933-.26-2.001-.52-2.494-.259-.494-.337-1.118-.701-1.898-.396-.849-.39-1.065-.832-1.585-.121-.143-.26-.26-.286-.545s-.13-.676-.441-.962c-.786-.721-1.092-3.041-1.404-4.756-.179-.983-.052-3.3-.467-3.664-.702-.572-1.04-.468-1.508-.65-.338-.468-.493-1.403-.805-2.235-.494.078-.832.598-1.17.78s-.39.182-.39.65c0 .467-.26 1.117-.727 1.845-.468.727-1.248.52-1.897 1.611-1.43-1.741-1.456-2.235-1.56-2.729-.104-.493-.338-.597-1.143-1.299 0-.208-.104-1.039-.026-1.507-.598-.494-1.04-.416-1.325-.052-.286.364-.494.909-.936 1.117-.265.337-1.064 1.187-1.718 2.199.595 9.044 2.636 18.022 8.773 25.202" style="fill:#5d3100;fill-opacity:1;stroke:none;stroke-opacity:1" transform="matrix(4.1664 0 0 4.16687 -666.166 -2413.139)"/></g><g style="fill:#ff0;stroke:#fff;stroke-width:.25;stroke-opacity:1"><path d="M399.668 640.771c.018-6.152-.324-12.125-.168-17.359-7.9-3.535-18.295-4.262-23.596-4.262-5.302 0-15.697.727-23.597 4.262.156 5.234-.185 11.207-.168 17.359z" style="stroke:#fff;stroke-width:.98000002;stroke-miterlimit:4;stroke-dasharray:none;stroke-opacity:1" transform="matrix(4.1664 0 0 4.16687 -666.166 -2413.139)"/></g><path d="M353.424 647.892c.26.416.728 1.131.78 1.52.182-.377.325-.545.364-.779s.312-.689.208-.936-.182-.442.104-.26c.285.182.23.497.168.962-.168 1.273-.701 1.533-.779 2.391.767 1.806.195 2.456 1.026 4.223.13.078.477-.061.581-.035.441-.312.771-.199 1.394-.069.624.13.962.571.962.961s0 .494.13.728.39.598.338.858c-.052.259.052.415.13.545s-.026.416-.104.598-.052.416.26.806c.312.389 1.039 2.027 1.039 2.988 0 .962.052 1.404.442 1.585s.52.338.468.754.182 2.573.234 2.911.182.26.338.442c.155.181.259.389.779.389s1.022-.069 1.36-.017c.468.65.754 1.533.858 2.079s.095 1.291.277 1.291.364.026.312-.65-.104-.78-.338-1.117c-.234-.338-.364-.494-.234-.702s.156-.546.104-.806-.13-.649.312-.13c.442.52.572.65.702.832s.181.52.156.832c-.026.311.025.441.207.285.182-.155.416.104.312.442s.026.546.338.65.442.182.52.416.338.337.338-.13c0-.468-.182-1.456-.312-1.767-.13-.312-.234-.988-.26-1.378s-.104-.493-.286-.571-.338-.208-.364-.39-.182-.247-.299-.247-.22-.091-.285-.221-.13-.143-.26-.156-.338.065-.403-.143-.156-.507-.286-.676-.247-.221-.26-.805-.026-.663-.208-.871-.494-.753-.624-.987c-.129-.234-.259-.468-.259.026 0 .493 0 .753.311.935.312.182.39.182.26.442s0 .442.052.624.156.364 0 .545-.312.13-.286-.155-.078-.624-.207-.858c-.13-.234-.234-.39-.39-.26s-.286-.026-.182-.13.078-.182 0-.26-.104-.156.026-.312.13-.234.052-.597c-.078-.364-.65-2.183-.91-2.599s-.234-.728.104-.312.624.78.65 1.117c.026.338.104.546.208.676s.182.078.234-.208.26-.182-.104-.727c-.364-.546-1.04-1.456-1.3-3.093s-.364-2.729-.624-3.17c-.259-.442-.337-.546-.363-.962s0-.832-.182-1.143-.312-.364-.338.104.026 1.507.156 1.689.052.649.026.909-.435.517.416 1.04c.338.208.285.494.234.676-.052.181-.104.155-.286-.13s-.364-.52-.546-.676-.208-.26-.182-.624.104-.624 0-.753c-.104-.13-.156-.026-.208.181-.052.208-.104.78-.208.936s-.156.052-.234-.286.026-.857.208-1.455.286-1.222.13-2.001c-.156-.78-.078-1.014-.676-1.663-.597-.65-1.273-1.274-1.559-2.079s-.338-1.508-.65-1.872c-.311-.363-.753-.831-1.039-.961v-1.195c0-.286-.13-.468-.468-.416s-.546.338-.753.727c-.208.39-.364.208-.65.884s-.702 1.013-.702 1.741" style="fill:#cf6200" transform="matrix(4.1664 0 0 4.16687 -666.166 -2413.139)"/><path d="M355.295 655.506c.208.13.407.217.719.061s.685-.606 1.101-.164.649 1.169.649 1.741c0 .571 0 1.637.65 2.235s.987 1.221 1.013 2.001.312 1.975.39 2.287.26.675.468.883.364.806.39 1.429c.026.624-.078 1.066 0 1.378s0 .572-.234.416-.286-.234-.416-.494-.286-.208-.156.182.52.753.858.753.442.052.65.26c.207.208.233.312.597.312s.416 0 .754.104.338.052.52 0 .363.104.493.442.442 1.273.442 1.533 0 .52.182.78.13.52-.078.364-.208-.104-.364-.078-.26-.052-.467-.182-.078-.104-.286-.416-.338-.416-.338-.182-.026.52-.182.39-.234-.13-.364 0-.182.234-.338-.026-.338-.26-.494-.312-.156-.052-.233-.286-.312-.286-.52-.286-.312-.104-.338-.26c-.026-.155-.156-.259-.26-.337s-.052-.26-.078-.442-.182-.104-.286-.156-.182-.026-.182-.286-.104-.338-.182-.52c-.077-.182 0-.364.052-.571.052-.208.026-.338-.129-.52-.156-.182-.026-.364-.442-.728s-.624-.052-.754-.909c-.13-.858-.39-2.625-.624-2.911s-.389-.494-.623-.572-.39-.026-.416-.52c-.026-.493-.182-1.117-.494-1.429s-.442-.416-.598-.546-.208-.364 0-.805.13-1.04.104-1.326c-.026-.285-.104-.649-.052-.961s.026-.702-.052-.91-.182-.26-.052-.416m6.263-7.389a5.7 5.7 0 0 1-1.212 1.178c-.485.347-1.109.624-.763 1.213.347.589.624.659.693 1.109.07.45.174.832.52.936.347.103.485.034.485.762s0 1.005.312 1.282.277.554.416 1.213c.138.658.138 2.079.554 3.049s1.352 2.807 1.248 3.188-.243.658.173 1.108.693 1.109.728 1.49c.034.382.104.52.519.382.416-.139.624-.278.763-.451.138-.173.415-.138.797.069.381.208.97.416 1.316.208s.52-.519.832-.519c.485-.347.658-1.075.762-1.282s.035-.208-.173-.416-.104-.555-.139-.901c-.034-.347-.173-.866-.589-1.629-.415-.762-.658-1.698-.935-1.94-.277-.243-.416-.832-.451-1.109-.034-.277-.346-.52-.554-.728s-.416-.519-.658-1.732-.416-2.079-.416-2.287-.035-.243-.243-.312-.312-.416-.242-.589c.069-.173-.07-.346-.139-.554s0-.589.139-.797c.138-.208.104-.797-.035-1.282s-.277-.901-.832-.971-.658-.207-.866-.658c-.208-.45-.416-1.247-.485-1.421s-.173-.208-.589.139c-.416.346-.554.461-.554 1.109 0 .416.069.554.207.797.139.242.174.312.278.97s.693 1.698-.07 2.287-.658.728-.623 1.143c.034.416-.208.693-.347.104s0-.935.416-1.212c.416-.278.797-.624.52-1.005-.278-.381-.381-1.282-.416-1.698s-.104-.555-.347-.243" style="fill:#cf6200" transform="matrix(4.1664 0 0 4.16687 -666.166 -2413.139)"/><path d="M355.385 656.952c-.019.282.044.592.066.841.026.286.104.884-.104 1.326-.208.441-.156.675 0 .805l.025.021c.424-.142.479-.615.365-.844-.121-.242-.086-.537.052-.779.139-.243.139-.381.018-.555-.122-.173-.122-.173.017-.658.122-.427-.186-.424-.439-.157m4.432 6.715c-.078-.312-.364-1.508-.39-2.287-.026-.78-.363-1.404-1.013-2.001-.507-.467-.618-1.217-.642-1.796-.381-.233-.542-.127-.51.306.034.467.502.693.433 1.368s-.069.503.26.832.45.641.277.78c-.173.138-.191.381.052.467.242.087.26.347.225.589-.035.243.191.295.329.468.139.173.156.589.018.832-.139.242-.156.623.086.416.243-.208.347-.018.537.311.165.284.303.195.482.109a2 2 0 0 1-.144-.394m3.379 6.055c-.156.312-.338.208-.494.052s-.338-.156-.26-.442.052-.338-.156-.494l-.072-.05c-.065-.002-.141-.002-.24-.002-.364 0-.39-.104-.597-.312a2 2 0 0 0-.128-.116q-.004.076-.002.194c0 .286 0 .234-.286.312s-.234-.286-.286-.52a1 1 0 0 0-.045-.14c-.313-.06-.643-.39-.761-.743-.13-.39.026-.442.156-.182s.182.338.416.494.312-.104.234-.416a1.3 1.3 0 0 1-.028-.345.5.5 0 0 0-.232-.227c-.416-.182-.286-.234-.26-.572s-.052-.337-.312-.156-.286-.026-.286-.545c0-.52-.338-.52-.415-.156-.078.364-.208.13-.364-.39s-.364-.65-.39-.156c-.022.418-.138.518-.41.286.048.302.09.584.124.806.13.857.338.545.754.909s.286.546.442.728c.155.182.181.312.129.52-.052.207-.129.389-.052.571s.182.26.182.52.078.234.182.286c.065.032.149.014.21.04.067-.088.128-.196.206-.274.312-.312.78.026.936.416s.337.494.571.182.156-.26.416.026.364.234.364.234.26-.104.442.052.286.13.623-.364c.338-.494-.155-.338-.311-.026m.927-14.259c.103-.762.034-1.524.346-1.802.312-.277.693-.831.658.347s-.069 1.109-.311 1.386c-.243.277-.451.346-.208.797.242.45.277.485.242 1.178-.034.693-.034.97.243 1.317.277.346.346.381.416.762.069.381.311.901.623 1.178s.659 1.074.693 1.629c.035.554.52.693.97 1.074.451.381-.103.658-.45.485-.346-.173-.208 0-.416.242-.208.243-.277.278-.45-.138s-.763-.693-1.04-.797-.519-.555-.762-1.005c-.208-.387-.62-.67-.996-.699.104.292.16.521.13.63-.104.381-.243.658.173 1.108s.693 1.109.728 1.49c.034.382.104.52.519.382.416-.139.624-.278.763-.451.138-.173.415-.138.797.069.381.208.97.416 1.316.208s.52-.519.832-.519c.485-.347.658-1.075.762-1.282s.035-.208-.173-.416-.104-.555-.139-.901c-.034-.347-.173-.866-.589-1.629-.415-.762-.658-1.698-.935-1.94-.277-.243-.416-.832-.451-1.109-.034-.277-.346-.52-.554-.728s-.416-.519-.658-1.732c-.19-.948-.337-1.683-.392-2.059-.249.397-.419.494-.509.222-.104-.311-.243-.485-.381-.277-.139.208-.174-.173-.174-.346 0-.174-.034-.208-.208-.208-.173 0-.034-.277-.104-.797s-.173-.589-.242.035c-.069.623-.416 1.004-.277 1.143s.069.416-.07.832c-.138.415-.069.658.035.935s-.069.797-.139 1.248c-.069.45.278.9.382.138m-6.333-6.228c-.257.019-.433.244-.286 1.031.092.487-.277.381-.415.138-.139-.242-.243-.762-.52-1.213-.278-.45-.139.312-.173.728-.035.416.242.416.485.762.242.347.034.486-.243.486s-.138.554-.069.935-.069.451-.278.139c-.207-.312-.069-.797-.034-1.386.034-.589.069-.451-.312-.589-.381-.139-.312-.208-.173-.555.138-.346.277-.52.104-.693s-.139-.277.138-.312.174-.242.416-.312c.243-.069.347.035.381-.415.029-.376.155-.607.437-.493.17.579.391 1.48.542 1.749m3.491 4.08c0 .728 0 1.005.312 1.282s.277.554.416 1.213c.138.658.138 2.079.554 3.049.124.289.295.656.47 1.038.23-.181.43-.492.501-.657.103-.243-.208-.728-.451-1.143-.242-.416.035-.555.277-1.075s-.034-.554-.415-.693c-.382-.138-.382-.485-.59-1.039s-.173-.797-.034-1.109.034-.554-.243-.624-.208-.277-.104-.623c.104-.347.173-.416-.242-.312-.315.078-.391.137-.485.251.023.1.034.239.034.442" style="fill:#00b800" transform="matrix(4.1664 0 0 4.16687 -666.166 -2413.139)"/><g style="fill:#000"><path d="M365.266 654.77c-.038.416-.035.624-.139.762-.103.139-.034.347.07.555s.173.485.069.866.069.693.277.797.312 0 .243.485c-.07.485.208 1.005.45 1.213s.416.554.381.762.174.416.416.52c.243.104.208.139.208.277 0 .139.104.139.381.208s.485.243.797.624.762.589.693.173 0-.693-.416-.901c-.415-.208-.727-1.213-.901-1.906-.173-.693-.727-1.628-1.039-1.801-.035-.486.035-.728-.277-.971a1.01 1.01 0 0 1-.416-.797c0-.242-.173-.554-.312-.623-.138-.07-.208-.243-.208-.451s-.242-.173-.277.208" style="fill:#5d3100;fill-opacity:1" transform="matrix(4.1664 0 0 4.16687 -666.166 -2413.139)"/></g><path d="M363.43 673.36c.623-.052 2.313-.546 2.494-.702.416.286 1.144.676 1.456.676-.598.13-.988.052-1.144-.052.078.182.286.468.416.494-.572-.026-1.221-.156-1.429-.364-.494.208-1.326.26-1.793-.052m1.117.78c.221.065 1.325.247 1.468.247-.364.311-.052.61.559.558-.299.039-.625.152-.403.195.533.104 1.975-.286 2.261-.442-.494.637-2.897 1.222-3.885-.558m.988 1.585c.298-.156 1.039-.104 1.39.065-.39.143-1.156.143-1.39-.065" style="fill:#00d860" transform="matrix(4.1664 0 0 4.16687 -666.166 -2413.139)"/><path d="M366.652 675.699c.533-.091 2.04.273 2.573-.052-.182.481-1.131.546-1.456.442s-.636-.234-.857-.221c.117-.065-.078-.078-.26-.169" style="fill:#000" transform="matrix(4.1664 0 0 4.16687 -666.166 -2413.139)"/><path d="M367.198 676.44c.403.064 1.845-.117 2.287-.286.467.156 1.39.402 1.598.376-.442.273-1.287.117-1.559 0-.78.26-1.417.338-2.326-.09" style="fill:#00d860" transform="matrix(4.1664 0 0 4.16687 -666.166 -2413.139)"/><path d="M367.887 676.683c.577.13 1.069.037 1.637-.153.177.076.594.169.986.15.261.149.612.357.95.383-.351.143-1.638 0-1.897-.143-.65.013-1.768.156-2.04.377-.013-.182.105-.435.364-.614" style="fill:#00d860" transform="matrix(4.1664 0 0 4.16687 -666.166 -2413.139)"/><path d="M367.198 673.75c.45.15 2.079.078 2.91-.312.328-.154.531.104.156.234-1.351.468-2.417.65-3.196.234-.308-.164-.338-.312.13-.156" style="fill:#000" transform="matrix(4.1664 0 0 4.16687 -666.166 -2413.139)"/><path d="M375.176 671.541c-2.001.935-3.327 1.221-6.107.364-.259-.08-.442 0-.156.182.286.181 1.819.597 2.183.623s.234.195.013.26-.286.221.013.104 1.969-.161 2.651.195c.298.156.376.13.35.013s.13-.195.351-.221.351-.104.182-.169-.195-.104-.065-.169.143-.13-.052-.169-.325-.091-.143-.182c.182-.09.455-.156.663-.181.052-.143-.039-.52.117-.65" style="fill:#00d860" transform="matrix(4.1664 0 0 4.16687 -666.166 -2413.139)"/><path d="M371.849 671.775c1.144.081 3.249-.442 4.367-1.533.389.233.935.493 1.221.545s.546.312.104.312-1.066-.182-1.351-.312c-1.482.91-3.216 1.209-4.315 1.118-.311-.026-.389-.156-.026-.13" style="fill:#000" transform="matrix(4.1664 0 0 4.16687 -666.166 -2413.139)"/><path d="M368.471 665.538c.39.273 1.079.727 1.975.662.442.351 1.131.65 1.443.715-.598.247-1.248.455-1.417.65-.273-.26-.623-.221-.714-.351-.26.208-.221.338-.052.442s1.481.325 1.806.234.412.178.143.272c-.702.247-2.066.013-2.534-.74-.468-.754-.871-1.04-2.144-.351-.143-.364-.143-.455-.39-.455s-.702-.325-.351-.312 1.391-.143 2.235-.766" style="fill:#00d860" transform="matrix(4.1664 0 0 4.16687 -666.166 -2413.139)"/><path d="M368.783 667.214c-.217.054-.832.39-1.052.416s-.611.338-.208.351c.402.013.922-.429 1.208-.468s.312-.364.052-.299m1.26 1.312c-.154.027-.818.182-1 .169s-.364.039-.351.169.065.208-.208.182-.507.078-.572.156-.117.156.156.182.416.052.728-.091.611-.364.949-.377.675-.455.298-.39" style="fill:#00d860" transform="matrix(4.1664 0 0 4.16687 -666.166 -2413.139)"/><path d="M369.108 669.332c.284.184 1.689.663 2.196.624s.412.203.026.286c-.793.168-1.761-.177-2.417-.702-.325-.26-.026-.351.195-.208" style="fill:#000" transform="matrix(4.1664 0 0 4.16687 -666.166 -2413.139)"/><path d="M375.761 670.021c-1.075.343-2.17.221-2.612.104s-.845-.143-.546.143c.299.285 1.261.48 1.806.337-1.936.442-2.443.403-2.923.325-.481-.078-1.384-.061-1.767-.026-.286.026-.676-.013-.845-.117s-.221-.299.286-.247c.506.052.572-.052.13-.117s-1.053.117-.455.494 1.91-.026 2.742.208c.831.234 2.598.403 4.275-.949.086-.069.234-.259-.091-.155m-5.276-1.586a.58.58 0 0 1 0 .364c-.039.091-.039.208.13.078s.273-.286.442-.195.598.078.792.052c.196-.026.26-.065-.025-.182s-.572-.156-.728-.143a1.2 1.2 0 0 1-.481-.078c-.13-.052-.169-.026-.13.104" style="fill:#00d860" transform="matrix(4.1664 0 0 4.16687 -666.166 -2413.139)"/><path d="M373.253 668.942c-.221.013-.611-.13-.819-.221s-.506-.104-.285.195c.22.299 1.182.468 1.52.325s.195-.299.532-.091c.338.208.689.351.936.351s.338 0 .065-.156-.403-.195-.429-.325-.065-.208.182-.13.533.221.728.117.558-.338.883-.338l.078-.195c-.468-.039-.766.104-.896.156s-.364.078-.611.039-.572-.065-.65-.13-.078-.117.13-.156.273-.182-.013-.13-1.052.026-1.455-.104c-.403-.129-.572-.142-.741-.078-.169.065-.143.247.104.26s.806.065 1.001.247.169.195-.052.104-.624-.039-.208.26m3.391-.468-.078.195c.481-.013 1.651.104 2.027.338.364-.286.299-.377.559-.325s.585.143.728.065.247-.065.403-.039c.155.026.493-.039.688-.156s.598-.273.832-.273.519-.052.091-.117-1.079.065-1.3.143c-.22.078-.883.13-1.273.13s-.922.195-1.364.078-1.053-.039-1.313-.039" style="fill:#00d860" transform="matrix(4.1664 0 0 4.16687 -666.166 -2413.139)"/><path d="M382.66 668.24c-.779.572-1.715.702-2.832.78-.325.023-.225.115.052.143 1.169.117 2.521-.312 2.962-.78.128-.135.114-.359-.182-.143" style="fill:#000" transform="matrix(4.1664 0 0 4.16687 -666.166 -2413.139)"/><path d="M377.346 669.566c.338.013 1.507.312 1.884.442.286-.026.364-.091.312-.195s-.091-.221.429-.195c.519.026 1.715.013 1.936.013.182-.078.584-.39.766-.403-.467.026-2.416.13-2.663.104s-.377 0-.533.091-.247.13-.442.052-.546-.182-.74-.065c-.195.117-.598.013-.949.156" style="fill:#00d860" transform="matrix(4.1664 0 0 4.16687 -666.166 -2413.139)"/><path d="M381.907 669.631c.182-.078.584-.39.766-.403.338-.026.728.117.91.143s.377-.013.247-.156-.013-.39.52-.325c.532.065.805.156 1.325.104s.754.338 1.741-.052c-.078.39.104.416.286.338s.39-.052.702.182 2.209.26 2.651.182.675.156.337.26c-.337.104-.416.26-.337.364.077.103.155.233-.26.181s-.494.078-.702.234-.26.208-.832.104c-.571-.104-.675-.026-.987.026s-.39.052-.702-.052-.987-.208-1.403-.078-.728.26-1.092.156-.39-.052-.156-.286.286-.208.728-.26c.442-.051.78-.181.468-.363s-.416-.156-.832.052-.624.337-1.091.078c-.468-.26-.702-.208-1.014-.13s-.831-.104-1.273-.299m1.559.779c-.595.085-.755-.298-1.377-.22-.208.026-.559.285-.078.246.48-.039 1 .221 1.468.182s.26-.247-.013-.208m-.689.455c.313-.114.962.104 1.235.052s.533.117.247.208-.975-.169-1.287-.078-.623-.026-.195-.182m-6.211 1.676c.429.014 1.975-.052 2.586-1.351.047-.1.091-.143.286-.013s.91.559 2.248.676c.375.033.78.221.026.169s-1.949-.26-2.352-.507c-.676 1.065-1.89 1.191-2.794 1.169-.545-.013-.415-.156 0-.143" style="fill:#00d860" transform="matrix(4.1664 0 0 4.16687 -666.166 -2413.139)"/><path d="M379.906 670.774c-.208.286-.923.78-1.248.806s-1.299-.065-1.546-.156-.546-.065-.195.182 1.222.416 1.572.338.754-.195 1.027-.026.78.493 1.078.428c.299-.064.91-.064 1.105.026.195.091.533.364.026.208s-.923-.026-1.157-.13c.26.364.85.949 1.352.949.117 0 .195.208-.052.325.247.117.818.208 1.117-.065-.078.104-.039.169.091.234s.286.156.052.182-.766.091-.922.026c.506.324 1.819.844 3.157.584.255-.049.39-.155-.026-.143-.858.026-.909.013-1.065-.077-.156-.092-.13-.169.117-.247.246-.078.87-.169 1.13-.169s.52-.104-.013-.104-1.182 0-1.442-.091-.455-.208-.182-.39.559-.13.689-.299c-.858-.013-1.911-.468-1.326-.883.136-.097.091-.104-.13-.13s-.87-.208-1.143-.364-.091-.286.13-.325c-.507.091-1.521-.182-2.196-.689m7.627-.026c-.468.351-1.351.494-1.728.494s-.429.13-.13.169.624.078.754.039.208-.052.402.039.611.143.975.026.961-.169 1.208-.156.52.026.026-.117c-.493-.143-1.299-.039-1.494.013s-.728.013-.442-.078.533-.234.676-.351c-.104-.026-.169-.052-.247-.078m-.247 1.014c-.403.299-.987.584-1.585.61.546.195 1.001.754 1.351.728-.169.104-.376.26-.597.286.338.091.909-.013 1.377-.273.78.221 1.793.078 2.131-.208-.507 0-1.117-.182-1.39-.416.247 0 .48-.156.597-.298-.584.103-1.585-.182-1.884-.429" style="fill:#00d860" transform="matrix(4.1664 0 0 4.16687 -666.166 -2413.139)"/><path d="M386.455 673.386c.221-.026.428-.182.597-.286-.428.143-2.3-.156-2.858-.65-.559-.493-.559-.117-.169.234s1.078.884 2.43.702m1.377 1.195c-.234.13-1.351.208-1.715.13s-.52-.039-.429.104.13.273-.169.234a3 3 0 0 0-1.052.104c-.221.078-.494.273-.026.195s.896-.169 1.247-.078 1.598.117 1.845.013.078-.104-.039-.104-.169-.078 0-.156.299-.299.338-.442m-10.811-1.507c-.468.208-2.027.624-2.443.65-.52.234-.935.364-1.195.364.182.156.883.311 1.169.234-.156.155-.519.337-.649.415.415-.052.909.052 1.117.078-.546.312-1.299.416-1.689.364.13.182.312.364.546.364-.494.13-1.092.13-1.404.026.13.26.26.416.442.442-.416.052-.936.13-1.377-.13.337.442 1.091.597 2.209.468 1.117-.13 2.053-.624 2.313-.832-.468.052-1.092.078-1.404.026.624-.156 1.975-.728 2.209-.962-.26 0-.519-.078-.702-.208.364.052 1.638-.103 2.028-.259a1.5 1.5 0 0 1-.884-.572c1.637.52 3.459.35 4.34.13.208-.052.233-.316-.182-.286-.728.052-2.131-.156-2.495-.338.338.26.754.416 1.04.468-.676.182-1.611.312-2.989-.442" style="fill:#00d860" transform="matrix(4.1664 0 0 4.16687 -666.166 -2413.139)"/><path d="M373.903 674.737c.13-.078.493-.26.649-.415-.286.077-.987-.078-1.169-.234.26 0 .675-.13 1.195-.364-.935-.026-1.585-.026-1.923-.208s-.961-.13-1.195-.078-.156.442.831.338c-.416.286-1.533.39-1.949.286.104.337.182.675.078.857.546.312 1.975.702 2.677.65-.624-.234-.962-.494-.442-.546s.806-.156 1.248-.286" style="fill:#00d860" transform="matrix(4.1664 0 0 4.16687 -666.166 -2413.139)"/><path d="M372.291 676.427c1.244-.104 2.91-.126 4.236-1.248.338-.286.565-.19.234.104-.701.624-2.443 1.481-4.106 1.507-.677.011-.987-.312-.364-.363" style="fill:#000" transform="matrix(4.1664 0 0 4.16687 -666.166 -2413.139)"/><path d="M381.608 674.373c-.312.117-1.183.26-1.442.221-.26-.039-.637-.052-.845.078s-.221.208.065.234.65.052.832.039c-.234.13-.39.312-.442.39.416-.104 1.182.078 1.403.208-.169.052-.364-.013-.507-.091.702.741 2.781.741 3.119.611-.156.117-.299.234-.455.273.585.104 1.26.091 1.923-.299-.221.039-.883-.026-1.052-.039.13-.13.324-.247.506-.299-.259-.052-1.078-.026-1.273.078.078-.156.221-.351.377-.416-1.027 0-2.274-.013-2.729-.26.728.078 1.534-.351 1.871-.351-.571-.013-1.195-.143-1.351-.377m-2.612.572c-.507.104-1.273.312-1.481.429s-.429.182.026.182 1.689.052 1.962.091a16 16 0 0 0-1.806-.13c-.182 0-.39-.013-.052-.117s.78-.338 1.351-.455m-1.026 1.209c.181 0 .974 0 1.286-.273.325.247.949.597 1.351.597.403 0 .364.104.013.143-.35.039-1.039-.168-1.39-.428-.468.169-.857.026-1.26-.039m-6.016 3.495c.805.312 1.871.546 2.65.286.442.39 1.352.416 1.845.312.494-.104.936-.156 1.482.026s1.663.195 1.975.454c-.286.014-.897 0-1.04.04-.143.038-.065.129.195.272-.883-.052-2.404.325-2.871.728.168-.403.688-.949 1.507-.949-.468-.168-1.962-.181-2.443.117-.143-.156-.312-.415-.325-.519-.792.454-2.352-.195-2.975-.767m-2.067-1.455c.959-.137 1.612-.442 1.898-.728.169.156.87.312 1.637.078a.376.376 0 0 0-.104.455c-.507.013-1.469.26-1.793.429-.325.168-1.274.285-1.585.116-.312-.168-.325-.311-.053-.35" style="fill:#00d860" transform="matrix(4.1664 0 0 4.16687 -666.166 -2413.139)"/><path d="M373.318 677.999c-.507.013-1.469.26-1.793.429.065.13.104.337.117.48.935-.338 3.079-.545 3.898-.415-.39.026-1.131.428-1.546.48 1.013-.078 2.001.13 2.26.195.26.065.312.26.117.442s-.285.208.13.221c.416.013 1.274-.039 1.664-.416-.156-.169-.559-.104-.676-.221.273-.091.585-.286.702-.429-.702-.013-.962-.026-1.196-.078-.234-.051-.403-.117-.117-.272s.416-.286.507-.39c-.507.143-1.299.26-1.962-.26.247.065.831.026 1.039-.065-.221-.117-.402-.208-.584-.208.532-.26 1.585-.494 2.884.026.65-.052 1.352-.026 1.845.104.208-.208.65-.702.884-.832-1.533.13-4.288-.156-4.236-.961-.494.649-1.637 1.013-2.131.909-.052.234.156.52.338.676-.52.104-1.404.182-1.819.104.234.234.675.442.935.416-.545 0-.831.104-1.26.065" style="fill:#00d860" transform="matrix(4.1664 0 0 4.16687 -666.166 -2413.139)"/><path d="M376.501 679.831c.416.013 1.274-.039 1.664-.416-.156-.169-.559-.104-.676-.221.273-.091.585-.286.702-.429 1.091-.09 2.066-.038 2.533-.181s1.664-.065 1.898-.13c-1.04.168-1.248.259-1.3.428s.338.312.585.312c-.468-.026-1.053.468-1.105.663-.623-.364-.922.065-.987.208-.26-.104-1.118-.078-1.56.299-.571-.169-.948-.26-1.52-.169.351-.078.286-.312-.234-.364m4.99-3.041c.351-.013 1.117.026 1.39-.013-.182.091-.415.26-.467.338.883-.104 2.091-.169 2.442-.117-.428-.065-.87.208-1.091.351s-.091.234.208.273.702.273.156.195-1.624-.078-1.884-.039-.403-.091-.026-.143.636-.182.818-.286c-.312.078-.909.078-1.091.026s-.299-.156-.091-.208.065-.13-.156-.104-.78.26-1.092.559c.338-.351.637-.663.884-.832" style="fill:#00d860" transform="matrix(4.1664 0 0 4.16687 -666.166 -2413.139)"/><path d="M377.528 677.375c.429.481.935.754 1.741.78.169.005.484.232.078.247-1.092.039-1.637-.221-2.118-.923-.099-.144.084-.345.299-.104m6.51-9.083c.574.271 1.728.507 2.625.468.156-.007.47.16.077.195-1.013.091-1.923-.051-2.767-.52-.234-.13-.156-.247.065-.143" style="fill:#000" transform="matrix(4.1664 0 0 4.16687 -666.166 -2413.139)"/><path d="M384.623 668.279c.883-.026 1.546-.013 1.819.247.506-.156 1.416-.247 1.624-.208s.442-.052-.039-.169c-.481-.116-1.598-.155-1.949-.09-.351.064-1.443.103-1.806.064.156.026.259.052.351.156m3.43.351c.416-.221 1.611-.013 1.975-.169-.26.312.832.338 1.78.091-.364.234-1.143.273-1.481.416s-.52.039-.78-.078-.922-.351-1.494-.26" style="fill:#00d860" transform="matrix(4.1664 0 0 4.16687 -666.166 -2413.139)"/><path d="M391.808 668.552c-.948.247-2.04.221-1.78-.091-.364.156-1.559-.052-1.975.169.429-.26.754-.052 1.065-.585.195.04.65.066.806-.142.273.065.754.182.897.324s.363-.039.181-.259c.429-.156.157.185 1.157-.065.208-.052.715-.143.884-.156a6.2 6.2 0 0 1-1.235.805" style="fill:#00d860" transform="matrix(4.1664 0 0 4.16687 -666.166 -2413.139)"/><path d="M373.356 664.193c-.017-1.966-.207-18.422-.207-22.226 0-.91-.468-.728-.468 0v22.122c.215.039.505.078.675.104zm7.231-23.422.812 23.461-.142.188-.471.007-.513-23.656zm6.843 19.81c-.066-2.389-.366-13.448-.482-18.9-.015-.727-.448-.6-.441.026.047 4.391.308 16.672.356 18.887.17 0 .463-.017.567-.013z" style="fill:#ff0;stroke:#000;stroke-width:.125" transform="matrix(4.1664 0 0 4.16687 -666.166 -2413.139)"/><g style="fill:#ff0;stroke:#000;stroke-width:.125"><path d="m376.605 644.67-6.913-.104c-.389 1.403 1.352 1.377 2.002 1.013.753.572 1.325.52 1.741.052.598.494 1.351.364 1.663.052.832.624 1.689 0 1.507-1.013z" style="fill:#fff;fill-opacity:1" transform="matrix(4.1664 0 0 4.16687 -666.166 -2413.139)"/></g><g style="fill:#ff0;stroke:#000;stroke-width:.125"><path d="m377.125 648.152-7.069-.026c-1.221 1.169.364 1.741 1.716.935.182.39 1.013.624 1.663.312.598.468 1.351.13 1.741-.26.728.338 1.585.442 1.949-.961z" style="fill:#fff;fill-opacity:1" transform="matrix(4.1664 0 0 4.16687 -666.166 -2413.139)"/></g><g style="fill:#ff0;stroke:#000;stroke-width:.125"><path d="m376.917 652.57-6.809-.052c-.13 1.221 1.248 1.065 1.793.754.52.805 1.664.623 2.106.155.649.442 1.247.338 1.585-.078.754.65 1.377-.181 1.325-.779z" style="fill:#fff;fill-opacity:1" transform="matrix(4.1664 0 0 4.16687 -666.166 -2413.139)"/></g><g style="fill:#ff0;stroke:#000;stroke-width:.125"><path d="m377.255 656.988-7.614-.13c-.416 1.299.753 1.533 1.299 1.221.182.754 1.195.494 1.455-.052.39.39.884.182 1.118-.078.104.702.987.728 1.663.13 1.377.962 2.677-.156 2.079-1.091z" style="fill:#fff;fill-opacity:1" transform="matrix(4.1664 0 0 4.16687 -666.166 -2413.139)"/></g><g style="fill:#ff0;stroke:#000;stroke-width:.125"><path d="m384.012 655.169-6.341-.052c.286 1.299.909 1.637 1.923.883.754.78 2.001.494 2.313.104 1.377 1.118 2.131-.182 2.105-.935z" style="fill:#fff;fill-opacity:1" transform="matrix(4.1664 0 0 4.16687 -666.166 -2413.139)"/></g><g style="fill:#ff0;stroke:#000;stroke-width:.125"><path d="m383.362 650.829-6.133-.182c.104 1.559 1.585 1.507 2.339.831.572.728 1.585.52 1.949 0 .78.78 2.053.312 1.845-.649z" style="fill:#fff;fill-opacity:1" transform="matrix(4.1664 0 0 4.16687 -666.166 -2413.139)"/></g><g style="fill:#ff0;stroke:#000;stroke-width:.125"><path d="M384.168 645.943h-6.601c.078 1.091 1.533 1.715 2.651.676.311 1.247 1.507.857 2.027.363.753.962 2.494-.129 1.923-1.039z" style="fill:#fff;fill-opacity:1" transform="matrix(4.1664 0 0 4.16687 -666.166 -2413.139)"/></g><g style="fill:#ff0;stroke:#000;stroke-width:.125"><path d="m383.778 642.617-5.899.078c-.104.961 1.299 1.377 1.819.597.286.494 1.273.442 1.559-.026.468.728 1.04.234 1.221 0 .676.494 1.404.26 1.3-.649z" style="fill:#fff;fill-opacity:1" transform="matrix(4.1664 0 0 4.16687 -666.166 -2413.139)"/></g><g style="fill:#ff0;stroke:#000;stroke-width:.125"><path d="m390.691 644.774-7.225-.078c-.026.753.754 1.065 1.221.753 0 .728 1.014.962 1.664.39.442.624 1.741.806 2.261-.052 1.065.884 2.209.26 2.079-1.013z" style="fill:#fff;fill-opacity:1" transform="matrix(4.1664 0 0 4.16687 -666.166 -2413.139)"/></g><g style="fill:#ff0;stroke:#000;stroke-width:.125"><path d="m390.587 650.699-7.069-.026c.052.987 1.195 1.325 1.845.805.156.832 1.04.884 1.559.468.624.702 1.664.754 2.235-.026.858.312 1.508-.416 1.43-1.221z" style="fill:#fff;fill-opacity:1" transform="matrix(4.1664 0 0 4.16687 -666.166 -2413.139)"/></g><g style="fill:#ff0;stroke:#000;stroke-width:.125"><path d="m390.223 656.026-5.588-.078c0 .988 1.17 1.118 1.69.598.545.65 1.377.65 1.845.13.753.65 1.897.468 2.053-.65z" style="fill:#fff;fill-opacity:1" transform="matrix(4.1664 0 0 4.16687 -666.166 -2413.139)"/></g><path d="M381.257 664.42c-3.014.052-6.081.052-8.16-.26s-2.734-.604-4.158-1.455c-2.131-1.273-2.651-1.585-5.665-3.352-.462-.271-.963.065-.312.493 3.04 2.001 4.192 2.743 5.639 3.691 1.507.987 2.479 1.864 3.404 2.91 1.196 1.352 2.079 1.378 2.625 1.17s1.404-.494 2.261-.286 2.001.234 2.599.13c.546.494 1.793.39 2.495.234.701-.156 1.221-.234 1.715-.13s1.247.026 1.741-.052 1.793-.208 2.703-.078 1.845.052 2.443-.13c.597-.182 1.689-.13 2.053-.026.519-.39.779-.884.909-1.403.611-.078.814-.154.949-.507.247-.65.48-1.287.559-1.572h.246l.078-.585-.506-.585.182-1.117.545-.13c.026-.338-.13-.858-.234-1.066-3.274.13-6.484.234-8.783.286-.26.208-.546.754-.598 1.092-1.403.233-2.235.337-2.599.415s-.567.107-.857.494c-.468.624-.91 1.351-1.274 1.819z" style="fill:#000;stroke:#000;stroke-width:.125" transform="matrix(4.1664 0 0 4.16687 -666.166 -2413.139)"/><path d="M391.779 660.45c.159-.551.584-2.035 1.354-4.84.129-.468-.325-.653-.493-.052-.916 3.275-1.262 4.503-1.378 4.912.176-.003.428-.022.517-.02z" style="fill:#000;stroke:#000;stroke-width:.125" transform="matrix(4.1664 0 0 4.16687 -666.166 -2413.139)"/><path d="M396.85 654.961c-1.105.571-1.638.792-2.144.597-.466-.179-1.151-.28-1.552-.083a.5.5 0 0 1-.021.135 493 493 0 0 1-1.048 3.768c.818.289 2.227.328 2.556-.025.337-.364 1.26-.286 1.728-.26.299-.39.416-.871.338-1.105s-.052-.649.065-.974.273-1.378.078-2.053z" style="fill:#fff;stroke:#000;stroke-width:.125" transform="matrix(4.1664 0 0 4.16687 -666.166 -2413.139)"/><path d="M371.694 645.579c-1.222 3.534-5.458 11.461-8.014 14.014m1.962 1.153c2.901-2.244 10.236-9.528 11.483-12.594" style="fill:none;stroke:#000;stroke-width:.125" transform="matrix(4.1664 0 0 4.16687 -666.166 -2413.139)"/><path d="M370.108 652.518c-.337 2.677-1.11 7.452-1.526 9.973" style="fill:none;stroke:#000;stroke-width:.125" transform="matrix(4.1664 0 0 4.16687 -666.166 -2413.139)"/><path d="M371.245 658.485c-.987.962-2.387 2.641-3.427 3.551m12.724-8.894c-.831.805-1.78 1.744-2.611 1.978m3.089-1.848c.731.779 1.77 1.659 2.628 1.893m-3.197-6.207c-.753.649-1.871 1.413-2.884 1.699m3.31-1.544c.65.546 1.342 1.342 2.173 1.706m-5.327-4.876c.805-.234 2.004-.858 2.628-1.507m.357-.13c.705.805 2.056 1.455 2.732 1.637m-5.561-3.248c.831-.182 1.861-.624 2.407-1.404m.312-.208c.701.598 1.933 1.462 2.738 1.54m3.193.786c-.451.468-1.556 1.309-2.257 1.296m2.715-1.335c.325.52 1.144 1.316 1.612 1.381m-4.795 5.922c.909-.312 2.183-1.056 2.82-1.823m.5.056c.266.48 1.28 1.565 1.852 1.786m-4.094 5.259c.416-.09 1.547-.652 1.858-1.315m.52-.364c.429.533 1.481 1.507 2.131 1.741m-18.815.861c1.273-.403 3.846-1.965 5.12-3.447" style="fill:none;stroke:#000;stroke-width:.125" transform="matrix(4.1664 0 0 4.16687 -666.166 -2413.139)"/><path d="M373.263 655.299c1.065.753 2.303 1.507 3.251 1.676m-6.172-4.454c.702-.299 1.624-.809 2.339-1.549m.536-.104c.286.402 2.388 1.686 3.284 1.699m-3.82-5.844c-.546.441-1.858 1.234-2.495 1.403m2.992-1.377c.728.506 2.167 1.4 3.154 1.4m-3.651-5.493c-.585.662-1.572 1.685-2.391 1.919m2.862-1.764c.455.728 1.673 1.712 2.466 1.842m8.053 2.531c1.822 3.359 5.201 7.465 8.618 9.622m-14.085-13.345c2.767 3.976 8.199 12.695 13.367 15.914" style="fill:none;stroke:#000;stroke-width:.125" transform="matrix(4.1664 0 0 4.16687 -666.166 -2413.139)"/><path d="M392.523 655.974a18.4 18.4 0 0 1-4.795 4.607" style="fill:none;stroke:#000;stroke-width:.125" transform="matrix(4.1664 0 0 4.16687 -666.166 -2413.139)"/><path d="M392.214 657.072c-1.741-2.78-2.641-6.295-3.943-10.924m-14.122 12.36 2.144 5.899m-2.542-6.037 1.896 6.017m-2.304-6.295 1.76 6.262m-1.938-6.165 1.359 6.128m-.05-.222h1.699m-.227-.64h-1.602m1.426-.493h-1.546m1.365-.501h-1.475m1.28-.545h-1.404m-.104-.471h1.332m-1.429-.442h1.264m-1.371-.481h1.202m-1.297-.429h1.134m-1.234-.445h1.078m-1.166-.409h1.02m-1.121-.38h.991m-1.046-.322h.923m-2.595.009-1.208 4.932m1.561-5.015-1.037 5.21m1.315-5.399-.839 5.549m1.192-5.666-.609 5.803m.735-.332h-1.923m1.923-.533h-2.225m2.225-.546h-2.095m2.095-.52h-1.965m1.965-.532h-1.838m1.838-.585h-1.692m1.692-.507h-1.569m1.569-.52h-1.436m1.436-.506h-1.316m1.316-.442h-1.212m1.212-.351h-1.121m1.121 5.503v-5.88m6.466-1.937-4.029 8.08m4.283-8.216-3.43 8.254m3.676-8.337-2.721 8.383m2.898-8.241-2.116 8.238m.093-.377h-2.534m2.729-.74h-2.359m2.476-.598h-2.17m2.374-.65h-2.053m2.157-.519h-1.897m2.079-.598h-1.787m1.966-.698h-1.618m1.754-.533h-1.488m1.644-.608h-1.348m1.455-.416h-1.247m1.348-.389h-1.143m1.244-.397h-1.053m1.144-.35h-.968m1.059-.351h-.887m.978-.361h-.8m.884-.325h-.721m3.341-.119 1.763 5.58m-1.427-5.465 2.139 5.355m-1.834-5.342 2.505 5.237m.602-.453-2.763-4.888m2.761 4.884h-2.192m1.817-.663h-2.019m1.644-.662h-1.851m1.476-.663h-1.688m1.313-.663h-1.529m1.154-.662h-1.36m.985-.663h-1.194m.819-.663h-1.032m3.296.158-1.725 5.173m2.242-5.407-1.6 5.303m.741-.117 1.174-4.992m.302.17-.988 4.75m-1.671-.305h1.731m-1.516-.644h1.65m-1.435-.643h1.572m-1.357-.643h1.491m-1.276-.643h1.41m-1.195-.643h1.329m-1.114-.644h1.248m-1.033-.643h1.027m.914.105.846 3.547m-.531-3.71 1.169 3.697m-.773-3.716 1.275 3.702m-.751-3.494 1.277 3.477m-.114-.307h-1.638m1.445-.52h-1.556m1.363-.52h-1.491m1.299-.52h-1.43m1.237-.519h-1.358m1.166-.52h-1.284m1.091-.52h-1.218" style="fill:none;stroke:#000;stroke-width:.125" transform="matrix(4.1664 0 0 4.16687 -666.166 -2413.139)"/><path d="M372.369 666.265c.806-.519 2.183-.415 2.885.104.832-.467 2.339-.338 3.041.286 1.065-.727 1.975-.831 3.014-.13.806-.571 2.053-.623 3.015.052.935-.442 1.975-.805 2.884.156-.545-.39-1.715-.728-2.884.182-.91-.91-2.495-.572-3.015.052-.676-.806-2.105-.936-2.963.052-.935-.78-2.338-.806-3.092-.208-.598-.468-1.481-.857-2.885-.546" style="fill:#00b800" transform="matrix(4.1664 0 0 4.16687 -666.166 -2413.139)"/><path d="M386.572 665.148c-4.132.714-13.137.208-15.112-.286-.679-.17-.494-.416.078-.286 2.276.517 7.133.52 9.81.39.52-.689 1.338-1.858 1.585-2.183s.356-.355.871-.442c.922-.156 1.449-.24 2.248-.377.013.104.013.234.013.312-.065.052-.13.143-.182.169 0 .533.104 1.832.208 2.3.104-.013.234-.052.299-.065.182-.052.363.416.182.468" style="fill:#cf6200" transform="matrix(4.1664 0 0 4.16687 -666.166 -2413.139)"/><path d="m393.341 665.346.546-.013a.59.59 0 0 0 .51-.38c.104-.26.426-1.221.543-1.624l-.416-.627c.091-.517.208-1.218.221-1.361.208-.078.428-.156.532-.195.026-.117-.025-.435-.13-.539-1.78.068-7.107.253-8.082.266-.234 0-.339-.01-.428.325-.494 1.845.189 4.434 2.053 5.925.13.104.294.017.077-.182-.311-.286-.792-.871-1.117-1.449.364-.006 1.102-.018 1.323-.027.106.437.438 1.359.503 1.515s.225.178.149-.055c-.179-.546-.273-1.168-.351-1.467.338-.008.975-.002 1.365-.024.019.494.071 1.156.084 1.338s.169.195.172-.013c.004-.208.008-1.087.005-1.346.44-.012 1.002-.031 1.21-.031-.029.281-.083 1.19-.103 1.334-.03.212.081.312.133.013s.156-.998.185-1.352c.176-.005.639-.024.834-.029-.019.277-.279 1.119-.357 1.34s.048.228.136.019c.092-.214.377-1.059.403-1.361" style="fill:#cf6200" transform="matrix(4.1664 0 0 4.16687 -666.166 -2413.139)"/><path d="M387.442 665.135c-.143-.286-.585-1.303-.624-2.043.377-.007 1.32-.025 1.775-.035.067.558.239 1.76.33 2.045-.532.013-1.182.03-1.481.033m1.463-2.084c.049.426.272 1.889.308 2.058.386-.023 1.28-.026 1.435-.039-.016-.39-.079-1.853-.086-2.061zm-2.015-1.811c-.072.374-.085 1.173-.065 1.514a36 36 0 0 0 1.73-.031c-.038-.388-.099-1.09-.138-1.528-.371.016-1.28.038-1.527.045m1.858-.05c.013.364.094 1.254.12 1.526.393-.011 1.355-.031 1.68-.042l-.076-1.536c-.522.014-1.393.047-1.724.052m2.064-.062c.016.338.059 1.292.046 1.539.417-.011 1.214-.019 1.461-.039.019-.339.074-1.308.048-1.555-.468.018-1.214.043-1.555.055m1.841-.065c0 .286-.036 1.291-.049 1.564.413-.016 1.351-.049 1.595-.055.065-.335.195-1.205.234-1.572-.39.013-1.495.055-1.78.063m1.611 1.843c-.533.017-1.39.04-1.68.051-.045.658-.127 1.795-.166 2.055.469-.01 1.417-.04 1.625-.046.156-.312.494-1.286.572-1.585-.117-.182-.208-.286-.351-.475m-3.397.096c0 .234.041 1.909.051 2.052.305-.01 1.097-.021 1.214-.034.059-.652.148-1.901.164-2.057-.54.015-1.07.031-1.429.039m-6.893-.401-.677.12c-.312.504-1.468 2.063-1.611 2.245.805-.023 2.064-.047 2.367-.076-.022-.418-.078-2.082-.079-2.289m.299-.056c.016.533.067 1.953.08 2.33a70 70 0 0 0 1.433-.097c-.069-.67-.195-2.27-.221-2.465-.335.061-.993.177-1.292.232" style="fill:#000" transform="matrix(4.1664 0 0 4.16687 -666.166 -2413.139)"/><path d="M377.294 656.927c.091.001.103.079-.001.078l-7.678-.095c-.104-.001-.09-.079.001-.078zm6.034-6.143c.091.003.102.081-.002.078l-6.083-.167c-.104-.003-.089-.081.002-.078zm-6.417 1.751c.091.001.103.079-.001.078l-6.808-.05c-.104 0-.09-.078 0-.078zm.201-4.418c.091 0 .104.078 0 .078l-7.121-.037c-.104 0-.09-.078.001-.077zm-.493-3.486c.091.001.102.08-.001.078l-6.919-.104c-.104-.002-.09-.08.001-.078z" style="fill:#000;stroke:#000;stroke-width:.125" transform="matrix(4.1664 0 0 4.16687 -666.166 -2413.139)"/><g style="fill:#000;stroke:#000;stroke-width:.125"><path d="M383.784 642.587c.091-.001.105.077.001.078l-5.938.057c-.104.001-.092-.077-.001-.078z" style="fill:#fff;fill-opacity:1" transform="matrix(4.1664 0 0 4.16687 -666.166 -2413.139)"/></g><path d="M384.148 645.91c.091 0 .104.078 0 .078h-6.562c-.104 0-.091-.078 0-.078zm6.444 4.731c.091 0 .104.078 0 .078h-7.072c-.104 0-.091-.078 0-.078zm.099-5.913c.091.001.103.079-.001.078l-7.225-.071c-.104-.001-.09-.079.001-.078zm-6.679 10.393c.091.001.103.079-.001.078l-6.356-.042c-.104-.001-.09-.079.001-.078zm6.211.862c.091.001.103.079-.001.078l-5.587-.074c-.104-.001-.089-.079.002-.078z" style="fill:#000;stroke:#000;stroke-width:.125" transform="matrix(4.1664 0 0 4.16687 -666.166 -2413.139)"/><path d="M395.264 657.053c.157-.349.179-1.151.089-1.455a1.1 1.1 0 0 1-.647-.04 3 3 0 0 0-.341-.106c-.022.402-.168 1.426-.348 1.822-.314.089-.947-.015-1.307-.128l-.262.942a3.45 3.45 0 0 0 1.452-.009c-.035.601-.114 1.148-.439 1.526.531.012 1.006-.066 1.18-.252a.4.4 0 0 1 .053-.048c.245-.41.252-.944.311-1.304.181.013.415-.039.519-.143a.57.57 0 0 1 .442-.143c.154.012.394-.02.699-.143.008-.184.044-.384.107-.558.034-.095.071-.253.102-.444-.387.185-1.25.494-1.61.483z" style="fill:#ef072d;stroke:#000;stroke-width:.125" transform="matrix(4.1664 0 0 4.16687 -666.166 -2413.139)"/><g style="fill:#000;stroke:#000;stroke-width:.125"><path stroke="none" d="M370.462 623.195c-.791.023-2.513.039-2.875.242-.361.204-.52.294.113.407s1.704.414 2.291.776c.587.361 1.079 1.001.917 1.914-.485 2.743.949 5.381 3.027 6.376.201.096.249.169.204.542s-.181.995-.294 1.153-.169.419.192.294c-.248.464-.802 1.391-.971 1.628-1.661-.203-3.016.023-3.141 1.763-.012.17.046.441.305.012.26-.43.554-.837 1.265-.95-.418.644-.553 1.221-.485 1.594.067.373.169.599.35.124.181-.474.514-.918.87-1.187.135-.101.226-.124.124.17s.045.927.249 1.142c.203.214.305.124.248-.226-.056-.351.032-1.084.463-1.312.621-.327 1.152-.158 1.401.272.248.429.463.022.192-.464s-.554-.825-1.006-.859c.396-.701.859-1.549.961-1.718s.26-.249.395-.147c.136.102.226.09.362-.192s.372-1.119.711-1.458c.17-.046.441-.113.542-.204.441.644.836 1.357.938 1.515s.215.226.113.554-.452 1.368-.508 1.594c-1.232.045-1.796.067-2.192.757-.173.301.102.418.396.26.293-.158.711-.294.926-.26.214.034.315.144.101.249-.756.373-1.229.847-1.197 1.503.011.237.109.355.294.034.26-.452.734-.904 1.31-1.029-.034.554.091 1.368.429 1.538.339.169.363-.003.237-.328-.203-.52.008-1.043.26-1.323.531-.588 1.74.226 1.966.43s.432.288.305-.238c-.17-.7-1.164-1.107-2.011-1.22.237-1.142.87-3.448 1.209-4.239.497.271.885-.444 1.717-.136 1.4.52 3.501 1.831 3.863 2.125.361.294.497.226.678.068.18-.158.497 0 .745.045.249.045.475.113.158-.52s-1.084-1.741-2.372-2.6c.768.068 1.808.068 1.808-.135s-1.198-.588-1.695-.633c.475-.113 1.198-.385 1.536-.769.201-.227-.04-.28-.745-.294-2.169-.045-3.253-.028-4.383-.678-1.807-1.04-2.841-2.135-3.728-2.6-.474-.249-.763-.823-.946-1.319-.587-1.583-.558-2.295-1.936-2.815s-2.963.117-3.686.772" style="stroke:none;stroke-opacity:1" transform="matrix(4.1664 0 0 4.16687 -666.166 -2413.139)"/></g><path d="M370.55 623.555c-.351-.013-1.04-.096-1.611-.039-.13.013-.286.078.026.117s1.156.246 1.455.35.169.26-.091.195-.356.031-.143.182c1.105.78 1.222 1.079.936 3.755.208.143.377.247.559.338s.13.221-.065.169-.377.065-.065.13.454.208.156.195-.65.247-.065.182c.584-.065.818.208.13.221-.689.013-.429.234-.065.234.649 0 .454.182.286.182s-.247.221.182.182c.428-.039.597-.052.753-.026s.221.155-.013.169c-.234.012-.221.181.13.181s.497.106.182.169c-.13.026-.31.091.065.143.65.091.676.247.468.273s-.234.143.065.169c.298.026.558.117.312.182s-.377.208-.066.234c.312.026.572.143.338.221s-.286.221.013.208.416.156.208.272-.351.195-.481-.012c-.129-.208-.207-.273-.246-.117-.039.155-.13.052-.234-.182s-.286-.299-.234-.117-.182.208-.403.117c.819.831 2.027 1.585 3.95.805.164-.066.195 0 .325.273s.494.871.624 1.092.233.022.298-.195c.26-.858.455-1.495.533-1.728.078-.234.442-.468.325.35.286-.195 1.553-.379 2.534-.013 1.078.403 2.162 1.028 2.716 1.443a.62.62 0 0 0 .493.143c.26-.026.325-.065-.169-.52-.493-.455-.285-.676.026-.455.312.221.481.091.247-.182s-.792-.805-.974-.935-.208-.182-.624-.208-1.299-.026-1.559-.026-.338.026.234.234c.571.207 1.741.961 2.001 1.143s.442.598-.13.234-2.365-1.481-3.56-1.897c-2.729.182-4.886.546-6.497-1.221-.772-.846-.806-2.781.493-3.587-.26-.221-.221-.351-.117-.403s.143-.104.039-.234-.091-.246 0-.298c-.285-.156-.415-.338-.402-.533-.351-.078-.507-.494-.975-.364s-.702.026-.844-.091c-.144-.117-.26-.169-.52-.143s-.468-.078-.481-.208.22-.193.572-.039c.74.325 1.338.481 1.793-.13.455-.61-.13-1.182-1.001-1.351s-1.507.468-1.832.767z" style="fill:#fff;stroke:#000;stroke-width:.125" transform="matrix(4.1664 0 0 4.16687 -666.166 -2413.139)"/><path d="M374.916 623.334c-.262-.284-.728-.546-.961-.624-.234-.078-.26.156-.13.273-.104.156-.143.533.039.637s.184.252.013.337c-.26.13-.172.82.22.624.13-.065.234-.039.208.065s.026.234.143.26.104.195.078.26.013.091.143.104.143.325-.091.429c.286 0 .364-.052.442.182s.39.285.39.571-.052.338-.39.286-.468.052-.572.182-.13.26.13.273.312.13.052.247-.688.039-.753.286 0 .363.194.272c.195-.09.598-.259.754-.35s.299-.104.429.104.026.441-.195.26c-.221-.182-.325-.014-.455.09a.87.87 0 0 1-.533.169c-.207 0-.35.027-.324.494.078 1.404 1.169 2.443 3.17 2.417s2.989-.052 3.288-.013c-.663-.364-1.079-.559-1.313-.533s-.429.065-.325-.117-.013-.182-.117-.26-.233-.182-.441.039-.702.468-.949.52-.546.039-.312-.195.754-.312.91-.416.156-.168.156-.246-.039-.299.26-.13c.597.338 1.533.844 1.78.831s.416-.117.195-.26-.286-.35-.221-.428.104-.156.494.065c.389.22 1.026.506 1.26.61s.546.065.065-.286c-.481-.35-1.975-1.338-2.391-1.65s-.234.065-.195.182-.286.26-.455.117-.286-.299-.052-.429.286-.143-.065-.455c-.35-.311-.454-.285-.376-.026.078.26.104.546-.26.403s-.546-.312-.312-.455c.234-.142.533-.22.143-.545s-.273 0-.364.182-.39.182-.559.039-.247-.286-.13-.403.104-.182.273-.091.429.039.117-.234-.429-.156-.364 0-.182.429-.571.065c-.185-.172-.182-.403.013-.442.194-.039.213-.14.077-.338-.792-1.156-.467-2.092-1.26-2.949z" style="fill:#fff;stroke:#000;stroke-width:.125" transform="matrix(4.1664 0 0 4.16687 -666.166 -2413.139)"/><path d="M375.048 623.49c-.068.102-.093.098-.219.182-.155.103-.19.398.07.363a.54.54 0 0 0 .356-.218 2.3 2.3 0 0 0-.207-.327m-.813-.654c-.2.194-.235.281-.133.281.121 0 .069.017-.018.156-.086.139.174.208.278.104s.121-.139.173 0c.042.113.213.006.321-.103a3 3 0 0 0-.621-.438m-.358 1.121c-.26.13-.172.82.22.624.13-.065.234-.039.208.065a.23.23 0 0 0 .024.168c.155-.065.31-.173.431-.311.243-.277.017-.26-.346-.26-.364 0-.468-.069-.122-.277.31-.186.108-.315-.321-.255.062.088.031.184-.094.246m1.49 1.534c-.191-.208-.07-.312.138-.416a.27.27 0 0 0 .111-.095c-.059-.229-.106-.449-.168-.663-.109.031-.236.274-.272.394-.052.173-.104.277-.277.225-.154-.046-.308.127-.34.312a.4.4 0 0 0 .11.022c.072.007.108.105.086.209.469-.015.549.309.629.531.087.243.191.208.26.07.069-.139-.087-.381-.277-.589" style="fill:#cf6200" transform="matrix(4.1664 0 0 4.16687 -666.166 -2413.139)"/><path d="M375.505 628.211c-.085.192-.087.173-.364.19s-.626.065-.779.226c-.083.086-.562.109-.563.32-.002.212 0 .39.208.403.207.013.233.039.156.195-.079.156-.13.416.233.442.364.026.624-.091.715.116s-.007.54.065.663.318.202.699.32c.254.079 1.213.124 1.508.09.294-.035.184-.211-.111-.237-.294-.026-.511-.069-.58-.285-.069-.217-.13-.33.035-.511.164-.182.329-.321.234-.624-.096-.303-.252-.659-.598-.754-.347-.095-.237-.569-.581-.615-.13-.017-.242-.017-.277.061" style="fill:#ff0" transform="matrix(4.1664 0 0 4.16687 -666.166 -2413.139)"/><path d="M373.825 631.026c.298.026.558.117.312.182s-.377.208-.066.234c.312.026.572.143.338.221s-.286.221.013.208.416.156.208.272-.351.195-.481-.012c-.129-.208-.207-.273-.246-.117-.039.155-.13.052-.234-.182s-.286-.299-.234-.117-.182.208-.403.117c.218.221.463.436.742.618.319-.109.671-.02.791-.008.13.013.533.104.754.221s.364-.091.273-.325c-.091-.233-.104-.155-.221-.026-.117.13-.143-.052-.13-.324.011-.23-.143-.169-.195-.026s-.169-.091-.104-.234-.013-.195-.13-.156-.13 0-.143-.26-.13-.221-.169-.117-.143-.039-.299-.247c-.136-.182-.293-.075-.565.033a.5.5 0 0 0 .189.045" style="fill:#cf6200" transform="matrix(4.1664 0 0 4.16687 -666.166 -2413.139)"/><path d="M376.982 632.637c-1.42.576-2.444.32-3.215-.191.319-.109.678-.016.798-.004.13.013.533.104.754.221s.364-.091.273-.325c.195.247.338.416.571.403.234-.013.624-.052.819-.104m-3.036-6.54c-.087-.294-.173-.364-.329-.346-.156.017-.225-.018-.399-.087-.173-.069-.398.017-.433.329s-.225.468-.485.658c-.26.191-.416.347-.416.659s-.069.398-.242.624c-.077.1-.186.214-.288.334.112.07.217.131.327.185.182.091.13.221-.065.169s-.377.065-.065.13.454.208.156.195-.65.247-.065.182c.584-.065.818.208.13.221-.689.013-.429.234-.065.234.649 0 .454.182.286.182s-.247.221.182.182l.018-.002a.6.6 0 0 0 .142-.245c.069-.208.138-.815.381-.988.242-.173.364-.416.364-.589s.363-.935.606-1.126.347-.606.26-.901" style="fill:#ff0" transform="matrix(4.1664 0 0 4.16687 -666.166 -2413.139)"/><path d="M373.443 626.114c-.246-.164-.485-.069-.485.243s-.156.398-.364.502a.88.88 0 0 0-.433.607c-.034.242.035.398-.138.589s-.191.346-.069.45c.121.104.121.122.173.277s.346-.017.346-.19.07-.173.26-.277c.191-.104.503-.607.433-.745-.069-.139-.242-.26-.017-.451.225-.19.468-.208.468-.398s.069-.26.138-.329c.07-.07-.156-.174-.312-.278" style="fill:#cf6200" transform="matrix(4.1664 0 0 4.16687 -666.166 -2413.139)"/><path d="M373.443 625.855c-.162-.063-.259.277-.034.329s.26-.243.034-.329m-.047.441c-.172.021-.364.247-.078.208s.403-.247.078-.208m-.338.429c-.177.089-.143.325.117.156s.325-.377-.117-.156m-.277.36c-.178.088-.143.324.117.156.26-.169.325-.377-.117-.156" style="fill:#000" transform="matrix(4.1664 0 0 4.16687 -666.166 -2413.139)"/><path d="M372.417 627.249c-.177.089-.065.325.195.156s.247-.377-.195-.156m.225.217c-.177.089-.065.325.195.156s.247-.377-.195-.156" style="fill:#000" transform="matrix(4.1664 0 0 4.16687 -666.166 -2413.139)"/><path d="M372.33 627.561c-.177.089-.065.325.195.156s.247-.377-.195-.156m.2.251c-.178.089-.065.325.194.156.26-.169.247-.377-.194-.156" style="fill:#000" transform="matrix(4.1664 0 0 4.16687 -666.166 -2413.139)"/><path d="M372.226 627.96c-.177.088-.065.324.195.155s.247-.376-.195-.155" style="fill:#000" transform="matrix(4.1664 0 0 4.16687 -666.166 -2413.139)"/><path d="M372.252 628.193c-.177.089-.065.325.195.156s.247-.377-.195-.156" style="fill:#000" transform="matrix(4.1664 0 0 4.16687 -666.166 -2413.139)"/><path d="M372.109 630.376c-.179.023-.294.278-.069.33s.277.069.277.242.07.416.312.433c.243.018.451-.26.243-.346-.208-.087-.399-.156-.416-.347s-.208-.329-.347-.312" style="fill:#cf6200" transform="matrix(4.1664 0 0 4.16687 -666.166 -2413.139)"/><path d="M378.488 628.889c.032.04.072.084.118.123.169.143.494 0 .455-.117s-.221-.494.195-.182 1.91 1.3 2.391 1.65c.481.351.169.39-.065.286s-.871-.39-1.26-.61c-.39-.221-.429-.143-.494-.065-.055.065-.011.222.132.355-.232.034-.609-.017-.717-.264-.13-.299-.442-.663-.663-.949-.082-.106-.106-.172-.092-.227" style="fill:#ff0" transform="matrix(4.1664 0 0 4.16687 -666.166 -2413.139)"/><path d="M391.379 671.463c-.324.221-.753.611-.468 1.156q.05-.028.099-.058a31.7 31.7 0 0 0 3.291-4.835q.017-.088.028-.161c-.364.312-.936.623-1.17.701.156.416-.571.962-.961 1.118.156.26.104.65-.234.728.078.233-.182.233-.494.363s-.468.234-.571.39c.168-.091.402-.169.532-.13s.156.234-.078.286a.8.8 0 0 0-.468.286c.338-.13.819-.065.494.156" style="fill:#00d860" transform="matrix(4.1664 0 0 4.16687 -666.166 -2413.139)"/><path d="M375.969 628.414c-.384-.335-.481-.13-.325.078s.039.312-.299.364-.845.117-1.053.117-.454.286.039.26c.494-.026 1.326-.195 1.547-.286s.402-.26.091-.533zm.753.585c-.317-.285-.429-.208-.351 0s-.065.247-.272.312-1.027.338-1.378.377-.429.286.091.273 1.52-.429 1.637-.507.156-.234.286-.156.247-.065-.013-.299z" style="fill:#000;stroke:#000;stroke-width:.125" transform="matrix(4.1664 0 0 4.16687 -666.166 -2413.139)"/><path d="M376.956 629.831c-.23.137-.805.389-1.039.454s-.429.325.065.286c.493-.039 1.078-.494 1.234-.584.156-.091.234-.156.364-.143s.364-.169-.065-.403-.689-.117-.481.065.052.247-.078.325z" style="fill:#000;stroke:#000;stroke-width:.125" transform="matrix(4.1664 0 0 4.16687 -666.166 -2413.139)"/><path d="M372.906 623.29c-.635-.417-1.36.457-.658.936.615.42 1.265-.537.658-.936" style="fill:#000" transform="matrix(4.1664 0 0 4.16687 -666.166 -2413.139)"/><path d="m372.116 623.672.188.013c-.039.194.156.487.455.415-.24.182-.708-.026-.643-.428m2.463 9.464c.192.056.859.124 1.085.135-.113.238-.215.396-.283.566s-.101.181-.113-.079c-.011-.261-.158-.43-.293-.159-.136.272-.204.373-.271.486s-.17.159-.136-.124.023-.577.011-.825" style="fill:#fff" transform="matrix(4.1664 0 0 4.16687 -666.166 -2413.139)"/><g style="fill:none;stroke:#000;stroke-width:.25;stroke-opacity:1"><path d="M399.668 640.771c-.046 16.332-2.623 33.927-23.764 42.308-21.142-8.381-23.719-25.976-23.765-42.308z" style="stroke:#000;stroke-opacity:1" transform="matrix(4.1664 0 0 4.16687 -666.166 -2413.139)"/></g><path d="M399.668 640.771c.018-6.152-.324-12.125-.168-17.359-7.9-3.535-18.295-4.262-23.596-4.262-5.302 0-15.697.727-23.597 4.262.156 5.234-.185 11.207-.168 17.359z" style="fill:none;stroke:#000;stroke-width:.25;stroke-miterlimit:4;stroke-dasharray:none;stroke-opacity:1" transform="matrix(4.1664 0 0 4.16687 -666.166 -2413.139)"/></svg>