<svg xmlns="http://www.w3.org/2000/svg" viewBox="0 0 675 450"><g style="display:inline"><path d="m0 0 298.571 225.241H675V0z" style="fill:#dc171d;fill-opacity:1;stroke:none"/></g><g style="display:inline"><path d="m0 0 299.005 225.746L0 450z" style="fill:#fff;stroke:#fff;stroke-width:1px;stroke-linecap:butt;stroke-linejoin:miter;stroke-opacity:1"/></g><g style="display:inline"><path d="m0 450 298.571-224.759H675V450z" style="fill:#012a87;fill-opacity:1;stroke:none"/></g><g style="display:inline"><path d="m377.175 843.108.09-3.459s-1.856-2.957.3-6.136c0 0-4.578-2.422-3.513-6.215 0 0-4.14-1.058-3.835-5.612 0 0-4.468-.31-4.931-4.115 0 0-4.468.736-6.434-2.971 0 0-4.359.852-5.588-2.204 0 0-4.237 1.468-6.751-2.124 0 0-4.475 1.808-6.35-1.583-1.85 3.38-6.324 1.583-6.324 1.583-2.484 3.58-6.751 2.094-6.751 2.094-1.187 3.068-5.533 2.197-5.533 2.197-1.96 3.708-6.423 2.971-6.423 2.971-.438 3.793-4.9 4.103-4.9 4.103.353 4.565-3.78 5.6-3.78 5.6 1.09 3.793-3.482 6.21-3.482 6.21 2.21 3.196.371 6.13.371 6.13l-.103 3.19 73.949.34" style="fill:#ff0;stroke:none" transform="matrix(1.00754 0 0 1.00735 -229.19 -679.021)"/><path d="m377.175 843.108.09-3.459s-1.856-2.957.3-6.136c0 0-4.578-2.422-3.513-6.215 0 0-4.14-1.058-3.835-5.612 0 0-4.468-.31-4.931-4.115 0 0-4.468.736-6.434-2.971 0 0-4.359.852-5.588-2.204 0 0-4.237 1.468-6.751-2.124 0 0-4.475 1.808-6.35-1.583-1.85 3.38-6.324 1.583-6.324 1.583-2.484 3.58-6.751 2.094-6.751 2.094-1.187 3.068-5.533 2.197-5.533 2.197-1.96 3.708-6.423 2.971-6.423 2.971-.438 3.793-4.9 4.103-4.9 4.103.353 4.565-3.78 5.6-3.78 5.6 1.09 3.793-3.482 6.21-3.482 6.21 2.21 3.196.371 6.13.371 6.13l-.103 3.19 73.949.34z" style="fill:#f9d90f;fill-opacity:1;stroke:#000;stroke-width:.27124387" transform="matrix(1.00754 0 0 1.00735 -229.19 -679.021)"/><path d="M375.446 838.791c-11.615-1.163-24.989-3.92-35.313 1.894-6.921-4.08-16.557-3.83-24.763-3.032-4.456.798-9.697.798-14.354 1.559l-.73.103c-8.45.56-16.114-1.936-23.455-5.217 2.331 13.234 4.918 26.797 6.19 40.652 2.77 20.52-9.709 37.747-4.59 58.018 3.057 9.727 13.752 15.382 23.54 16.503 9.479.56 19.285 2.112 28.057 4.017 1.668.347 3.646 1.12 4.797 1.62 2.417 1.01 4.188 2.496 5.74 4.084 5.296-5.515 13.058-7.05 20.716-7.859 13.8-1.613 30.814-.736 39.263-13.24v-.706c4.59-6.915 3.981-17.464 1.99-25.3-.133-2.732-.864-5.143-1.26-7.748-8.43-22.268-1.21-47.311 2.417-69.755-4.431 2.423-9.374 3.567-14.305 4.779-3.933.524-8.315.286-12.297.072l-1.65-.444" style="fill:#dc171d;fill-opacity:1;stroke:none" transform="matrix(1.00754 0 0 1.00735 -229.19 -679.021)"/><path d="M392.795 902.697c-.055 1.466.736 2.617 1.022 3.974 1.614 9.734 3.172 22.627-6.848 28.666-11.085 7.049-25.621 4.03-38.448 7.76-2.562.713-6.093 3.07-7.895 4.737-1.156-.761-2.32-1.93-3.81-2.617-10.556-5.613-24.277-3.732-36.19-6.764-5.984-1.892-12.223-6.555-13.739-12.68-3.896-16.07 5.436-29.766 4.334-45.71-.712-12.174-2.757-23.861-5.57-35.275 9.314 4.34 20.095 5.064 30.565 2.983 7.755-1.085 16.783-1.108 24.051 2.173 4.006-1.724 8.693-2.497 13.009-2.972 8.205.799 17.026 2.283 25.475 2.223 5.643-.293 10.769-1.924 15.675-4.097-2.91 18.864-8.498 38.624-1.637 57.599" style="fill:#62afe1;fill-opacity:1;stroke:none" transform="matrix(1.00754 0 0 1.00735 -229.19 -679.021)"/><path d="m376.042 906.458-.09-17.738h2.184l-27.113-17.514-.048-9.1h2.617l-13.556-9.71-13.49 9.704h2.612l.048 9.094-26.967 17.49 2.155.011.092 17.727 71.55.049" style="fill:#fff;stroke:none" transform="matrix(1.00754 0 0 1.00735 -229.19 -679.021)"/><path d="m376.042 906.458-.09-17.738h2.184l-27.113-17.514-.048-9.1h2.617l-13.556-9.71-13.49 9.704h2.612l.048 9.094-26.967 17.49 2.155.011.092 17.727 71.55.049z" style="fill:none;stroke:#000;stroke-width:1.16422367;stroke-miterlimit:4;stroke-dasharray:none" transform="matrix(1.00754 0 0 1.00735 -229.19 -679.021)"/><path d="m384.376 929.761.006 5.551-87.347-.097-.037-5.528 87.384.074" style="fill:#fff;stroke:none" transform="matrix(1.00754 0 0 1.00735 -229.19 -679.021)"/><path d="m384.376 929.761.006 5.551-87.347-.097-.037-5.528 87.384.074z" style="fill:none;stroke:#000;stroke-width:1.16422367;stroke-miterlimit:4;stroke-dasharray:none" transform="matrix(1.00754 0 0 1.00735 -229.19 -679.021)"/><path d="m302.836 929.426-.073-18.785 3.536-.007-.194 19.004.213-18.852-5.095-.146v-4.03l78.064.086.036 3.993h-4.815l.092 19.023-.17-19.023h3.585l.079 18.81" style="fill:#fff;stroke:none" transform="matrix(1.00754 0 0 1.00735 -229.19 -679.021)"/><path d="m302.836 929.426-.073-18.785 3.536-.007-.194 19.004.213-18.852-5.095-.146v-4.03l78.064.086.036 3.993h-4.815l.092 19.023-.17-19.023h3.585l.079 18.81" style="fill:none;stroke:#000;stroke-width:1.16422367;stroke-miterlimit:4;stroke-dasharray:none" transform="matrix(1.00754 0 0 1.00735 -229.19 -679.021)"/><path d="m319.619 924.8-.055-13.1h-10.482l.06 13.087 10.477.013" style="fill:none;stroke:#000;stroke-width:1.16422367;stroke-miterlimit:4;stroke-dasharray:none" transform="matrix(1.00754 0 0 1.00735 -229.19 -679.021)"/><path d="m311.937 914.432.03 7.61h4.797l-.025-7.61h-4.802m58.925 10.404-.06-13.087-10.447-.013.049 13.1h10.458" style="fill:none;stroke:#000;stroke-width:1.16422367;stroke-miterlimit:4;stroke-dasharray:none" transform="matrix(1.00754 0 0 1.00735 -229.19 -679.021)"/><path d="m363.18 914.481.055 7.585h4.79l-.042-7.585h-4.803m7.603-10.975-.061-13.1h-10.458l.036 13.1h10.489z" style="fill:none;stroke:#000;stroke-width:1.16422367;stroke-miterlimit:4;stroke-dasharray:none" transform="matrix(1.00754 0 0 1.00735 -229.19 -679.021)"/><path d="m363.1 893.163.031 7.597h4.79l-.005-7.597H363.1m-43.566 10.295-.073-13.076-10.465-.013.05 13.082h10.488z" style="fill:none;stroke:#000;stroke-width:1.16422367;stroke-miterlimit:4;stroke-dasharray:none" transform="matrix(1.00754 0 0 1.00735 -229.19 -679.021)"/><path d="m311.851 893.115.025 7.585 4.803.012-.037-7.597h-4.79m26.65 10.366-.049-13.075-10.47-.012.042 13.087h10.477" style="fill:none;stroke:#000;stroke-width:1.16422367;stroke-miterlimit:4;stroke-dasharray:none" transform="matrix(1.00754 0 0 1.00735 -229.19 -679.021)"/><path d="m330.826 893.127.024 7.585 4.797.024-.03-7.61h-4.791m22.298 10.38-.074-13.1-10.464-.012.049 13.087 10.488.025" style="fill:none;stroke:#000;stroke-width:1.16422367;stroke-miterlimit:4;stroke-dasharray:none" transform="matrix(1.00754 0 0 1.00735 -229.19 -679.021)"/><path d="m345.435 893.14.037 7.609h4.797l-.025-7.61h-4.809" style="fill:none;stroke:#000;stroke-width:1.16422367;stroke-miterlimit:4;stroke-dasharray:none" transform="matrix(1.00754 0 0 1.00735 -229.19 -679.021)"/><path d="m355.717 899.488.115 30.2-30.333-.05-.11-30.174 30.322.024" style="fill:#fff;stroke:none" transform="matrix(1.00754 0 0 1.00735 -229.19 -679.021)"/><path d="m355.717 899.488.115 30.2-30.333-.05-.11-30.174 30.322.024zm-30.51 8.62 30.54.024m-26.729 21.543-.104-21.342m23.229 21.354-.103-21.33m14.75-21.731-17.081-12.474-19.194-.024-16.947 12.45 53.222.048" style="fill:none;stroke:#000;stroke-width:1.16422367;stroke-miterlimit:4;stroke-dasharray:none" transform="matrix(1.00754 0 0 1.00735 -229.19 -679.021)"/><path d="m331.994 863.799.03 7.609 16.144.012-.03-7.61-16.144-.011" style="fill:none;stroke:#000;stroke-width:1.16422367;stroke-miterlimit:4;stroke-opacity:1;stroke-dasharray:none" transform="matrix(1.00754 0 0 1.00735 -229.19 -679.021)"/><path d="m336.371 865.686.025 3.791h7.414l-.024-3.791h-7.415m3.665-10.544 8.979 6.349-17.891-.024 8.912-6.325" style="fill:none;stroke:#000;stroke-width:1.16422367;stroke-miterlimit:4;stroke-dasharray:none" transform="matrix(1.00754 0 0 1.00735 -229.19 -679.021)"/><path d="M376.34 850.838c2.551-.061 3.209 10.507 3.215 15.742 2.191.615 7.049 3.671 9.198 6.434l-24.642-.036c2.119-2.727 6.94-5.796 9.113-6.41 0-5.242.536-15.802 3.117-15.742" style="fill:#fff;stroke:none" transform="matrix(1.00754 0 0 1.00735 -229.19 -679.021)"/><path d="M376.34 850.838c2.551-.061 3.209 10.507 3.215 15.742 2.191.615 7.049 3.671 9.198 6.434l-24.642-.036c2.119-2.727 6.94-5.796 9.113-6.41 0-5.242.536-15.802 3.117-15.742m-49.533 49.509h2.21l-.646 1.186s1.066 1.37.019 2.94l.578 1.09h-2.13l.578-1.035s-1.09-1.82.048-2.995l-.657-1.186m4.505 0h2.21l-.64 1.186s1.065 1.334.006 2.94l.572 1.09h-2.124l.572-1.035s-1.065-1.82.055-2.995l-.652-1.186m4.913 0h2.204l-.658 1.186s1.078 1.37.019 2.94l.578 1.114-2.112-.023.566-1.036s-1.078-1.808.042-2.995l-.645-1.186zm5.545.011h2.222l-.65 1.2s1.064 1.345.005 2.921l.597 1.108H341.8l.572-1.034s-1.065-1.833.073-2.995l-.67-1.2zm4.931 0h2.204l-.651 1.2s1.071 1.345.012 2.915l.584 1.114h-2.124l.554-1.034s-1.072-1.82.085-2.995l-.664-1.2m4.901.013 2.203-.013-.651 1.2s1.09 1.345.03 2.921l.554 1.108h-2.13l.572-1.035s-1.065-1.82.073-2.994l-.651-1.188" style="fill:none;stroke:#000;stroke-width:1.16422367;stroke-miterlimit:4;stroke-dasharray:none" transform="matrix(1.00754 0 0 1.00735 -229.19 -679.021)"/><path d="M340.7 968.397c11.358.036 25.329-2.283 31.873-5.667l14.372-1.273.286 17.538c-12.175 6.714-40.286 8.157-46.47 8.108-6.192.049-34.65-1.418-46.88-8.156l.159-17.55 14.402 1.296c6.544 3.367 20.94 5.704 32.288 5.704z" style="fill:#f9d90f;fill-opacity:1;stroke:none" transform="matrix(1.00754 0 0 1.00735 -229.19 -679.021)"/><path d="M340.7 968.397c11.358.036 25.329-2.283 31.873-5.667l14.372-1.273.286 17.538c-12.175 6.714-40.286 8.157-46.47 8.108-6.192.049-34.65-1.418-46.88-8.156l.159-17.55 14.402 1.296c6.544 3.367 20.94 5.704 32.288 5.704h-.03" style="fill:none;stroke:#000;stroke-width:.27124387" transform="matrix(1.00754 0 0 1.00735 -229.19 -679.021)"/><path d="m256.883 893.59 12.661 4.03-3.829 20.502-11.986 1.862s-2.02-10.78 3.154-26.407" style="fill:#f9d90f;fill-opacity:1;stroke:none" transform="matrix(1.00754 0 0 1.00735 -229.19 -679.021)"/><path d="m256.883 893.59 12.661 4.03-3.829 20.502-11.986 1.862s-2.02-10.78 3.154-26.407z" style="fill:none;stroke:#000;stroke-width:.27124387" transform="matrix(1.00754 0 0 1.00735 -229.19 -679.021)"/><path d="m265.71 917.896-11.98 2.088 7.578-10.78z" style="fill:#7e7e7e;stroke:none" transform="matrix(1.00754 0 0 1.00735 -229.19 -679.021)"/><path d="m265.71 917.896-11.98 2.088 7.578-10.78 4.401 8.692" style="fill:#f9b60f;fill-opacity:1;stroke:#000;stroke-width:.27124387" transform="matrix(1.00754 0 0 1.00735 -229.19 -679.021)"/><path d="m249.31 908.358 12.205.882c.274 10.343 1.528 49.813 48.656 51.956l-1.467 14.36c-57.367.596-61.726-48.413-59.394-67.198" style="fill:#f9d90f;fill-opacity:1;stroke:none" transform="matrix(1.00754 0 0 1.00735 -229.19 -679.021)"/><path d="m249.31 908.358 12.205.882c.274 10.343 1.528 49.813 48.656 51.956l-1.467 14.36c-57.367.596-61.726-48.413-59.394-67.198zm44.797 70.138 14.384-3.141" style="fill:none;stroke:#000;stroke-width:.27124387" transform="matrix(1.00754 0 0 1.00735 -229.19 -679.021)"/><path d="m423.518 893.735-12.613 3.994 3.999 20.472 12.01 1.93s1.93-10.775-3.396-26.407" style="fill:#ff0;stroke:none" transform="matrix(1.00754 0 0 1.00735 -229.19 -679.021)"/><path d="m423.518 893.735-12.613 3.994 3.999 20.472 12.01 1.93s1.93-10.775-3.396-26.407z" style="fill:#f9d90f;fill-opacity:1;stroke:#000;stroke-width:.27124387" transform="matrix(1.00754 0 0 1.00735 -229.19 -679.021)"/><path d="m414.904 917.987 12.01 2.155-7.682-10.786z" style="fill:#7e7e7e;stroke:none" transform="matrix(1.00754 0 0 1.00735 -229.19 -679.021)"/><path d="m414.904 917.987 12.01 2.155-7.682-10.786-4.328 8.631" style="fill:#f9b60f;fill-opacity:1;stroke:#000;stroke-width:.27124387" transform="matrix(1.00754 0 0 1.00735 -229.19 -679.021)"/><path d="m431.23 908.522-12.223.834c-.177 10.33-1.078 49.818-48.206 51.913l1.601 14.348c57.355.663 61.3-48.322 58.828-67.1" style="fill:#f9d90f;fill-opacity:1;stroke:none" transform="matrix(1.00754 0 0 1.00735 -229.19 -679.021)"/><path d="m431.23 908.522-12.223.834c-.177 10.33-1.078 49.818-48.206 51.913l1.601 14.348c57.355.663 61.3-48.322 58.828-67.1zm-44.194 70.053-14.42-3.159" style="fill:none;stroke:#000;stroke-width:.27124387" transform="matrix(1.00754 0 0 1.00735 -229.19 -679.021)"/><path d="M333.072 977.04c-.323.208-.761.263-1.266.238l-2.277-.115.195-2.843 2.258.122c.445.03.798.116 1.017.25.456.237.657.675.615 1.284-.03.523-.213.865-.548 1.065m-3.823 4.475.225-3.465 2.654.184c.858.067 1.498-.159 1.93-.598.45-.426.682-.985.712-1.618.055-.737-.134-1.34-.572-1.784-.42-.427-1.017-.652-1.765-.724l-3.793-.238-.523 8.157 1.126.074m8.26-6.813 2.776.03c.402.037.718.086.95.195.426.201.627.603.627 1.187 0 .549-.159.914-.469 1.133-.298.2-.73.292-1.248.292l-2.666-.03.024-2.807m-.042 7.226.024-3.482 2.605.037c.463 0 .804.036 1.041.152.384.176.572.548.59 1.059l.068 1.37c.018.328.024.53.042.663.037.097.055.2.104.274h1.4l-.024-.177c-.159-.085-.287-.249-.341-.499-.05-.158-.073-.396-.086-.694l-.024-1.09c-.018-.493-.103-.833-.292-1.022a1.46 1.46 0 0 0-.737-.524c.39-.206.682-.443.895-.736.201-.323.305-.73.305-1.23 0-.937-.384-1.576-1.163-1.923-.42-.189-.956-.287-1.589-.298l-3.914-.037-.03 8.181h1.126m8.686-1.735c-.499-.608-.767-1.369-.828-2.27-.054-1.133.165-1.996.682-2.581.524-.633 1.2-.937 2.082-.986.889-.049 1.62.237 2.161.797.554.548.87 1.31.925 2.259.03.912-.128 1.722-.548 2.434-.414.725-1.101 1.133-2.118 1.157-1.06.055-1.85-.194-2.356-.81m-1.339-5.15c-.523.81-.737 1.747-.682 2.88.08 1.223.457 2.234 1.169 2.995.791.761 1.838 1.144 3.129 1.071 1.382-.06 2.423-.584 3.129-1.546.572-.87.846-1.881.785-3.13-.079-1.113-.402-2.02-1.004-2.696-.761-.907-1.875-1.308-3.385-1.247-1.424.09-2.471.614-3.147 1.673m38.448-11.766c.785-.134 1.467-.097 2.088.115.913.286 1.528.963 1.911 1.997l-1.126.158c-.244-.56-.59-.943-1.06-1.156-.456-.2-1.028-.25-1.686-.152a2.63 2.63 0 0 0-1.814 1.114c-.426.657-.554 1.534-.365 2.653.158.926.5 1.71 1.06 2.234.517.536 1.278.725 2.27.585.743-.122 1.34-.42 1.76-.932.437-.486.565-1.223.42-2.173l-2.624.403-.134-.901 3.652-.56.712 4.327-.724.11-.45-.999c-.305.451-.61.798-.877.999-.45.353-1.06.579-1.82.688-.986.152-1.887-.025-2.703-.548-.895-.664-1.473-1.65-1.692-3.019-.238-1.345-.025-2.496.596-3.403.59-.876 1.449-1.388 2.606-1.553m8.26-.621 2.618-.95c.359-.133.67-.176.937-.145.481.036.834.322 1.035.895.189.487.189.913-.024 1.212-.226.31-.579.535-1.09.723l-2.46.883zm2.618 6.764-1.279-3.281 2.435-.877c.457-.146.773-.225 1.01-.2.433.054.762.316.98.815l.555 1.248c.122.31.219.499.298.585.037.11.116.176.177.249l1.32-.487-.072-.176c-.195 0-.384-.11-.524-.324-.103-.151-.2-.37-.34-.626l-.433-1.023c-.195-.445-.396-.718-.627-.883a2.1 2.1 0 0 0-.87-.237c.267-.31.462-.621.535-.987.08-.37.043-.784-.134-1.247-.335-.87-.95-1.345-1.814-1.406-.456-.037-.98.06-1.583.273l-3.676 1.31 2.97 7.693 1.078-.395m9.569-4.078-4.669-6.812 5.126-3.27.566.823-4.2 2.684 1.436 2.082 3.878-2.496.53.797-3.878 2.497 1.582 2.295 4.274-2.734.566.804-5.217 3.33m4.091-12.041 1.339-1.474c.62-.657 1.278-.955 1.997-.87.718.06 1.448.438 2.228 1.12.213.164.401.377.596.615.341.444.542.834.67 1.223.11.488.085.932-.085 1.358-.104.213-.287.462-.56.761l-1.346 1.461-4.84-4.206m7.074 3.207c.95-1.046 1.157-2.172.603-3.444a5.8 5.8 0 0 0-1.498-1.943c-.858-.76-1.753-1.15-2.696-1.223-1.047-.08-1.936.298-2.71 1.144l-2.282 2.447 6.294 5.491 2.283-2.459m4.882-6.362-7.244-4.255.59-.937 7.257 4.231-.597.973m2.837-4.954-7.822-3.13 2.307-5.503.95.366-1.882 4.535 2.356.926 1.76-4.177.9.372-1.74 4.17 2.635 1.07 1.93-4.589.95.359-2.35 5.601m3.598-9.606-8.23-1.82.273-1.272 7.603-2.57-6.677-1.472.243-.999 8.23 1.771-.262 1.236-7.615 2.624 6.678 1.443-.237 1.06m-.658-10.454.104-1.034c.474.012.876-.061 1.18-.225q.897-.484 1.035-1.845c.037-.426.019-.797-.079-1.15-.176-.682-.56-1.06-1.175-1.12-.456-.05-.785.06-1.022.31-.213.287-.438.7-.609 1.285l-.377 1.077c-.244.706-.47 1.193-.713 1.467-.39.512-.937.688-1.637.64-.749-.08-1.358-.378-1.79-.95-.444-.524-.627-1.272-.517-2.198.073-.846.353-1.558.852-2.13.463-.524 1.181-.774 2.1-.676l-.085 1.034c-.45 0-.81.08-1.071.262-.475.262-.737.816-.816 1.625-.067.67.024 1.12.28 1.462.256.286.578.468.956.499.401.036.718-.092.937-.402.158-.213.347-.676.603-1.425l.371-1.132q.274-.783.658-1.211c.456-.475 1.053-.676 1.801-.62.913.096 1.565.474 1.9 1.168.328.7.456 1.473.377 2.35-.103.992-.426 1.771-1.023 2.295-.596.535-1.339.718-2.24.645m-170.61-.499.189 1.022c-.457.091-.822.275-1.09.512-.48.45-.645 1.126-.48 2.045.072.39.212.773.389 1.078.365.62.84.87 1.443.772.444-.079.736-.249.876-.565.134-.311.231-.786.262-1.394l.055-1.151c.036-.713.115-1.272.274-1.583.25-.56.718-.907 1.418-1.022a2.44 2.44 0 0 1 1.972.462c.572.396.95 1.083 1.09 1.997.176.834.097 1.583-.231 2.258-.317.658-.926 1.06-1.857 1.23l-.183-1.035c.433-.158.755-.31.968-.523.365-.409.475-.998.335-1.808-.11-.658-.335-1.084-.676-1.297-.334-.25-.67-.347-1.035-.286-.407.061-.675.286-.803.652-.08.242-.14.748-.195 1.521l-.055 1.193c-.03.56-.115 1.023-.304 1.34-.298.583-.804.943-1.54 1.058-.932.159-1.65-.054-2.161-.651-.524-.584-.846-1.284-1.01-2.155-.183-1.035-.05-1.838.365-2.483.42-.663 1.083-1.047 1.984-1.175m-.518 10.781 8.048-2.423 1.875 5.667-.98.31-1.534-4.657-2.447.738 1.418 4.303-.937.298-1.406-4.315-2.728.815 1.559 4.76-.962.275zm3.568 9.825 7.402-3.927.791 1.382-5.089 5.38 7.433-1.271.767 1.37-7.384 3.902-.523-.908 4.358-2.294c.158-.092.402-.226.755-.414.347-.158.737-.372 1.126-.573l-7.402 1.26-.542-.962 5.053-5.362-.244.122c-.158.09-.432.225-.803.438-.366.225-.64.365-.816.438l-4.346 2.331-.536-.924m13.794 10.914c-.372-.085-.737-.299-1.096-.67l-1.564-1.613 2.106-1.93 1.576 1.608c.305.298.5.59.603.84.146.48 0 .92-.444 1.332-.402.372-.804.524-1.181.433m-5.948.748 2.581-2.368 1.833 1.857c.59.603 1.193.877 1.826.865a2.58 2.58 0 0 0 1.686-.737c.548-.487.81-1.06.81-1.674-.006-.597-.28-1.156-.786-1.68l-2.63-2.685-6.123 5.625.791.797m7.396 6.575 4.438-6.958 5.247 3.19-.548.828-4.31-2.58-1.332 2.105 3.962 2.404-.511.798-3.969-2.392-1.51 2.355 4.365 2.624-.523.822zm13.137-1.345 2.666.846c.378.115.651.261.834.426.341.323.432.785.231 1.345-.164.487-.414.804-.803.938a2.76 2.76 0 0 1-1.297-.098l-2.514-.803zm-2.301 6.837 1.108-3.318 2.483.81c.445.116.767.274.926.438.304.274.395.682.243 1.187l-.371 1.32c-.085.323-.128.537-.165.634 0 .104 0 .214.019.286l1.309.426.079-.189c-.14-.11-.22-.31-.213-.559.03-.153.073-.396.158-.676l.316-1.06c.128-.462.177-.81.061-1.058a1.67 1.67 0 0 0-.535-.724c.414-.074.773-.202 1.077-.427.286-.25.53-.597.676-1.083.298-.883.134-1.62-.524-2.18-.328-.292-.797-.542-1.412-.773l-3.725-1.15-2.606 7.76 1.09.336" style="fill:#012a87;fill-opacity:1;stroke:none" transform="matrix(1.00754 0 0 1.00735 -229.19 -679.021)"/><path d="M295.318 827.761c.962-2.32 9.874-8.644 39.117-5.874 0 0 4.943 3.019 7.847 2.63 1.656-.214-.974.103-3.135-1.693-2.204-1.795-2.672-5.478 2.362-5.38 5.01.127 23.765 1.186 24.118 2.872.329 1.704-9.916 2.417-13.727 2.32-3.829-.104-3.385 1.832.426 1.686 11.907-.426 24.903-4.62 38.63 5.09 1.638 1.18-4.139 1.368-8.607-.531 0 0-12.108.627-17.343-.23 0 0-4.024 3.274-9.265 2.952.682 1.697-1.936 8.035-18.414 3.268-2.721.834-12.637 2.496-11.554-.45-2.611 0-7.19.84-7.87-.646-.658-1.46 8.059-3.67 9.587-5.253 0 0-18.439.177-21.933-1.096 0 0-10.878 2.441-10.239.323" style="fill:#bc715f;stroke:none" transform="matrix(1.00754 0 0 1.00735 -229.19 -679.021)"/><path d="M301.229 853.583c.396-.535.554-1.497 1.394-1.472 1.826.486 3.068 3.828 5.314 1.661.798-.176 1.102.908 1.76 1.035.42 1.857 1.91-.377 3.025-.25 2.38-1.059 5.326-1.308 8.145-.785.085 1.82-1.34 3.829-3.13 4.864.037 1.833 1.7 3.008 1.669 4.851-.286.689-.049 1.772-1.09 1.997-1.32-.237-2.624-.377-3.72-1.114-.133-.134-.243-.396-.523-.31-.134.614.828 1.224 1.205 1.85-.663 1.132-1.765.098-2.69.11-.274.651-.012 1.473-.682 1.893-1.169-.037-1.406-1.308-2.124-1.942-.737.798.517 1.272.694 1.905-.45 2.399-.39 4.742-2.788 6.313l-1.608.798c-.438-1.205-.164-3.032-.456-4.292-.95 1.546-1.692 2.898-3.086 4.206-1.632-.535-2.581-2.46-2.94-4.054-.682-1.857-.293-4.078 1.174-5.424-.499-.974-2.21-.749-2.453-2.136-2.563-1.668-3.981 2.922-5.637.535-.535-2.227.104-4.997 1.717-6.66-.36-.912-1.552-.674-2.259-1.198-1.613-1.37-3.938-2.818-3.822-5.29 4.413-1.668 9.69-.444 12.899 2.91" style="fill:#008830;fill-opacity:1;stroke:none" transform="matrix(1.00754 0 0 1.00735 -229.19 -679.021)"/><path d="M303.518 853.334c-.104 2.02 1.363.548 2.453 1.771-.852-.335-1.473 1.473-2.307.438l-.524.5c.305.694.895.785.28 1.546-.913.347-1.095-.797-1.522-1.248-.073-.2.14-.578-.194-.712-.518.438-1.06.596-1.772.524-.195-.39-.572-.901-.188-1.2.7-.944 1.783.34 2.313-.322.085-.584-.426-1.297.237-1.699.457.08 1.041-.17 1.23.402m5.454 1.656c.055.39-.2.937.31 1.212.664-.36 1.37-.086 1.754.572-.006.352.103.815-.36.985l-1.034-.194c.073-.201-.256-.329-.384-.523-.456-.14-.724.23-1.065.455.256.39.846.603.706 1.103-.609.608-.907-.524-1.577-.238-.456-.176.165-1.126-.554-1.412-.852 0-.286 1.4-1.375.852-.39-.438-.773-1.028-.353-1.521.456-.305 1.23-.226 1.619.17.663-.736.73-3.58 2.32-1.461m-6.806 2.934c.444.64-.098 1.51.468 2.221.889-1.66 1.747.36 2.806.201.323.396.11.945.17 1.394-1.308.347-2.884.761-4.041-.286l-.323.372c.688.64 1.34 1.363.792 2.435-.98.213-2.496.237-2.99-.774-.255-.833.597-1.436-.304-2.106-.65.81-.62 1.894-1.978 1.157-.84-.463-1.09-1.418-.67-2.222.877-1.382 2.411.043 3.36-.633.135-1.187-.304-2.222.786-2.879.931-.165 1.363.535 1.93 1.12" style="fill:#f9d90f;fill-opacity:1;stroke:none" transform="matrix(1.00754 0 0 1.00735 -229.19 -679.021)"/><path d="M305.892 858.648c-.439 2.021-1.96-.103-2.673-.189.95-1.685 1.547.549 2.673.189m4.742 2.198c-1.06.298-.895-1.023-1.419-1.54l.408-.372c.384.463.676 1.297 1.01 1.912" style="fill:#fff;stroke:none" transform="matrix(1.00754 0 0 1.00735 -229.19 -679.021)"/><path d="M309.197 860.444c.305.7-.688 1.26.158 1.771.268-.224.597-.536.737-.663.724.213 1.564.341 2.07 1.059.542 1.486-.962 1.449-1.814 1.863l-.846-.037c.2-.414-.366-.59-.506-.876-.39-.097-.712.024-.931.353.189.944 1.34 1.68.152 2.52-1.004-.067-2.563.322-2.471-1.066-.378-.785 1.022-1.996-.475-2.044-.493 1.059-1.035 2.081-2.32 1.077l.159-1.51c1.23.036 2.684.25 3.238-1.126.353-.998-.614-1.917.25-2.709 1.254-.286 1.96.554 2.6 1.388" style="fill:#f9d90f;fill-opacity:1;stroke:none" transform="matrix(1.00754 0 0 1.00735 -229.19 -679.021)"/><path d="M308.296 862.714c.317.75-.535.798-.937 1.17-.542.042-.92-.171-1.248-.537-.244-.907.432-.998.95-1.356.602-.25.852.45 1.235.723" style="fill:#000;stroke:none" transform="matrix(1.00754 0 0 1.00735 -229.19 -679.021)"/><path d="M307.56 863.201c-.134.177-.323.123-.524.17l-.188-.906c.401.036.925.164.712.736" style="fill:#fff;stroke:none" transform="matrix(1.00754 0 0 1.00735 -229.19 -679.021)"/></g></svg>