<svg aria-hidden="true" style="position: absolute; width: 0; height: 0; overflow: hidden;" version="1.1" xmlns="http://www.w3.org/2000/svg" xmlns:xlink="http://www.w3.org/1999/xlink">
<defs>
	<symbol id="icon-box" viewBox="0 0 24 24">
		<path d="M12 3l8 4.5v9l-8 4.5l-8 -4.5v-9l8 -4.5"></path>
		<path d="M12 12l8 -4.5"></path>
		<path d="M8.2 9.8l7.6 -4.6"></path>
		<path d="M12 12v9"></path>
		<path d="M12 12l-8 -4.5"></path>
	</symbol>

	<symbol id="icon-close" viewBox="0 0 24 24" stroke-width="2">
		<path d="M18 6l-12 12"></path>
		<path d="M6 6l12 12"></path>
	</symbol>

	<symbol id="icon-brightness" viewBox="0 0 24 24">   
		<path d="M12 12m-9 0a9 9 0 1 0 18 0a9 9 0 1 0 -18 0"></path>
		<path d="M12 3l0 18"></path>
		<path d="M12 9l4.65 -4.65"></path>
		<path d="M12 14.3l7.37 -7.37"></path>
		<path d="M12 19.6l8.85 -8.85"></path>
	</symbol>

	<symbol id="icon-night" viewBox="0 0 24 24">
		<path d="M12 3c.132 0 .263 0 .393 0a7.5 7.5 0 0 0 7.92 12.446a9 9 0 1 1 -8.313 -12.454z"></path>
	</symbol>

	<symbol id="icon-day" viewBox="0 0 24 24">
		<path d="M14.828 14.828a4 4 0 1 0 -5.656 -5.656a4 4 0 0 0 5.656 5.656z"></path>
		<path d="M6.343 17.657l-1.414 1.414"></path>
		<path d="M6.343 6.343l-1.414 -1.414"></path>
		<path d="M17.657 6.343l1.414 -1.414"></path>
		<path d="M17.657 17.657l1.414 1.414"></path>
		<path d="M4 12h-2"></path>
		<path d="M12 4v-2"></path>
		<path d="M20 12h2"></path>
		<path d="M12 20v2"></path>
	</symbol>

	<symbol id="icon-chat" viewBox="0 0 24 24">
		<path d="M21 14l-3 -3h-7a1 1 0 0 1 -1 -1v-6a1 1 0 0 1 1 -1h9a1 1 0 0 1 1 1v10"></path>
		<path d="M14 15v2a1 1 0 0 1 -1 1h-7l-3 3v-10a1 1 0 0 1 1 -1h2"></path>
	</symbol>

	<symbol id="icon-tasks" viewBox="0 0 24 24">
		<path d="M7 12l5 5l10 -10"></path>
		<path d="M2 12l5 5m5 -5l5 -5"></path>		
	</symbol>

	<symbol id="icon-columns" viewBox="0 0 24 24">
		<path d="M4 4m0 2a2 2 0 0 1 2 -2h12a2 2 0 0 1 2 2v12a2 2 0 0 1 -2 2h-12a2 2 0 0 1 -2 -2z"></path>
		<path d="M12 4l0 16"></path>
	</symbol>

	<symbol id="icon-worldshare" viewBox="0 0 24 24">
		<path d="M20.94 13.045a9 9 0 1 0 -8.953 7.955"></path>
		<path d="M3.6 9h16.8"></path>
		<path d="M3.6 15h9.4"></path>
		<path d="M11.5 3a17 17 0 0 0 0 18"></path>
		<path d="M12.5 3a16.991 16.991 0 0 1 2.529 10.294"></path>
		<path d="M16 22l5 -5"></path>
		<path d="M21 21.5v-4.5h-4.5"></path>
	</symbol>

	<symbol id="icon-redo" viewBox="0 0 24 24">
		<path d="M15 14l4 -4l-4 -4"></path>
		<path d="M19 10h-11a4 4 0 1 0 0 8h1"></path>
	</symbol>

	<symbol id="icon-undo" viewBox="0 0 24 24">
		<path d="M9 14l-4 -4l4 -4"></path>
		<path d="M5 10h11a4 4 0 1 1 0 8h-1"></path>
	</symbol>

	<symbol id="icon-grid" viewBox="0 0 24 24">
		<path d="M4 4m0 1a1 1 0 0 1 1 -1h4a1 1 0 0 1 1 1v4a1 1 0 0 1 -1 1h-4a1 1 0 0 1 -1 -1z"></path>
		<path d="M14 4m0 1a1 1 0 0 1 1 -1h4a1 1 0 0 1 1 1v4a1 1 0 0 1 -1 1h-4a1 1 0 0 1 -1 -1z"></path>
		<path d="M4 14m0 1a1 1 0 0 1 1 -1h4a1 1 0 0 1 1 1v4a1 1 0 0 1 -1 1h-4a1 1 0 0 1 -1 -1z"></path>
		<path d="M14 14m0 1a1 1 0 0 1 1 -1h4a1 1 0 0 1 1 1v4a1 1 0 0 1 -1 1h-4a1 1 0 0 1 -1 -1z"></path>
	</symbol>

	<symbol id="icon-history" viewBox="0 0 24 24">
		<path d="M12 8l0 4l2 2"></path>
		<path d="M3.05 11a9 9 0 1 1 .5 4m-.5 5v-5h5"></path>
	</symbol>

	<symbol id="icon-layout" viewBox="0 0 24 24">
		<path d="M4 4m0 2a2 2 0 0 1 2 -2h2a2 2 0 0 1 2 2v1a2 2 0 0 1 -2 2h-2a2 2 0 0 1 -2 -2z"></path>
		<path d="M4 13m0 2a2 2 0 0 1 2 -2h2a2 2 0 0 1 2 2v3a2 2 0 0 1 -2 2h-2a2 2 0 0 1 -2 -2z"></path>
		<path d="M14 4m0 2a2 2 0 0 1 2 -2h2a2 2 0 0 1 2 2v12a2 2 0 0 1 -2 2h-2a2 2 0 0 1 -2 -2z"></path>
	</symbol>

	<symbol id="icon-mosaic" viewBox="0 0 24 24">
		<path d="M4 4m0 2a2 2 0 0 1 2 -2h12a2 2 0 0 1 2 2v12a2 2 0 0 1 -2 2h-12a2 2 0 0 1 -2 -2z"></path>
		<path d="M4 12h8"></path>
		<path d="M12 15h8"></path>
		<path d="M12 9h8"></path>
		<path d="M12 4v16"></path>
	</symbol>

	<symbol id="icon-paint" viewBox="0 0 24 24">
		<path d="M5 3m0 2a2 2 0 0 1 2 -2h10a2 2 0 0 1 2 2v2a2 2 0 0 1 -2 2h-10a2 2 0 0 1 -2 -2z"></path>
		<path d="M19 6h1a2 2 0 0 1 2 2a5 5 0 0 1 -5 5l-5 0v2"></path>
		<path d="M10 15m0 1a1 1 0 0 1 1 -1h2a1 1 0 0 1 1 1v4a1 1 0 0 1 -1 1h-2a1 1 0 0 1 -1 -1z"></path>
	</symbol>

	<symbol id="icon-resize" viewBox="0 0 24 24">
		<path d="M4 12v-6a2 2 0 0 1 2 -2h12a2 2 0 0 1 2 2v6"></path>
		<path d="M10 18h-7"></path>
		<path d="M21 18h-7"></path>
		<path d="M6 15l-3 3l3 3"></path>
		<path d="M18 15l3 3l-3 3"></path>
	</symbol>

	<symbol id="icon-seo" viewBox="0 0 24 24">
		<path d="M7 8h-3a1 1 0 0 0 -1 1v2a1 1 0 0 0 1 1h2a1 1 0 0 1 1 1v2a1 1 0 0 1 -1 1h-3"></path>
		<path d="M14 16h-4v-8h4"></path>
		<path d="M11 12h2"></path>
		<path d="M17 8m0 1a1 1 0 0 1 1 -1h2a1 1 0 0 1 1 1v6a1 1 0 0 1 -1 1h-2a1 1 0 0 1 -1 -1z"></path>
	</symbol>

	<symbol id="icon-settings" viewBox="0 0 24 24">
		<path d="M10.325 4.317c.426 -1.756 2.924 -1.756 3.35 0a1.724 1.724 0 0 0 2.573 1.066c1.543 -.94 3.31 .826 2.37 2.37a1.724 1.724 0 0 0 1.065 2.572c1.756 .426 1.756 2.924 0 3.35a1.724 1.724 0 0 0 -1.066 2.573c.94 1.543 -.826 3.31 -2.37 2.37a1.724 1.724 0 0 0 -2.572 1.065c-.426 1.756 -2.924 1.756 -3.35 0a1.724 1.724 0 0 0 -2.573 -1.066c-1.543 .94 -3.31 -.826 -2.37 -2.37a1.724 1.724 0 0 0 -1.065 -2.572c-1.756 -.426 -1.756 -2.924 0 -3.35a1.724 1.724 0 0 0 1.066 -2.573c-.94 -1.543 .826 -3.31 2.37 -2.37c1 .608 2.296 .07 2.572 -1.065z"></path>
		<path d="M9 12a3 3 0 1 0 6 0a3 3 0 0 0 -6 0"></path>
	</symbol>

	<symbol id="icon-slider-hor" viewBox="0 0 24 24">
		<path d="M7 5m0 1a1 1 0 0 1 1 -1h8a1 1 0 0 1 1 1v12a1 1 0 0 1 -1 1h-8a1 1 0 0 1 -1 -1z"></path>
		<path d="M22 17h-1a1 1 0 0 1 -1 -1v-8a1 1 0 0 1 1 -1h1"></path>
		<path d="M2 17h1a1 1 0 0 0 1 -1v-8a1 1 0 0 0 -1 -1h-1"></path>
	</symbol>

	<symbol id="icon-slider-ver" viewBox="0 0 24 24">
		<path d="M19 8v8a1 1 0 0 1 -1 1h-12a1 1 0 0 1 -1 -1v-8a1 1 0 0 1 1 -1h12a1 1 0 0 1 1 1z"></path>
		<path d="M7 22v-1a1 1 0 0 1 1 -1h8a1 1 0 0 1 1 1v1"></path>
		<path d="M17 2v1a1 1 0 0 1 -1 1h-8a1 1 0 0 1 -1 -1v-1"></path>
	</symbol>

	<symbol id="icon-tree" viewBox="0 0 24 24">
		<path d="M6 20a2 2 0 1 0 -4 0a2 2 0 0 0 4 0z"></path>
		<path d="M16 4a2 2 0 1 0 -4 0a2 2 0 0 0 4 0z"></path>
		<path d="M16 20a2 2 0 1 0 -4 0a2 2 0 0 0 4 0z"></path>
		<path d="M11 12a2 2 0 1 0 -4 0a2 2 0 0 0 4 0z"></path>
		<path d="M21 12a2 2 0 1 0 -4 0a2 2 0 0 0 4 0z"></path>
		<path d="M5.058 18.306l2.88 -4.606"></path>
		<path d="M10.061 10.303l2.877 -4.604"></path>
		<path d="M10.065 13.705l2.876 4.6"></path>
		<path d="M15.063 5.7l2.881 4.61"></path>
	</symbol>

	<symbol id="icon-publish" viewBox="0 0 24 24">
		<path d="M4 13a8 8 0 0 1 7 7a6 6 0 0 0 3 -5a9 9 0 0 0 6 -8a3 3 0 0 0 -3 -3a9 9 0 0 0 -8 6a6 6 0 0 0 -5 3"></path>
		<path d="M7 14a6 6 0 0 0 -3 6a6 6 0 0 0 6 -3"></path>
		<path d="M15 9m-1 0a1 1 0 1 0 2 0a1 1 0 1 0 -2 0"></path>
	</symbol>
</defs>
</svg>