<svg xmlns="http://www.w3.org/2000/svg" viewBox="0 0 100 100" id="svg" style="--frame-c: #f6c6a4; --frame-bdw: 1em; background-color: rgb(238, 238, 238); --frame-asr: 100 / 100.;"><rect x="0" y="0" width="6.666666666666667" height="6.666666666666667" fill="#474747"></rect>
<rect x="6.666666666666667" y="0" width="6.666666666666667" height="6.666666666666667" fill="#999999"></rect>
<rect x="13.333333333333334" y="0" width="6.666666666666667" height="6.666666666666667" fill="#474747"></rect>
<rect x="20" y="0" width="6.666666666666667" height="6.666666666666667" fill="#999999"></rect>
<rect x="26.666666666666668" y="0" width="6.666666666666667" height="6.666666666666667" fill="#474747"></rect>
<rect x="33.333333333333336" y="0" width="6.666666666666667" height="6.666666666666667" fill="#999999"></rect>
<rect x="40" y="0" width="6.666666666666667" height="6.666666666666667" fill="#474747"></rect>
<rect x="46.66666666666667" y="0" width="6.666666666666667" height="6.666666666666667" fill="#999999"></rect>
<rect x="53.333333333333336" y="0" width="6.666666666666667" height="6.666666666666667" fill="#474747"></rect>
<rect x="60" y="0" width="6.666666666666667" height="6.666666666666667" fill="#999999"></rect>
<rect x="66.66666666666667" y="0" width="6.666666666666667" height="6.666666666666667" fill="#474747"></rect>
<rect x="73.33333333333334" y="0" width="6.666666666666667" height="6.666666666666667" fill="#999999"></rect>
<rect x="80" y="0" width="6.666666666666667" height="6.666666666666667" fill="#474747"></rect>
<rect x="86.66666666666667" y="0" width="6.666666666666667" height="6.666666666666667" fill="#999999"></rect>
<rect x="93.33333333333334" y="0" width="6.666666666666667" height="6.666666666666667" fill="#474747"></rect>
<rect x="0" y="6.666666666666667" width="6.666666666666667" height="6.666666666666667" fill="#999999"></rect>
<rect x="93.33333333333334" y="6.666666666666667" width="6.666666666666667" height="6.666666666666667" fill="#999999"></rect>
<rect x="0" y="13.333333333333334" width="6.666666666666667" height="6.666666666666667" fill="#474747"></rect>
<rect x="93.33333333333334" y="13.333333333333334" width="6.666666666666667" height="6.666666666666667" fill="#474747"></rect>
<rect x="0" y="20" width="6.666666666666667" height="6.666666666666667" fill="#999999"></rect>
<rect x="93.33333333333334" y="20" width="6.666666666666667" height="6.666666666666667" fill="#999999"></rect>
<rect x="0" y="26.666666666666668" width="6.666666666666667" height="6.666666666666667" fill="#474747"></rect>
<rect x="93.33333333333334" y="26.666666666666668" width="6.666666666666667" height="6.666666666666667" fill="#474747"></rect>
<rect x="0" y="33.333333333333336" width="6.666666666666667" height="6.666666666666667" fill="#999999"></rect>
<rect x="93.33333333333334" y="33.333333333333336" width="6.666666666666667" height="6.666666666666667" fill="#999999"></rect>
<rect x="0" y="40" width="6.666666666666667" height="6.666666666666667" fill="#474747"></rect>
<rect x="93.33333333333334" y="40" width="6.666666666666667" height="6.666666666666667" fill="#474747"></rect>
<rect x="0" y="46.66666666666667" width="6.666666666666667" height="6.666666666666667" fill="#999999"></rect>
<rect x="93.33333333333334" y="46.66666666666667" width="6.666666666666667" height="6.666666666666667" fill="#999999"></rect>
<rect x="0" y="53.333333333333336" width="6.666666666666667" height="6.666666666666667" fill="#474747"></rect>
<rect x="93.33333333333334" y="53.333333333333336" width="6.666666666666667" height="6.666666666666667" fill="#474747"></rect>
<rect x="0" y="60" width="6.666666666666667" height="6.666666666666667" fill="#999999"></rect>
<rect x="93.33333333333334" y="60" width="6.666666666666667" height="6.666666666666667" fill="#999999"></rect>
<rect x="0" y="66.66666666666667" width="6.666666666666667" height="6.666666666666667" fill="#474747"></rect>
<rect x="93.33333333333334" y="66.66666666666667" width="6.666666666666667" height="6.666666666666667" fill="#474747"></rect>
<rect x="0" y="73.33333333333334" width="6.666666666666667" height="6.666666666666667" fill="#999999"></rect>
<rect x="93.33333333333334" y="73.33333333333334" width="6.666666666666667" height="6.666666666666667" fill="#999999"></rect>
<rect x="0" y="80" width="6.666666666666667" height="6.666666666666667" fill="#474747"></rect>
<rect x="93.33333333333334" y="80" width="6.666666666666667" height="6.666666666666667" fill="#474747"></rect>
<rect x="0" y="86.66666666666667" width="6.666666666666667" height="6.666666666666667" fill="#999999"></rect>
<rect x="93.33333333333334" y="86.66666666666667" width="6.666666666666667" height="6.666666666666667" fill="#999999"></rect>
<rect x="0" y="93.33333333333334" width="6.666666666666667" height="6.666666666666667" fill="#474747"></rect>
<rect x="6.666666666666667" y="93.33333333333334" width="6.666666666666667" height="6.666666666666667" fill="#999999"></rect>
<rect x="13.333333333333334" y="93.33333333333334" width="6.666666666666667" height="6.666666666666667" fill="#474747"></rect>
<rect x="20" y="93.33333333333334" width="6.666666666666667" height="6.666666666666667" fill="#999999"></rect>
<rect x="26.666666666666668" y="93.33333333333334" width="6.666666666666667" height="6.666666666666667" fill="#474747"></rect>
<rect x="33.333333333333336" y="93.33333333333334" width="6.666666666666667" height="6.666666666666667" fill="#999999"></rect>
<rect x="40" y="93.33333333333334" width="6.666666666666667" height="6.666666666666667" fill="#474747"></rect>
<rect x="46.66666666666667" y="93.33333333333334" width="6.666666666666667" height="6.666666666666667" fill="#999999"></rect>
<rect x="53.333333333333336" y="93.33333333333334" width="6.666666666666667" height="6.666666666666667" fill="#474747"></rect>
<rect x="60" y="93.33333333333334" width="6.666666666666667" height="6.666666666666667" fill="#999999"></rect>
<rect x="66.66666666666667" y="93.33333333333334" width="6.666666666666667" height="6.666666666666667" fill="#474747"></rect>
<rect x="73.33333333333334" y="93.33333333333334" width="6.666666666666667" height="6.666666666666667" fill="#999999"></rect>
<rect x="80" y="93.33333333333334" width="6.666666666666667" height="6.666666666666667" fill="#474747"></rect>
<rect x="86.66666666666667" y="93.33333333333334" width="6.666666666666667" height="6.666666666666667" fill="#999999"></rect>
<rect x="93.33333333333334" y="93.33333333333334" width="6.666666666666667" height="6.666666666666667" fill="#474747"></rect>
<rect x="6.666666666666667" y="6.666666666666667" width="6.190476190476191" height="6.190476190476191" fill="#c2c2c2"></rect>
<rect x="12.857142857142858" y="6.666666666666667" width="6.190476190476191" height="6.190476190476191" fill="#707070"></rect>
<rect x="19.047619047619047" y="6.666666666666667" width="6.190476190476191" height="6.190476190476191" fill="#c2c2c2"></rect>
<rect x="25.23809523809524" y="6.666666666666667" width="6.190476190476191" height="6.190476190476191" fill="#707070"></rect>
<rect x="31.42857142857143" y="6.666666666666667" width="6.190476190476191" height="6.190476190476191" fill="#c2c2c2"></rect>
<rect x="37.61904761904762" y="6.666666666666667" width="6.190476190476191" height="6.190476190476191" fill="#707070"></rect>
<rect x="43.80952380952381" y="6.666666666666667" width="6.190476190476191" height="6.190476190476191" fill="#c2c2c2"></rect>
<rect x="50" y="6.666666666666667" width="6.190476190476191" height="6.190476190476191" fill="#707070"></rect>
<rect x="56.19047619047619" y="6.666666666666667" width="6.190476190476191" height="6.190476190476191" fill="#c2c2c2"></rect>
<rect x="62.38095238095238" y="6.666666666666667" width="6.190476190476191" height="6.190476190476191" fill="#707070"></rect>
<rect x="68.57142857142857" y="6.666666666666667" width="6.190476190476191" height="6.190476190476191" fill="#c2c2c2"></rect>
<rect x="74.76190476190477" y="6.666666666666667" width="6.190476190476191" height="6.190476190476191" fill="#707070"></rect>
<rect x="80.95238095238096" y="6.666666666666667" width="6.190476190476191" height="6.190476190476191" fill="#c2c2c2"></rect>
<rect x="87.14285714285715" y="6.666666666666667" width="6.190476190476191" height="6.190476190476191" fill="#707070"></rect>
<rect x="6.666666666666667" y="12.857142857142858" width="6.190476190476191" height="6.190476190476191" fill="#707070"></rect>
<rect x="87.14285714285715" y="12.857142857142858" width="6.190476190476191" height="6.190476190476191" fill="#c2c2c2"></rect>
<rect x="6.666666666666667" y="19.047619047619047" width="6.190476190476191" height="6.190476190476191" fill="#c2c2c2"></rect>
<rect x="87.14285714285715" y="19.047619047619047" width="6.190476190476191" height="6.190476190476191" fill="#707070"></rect>
<rect x="6.666666666666667" y="25.23809523809524" width="6.190476190476191" height="6.190476190476191" fill="#707070"></rect>
<rect x="87.14285714285715" y="25.23809523809524" width="6.190476190476191" height="6.190476190476191" fill="#c2c2c2"></rect>
<rect x="6.666666666666667" y="31.42857142857143" width="6.190476190476191" height="6.190476190476191" fill="#c2c2c2"></rect>
<rect x="87.14285714285715" y="31.42857142857143" width="6.190476190476191" height="6.190476190476191" fill="#707070"></rect>
<rect x="6.666666666666667" y="37.61904761904762" width="6.190476190476191" height="6.190476190476191" fill="#707070"></rect>
<rect x="87.14285714285715" y="37.61904761904762" width="6.190476190476191" height="6.190476190476191" fill="#c2c2c2"></rect>
<rect x="6.666666666666667" y="43.80952380952381" width="6.190476190476191" height="6.190476190476191" fill="#c2c2c2"></rect>
<rect x="87.14285714285715" y="43.80952380952381" width="6.190476190476191" height="6.190476190476191" fill="#707070"></rect>
<rect x="6.666666666666667" y="50" width="6.190476190476191" height="6.190476190476191" fill="#707070"></rect>
<rect x="87.14285714285715" y="50" width="6.190476190476191" height="6.190476190476191" fill="#c2c2c2"></rect>
<rect x="6.666666666666667" y="56.19047619047619" width="6.190476190476191" height="6.190476190476191" fill="#c2c2c2"></rect>
<rect x="87.14285714285715" y="56.19047619047619" width="6.190476190476191" height="6.190476190476191" fill="#707070"></rect>
<rect x="6.666666666666667" y="62.38095238095238" width="6.190476190476191" height="6.190476190476191" fill="#707070"></rect>
<rect x="87.14285714285715" y="62.38095238095238" width="6.190476190476191" height="6.190476190476191" fill="#c2c2c2"></rect>
<rect x="6.666666666666667" y="68.57142857142857" width="6.190476190476191" height="6.190476190476191" fill="#c2c2c2"></rect>
<rect x="87.14285714285715" y="68.57142857142857" width="6.190476190476191" height="6.190476190476191" fill="#707070"></rect>
<rect x="6.666666666666667" y="74.76190476190477" width="6.190476190476191" height="6.190476190476191" fill="#707070"></rect>
<rect x="87.14285714285715" y="74.76190476190477" width="6.190476190476191" height="6.190476190476191" fill="#c2c2c2"></rect>
<rect x="6.666666666666667" y="80.95238095238096" width="6.190476190476191" height="6.190476190476191" fill="#c2c2c2"></rect>
<rect x="87.14285714285715" y="80.95238095238096" width="6.190476190476191" height="6.190476190476191" fill="#707070"></rect>
<rect x="6.666666666666667" y="87.14285714285715" width="6.190476190476191" height="6.190476190476191" fill="#707070"></rect>
<rect x="12.857142857142858" y="87.14285714285715" width="6.190476190476191" height="6.190476190476191" fill="#c2c2c2"></rect>
<rect x="19.047619047619047" y="87.14285714285715" width="6.190476190476191" height="6.190476190476191" fill="#707070"></rect>
<rect x="25.23809523809524" y="87.14285714285715" width="6.190476190476191" height="6.190476190476191" fill="#c2c2c2"></rect>
<rect x="31.42857142857143" y="87.14285714285715" width="6.190476190476191" height="6.190476190476191" fill="#707070"></rect>
<rect x="37.61904761904762" y="87.14285714285715" width="6.190476190476191" height="6.190476190476191" fill="#c2c2c2"></rect>
<rect x="43.80952380952381" y="87.14285714285715" width="6.190476190476191" height="6.190476190476191" fill="#707070"></rect>
<rect x="50" y="87.14285714285715" width="6.190476190476191" height="6.190476190476191" fill="#c2c2c2"></rect>
<rect x="56.19047619047619" y="87.14285714285715" width="6.190476190476191" height="6.190476190476191" fill="#707070"></rect>
<rect x="62.38095238095238" y="87.14285714285715" width="6.190476190476191" height="6.190476190476191" fill="#c2c2c2"></rect>
<rect x="68.57142857142857" y="87.14285714285715" width="6.190476190476191" height="6.190476190476191" fill="#707070"></rect>
<rect x="74.76190476190477" y="87.14285714285715" width="6.190476190476191" height="6.190476190476191" fill="#c2c2c2"></rect>
<rect x="80.95238095238096" y="87.14285714285715" width="6.190476190476191" height="6.190476190476191" fill="#707070"></rect>
<rect x="87.14285714285715" y="87.14285714285715" width="6.190476190476191" height="6.190476190476191" fill="#c2c2c2"></rect>
<rect x="12.857142857142858" y="12.857142857142858" width="5.714285714285714" height="5.714285714285714" fill="#474747"></rect>
<rect x="18.571428571428573" y="12.857142857142858" width="5.714285714285714" height="5.714285714285714" fill="#999999"></rect>
<rect x="24.285714285714285" y="12.857142857142858" width="5.714285714285714" height="5.714285714285714" fill="#474747"></rect>
<rect x="30" y="12.857142857142858" width="5.714285714285714" height="5.714285714285714" fill="#999999"></rect>
<rect x="35.714285714285715" y="12.857142857142858" width="5.714285714285714" height="5.714285714285714" fill="#474747"></rect>
<rect x="41.42857142857143" y="12.857142857142858" width="5.714285714285714" height="5.714285714285714" fill="#999999"></rect>
<rect x="47.14285714285714" y="12.857142857142858" width="5.714285714285714" height="5.714285714285714" fill="#474747"></rect>
<rect x="52.85714285714286" y="12.857142857142858" width="5.714285714285714" height="5.714285714285714" fill="#999999"></rect>
<rect x="58.57142857142857" y="12.857142857142858" width="5.714285714285714" height="5.714285714285714" fill="#474747"></rect>
<rect x="64.28571428571429" y="12.857142857142858" width="5.714285714285714" height="5.714285714285714" fill="#999999"></rect>
<rect x="70" y="12.857142857142858" width="5.714285714285714" height="5.714285714285714" fill="#474747"></rect>
<rect x="75.71428571428572" y="12.857142857142858" width="5.714285714285714" height="5.714285714285714" fill="#999999"></rect>
<rect x="81.42857142857143" y="12.857142857142858" width="5.714285714285714" height="5.714285714285714" fill="#474747"></rect>
<rect x="12.857142857142858" y="18.571428571428573" width="5.714285714285714" height="5.714285714285714" fill="#999999"></rect>
<rect x="81.42857142857143" y="18.571428571428573" width="5.714285714285714" height="5.714285714285714" fill="#999999"></rect>
<rect x="12.857142857142858" y="24.285714285714285" width="5.714285714285714" height="5.714285714285714" fill="#474747"></rect>
<rect x="81.42857142857143" y="24.285714285714285" width="5.714285714285714" height="5.714285714285714" fill="#474747"></rect>
<rect x="12.857142857142858" y="30" width="5.714285714285714" height="5.714285714285714" fill="#999999"></rect>
<rect x="81.42857142857143" y="30" width="5.714285714285714" height="5.714285714285714" fill="#999999"></rect>
<rect x="12.857142857142858" y="35.714285714285715" width="5.714285714285714" height="5.714285714285714" fill="#474747"></rect>
<rect x="81.42857142857143" y="35.714285714285715" width="5.714285714285714" height="5.714285714285714" fill="#474747"></rect>
<rect x="12.857142857142858" y="41.42857142857143" width="5.714285714285714" height="5.714285714285714" fill="#999999"></rect>
<rect x="81.42857142857143" y="41.42857142857143" width="5.714285714285714" height="5.714285714285714" fill="#999999"></rect>
<rect x="12.857142857142858" y="47.14285714285714" width="5.714285714285714" height="5.714285714285714" fill="#474747"></rect>
<rect x="81.42857142857143" y="47.14285714285714" width="5.714285714285714" height="5.714285714285714" fill="#474747"></rect>
<rect x="12.857142857142858" y="52.85714285714286" width="5.714285714285714" height="5.714285714285714" fill="#999999"></rect>
<rect x="81.42857142857143" y="52.85714285714286" width="5.714285714285714" height="5.714285714285714" fill="#999999"></rect>
<rect x="12.857142857142858" y="58.57142857142857" width="5.714285714285714" height="5.714285714285714" fill="#474747"></rect>
<rect x="81.42857142857143" y="58.57142857142857" width="5.714285714285714" height="5.714285714285714" fill="#474747"></rect>
<rect x="12.857142857142858" y="64.28571428571429" width="5.714285714285714" height="5.714285714285714" fill="#999999"></rect>
<rect x="81.42857142857143" y="64.28571428571429" width="5.714285714285714" height="5.714285714285714" fill="#999999"></rect>
<rect x="12.857142857142858" y="70" width="5.714285714285714" height="5.714285714285714" fill="#474747"></rect>
<rect x="81.42857142857143" y="70" width="5.714285714285714" height="5.714285714285714" fill="#474747"></rect>
<rect x="12.857142857142858" y="75.71428571428572" width="5.714285714285714" height="5.714285714285714" fill="#999999"></rect>
<rect x="81.42857142857143" y="75.71428571428572" width="5.714285714285714" height="5.714285714285714" fill="#999999"></rect>
<rect x="12.857142857142858" y="81.42857142857143" width="5.714285714285714" height="5.714285714285714" fill="#474747"></rect>
<rect x="18.571428571428573" y="81.42857142857143" width="5.714285714285714" height="5.714285714285714" fill="#999999"></rect>
<rect x="24.285714285714285" y="81.42857142857143" width="5.714285714285714" height="5.714285714285714" fill="#474747"></rect>
<rect x="30" y="81.42857142857143" width="5.714285714285714" height="5.714285714285714" fill="#999999"></rect>
<rect x="35.714285714285715" y="81.42857142857143" width="5.714285714285714" height="5.714285714285714" fill="#474747"></rect>
<rect x="41.42857142857143" y="81.42857142857143" width="5.714285714285714" height="5.714285714285714" fill="#999999"></rect>
<rect x="47.14285714285714" y="81.42857142857143" width="5.714285714285714" height="5.714285714285714" fill="#474747"></rect>
<rect x="52.85714285714286" y="81.42857142857143" width="5.714285714285714" height="5.714285714285714" fill="#999999"></rect>
<rect x="58.57142857142857" y="81.42857142857143" width="5.714285714285714" height="5.714285714285714" fill="#474747"></rect>
<rect x="64.28571428571429" y="81.42857142857143" width="5.714285714285714" height="5.714285714285714" fill="#999999"></rect>
<rect x="70" y="81.42857142857143" width="5.714285714285714" height="5.714285714285714" fill="#474747"></rect>
<rect x="75.71428571428572" y="81.42857142857143" width="5.714285714285714" height="5.714285714285714" fill="#999999"></rect>
<rect x="81.42857142857143" y="81.42857142857143" width="5.714285714285714" height="5.714285714285714" fill="#474747"></rect>
<rect x="18.571428571428573" y="18.571428571428573" width="5.238095238095238" height="5.238095238095238" fill="#c2c2c2"></rect>
<rect x="23.80952380952381" y="18.571428571428573" width="5.238095238095238" height="5.238095238095238" fill="#707070"></rect>
<rect x="29.04761904761905" y="18.571428571428573" width="5.238095238095238" height="5.238095238095238" fill="#c2c2c2"></rect>
<rect x="34.28571428571429" y="18.571428571428573" width="5.238095238095238" height="5.238095238095238" fill="#707070"></rect>
<rect x="39.523809523809526" y="18.571428571428573" width="5.238095238095238" height="5.238095238095238" fill="#c2c2c2"></rect>
<rect x="44.76190476190476" y="18.571428571428573" width="5.238095238095238" height="5.238095238095238" fill="#707070"></rect>
<rect x="50" y="18.571428571428573" width="5.238095238095238" height="5.238095238095238" fill="#c2c2c2"></rect>
<rect x="55.23809523809524" y="18.571428571428573" width="5.238095238095238" height="5.238095238095238" fill="#707070"></rect>
<rect x="60.47619047619048" y="18.571428571428573" width="5.238095238095238" height="5.238095238095238" fill="#c2c2c2"></rect>
<rect x="65.71428571428572" y="18.571428571428573" width="5.238095238095238" height="5.238095238095238" fill="#707070"></rect>
<rect x="70.95238095238095" y="18.571428571428573" width="5.238095238095238" height="5.238095238095238" fill="#c2c2c2"></rect>
<rect x="76.19047619047619" y="18.571428571428573" width="5.238095238095238" height="5.238095238095238" fill="#707070"></rect>
<rect x="18.571428571428573" y="23.80952380952381" width="5.238095238095238" height="5.238095238095238" fill="#707070"></rect>
<rect x="76.19047619047619" y="23.80952380952381" width="5.238095238095238" height="5.238095238095238" fill="#c2c2c2"></rect>
<rect x="18.571428571428573" y="29.04761904761905" width="5.238095238095238" height="5.238095238095238" fill="#c2c2c2"></rect>
<rect x="76.19047619047619" y="29.04761904761905" width="5.238095238095238" height="5.238095238095238" fill="#707070"></rect>
<rect x="18.571428571428573" y="34.28571428571429" width="5.238095238095238" height="5.238095238095238" fill="#707070"></rect>
<rect x="76.19047619047619" y="34.28571428571429" width="5.238095238095238" height="5.238095238095238" fill="#c2c2c2"></rect>
<rect x="18.571428571428573" y="39.523809523809526" width="5.238095238095238" height="5.238095238095238" fill="#c2c2c2"></rect>
<rect x="76.19047619047619" y="39.523809523809526" width="5.238095238095238" height="5.238095238095238" fill="#707070"></rect>
<rect x="18.571428571428573" y="44.76190476190476" width="5.238095238095238" height="5.238095238095238" fill="#707070"></rect>
<rect x="76.19047619047619" y="44.76190476190476" width="5.238095238095238" height="5.238095238095238" fill="#c2c2c2"></rect>
<rect x="18.571428571428573" y="50" width="5.238095238095238" height="5.238095238095238" fill="#c2c2c2"></rect>
<rect x="76.19047619047619" y="50" width="5.238095238095238" height="5.238095238095238" fill="#707070"></rect>
<rect x="18.571428571428573" y="55.23809523809524" width="5.238095238095238" height="5.238095238095238" fill="#707070"></rect>
<rect x="76.19047619047619" y="55.23809523809524" width="5.238095238095238" height="5.238095238095238" fill="#c2c2c2"></rect>
<rect x="18.571428571428573" y="60.47619047619048" width="5.238095238095238" height="5.238095238095238" fill="#c2c2c2"></rect>
<rect x="76.19047619047619" y="60.47619047619048" width="5.238095238095238" height="5.238095238095238" fill="#707070"></rect>
<rect x="18.571428571428573" y="65.71428571428572" width="5.238095238095238" height="5.238095238095238" fill="#707070"></rect>
<rect x="76.19047619047619" y="65.71428571428572" width="5.238095238095238" height="5.238095238095238" fill="#c2c2c2"></rect>
<rect x="18.571428571428573" y="70.95238095238095" width="5.238095238095238" height="5.238095238095238" fill="#c2c2c2"></rect>
<rect x="76.19047619047619" y="70.95238095238095" width="5.238095238095238" height="5.238095238095238" fill="#707070"></rect>
<rect x="18.571428571428573" y="76.19047619047619" width="5.238095238095238" height="5.238095238095238" fill="#707070"></rect>
<rect x="23.80952380952381" y="76.19047619047619" width="5.238095238095238" height="5.238095238095238" fill="#c2c2c2"></rect>
<rect x="29.04761904761905" y="76.19047619047619" width="5.238095238095238" height="5.238095238095238" fill="#707070"></rect>
<rect x="34.28571428571429" y="76.19047619047619" width="5.238095238095238" height="5.238095238095238" fill="#c2c2c2"></rect>
<rect x="39.523809523809526" y="76.19047619047619" width="5.238095238095238" height="5.238095238095238" fill="#707070"></rect>
<rect x="44.76190476190476" y="76.19047619047619" width="5.238095238095238" height="5.238095238095238" fill="#c2c2c2"></rect>
<rect x="50" y="76.19047619047619" width="5.238095238095238" height="5.238095238095238" fill="#707070"></rect>
<rect x="55.23809523809524" y="76.19047619047619" width="5.238095238095238" height="5.238095238095238" fill="#c2c2c2"></rect>
<rect x="60.47619047619048" y="76.19047619047619" width="5.238095238095238" height="5.238095238095238" fill="#707070"></rect>
<rect x="65.71428571428572" y="76.19047619047619" width="5.238095238095238" height="5.238095238095238" fill="#c2c2c2"></rect>
<rect x="70.95238095238095" y="76.19047619047619" width="5.238095238095238" height="5.238095238095238" fill="#707070"></rect>
<rect x="76.19047619047619" y="76.19047619047619" width="5.238095238095238" height="5.238095238095238" fill="#c2c2c2"></rect>
<rect x="23.80952380952381" y="23.80952380952381" width="4.761904761904763" height="4.761904761904763" fill="#474747"></rect>
<rect x="28.571428571428573" y="23.80952380952381" width="4.761904761904763" height="4.761904761904763" fill="#999999"></rect>
<rect x="33.333333333333336" y="23.80952380952381" width="4.761904761904763" height="4.761904761904763" fill="#474747"></rect>
<rect x="38.0952380952381" y="23.80952380952381" width="4.761904761904763" height="4.761904761904763" fill="#999999"></rect>
<rect x="42.85714285714286" y="23.80952380952381" width="4.761904761904763" height="4.761904761904763" fill="#474747"></rect>
<rect x="47.61904761904762" y="23.80952380952381" width="4.761904761904763" height="4.761904761904763" fill="#999999"></rect>
<rect x="52.38095238095239" y="23.80952380952381" width="4.761904761904763" height="4.761904761904763" fill="#474747"></rect>
<rect x="57.14285714285715" y="23.80952380952381" width="4.761904761904763" height="4.761904761904763" fill="#999999"></rect>
<rect x="61.90476190476191" y="23.80952380952381" width="4.761904761904763" height="4.761904761904763" fill="#474747"></rect>
<rect x="66.66666666666667" y="23.80952380952381" width="4.761904761904763" height="4.761904761904763" fill="#999999"></rect>
<rect x="71.42857142857144" y="23.80952380952381" width="4.761904761904763" height="4.761904761904763" fill="#474747"></rect>
<rect x="23.80952380952381" y="28.571428571428573" width="4.761904761904763" height="4.761904761904763" fill="#999999"></rect>
<rect x="71.42857142857144" y="28.571428571428573" width="4.761904761904763" height="4.761904761904763" fill="#999999"></rect>
<rect x="23.80952380952381" y="33.333333333333336" width="4.761904761904763" height="4.761904761904763" fill="#474747"></rect>
<rect x="71.42857142857144" y="33.333333333333336" width="4.761904761904763" height="4.761904761904763" fill="#474747"></rect>
<rect x="23.80952380952381" y="38.0952380952381" width="4.761904761904763" height="4.761904761904763" fill="#999999"></rect>
<rect x="71.42857142857144" y="38.0952380952381" width="4.761904761904763" height="4.761904761904763" fill="#999999"></rect>
<rect x="23.80952380952381" y="42.85714285714286" width="4.761904761904763" height="4.761904761904763" fill="#474747"></rect>
<rect x="71.42857142857144" y="42.85714285714286" width="4.761904761904763" height="4.761904761904763" fill="#474747"></rect>
<rect x="23.80952380952381" y="47.61904761904762" width="4.761904761904763" height="4.761904761904763" fill="#999999"></rect>
<rect x="71.42857142857144" y="47.61904761904762" width="4.761904761904763" height="4.761904761904763" fill="#999999"></rect>
<rect x="23.80952380952381" y="52.38095238095239" width="4.761904761904763" height="4.761904761904763" fill="#474747"></rect>
<rect x="71.42857142857144" y="52.38095238095239" width="4.761904761904763" height="4.761904761904763" fill="#474747"></rect>
<rect x="23.80952380952381" y="57.14285714285715" width="4.761904761904763" height="4.761904761904763" fill="#999999"></rect>
<rect x="71.42857142857144" y="57.14285714285715" width="4.761904761904763" height="4.761904761904763" fill="#999999"></rect>
<rect x="23.80952380952381" y="61.90476190476191" width="4.761904761904763" height="4.761904761904763" fill="#474747"></rect>
<rect x="71.42857142857144" y="61.90476190476191" width="4.761904761904763" height="4.761904761904763" fill="#474747"></rect>
<rect x="23.80952380952381" y="66.66666666666667" width="4.761904761904763" height="4.761904761904763" fill="#999999"></rect>
<rect x="71.42857142857144" y="66.66666666666667" width="4.761904761904763" height="4.761904761904763" fill="#999999"></rect>
<rect x="23.80952380952381" y="71.42857142857144" width="4.761904761904763" height="4.761904761904763" fill="#474747"></rect>
<rect x="28.571428571428573" y="71.42857142857144" width="4.761904761904763" height="4.761904761904763" fill="#999999"></rect>
<rect x="33.333333333333336" y="71.42857142857144" width="4.761904761904763" height="4.761904761904763" fill="#474747"></rect>
<rect x="38.0952380952381" y="71.42857142857144" width="4.761904761904763" height="4.761904761904763" fill="#999999"></rect>
<rect x="42.85714285714286" y="71.42857142857144" width="4.761904761904763" height="4.761904761904763" fill="#474747"></rect>
<rect x="47.61904761904762" y="71.42857142857144" width="4.761904761904763" height="4.761904761904763" fill="#999999"></rect>
<rect x="52.38095238095239" y="71.42857142857144" width="4.761904761904763" height="4.761904761904763" fill="#474747"></rect>
<rect x="57.14285714285715" y="71.42857142857144" width="4.761904761904763" height="4.761904761904763" fill="#999999"></rect>
<rect x="61.90476190476191" y="71.42857142857144" width="4.761904761904763" height="4.761904761904763" fill="#474747"></rect>
<rect x="66.66666666666667" y="71.42857142857144" width="4.761904761904763" height="4.761904761904763" fill="#999999"></rect>
<rect x="71.42857142857144" y="71.42857142857144" width="4.761904761904763" height="4.761904761904763" fill="#474747"></rect>
<rect x="28.571428571428573" y="28.571428571428573" width="4.2857142857142865" height="4.2857142857142865" fill="#c2c2c2"></rect>
<rect x="32.85714285714286" y="28.571428571428573" width="4.2857142857142865" height="4.2857142857142865" fill="#707070"></rect>
<rect x="37.142857142857146" y="28.571428571428573" width="4.2857142857142865" height="4.2857142857142865" fill="#c2c2c2"></rect>
<rect x="41.42857142857143" y="28.571428571428573" width="4.2857142857142865" height="4.2857142857142865" fill="#707070"></rect>
<rect x="45.71428571428572" y="28.571428571428573" width="4.2857142857142865" height="4.2857142857142865" fill="#c2c2c2"></rect>
<rect x="50" y="28.571428571428573" width="4.2857142857142865" height="4.2857142857142865" fill="#707070"></rect>
<rect x="54.28571428571429" y="28.571428571428573" width="4.2857142857142865" height="4.2857142857142865" fill="#c2c2c2"></rect>
<rect x="58.571428571428584" y="28.571428571428573" width="4.2857142857142865" height="4.2857142857142865" fill="#707070"></rect>
<rect x="62.85714285714286" y="28.571428571428573" width="4.2857142857142865" height="4.2857142857142865" fill="#c2c2c2"></rect>
<rect x="67.14285714285715" y="28.571428571428573" width="4.2857142857142865" height="4.2857142857142865" fill="#707070"></rect>
<rect x="28.571428571428573" y="32.85714285714286" width="4.2857142857142865" height="4.2857142857142865" fill="#707070"></rect>
<rect x="67.14285714285715" y="32.85714285714286" width="4.2857142857142865" height="4.2857142857142865" fill="#c2c2c2"></rect>
<rect x="28.571428571428573" y="37.142857142857146" width="4.2857142857142865" height="4.2857142857142865" fill="#c2c2c2"></rect>
<rect x="67.14285714285715" y="37.142857142857146" width="4.2857142857142865" height="4.2857142857142865" fill="#707070"></rect>
<rect x="28.571428571428573" y="41.42857142857143" width="4.2857142857142865" height="4.2857142857142865" fill="#707070"></rect>
<rect x="67.14285714285715" y="41.42857142857143" width="4.2857142857142865" height="4.2857142857142865" fill="#c2c2c2"></rect>
<rect x="28.571428571428573" y="45.71428571428572" width="4.2857142857142865" height="4.2857142857142865" fill="#c2c2c2"></rect>
<rect x="67.14285714285715" y="45.71428571428572" width="4.2857142857142865" height="4.2857142857142865" fill="#707070"></rect>
<rect x="28.571428571428573" y="50" width="4.2857142857142865" height="4.2857142857142865" fill="#707070"></rect>
<rect x="67.14285714285715" y="50" width="4.2857142857142865" height="4.2857142857142865" fill="#c2c2c2"></rect>
<rect x="28.571428571428573" y="54.28571428571429" width="4.2857142857142865" height="4.2857142857142865" fill="#c2c2c2"></rect>
<rect x="67.14285714285715" y="54.28571428571429" width="4.2857142857142865" height="4.2857142857142865" fill="#707070"></rect>
<rect x="28.571428571428573" y="58.571428571428584" width="4.2857142857142865" height="4.2857142857142865" fill="#707070"></rect>
<rect x="67.14285714285715" y="58.571428571428584" width="4.2857142857142865" height="4.2857142857142865" fill="#c2c2c2"></rect>
<rect x="28.571428571428573" y="62.85714285714286" width="4.2857142857142865" height="4.2857142857142865" fill="#c2c2c2"></rect>
<rect x="67.14285714285715" y="62.85714285714286" width="4.2857142857142865" height="4.2857142857142865" fill="#707070"></rect>
<rect x="28.571428571428573" y="67.14285714285715" width="4.2857142857142865" height="4.2857142857142865" fill="#707070"></rect>
<rect x="32.85714285714286" y="67.14285714285715" width="4.2857142857142865" height="4.2857142857142865" fill="#c2c2c2"></rect>
<rect x="37.142857142857146" y="67.14285714285715" width="4.2857142857142865" height="4.2857142857142865" fill="#707070"></rect>
<rect x="41.42857142857143" y="67.14285714285715" width="4.2857142857142865" height="4.2857142857142865" fill="#c2c2c2"></rect>
<rect x="45.71428571428572" y="67.14285714285715" width="4.2857142857142865" height="4.2857142857142865" fill="#707070"></rect>
<rect x="50" y="67.14285714285715" width="4.2857142857142865" height="4.2857142857142865" fill="#c2c2c2"></rect>
<rect x="54.28571428571429" y="67.14285714285715" width="4.2857142857142865" height="4.2857142857142865" fill="#707070"></rect>
<rect x="58.571428571428584" y="67.14285714285715" width="4.2857142857142865" height="4.2857142857142865" fill="#c2c2c2"></rect>
<rect x="62.85714285714286" y="67.14285714285715" width="4.2857142857142865" height="4.2857142857142865" fill="#707070"></rect>
<rect x="67.14285714285715" y="67.14285714285715" width="4.2857142857142865" height="4.2857142857142865" fill="#c2c2c2"></rect>
<rect x="32.85714285714286" y="32.85714285714286" width="3.80952380952381" height="3.80952380952381" fill="#474747"></rect>
<rect x="36.66666666666667" y="32.85714285714286" width="3.80952380952381" height="3.80952380952381" fill="#999999"></rect>
<rect x="40.47619047619048" y="32.85714285714286" width="3.80952380952381" height="3.80952380952381" fill="#474747"></rect>
<rect x="44.28571428571429" y="32.85714285714286" width="3.80952380952381" height="3.80952380952381" fill="#999999"></rect>
<rect x="48.0952380952381" y="32.85714285714286" width="3.80952380952381" height="3.80952380952381" fill="#474747"></rect>
<rect x="51.90476190476191" y="32.85714285714286" width="3.80952380952381" height="3.80952380952381" fill="#999999"></rect>
<rect x="55.71428571428572" y="32.85714285714286" width="3.80952380952381" height="3.80952380952381" fill="#474747"></rect>
<rect x="59.52380952380953" y="32.85714285714286" width="3.80952380952381" height="3.80952380952381" fill="#999999"></rect>
<rect x="63.33333333333334" y="32.85714285714286" width="3.80952380952381" height="3.80952380952381" fill="#474747"></rect>
<rect x="32.85714285714286" y="36.66666666666667" width="3.80952380952381" height="3.80952380952381" fill="#999999"></rect>
<rect x="63.33333333333334" y="36.66666666666667" width="3.80952380952381" height="3.80952380952381" fill="#999999"></rect>
<rect x="32.85714285714286" y="40.47619047619048" width="3.80952380952381" height="3.80952380952381" fill="#474747"></rect>
<rect x="63.33333333333334" y="40.47619047619048" width="3.80952380952381" height="3.80952380952381" fill="#474747"></rect>
<rect x="32.85714285714286" y="44.28571428571429" width="3.80952380952381" height="3.80952380952381" fill="#999999"></rect>
<rect x="63.33333333333334" y="44.28571428571429" width="3.80952380952381" height="3.80952380952381" fill="#999999"></rect>
<rect x="32.85714285714286" y="48.0952380952381" width="3.80952380952381" height="3.80952380952381" fill="#474747"></rect>
<rect x="63.33333333333334" y="48.0952380952381" width="3.80952380952381" height="3.80952380952381" fill="#474747"></rect>
<rect x="32.85714285714286" y="51.90476190476191" width="3.80952380952381" height="3.80952380952381" fill="#999999"></rect>
<rect x="63.33333333333334" y="51.90476190476191" width="3.80952380952381" height="3.80952380952381" fill="#999999"></rect>
<rect x="32.85714285714286" y="55.71428571428572" width="3.80952380952381" height="3.80952380952381" fill="#474747"></rect>
<rect x="63.33333333333334" y="55.71428571428572" width="3.80952380952381" height="3.80952380952381" fill="#474747"></rect>
<rect x="32.85714285714286" y="59.52380952380953" width="3.80952380952381" height="3.80952380952381" fill="#999999"></rect>
<rect x="63.33333333333334" y="59.52380952380953" width="3.80952380952381" height="3.80952380952381" fill="#999999"></rect>
<rect x="32.85714285714286" y="63.33333333333334" width="3.80952380952381" height="3.80952380952381" fill="#474747"></rect>
<rect x="36.66666666666667" y="63.33333333333334" width="3.80952380952381" height="3.80952380952381" fill="#999999"></rect>
<rect x="40.47619047619048" y="63.33333333333334" width="3.80952380952381" height="3.80952380952381" fill="#474747"></rect>
<rect x="44.28571428571429" y="63.33333333333334" width="3.80952380952381" height="3.80952380952381" fill="#999999"></rect>
<rect x="48.0952380952381" y="63.33333333333334" width="3.80952380952381" height="3.80952380952381" fill="#474747"></rect>
<rect x="51.90476190476191" y="63.33333333333334" width="3.80952380952381" height="3.80952380952381" fill="#999999"></rect>
<rect x="55.71428571428572" y="63.33333333333334" width="3.80952380952381" height="3.80952380952381" fill="#474747"></rect>
<rect x="59.52380952380953" y="63.33333333333334" width="3.80952380952381" height="3.80952380952381" fill="#999999"></rect>
<rect x="63.33333333333334" y="63.33333333333334" width="3.80952380952381" height="3.80952380952381" fill="#474747"></rect>
<rect x="36.66666666666667" y="36.66666666666667" width="3.333333333333334" height="3.333333333333334" fill="#c2c2c2"></rect>
<rect x="40.00000000000001" y="36.66666666666667" width="3.333333333333334" height="3.333333333333334" fill="#707070"></rect>
<rect x="43.33333333333334" y="36.66666666666667" width="3.333333333333334" height="3.333333333333334" fill="#c2c2c2"></rect>
<rect x="46.66666666666667" y="36.66666666666667" width="3.333333333333334" height="3.333333333333334" fill="#707070"></rect>
<rect x="50.00000000000001" y="36.66666666666667" width="3.333333333333334" height="3.333333333333334" fill="#c2c2c2"></rect>
<rect x="53.33333333333334" y="36.66666666666667" width="3.333333333333334" height="3.333333333333334" fill="#707070"></rect>
<rect x="56.66666666666667" y="36.66666666666667" width="3.333333333333334" height="3.333333333333334" fill="#c2c2c2"></rect>
<rect x="60.00000000000001" y="36.66666666666667" width="3.333333333333334" height="3.333333333333334" fill="#707070"></rect>
<rect x="36.66666666666667" y="40.00000000000001" width="3.333333333333334" height="3.333333333333334" fill="#707070"></rect>
<rect x="60.00000000000001" y="40.00000000000001" width="3.333333333333334" height="3.333333333333334" fill="#c2c2c2"></rect>
<rect x="36.66666666666667" y="43.33333333333334" width="3.333333333333334" height="3.333333333333334" fill="#c2c2c2"></rect>
<rect x="60.00000000000001" y="43.33333333333334" width="3.333333333333334" height="3.333333333333334" fill="#707070"></rect>
<rect x="36.66666666666667" y="46.66666666666667" width="3.333333333333334" height="3.333333333333334" fill="#707070"></rect>
<rect x="60.00000000000001" y="46.66666666666667" width="3.333333333333334" height="3.333333333333334" fill="#c2c2c2"></rect>
<rect x="36.66666666666667" y="50.00000000000001" width="3.333333333333334" height="3.333333333333334" fill="#c2c2c2"></rect>
<rect x="60.00000000000001" y="50.00000000000001" width="3.333333333333334" height="3.333333333333334" fill="#707070"></rect>
<rect x="36.66666666666667" y="53.33333333333334" width="3.333333333333334" height="3.333333333333334" fill="#707070"></rect>
<rect x="60.00000000000001" y="53.33333333333334" width="3.333333333333334" height="3.333333333333334" fill="#c2c2c2"></rect>
<rect x="36.66666666666667" y="56.66666666666667" width="3.333333333333334" height="3.333333333333334" fill="#c2c2c2"></rect>
<rect x="60.00000000000001" y="56.66666666666667" width="3.333333333333334" height="3.333333333333334" fill="#707070"></rect>
<rect x="36.66666666666667" y="60.00000000000001" width="3.333333333333334" height="3.333333333333334" fill="#707070"></rect>
<rect x="40.00000000000001" y="60.00000000000001" width="3.333333333333334" height="3.333333333333334" fill="#c2c2c2"></rect>
<rect x="43.33333333333334" y="60.00000000000001" width="3.333333333333334" height="3.333333333333334" fill="#707070"></rect>
<rect x="46.66666666666667" y="60.00000000000001" width="3.333333333333334" height="3.333333333333334" fill="#c2c2c2"></rect>
<rect x="50.00000000000001" y="60.00000000000001" width="3.333333333333334" height="3.333333333333334" fill="#707070"></rect>
<rect x="53.33333333333334" y="60.00000000000001" width="3.333333333333334" height="3.333333333333334" fill="#c2c2c2"></rect>
<rect x="56.66666666666667" y="60.00000000000001" width="3.333333333333334" height="3.333333333333334" fill="#707070"></rect>
<rect x="60.00000000000001" y="60.00000000000001" width="3.333333333333334" height="3.333333333333334" fill="#c2c2c2"></rect>
<rect x="40.00000000000001" y="40.00000000000001" width="2.8571428571428577" height="2.8571428571428577" fill="#474747"></rect>
<rect x="42.85714285714286" y="40.00000000000001" width="2.8571428571428577" height="2.8571428571428577" fill="#999999"></rect>
<rect x="45.71428571428572" y="40.00000000000001" width="2.8571428571428577" height="2.8571428571428577" fill="#474747"></rect>
<rect x="48.571428571428584" y="40.00000000000001" width="2.8571428571428577" height="2.8571428571428577" fill="#999999"></rect>
<rect x="51.42857142857144" y="40.00000000000001" width="2.8571428571428577" height="2.8571428571428577" fill="#474747"></rect>
<rect x="54.28571428571429" y="40.00000000000001" width="2.8571428571428577" height="2.8571428571428577" fill="#999999"></rect>
<rect x="57.14285714285715" y="40.00000000000001" width="2.8571428571428577" height="2.8571428571428577" fill="#474747"></rect>
<rect x="40.00000000000001" y="42.85714285714286" width="2.8571428571428577" height="2.8571428571428577" fill="#999999"></rect>
<rect x="57.14285714285715" y="42.85714285714286" width="2.8571428571428577" height="2.8571428571428577" fill="#999999"></rect>
<rect x="40.00000000000001" y="45.71428571428572" width="2.8571428571428577" height="2.8571428571428577" fill="#474747"></rect>
<rect x="57.14285714285715" y="45.71428571428572" width="2.8571428571428577" height="2.8571428571428577" fill="#474747"></rect>
<rect x="40.00000000000001" y="48.571428571428584" width="2.8571428571428577" height="2.8571428571428577" fill="#999999"></rect>
<rect x="57.14285714285715" y="48.571428571428584" width="2.8571428571428577" height="2.8571428571428577" fill="#999999"></rect>
<rect x="40.00000000000001" y="51.42857142857144" width="2.8571428571428577" height="2.8571428571428577" fill="#474747"></rect>
<rect x="57.14285714285715" y="51.42857142857144" width="2.8571428571428577" height="2.8571428571428577" fill="#474747"></rect>
<rect x="40.00000000000001" y="54.28571428571429" width="2.8571428571428577" height="2.8571428571428577" fill="#999999"></rect>
<rect x="57.14285714285715" y="54.28571428571429" width="2.8571428571428577" height="2.8571428571428577" fill="#999999"></rect>
<rect x="40.00000000000001" y="57.14285714285715" width="2.8571428571428577" height="2.8571428571428577" fill="#474747"></rect>
<rect x="42.85714285714286" y="57.14285714285715" width="2.8571428571428577" height="2.8571428571428577" fill="#999999"></rect>
<rect x="45.71428571428572" y="57.14285714285715" width="2.8571428571428577" height="2.8571428571428577" fill="#474747"></rect>
<rect x="48.571428571428584" y="57.14285714285715" width="2.8571428571428577" height="2.8571428571428577" fill="#999999"></rect>
<rect x="51.42857142857144" y="57.14285714285715" width="2.8571428571428577" height="2.8571428571428577" fill="#474747"></rect>
<rect x="54.28571428571429" y="57.14285714285715" width="2.8571428571428577" height="2.8571428571428577" fill="#999999"></rect>
<rect x="57.14285714285715" y="57.14285714285715" width="2.8571428571428577" height="2.8571428571428577" fill="#474747"></rect>
<rect x="42.85714285714286" y="42.85714285714286" width="2.3809523809523814" height="2.3809523809523814" fill="#c2c2c2"></rect>
<rect x="45.23809523809524" y="42.85714285714286" width="2.3809523809523814" height="2.3809523809523814" fill="#707070"></rect>
<rect x="47.61904761904762" y="42.85714285714286" width="2.3809523809523814" height="2.3809523809523814" fill="#c2c2c2"></rect>
<rect x="50.00000000000001" y="42.85714285714286" width="2.3809523809523814" height="2.3809523809523814" fill="#707070"></rect>
<rect x="52.38095238095239" y="42.85714285714286" width="2.3809523809523814" height="2.3809523809523814" fill="#c2c2c2"></rect>
<rect x="54.761904761904766" y="42.85714285714286" width="2.3809523809523814" height="2.3809523809523814" fill="#707070"></rect>
<rect x="42.85714285714286" y="45.23809523809524" width="2.3809523809523814" height="2.3809523809523814" fill="#707070"></rect>
<rect x="54.761904761904766" y="45.23809523809524" width="2.3809523809523814" height="2.3809523809523814" fill="#c2c2c2"></rect>
<rect x="42.85714285714286" y="47.61904761904762" width="2.3809523809523814" height="2.3809523809523814" fill="#c2c2c2"></rect>
<rect x="54.761904761904766" y="47.61904761904762" width="2.3809523809523814" height="2.3809523809523814" fill="#707070"></rect>
<rect x="42.85714285714286" y="50.00000000000001" width="2.3809523809523814" height="2.3809523809523814" fill="#707070"></rect>
<rect x="54.761904761904766" y="50.00000000000001" width="2.3809523809523814" height="2.3809523809523814" fill="#c2c2c2"></rect>
<rect x="42.85714285714286" y="52.38095238095239" width="2.3809523809523814" height="2.3809523809523814" fill="#c2c2c2"></rect>
<rect x="54.761904761904766" y="52.38095238095239" width="2.3809523809523814" height="2.3809523809523814" fill="#707070"></rect>
<rect x="42.85714285714286" y="54.761904761904766" width="2.3809523809523814" height="2.3809523809523814" fill="#707070"></rect>
<rect x="45.23809523809524" y="54.761904761904766" width="2.3809523809523814" height="2.3809523809523814" fill="#c2c2c2"></rect>
<rect x="47.61904761904762" y="54.761904761904766" width="2.3809523809523814" height="2.3809523809523814" fill="#707070"></rect>
<rect x="50.00000000000001" y="54.761904761904766" width="2.3809523809523814" height="2.3809523809523814" fill="#c2c2c2"></rect>
<rect x="52.38095238095239" y="54.761904761904766" width="2.3809523809523814" height="2.3809523809523814" fill="#707070"></rect>
<rect x="54.761904761904766" y="54.761904761904766" width="2.3809523809523814" height="2.3809523809523814" fill="#c2c2c2"></rect>
<rect x="45.23809523809524" y="45.23809523809524" width="1.904761904761905" height="1.904761904761905" fill="#474747"></rect>
<rect x="47.142857142857146" y="45.23809523809524" width="1.904761904761905" height="1.904761904761905" fill="#999999"></rect>
<rect x="49.04761904761905" y="45.23809523809524" width="1.904761904761905" height="1.904761904761905" fill="#474747"></rect>
<rect x="50.952380952380956" y="45.23809523809524" width="1.904761904761905" height="1.904761904761905" fill="#999999"></rect>
<rect x="52.85714285714286" y="45.23809523809524" width="1.904761904761905" height="1.904761904761905" fill="#474747"></rect>
<rect x="45.23809523809524" y="47.142857142857146" width="1.904761904761905" height="1.904761904761905" fill="#999999"></rect>
<rect x="52.85714285714286" y="47.142857142857146" width="1.904761904761905" height="1.904761904761905" fill="#999999"></rect>
<rect x="45.23809523809524" y="49.04761904761905" width="1.904761904761905" height="1.904761904761905" fill="#474747"></rect>
<rect x="52.85714285714286" y="49.04761904761905" width="1.904761904761905" height="1.904761904761905" fill="#474747"></rect>
<rect x="45.23809523809524" y="50.952380952380956" width="1.904761904761905" height="1.904761904761905" fill="#999999"></rect>
<rect x="52.85714285714286" y="50.952380952380956" width="1.904761904761905" height="1.904761904761905" fill="#999999"></rect>
<rect x="45.23809523809524" y="52.85714285714286" width="1.904761904761905" height="1.904761904761905" fill="#474747"></rect>
<rect x="47.142857142857146" y="52.85714285714286" width="1.904761904761905" height="1.904761904761905" fill="#999999"></rect>
<rect x="49.04761904761905" y="52.85714285714286" width="1.904761904761905" height="1.904761904761905" fill="#474747"></rect>
<rect x="50.952380952380956" y="52.85714285714286" width="1.904761904761905" height="1.904761904761905" fill="#999999"></rect>
<rect x="52.85714285714286" y="52.85714285714286" width="1.904761904761905" height="1.904761904761905" fill="#474747"></rect>
<rect x="47.142857142857146" y="47.142857142857146" width="1.4285714285714288" height="1.4285714285714288" fill="#c2c2c2"></rect>
<rect x="48.57142857142858" y="47.142857142857146" width="1.4285714285714288" height="1.4285714285714288" fill="#707070"></rect>
<rect x="50" y="47.142857142857146" width="1.4285714285714288" height="1.4285714285714288" fill="#c2c2c2"></rect>
<rect x="51.42857142857143" y="47.142857142857146" width="1.4285714285714288" height="1.4285714285714288" fill="#707070"></rect>
<rect x="47.142857142857146" y="48.57142857142858" width="1.4285714285714288" height="1.4285714285714288" fill="#707070"></rect>
<rect x="51.42857142857143" y="48.57142857142858" width="1.4285714285714288" height="1.4285714285714288" fill="#c2c2c2"></rect>
<rect x="47.142857142857146" y="50" width="1.4285714285714288" height="1.4285714285714288" fill="#c2c2c2"></rect>
<rect x="51.42857142857143" y="50" width="1.4285714285714288" height="1.4285714285714288" fill="#707070"></rect>
<rect x="47.142857142857146" y="51.42857142857143" width="1.4285714285714288" height="1.4285714285714288" fill="#707070"></rect>
<rect x="48.57142857142858" y="51.42857142857143" width="1.4285714285714288" height="1.4285714285714288" fill="#c2c2c2"></rect>
<rect x="50" y="51.42857142857143" width="1.4285714285714288" height="1.4285714285714288" fill="#707070"></rect>
<rect x="51.42857142857143" y="51.42857142857143" width="1.4285714285714288" height="1.4285714285714288" fill="#c2c2c2"></rect>
<rect x="48.57142857142858" y="48.57142857142858" width="0.9523809523809526" height="0.9523809523809526" fill="#474747"></rect>
<rect x="49.52380952380953" y="48.57142857142858" width="0.9523809523809526" height="0.9523809523809526" fill="#999999"></rect>
<rect x="50.47619047619048" y="48.57142857142858" width="0.9523809523809526" height="0.9523809523809526" fill="#474747"></rect>
<rect x="48.57142857142858" y="49.52380952380953" width="0.9523809523809526" height="0.9523809523809526" fill="#999999"></rect>
<rect x="50.47619047619048" y="49.52380952380953" width="0.9523809523809526" height="0.9523809523809526" fill="#999999"></rect>
<rect x="48.57142857142858" y="50.47619047619048" width="0.9523809523809526" height="0.9523809523809526" fill="#474747"></rect>
<rect x="49.52380952380953" y="50.47619047619048" width="0.9523809523809526" height="0.9523809523809526" fill="#999999"></rect>
<rect x="50.47619047619048" y="50.47619047619048" width="0.9523809523809526" height="0.9523809523809526" fill="#474747"></rect>
<rect x="49.52380952380953" y="49.52380952380953" width="0.4761904761904763" height="0.4761904761904763" fill="#c2c2c2"></rect>
<rect x="50.00000000000001" y="49.52380952380953" width="0.4761904761904763" height="0.4761904761904763" fill="#707070"></rect>
<rect x="49.52380952380953" y="50.00000000000001" width="0.4761904761904763" height="0.4761904761904763" fill="#707070"></rect>
<rect x="50.00000000000001" y="50.00000000000001" width="0.4761904761904763" height="0.4761904761904763" fill="#c2c2c2"></rect></svg>