<svg xmlns="http://www.w3.org/2000/svg" viewBox="0 0 100 100" id="svg" stroke-linecap="round" style="--frame-c: #f6c6a4; --frame-bdw: 1em; background-color: rgb(0, 0, 0); --frame-asr: 100 / 100.;"><defs><path id="line0" d="M0,0 L0.24811760317160161,1 L0.4863435404851256,2 L0.7051804955852994,3 L0.8959041296522244,4 L1.050910893258884,5 L1.1640211558924092,6 L1.230725568321676,7 L1.2483648361210749,8 L1.216235737347373,9 L1.135619157779443,10 L1.0097290260443303,11 L0.8435841844250304,12 L0.643808303456539,13 L0.4183658170838207,14 L0.17624440581365158,15 L-0.07290331374492418,16 L-0.3191446082442,17 L-0.5526626143318288,18 L-0.7641477060137793,19 L-0.9451686400644906,20 L-1.0885086830879522,21 L-1.188453319904481,22 L-1.241018073237742,23 L-1.2441073522500092,24 L-1.1975979971358477,25 L-1.1033441891149012,26 L-0.9651035300778742,27 L-0.7883872388569465,28 L-0.5802404363225921,29 L-0.348961278646638,30 L-0.10377013600203573,31 L0.1455579944993672,32 L0.389083187094894,33 L0.6170968608439453,34 L0.8205088301129019,35 L0.9912097015906005,36 L1.1223941702089744,37 L1.2088323251807387,38 L1.2470781500385404,39 L1.2356069044369793,40 L1.1748759107385798,41 L1.067306322014365,42 L0.9171865983113027,43 L0.7305015392832495,44 L0.5146936891148862,45 L0.27836662577136934,46 L0.030941963495035016,47 L-0.21771625722283636,48 L-0.45769481780861027,49 L-0.6794265303478743,50 L-0.8740716511765709,51 L-1.0338702935654547,52 L-1.1524517899162603,53 L-1.2250886701750299,54 L-1.2488851311447784,55 L-1.2228924830207164,56 L-1.1481469706590064,57 L-1.0276284617644045,58 L-0.8661416489683929,59 L-0.6701245018960413,60 L-0.44739160563324504,61 L-0.20682261787970638,62 L0.041991734982186016,63 L0.289132009882919,64 L0.524745503958439,65 L0.739439050721333,66 L0.9246534959668254,67 L1.0730049242409623,68 L1.1785790322484544,69 L1.2371669134614087,70 L1.246432853940614,71 L1.206007449879531,72 L1.117502334568335,73 L0.9844459276604423,74 L0.8121427682154976,75 L0.607462039466507,76 L0.3785637161613058,77 L0.13457325211963914,78 L-0.11478222281358096,79 L-0.3595616927394736,80 L-0.5900065726383789,81 L-0.7969297523596018,82 L-0.9720818577115037,83 L-1.108480126978139,84 L-1.2006867915934758,85 L-1.2450258628142572,86 L-1.2397296817909407,87 L-1.1850093905478598,88 L-1.0830465144170125,89 L-0.9379059915072734,90 L-0.7553741164496479,91 L-0.5427278590900387,92 L-0.3084447546653115,93 L-0.061864931225787734,94 L0.18718125179562842,95 L0.4287651089925545,96 L0.653255454340487,97 L0.8517025661906591,98 L1.0161949844296787,99" stroke-width="0.2911008631023742" fill="none"></path><path id="line1" d="M0,0 L0.20306894073729911,1 L0.3980421636285013,2 L0.5771467015505186,3 L0.7332422217734529,4 L0.8601056884939149,5 L0.9526794556345796,6 L1.0072728992329638,7 L1.0217095509723735,8 L0.995413867105448,9 L0.9294341735671322,10 L0.8264008725278356,11 L0.6904215765596117,12 L0.5269173510852316,13 L0.342406593606938,14 L0.14424516576802573,15 L-0.05966686163811521,16 L-0.26120015956041465,17 L-0.452320231385808,18 L-0.6254077229648807,19 L-0.7735621822175394,20 L-0.8908771583818134,21 L-0.9726756735668477,22 L-1.015696679102357,23 L-1.0182250632582734,24 L-0.980160027337079,25 L-0.9030191041997842,26 L-0.789877659019613,27 L-0.6452462841774222,28 L-0.4748909761774741,29 L-0.28560326356246585,30 L-0.08492945010243724,31 L0.11913023252279754,32 L0.3184405687145364,33 L0.5050556843289513,34 L0.6715358236045463,35 L0.8112439487468642,36 L0.9186103376809633,37 L0.9893546312942739,38 L1.0206564778469613,39 L1.0112679714956592,40 L0.9615634023614483,41 L0.8735243347638724,42 L0.750660608504703,43 L0.597870412630983,44 L0.4212450100948555,45 L0.22782589832174394,46 L0.025324086928742752,47 L-0.17818731589533165,48 L-0.3745949527372489,49 L-0.5560686709162628,50 L-0.7153736859620112,51 L-0.8461590096406626,52 L-0.9432106438141065,53 L-1.0026594460919878,54 L-1.0221353803290327,55 L-1.000862002487074,56 L-0.9396874150086456,57 L-0.841050455648937,58 L-0.7088834687106965,59 L-0.5484555348861058,60 L-0.36616240963712865,61 L-0.16927154460822305,62 L0.034367642736965985,63 L0.23663670061959854,64 L0.42947179999881885,65 L0.6051852139887242,66 L0.7567718032692765,67 L0.8781882888850073,68 L0.9645941787062919,69 L1.0125447425755105,70 L1.020128342827951,71 L0.9870426452529835,72 L0.9146066722049648,73 L0.8057082173443896,74 L0.6646887184176016,75 L0.4971701778340481,76 L0.30983103117147404,77 L0.11013989902444941,78 L-0.09394216333012818,79 L-0.2942790480843729,80 L-0.48288395584273097,81 L-0.6522378041100831,82 L-0.7955889893829766,83 L-0.9072225522754088,84 L-0.9826880149149373,85 L-1.0189768074511627,86 L-1.0146422102415722,87 L-0.9698570299982998,88 L-0.8864067105298363,89 L-0.767618152730678,90 L-0.6182270815413062,91 L-0.4441892475392514,92 L-0.25244298995803727,93 L-0.05063262699711771,94 L0.15319629902168286,95 L0.3509177720373696,96 L0.5346492608669893,97 L0.6970659708491496,98 L0.8316928602924282,99" stroke-width="0.36277853693689077" fill="none"></path><path id="line2" d="M0,0 L0.20454898660063794,1 L0.4009432505971625,2 L0.5813531724419709,3 L0.7385863778675407,4 L0.8663744751516266,5 L0.9596229561141725,6 L1.0146142980817994,7 L1.0291561697854725,8 L1.0026688326898967,9 L0.9362082533394464,10 L0.8324240053043379,11 L0.6954536390435977,12 L0.5307577308250563,13 L0.3449021867813934,14 L0.14529648095254613,15 L-0.06010173706231977,16 L-0.2631038884825099,17 L-0.455616918141234,18 L-0.6299659390559952,19 L-0.7792002059530724,20 L-0.8973702195472419,21 L-0.9797649143035456,22 L-1.0230994737535446,23 L-1.0256462857620776,24 L-0.987303816971295,25 L-0.9096006606152274,26 L-0.7956345963313022,27 L-0.6499490914618065,28 L-0.47835216734869157,29 L-0.28768485185094045,30 L-0.08554844915193918,31 L0.11999850025100743,32 L0.32076148812611166,33 L0.5087367276910372,34 L0.6764302393345004,35 L0.8171566119347553,36 L0.9253055291039779,37 L0.9965654347982746,38 L1.02809542145125,39 L1.018638487993677,40 L0.9685716525194288,41 L0.8798909217638291,42 L0.7561317166138749,43 L0.6022279260341376,44 L0.42431520848353754,45 L0.22948638257476794,46 L0.02550865877890179,47 L-0.1794860147452533,48 L-0.3773251472623861,49 L-0.5601215168765253,50 L-0.7205876091784583,51 L-0.8523261474481408,52 L-0.9500851318897604,53 L-1.0099672202899428,54 L-1.0295851027530312,55 L-1.0081566762130298,56 L-0.9465362244147788,57 L-0.847180360316893,58 L-0.7140500886853969,59 L-0.5524528933333711,60 L-0.36883114449006066,61 L-0.17050526182991516,62 L0.03461812755892286,63 L0.23836140144580353,64 L0.4326019584499393,65 L0.6095960405251002,66 L0.7622874521560707,67 L0.8845888686067399,68 L0.9716245183476547,69 L1.019924564680522,70 L1.0275634371776599,71 L0.9942365980984635,72 L0.921272683348098,73 L0.8115805339567136,74 L0.6695332297669498,75 L0.5007937485406617,76 L0.31208920090611886,77 L0.11094264168587185,78 L-0.09462685055863806,79 L-0.2964238688836699,80 L-0.48640340297592055,81 L-0.6569915683262227,82 L-0.8013875531041392,83 L-0.9138347450644576,84 L-0.9898502295113537,85 L-1.026403508960663,86 L-1.0220373195112844,87 L-0.9769257273582572,88 L-0.8928671893228619,89 L-0.7732128540545136,90 L-0.6227329623092714,91 L-0.44742667250425644,92 L-0.2542828932030127,93 L-0.05100165738583681,94 L0.15431285356627558,95 L0.35347539800907296,96 L0.5385459937893669,97 L0.7021464602774379,98 L0.837754563145533,99" stroke-width="0.2873845026501217" fill="none"></path><path id="line3" d="M0,0 L0.24610911487092932,1 L0.4824066359741775,2 L0.6994721268233062,3 L0.8886518712879277,4 L1.0424038699474434,5 L1.1545985158077876,6 L1.220762962389187,7 L1.2382594420004256,8 L1.2063904252127384,9 L1.1264264291569523,10 L1.0015553660148293,11 L0.8367554510204196,12 L0.6385967367283458,13 L0.4149791857514484,14 L0.1748177241811886,15 L-0.07231316838294574,16 L-0.3165611631210508,17 L-0.5481888632520364,18 L-0.7579620033151571,19 L-0.9375175901935189,20 L-1.0796973092587028,21 L-1.1788329037856278,22 L-1.2309721504609652,23 L-1.2340364220546762,24 L-1.1879035557281885,25 L-1.0944127232812602,26 L-0.9572911091761684,27 L-0.7820053194550072,28 L-0.5755434454076633,29 L-0.3461364704242859,30 L-0.1029301266618878,31 L0.1443797164357221,32 L0.38593359585558185,33 L0.6121015206925676,34 L0.8138668894975868,35 L0.9831859537238249,36 L1.113308496597786,37 L1.1990469429605144,38 L1.2369831715188417,39 L1.2256047845548392,40 L1.165365402450185,41 L1.0586665792730294,42 L0.9097620603958384,43 L0.7245881990908618,44 L0.5105272928584216,45 L0.27611327452174944,46 L0.03069149125572104,47 L-0.21595386491407378,48 L-0.453989821971571,49 L-0.6739266374747906,50 L-0.8669961246403771,51 L-1.0255012122810336,52 L-1.1431228027442586,53 L-1.215171694394674,54 L-1.238775525285604,55 L-1.2129932851656229,56 L-1.1388528305877512,57 L-1.0193099075122733,58 L-0.8591303150427024,59 L-0.6646999080548651,60 L-0.4437700133147351,61 L-0.20514840854100613,62 L0.04165181589801559,63 L0.28679151387708707,64 L0.5204977392208359,65 L0.7334533622274502,66 L0.9171685142279816,67 L1.0643190518588594,68 L1.1690385475451117,69 L1.2271521654552078,70 L1.2363430990311974,71 L1.1962449347550745,72 L1.1084562598994523,73 L0.9764769318976426,74 L0.8055685500722234,75 L0.6025446922739855,76 L0.3754992790345166,77 L0.13348389449643663,78 L-0.11385307168242643,79 L-0.3566510751774552,80 L-0.5852305257827095,81 L-0.7904786821267296,82 L-0.9642129479140839,83 L-1.0995070862180139,84 L-1.190967346689684,85 L-1.234947497363631,86 L-1.2296941884198749,87 L-1.1754168527082287,88 L-1.074279356321478,89 L-0.9303137320827376,90 L-0.7492594351206069,91 L-0.5383345289050886,92 L-0.3059479238349711,93 L-0.06136414051605742,94 L0.18566603743948817,95 L0.42529429638538757,96 L0.6479674138281587,97 L0.844808115261019,98 L1.0079689830845935,99" stroke-width="0.27217286322041767" fill="none"></path><path id="line4" d="M0,0 L0.2565398439155084,1 L0.5028522538123972,2 L0.7291175311918349,3 L0.9263151934660753,4 L1.0865835921334532,5 L1.203533331895279,6 L1.2725019956834933,7 L1.2907400205160642,8 L1.2575203138963331,9 L1.1741672406963821,10 L1.0440038249088601,11 L0.8722192711668043,12 L0.6656620875304042,13 L0.4325670570823558,14 L0.18222694311271925,15 L-0.0753779840284496,16 L-0.329977828815388,17 L-0.5714224988727106,18 L-0.790086357127949,19 L-0.977251965586173,20 L-1.1254576220733863,21 L-1.2287948347554372,22 L-1.2831438750621242,23 L-1.2863380182647344,24 L-1.2382499239534817,25 L-1.1407967126977983,26 L-0.9978635364990569,27 L-0.8151486900405807,28 L-0.5999364376606291,29 L-0.36080661272005654,30 L-0.10729256672144195,31 L0.15049889533108315,32 L0.40229044135348574,33 L0.6380439369800237,34 L0.8483606343032427,35 L1.0248558702935855,36 L1.160493336855041,37 L1.2498655962245806,38 L1.2894096584516148,39 L1.277549026563656,40 L1.2147565465256884,41 L1.1035355563636977,42 L0.9483200859773114,43 L0.7552980863600921,44 L0.5321647355206385,45 L0.2878156560189089,46 L0.031992274566531725,47 L-0.22510653791535487,48 L-0.47323106309531254,49 L-0.7024893591566366,50 L-0.903741621301753,51 L-1.0689645569271702,52 L-1.19157124898063,53 L-1.2666737555577492,54 L-1.2912779767209637,55 L-1.264403019815605,56 L-1.1871203045646606,57 L-1.0625108489454724,58 L-0.8955424387257038,59 L-0.6928715775215286,60 L-0.46257811300426843,61 L-0.21384311887117852,62 L0.04341712559032317,63 L0.2989464662651991,64 L0.5425577547102086,65 L0.764538977614927,66 L0.9560404441243956,67 L1.109427595086709,68 L1.218585368834142,69 L1.2791619893946613,70 L1.2887424580670985,71 L1.246944831798401,72 L1.155435450047864,73 L1.01786250309133,74 L0.8397105901874159,75 L0.6280820659127285,76 L0.39141389169767593,77 L0.1391412807985966,78 L-0.11867845388021804,79 L-0.3717668531143465,80 L-0.6100340810929523,81 L-0.8239811753322497,82 L-1.005078740334008,83 L-1.146106987668025,84 L-1.2414435661534629,85 L-1.2872877072580782,86 L-1.2818117497455828,87 L-1.2252340027616162,88 L-1.1198100425370248,89 L-0.9697427896814182,90 L-0.7810149520015487,91 L-0.5611505128205766,92 L-0.3189147735062957,93 L-0.06396490856608333,94 L0.1935350354257173,95 L0.4433193482902201,96 L0.6754299177134893,97 L0.8806132277598819,98 L1.0506892673512256,99" stroke-width="0.280042616947924" fill="none"></path></defs><use href="#line0" stroke="hsl(224.53608247422682, 66.82406591227027%, 37.16292836858332%)" transform="translate(0, 0.5)"></use><use href="#line1" stroke="hsl(224.9934395501406, 70.57107607053884%, 40.72921745309047%)" transform="translate(0.6642807786810809, 0.5)"></use><use href="#line2" stroke="hsl(225.45079662605437, 62.87010212369749%, 31.385331479947652%)" transform="translate(1.342897092129065, 0.5)"></use><use href="#line3" stroke="hsl(225.90815370196816, 64.76287379796285%, 43.91763885623449%)" transform="translate(2.0064345987196957, 0.5)"></use><use href="#line4" stroke="hsl(226.36551077788192, 59.239347346101184%, 36.40424691979955%)" transform="translate(2.6669297774243854, 0.5)"></use><use href="#line0" stroke="hsl(226.8228678537957, 67.80028336537055%, 50.51335629435549%)" transform="translate(3.3289989068745762, 0.5)"></use><use href="#line1" stroke="hsl(227.28022492970948, 68.7492783572252%, 47.82330216228793%)" transform="translate(3.993279685555657, 0.5)"></use><use href="#line2" stroke="hsl(227.73758200562327, 67.47889757536157%, 46.815997558330636%)" transform="translate(4.671895999003641, 0.5)"></use><use href="#line3" stroke="hsl(228.19493908153703, 78.13691058559176%, 31.169273069915636%)" transform="translate(5.335433505594271, 0.5)"></use><use href="#line4" stroke="hsl(228.65229615745082, 59.449980288296935%, 55.228456148661095%)" transform="translate(5.995928684298961, 0.5)"></use><use href="#line0" stroke="hsl(229.10965323336458, 41.71431842800946%, 47.049448370979036%)" transform="translate(6.657997813749152, 0.5)"></use><use href="#line1" stroke="hsl(229.56701030927837, 45.00527647507027%, 47.03244353975348%)" transform="translate(7.322278592430233, 0.5)"></use><use href="#line2" stroke="hsl(230.02436738519214, 65.51436457940824%, 58.3784642844457%)" transform="translate(8.000894905878218, 0.5)"></use><use href="#line3" stroke="hsl(230.48172446110593, 52.320891017564875%, 48.22667653881558%)" transform="translate(8.664432412468848, 0.5)"></use><use href="#line4" stroke="hsl(230.9390815370197, 65.98452305647814%, 32.47714576639031%)" transform="translate(9.324927591173537, 0.5)"></use><use href="#line0" stroke="hsl(231.39643861293348, 43.35313629562628%, 50.45955306036754%)" transform="translate(9.98699672062373, 0.5)"></use><use href="#line1" stroke="hsl(231.85379568884724, 41.69473978193328%, 32.13530914575005%)" transform="translate(10.65127749930481, 0.5)"></use><use href="#line2" stroke="hsl(232.31115276476103, 79.70819426248616%, 58.925292866339866%)" transform="translate(11.329893812752793, 0.5)"></use><use href="#line3" stroke="hsl(232.7685098406748, 78.10003271578816%, 41.4949872588749%)" transform="translate(11.993431319343424, 0.5)"></use><use href="#line4" stroke="hsl(233.2258669165886, 59.309339119652705%, 35.203085698582086%)" transform="translate(12.653926498048113, 0.5)"></use><use href="#line0" stroke="hsl(233.68322399250235, 40.73733008074524%, 33.164242038519674%)" transform="translate(13.315995627498305, 0.5)"></use><use href="#line1" stroke="hsl(234.14058106841614, 68.86175943651162%, 50.95340633966422%)" transform="translate(13.980276406179385, 0.5)"></use><use href="#line2" stroke="hsl(234.5979381443299, 57.35532949507976%, 59.08729844605553%)" transform="translate(14.658892719627369, 0.5)"></use><use href="#line3" stroke="hsl(235.0552952202437, 44.542267512775375%, 52.03474526955378%)" transform="translate(15.322430226218, 0.5)"></use><use href="#line4" stroke="hsl(235.51265229615746, 72.74591655522042%, 38.67893512735823%)" transform="translate(15.982925404922689, 0.5)"></use><use href="#line0" stroke="hsl(235.97000937207125, 47.16033798283834%, 40.07748197022308%)" transform="translate(16.64499453437288, 0.5)"></use><use href="#line1" stroke="hsl(236.427366447985, 51.981822038278374%, 35.69525657852414%)" transform="translate(17.309275313053963, 0.5)"></use><use href="#line2" stroke="hsl(236.8847235238988, 69.72446803082268%, 37.316979256002824%)" transform="translate(17.98789162650195, 0.5)"></use><use href="#line3" stroke="hsl(237.34208059981256, 66.67563041596753%, 42.654272306676226%)" transform="translate(18.651429133092577, 0.5)"></use><use href="#line4" stroke="hsl(237.79943767572635, 64.84958824316199%, 42.09533063372196%)" transform="translate(19.311924311797267, 0.5)"></use><use href="#line0" stroke="hsl(238.25679475164011, 45.24543690825003%, 46.81188507688695%)" transform="translate(19.97399344124746, 0.5)"></use><use href="#line1" stroke="hsl(238.7141518275539, 78.72076200701933%, 44.94661341203154%)" transform="translate(20.63827421992854, 0.5)"></use><use href="#line2" stroke="hsl(239.17150890346767, 51.13336472043416%, 32.52422038358313%)" transform="translate(21.316890533376526, 0.5)"></use><use href="#line3" stroke="hsl(239.62886597938146, 46.20399693946191%, 54.08720969748806%)" transform="translate(21.980428039967155, 0.5)"></use><use href="#line4" stroke="hsl(240.08622305529522, 45.897611668424254%, 31.735328086406238%)" transform="translate(22.640923218671844, 0.5)"></use><use href="#line0" stroke="hsl(240.543580131209, 75.45164006905182%, 39.890834283490975%)" transform="translate(23.302992348122036, 0.5)"></use><use href="#line1" stroke="hsl(241.00093720712277, 75.74988518448068%, 49.872297400962154%)" transform="translate(23.967273126803118, 0.5)"></use><use href="#line2" stroke="hsl(241.45829428303657, 51.650686409517476%, 57.782939869329724%)" transform="translate(24.645889440251104, 0.5)"></use><use href="#line3" stroke="hsl(241.91565135895033, 78.19215454007784%, 41.44251992276696%)" transform="translate(25.309426946841732, 0.5)"></use><use href="#line4" stroke="hsl(242.37300843486412, 55.16836145609297%, 42.49029784650237%)" transform="translate(25.96992212554642, 0.5)"></use><use href="#line0" stroke="hsl(242.83036551077788, 42.92085694550303%, 36.04470597143867%)" transform="translate(26.631991254996613, 0.5)"></use><use href="#line1" stroke="hsl(243.28772258669167, 70.65072009452022%, 37.40128678161663%)" transform="translate(27.296272033677695, 0.5)"></use><use href="#line2" stroke="hsl(243.74507966260543, 59.72321281620874%, 37.07929190448573%)" transform="translate(27.97488834712568, 0.5)"></use><use href="#line3" stroke="hsl(244.20243673851922, 45.658658426567776%, 58.55347575843368%)" transform="translate(28.63842585371631, 0.5)"></use><use href="#line4" stroke="hsl(244.659793814433, 69.14726460510208%, 58.74888087303406%)" transform="translate(29.298921032421, 0.5)"></use><use href="#line0" stroke="hsl(245.11715089034678, 60.79112430627273%, 46.25113241751928%)" transform="translate(29.96099016187119, 0.5)"></use><use href="#line1" stroke="hsl(245.57450796626057, 42.12010864493084%, 30.275382474940933%)" transform="translate(30.625270940552273, 0.5)"></use><use href="#line2" stroke="hsl(246.03186504217433, 43.38832904406128%, 50.14579201290624%)" transform="translate(31.30388725400026, 0.5)"></use><use href="#line3" stroke="hsl(246.4892221180881, 79.03762950687701%, 37.629007368647564%)" transform="translate(31.967424760590887, 0.5)"></use><use href="#line4" stroke="hsl(246.94657919400188, 45.16393471060664%, 58.134568557228945%)" transform="translate(32.62791993929558, 0.5)"></use><use href="#line0" stroke="hsl(247.40393626991568, 57.2632777577564%, 45.73767576562885%)" transform="translate(33.28998906874577, 0.5)"></use><use href="#line1" stroke="hsl(247.86129334582944, 47.22706210741108%, 57.861794016224735%)" transform="translate(33.95426984742685, 0.5)"></use><use href="#line2" stroke="hsl(248.3186504217432, 62.46942662258231%, 31.445408216896432%)" transform="translate(34.63288616087483, 0.5)"></use><use href="#line3" stroke="hsl(248.776007497657, 51.43019577016051%, 50.49969406257223%)" transform="translate(35.29642366746546, 0.5)"></use><use href="#line4" stroke="hsl(249.23336457357078, 66.08179213751185%, 32.850061882934654%)" transform="translate(35.956918846170154, 0.5)"></use><use href="#line0" stroke="hsl(249.69072164948454, 78.16178460623559%, 32.52984515351626%)" transform="translate(36.61898797562034, 0.5)"></use><use href="#line1" stroke="hsl(250.14807872539834, 62.128164399508535%, 33.4520406297689%)" transform="translate(37.283268754301425, 0.5)"></use><use href="#line2" stroke="hsl(250.6054358013121, 55.70157029832736%, 45.358242905136066%)" transform="translate(37.96188506774941, 0.5)"></use><use href="#line3" stroke="hsl(251.0627928772259, 49.80533528509801%, 34.775886233773754%)" transform="translate(38.625422574340035, 0.5)"></use><use href="#line4" stroke="hsl(251.52014995313965, 49.408636879456296%, 36.85042684681306%)" transform="translate(39.28591775304473, 0.5)"></use><use href="#line0" stroke="hsl(251.97750702905344, 73.8006776211036%, 45.41175978687747%)" transform="translate(39.94798688249492, 0.5)"></use><use href="#line1" stroke="hsl(252.4348641049672, 68.95224039646207%, 51.08975363776182%)" transform="translate(40.612267661176, 0.5)"></use><use href="#line2" stroke="hsl(252.892221180881, 46.263528515861445%, 45.22819197842337%)" transform="translate(41.29088397462398, 0.5)"></use><use href="#line3" stroke="hsl(253.34957825679476, 70.99184244383892%, 54.73749726177874%)" transform="translate(41.95442148121461, 0.5)"></use><use href="#line4" stroke="hsl(253.80693533270855, 42.3353438775562%, 56.22019890262818%)" transform="translate(42.6149166599193, 0.5)"></use><use href="#line0" stroke="hsl(254.2642924086223, 78.11174934082342%, 54.17074042489465%)" transform="translate(43.27698578936949, 0.5)"></use><use href="#line1" stroke="hsl(254.7216494845361, 52.41100525059139%, 56.437813202534535%)" transform="translate(43.94126656805057, 0.5)"></use><use href="#line2" stroke="hsl(255.17900656044986, 47.601707546458655%, 37.32694007071303%)" transform="translate(44.619882881498555, 0.5)"></use><use href="#line3" stroke="hsl(255.63636363636365, 45.58954801226708%, 35.29663749665259%)" transform="translate(45.28342038808918, 0.5)"></use><use href="#line4" stroke="hsl(256.09372071227745, 50.13870384689761%, 49.75240506268538%)" transform="translate(45.943915566793876, 0.5)"></use><use href="#line0" stroke="hsl(256.5510777881912, 65.03880635496262%, 48.04311478424444%)" transform="translate(46.605984696244064, 0.5)"></use><use href="#line1" stroke="hsl(257.00843486410497, 78.14658548530954%, 32.22501574769394%)" transform="translate(47.27026547492515, 0.5)"></use><use href="#line2" stroke="hsl(257.46579194001873, 77.43957536780275%, 43.358268317922494%)" transform="translate(47.94888178837313, 0.5)"></use><use href="#line3" stroke="hsl(257.92314901593255, 63.84057057939519%, 30.730426078488552%)" transform="translate(48.61241929496376, 0.5)"></use><use href="#line4" stroke="hsl(258.3805060918463, 58.80799723676696%, 55.17282006328608%)" transform="translate(49.27291447366845, 0.5)"></use><use href="#line0" stroke="hsl(258.8378631677601, 55.904451279018204%, 32.77817748968319%)" transform="translate(49.93498360311864, 0.5)"></use><use href="#line1" stroke="hsl(259.29522024367384, 61.230420873256996%, 58.8239672073704%)" transform="translate(50.59926438179972, 0.5)"></use><use href="#line2" stroke="hsl(259.75257731958766, 48.43682899779154%, 40.2819177840155%)" transform="translate(51.2778806952477, 0.5)"></use><use href="#line3" stroke="hsl(260.2099343955014, 53.08328244778777%, 41.56112695061429%)" transform="translate(51.94141820183833, 0.5)"></use><use href="#line4" stroke="hsl(260.6672914714152, 48.01471714565316%, 59.00896900900253%)" transform="translate(52.601913380543024, 0.5)"></use><use href="#line0" stroke="hsl(261.12464854732895, 66.40533648887805%, 45.26954006251495%)" transform="translate(53.26398250999321, 0.5)"></use><use href="#line1" stroke="hsl(261.58200562324276, 57.96498463107601%, 31.398793394043462%)" transform="translate(53.928263288674295, 0.5)"></use><use href="#line2" stroke="hsl(262.0393626991565, 48.71887353913658%, 46.711012237687456%)" transform="translate(54.60687960212228, 0.5)"></use><use href="#line3" stroke="hsl(262.4967197750703, 67.9555084508915%, 37.024716243731476%)" transform="translate(55.270417108712905, 0.5)"></use><use href="#line4" stroke="hsl(262.95407685098405, 41.39364484587804%, 57.989133118706036%)" transform="translate(55.9309122874176, 0.5)"></use><use href="#line0" stroke="hsl(263.41143392689787, 74.28632850428696%, 35.35750541913553%)" transform="translate(56.59298141686779, 0.5)"></use><use href="#line1" stroke="hsl(263.86879100281163, 72.7405078583551%, 49.79947447012555%)" transform="translate(57.25726219554887, 0.5)"></use><use href="#line2" stroke="hsl(264.3261480787254, 42.1994088483321%, 54.19719961396507%)" transform="translate(57.93587850899685, 0.5)"></use><use href="#line3" stroke="hsl(264.78350515463916, 40.75271019197592%, 52.096811991394006%)" transform="translate(58.59941601558748, 0.5)"></use><use href="#line4" stroke="hsl(265.240862230553, 61.632443408944084%, 33.79939945303632%)" transform="translate(59.25991119429217, 0.5)"></use><use href="#line0" stroke="hsl(265.69821930646674, 57.14010610561637%, 40.50482540145967%)" transform="translate(59.92198032374236, 0.5)"></use><use href="#line1" stroke="hsl(266.1555763823805, 46.68808517713089%, 48.058250827363295%)" transform="translate(60.58626110242344, 0.5)"></use><use href="#line2" stroke="hsl(266.61293345829426, 57.079667404327694%, 37.398711859129804%)" transform="translate(61.264877415871425, 0.5)"></use><use href="#line3" stroke="hsl(267.0702905342081, 43.14623009988554%, 35.33139118686376%)" transform="translate(61.92841492246205, 0.5)"></use><use href="#line4" stroke="hsl(267.52764761012185, 67.12456026614262%, 37.68192442253983%)" transform="translate(62.588910101166746, 0.5)"></use><use href="#line0" stroke="hsl(267.9850046860356, 72.05292286747833%, 57.222677686502706%)" transform="translate(63.250979230616935, 0.5)"></use><use href="#line1" stroke="hsl(268.44236176194937, 66.01538425433858%, 39.14087534234077%)" transform="translate(63.91526000929802, 0.5)"></use><use href="#line2" stroke="hsl(268.8997188378632, 41.94458909430093%, 39.355019521697066%)" transform="translate(64.593876322746, 0.5)"></use><use href="#line3" stroke="hsl(269.35707591377695, 64.61937841421663%, 40.10838573832892%)" transform="translate(65.25741382933663, 0.5)"></use><use href="#line4" stroke="hsl(269.8144329896907, 70.34445781073411%, 50.24037917270676%)" transform="translate(65.91790900804132, 0.5)"></use><use href="#line0" stroke="hsl(270.2717900656045, 56.064977800960804%, 58.96534409326887%)" transform="translate(66.57997813749151, 0.5)"></use><use href="#line1" stroke="hsl(270.7291471415183, 69.43895424858935%, 33.68943332072128%)" transform="translate(67.24425891617258, 0.5)"></use><use href="#line2" stroke="hsl(271.18650421743206, 52.430271741389056%, 33.80484738162735%)" transform="translate(67.92287522962057, 0.5)"></use><use href="#line3" stroke="hsl(271.6438612933458, 42.36865700825775%, 41.51244629245534%)" transform="translate(68.5864127362112, 0.5)"></use><use href="#line4" stroke="hsl(272.1012183692596, 61.57349063139321%, 43.970860081221375%)" transform="translate(69.2469079149159, 0.5)"></use><use href="#line0" stroke="hsl(272.5585754451734, 58.80299816747693%, 39.19437737781346%)" transform="translate(69.90897704436608, 0.5)"></use><use href="#line1" stroke="hsl(273.01593252108717, 74.65971432523342%, 40.181274785756756%)" transform="translate(70.57325782304716, 0.5)"></use><use href="#line2" stroke="hsl(273.4732895970009, 40.01926420788905%, 35.28708487530415%)" transform="translate(71.25187413649515, 0.5)"></use><use href="#line3" stroke="hsl(273.9306466729147, 49.47847876084878%, 53.64593569817019%)" transform="translate(71.91541164308578, 0.5)"></use><use href="#line4" stroke="hsl(274.3880037488285, 79.99576111496339%, 30.076411533118993%)" transform="translate(72.57590682179047, 0.5)"></use><use href="#line0" stroke="hsl(274.8453608247423, 73.84167268477074%, 55.466973800891004%)" transform="translate(73.23797595124066, 0.5)"></use><use href="#line1" stroke="hsl(275.30271790065603, 72.88782037300768%, 42.93885610899227%)" transform="translate(73.90225672992173, 0.5)"></use><use href="#line2" stroke="hsl(275.76007497656985, 74.59807100699427%, 55.73761013304649%)" transform="translate(74.58087304336972, 0.5)"></use><use href="#line3" stroke="hsl(276.2174320524836, 43.16367184645497%, 40.609558519326626%)" transform="translate(75.24441054996035, 0.5)"></use><use href="#line4" stroke="hsl(276.6747891283974, 57.52969858289254%, 39.804612897432364%)" transform="translate(75.90490572866504, 0.5)"></use><use href="#line0" stroke="hsl(277.13214620431114, 47.68223320488103%, 34.44073419171042%)" transform="translate(76.56697485811523, 0.5)"></use><use href="#line1" stroke="hsl(277.5895032802249, 42.60771759771466%, 30.720195296840334%)" transform="translate(77.2312556367963, 0.5)"></use><use href="#line2" stroke="hsl(278.0468603561387, 70.41097082578986%, 49.024920708449024%)" transform="translate(77.9098719502443, 0.5)"></use><use href="#line3" stroke="hsl(278.5042174320525, 44.53624483094978%, 57.723524548459835%)" transform="translate(78.57340945683492, 0.5)"></use><use href="#line4" stroke="hsl(278.96157450796625, 78.57183469973978%, 59.007857783340626%)" transform="translate(79.23390463553962, 0.5)"></use><use href="#line0" stroke="hsl(279.41893158388007, 61.90599228069867%, 41.435251601738024%)" transform="translate(79.8959737649898, 0.5)"></use><use href="#line1" stroke="hsl(279.87628865979383, 41.73872900244366%, 34.65731728411886%)" transform="translate(80.56025454367088, 0.5)"></use><use href="#line2" stroke="hsl(280.3336457357076, 62.71144743578202%, 53.59049498566185%)" transform="translate(81.23887085711887, 0.5)"></use><use href="#line3" stroke="hsl(280.79100281162135, 62.27973383876078%, 39.565873460050796%)" transform="translate(81.9024083637095, 0.5)"></use><use href="#line4" stroke="hsl(281.2483598875351, 70.28125343809853%, 54.39449876933762%)" transform="translate(82.56290354241419, 0.5)"></use><use href="#line0" stroke="hsl(281.70571696344894, 69.56005418276138%, 46.374174003528324%)" transform="translate(83.22497267186438, 0.5)"></use><use href="#line1" stroke="hsl(282.1630740393627, 58.292599981968884%, 52.556169910626195%)" transform="translate(83.88925345054545, 0.5)"></use><use href="#line2" stroke="hsl(282.62043111527646, 64.76661287087386%, 34.07546455378768%)" transform="translate(84.56786976399344, 0.5)"></use><use href="#line3" stroke="hsl(283.0777881911903, 57.775010122399834%, 59.48420998568416%)" transform="translate(85.23140727058407, 0.5)"></use><use href="#line4" stroke="hsl(283.53514526710404, 72.23796494372587%, 53.83673069960386%)" transform="translate(85.89190244928876, 0.5)"></use><use href="#line0" stroke="hsl(283.9925023430178, 59.86958254251452%, 33.00823931460522%)" transform="translate(86.55397157873895, 0.5)"></use><use href="#line1" stroke="hsl(284.44985941893157, 41.60575592476738%, 34.5065088607487%)" transform="translate(87.21825235742003, 0.5)"></use><use href="#line2" stroke="hsl(284.9072164948454, 71.90360009878003%, 31.909153378546886%)" transform="translate(87.89686867086802, 0.5)"></use><use href="#line3" stroke="hsl(285.36457357075915, 47.51028978185498%, 42.4589942308708%)" transform="translate(88.56040617745865, 0.5)"></use><use href="#line4" stroke="hsl(285.8219306466729, 59.16819633776305%, 43.90500211657634%)" transform="translate(89.22090135616334, 0.5)"></use><use href="#line0" stroke="hsl(286.2792877225867, 73.75339426211815%, 45.034357964676914%)" transform="translate(89.88297048561353, 0.5)"></use><use href="#line1" stroke="hsl(286.7366447985005, 65.64530365983444%, 53.458360158100156%)" transform="translate(90.5472512642946, 0.5)"></use><use href="#line2" stroke="hsl(287.19400187441425, 71.76525904337477%, 48.940417659379065%)" transform="translate(91.22586757774259, 0.5)"></use><use href="#line3" stroke="hsl(287.651358950328, 60.46562150419976%, 53.61252277307602%)" transform="translate(91.88940508433322, 0.5)"></use><use href="#line4" stroke="hsl(288.1087160262418, 63.27043063803002%, 32.71872627919212%)" transform="translate(92.54990026303791, 0.5)"></use><use href="#line0" stroke="hsl(288.5660731021556, 79.69110723299622%, 49.22404397147115%)" transform="translate(93.2119693924881, 0.5)"></use><use href="#line1" stroke="hsl(289.02343017806936, 75.19094339037173%, 48.75619374093102%)" transform="translate(93.87625017116918, 0.5)"></use><use href="#line2" stroke="hsl(289.4807872539831, 67.61712047348394%, 36.9769877274176%)" transform="translate(94.55486648461716, 0.5)"></use><use href="#line3" stroke="hsl(289.9381443298969, 42.62832455140115%, 36.331150942010225%)" transform="translate(95.2184039912078, 0.5)"></use><use href="#line4" stroke="hsl(290.3955014058107, 58.67940577393903%, 30.60177064488857%)" transform="translate(95.87889916991249, 0.5)"></use><use href="#line0" stroke="hsl(290.85285848172447, 44.78511534988446%, 45.225336323267%)" transform="translate(96.54096829936267, 0.5)"></use><use href="#line1" stroke="hsl(291.31021555763823, 63.03502582242527%, 36.912167637802206%)" transform="translate(97.20524907804375, 0.5)"></use><use href="#line2" stroke="hsl(291.767572633552, 67.4380160505406%, 41.92689993400474%)" transform="translate(97.88386539149174, 0.5)"></use><use href="#line3" stroke="hsl(292.2249297094658, 55.673826599039984%, 46.82230194130187%)" transform="translate(98.54740289808237, 0.5)"></use><use href="#line4" stroke="hsl(292.6822867853796, 41.42525141798906%, 46.040786706551316%)" transform="translate(99.20789807678706, 0.5)"></use><use href="#line0" stroke="hsl(293.13964386129334, 50.954965499867775%, 42.65260807733249%)" transform="translate(99.86996720623725, 0.5)"></use><use href="#line1" stroke="hsl(293.5970009372071, 69.86177241378954%, 51.682918414748734%)" transform="translate(100.53424798491832, 0.5)"></use><use href="#line2" stroke="hsl(294.0543580131209, 73.05951039410316%, 34.49526178851654%)" transform="translate(101.21286429836631, 0.5)"></use><use href="#line3" stroke="hsl(294.5117150890347, 71.89258206315903%, 37.60682940478958%)" transform="translate(101.87640180495694, 0.5)"></use><use href="#line4" stroke="hsl(294.96907216494844, 74.14080780855213%, 59.75903536561053%)" transform="translate(102.53689698366163, 0.5)"></use><use href="#line0" stroke="hsl(295.42642924086226, 44.222451382653844%, 46.460310516515854%)" transform="translate(103.19896611311182, 0.5)"></use><use href="#line1" stroke="hsl(295.883786316776, 44.20133854402427%, 48.53633535167757%)" transform="translate(103.8632468917929, 0.5)"></use><use href="#line2" stroke="hsl(296.3411433926898, 70.6293451932367%, 40.42742017865784%)" transform="translate(104.54186320524089, 0.5)"></use><use href="#line3" stroke="hsl(296.79850046860355, 63.068456936089476%, 33.68212877122763%)" transform="translate(105.20540071183152, 0.5)"></use><use href="#line4" stroke="hsl(297.2558575445173, 42.82206831085571%, 53.78559987449073%)" transform="translate(105.86589589053621, 0.5)"></use><use href="#line0" stroke="hsl(297.71321462043113, 60.678974924358116%, 48.47214755142741%)" transform="translate(106.5279650199864, 0.5)"></use><use href="#line1" stroke="hsl(298.1705716963449, 75.14089094705531%, 39.38202086767274%)" transform="translate(107.19224579866747, 0.5)"></use><use href="#line2" stroke="hsl(298.62792877225866, 56.33394644365196%, 42.97815204914324%)" transform="translate(107.87086211211546, 0.5)"></use><use href="#line3" stroke="hsl(299.0852858481725, 58.956286896083405%, 57.45536324087246%)" transform="translate(108.53439961870609, 0.5)"></use><use href="#line4" stroke="hsl(299.54264292408624, 62.35350184313078%, 44.106238294846946%)" transform="translate(109.19489479741078, 0.5)"></use></svg>