<svg xmlns="http://www.w3.org/2000/svg" viewBox="0 0 100 100" id="svg" stroke-linecap="round" style="--frame-c: #f6c6a4; --frame-bdw: 1em; background-color: rgb(0, 0, 0); --frame-asr: 100 / 100.;"><defs><path id="line0" d="M0,0 L0.9023370026136914,1 L1.7956581521702237,2 L2.67103767903594,3 L3.5197290803403973,4 L4.333252512141841,5 L5.103479517224804,6 L5.822714241957695,7 L6.483770330718373,8 L7.080042729584034,9 L7.60557368184666,10 L8.05511225594868,11 L8.424166811055363,12 L8.709049876045299,13 L8.906914993502932,14 L9.015785160580132,15 L9.03457258255516,16 L8.963089541717938,17 L8.80205027298336,18 L8.553063827492114,19 L8.218617995503575,20 L7.802054449217877,21 L7.3075353538919074,22 L6.740001780859882,23 L6.10512433798188,24 L5.409246510804563,25 L4.659321280550451,26 L3.862841652227924,27 L3.02776578700202,28 L2.1624374868786953,29 L1.2755028261932801,30 L0.3758237628937156,31 L-0.5276104072138638,32 L-1.4257728685373754,33 L-2.309689478656311,34 L-3.1705284349863434,35 L-3.999688519231357,36 L-4.788885037913455,37 L-5.530232600291651,38 L-6.216323906579585,39 L-6.840303759236458,40 L-7.3959375578348485,41 L-7.877673593127265,42 L-8.280698517889832,43 L-8.600985440296652,44 L-8.835334159291813,45 L-8.981403139940506,46 L-9.03773290927207,47 L-9.003760638851494,48 L-8.87982576837508,49 L-8.667166614101205,50 L-8.367907996003606,51 L-7.985040007272565,52 L-7.522388138292151,53 L-6.984575053604846,54 L-6.376974403775474,55 L-5.705657133651051,56 L-4.977330823486686,57 L-4.19927266902086,58 L-3.379256770141177,59 L-2.5254764546480186,60 L-1.646462413231535,61 L-0.7509974636301637,62 L0.15197120438105177,63 L1.053421426353085,64 L1.9443462096478257,65 L2.815843728331179,66 L3.659206267275224,67 L4.466007226769437,68 L5.228185318319479,69 L5.938125110377168,70 L6.588733119215164,71 L7.173508684671561,72 L7.686608922597432,73 L8.122907105023799,74 L8.47804388473287,75 L8.748470852414401,76 L8.93148599119859,77 L9.025260674315467,78 L9.028857936129114,79 L8.94224183398859,80 L8.766277807355005,81 L8.502724030616504,82 L8.154213845990967,83 L7.724229452041023,84 L7.217067110697075,85 L6.6377942204282485,86 L5.9921986844719415,87 L5.286731080017939,88 L4.5284402061733475,89 L3.724902654691988,90 L2.8841471071740594,91 L2.014574115133512,92 L1.1248721644642312,93 L0.223930862960925,94 L-0.6792478817033848,95 L-1.5756398060632284,96 L-2.456288458318145,97 L-3.3123946882385606,98 L-4.135404565366207,99" stroke-width="0.3106900602760303" fill="none"></path><path id="line1" d="M0,0 L0.9208361968131454,1 L1.8324717027357111,2 L2.7257977571391527,3 L3.591888541382203,4 L4.422090362640256,5 L5.20810811874354,6 L5.942088180095991,7 L6.61669686054613,8 L7.225193693154881,9 L7.761498778713127,10 L8.220253534084863,11 L8.596874233398573,12 L8.887597807120965,13 L9.089519441403846,14 L9.200621602023874,15 L9.219794192917629,16 L9.146845647894514,17 L8.98250484470282,18 L8.72841382232419,19 L8.387111374262906,20 L7.962007681760405,21 L7.457350240391577,22 L6.878181420493005,23 L6.230288085465359,24 L5.520143771347177,25 L4.754844005382619,26 L3.9420354098587382,27 L3.0898392995832085,28 L2.206770536391322,29 L1.3016524514611731,30 L0.38352868550511476,31 L-0.5384271722987828,32 L-1.4550032437774312,33 L-2.3570414038043825,34 L-3.235528785258816,35 L-4.081687832614568,36 L-4.887064004373449,37 L-5.643610248049209,38 L-6.343767403655983,39 L-6.980539732336128,40 L-7.547564815470428,41 L-8.039177125861766,42 L-8.45046463581014,43 L-8.777317896469729,44 L-9.016471098103336,45 L-9.165534700973781,46 L-9.223019310835054,47 L-9.188350560467311,48 L-9.061874848564262,49 L-8.844855878631927,50 L-8.539462032480936,51 L-8.148744704472248,52 L-7.676607812993347,53 L-7.127768793796187,54 L-6.507711464938525,55 L-5.822631234286596,56 L-5.079373197047674,57 L-4.285363741841392,58 L-3.4485363486795566,59 L-2.5772523202562736,60 L-1.6802172385753336,61 L-0.7663939816525324,62 L0.1550868305987805,63 L1.0750180665036324,64 L1.9842080772417077,65 L2.8735725367639793,66 L3.7342252093756887,67 L4.557566738066065,68 L5.335370566440942,69 L6.05986513575497,70 L6.723811535757633,71 L7.320575833491593,72 L7.844195357357951,73 L8.28943827415983,74 L8.65185586385029,75 L8.927826969672472,76 L9.114594179560916,77 L9.210291377291453,78 L9.213962388097645,79 L9.12557053245299,80 L8.94599899256063,81 L8.677041987888703,82 L8.321386847922534,83 L7.882587161256705,84 L7.3650272693124865,85 L6.773878459447632,86 L6.115047295162483,87 L5.3951165996699695,88 L4.621279682501994,89 L3.801268466338426,90 L2.9432762321914985,91 L2.055875754850268,92 L1.147933646548761,93 L0.2285217647073526,94 L-0.6931734310677593,95 L-1.607942667052331,96 L-2.5066458714228785,97 L-3.3803034988331304,98 L-4.220186251062819,99" stroke-width="0.26317090242850766" fill="none"></path><path id="line2" d="M0,0 L0.9009472659097211,1 L1.792892564552043,2 L2.6669238733408482,3 L3.514308160355057,4 L4.326578641906827,5 L5.0956193798454175,6 L5.813746373328414,7 L6.473784334818158,8 L7.069138383182988,9 L7.593859937569525,10 L8.042706153656225,11 L8.41119230842078,12 L8.695636610010114,13 L8.893196984987531,14 L9.001899475391033,15 L9.020657961868773,16 L8.9492850158246,17 L8.788493772142626,18 L8.539890803779203,19 L8.205960069417005,20 L7.790038094570948,21 L7.296280634128173,22 L6.729621149418907,23 L6.095721514701642,24 L5.400915445587118,25 L4.652145214645567,26 L3.8568922865140314,27 L3.0231025655747326,28 L2.159107003105059,29 L1.2735383571662489,30 L0.3752449369384408,31 L-0.5267978066597715,32 L-1.4235769607100424,33 L-2.306132204340878,34 L-3.165645337291891,35 L-3.9935283884559105,36 L-4.781509424047455,37 L-5.521715198030791,38 L-6.206749818991779,39 L-6.82976864744011,40 L-7.384546685184582,41 L-7.86554077345728,42 L-8.267944978323694,43 L-8.587738609985946,44 L-8.821726396186184,45 L-8.967570408310776,46 L-9.023813421200192,47 L-8.989893473261109,48 L-8.866149481400893,49 L-8.653817854681883,50 L-8.355020140530751,51 L-7.972741826937907,52 L-7.510802512448354,53 L-6.973817741995642,54 L-6.3671528899025684,55 L-5.696869550834501,56 L-4.969664974349206,57 L-4.192805148193039,58 L-3.374052198953248,59 L-2.521586835454889,60 L-1.6439266098224454,61 L-0.7498408129145526,62 L0.15173714553157183,63 L1.0517989965771686,64 L1.9413516197274896,65 L2.8115068992190277,66 L3.6535705311341804,67 L4.459128894012097,68 L5.220133114973078,69 L5.928979491395839,70 L6.578585464600629,71 L7.16246038643436,72 L7.674770371681468,73 L8.110396588316522,74 L8.46498640318179,75 L8.734996872058948,76 L8.91773013959657,77 L9.011360395389007,78 L9.014952116870425,79 L8.928469416747054,80 L8.752776401571142,81 L8.489628537873935,82 L8.141655112124383,83 L7.712332959767852,84 L7.205951725835653,85 L6.6275710042298535,86 L5.9829697839334814,87 L5.278588707262926,88 L4.521465717098839,89 L3.7191657360873562,90 L2.879705080433629,91 L2.0114713635201347,92 L1.1231396896463945,93 L0.22358597525432855,94 L-0.6782017362947814,95 L-1.573213080278538,96 L-2.45250539919924,97 L-3.307293094861643,98 L-4.129035411165937,99" stroke-width="0.30675801829839106" fill="none"></path><path id="line3" d="M0,0 L0.9360851478285817,1 L1.8628172422886704,2 L2.7709366826293236,3 L3.651369839587033,4 L4.495319716089986,5 L5.294353843944903,6 L6.040488538271825,7 L6.726268667844375,8 L7.344842144296637,9 L7.890028385925104,10 L8.35638007201804,11 L8.73923757068337,12 L9.034775496350298,13 L9.24004093175741,14 L9.352982932525846,15 L9.372473019517592,16 L9.298316454225994,17 L9.131254184538543,18 L8.872955441430511,19 L8.526001060560821,20 L8.093857695415254,21 L7.580843179650738,22 L6.992083384728741,23 L6.333461003902009,24 L5.611556774288155,25 L4.833583724319659,26 L4.007315103548113,27 L3.1410067149041714,28 L2.243314425443685,29 L1.323207679785328,30 L0.3898798803848583,31 L-0.5473434699032633,32 L-1.479097945167808,33 L-2.3960737626890123,34 L-3.2891088032101057,35 L-4.149280155804347,36 L-4.967993272651457,37 L-5.7370678429184725,38 L-6.448819527721541,39 L-7.096136739499933,40 L-7.6725516986481885,41 L-8.172305057431942,42 L-8.590403445486727,43 L-8.922669361924054,44 L-9.16578291553939,45 L-9.317314996067665,46 L-9.375751545050088,47 L-9.340508683805782,48 L-9.211938547354558,49 L-8.991325766000202,50 L-8.680874629729113,51 L-8.283687063673412,52 L-7.803731634700373,53 L-7.2458038988041285,54 L-6.61547848549536,55 L-5.919053397945962,56 L-5.163487085423216,57 L-4.356328916764817,58 L-3.505643749580997,59 L-2.6199313488631195,60 L-1.7080414601415561,61 L-0.7790853857537072,62 L0.15765505227721213,63 L1.0928202531396007,64 L2.0170663552709667,65 L2.9211585971339633,66 L3.796063587901041,67 L4.63303956610961,68 L5.42372374445287,69 L6.160215867986263,70 L6.8351571508633775,71 L7.441803802891618,72 L7.974094411254653,73 L8.42671050414559,74 L8.795129691179255,75 L9.075670849622004,76 L9.265530904953248,77 L9.362812838259513,78 L9.366544640620331,79 L9.276689025100083,80 L9.094143799306732,81 L8.82073289479497,82 L8.459188142945058,83 L8.013121979406671,84 L7.486991349836015,85 L6.886053177568097,86 L6.2163118381764555,87 L5.484459165737263,88 L4.697807590235191,89 L3.864217074180217,90 L2.992016578460373,91 L2.089920842117723,92 L1.16694330755663,93 L0.2323060612066035,94 L-0.7046523105168249,95 L-1.6345700292806713,96 L-2.5481556646289434,97 L-3.436280970884518,98 L-4.290072093562485,99" stroke-width="0.2980094243849568" fill="none"></path><path id="line4" d="M0,0 L0.9327044987770443,1 L1.8560897225134247,2 L2.760929511284141,3 L3.638183005020064,4 L4.479084976793235,5 L5.275233412066934,6 L6.018673458847586,7 L6.701976909936367,8 L7.3183164231200895,9 L7.861533737717776,10 L8.32620120588574,11 L8.707676023880685,12 L9.002146621420021,13 L9.20667074563217,14 L9.319204859074691,15 L9.3386245580849,16 L9.264735807449586,17 L9.098276879140723,18 L8.840910975745965,19 L8.49520961229818,20 L8.064626922547255,21 L7.553465146397472,22 L6.966831643348499,23 L6.310587861447546,24 L5.591290771638021,25 L4.816127352673284,26 L3.9928427812006784,27 L3.129663044516659,28 L2.235212749220888,29 L1.3184289469980066,30 L0.38847183855138406,31 L-0.545366752094327,32 L-1.4737562184273918,33 L-2.387420399784966,34 L-3.277230265684146,35 L-4.134295130076911,36 L-4.950051484146221,37 L-5.716348560055415,38 L-6.425529770726145,39 L-7.070509211925526,40 L-7.644842462278961,41 L-8.142790973798238,42 L-8.559379409556156,43 L-8.890445355608453,44 L-9.13268091045802,45 L-9.283665736513235,46 L-9.341891243301099,47 L-9.30677566080458,48 L-9.17866985231632,49 L-8.958853808728577,50 L-8.649523859287358,51 L-8.253770726596597,52 L-7.775548645139542,53 L-7.219635851874915,54 L-6.591586843672675,55 L-5.897676878617371,56 L-5.144839275703712,57 L-4.340596139404971,58 L-3.4929832012916235,59 L-2.610469529657706,60 L-1.7018729093899407,61 L-0.7762717375759485,62 L0.1570856848385904,63 L1.0888735590158376,64 L2.009781768525143,65 L2.910608902948879,66 L3.782354195333728,67 L4.6163074548788785,68 L5.404136096283237,69 L6.137968396183424,70 L6.810472144811549,71 L7.414927907011493,72 L7.945296160613874,73 L8.396277641345124,74 L8.76336629132444,75 L9.042894282104603,76 L9.232068662401403,77 L9.328999264339654,78 L9.332717589385783,79 L9.24318648526505,80 L9.061300517174773,81 L8.788877029584604,82 L8.428637987931317,83 L7.984182781639915,84 L7.459952260214302,85 L6.861184361736992,86 L6.193861777123207,87 L5.46465217305091,88 L4.680841570839333,89 L3.8502615469324395,90 L2.9812109823758504,91 L2.082373143140677,92 L1.1627289198003021,93 L0.23146709344036318,94 L-0.7021074756043832,95 L-1.628666818838782,96 L-2.5389530615850004,97 L-3.42387092460616,98 L-4.274578601129909,99" stroke-width="0.26250933428328327" fill="none"></path></defs><use href="#line0" stroke="hsl(0, 54.34876271961337%, 34.092368463637655%)" transform="translate(0, 0) rotate(4.498089775056009, 50, 50)"></use><use href="#line1" stroke="hsl(1.3392857142857142, 44.564350444018466%, 56.118068714570356%)" transform="translate(0.5085665834837775, 0) rotate(3.3217268112608878, 50.50856658348378, 50)"></use><use href="#line2" stroke="hsl(2.6785714285714284, 44.67607163925897%, 56.07444870504928%)" transform="translate(1.0076293353980503, 0) rotate(25.153255347875323, 51.00762933539805, 50)"></use><use href="#line3" stroke="hsl(4.017857142857142, 67.85886578188158%, 47.973693107484884%)" transform="translate(1.5154095104863, 0) rotate(2.3692335800751714, 51.5154095104863, 50)"></use><use href="#line4" stroke="hsl(5.357142857142857, 78.23911143244976%, 51.670320435629755%)" transform="translate(2.0214399667918626, 0) rotate(-19.336917645689578, 52.02143996679186, 50)"></use><use href="#line0" stroke="hsl(6.696428571428571, 56.13725654727346%, 49.21079234674141%)" transform="translate(2.5203704050770908, 0) rotate(12.830736090352524, 52.52037040507709, 50)"></use><use href="#line1" stroke="hsl(8.035714285714285, 60.673935924241306%, 42.03968656592688%)" transform="translate(3.028936988560868, 0) rotate(25.476497354415557, 53.028936988560865, 50)"></use><use href="#line2" stroke="hsl(9.375, 54.364003047204505%, 35.636011169319055%)" transform="translate(3.527999740475141, 0) rotate(19.983271230842995, 53.52799974047514, 50)"></use><use href="#line3" stroke="hsl(10.714285714285714, 64.93892403784176%, 31.420649176776692%)" transform="translate(4.035779915563391, 0) rotate(-0.557837678647445, 54.03577991556339, 50)"></use><use href="#line4" stroke="hsl(12.053571428571429, 57.10757784958325%, 44.48121221328404%)" transform="translate(4.541810371868954, 0) rotate(-6.722838036846554, 54.541810371868955, 50)"></use><use href="#line0" stroke="hsl(13.392857142857142, 74.27880169475671%, 30.731880927711224%)" transform="translate(5.040740810154182, 0) rotate(2.1241121787084616, 55.04074081015418, 50)"></use><use href="#line1" stroke="hsl(14.732142857142858, 70.05651139566098%, 42.44365856590478%)" transform="translate(5.54930739363796, 0) rotate(-6.899146112537981, 55.54930739363796, 50)"></use><use href="#line2" stroke="hsl(16.07142857142857, 47.35046912788312%, 46.53934832737051%)" transform="translate(6.048370145552234, 0) rotate(-5.055285139461205, 56.048370145552234, 50)"></use><use href="#line3" stroke="hsl(17.410714285714285, 41.565112754339346%, 38.56615007507964%)" transform="translate(6.556150320640484, 0) rotate(-3.5191944427227284, 56.556150320640484, 50)"></use><use href="#line4" stroke="hsl(18.75, 49.435511122809714%, 32.29821414707902%)" transform="translate(7.062180776946047, 0) rotate(-21.630980073721354, 57.06218077694605, 50)"></use><use href="#line0" stroke="hsl(20.089285714285715, 45.87088196497284%, 58.19258021831398%)" transform="translate(7.561111215231275, 0) rotate(-17.028439665902162, 57.56111121523128, 50)"></use><use href="#line1" stroke="hsl(21.428571428571427, 54.92546320572061%, 40.33801374445662%)" transform="translate(8.069677798715052, 0) rotate(-3.4277188740106013, 58.06967779871505, 50)"></use><use href="#line2" stroke="hsl(22.767857142857142, 65.22705835316637%, 38.80598731662392%)" transform="translate(8.568740550629325, 0) rotate(1.2523862805075971, 58.56874055062933, 50)"></use><use href="#line3" stroke="hsl(24.107142857142858, 54.261515541975804%, 41.80183313013566%)" transform="translate(9.076520725717575, 0) rotate(19.69093248987165, 59.07652072571757, 50)"></use><use href="#line4" stroke="hsl(25.446428571428573, 65.52005340754995%, 34.61809998464554%)" transform="translate(9.582551182023138, 0) rotate(6.171750709690073, 59.58255118202314, 50)"></use><use href="#line0" stroke="hsl(26.785714285714285, 71.87046263036373%, 49.04731734008159%)" transform="translate(10.081481620308367, 0) rotate(8.484670969366768, 60.08148162030837, 50)"></use><use href="#line1" stroke="hsl(28.125, 50.37398473977917%, 40.15043641557014%)" transform="translate(10.590048203792144, 0) rotate(22.13146867408816, 60.59004820379214, 50)"></use><use href="#line2" stroke="hsl(29.464285714285715, 61.295710620191784%, 54.02440194467958%)" transform="translate(11.089110955706417, 0) rotate(2.207188572345302, 61.08911095570642, 50)"></use><use href="#line3" stroke="hsl(30.803571428571427, 52.13717480837695%, 34.45810275830021%)" transform="translate(11.596891130794667, 0) rotate(-4.4505121391768405, 61.59689113079467, 50)"></use><use href="#line4" stroke="hsl(32.14285714285714, 52.659392914021495%, 56.28338047773008%)" transform="translate(12.10292158710023, 0) rotate(-15.512960133172491, 62.10292158710023, 50)"></use><use href="#line0" stroke="hsl(33.48214285714286, 51.15201267202523%, 36.315612562114865%)" transform="translate(12.601852025385458, 0) rotate(1.943652994832572, 62.601852025385455, 50)"></use><use href="#line1" stroke="hsl(34.82142857142857, 78.15818922392612%, 52.301462040856634%)" transform="translate(13.110418608869235, 0) rotate(11.161379778177476, 63.11041860886924, 50)"></use><use href="#line2" stroke="hsl(36.160714285714285, 62.12612404000368%, 53.61199356700244%)" transform="translate(13.609481360783509, 0) rotate(16.18887719643042, 63.609481360783505, 50)"></use><use href="#line3" stroke="hsl(37.5, 61.35068203137656%, 59.05662311113885%)" transform="translate(14.117261535871759, 0) rotate(5.63738426434044, 64.11726153587176, 50)"></use><use href="#line4" stroke="hsl(38.839285714285715, 65.08027752027786%, 57.4646966960954%)" transform="translate(14.623291992177322, 0) rotate(19.409227826989422, 64.62329199217731, 50)"></use><use href="#line0" stroke="hsl(40.17857142857143, 42.435942772499935%, 55.89078447990812%)" transform="translate(15.12222243046255, 0) rotate(20.125412767548667, 65.12222243046256, 50)"></use><use href="#line1" stroke="hsl(41.517857142857146, 73.94085337867757%, 59.72525948613209%)" transform="translate(15.630789013946327, 0) rotate(22.625414591636634, 65.63078901394633, 50)"></use><use href="#line2" stroke="hsl(42.857142857142854, 41.76045472976088%, 45.10283367102816%)" transform="translate(16.1298517658606, 0) rotate(-6.38853962727946, 66.1298517658606, 50)"></use><use href="#line3" stroke="hsl(44.19642857142857, 75.68268308481369%, 58.87875599126174%)" transform="translate(16.63763194094885, 0) rotate(-5.546388958587123, 66.63763194094885, 50)"></use><use href="#line4" stroke="hsl(45.535714285714285, 50.160440557861634%, 51.70736652176946%)" transform="translate(17.143662397254413, 0) rotate(-7.179479721445766, 67.14366239725442, 50)"></use><use href="#line0" stroke="hsl(46.875, 42.09644275950717%, 43.0067011487894%)" transform="translate(17.64259283553964, 0) rotate(-15.478779323439142, 67.64259283553965, 50)"></use><use href="#line1" stroke="hsl(48.214285714285715, 66.75298667249734%, 44.3734606589032%)" transform="translate(18.15115941902342, 0) rotate(25.874941005055, 68.15115941902341, 50)"></use><use href="#line2" stroke="hsl(49.55357142857143, 69.70409032122798%, 47.49571259102907%)" transform="translate(18.650222170937692, 0) rotate(-15.852453154172267, 68.6502221709377, 50)"></use><use href="#line3" stroke="hsl(50.892857142857146, 46.26632946613207%, 41.08764145112525%)" transform="translate(19.158002346025942, 0) rotate(0.1285719768275051, 69.15800234602594, 50)"></use><use href="#line4" stroke="hsl(52.232142857142854, 43.18932910277506%, 40.59035470715747%)" transform="translate(19.664032802331505, 0) rotate(16.755456123892685, 69.6640328023315, 50)"></use><use href="#line0" stroke="hsl(53.57142857142857, 58.011793614632545%, 50.415737882081444%)" transform="translate(20.162963240616733, 0) rotate(-11.924762667306004, 70.16296324061673, 50)"></use><use href="#line1" stroke="hsl(54.910714285714285, 53.63274452265922%, 43.99095440987111%)" transform="translate(20.67152982410051, 0) rotate(10.834870697172036, 70.6715298241005, 50)"></use><use href="#line2" stroke="hsl(56.25, 41.07118969589304%, 37.888855806211595%)" transform="translate(21.170592576014784, 0) rotate(-13.700718421342946, 71.17059257601478, 50)"></use><use href="#line3" stroke="hsl(57.589285714285715, 52.98123924595341%, 50.47778520709042%)" transform="translate(21.678372751103034, 0) rotate(4.8865390378165365, 71.67837275110304, 50)"></use><use href="#line4" stroke="hsl(58.92857142857143, 53.82519904402144%, 33.19452820453108%)" transform="translate(22.184403207408597, 0) rotate(-5.929410585161712, 72.1844032074086, 50)"></use><use href="#line0" stroke="hsl(60.267857142857146, 61.94874265882512%, 44.21685429463382%)" transform="translate(22.683333645693825, 0) rotate(1.437297876311387, 72.68333364569382, 50)"></use><use href="#line1" stroke="hsl(61.607142857142854, 77.25503478080554%, 31.910027763059002%)" transform="translate(23.1919002291776, 0) rotate(6.459969801595506, 73.1919002291776, 50)"></use><use href="#line2" stroke="hsl(62.94642857142857, 64.51204333543764%, 33.35058016949912%)" transform="translate(23.690962981091875, 0) rotate(-15.635390006925908, 73.69096298109187, 50)"></use><use href="#line3" stroke="hsl(64.28571428571428, 51.40309992347145%, 39.96613081642125%)" transform="translate(24.198743156180125, 0) rotate(-9.501088301189647, 74.19874315618013, 50)"></use><use href="#line4" stroke="hsl(65.625, 71.75989532355763%, 31.44010157323793%)" transform="translate(24.70477361248569, 0) rotate(16.534022806265746, 74.7047736124857, 50)"></use><use href="#line0" stroke="hsl(66.96428571428572, 41.29262866785595%, 50.89056637957502%)" transform="translate(25.203704050770916, 0) rotate(-18.607016410560366, 75.20370405077091, 50)"></use><use href="#line1" stroke="hsl(68.30357142857143, 75.57991248058454%, 41.08093358960464%)" transform="translate(25.712270634254693, 0) rotate(10.098594664015863, 75.7122706342547, 50)"></use><use href="#line2" stroke="hsl(69.64285714285714, 74.20947156162008%, 58.86767332638949%)" transform="translate(26.211333386168967, 0) rotate(-26.008603041736478, 76.21133338616897, 50)"></use><use href="#line3" stroke="hsl(70.98214285714286, 43.1634039964251%, 54.36822249769926%)" transform="translate(26.719113561257217, 0) rotate(-14.655528602355956, 76.71911356125722, 50)"></use><use href="#line4" stroke="hsl(72.32142857142857, 54.259870913195286%, 36.023884973923856%)" transform="translate(27.22514401756278, 0) rotate(14.112230303299107, 77.22514401756278, 50)"></use><use href="#line0" stroke="hsl(73.66071428571428, 43.221210932660135%, 55.607242765464605%)" transform="translate(27.724074455848008, 0) rotate(-10.169124438059733, 77.72407445584801, 50)"></use><use href="#line1" stroke="hsl(75, 77.60255526532075%, 33.32173575499958%)" transform="translate(28.232641039331785, 0) rotate(-5.238859236251166, 78.23264103933178, 50)"></use><use href="#line2" stroke="hsl(76.33928571428571, 44.277545811050686%, 46.95005151791139%)" transform="translate(28.73170379124606, 0) rotate(17.6754227363504, 78.73170379124606, 50)"></use><use href="#line3" stroke="hsl(77.67857142857143, 62.738365287528175%, 49.95572056644116%)" transform="translate(29.23948396633431, 0) rotate(-13.4532749474643, 79.2394839663343, 50)"></use><use href="#line4" stroke="hsl(79.01785714285714, 41.44873088609295%, 59.39661276960995%)" transform="translate(29.74551442263987, 0) rotate(23.289610900763705, 79.74551442263987, 50)"></use><use href="#line0" stroke="hsl(80.35714285714286, 74.75880523720168%, 56.091491934722825%)" transform="translate(30.2444448609251, 0) rotate(-14.741876315606872, 80.2444448609251, 50)"></use><use href="#line1" stroke="hsl(81.69642857142857, 58.545997478711584%, 59.33506148392704%)" transform="translate(30.753011444408877, 0) rotate(9.328236690902472, 80.75301144440888, 50)"></use><use href="#line2" stroke="hsl(83.03571428571429, 59.99534207527869%, 42.87068632547301%)" transform="translate(31.25207419632315, 0) rotate(-19.930528294740032, 81.25207419632315, 50)"></use><use href="#line3" stroke="hsl(84.375, 45.077230560812005%, 38.81116852354243%)" transform="translate(31.7598543714114, 0) rotate(10.021480263756445, 81.7598543714114, 50)"></use><use href="#line4" stroke="hsl(85.71428571428571, 41.176847875631395%, 56.07390569232776%)" transform="translate(32.26588482771696, 0) rotate(24.152312658207954, 82.26588482771696, 50)"></use><use href="#line0" stroke="hsl(87.05357142857143, 55.983420802189144%, 57.04168241881891%)" transform="translate(32.76481526600219, 0) rotate(-4.6013901834710715, 82.76481526600219, 50)"></use><use href="#line1" stroke="hsl(88.39285714285714, 67.19431465298985%, 59.275607736201394%)" transform="translate(33.273381849485965, 0) rotate(13.91083880348657, 83.27338184948596, 50)"></use><use href="#line2" stroke="hsl(89.73214285714286, 57.53375187663604%, 33.31805590892545%)" transform="translate(33.77244460140024, 0) rotate(22.53675823342052, 83.77244460140024, 50)"></use><use href="#line3" stroke="hsl(91.07142857142857, 62.21468673406487%, 53.062615248579206%)" transform="translate(34.28022477648849, 0) rotate(-5.9972080301136685, 84.2802247764885, 50)"></use><use href="#line4" stroke="hsl(92.41071428571429, 62.71977525588874%, 58.99406798522891%)" transform="translate(34.78625523279405, 0) rotate(-13.277712555022124, 84.78625523279405, 50)"></use><use href="#line0" stroke="hsl(93.75, 60.47542194704449%, 41.23696666993813%)" transform="translate(35.285185671079276, 0) rotate(20.964400458667463, 85.28518567107928, 50)"></use><use href="#line1" stroke="hsl(95.08928571428571, 52.611846555365354%, 59.807698937109166%)" transform="translate(35.79375225456305, 0) rotate(-20.49043136500513, 85.79375225456306, 50)"></use><use href="#line2" stroke="hsl(96.42857142857143, 66.37656346494202%, 36.13400998900491%)" transform="translate(36.292815006477326, 0) rotate(-6.359345981791616, 86.29281500647733, 50)"></use><use href="#line3" stroke="hsl(97.76785714285714, 76.98010312640272%, 33.272497373685425%)" transform="translate(36.800595181565576, 0) rotate(-21.56509610279057, 86.80059518156557, 50)"></use><use href="#line4" stroke="hsl(99.10714285714286, 43.548889543860064%, 51.829250006037554%)" transform="translate(37.306625637871136, 0) rotate(-1.2372890336870412, 87.30662563787114, 50)"></use><use href="#line0" stroke="hsl(100.44642857142857, 45.225552936695166%, 31.73022270525494%)" transform="translate(37.805556076156364, 0) rotate(3.355183580008319, 87.80555607615636, 50)"></use><use href="#line1" stroke="hsl(101.78571428571429, 44.66570669728821%, 34.05634292380128%)" transform="translate(38.31412265964014, 0) rotate(4.423293140298412, 88.31412265964013, 50)"></use><use href="#line2" stroke="hsl(103.125, 63.17582670992788%, 37.825131152197685%)" transform="translate(38.813185411554414, 0) rotate(-19.2307952522222, 88.81318541155441, 50)"></use><use href="#line3" stroke="hsl(104.46428571428571, 55.08507264035768%, 38.73334428553272%)" transform="translate(39.320965586642664, 0) rotate(-4.799920776449447, 89.32096558664267, 50)"></use><use href="#line4" stroke="hsl(105.80357142857143, 73.98697842354257%, 50.8984494619609%)" transform="translate(39.826996042948224, 0) rotate(20.079081315368093, 89.82699604294822, 50)"></use><use href="#line0" stroke="hsl(107.14285714285714, 61.6491790101259%, 45.540471614335864%)" transform="translate(40.32592648123345, 0) rotate(-19.111060003442322, 90.32592648123345, 50)"></use><use href="#line1" stroke="hsl(108.48214285714286, 50.75136611628886%, 48.37993379909221%)" transform="translate(40.83449306471723, 0) rotate(7.970605676167985, 90.83449306471724, 50)"></use><use href="#line2" stroke="hsl(109.82142857142857, 76.93561951611684%, 31.965760049738996%)" transform="translate(41.3335558166315, 0) rotate(-12.604032404475193, 91.3335558166315, 50)"></use><use href="#line3" stroke="hsl(111.16071428571429, 45.41895133147399%, 46.672131691621324%)" transform="translate(41.84133599171975, 0) rotate(-0.16777006492681323, 91.84133599171975, 50)"></use><use href="#line4" stroke="hsl(112.5, 58.134253127491846%, 36.822649925179846%)" transform="translate(42.34736644802531, 0) rotate(-5.41745823360375, 92.34736644802531, 50)"></use><use href="#line0" stroke="hsl(113.83928571428571, 58.95935127965183%, 33.19157129470828%)" transform="translate(42.84629688631054, 0) rotate(6.154890757499835, 92.84629688631054, 50)"></use><use href="#line1" stroke="hsl(115.17857142857143, 54.15931158808444%, 36.89901705955629%)" transform="translate(43.35486346979432, 0) rotate(-1.9450623092915187, 93.35486346979431, 50)"></use><use href="#line2" stroke="hsl(116.51785714285714, 74.8217991509878%, 49.638390758458215%)" transform="translate(43.85392622170859, 0) rotate(-19.708350256110705, 93.85392622170859, 50)"></use><use href="#line3" stroke="hsl(117.85714285714286, 42.961795776008394%, 47.241345540692144%)" transform="translate(44.36170639679684, 0) rotate(-4.704811928035287, 94.36170639679685, 50)"></use><use href="#line4" stroke="hsl(119.19642857142857, 77.10784956694167%, 42.787581372317284%)" transform="translate(44.8677368531024, 0) rotate(-17.20181742707532, 94.8677368531024, 50)"></use><use href="#line0" stroke="hsl(120.53571428571429, 46.38410768865523%, 59.051281008556884%)" transform="translate(45.36666729138763, 0) rotate(22.111237740282064, 95.36666729138763, 50)"></use><use href="#line1" stroke="hsl(121.875, 79.45164626989819%, 44.89976913957173%)" transform="translate(45.875233874871405, 0) rotate(-12.249710093096876, 95.87523387487141, 50)"></use><use href="#line2" stroke="hsl(123.21428571428571, 77.2673837149766%, 30.92768552509446%)" transform="translate(46.37429662678568, 0) rotate(4.445960710499161, 96.37429662678568, 50)"></use><use href="#line3" stroke="hsl(124.55357142857143, 42.67199551758135%, 56.96603316002503%)" transform="translate(46.88207680187393, 0) rotate(-2.6325826704941093, 96.88207680187392, 50)"></use><use href="#line4" stroke="hsl(125.89285714285714, 51.39624054477412%, 52.914311786493656%)" transform="translate(47.38810725817949, 0) rotate(-5.771601369748115, 97.38810725817949, 50)"></use><use href="#line0" stroke="hsl(127.23214285714286, 74.50964204899302%, 32.686674649442395%)" transform="translate(47.887037696464716, 0) rotate(21.01457223796597, 97.88703769646472, 50)"></use><use href="#line1" stroke="hsl(128.57142857142856, 40.622916045696904%, 55.911223555061426%)" transform="translate(48.39560427994849, 0) rotate(26.8830736975372, 98.39560427994849, 50)"></use><use href="#line2" stroke="hsl(129.91071428571428, 73.02278491096354%, 49.85233254628537%)" transform="translate(48.89466703186277, 0) rotate(11.769162827688419, 98.89466703186277, 50)"></use><use href="#line3" stroke="hsl(131.25, 53.11706210148357%, 36.77157950507564%)" transform="translate(49.40244720695102, 0) rotate(-24.677238880689128, 99.40244720695102, 50)"></use><use href="#line4" stroke="hsl(132.58928571428572, 54.85388960418298%, 41.72851033547581%)" transform="translate(49.908477663256576, 0) rotate(18.287028091062496, 99.90847766325658, 50)"></use><use href="#line0" stroke="hsl(133.92857142857144, 74.44200245266074%, 54.28361811523398%)" transform="translate(50.407408101541805, 0) rotate(2.8144694960007577, 100.4074081015418, 50)"></use><use href="#line1" stroke="hsl(135.26785714285714, 59.521485541465566%, 48.15412909681356%)" transform="translate(50.91597468502558, 0) rotate(8.825890163576155, 100.91597468502559, 50)"></use><use href="#line2" stroke="hsl(136.60714285714286, 63.800018642576404%, 53.576366798911764%)" transform="translate(51.415037436939855, 0) rotate(3.4126695131667297, 101.41503743693985, 50)"></use><use href="#line3" stroke="hsl(137.94642857142856, 45.47704924009626%, 38.20853575836658%)" transform="translate(51.922817612028105, 0) rotate(10.186069606857096, 101.9228176120281, 50)"></use><use href="#line4" stroke="hsl(139.28571428571428, 64.22113145252796%, 49.101378457333425%)" transform="translate(52.428848068333664, 0) rotate(23.70384914081371, 102.42884806833366, 50)"></use><use href="#line0" stroke="hsl(140.625, 61.98435243358526%, 59.06085327824742%)" transform="translate(52.92777850661889, 0) rotate(-26.112286461624876, 102.92777850661889, 50)"></use><use href="#line1" stroke="hsl(141.96428571428572, 65.71168108430373%, 54.999587991299165%)" transform="translate(53.43634509010267, 0) rotate(-13.070424684082694, 103.43634509010266, 50)"></use><use href="#line2" stroke="hsl(143.30357142857144, 74.10350943204709%, 46.476856760861%)" transform="translate(53.93540784201694, 0) rotate(-1.545125031435333, 103.93540784201694, 50)"></use><use href="#line3" stroke="hsl(144.64285714285714, 74.79156096676437%, 52.30669532491654%)" transform="translate(54.44318801710519, 0) rotate(-22.967561906101054, 104.4431880171052, 50)"></use><use href="#line4" stroke="hsl(145.98214285714286, 55.51950361748251%, 52.089599839321224%)" transform="translate(54.94921847341075, 0) rotate(-11.496199404032506, 104.94921847341075, 50)"></use><use href="#line0" stroke="hsl(147.32142857142856, 76.89287709287557%, 32.06620826521195%)" transform="translate(55.44814891169598, 0) rotate(-10.551209308759248, 105.44814891169598, 50)"></use><use href="#line1" stroke="hsl(148.66071428571428, 55.48260806692846%, 33.61861176859152%)" transform="translate(55.95671549517976, 0) rotate(14.870190806133849, 105.95671549517976, 50)"></use><use href="#line2" stroke="hsl(150, 76.90308669003258%, 45.05874991624097%)" transform="translate(56.45577824709403, 0) rotate(22.419863278389286, 106.45577824709403, 50)"></use><use href="#line3" stroke="hsl(151.33928571428572, 48.96929419936033%, 58.005127578457575%)" transform="translate(56.96355842218228, 0) rotate(8.670391880262102, 106.96355842218227, 50)"></use><use href="#line4" stroke="hsl(152.67857142857142, 48.76567141659557%, 44.53022825150944%)" transform="translate(57.46958887848784, 0) rotate(-11.130100743078206, 107.46958887848784, 50)"></use><use href="#line0" stroke="hsl(154.01785714285714, 73.93587548180084%, 47.5085986693525%)" transform="translate(57.96851931677307, 0) rotate(-18.22545320220909, 107.96851931677307, 50)"></use><use href="#line1" stroke="hsl(155.35714285714286, 46.773255312000856%, 31.898099448710862%)" transform="translate(58.477085900256846, 0) rotate(25.38558115664982, 108.47708590025684, 50)"></use><use href="#line2" stroke="hsl(156.69642857142858, 78.55174598877896%, 36.35000189018623%)" transform="translate(58.97614865217112, 0) rotate(4.54993843247685, 108.97614865217112, 50)"></use><use href="#line3" stroke="hsl(158.03571428571428, 42.876270745623586%, 41.717462148785096%)" transform="translate(59.48392882725937, 0) rotate(-9.76914515516259, 109.48392882725938, 50)"></use><use href="#line4" stroke="hsl(159.375, 45.50868066171306%, 54.64915976934357%)" transform="translate(59.98995928356493, 0) rotate(-4.755823118122457, 109.98995928356493, 50)"></use><use href="#line0" stroke="hsl(160.71428571428572, 53.79466480427488%, 42.453851785587375%)" transform="translate(60.48888972185016, 0) rotate(-10.743415497131064, 110.48888972185016, 50)"></use><use href="#line1" stroke="hsl(162.05357142857142, 51.23026550828263%, 56.85813523821705%)" transform="translate(60.997456305333934, 0) rotate(1.884366614882964, 110.99745630533394, 50)"></use><use href="#line2" stroke="hsl(163.39285714285714, 62.531232795266966%, 50.56077260079175%)" transform="translate(61.49651905724821, 0) rotate(-7.046621961670727, 111.49651905724821, 50)"></use><use href="#line3" stroke="hsl(164.73214285714286, 40.65316658044555%, 53.3635626441051%)" transform="translate(62.00429923233646, 0) rotate(-21.932782376748115, 112.00429923233645, 50)"></use><use href="#line4" stroke="hsl(166.07142857142858, 73.9936162313487%, 53.9717175395694%)" transform="translate(62.51032968864202, 0) rotate(8.632020719269718, 112.51032968864202, 50)"></use><use href="#line0" stroke="hsl(167.41071428571428, 76.11875778616096%, 30.16484966513372%)" transform="translate(63.009260126927245, 0) rotate(2.130150896919531, 113.00926012692724, 50)"></use><use href="#line1" stroke="hsl(168.75, 54.71957603977911%, 55.26414518802414%)" transform="translate(63.51782671041102, 0) rotate(-5.144170492339963, 113.51782671041101, 50)"></use><use href="#line2" stroke="hsl(170.08928571428572, 52.09332461347578%, 54.24248060428592%)" transform="translate(64.0168894623253, 0) rotate(12.80623427631292, 114.0168894623253, 50)"></use><use href="#line3" stroke="hsl(171.42857142857142, 58.4604788627691%, 56.90532511589399%)" transform="translate(64.52466963741354, 0) rotate(-15.018439272017849, 114.52466963741354, 50)"></use><use href="#line4" stroke="hsl(172.76785714285714, 55.993422176782374%, 38.747370525221925%)" transform="translate(65.0307000937191, 0) rotate(19.31030180429137, 115.0307000937191, 50)"></use><use href="#line0" stroke="hsl(174.10714285714286, 70.11358413068187%, 53.80095653456307%)" transform="translate(65.52963053200433, 0) rotate(1.8227960633359785, 115.52963053200433, 50)"></use><use href="#line1" stroke="hsl(175.44642857142858, 74.90054899600364%, 31.753336243228727%)" transform="translate(66.03819711548812, 0) rotate(20.089962610866365, 116.03819711548812, 50)"></use><use href="#line2" stroke="hsl(176.78571428571428, 46.767902273791584%, 46.78554826396119%)" transform="translate(66.53725986740238, 0) rotate(19.031473475517053, 116.53725986740238, 50)"></use><use href="#line3" stroke="hsl(178.125, 46.29553074592316%, 45.98347834440895%)" transform="translate(67.04504004249063, 0) rotate(-23.938067335631317, 117.04504004249063, 50)"></use><use href="#line4" stroke="hsl(179.46428571428572, 48.35923529462767%, 52.3514861602017%)" transform="translate(67.5510704987962, 0) rotate(25.01892357420889, 117.5510704987962, 50)"></use><use href="#line0" stroke="hsl(180.80357142857142, 63.59596668070491%, 50.53698207070117%)" transform="translate(68.05000093708142, 0) rotate(-13.450141435053593, 118.05000093708142, 50)"></use><use href="#line1" stroke="hsl(182.14285714285714, 55.076134493570166%, 57.641937001057826%)" transform="translate(68.5585675205652, 0) rotate(-8.235678840391376, 118.5585675205652, 50)"></use><use href="#line2" stroke="hsl(183.48214285714286, 54.68079535065455%, 45.9745057297492%)" transform="translate(69.05763027247947, 0) rotate(2.0264584372114065, 119.05763027247947, 50)"></use><use href="#line3" stroke="hsl(184.82142857142858, 51.83510442185592%, 39.934289178945335%)" transform="translate(69.56541044756771, 0) rotate(-11.76973481043465, 119.56541044756771, 50)"></use><use href="#line4" stroke="hsl(186.16071428571428, 63.38543194088316%, 59.824176336195706%)" transform="translate(70.07144090387328, 0) rotate(-9.8451046531798, 120.07144090387328, 50)"></use><use href="#line0" stroke="hsl(187.5, 62.8034031179481%, 39.42615353692233%)" transform="translate(70.57037134215851, 0) rotate(-9.340006014279382, 120.57037134215851, 50)"></use><use href="#line1" stroke="hsl(188.83928571428572, 50.72686805287317%, 33.17302124650116%)" transform="translate(71.0789379256423, 0) rotate(-19.160612360761426, 121.0789379256423, 50)"></use><use href="#line2" stroke="hsl(190.17857142857142, 72.55532708740819%, 30.754190503465306%)" transform="translate(71.57800067755656, 0) rotate(4.020173859917616, 121.57800067755656, 50)"></use><use href="#line3" stroke="hsl(191.51785714285714, 61.40004213121408%, 33.11675550487651%)" transform="translate(72.0857808526448, 0) rotate(26.025034685127792, 122.0857808526448, 50)"></use><use href="#line4" stroke="hsl(192.85714285714286, 79.87976131517603%, 36.23494217316134%)" transform="translate(72.59181130895037, 0) rotate(2.796481495095602, 122.59181130895037, 50)"></use><use href="#line0" stroke="hsl(194.19642857142858, 63.5161074801734%, 38.02393331740056%)" transform="translate(73.0907417472356, 0) rotate(9.337643949191502, 123.0907417472356, 50)"></use><use href="#line1" stroke="hsl(195.53571428571428, 54.13218353515818%, 51.55963274386211%)" transform="translate(73.59930833071938, 0) rotate(13.866187015416266, 123.59930833071938, 50)"></use><use href="#line2" stroke="hsl(196.875, 69.06678580234492%, 52.598014112007675%)" transform="translate(74.09837108263365, 0) rotate(-19.465020315599944, 124.09837108263365, 50)"></use><use href="#line3" stroke="hsl(198.21428571428572, 50.924409153252896%, 37.154715145569334%)" transform="translate(74.60615125772189, 0) rotate(6.1344709999241545, 124.60615125772189, 50)"></use><use href="#line4" stroke="hsl(199.55357142857142, 54.283180151874326%, 43.01482079708981%)" transform="translate(75.11218171402746, 0) rotate(-6.408994658409888, 125.11218171402746, 50)"></use><use href="#line0" stroke="hsl(200.89285714285714, 71.22473137948282%, 30.865293608439558%)" transform="translate(75.61111215231269, 0) rotate(23.65160015198351, 125.61111215231269, 50)"></use><use href="#line1" stroke="hsl(202.23214285714286, 45.86393272075131%, 32.4642732826821%)" transform="translate(76.11967873579647, 0) rotate(-4.807026991422333, 126.11967873579647, 50)"></use><use href="#line2" stroke="hsl(203.57142857142858, 42.81814780495435%, 47.70559402406522%)" transform="translate(76.61874148771074, 0) rotate(-19.3282387238502, 126.61874148771074, 50)"></use><use href="#line3" stroke="hsl(204.91071428571428, 56.89927994151916%, 32.20921881456826%)" transform="translate(77.12652166279898, 0) rotate(14.584091380652936, 127.12652166279898, 50)"></use><use href="#line4" stroke="hsl(206.25, 58.845346856828456%, 45.18602097633971%)" transform="translate(77.63255211910455, 0) rotate(-13.241859572551032, 127.63255211910455, 50)"></use><use href="#line0" stroke="hsl(207.58928571428572, 49.06130301427729%, 40.26873416364268%)" transform="translate(78.13148255738977, 0) rotate(10.864175176762174, 128.13148255738977, 50)"></use><use href="#line1" stroke="hsl(208.92857142857142, 69.90036181157944%, 31.816670941622494%)" transform="translate(78.64004914087356, 0) rotate(-10.697047309749195, 128.64004914087354, 50)"></use><use href="#line2" stroke="hsl(210.26785714285714, 69.27586051125391%, 56.2002295096541%)" transform="translate(79.13911189278782, 0) rotate(-20.867771899075127, 129.1391118927878, 50)"></use><use href="#line3" stroke="hsl(211.60714285714286, 64.80659656708876%, 58.024876447693%)" transform="translate(79.64689206787607, 0) rotate(-1.4916126837455081, 129.64689206787608, 50)"></use><use href="#line4" stroke="hsl(212.94642857142858, 42.27313804010862%, 50.12963127774505%)" transform="translate(80.15292252418163, 0) rotate(-23.09492221254274, 130.15292252418163, 50)"></use><use href="#line0" stroke="hsl(214.28571428571428, 63.22488393441351%, 42.0571084427271%)" transform="translate(80.65185296246686, 0) rotate(-7.899581956179301, 130.65185296246688, 50)"></use><use href="#line1" stroke="hsl(215.625, 40.2813064611862%, 47.08627149304116%)" transform="translate(81.16041954595065, 0) rotate(10.470432888803224, 131.16041954595065, 50)"></use><use href="#line2" stroke="hsl(216.96428571428572, 60.92663596388732%, 58.83354935250051%)" transform="translate(81.65948229786491, 0) rotate(-3.051602779358447, 131.6594822978649, 50)"></use><use href="#line3" stroke="hsl(218.30357142857142, 43.48746094519739%, 38.90364350946695%)" transform="translate(82.16726247295315, 0) rotate(-24.813600474014084, 132.16726247295315, 50)"></use><use href="#line4" stroke="hsl(219.64285714285714, 76.91950168344121%, 48.32837275857291%)" transform="translate(82.67329292925872, 0) rotate(23.7852276795781, 132.6732929292587, 50)"></use><use href="#line0" stroke="hsl(220.98214285714286, 71.87919439067083%, 55.630795598767094%)" transform="translate(83.17222336754395, 0) rotate(-19.90177278273152, 133.17222336754395, 50)"></use><use href="#line1" stroke="hsl(222.32142857142858, 56.821034265896344%, 54.655589802161025%)" transform="translate(83.68078995102773, 0) rotate(-16.879798449558116, 133.68078995102775, 50)"></use><use href="#line2" stroke="hsl(223.66071428571428, 41.14204397088348%, 49.47500666517519%)" transform="translate(84.179852702942, 0) rotate(-14.638973605554103, 134.17985270294201, 50)"></use><use href="#line3" stroke="hsl(225, 58.07373969075048%, 53.94414968886935%)" transform="translate(84.68763287803024, 0) rotate(24.797015631490233, 134.68763287803023, 50)"></use><use href="#line4" stroke="hsl(226.33928571428572, 40.001236086151614%, 58.29086429764931%)" transform="translate(85.19366333433581, 0) rotate(-19.39109122390016, 135.1936633343358, 50)"></use><use href="#line0" stroke="hsl(227.67857142857142, 59.837692595195406%, 34.24918232460898%)" transform="translate(85.69259377262104, 0) rotate(-16.127349829622258, 135.69259377262102, 50)"></use><use href="#line1" stroke="hsl(229.01785714285714, 52.920566899129334%, 43.12605524276569%)" transform="translate(86.20116035610482, 0) rotate(-10.884972169367018, 136.20116035610482, 50)"></use><use href="#line2" stroke="hsl(230.35714285714286, 63.83296319982536%, 55.52720922811926%)" transform="translate(86.70022310801909, 0) rotate(11.461814892933397, 136.7002231080191, 50)"></use><use href="#line3" stroke="hsl(231.69642857142858, 71.77601167688672%, 53.98641476840114%)" transform="translate(87.20800328310733, 0) rotate(-25.36746811085566, 137.20800328310733, 50)"></use><use href="#line4" stroke="hsl(233.03571428571428, 48.01739201630002%, 34.219064949265096%)" transform="translate(87.7140337394129, 0) rotate(2.9717262205200896, 137.7140337394129, 50)"></use><use href="#line0" stroke="hsl(234.375, 62.095876475765536%, 56.04227851988725%)" transform="translate(88.21296417769813, 0) rotate(-18.111621902424986, 138.21296417769813, 50)"></use><use href="#line1" stroke="hsl(235.71428571428572, 53.45111195108871%, 30.774698778901797%)" transform="translate(88.72153076118191, 0) rotate(-21.759577600383338, 138.7215307611819, 50)"></use><use href="#line2" stroke="hsl(237.05357142857142, 60.09436903180542%, 41.85181971782491%)" transform="translate(89.22059351309618, 0) rotate(9.526281274220665, 139.22059351309616, 50)"></use><use href="#line3" stroke="hsl(238.39285714285714, 78.44595303666381%, 56.15810189591662%)" transform="translate(89.72837368818442, 0) rotate(20.026889356313042, 139.72837368818443, 50)"></use><use href="#line4" stroke="hsl(239.73214285714286, 77.98689817745867%, 47.043638480078386%)" transform="translate(90.23440414448999, 0) rotate(22.089771423935048, 140.23440414449, 50)"></use><use href="#line0" stroke="hsl(241.07142857142858, 49.705778506278826%, 35.04770275741305%)" transform="translate(90.73333458277521, 0) rotate(7.7366561257427975, 140.73333458277523, 50)"></use><use href="#line1" stroke="hsl(242.41071428571428, 70.4400696872443%, 41.645962071304645%)" transform="translate(91.241901166259, 0) rotate(23.78171814665898, 141.241901166259, 50)"></use><use href="#line2" stroke="hsl(243.75, 56.69198023232824%, 40.01895836202803%)" transform="translate(91.74096391817326, 0) rotate(-20.154025468493924, 141.74096391817326, 50)"></use><use href="#line3" stroke="hsl(245.08928571428572, 76.14143644029298%, 51.56820236535884%)" transform="translate(92.24874409326151, 0) rotate(7.988807065936328, 142.2487440932615, 50)"></use><use href="#line4" stroke="hsl(246.42857142857142, 50.52677330649017%, 47.54706305314577%)" transform="translate(92.75477454956707, 0) rotate(-17.01819793348011, 142.75477454956706, 50)"></use><use href="#line0" stroke="hsl(247.76785714285714, 77.04044028892973%, 36.63780563011778%)" transform="translate(93.2537049878523, 0) rotate(2.122599624859859, 143.2537049878523, 50)"></use><use href="#line1" stroke="hsl(249.10714285714286, 56.90028128430627%, 52.31892351483907%)" transform="translate(93.76227157133609, 0) rotate(-16.18870717462508, 143.7622715713361, 50)"></use><use href="#line2" stroke="hsl(250.44642857142858, 49.401005229325534%, 55.08496588179014%)" transform="translate(94.26133432325035, 0) rotate(24.23361530616971, 144.26133432325037, 50)"></use><use href="#line3" stroke="hsl(251.78571428571428, 57.436715577792185%, 56.683664901023924%)" transform="translate(94.7691144983386, 0) rotate(-22.05223455738481, 144.76911449833858, 50)"></use><use href="#line4" stroke="hsl(253.125, 53.65904159240725%, 38.78026500737984%)" transform="translate(95.27514495464416, 0) rotate(-2.4265574987213725, 145.27514495464416, 50)"></use><use href="#line0" stroke="hsl(254.46428571428572, 72.71010845520445%, 39.8128973125842%)" transform="translate(95.77407539292939, 0) rotate(-15.928873000553667, 145.77407539292938, 50)"></use><use href="#line1" stroke="hsl(255.80357142857142, 67.8281680838878%, 50.92846944392413%)" transform="translate(96.28264197641317, 0) rotate(-12.919334413083515, 146.28264197641317, 50)"></use><use href="#line2" stroke="hsl(257.1428571428571, 56.21770664330426%, 40.30613583012406%)" transform="translate(96.78170472832744, 0) rotate(-13.976340669187241, 146.78170472832744, 50)"></use><use href="#line3" stroke="hsl(258.4821428571429, 46.82043198331124%, 57.003199837095295%)" transform="translate(97.28948490341568, 0) rotate(-9.187229344093108, 147.28948490341568, 50)"></use><use href="#line4" stroke="hsl(259.82142857142856, 69.76058983075797%, 48.17433515206379%)" transform="translate(97.79551535972125, 0) rotate(-21.108142233361153, 147.79551535972126, 50)"></use><use href="#line0" stroke="hsl(261.1607142857143, 69.48784940413037%, 39.797154508489655%)" transform="translate(98.29444579800648, 0) rotate(-9.099809926142356, 148.29444579800648, 50)"></use><use href="#line1" stroke="hsl(262.5, 46.83034503722054%, 42.27739724818393%)" transform="translate(98.80301238149026, 0) rotate(17.765121688034014, 148.80301238149025, 50)"></use><use href="#line2" stroke="hsl(263.8392857142857, 43.56280167013668%, 36.78824894728456%)" transform="translate(99.30207513340453, 0) rotate(-14.68576973880663, 149.30207513340451, 50)"></use><use href="#line3" stroke="hsl(265.17857142857144, 70.01529581064561%, 37.07016625685025%)" transform="translate(99.80985530849277, 0) rotate(13.781189309113323, 149.80985530849279, 50)"></use><use href="#line4" stroke="hsl(266.5178571428571, 41.12178314810612%, 54.026371208153236%)" transform="translate(100.31588576479834, 0) rotate(12.059903572686338, 150.31588576479834, 50)"></use><use href="#line0" stroke="hsl(267.8571428571429, 76.41941840291116%, 47.86655109811784%)" transform="translate(100.81481620308357, 0) rotate(-5.191773338180415, 150.81481620308358, 50)"></use><use href="#line1" stroke="hsl(269.19642857142856, 53.434804285563324%, 56.19114135260957%)" transform="translate(101.32338278656735, 0) rotate(25.40496185402619, 151.32338278656735, 50)"></use><use href="#line2" stroke="hsl(270.5357142857143, 61.80000149719997%, 38.29820826504048%)" transform="translate(101.82244553848162, 0) rotate(-1.9551389641029395, 151.82244553848162, 50)"></use><use href="#line3" stroke="hsl(271.875, 56.63478065303409%, 39.00782100947348%)" transform="translate(102.33022571356986, 0) rotate(11.533350036202961, 152.33022571356986, 50)"></use><use href="#line4" stroke="hsl(273.2142857142857, 72.25490190312684%, 32.80277765117654%)" transform="translate(102.83625616987543, 0) rotate(-3.6381394078829103, 152.8362561698754, 50)"></use><use href="#line0" stroke="hsl(274.55357142857144, 43.39630806053545%, 51.14374211617464%)" transform="translate(103.33518660816065, 0) rotate(-6.872695001106468, 153.33518660816065, 50)"></use><use href="#line1" stroke="hsl(275.8928571428571, 57.09569704600681%, 45.34921893343221%)" transform="translate(103.84375319164444, 0) rotate(0.2630695515956667, 153.84375319164445, 50)"></use><use href="#line2" stroke="hsl(277.2321428571429, 54.72331698976937%, 44.80574237165371%)" transform="translate(104.3428159435587, 0) rotate(16.465027127867486, 154.34281594355872, 50)"></use><use href="#line3" stroke="hsl(278.57142857142856, 63.65871025626938%, 58.42550637136448%)" transform="translate(104.85059611864695, 0) rotate(11.319311373671844, 154.85059611864693, 50)"></use><use href="#line4" stroke="hsl(279.9107142857143, 44.62464501383805%, 58.32880979708173%)" transform="translate(105.35662657495251, 0) rotate(-2.5255877863166987, 155.35662657495251, 50)"></use><use href="#line0" stroke="hsl(281.25, 78.4714577262655%, 52.83045978581067%)" transform="translate(105.85555701323774, 0) rotate(-24.14187525373304, 155.85555701323773, 50)"></use><use href="#line1" stroke="hsl(282.5892857142857, 76.36155202838866%, 31.21577716522891%)" transform="translate(106.36412359672153, 0) rotate(-19.78918091497387, 156.36412359672153, 50)"></use><use href="#line2" stroke="hsl(283.92857142857144, 70.62894784778328%, 55.00305247667408%)" transform="translate(106.8631863486358, 0) rotate(-20.387429600258756, 156.8631863486358, 50)"></use><use href="#line3" stroke="hsl(285.2678571428571, 78.48702543098369%, 44.943257289219915%)" transform="translate(107.37096652372404, 0) rotate(2.635972165481501, 157.37096652372404, 50)"></use><use href="#line4" stroke="hsl(286.6071428571429, 49.72498323346468%, 55.40535956437162%)" transform="translate(107.8769969800296, 0) rotate(8.430633033666645, 157.87699698002962, 50)"></use><use href="#line0" stroke="hsl(287.94642857142856, 54.26962443497065%, 37.74145869545292%)" transform="translate(108.37592741831483, 0) rotate(-25.897109271185293, 158.37592741831483, 50)"></use><use href="#line1" stroke="hsl(289.2857142857143, 72.02111504700946%, 46.7139826267024%)" transform="translate(108.88449400179861, 0) rotate(24.15055861078197, 158.8844940017986, 50)"></use><use href="#line2" stroke="hsl(290.625, 47.27794323651469%, 57.52471880106437%)" transform="translate(109.38355675371288, 0) rotate(-5.014724451924419, 159.38355675371287, 50)"></use><use href="#line3" stroke="hsl(291.9642857142857, 58.160013982582555%, 46.08763426465803%)" transform="translate(109.89133692880112, 0) rotate(-21.500433586104375, 159.89133692880114, 50)"></use><use href="#line4" stroke="hsl(293.30357142857144, 71.11947217024746%, 36.51986688289812%)" transform="translate(110.39736738510669, 0) rotate(14.485127329547147, 160.3973673851067, 50)"></use><use href="#line0" stroke="hsl(294.6428571428571, 41.36546603783187%, 37.999690291469044%)" transform="translate(110.89629782339192, 0) rotate(-10.514100803449715, 160.89629782339193, 50)"></use><use href="#line1" stroke="hsl(295.9821428571429, 63.367628355034064%, 50.90266375741024%)" transform="translate(111.4048644068757, 0) rotate(26.61158513793476, 161.4048644068757, 50)"></use><use href="#line2" stroke="hsl(297.32142857142856, 54.5756629341421%, 31.254929292483958%)" transform="translate(111.90392715878997, 0) rotate(-12.947505174722396, 161.90392715878997, 50)"></use><use href="#line3" stroke="hsl(298.6607142857143, 77.52923354536733%, 41.736330407549694%)" transform="translate(112.41170733387821, 0) rotate(-8.341089828721177, 162.4117073338782, 50)"></use></svg>