<svg xmlns="http://www.w3.org/2000/svg" id="svg" width="800" height="800" style="background: rgb(17, 15, 26); --frame-c: #070708;" stroke-linecap="round"><defs><path id="line0" d="M-20,0 L-19.89884314510098,1 L-19.79781019469985,2 L-19.69702490152699,3 L-19.59661071496364,4 L-19.496690629831846,5 L-19.397387035741197,6 L-19.298821567176834,7 L-19.201114954512434,8 L-19.104386876130597,9 L-19.008755811831787,10 L-18.914338897711392,11 L-18.821251782682662,12 L-18.729608486821245,13 L-18.639521261704854,14 L-18.55110045291912,15 L-18.464454364898053,16 L-18.379689128264644,17 L-18.296908569834134,18 L-18.216214085439145,19 L-18.137704515732455,20 L-18.06147602511957,21 L-17.987621983969355,22 L-17.916232854246985,23 L-17.84739607870938,24 L-17.781195973798745,25 L-17.71771362636547,26 L-17.657026794346883,27 L-17.599209811523504,28 L-17.544333496469456,29 L-17.49246506580856,30 L-17.44366805188238,31 L-17.398002224931066,32 L-17.355523519882254,33 L-17.316283967837794,34 L-17.280331632342158,35 L-17.247710550510593,36 L-17.21846067908918,37 L-17.192617845512796,38 L-17.170213704021005,39 L-17.15127569688557,40 L-17.135827020797084,41 L-17.12388659845195,42 L-17.115469055374426,43 L-17.110584702002193,44 L-17.109239521057358,45 L-17.111435160218367,46 L-17.11716893010181,47 L-17.126433807556566,48 L-17.139218444266298,49 L-17.155507180649717,50 L-17.175280065041616,51 L-17.198512878131147,52 L-17.22517716262747,53 L-17.255240258116366,54 L-17.288665341065165,55 L-17.325411469926955,56 L-17.36543363528887,57 L-17.408682815002997,58 L-17.45510603423237,59 L-17.504646430338504,60 L-17.557243322531054,61 L-17.612832286194166,62 L-17.671345231798586,63 L-17.73271048830281,64 L-17.796852890941164,65 L-17.86369387329123,66 L-17.933151563507888,67 L-18.005140884606103,68 L-18.07957365866957,69 L-18.15635871485766,70 L-18.23540200107828,71 L-18.316606699189933,72 L-18.399873343591835,73 L-18.485099943056834,74 L-18.57218210565792,75 L-18.661013166635257,76 L-18.751484319047215,77 L-18.843484747045224,78 L-18.93690176160937,79 L-19.03162093857832,80 L-19.12752625880464,81 L-19.22450025026372,82 L-19.322424131942327,83 L-19.42117795933049,84 L-19.520640771338527,85 L-19.620690738459253,86 L-19.721205311993888,87 L-19.8220613741589,88 L-19.923135388889875,89 L-20.02430355315778,90 L-20.125441948612146,91 L-20.2264266933656,92 L-20.327134093733658,93 L-20.42744079574402,94 L-20.527223936229774,95 L-20.626361293321406,96 L-20.724731436153306,97 L-20.822213873601395,98 L-20.91868920186968,99 L-21.014039250744982,100 L-21.108147228340666,101 L-21.200897864152093,102 L-21.29217755024858,103 L-21.381874480428912,104 L-21.469878787169943,105 L-21.556082676200592,106 L-21.64038055853633,107 L-21.72266917981249,108 L-21.80284774675795,109 L-21.880818050654298,110 L-21.956484587629205,111 L-22.02975467563675,112 L-22.100538567981324,113 L-22.16874956324612,114 L-22.234304111491518,115 L-22.297121916593312,116 L-22.357126034595435,117 L-22.41424296795666,118 L-22.468402755575923,119 L-22.51953905848591,120 L-22.567589241109996,121 L-22.612494447982996,122 L-22.65419967584175,123 L-22.69265384099724,124 L-22.727809841905735,125 L-22.75962461686227,126 L-22.788059196745866,127 L-22.81307875275182,128 L-22.83465263905265,129 L-22.852754430335384,130 L-22.867361954169276,131 L-22.878457318164255,132 L-22.886026931886867,133 L-22.890061523506866,134 L-22.890556151154023,135 L-22.887510208971324,136 L-22.88092742785706,137 L-22.87081587089494,138 L-22.857187923477817,139 L-22.84006027813715,140 L-22.819453914096712,141 L-22.7953940715757,142 L-22.767910220872583,143 L-22.737036026267702,144 L-22.70280930478873,145 L-22.66527197988952,146 L-22.624470030099154,147 L-22.58045343270396,148 L-22.5332761025316,149 L-22.482995825912163,150 L-22.429674189897103,151 L-22.373376506822833,152 L-22.314171734311262,153 L-22.252132390805343,154 L-22.18733446674303,155 L-22.119857331478524,156 L-22.049783636064706,157 L-21.977199212015957,158 L-21.902192966175274,159 L-21.824856771814506,160 L-21.745285356101085,161 L-21.6635761840691,162 L-21.579829339236806,163 L-21.494147401016832,164 L-21.406635319069224,165 L-21.31740028475125,166 L-21.22655159982138,167 L-21.1342005425583,168 L-21.040460231458937,169 L-20.94544548668244,170 L-20.84927268940986,171 L-20.752059639291733,172 L-20.653925410158262,173 L-20.55499020416874,174 L-20.455375204578957,175 L-20.35520242730686,176 L-20.254594571478304,177 L-20.153674869135966,178 L-20.052566934295513,179 L-19.951394611533885,180 L-19.850281824295173,181 L-19.74935242309989,182 L-19.648730033843595,183 L-19.548537906370587,184 L-19.44889876350831,185 L-19.349934650747187,186 L-19.251766786750196,187 L-19.15451541487513,188 L-19.058299655891556,189 L-18.963237362072732,190 L-18.869444972841332,191 L-18.777037372145713,192 L-18.686127747741438,193 L-18.596827452550425,194 L-18.509245868267552,195 L-18.423490271381755,196 L-18.339665701775736,197 L-18.25787483406526,198 L-18.178217851835566,199 L-18.100792324929024,200 L-18.025693089934265,201 L-17.953012134023226,202 L-17.882838482278363,203 L-17.81525808864806,204 L-17.750353730663793,205 L-17.688204908047997,206 L-17.628887745336854,207 L-17.572474898637253,208 L-17.519035466632147,209 L-17.4686349059433,210 L-17.42133495095512,211 L-17.377193538197748,212 L-17.336264735382066,213 L-17.298598675173498,214 L-17.264241493785775,215 L-17.23323527446983,216 L-17.205617995967096,217 L-17.181423485990276,218 L-17.16068137978865,219 L-17.14341708384857,220 L-17.129651744773717,221 L-17.11940222338314,222 L-17.11268107405888,223 L-17.109496529368393,224 L-17.109852489980707,225 L-17.11374851988858,226 L-17.121179846942574,227 L-17.132137368696302,228 L-17.146607663555827,229 L-17.164573007219406,230 L-17.18601139438757,231 L-17.21089656571684,232 L-17.239198039984153,233 L-17.270881151422543,234 L-17.30590709218238,235 L-17.344232959866122,236 L-17.385811810078383,237 L-17.43059271392697,238 L-17.478520820404384,239 L-17.52953742357345,240 L-17.58358003447476,241 L-17.64058245766783,242 L-17.700474872312224,243 L-17.763183917689368,244 L-17.828632783060257,245 L-17.89674130174899,246 L-17.967426049336932,247 L-18.04060044584721,248 L-18.116174861794338,249 L-18.194056727969123,250 L-18.274150648824403,251 L-18.35635851932263,252 L-18.440579645102286,253 L-18.52671086581589,254 L-18.614646681488516,255 L-18.704279381742076,256 L-18.795499177727052,257 L-18.88819433660013,258 L-18.982251318382932,259 L-19.077554915034323,260 L-19.173988391565825,261 L-19.271433629027403,262 L-19.369771269188398,263 L-19.46888086073644,264 L-19.56864100681524,265 L-19.668929513720553,266 L-19.769623540572194,267 L-19.870599749778755,268 L-19.971734458110728,269 L-20.072903788196992,270 L-20.173983820259114,271 L-20.27485074389757,272 L-20.375381009744007,273 L-20.47545148079377,274 L-20.574939583233327,275 L-20.673723456577875,276 L-20.771682102935202,277 L-20.86869553521295,278 L-20.96464492408781,279 L-21.0594127435566,280 L-21.15288291489089,281 L-21.24494094881896,282 L-21.335474085760833,283 L-21.424371433944643,284 L-21.511524105235218,285 L-21.596825348508396,286 L-21.680170680407834,287 L-21.761458013324038,288 L-21.840587780438916,289 L-21.9174630576827,290 L-21.99198968245378,291 L-22.064076368956144,292 L-22.133634820013043,293 L-22.200579835220015,294 L-22.264829415304696,295 L-22.326304862565703,296 L-22.384930877267458,297 L-22.44063564987296,298 L-22.493350949001474,299 L-22.54301220500346,300 L-22.589558589050306,301 L-22.632933087642037,302 L-22.673082572441736,303 L-22.709957865351086,304 L-22.74351379874742,305 L-22.773709270808396,306 L-22.80050729585659,307 L-22.823875049662334,308 L-22.84378390964928,309 L-22.860209489953487,310 L-22.873131671293052,311 L-22.88253462561171,312 L-22.88840683546624,313 L-22.890741108133867,314 L-22.889534584422464,315 L-22.88478874217271,316 L-22.876509394447908,317 L-22.86470668241371,318 L-22.849395062916468,319 L-22.83059329077539,320 L-22.80832439581025,321 L-22.782615654632718,322 L-22.753498557235936,323 L-22.72100876842321,324 L-22.68518608412309,325 L-22.64607438264432,326 L-22.603721570930414,327 L-22.55817952587963,328 L-22.509504030802262,329 L-22.457754707093052,330 L-22.40299494120245,331 L-22.34529180699613,332 L-22.284715983597888,333 L-22.221341668816567,334 L-22.155246488263007,335 L-22.086511400268385,336 L-22.015220596720376,337 L-21.94146139993863,338 L-21.865324155715832,339 L-21.78690212265544,340 L-21.7062913579415,341 L-21.623590599680654,342 L-21.5389011459603,343 L-21.452326730771077,344 L-21.363973396945728,345 L-21.27394936626987,346 L-21.18236490692385,347 L-21.08933219841801,348 L-20.9949651941868,349 L-20.899379482010104,350 L-20.80269214243263,351 L-20.705021605354908,352 L-20.60648750497144,353 L-20.507210533233813,354 L-20.40731229201812,355 L-20.306915144177875,356 L-20.20614206366482,357 L-20.10511648490122,358 L-20.003962151588116,359 L-19.902802965134768,360 L-19.801762832894937,361 L-19.70096551639585,362 L-19.60053447974582,363 L-19.500592738406148,364 L-19.40126270851256,365 L-19.302666056930757,366 L-19.204923552229708,367 L-19.10815491675527,368 L-19.01247867998528,369 L-18.918012033345747,370 L-18.824870686666046,371 L-18.733168726448806,372 L-18.643018476128248,373 L-18.554530358487995,374 L-18.467812760406982,375 L-18.38297190009909,376 L-18.3001116970091,377 L-18.219333644524387,378 L-18.14073668565818,379 L-18.064417091856782,380 L-17.990468345079073,381 L-17.91898102329278,382 L-17.85004268952782,383 L-17.78373778462253,384 L-17.720147523794182,385 L-17.65934979716053,386 L-17.60141907433412,387 L-17.54642631320636,388 L-17.494438873032948,389 L-17.445520431927225,390 L-17.399730908862445,391 L-17.357126390278516,392 L-17.317759061383143,393 L-17.28167714223145,394 L-17.24892482866247,395 L-17.219542238164745,396 L-17.19356536073743,397 L-17.171026014807044,398 L-17.15195180825387,399 L-17.136366104595773,400 L-17.124287994370782,401 L-17.11573227175359,402 L-17.110709416434542,403 L-17.10922558078331,404 L-17.111282582313013,405 L-17.116877901454004,406 L-17.12600468464001,407 L-17.138651752702902,408 L-17.154803614565786,409 L-17.17444048621762,410 L-17.19753831494616,411 L-17.224068808799533,412 L-17.25399947124032,413 L-17.28729364094977,414 L-17.32391053673333,415 L-17.363805307472493,416 L-17.40692908706182,417 L-17.453229054263822,418 L-17.50264849740834,419 L-17.555126883857277,420 L-17.610599934149498,421 L-17.668999700735128,422 L-17.73025465120282,423 L-17.794289755897992,424 L-17.861026579824788,425 L-17.930383378719142,426 L-18.00227519917526,427 L-18.07661398270294,428 L-18.153308673588203,429 L-18.23226533042515,430 L-18.313387241182454,431 L-18.39657504166348,432 L-18.481726837215025,433 L-18.56873832753551,434 L-18.65750293442982,435 L-18.747911932354256,436 L-18.839854581591727,437 L-18.93321826389407,438 L-19.027888620425312,439 L-19.123749691836945,440 L-19.220684060303626,441 L-19.318572993345324,442 L-19.417296589259795,443 L-19.516733923987122,444 L-19.6167631992266,445 L-19.717261891624425,446 L-19.818106902849465,447 L-19.91917471037333,448 L-20.02034151877003,449 L-20.121483411349885,450 L-20.222476501941966,451 L-20.323197086639183,452 L-20.423521795320088,453 L-20.523327742761843,454 L-20.622492679159265,455 L-20.720895139865547,456 L-20.81841459417125,457 L-20.91493159293937,458 L-21.010327914915568,459 L-21.10448671153444,460 L-21.197292650044414,461 L-21.28863205477591,462 L-21.378393046379845,463 L-21.46646567886585,464 L-21.552742074272345,465 L-21.63711655480356,466 L-21.71948577227161,467 L-21.799748834685133,468 L-21.877807429829318,469 L-21.9535659456861,470 L-22.026931587546937,471 L-22.097814491674693,472 L-22.166127835375512,473 L-22.231787943345726,474 L-22.294714390163684,475 L-22.35483009880079,476 L-22.41206143503125,477 L-22.466338297624787,478 L-22.517594204211886,479 L-22.565766372716368,480 L-22.610795798255598,481 L-22.65262732541409,482 L-22.691209715801982,483 L-22.72649571081565,484 L-22.75844208952362,485 L-22.78700972160677,486 L-22.81216361528809,487 L-22.83387296019324,488 L-22.8521111650894,489 L-22.866855890456208,490 L-22.87808907584887,491 L-22.885796962019956,492 L-22.88997010777275,493 L-22.890603401525553,494 L-22.887696067572705,495 L-22.881251667034743,496 L-22.871278093496475,497 L-22.85778756333832,498 L-22.84079660077277,499 L-22.820326017604305,500 L-22.796400887737516,501 L-22.769050516464727,502 L-22.738308404570663,503 L-22.70421220729819,504 L-22.66680368822534,505 L-22.62612866811015,506 L-22.582236968765983,507 L-22.535182352036,508 L-22.485022453941664,509 L-22.431818714085793,510 L-22.37563630039675,511 L-22.316544029305856,512 L-22.25461428145589,513 L-22.189922913043844,514 L-22.12254916290656,515 L-22.05257555546307,516 L-21.980087799632507,517 L-21.90517468385139,518 L-21.827927967318885,519 L-21.748442267603284,520 L-21.66681494474729,521 L-21.583145982014152,522 L-21.497537863420664,523 L-21.410095448207066,524 L-21.320925842397603,525 L-21.23013826760897,526 L-21.137843927267596,527 L-21.04415587039926,528 L-20.94918885315822,529 L-20.853059198265257,530 L-20.75588465252689,531 L-20.657784242610273,532 L-20.558878129250388,533 L-20.459287460068193,534 L-20.35913422117992,535 L-20.258541087779353,536 L-20.15763127387604,537 L-20.05652838137354,538 L-19.95535624867256,539 L-19.85423879898439,540 L-19.753299888540468,541 L-19.65266315488398,542 L-19.55245186542934,543 L-19.452788766475003,544 L-19.353795932854627,545 L-19.255594618410637,546 L-19.15830510747345,547 L-19.062046567528206,548 L-18.9669369032495,549 L-18.873092612082896,550 L-18.780628641550138,551 L-18.68965824845277,552 L-18.60029286014677,553 L-18.512641938057943,554 L-18.42681284360537,555 L-18.342910706697076,556 L-18.26103829695907,557 L-18.181295897855392,558 L-18.10378118385339,559 L-18.028589100784732,560 L-17.95581174954864,561 L-17.88553827329979,562 L-17.8178547482591,563 L-17.75284407828113,564 L-17.690585893307205,565 L-17.63115645182873,566 L-17.574628547480035,567 L-17.521071419875312,568 L-17.470550669798715,569 L-17.42312817885162,570 L-17.378862033655402,571 L-17.337806454702577,572 L-17.300011729943485,573 L-17.265524153189844,574 L-17.234385967410603,575 L-17.20663531298961,576 L-17.182306181008396,577 L-17.16142837161135,578 L-17.14402745750428,579 L-17.130124752631033,580 L-17.11973728606659,581 L-17.11287778115857,582 L-17.109554639942722,583 L-17.10977193285149,584 L-17.113529393728232,585 L-17.120822420153235,586 L-17.131642079081097,587 L-17.145975117782594,588 L-17.163803980077624,589 L-17.18510682783932,590 L-17.209857567743033,591 L-17.238025883227383,592 L-17.269577271628265,593 L-17.304473086440293,594 L-17.34267058465394,595 L-17.384122979110376,596 L-17.428779495809888,597 L-17.47658543610368,598 L-17.52748224369288,599 L-17.58140757635269,600 L-17.63829538229379,601 L-17.698075981067554,602 L-17.760676148915877,603 L-17.826019208461098,604 L-17.89402512262623,605 L-17.964610592670347,606 L-18.037689160219156,607 L-18.113171313165655,608 L-18.190964595311303,609 L-18.270973719613288,610 L-18.353100684899232,611 L-18.437244895906396,612 L-18.523303286498276,613 L-18.61117044590773,614 L-18.700738747852014,615 L-18.791898482361486,616 L-18.88453799016062,617 L-18.978543799436657,618 L-19.073800764828373,619 L-19.17019220846476,620 L-19.26760006288082,621 L-19.365905015635455,622 L-19.464986655454275,623 L-19.564723619718364,624 L-19.6649937431183,625 L-19.765674207291397,626 L-19.866641691258828,627 L-19.967772522478406,628 L-20.06894282832801,629 L-20.170028687834,630 L-20.270906283458974,631 L-20.371452052762717,632 L-20.471542839750782,633 L-20.57105604572516,634 L-20.66986977945236,635 L-20.767863006464918,636 L-20.864915697313506,637 L-20.96090897458798,638 L-21.055725258527342,639 L-21.149248411040265,640 L-21.2413638779597,641 L-21.331958829357436,642 L-21.420922297746635,643 L-21.50814531400313,644 L-21.593521040838986,645 L-21.676944903664804,646 L-21.758314718680523,647 L-21.8375308180378,648 L-21.91449617192065,649 L-21.98911650739486,650 L-22.061300423880517,651 L-22.130959505106308,652 L-22.198008427408382,653 L-22.262365064241195,654 L-22.323950586772227,655 L-22.38268956043746,656 L-22.43851003733928,657 L-22.49134364437367,658 L-22.541125666978697,659 L-22.58779512840176,660 L-22.631294864388483,661 L-22.6715715932018,662 L-22.7085759808854,663 L-22.74226270169165,664 L-22.772590493599992,665 L-22.799522208857734,666 L-22.823024859481414,667 L-22.843069657662955,668 L-22.859632051031124,669 L-22.872691752725125,670 L-22.882232766243458,671 L-22.888243405037635,672 L-22.89071630682675,673 L-22.88964844261534,674 L-22.885041120403525,675 L-22.876899983584888,676 L-22.865235004034005,677 L-22.85006046989216,678 L-22.831394968066142,679 L-22.809261361461626,680 L-22.78368676097896,681 L-22.754702492305707,682 L-22.722344057546604,683 L-22.686651091737897,684 L-22.64766731429941,685 L-22.6054404754837,686 L-22.56002229788798,687 L-22.511468413100395,688 L-22.459838293558295,689 L-22.40519517970193,690 L-22.34760600251282,691 L-22.287141301531662,692 L-22.223875138456233,693 L-22.15788500642506,694 L-22.089251735098014,695 L-22.018059391650088,696 L-21.944395177799613,697 L-21.868349322997076,698 L-21.790014973905304,699 L-21.709488080306457,700 L-21.626867277575553,701 L-21.54225376586445,702 L-21.45575118614434,703 L-21.367465493258496,704 L-21.277504826140827,705 L-21.185979375359253,706 L-21.093001248146,707 L-20.99868433108027,708 L-20.90314415059142,709 L-20.806497731453547,710 L-20.708863453444742,711 L-20.610360906346703,712 L-20.511110743462172,713 L-20.411234533829756,714 L-20.310854613317034,715 L-20.210093934774427,716 L-20.109075917433334,717 L-20.007924295732998,718 L-19.9067629677613,719 L-19.805715843495083,720 L-19.704906693025936,721 L-19.604458994957312,722 L-19.504495785158653,723 L-19.405139506061875,724 L-19.30651185668466,725 L-19.208733643564415,726 L-19.111924632785335,727 L-19.016203403279953,728 L-18.921687201584763,729 L-18.828491798227883,730 L-18.736731345924607,731 L-18.64651823975465,732 L-18.557962979492185,733 L-18.471174034257473,734 L-18.386257709655734,735 L-18.303318017566067,736 L-18.22245654873993,737 L-18.143772348365154,738 L-18.06736179474797,739 L-17.993318481261653,740 L-17.921733101706337,741 L-17.852693339220437,742 L-17.786283758879783,743 L-17.72258570411598,744 L-17.661677197080856,745 L-17.60363284307911,746 L-17.54852373918613,747 L-17.496417387162946,748 L-17.44737761077505,749 L-17.401464477616244,750 L-17.358734225533343,751 L-17.319239193741865,752 L-17.283027758717015,753 L-17.25014427493857,754 L-17.220629020562185,755 L-17.19451814808367,756 L-17.171843640056725,757 L-17.152633269918308,758 L-17.13691056796964,759 L-17.12469479255453,760 L-17.116000906470312,761 L-17.1108395586403,762 L-17.109217071070177,763 L-17.111135431104326,764 L-17.11659228899159,765 L-17.125580960763422,766 L-17.138090436420903,767 L-17.154105393420632,768 L-17.173606215442902,769 L-17.196569016419257,770 L-17.222965669789925,771 L-17.252763842955353,772 L-17.28592703687959,773 L-17.32241463079702,774 L-17.362181931967772,775 L-17.405180230420687,776 L-17.45135685861697,777 L-17.500655255961327,778 L-17.55301503808162,779 L-17.608372070792196,780 L-17.666658548650204,781 L-17.727803078008822,782 L-17.791730764465527,783 L-17.858363304598363,784 L-17.927619081877875,785 L-17.999413266637116,786 L-18.073657919977403,787 L-18.150262101482465,788 L-18.22913198060908,789 L-18.310170951617753,790 L-18.393279751902682,791 L-18.478356583576016,792 L-18.565297238157562,793 L-18.653995224217123,794 L-18.74434189781319,795 L-18.836226595568185,796 L-18.92953677021726,797 L-19.02415812846463,798 L-19.119974770978555,799" stroke-width="41.068048426502116" fill="none"></path><path id="line1" d="M-20,0 L-19.87932186425145,1 L-19.758791544128762,2 L-19.638556674202125,3 L-19.518764527152193,4 L-19.399561833379458,5 L-19.281094601277857,6 L-19.163507938392744,7 L-19.046945873682297,8 L-18.93155118110005,9 L-18.81746520471466,10 L-18.704827685581098,11 L-18.59377659057531,12 L-18.484447943402085,13 L-18.376975657982985,14 L-18.27149137442857,15 L-18.168124297795703,16 L-18.067001039827517,17 L-17.968245463869863,18 L-17.871978533154206,19 L-17.778318162632786,20 L-17.68737907454754,21 L-17.59927265790972,22 L-17.51410683206226,23 L-17.4319859144921,24 L-17.353010493054285,25 L-17.277277302764446,26 L-17.204879107310475,27 L-17.135904585428634,28 L-17.070438222283165,29 L-17.008560205982555,30 L-16.950346329359114,31 L-16.895867897132238,32 L-16.845191638569034,33 L-16.798379625749337,34 L-16.755489197535145,35 L-16.716572889337705,36 L-16.681678368768193,37 L-16.65084837725085,38 L-16.62412067767009,39 L-16.601528008115675,40 L-16.583098041782673,41 L-16.568853353075223,42 L-16.558811389955743,43 L-16.55298445257333,44 L-16.55137967819764,45 L-16.553999032476614,46 L-16.5608393070288,47 L-16.571892123373225,48 L-16.587143943191993,49 L-16.606576084913016,50 L-16.63016474659262,51 L-16.657881035069934,52 L-16.689691001357414,53 L-16.725555682224094,54 L-16.76543114792069,55 L-16.809268555988023,56 L-16.85701421108295,57 L-16.90860963074843,58 L-16.96399161704722,59 L-17.02309233397146,60 L-17.085839390533277,61 L-17.152155929434713,62 L-17.2219607212083,63 L-17.295168263713,64 L-17.371688886863613,65 L-17.451428862465455,66 L-17.534290519019667,67 L-17.62017236135856,68 L-17.708969194964535,69 L-17.800572254820203,70 L-17.894869338631924,71 L-17.991744944263598,72 L-18.09108041121232,73 L-18.192754065952688,74 L-18.29664137097162,75 L-18.402615077311268,76 L-18.51054538043305,77 L-18.620300079212004,78 L-18.73174473786662,79 L-18.844742850625863,80 L-18.959156008931675,81 L-19.074844070972148,82 L-19.19166533333773,83 L-19.309476704590168,84 L-19.42813388053163,85 L-19.547491520959312,86 L-19.667403427689003,87 L-19.787722723629575,88 L-19.908302032689072,89 L-20.02899366029197,90 L-20.14964977428658,91 L-20.270122586020943,92 L-20.390264531365442,93 L-20.509928451460418,94 L-20.628967772967364,95 L-20.747236687602946,96 L-20.864590330735904,97 L-20.980884958828117,98 L-21.095978125502466,99 L-21.209728856021826,100 L-21.321997819965492,101 L-21.432647501891534,102 L-21.541542369776,103 L-21.648549041022704,104 L-21.753536445840226,105 L-21.856375987786027,106 L-21.956941701281,107 L-22.05511040590154,108 L-22.1507618572602,109 L-22.243778894289985,110 L-22.33404758275203,111 L-22.421457354790803,112 L-22.50590114436588,113 L-22.587275518394467,114 L-22.665480803444005,115 L-22.74042120781964,116 L-22.81200493889709,117 L-22.880144315557104,118 L-22.944755875583898,119 L-23.005760477895926,120 L-23.063083399483794,121 L-23.116654426936613,122 L-23.16640794244465,123 L-23.212283004172935,124 L-23.254223420907383,125 L-23.292177820882024,126 L-23.32609971470297,127 L-23.355947552292122,128 L-23.381684773780812,129 L-23.403279854291075,130 L-23.420706342549693,131 L-23.433942893287675,132 L-23.44297329338556,133 L-23.447786481732447,134 L-23.44837656277449,135 L-23.4447428137362,136 L-23.43688968550576,137 L-23.42482679718324,138 L-23.40856892429841,139 L-23.388135980712555,140 L-23.363552994226488,141 L-23.334850075924628,142 L-23.302062383292682,143 L-23.265230077154122,144 L-23.2243982724782,145 L-23.17961698311975,146 L-23.13094106055847,147 L-23.07843012671272,148 L-23.022148500910127,149 L-22.96216512110446,150 L-22.898553459435227,151 L-22.831391432233538,152 L-22.760761304584303,153 L-22.686749589561806,154 L-22.60944694226201,155 L-22.528948048761396,156 L-22.44535151013836,157 L-22.358759721699215,158 L-22.269278747556765,159 L-22.177018190715003,160 L-22.08209105881916,161 L-21.98461362573546,162 L-21.884705289130164,163 L-21.782488424222386,164 L-21.678088233889724,165 L-21.571632595310405,166 L-21.46325190332974,167 L-21.35307891074272,168 L-21.24124856568847,169 L-21.127897846355637,170 L-21.01316559320123,171 L-20.897192338888445,172 L-20.780120136151712,173 L-20.66209238379986,174 L-20.5432536510705,175 L-20.423749500550812,176 L-20.30372630988154,177 L-20.18333109246272,178 L-20.06271131738063,179 L-19.942014728776613,180 L-19.82138916487896,181 L-19.700982376919583,182 L-19.580941848157234,183 L-19.461414613228936,184 L-19.34254707805096,185 L-19.224484840489865,186 L-19.107372512023346,187 L-18.991353540609232,188 L-18.876570034979682,189 L-18.763162590575757,190 L-18.6512701173356,191 L-18.541029669547108,192 L-18.43257627797359,193 L-18.32604278445796,194 L-18.22155967920808,195 L-18.119254940962588,196 L-18.019253880232924,197 L-17.921678985813664,198 L-17.826649774749022,199 L-17.734282645939434,200 L-17.644690737567466,201 L-17.557983788517674,202 L-17.474268003960205,203 L-17.393645925262728,204 L-17.31621630439011,205 L-17.242073982945573,206 L-17.171309776001618,207 L-17.104010360862897,208 L-17.040258170897374,209 L-16.98013129456573,210 L-16.92370337977279,211 L-16.871043543658033,212 L-16.822216287935746,213 L-16.777281419888496,214 L-16.736293979110663,215 L-16.69930417009185,216 L-16.666357300722638,217 L-16.637493726798095,218 L-16.61274880258698,219 L-16.592152837527177,220 L-16.575731059100413,221 L-16.563503581931773,222 L-16.555485383151776,223 L-16.55168628405128,224 L-16.552110938051612,225 L-16.556758825004724,226 L-16.565624251830307,227 L-16.578696359489093,228 L-16.595959136283827,229 L-16.617391437471593,230 L-16.64296701116348,231 L-16.672654530479868,232 L-16.70641763192192,233 L-16.74421495991235,234 L-16.786000217450812,235 L-16.831722222821938,236 L-16.881324972286546,237 L-16.934747708679218,238 L-16.991924995828228,239 L-17.05278679870666,240 L-17.117258569216574,241 L-17.1852613375011,242 L-17.256711808672623,243 L-17.331522464838628,244 L-17.409601672300152,245 L-17.490853793791633,246 L-17.575179305624566,247 L-17.662474919591617,248 L-17.752633709481717,249 L-17.84554524205134,250 L-17.9410957122914,251 L-18.03916808282414,252 L-18.139642227259323,253 L-18.242395077333995,254 L-18.34730077365575,255 L-18.454230819864733,256 L-18.56305424002562,257 L-18.673637739056755,258 L-18.78584586599995,259 L-18.899541179930992,260 L-19.01458441830757,261 L-19.13083466754848,262 L-19.248149535635143,263 L-19.36638532652403,264 L-19.485397216156322,265 L-19.605039429849302,266 L-19.725165420852093,267 L-19.845628049847104,268 L-19.96627976517731,269 L-20.086972783578556,270 L-20.207559271195606,271 L-20.3278915246601,272 L-20.447822152008726,273 L-20.567204253219952,274 L-20.685891600148157,275 L-20.803738815634848,276 L-20.9206015515775,277 L-21.036336665737913,278 L-21.150802397073566,279 L-21.26385853937716,280 L-21.37536661301171,281 L-21.48519003453076,282 L-21.59319428397603,283 L-21.699247069647562,284 L-21.80321849014448,285 L-21.904981193477997,286 L-22.00441053306164,287 L-22.101384720387763,288 L-22.195784974203214,289 L-22.287495666001544,290 L-22.37640446165344,291 L-22.462402459002003,292 L-22.545384321254275,293 L-22.625248406005625,294 L-22.701896889738997,295 L-22.775235887646474,296 L-22.845175568626445,297 L-22.911630265315452,298 L-22.97451857902001,299 L-23.033763479419825,300 L-23.089292398920303,301 L-23.141037321538782,302 L-23.188934866215597,303 L-23.232926364447962,304 L-23.27295793215155,305 L-23.308980535661746,306 L-23.340950051793772,307 L-23.368827321888052,308 L-23.392578199774697,309 L-23.41217359359826,310 L-23.427589501451667,311 L-23.438807040775494,312 L-23.4458124714868,313 L-23.44859721280897,314 L-23.4471578537821,315 L-23.441496157441023,316 L-23.43161905865577,317 L-23.41753865563725,318 L-23.399272195118456,319 L-23.376842051229353,320 L-23.350275698091387,321 L-23.319605676165107,322 L-23.28486955239218,323 L-23.24610987418058,324 L-23.203374117289336,325 L-23.15671462767666,326 L-23.10618855738271,327 L-23.051857794525446,328 L-22.993788887495484,329 L-22.93205296344259,330 L-22.86672564115384,331 L-22.797886938430054,332 L-22.725621174073993,333 L-22.65001686461038,334 L-22.571166615864215,335 L-22.489167009530235,336 L-22.404118484872384,337 L-22.31612521569832,338 L-22.22529498275948,339 L-22.131739041733173,340 L-22.035571986948263,341 L-21.936911611021465,342 L-21.835878760576108,343 L-21.732597188220137,344 L-21.627193400964636,345 L-21.519796505268566,346 L-21.410538048899504,347 L-21.29955185980406,348 L-21.186973882185384,349 L-21.07294200998853,350 L-20.957595917997594,351 L-20.84107689075159,352 L-20.723527649488535,353 L-20.6050921773298,354 L-20.485915542918786,355 L-20.366143722729966,356 L-20.245923422265967,357 L-20.12540189636167,358 L-20.004726768815463,359 L-19.88404585156852,360 L-19.763506963653693,361 L-19.64325775013565,362 L-19.523445501264153,363 L-19.404216972061903,364 L-19.28571820256802,365 L-19.168094338957207,366 L-19.05148945575388,367 L-18.936046379358878,368 L-18.82190651310498,369 L-18.709209664055496,370 L-18.598093871758117,371 L-18.48869523916371,372 L-18.381147765917238,373 L-18.275583184224935,374 L-18.17213079749885,375 L-18.070917321976307,376 L-17.972066731508384,377 L-17.87570010570745,378 L-17.78193548163973,379 L-17.690887709244745,380 L-17.602668310658423,381 L-17.51738534361246,382 L-17.435143269077116,383 L-17.356042823309572,384 L-17.28018089446462,385 L-17.20765040391879,386 L-17.138540192453284,387 L-17.072934911435127,388 L-17.010914919129817,389 L-16.95255618227252,390 L-16.897930183018307,391 L-16.847103831385436,392 L-16.800139383298983,393 L-16.757094364335096,394 L-16.718021499259347,395 L-16.682968647445517,396 L-16.65197874425382,397 L-16.62508974844048,398 L-16.60233459566297,399 L-16.583741158137986,400 L-16.569332210501443,401 L-16.5591254019124,402 L-16.553133234435045,403 L-16.551363047725236,404 L-16.55381701004034,405 L-16.56049211558338,406 L-16.57138018818476,407 L-16.586467891317078,408 L-16.605736744430658,409 L-16.62916314558995,410 L-16.656718400382935,411 L-16.688368757068197,412 L-16.72407544791657,413 L-16.763794736696784,414 L-16.807477972246858,415 L-16.855071648065703,416 L-16.906517467851877,417 L-16.9617524169093,418 L-17.02070883933233,419 L-17.083314520875824,420 L-17.149492777408547,421 L-17.21916254884163,422 L-17.292238498417063,423 L-17.368631117234546,424 L-17.448246833888692,425 L-17.530988129082306,426 L-17.61675365507532,427 L-17.70543835982312,428 L-17.796933615652133,429 L-17.891127352315184,430 L-17.9879041942635,431 L-18.087145601967343,432 L-18.188730017112118,433 L-18.292533011492093,434 L-18.398427439419407,435 L-18.50628359346162,436 L-18.615969363317127,437 L-18.72735039763372,438 L-18.84029026857223,439 L-18.954650638913538,440 L-19.0702914315044,441 L-19.18707100083442,442 L-19.304846306534106,443 L-19.42347308858142,444 L-19.542806044002276,445 L-19.662699004848506,446 L-19.783005117235327,447 L-19.903577021218982,448 L-20.02426703129424,449 L-20.144927317290684,450 L-20.265410085446167,451 L-20.385567759435705,452 L-20.50525316113402,453 L-20.624319690890328,454 L-20.74262150709458,455 L-20.86001370481522,456 L-20.976352493289575,457 L-21.09149537204958,458 L-21.205301305467017,459 L-21.317630895504543,460 L-21.428346552460837,461 L-21.53731266350079,462 L-21.64439575876425,463 L-21.749464674849943,464 L-21.852390715474215,465 L-21.953047809107893,466 L-22.051312663398136,467 L-22.147064916186164,468 L-22.240187282935842,469 L-22.330565700392572,470 L-22.418089466296518,471 L-22.502651374979028,472 L-22.584147848676178,473 L-22.662479064398568,474 L-22.737549076202036,475 L-22.809265932709394,476 L-22.877541789739396,477 L-22.94229301790487,478 L-23.003440305048258,479 L-23.060908753389093,480 L-23.114627971264415,481 L-23.164532159349747,482 L-23.21056019125506,483 L-23.25265568839693,484 L-23.290767089055276,485 L-23.32484771153001,486 L-23.35485581132027,487 L-23.38075463225624,488 L-23.40251245152085,489 L-23.420102618506235,490 L-23.43350358745745,491 L-23.442698943863274,492 L-23.44767742456196,493 L-23.448432931537198,494 L-23.444964539387414,495 L-23.437276496459287,496 L-23.42537821964403,497 L-23.409284282842904,498 L-23.389014399115986,499 L-23.36459339653616,500 L-23.336051187777812,501 L-23.30342273347755,502 L-23.266747999411805,503 L-23.22607190754374,504 L-23.18144428099948,505 L-23.132919783040983,506 L-23.08055785011041,507 L-23.0244226190279,508 L-22.964582848431984,509 L-22.90111183455886,510 L-22.834087321463674,511 L-22.763591405793743,512 L-22.689710436230467,513 L-22.612534907722967,514 L-22.532159350643102,515 L-22.448682214997568,516 L-22.362205749838974,517 L-22.272835878023514,518 L-22.180682066468734,519 L-22.085857192070225,520 L-21.98847740344157,521 L-21.888661978646788,522 L-21.786533179099635,523 L-21.682216099808656,524 L-21.575838516151464,525 L-21.467530727365816,526 L-21.357425396949427,527 L-21.245657390163718,528 L-21.13236360884075,529 L-21.017682823695598,530 L-20.901755504349577,531 L-20.784723647272532,532 L-20.666730601854894,533 L-20.547920894822635,534 L-20.428440053210068,535 L-20.30843442610745,536 L-20.188051005401643,537 L-20.06743724572943,538 L-19.946740883864024,539 L-19.82610975775599,540 L-19.705691625450257,541 L-19.585633984100976,542 L-19.466083889305953,543 L-19.347187774981933,544 L-19.229091274001366,545 L-19.11193903981034,546 L-18.99587456924621,547 L-18.881040026771903,548 L-18.767576070342237,549 L-18.655621679115516,550 L-18.545313983221444,551 L-18.436788095793826,552 L-18.330176947473937,553 L-18.22561112358707,554 L-18.12321870419184,555 L-18.023125107198148,556 L-17.925452934745906,557 L-17.830321823032765,558 L-17.737848295774707,559 L-17.6481456214791,560 L-17.561323674704894,561 L-17.477488801480074,562 L-17.39674368904104,563 L-17.319187240053598,564 L-17.24491445146956,565 L-17.174016298167352,566 L-17.106579621519167,567 L-17.042687023021152,568 L-16.982416763116888,569 L-16.92584266533814,570 L-16.873034025880273,571 L-16.82405552872306,572 L-16.778967166400907,573 L-16.737824166519495,574 L-16.700676924108866,575 L-16.66757093989583,576 L-16.638546764571238,577 L-16.613639949120483,578 L-16.592881001277966,579 L-16.57629534815895,580 L-16.563903305114525,581 L-16.555720050847828,582 L-16.551755608822045,583 L-16.55201483498292,584 L-16.556497411810817,585 L-16.56519784870966,586 L-16.578105488732202,587 L-16.595204521633484,588 L-16.616474003236384,589 L-16.641887881085623,590 L-16.67141502635876,591 L-16.70501927199512,592 L-16.742659456995906,593 L-16.78428947684128,594 L-16.829858339962648,595 L-16.87931023020093,596 L-16.93258457517439,597 L-16.989616120472235,598 L-17.0503350095831,599 L-17.114666869460535,600 L-17.182532901620693,601 L-17.253849978660615,602 L-17.328530746078926,603 L-17.406483729274136,604 L-17.487613445589616,605 L-17.571820521267902,606 L-17.659001813171134,607 L-17.749050535118485,608 L-17.841856388685887,609 L-17.937305698307814,610 L-18.035281550515627,611 L-18.135663937141956,612 L-18.238329902315698,613 L-18.34315369306758,614 L-18.450006913361836,615 L-18.55875868136527,616 L-18.669275789761162,617 L-18.78142286891156,618 L-18.89506255266815,619 L-19.010055646628636,620 L-19.126261298632453,621 L-19.243537171287063,622 L-19.361739616313454,623 L-19.48072385049733,624 L-19.600344133030436,625 L-19.720453944024822,626 L-19.840906163981384,627 L-19.961553253992857,628 L-20.08224743646055,629 L-20.202840876103373,630 L-20.323185861037608,631 L-20.443134983705484,632 L-20.562541321431013,633 L-20.681258616381882,634 L-20.799141454717013,635 L-20.916045444700337,636 L-21.03182739356262,637 L-21.146345482894684,638 L-21.259459442357237,639 L-21.371030721494503,640 L-21.48092265944118,641 L-21.589000652314947,642 L-21.695132318089357,643 L-21.79918765874528,644 L-21.901039219502216,645 L-22.00056224493447,646 L-22.097634831780944,647 L-22.192138078261376,648 L-22.283956229716182,649 L-22.372976820391404,650 L-22.459090811195228,651 L-22.54219272325721,652 L-22.622180767126707,653 L-22.698956967452265,654 L-22.7724272829891,655 L-22.842501721787926,656 L-22.909094451423808,657 L-22.972123904130168,658 L-23.031512876709073,659 L-23.087188625095536,660 L-23.139082953459855,661 L-23.187132297739026,662 L-23.231277803494724,663 L-23.271465398002665,664 L-23.30764585648491,665 L-23.339774862404077,666 L-23.367813061745547,667 L-23.391726111221224,668 L-23.411484720335753,669 L-23.427064687263723,670 L-23.438446928493875,671 L-23.445617502204016,672 L-23.448567625338008,673 L-23.44729368436392,674 L-23.44179723970014,675 L-23.432085023804067,676 L-23.418168932925692,677 L-23.40006601253618,678 L-23.377798436449282,679 L-23.351393479661223,680 L-23.3208834849422,681 L-23.286305823220562,682 L-23.247702847808092,683 L-23.20512184252248,684 L-23.158614963770574,685 L-23.108239176663304,686 L-23.054056185240533,687 L-22.996132356891337,688 L-22.934538641062243,689 L-22.869350482353035,690 L-22.800647728106547,691 L-22.72851453060566,692 L-22.65303924399728,693 L-22.574314316069536,694 L-22.492436175014834,695 L-22.40750511131735,696 L-22.319625154909733,697 L-22.22890394774947,698 L-22.135452611970912,699 L-22.039385613774584,700 L-21.94082062322039,701 L-21.8398783700965,702 L-21.736682496040473,703 L-21.631359403093704,704 L-21.524038098874694,705 L-21.41485003856092,706 L-21.303928963872632,707 L-21.191410739255975,708 L-21.077433185466038,709 L-20.96213591075367,710 L-20.845660139862815,711 L-20.728148541047876,712 L-20.609745051322925,713 L-20.490594700156876,714 L-20.370843431830522,715 L-20.250637926673026,716 L-20.13012542139687,717 L-20.009453528751294,718 L-19.88877005671513,719 L-19.768222827450526,720 L-19.647959496239256,721 L-19.528127370623494,722 L-19.408873229972475,723 L-19.29034314569612,724 L-19.172682302325846,725 L-19.056034819681642,726 L-18.940543576343337,727 L-18.826350034642193,728 L-18.713594067387227,729 L-18.60241378653855,730 L-18.492945374037422,731 L-18.385322915000472,732 L-18.279678233482155,733 L-18.17614073100679,734 L-18.074837228067853,735 L-17.975891808788745,736 L-17.879425668935262,737 L-17.785556967465922,738 L-17.69440068180203,739 L-17.606068466994707,740 L-17.52066851896141,741 L-17.438305441959482,742 L-17.35908012045899,743 L-17.28308959557189,744 L-17.210426946188782,745 L-17.141181174968914,746 L-17.075437099323054,747 L-17.013275247522774,748 L-16.95477176006338,749 L-16.899998296401318,750 L-16.849021947180326,751 L-16.801905152053756,752 L-16.758705623203827,753 L-16.71947627465141,754 L-16.684265157442965,755 L-16.653115400794043,756 L-16.626065159261337,757 L-16.60314756600819,758 L-16.58439069222055,759 L-16.56981751272332,760 L-16.559445877839053,761 L-16.553288491523542,762 L-16.55135289580506,763 L-16.55364146154632,764 L-16.56015138554047,765 L-16.570874693944656,766 L-16.585798252047013,767 L-16.604903780355002,768 L-16.628167876985536,769 L-16.655562046329347,770 L-16.687052733954552,771 L-16.72260136770662,772 L-16.762164404954454,773 L-16.805693385924666,774 L-16.853134993058735,775 L-16.90443111632035,776 L-16.95951892437294,777 L-17.018330941540206,778 L-17.080795130455385,779 L-17.14683498029801,780 L-17.216369600510102,781 L-17.28931381987701,782 L-17.365578290851452,783 L-17.445069598993133,784 L-17.527690377389725,785 L-17.613339425919165,786 L-17.701911835207166,787 L-17.79329911512806,788 L-17.88738932769165,789 L-17.984067224153236,790 L-18.083214386178938,791 L-18.18470937089332,792 L-18.288427859631753,793 L-18.394242810215218,794 L-18.502024612561083,795 L-18.611641247439266,796 L-18.722958448179273,797 L-18.835839865130072,798 L-18.950147232671384,799" stroke-width="41.085437424643715" fill="none"></path><path id="line2" d="M-20,0 L-19.76650410598583,1 L-19.533294215243874,2 L-19.300655980728095,3 L-19.068874355185066,4 L-18.83823324212249,5 L-18.609015148062895,6 L-18.38150083650847,7 L-18.155968984040893,8 L-17.932695838977363,9 L-17.71195488300095,10 L-17.494016496179736,11 L-17.27914762578504,12 L-17.06761145931439,13 L-16.859667102119758,14 L-16.655569260035893,15 L-16.45556792739753,16 L-16.25990808082759,17 L-16.068829379171447,18 L-15.882565869944816,19 L-15.701345702654809,20 L-15.525390849345326,21 L-15.354916832709048,22 L-15.19013246209909,23 L-15.031239577763666,24 L-14.87843280361701,25 L-14.731899308849428,26 L-14.591818578668438,27 L-14.45836219445184,28 L-14.331693623581982,29 L-14.21196801921866,30 L-14.09933203025589,31 L-13.993923621695366,32 L-13.895871905656568,33 L-13.805296983230576,34 L-13.722309797371238,35 L-13.647011997003936,36 L-13.579495812518362,37 L-13.519843942797811,38 L-13.468129453923407,39 L-13.424415689677279,40 L-13.388756193954354,41 L-13.361194645177783,42 L-13.341764802798329,43 L-13.33049046594326,44 L-13.327385444265406,45 L-13.332453541028046,46 L-13.345688548446397,47 L-13.36707425529137,48 L-13.396584466746297,49 L-13.434183036492309,50 L-13.479823910983052,51 L-13.533451185854531,52 L-13.594999174400957,53 L-13.66439248803275,54 L-13.741546128618136,55 L-13.826365592595224,56 L-13.918746986727065,57 L-14.018577155357857,58 L-14.12573381901449,59 L-14.2400857241836,60 L-14.361492804080719,61 L-14.489806350214558,62 L-14.624869194536323,63 L-14.766515901950925,64 L-14.914572972954268,65 L-15.068859056148465,66 L-15.229185170374612,67 L-15.395354936191076,68 L-15.56716481641376,69 L-15.744404365423698,70 L-15.926856486936623,71 L-16.114297699918765,72 L-16.30649841232318,73 L-16.503223202311293,74 L-16.704231106615204,75 L-16.909275915687573,76 L-17.11810647527752,77 L-17.330466994063183,78 L-17.546097356964083,79 L-17.76473344374959,80 L-17.986107452553185,81 L-18.209948227896223,82 L-18.435981592819527,83 L-18.663930684715854,84 L-18.89351629445197,85 L-19.124457208364944,86 L-19.35647055271369,87 L-19.58927214016395,88 L-19.822576817882233,89 L-20.056098816812376,90 L-20.289552101706914,91 L-20.52265072148447,92 L-20.755109159484103,93 L-20.98664268318749,94 L-21.216967692980653,95 L-21.445802069528046,96 L-21.67286551933345,97 L-21.89787991806444,98 L-22.120569651219952,99 L-22.340661951723547,100 L-22.557887234028975,101 L-22.77197942432879,102 L-22.982676286461448,103 L-23.189719743117845,104 L-23.392856191953733,105 L-23.59183681622089,106 L-23.786417889536512,107 L-23.97636107441756,108 L-24.161433714214382,109 L-24.341409118086,110 L-24.516066838668046,111 L-24.68519294209323,112 L-24.84858027003357,113 L-25.00602869344342,114 L-25.157345357692556,115 L-25.302344918788968,116 L-25.44084977040207,117 L-25.572690261408248,118 L-25.697704903692262,119 L-25.815740569950037,120 L-25.9266526812504,121 L-26.030305384126233,122 L-26.12657171697797,123 L-26.215333765585683,124 L-26.296482807539252,125 L-26.369919445409728,126 L-26.435553728498753,127 L-26.4933052630169,128 L-26.54310331055605,129 L-26.58488687473506,130 L-26.618604775912715,131 L-26.6442157138764,132 L-26.661688318429675,133 L-26.67100118781686,134 L-26.672142914937503,135 L-26.66511210131865,136 L-26.649917358827803,137 L-26.626577299124456,138 L-26.59512051086314,139 L-26.555585524675905,140 L-26.50802076597709,141 L-26.452484495648278,142 L-26.38904473867598,143 L-26.317779200829534,144 L-26.238775173481265,145 L-26.15212942668546,146 L-26.057948090647148,147 L-25.95634652572589,148 L-25.84744918113375,149 L-25.731389442500564,150 L-25.60830946849324,151 L-25.478360016689155,152 L-25.341700258916987,153 L-25.198497586291115,154 L-25.048927404178446,155 L-24.893172917348767,156 L-24.73142490557182,157 L-24.56388148993593,158 L-24.390747890174453,159 L-24.212236173297256,160 L-24.02856499383518,161 L-23.839959326015524,162 L-23.64665018819681,163 L-23.448874359900138,164 L-23.246874091783898,165 L-23.04089680891701,166 L-22.83119480771416,167 L-22.618024946904207,168 L-22.401648332910405,169 L-22.182330000027655,170 L-21.960338585788637,171 L-21.735946001916442,172 L-21.5094271012667,173 L-21.2810593411672,174 L-21.05112244356737,175 L-20.81989805241386,176 L-20.58766938867191,177 L-20.354720903415117,178 L-20.121337929408416,179 L-19.887806331611134,180 L-19.654412157028148,181 L-19.421441284338087,182 L-19.1891790737277,183 L-18.957910017361282,184 L-18.727917390913397,185 L-18.49948290659156,186 L-18.27288636807402,187 L-18.048405327785247,188 L-17.826314746928933,189 L-17.606886658694854,190 L-17.390389835052282,191 L-17.17708945753791,192 L-16.967246792441625,193 L-16.76111887078798,194 L-16.55895817350532,195 L-16.361012322168246,196 L-16.1675237756921,197 L-15.978729533351164,198 L-15.794860844484159,199 L-15.61614292524272,200 L-15.442794682729783,201 L-15.275028446865756,202 L-15.113049710310904,203 L-14.957056876762561,204 L-14.807241017935393,205 L-14.663785639522438,206 L-14.52686645642359,207 L-14.396651177516823,208 L-14.273299300235767,209 L-14.156961915205308,210 L-14.047781521174471,211 L-13.945891850473268,212 L-13.85141770520731,213 L-13.764474804390847,214 L-13.68516964220543,215 L-13.61359935755786,216 L-13.549851615097188,217 L-13.494004497836462,218 L-13.446126411510818,219 L-13.406276000788992,220 L-13.374502077440944,221 L-13.350843560549546,222 L-13.335329428839557,223 L-13.327978685182334,224 L-13.328800333319666,225 L-13.337793366835328,226 L-13.354946770387816,227 L-13.380239533202761,228 L-13.413640674808494,229 L-13.455109282983265,230 L-13.504594563867581,231 L-13.562035904180345,232 L-13.62736294546254,233 L-13.70049567025754,234 L-13.781344500122502,235 L-13.869810405350742,236 L-13.965785026270744,237 L-14.069150805973228,238 L-14.179781134303632,239 L-14.297540502943736,240 L-14.422284671392411,241 L-14.553860843642191,242 L-14.692107855335271,243 L-14.836856371169697,244 L-14.987929092313937,245 L-15.145140973575774,246 L-15.308299450059538,247 L-15.477204673034006,248 L-15.651649754722126,249 L-15.831421021712645,250 L-16.016298276683376,251 L-16.20605506811531,252 L-16.40045896766746,253 L-16.59927185487249,254 L-16.80225020880453,255 L-17.00914540636184,256 L-17.219704026799025,257 L-17.433668162135778,258 L-17.650775733061877,259 L-17.87076080995158,260 L-18.09335393859417,261 L-18.318282470241652,262 L-18.545270895569384,263 L-18.77404118214058,264 L-19.00431311496121,265 L-19.235804639708373,266 L-19.468232208211578,267 L-19.701311125763766,268 L-19.934755899836755,269 L-20.168280589773865,270 L-20.40159915703148,271 L-20.634425815540496,272 L-20.8664753817585,273 L-21.09746362398398,274 L-21.327107610504587,275 L-21.555126056153114,276 L-21.781239666846673,277 L-22.00517148168698,278 L-22.226647212202856,279 L-22.445395578319285,280 L-22.6611486406416,281 L-22.873642128647717,282 L-23.082615764386507,283 L-23.287813581285704,284 L-23.488984237678977,285 L-23.685881324668024,286 L-23.878263667942672,287 L-24.06589562318924,288 L-24.248547364725347,289 L-24.425995167007677,290 L-24.59802167866774,291 L-24.764416188740153,292 L-24.924974884757198,293 L-25.079501102393635,294 L-25.2278055663559,295 L-25.36970662222066,296 L-25.505030458938787,297 L-25.633611321732126,298 L-25.75529171512241,299 L-25.869922595843505,300 L-25.977363555400757,301 L-26.0774829920539,302 L-26.170158272012646,303 L-26.255275879647822,304 L-26.332731556533766,305 L-26.4024304291519,306 L-26.46428712509889,307 L-26.518225877657194,308 L-26.564180618599817,309 L-26.602095059115598,310 L-26.63192275875599,311 L-26.6536271823188,312 L-26.667181744599237,313 L-26.67256984295346,314 L-26.669784877634758,315 L-26.65883025987739,316 L-26.639719407718268,317 L-26.612475729561528,318 L-26.57713259550618,319 L-26.533733296471887,320 L-26.48233099117301,321 L-26.422988641005844,322 L-26.35577893292876,323 L-26.28078419042978,324 L-26.198096272690602,325 L-26.10781646207058,326 L-26.010055340048513,327 L-25.904932651774136,328 L-25.79257715939531,329 L-25.673126484340493,330 L-25.54672693874967,331 L-25.413533346260323,332 L-25.273708852367783,333 L-25.127424724592444,334 L-24.974860142698443,335 L-24.816201979220857,336 L-24.651644570570227,337 L-24.481389478994735,338 L-24.305645245691686,339 L-24.1246271353706,340 L-23.938556872580826,341 L-23.747662370126772,342 L-23.552177449903166,343 L-23.35234155649248,344 L-23.14839946387527,345 L-22.940600975612643,346 L-22.72920061886816,347 L-22.514457332643847,348 L-22.296634150612334,349 L-22.07599787893348,350 L-21.85281876945019,351 L-21.627370188663726,352 L-21.399928282893857,353 L-21.170771640034246,354 L-20.940180948317042,355 L-20.70843865250494,356 L-20.475828607931632,357 L-20.242635732814534,358 L-20.009145659265602,359 L-19.77564438342771,360 L-19.542417915165124,361 L-19.309751927737207,362 L-19.07793140788438,363 L-18.847240306754998,364 L-18.61796119210074,365 L-18.39037490216637,366 L-18.164760201698098,367 L-17.941393440491552,368 L-17.72054821489788,369 L-17.502495032702402,370 L-17.287500981786415,371 L-17.075829402977938,372 L-16.86773956749212,373 L-16.663486359356426,374 L-16.463319963209575,375 L-16.26748555785664,376 L-16.07622301595569,377 L-15.889766610203747,378 L-15.708344726382037,379 L-15.53217958361199,380 L-15.36148696216458,381 L-15.196475939156485,382 L-15.03734863245676,383 L-14.884299953117722,384 L-14.737517366633291,385 L-14.597180663317186,386 L-14.463461738082291,387 L-14.336524379890873,388 L-14.216524071133582,389 L-14.10360779718297,390 L-13.997913866354793,391 L-13.8995717404976,392 L-13.808701876418182,393 L-13.725415578337037,394 L-13.649814861554615,395 L-13.581992327495332,396 L-13.522031050282411,397 L-13.470004474982456,398 L-13.425976327644447,399 L-13.390000537243285,400 L-13.362121169623551,401 L-13.342372373524343,402 L-13.330778338751358,403 L-13.327353266547396,404 L-13.33210135219761,405 L-13.345016779890809,406 L-13.366083729843108,407 L-13.395276397675175,408 L-13.432559026019367,409 L-13.477885948318045,410 L-13.531201644759385,411 L-13.592440810282216,412 L-13.661528434566545,413 L-13.73837989391182,414 L-13.822901054890384,415 L-13.91498838964916,416 L-14.014529102718301,417 L-14.121401269171574,418 L-14.235473983969113,419 L-14.356607522299736,420 L-14.484653510726371,421 L-14.61945510892496,422 L-14.760847201794242,423 L-14.908656601701107,424 L-15.062702260613786,425 L-15.222795491863053,426 L-15.388740201259807,427 L-15.56033312728592,428 L-15.737364090064176,429 L-15.919616248802377,430 L-16.10686636739614,431 L-16.29888508786525,432 L-16.495437211288497,433 L-16.69628198589293,434 L-16.901173401944693,435 L-17.109860493080177,436 L-17.32208764370843,437 L-17.53759490210829,438 L-17.756118298836757,439 L-17.977390170058523,440 L-18.201139485400724,441 L-18.427092179931226,442 L-18.654971489853956,443 L-18.884498291509868,444 L-19.11539144326856,445 L-19.347368129891624,446 L-19.580144208945928,447 L-19.813434558842577,448 L-20.0469534280752,449 L-20.280414785229812,450 L-20.51353266933754,451 L-20.746021540141037,452 L-20.9775966278456,453 L-21.207974281926557,454 L-21.436872318565673,455 L-21.664010366291098,456 L-21.88911020939728,457 L-22.111896128724474,458 L-22.33209523938021,459 L-22.549437824989162,460 L-22.763657668062,461 L-22.974492376078494,462 L-23.18168370288557,463 L-23.38497786501655,464 L-23.584125852544126,465 L-23.778883734086442,466 L-23.96901295559249,467 L-24.15428063254101,468 L-24.334459835194902,469 L-24.509329866561778,470 L-24.67867653272019,471 L-24.842292405180373,472 L-24.999977074958238,473 L-25.151537398051286,474 L-25.296787732015915,475 L-25.435550163356115,476 L-25.567654725445323,477 L-25.692939606714255,478 L-25.81125134884985,479 L-25.922445034762518,480 L-26.026384466091454,481 L-26.122942330030586,482 L-26.21200035527086,483 L-26.293449456867794,484 L-26.367189869856894,485 L-26.433131271453266,486 L-26.491192891685728,487 L-26.541303612329923,488 L-26.58340205401926,489 L-26.617436651426946,490 L-26.643365716427084,491 L-26.661157489157404,492 L-26.67079017692111,493 L-26.672251980880233,494 L-26.66554111050772,495 L-26.650665785780603,496 L-26.62764422711156,497 L-26.59650463303118,498 L-26.557285145648297,499 L-26.51003380393069,500 L-26.45480848486331,501 L-26.391676832556264,502 L-26.3207161753892,503 L-26.242013431293735,504 L-26.155665001289847,505 L-26.06177665140668,506 L-25.960463383132385,507 L-25.851849292551684,508 L-25.736067418343673,509 L-25.613259578826078,510 L-25.483576198245565,511 L-25.34717612252683,512 L-25.204226424706206,513 L-25.054902200288105,514 L-24.899386352774886,515 L-24.737869369632975,516 L-24.570549088969507,517 L-24.397630457205395,518 L-24.2193252780416,519 L-24.035851953026082,520 L-23.84743521403919,521 L-23.654305848025245,522 L-23.45670041430737,523 L-23.2548609548319,524 L-23.049034697697312,525 L-22.839473754330594,526 L-22.62643481068243,527 L-22.410178812818916,528 L-22.19097064729527,529 L-21.969078816702947,530 L-21.744775110787515,531 L-21.518334273540223,532 L-21.290033666670954,533 L-21.060152929874825,534 L-20.82897363830852,535 L-20.59677895769593,536 L-20.36385329748557,537 L-20.130481962484545,538 L-19.89695080339585,539 L-19.663545866687006,540 L-19.430553044218897,541 L-19.198257723064,542 L-18.966944435942903,543 L-18.736896512707297,544 L-18.508395733296354,545 L-18.281721982591517,546 L-18.057152907592535,547 L-17.834963577334598,548 L-17.615426145963163,549 L-17.39880951937917,550 L-17.185379025862954,551 L-16.97539609108019,552 L-16.769117917868275,553 L-16.566797171194935,554 L-16.368681668675247,555 L-16.17501407702605,556 L-15.986031614829567,557 L-15.801965761970308,558 L-15.623041976101142,559 L-15.449479416485882,560 L-15.281490675556583,561 L-15.119281518514402,562 L-14.963050631292948,563 L-14.812989377192865,564 L-14.669281562485724,565 L-14.532103211274311,566 L-14.401622349885121,567 L-14.277998801057123,568 L-14.161383988178873,569 L-14.051920749813823,570 L-13.94974316474092,571 L-13.854976387724882,572 L-13.767736496217253,573 L-13.688130348176049,574 L-13.616255451178105,575 L-13.55219984298451,576 L-13.496041983705348,577 L-13.44785065969585,578 L-13.407684899301756,579 L-13.375593900556941,580 L-13.351616970921986,581 L-13.33578347913745,582 L-13.32811281925084,583 L-13.328614386861327,584 L-13.337287567611302,585 L-13.354121737938904,586 L-13.379096278090543,587 L-13.412180597377525,588 L-13.453334171645817,589 L-13.502506592913072,590 L-13.5596376311121,591 L-13.624657307865167,592 L-13.697485982198769,593 L-13.778034448093852,594 L-13.866204043752033,595 L-13.961886772443977,596 L-14.06496543479187,597 L-14.17531377232401,598 L-14.29279662212565,599 L-14.417270082396655,600 L-14.548581688713224,601 L-14.68657060077772,602 L-14.831067799427997,603 L-14.981896293664626,604 L-15.138871337442819,605 L-15.301800655963195,606 L-15.470484681184395,607 L-15.644716796268941,608 L-15.824283588663063,609 L-16.008965111500356,610 L-16.19853515300921,611 L-16.392761513593943,612 L-16.591406290250255,613 L-16.79422616796667,614 L-17.000972717754998,615 L-17.21139270094478,616 L-17.425228379368992,617 L-17.64221783106107,618 L-17.862095271076566,619 L-18.08459137704647,620 L-18.30943361906343,621 L-18.536346593496823,622 L-18.765052360327747,623 L-18.9952707835908,624 L-19.22671987450561,625 L-19.4591161368778,626 L-19.692174914346428,627 L-19.925610739052356,628 L-20.15913768130082,629 L-20.392469699789377,630 L-20.625320991972842,631 L-20.857406344135637,632 L-21.08844148074294,633 L-21.318143412642648,634 L-21.54623078369172,635 L-21.772424215382255,636 L-21.996446649045236,637 L-22.218023685212756,638 L-22.436883919723044,639 L-22.652759276156644,640 L-22.86538533419648,641 L-23.074501653509696,642 L-23.279852092754503,643 L-23.481185123321275,644 L-23.678254137423654,645 L-23.870817750162253,646 L-24.05864009519096,647 L-24.24149111362373,648 L-24.41914683582796,649 L-24.59138965575925,650 L-24.758008597501632,651 L-24.91879957368667,652 L-25.073565635474942,653 L-25.22211721379382,654 L-25.36427235153577,655 L-25.499856926433132,656 L-25.6287048643361,657 L-25.750658342632782,658 L-25.86556798356218,659 L-25.97329303718326,660 L-26.073701553776033,661 L-26.166670545463447,662 L-26.252086136856178,663 L-26.329843704535733,664 L-26.39984800520505,665 L-26.462013292349642,666 L-26.516263421266334,667 L-26.562531942331017,668 L-26.600762182391126,669 L-26.630907314183162,670 L-26.652930413690243,671 L-26.666804505369385,672 L-26.672512595193204,673 L-26.67004769146544,674 L-26.659412813384932,675 L-26.64062098734747,676 L-26.61369523099009,677 L-26.57866852499734,678 L-26.53558377270409,679 L-26.484493747544263,680 L-26.42546102841004,681 L-26.35855792300049,682 L-26.283866379253716,683 L-26.20147788497085,684 L-26.111493355754952,685 L-26.01402301140203,686 L-25.909186240895536,687 L-25.797111456169826,688 L-25.67793593482157,689 L-25.551805651961878,690 L-25.418875101415054,691 L-25.279307106482943,692 L-25.133272620506787,693 L-24.98095051747073,694 L-24.822527372903583,695 L-24.658197235347096,696 L-24.488161388670797,697 L-24.312628105524386,698 L-24.131812392229815,699 L-23.945935725425414,700 L-23.755225780784702,701 L-23.559916154142158,702 L-23.36024607536755,703 L-23.156460115339247,704 L-22.948807886375427,705 L-22.737543736490313,706 L-22.522926437849566,707 L-22.30521886980678,708 L-22.084687696909132,709 L-21.861603042266662,710 L-21.636238156685252,711 L-21.408869083968533,712 L-21.179774322798778,713 L-20.949234485610805,714 L-20.71753195487686,715 L-20.484950537223394,716 L-20.25177511580343,717 L-20.018291301350324,718 L-19.78478508234033,719 L-19.5515424746925,720 L-19.318849171434913,721 L-19.086990192766464,722 L-18.856249536942762,723 L-18.626909832413766,724 L-18.39925199163929,725 L-18.173554867006356,726 L-17.950094909269893,727 L-17.729145828935142,728 L-17.510978260996495,729 L-17.295859433443503,730 L-17.084052839939922,731 L-16.875817917077033,732 L-16.6714097265962,733 L-16.471078642970134,734 L-16.27507004672548,735 L-16.08362402388236,736 L-15.896975071879005,737 L-15.715351812341735,738 L-15.538976711052042,739 L-15.368065805453833,740 L-15.202828440034573,741 L-15.043467009904468,742 L-14.890176712887765,743 L-14.743145310429817,744 L-14.602552897612803,745 L-14.46857168256177,746 L-14.341365775511209,747 L-14.22109098779054,748 L-14.107894640974727,749 L-14.001915386433755,750 L-13.903283035502053,751 L-13.812118400475832,752 L-13.72853314663314,753 L-13.65262965545785,754 L-13.584500899235152,755 L-13.524230327172123,756 L-13.471891763182882,757 L-13.42754931546354,758 L-13.391257297967666,759 L-13.363060163878483,760 L-13.342992451159287,761 L-13.331078740248746,762 L-13.327333623952958,763 L-13.331761689571067,764 L-13.34435751327641,765 L-13.365105666760012,766 L-13.393980736128356,767 L-13.430947353032202,768 L-13.475960237988406,769 L-13.528964255841625,770 L-13.589894483297979,771 L-13.658676288447975,772 L-13.735225422181262,773 L-13.819448121381251,774 L-13.91124122377322,775 L-14.010492294285186,776 L-14.11707976276682,777 L-14.230873072897674,778 L-14.351732842102344,779 L-14.479511032276704,780 L-14.614051131116055,781 L-14.755188343823175,782 L-14.90274979496127,783 L-15.056554740204806,784 L-15.216414787728706,785 L-15.382134128964767,786 L-15.553509778442677,787 L-15.730331822421835,788 L-15.912383676009426,789 L-16.09944234844984,790 L-16.291278716260464,791 L-16.48765780387928,792 L-16.68833907148057,793 L-16.893076709606106,794 L-17.101619940251013,795 L-17.313713324035444,796 L-17.529097073085904,797 L-17.747507369242893,798 L-17.968676687205164,799" stroke-width="40.457787978479985" fill="none"></path><path id="line3" d="M-20,0 L-19.90369735127486,1 L-19.807512661252055,2 L-19.711563744149256,3 L-19.615968125391788,4 L-19.520842897658696,5 L-19.426304577458822,6 L-19.332468962412683,7 L-19.23945098941485,8 L-19.14736459385063,9 L-19.05632257003946,10 L-18.966436433075984,11 L-18.87781628223799,12 L-18.79057066612857,13 L-18.704806449717665,14 L-18.620628683445815,15 L-18.53814047455053,16 L-18.457442860772804,17 L-18.378634686598527,18 L-18.301812482186335,19 L-18.22707034513025,20 L-18.154499825201885,21 L-18.08418981221343,22 L-18.01622642713874,23 L-17.95069291662592,24 L-17.887669551030573,25 L-17.827233526094677,26 L-17.769458868391435,27 L-17.714416344651987,28 L-17.662173375085015,29 L-17.61279395079541,30 L-17.56633855540318,31 L-17.522864090958578,32 L-17.482423808244192,33 L-17.445067241549413,34 L-17.41084014799712,35 L-17.379784451496914,36 L-17.351938191393593,37 L-17.327335475873692,38 L-17.306006440187222,39 L-17.287977209735775,40 L-17.27326986807215,41 L-17.26190242985077,42 L-17.253888818762007,43 L-17.249238850477354,44 L-17.2479582206265,45 L-17.25004849782087,46 L-17.255507121732293,47 L-17.26432740622905,48 L-17.27649854756559,49 L-17.29200563761574,50 L-17.310829682133303,51 L-17.33294762401763,52 L-17.358332371555697,53 L-17.38695283160606,54 L-17.418773947684056,55 L-17.45375674290162,56 L-17.49185836770911,57 L-17.533032152380628,58 L-17.577227664178604,59 L-17.624390769127608,60 L-17.674463698321674,61 L-17.727385118684015,62 L-17.783090208092343,63 L-17.84151073477789,64 L-17.90257514090078,65 L-17.966208630199425,66 L-18.032333259606617,67 L-18.10086803472001,68 L-18.171729009010157,69 L-18.244829386644508,70 L-18.32007962880144,71 L-18.397387563344125,72 L-18.476658497719875,73 L-18.557795334946668,74 L-18.640698692544817,75 L-18.725267024268078,76 L-18.811396744485105,77 L-18.898982355058894,78 L-18.987916574568807,79 L-19.0780904697169,80 L-19.169393588757593,81 L-19.261714096787234,82 L-19.354938912727892,83 L-19.44895384783752,84 L-19.543643745576887,85 L-19.638892622661956,86 L-19.734583811128875,87 L-19.83060010123767,88 L-19.926823885039507,89 L-20.023137300431717,90 L-20.11942237552415,91 L-20.215561173139967,92 L-20.311435935273963,93 L-20.40692922733137,94 L-20.501924081970568,95 L-20.59630414237344,96 L-20.68995380476794,97 L-20.78275836002823,98 L-20.87460413417905,99 L-20.965378627632113,100 L-21.054970652984,101 L-21.143270471206876,102 L-21.230169926065038,103 L-21.3155625765928,104 L-21.39934382747136,105 L-21.48141105714498,106 L-21.561663743519578,107 L-21.640003587089694,108 L-21.716334631343113,109 L-21.790563380295595,110 L-21.862598913011755,111 L-21.932352994971836,112 L-21.99974018614798,113 L-22.064677945657557,114 L-22.127086732865443,115 L-22.186890104811333,116 L-22.244014809842824,117 L-22.298390877339525,118 L-22.34995170341832,119 L-22.398634132514783,120 L-22.444378534740864,121 L-22.487128878924032,122 L-22.526832801238466,123 L-22.56344166934419,124 L-22.596910641955596,125 L-22.627198723766433,126 L-22.654268815663915,127 L-22.678087760170502,128 L-22.698626382057657,129 L-22.715859524081864,130 L-22.729766077799095,131 L-22.74032900942002,132 L-22.74753538067426,133 L-22.75137636465817,134 L-22.751847256646673,135 L-22.748947479855964,136 L-22.74268058615,137 L-22.733054251689925,138 L-22.7200802675317,139 L-22.703774525183565,140 L-22.68415699714091,141 L-22.661251712422473,142 L-22.635086727137804,143 L-22.60569409012202,144 L-22.57310980368001,145 L-22.53737377948809,146 L-22.49852978970722,147 L-22.456625413367554,148 L-22.411711978090096,149 L-22.36384449721677,150 L-22.313081602425964,151 L-22.259485471916047,152 L-22.20312175424486,153 L-22.14405948791844,154 L-22.08237101682748,155 L-22.0181319016351,156 L-21.95142082722452,157 L-21.88231950631986,158 L-21.810912579398327,159 L-21.73728751101617,160 L-21.66153448267557,161 L-21.58374628236356,162 L-21.504018190898336,163 L-21.422447865222196,164 L-21.33913521878396,165 L-21.254182299157524,166 L-21.167693163046327,167 L-21.0797737488269,168 L-20.9905317467876,169 L-20.90007646722149,170 L-20.808518706534873,171 L-20.715970611535568,172 L-20.622545542067098,173 L-20.52835793215703,174 L-20.43352314984963,175 L-20.33815735589443,176 L-20.242377361463813,177 L-20.146300485073954,178 L-20.050044408884318,179 L-19.953727034551697,180 L-19.85746633881546,181 L-19.761380228990767,182 L-19.665586398546882,183 L-19.570202182947366,184 L-19.475344415928824,185 L-19.38112928639417,186 L-19.287672196095773,187 L-19.19508761828272,188 L-19.10348895748541,189 L-19.012988410609186,190 L-18.92369682950715,191 L-18.83572358520051,192 L-18.749176433912748,193 L-18.66416138508174,194 L-18.580782571511428,195 L-18.499142121822167,196 L-18.41934003535593,197 L-18.34147405968963,198 L-18.265639570906558,199 L-18.191929456772595,200 L-18.12043400296033,201 L-18.051240782460393,202 L-17.98443454831549,203 L-17.920097129808536,204 L-17.858307332232,205 L-17.799140840361286,206 L-17.74267012575034,207 L-17.688964357963076,208 L-17.63808931984929,209 L-17.59010732696889,210 L-17.545077151263165,211 L-17.50305394906646,212 L-17.46408919354659,213 L-17.428230611656648,214 L-17.395522125675438,215 L-17.36600379940819,216 L-17.3397117891134,217 L-17.316678299215955,218 L-17.296931542860698,219 L-17.2804957073549,220 L-17.267390924541797,221 L-17.257633246141626,222 L-17.251234624090262,223 L-17.248202895899585,224 L-17.24854177505752,225 L-17.252250846479477,226 L-17.259325567016774,227 L-17.26975727102142,228 L-17.28353318096046,229 L-17.300636423066862,230 L-17.321046048007755,231 L-17.344737056544744,232 L-17.371680430154857,233 L-17.40184316657462,234 L-17.435188320223663,235 L-17.47167504745849,236 L-17.511258656600784,237 L-17.553890662679162,238 L-17.59951884681718,239 L-17.648087320194932,240 L-17.69953659250588,241 L-17.75380364482501,242 L-17.810822006799164,243 L-17.8705218380649,244 L-17.9328300137942,245 L-17.99767021426324,246 L-18.064963018334524,247 L-18.134626000737825,248 L-18.206573833030838,249 L-18.280718388115865,250 L-18.356968848184486,251 L-18.435231815958005,252 L-18.51541142908744,253 L-18.59740947757293,254 L-18.68112552405869,255 L-18.766457026856212,256 L-18.853299465545014,257 L-18.941546468997085,258 L-19.031089945668224,259 L-19.121820215996646,260 L-19.213626146746744,261 L-19.3063952871334,262 L-19.400014006560145,263 L-19.494367633802423,264 L-19.589340597465494,265 L-19.684816567544953,266 L-19.780678597916435,267 L-19.876809269579987,268 L-19.973090834483678,269 L-20.069405359750217,270 L-20.165634872129992,271 L-20.261661502503546,272 L-20.357367630256515,273 L-20.45263602735016,274 L-20.54735000191107,275 L-20.641393541164096,276 L-20.734651453533527,277 L-20.827009509738318,278 L-20.918354582708723,279 L-21.00857478615277,280 L-21.097559611603014,281 L-21.185200063775554,282 L-21.27138879407565,283 L-21.356020232086333,284 L-21.43899071487894,285 L-21.52019861398726,286 L-21.599544459889685,287 L-21.676931063846947,288 L-21.752263636946154,289 L-21.825449906205375,290 L-21.896400227596487,291 L-21.96502769584791,292 L-22.03124825089269,293 L-22.094980780831584,294 L-22.156147221284968,295 L-22.214672651011973,296 L-22.27048538367961,297 L-22.323517055669573,298 L-22.373702709815124,299 L-22.4209808749655,300 L-22.465293641280383,301 L-22.506586731162216,302 L-22.54480956573947,303 L-22.579915326819435,304 L-22.61186101423466,305 L-22.64060749851277,306 L-22.66611956880519,307 L-22.688365976016016,308 L-22.70731947107826,309 L-22.72295683833055,310 L-22.735258923953406,311 L-22.74421065943028,312 L-22.7498010800046,313 L-22.752023338110227,314 L-22.75087471175887,315 L-22.746356607874173,316 L-22.73847456056842,317 L-22.72723822436394,318 L-22.71266136236751,319 L-22.694761829412283,320 L-22.673561550187845,321 L-22.64908649238522,322 L-22.62136663488968,323 L-22.59043593106037,324 L-22.5563322671417,325 L-22.5190974158574,326 L-22.478776985244195,327 L-22.43542036278763,328 L-22.38908065492861,329 L-22.339814622014615,330 L-22.287682608775395,331 L-22.23274847040822,332 L-22.175079494363242,333 L-22.114746317924787,334 L-22.051822841689507,335 L-21.986386139047404,336 L-21.918516361776547,337 L-21.848296641867186,338 L-21.775812989695446,339 L-21.70115418867138,340 L-21.624411686490376,341 L-21.545679483121194,342 L-21.465054015667732,343 L-21.382634040245655,344 L-21.298520511018484,345 L-21.212816456541383,346 L-21.125626853564047,347 L-21.03705849844733,348 L-20.947219876351046,349 L-20.856221028353215,350 L-20.764173416663503,351 L-20.67118978809596,352 L-20.577384035968247,353 L-20.4828710605966,354 L-20.38776662855729,355 L-20.29218723088704,356 L-20.196249940396086,357 L-20.100072268268608,358 L-20.003772020126238,359 L-19.90746715173089,360 L-19.81127562450372,361 L-19.71531526103712,362 L-19.61970360077678,363 L-19.52455775605058,364 L-19.429994268620604,365 L-19.336128966934066,366 L-19.24307682424797,367 L-19.150951817801218,368 L-19.05986678920675,369 L-18.969933306234687,370 L-18.881261526155757,371 L-18.793960060812427,372 L-18.70813584358295,373 L-18.62389399840138,374 L-18.54133771099387,375 L-18.46056810248908,376 L-18.381684105557436,377 L-18.30478234323098,378 L-18.22995701055222,379 L-18.157299759197002,380 L-18.086899585212677,381 L-18.018842720009044,382 L-17.95321252473567,383 L-17.890089388174907,384 L-17.829550628275683,385 L-17.771670397448695,386 L-17.716519591738948,387 L-17.664165763986997,388 L-17.61467304108515,389 L-17.568102045430052,390 L-17.524509820667816,391 L-17.483949761822696,392 L-17.446471549894866,393 L-17.4121210910074,394 L-17.380940460177015,395 L-17.352967849777436,396 L-17.32823752275851,397 L-17.306779770678382,398 L-17.288620876600127,399 L-17.273783082898273,400 L-17.262284564014685,401 L-17.254139404197137,402 L-17.24935758024788,403 L-17.247944949303303,404 L-17.249903241659663,405 L-17.2552300586537,406 L-17.26391887560071,407 L-17.27595904978643,408 L-17.291335833503073,409 L-17.31003039211341,410 L-17.332019827120845,411 L-17.357277204217198,412 L-17.385771586273886,413 L-17.41746807123603,414 L-17.452327834873095,415 L-17.49030817833374,416 L-17.53136258044655,417 L-17.57544075470267,418 L-17.62248871085047,419 L-17.67244882102688,420 L-17.72525989034429,421 L-17.780857231846657,422 L-17.839172745742918,423 L-17.900135002820726,424 L-17.963669331938306,425 L-18.029697911487272,426 L-18.09813986471434,427 L-18.168911358785277,428 L-18.241925707469598,429 L-18.317093477320395,430 L-18.3943225972191,431 L-18.47351847115111,432 L-18.554584094074055,433 L-18.63742017073687,434 L-18.721925237304045,435 L-18.807995785636137,436 L-18.895526390074302,437 L-18.984409836573537,438 L-19.07453725402649,439 L-19.165798247616944,440 L-19.25808103403966,441 L-19.351272578420947,442 L-19.44525873277227,443 L-19.539924375807228,444 L-19.635153553950758,445 L-19.73082962336775,446 L-19.826835392837175,447 L-19.923053267296666,448 L-20.019365391881763,449 L-20.115653796283386,450 L-20.21180053924672,451 L-20.307687853034494,452 L-20.40319828767774,453 L-20.498214854837304,454 L-20.59262117109995,455 L-20.68630160053349,456 L-20.779141396326313,457 L-20.87102684133792,458 L-20.961845387388156,459 L-21.0514857931147,460 L-21.1398382602298,461 L-21.226794568009446,462 L-21.312248205850235,463 L-21.39609450373153,464 L-21.478230760423145,465 L-21.558556369281536,466 L-21.636972941480316,467 L-21.713384426524303,468 L-21.78769722989934,469 L-21.859820327713884,470 L-21.929665378191892,471 L-21.997146829880435,472 L-22.062182026439547,473 L-22.124691307885893,474 L-22.184598108166313,475 L-22.241829048941618,476 L-22.29631402946592,477 L-22.347986312451248,478 L-22.39678260581241,479 L-22.44264314019188,480 L-22.485511742169752,481 L-22.525335903069198,482 L-22.562066843273005,483 L-22.595659571972515,484 L-22.626072942275744,485 L-22.653269701607165,486 L-22.677216537337475,487 L-22.697884117587382,488 L-22.7152471271555,489 L-22.729284298526295,490 L-22.739978437920147,491 L-22.74731644635357,492 L-22.751289335683822,493 L-22.75189223961828,494 L-22.74912441967501,495 L-22.74298926608734,496 L-22.733494293651223,497 L-22.720651132520587,498 L-22.70447551396181,499 L-22.68498725108492,500 L-22.66221021457499,501 L-22.636172303453545,502 L-22.606905410905746,503 L-22.57444538521523,504 L-22.53883198585444,505 L-22.500108834784243,506 L-22.458323363022487,507 L-22.413526752546932,508 L-22.365773873603732,509 L-22.31512321749824,510 L-22.261636824950475,511 L-22.20538021010299,512 L-22.14642228027426,513 L-22.084835251555813,514 L-22.020694560356553,515 L-21.954078771002603,516 L-21.88506947950582,517 L-21.813751213618882,518 L-21.740211329299367,519 L-21.664539903709628,520 L-21.586829624883528,521 L-21.50717567819519,522 L-21.42567562976883,523 L-21.342429306972427,524 L-21.25753867614172,525 L-21.17110771768414,526 L-21.08324229871588,527 L-20.994050043387865,528 L-20.903640201059655,529 L-20.81212351248262,530 L-20.719612074156387,531 L-20.626219201024625,532 L-20.53205928767843,533 L-20.43724766823723,534 L-20.341900475078937,535 L-20.246134496592298,536 L-20.150067034125705,537 L-20.05381575830774,538 L-19.957498564915344,539 L-19.86123343046625,540 L-19.765138267712494,541 L-19.669330781212043,542 L-19.57392832315542,543 L-19.479047749623955,544 L-19.384805277455698,545 L-19.29131634189432,546 L-19.198695455195367,547 L-19.107056066363093,548 L-19.016510422189583,549 L-18.92716942976649,550 L-18.839142520637726,551 L-18.75253751675945,552 L-18.66746049843173,553 L-18.584015674363396,554 L-18.50230525402941,555 L-18.422429322477033,556 L-18.34448571773418,557 L-18.268569910970047,558 L-18.194774889554875,559 L-18.123191043162056,560 L-18.053906053052074,561 L-17.987004784673942,562 L-17.922569183715613,563 L-17.860678175730794,564 L-17.801407569464974,565 L-17.744829963999223,566 L-17.691014659825377,567 L-17.640027573961607,568 L-17.591931159212315,569 L-17.54678432767126,570 L-17.504642378561606,571 L-17.465556930501286,572 L-17.429575858276653,573 L-17.396743234201868,574 L-17.367099274135793,575 L-17.340680288222625,576 L-17.317518636416494,577 L-17.29764268884457,578 L-17.281076791057192,579 L-17.267841234207644,580 L-17.257952230197994,581 L-17.25142189182157,582 L-17.248258217926278,583 L-17.248465083617038,584 L-17.25204223550924,585 L-17.25898529203913,586 L-17.269285748830676,587 L-17.282930989112334,588 L-17.299904299171068,589 L-17.32018488882451,590 L-17.343747916886365,591 L-17.370564521593735,592 L-17.4006018559592,593 L-17.43382312800423,594 L-17.4701876458248,595 L-17.509650867433844,596 L-17.55216445531965,597 L-17.597676335653254,598 L-17.646130762072374,599 L-17.697468383963717,600 L-17.75162631916009,601 L-17.80853823096315,602 L-17.86813440939762,603 L-17.93034185659723,604 L-17.995084376218013,605 L-18.06228266676929,606 L-18.13185441874808,607 L-18.203714415457945,608 L-18.27777463738879,609 L-18.35394437002976,610 L-18.432130314983166,611 L-18.51223670424335,612 L-18.594165417500534,613 L-18.677816102325913,614 L-18.763086297090844,615 L-18.84987155646952,616 L-18.938065579371436,617 L-19.02756033914693,618 L-19.118246215906332,619 L-19.210012130790602,620 L-19.30274568202906,621 L-19.396333282617483,622 L-19.490660299448006,623 L-19.585611193720315,624 L-19.68106966246225,625 L-19.77691878098639,626 L-19.873041146108193,627 L-19.96931901995018,628 L-20.065634474156177,629 L-20.161869534338724,630 L-20.257906324583,631 L-20.35362721183007,632 L-20.448914949962663,633 L-20.54365282341701,634 L-20.63772479014481,635 L-20.731015623750242,636 L-20.823411054627872,637 L-20.914797909928648,638 L-21.005064252182475,639 L-21.094099516407624,640 L-21.18179464553901,641 L-21.26804222400946,642 L-21.352736609320345,643 L-21.435774061440437,644 L-21.517052869874473,645 L-21.596473478245784,646 L-21.67393860624043,647 L-21.74935336876339,648 L-21.82262539216097,649 L-21.893664927366945,650 L-21.962384959833972,651 L-22.02870131611551,652 L-22.092532766967768,653 L-22.15380112684539,654 L-22.21243134966895,655 L-22.26835162074702,656 L-22.321493444740184,657 L-22.37179172955928,658 L-22.419184866095055,659 L-22.463614803681615,660 L-22.505027121201252,661 L-22.54337109374348,662 L-22.578599754736747,663 L-22.610669953476563,664 L-22.639542407979757,665 L-22.665181753099972,666 L-22.687556583845563,667 L-22.706639493846772,668 L-22.722407108925104,669 L-22.73484011572378,670 L-22.74392328536419,671 L-22.749645492099337,672 L-22.75199972694152,673 L-22.750983106247446,674 L-22.74659687525034,675 L-22.738846406534687,676 L-22.727741193455497,677 L-22.713294838510112,678 L-22.695525036676877,679 L-22.674453553740964,680 L-22.650106199634052,681 L-22.622512796820356,682 L-22.591707143767852,683 L-22.55772697354938,684 L-22.520613907624334,685 L-22.4804134048576,686 L-22.43717470583811,687 L-22.390950772565304,688 L-22.341798223577268,689 L-22.28977726460014,690 L-22.234951614803602,691 L-22.17738842875287,692 L-22.11715821415276,693 L-22.054334745484546,694 L-21.988994973641468,695 L-21.921218931673483,696 L-21.851089636756818,697 L-21.778692988508293,698 L-21.704117663769026,699 L-21.627455007986402,700 L-21.548798923327325,701 L-21.468245753659794,702 L-21.385894166543725,703 L-21.301845032375525,704 L-21.21620130083444,705 L-21.129067874782134,706 L-21.04055148176974,707 L-20.950760543309997,708 L-20.85980504207443,709 L-20.767796387178347,710 L-20.674847277718584,711 L-20.58107156473123,712 L-20.48658411173832,713 L-20.391500654054408,714 L-20.29593765702525,715 L-20.200012173372343,716 L-20.103841699817973,717 L-20.00754403316642,718 L-19.911237126017596,719 L-19.81503894228987,720 L-19.719067312729017,721 L-19.62343979058029,722 L-19.528273507600385,723 L-19.433685030585696,724 L-19.339790218592565,725 L-19.246704081024422,726 L-19.15454063675965,727 L-19.063412774492704,728 L-18.973432114459605,729 L-18.88470887171709,730 L-18.79735172114293,731 L-18.711467664322836,732 L-18.627161898486875,733 L-18.544537687656014,734 L-18.463696236156608,735 L-18.38473656465777,736 L-18.307755388883418,737 L-18.23284700114761,738 L-18.160103154858255,739 L-18.08961295213066,740 L-18.02146273464858,741 L-17.95573597790645,742 L-17.89251318896235,743 L-17.831871807826914,744 L-17.773886112609013,745 L-17.718627128534358,746 L-17.666162540948463,747 L-17.616556612410587,748 L-17.56987010398012,749 L-17.526160200791878,750 L-17.485480442011475,751 L-17.44788065525654,752 L-17.41340689556411,753 L-17.38210138897896,754 L-17.354002480832005,755 L-17.329144588772042,756 L-17.307558160608433,757 L-17.289269637016368,758 L-17.27430141915032,759 L-17.262671841205446,760 L-17.25439514796048,761 L-17.249481477329677,762 L-17.24793684794512,763 L-17.24976315178465,764 L-17.25495815185444,765 L-17.263515484929023,766 L-17.27542466934545,767 L-17.29067111784202,768 L-17.30923615542585,769 L-17.331097042247396,770 L-17.35622700145394,771 L-17.384595251987886,772 L-17.416167046289686,773 L-17.45090371285928,774 L-17.488762703623838,775 L-17.529697646053823,776 L-17.573658399963552,777 L-17.62059111892664,778 L-17.670438316231156,779 L-17.723138935293644,780 L-17.778628424445795,781 L-17.836838816002206,782 L-17.89769880951225,783 L-17.96113385909423,784 L-18.02706626474477,785 L-18.0954152675116,786 L-18.166097148413165,787 L-18.239025330983917,788 L-18.314110487319653,789 L-18.391260647493034,790 L-18.470381312205244,791 L-18.55137556853581,792 L-18.634144208648813,793 L-18.718585851310085,794 L-18.804597066066535,795 L-18.89207249993553,796 L-18.98090500644912,797 L-19.07098577689506,798 L-19.162204473593885,799" stroke-width="40.43211483474879" fill="none"></path><path id="line4" d="M-20,0 L-19.820587331594627,1 L-19.641394421273038,2 L-19.462640757942847,3 L-19.284545292489025,4 L-19.107326169586457,5 L-18.93120046049998,6 L-18.75638389719924,7 L-18.583090608113995,8 L-18.411532855853576,9 L-18.24192077721172,10 L-18.07446212577529,11 L-17.909362017452093,12 L-17.746822679229556,13 L-17.587043201471953,14 L-17.43021929405959,15 L-17.2765430466687,16 L-17.126202693485574,17 L-16.979382382643266,18 L-16.83626195066312,19 L-16.697016702177528,20 L-16.56181719520369,21 L-16.430829032231365,22 L-16.304212657380518,23 L-16.18212315987734,24 L-16.064710084089356,25 L-15.952117246352254,26 L-15.844482558812867,27 L-15.741937860504041,28 L-15.6446087558583,29 L-15.552614460858122,30 L-15.466067657011273,31 L-15.385074353330054,32 L-15.309733756483503,33 L-15.240138149281643,34 L-15.176372777640577,35 L-15.1185157461669,36 L-15.066637922489317,37 L-15.020802850454668,38 L-14.981066672294663,39 L-14.947478059858653,40 L-14.920078154996723,41 L-14.898900519166052,42 L-14.88397109232233,43 L-14.875308161146563,44 L-14.87292233664617,45 L-14.87681654115782,46 L-14.886986004767948,47 L-14.90341827115529,48 L-14.926093212848329,49 L-14.954983055878923,50 L-14.990052413801944,51 L-15.031258331039261,52 L-15.078550335494924,53 L-15.131870500377206,54 L-15.191153515151646,55 L-15.256326765538308,56 L-15.327310422455188,57 L-15.404017539798852,58 L-15.48635416094255,59 L-15.574219433821327,60 L-15.667505734463187,61 L-15.766098798815023,62 L-15.86987786270176,63 L-15.978715809747403,64 L-16.09247932707667,65 L-16.21102906860662,66 L-16.334219825728166,67 L-16.461900705168464,68 L-16.59391531381631,69 L-16.730101950284137,70 L-16.870293802972,71 L-17.014319154390922,72 L-17.16200159149535,73 L-17.313160221767077,74 L-17.467609894785944,75 L-17.62516142901597,76 L-17.78562184352907,77 L-17.94879459438255,78 L-18.114479815360877,79 L-18.28247456278679,80 L-18.45257306410192,81 L-18.624566969912465,82 L-18.798245609191127,83 L-18.973396247322775,84 L-19.149804346677758,85 L-19.327253829393662,86 L-19.505527342043685,87 L-19.68440652186739,88 L-19.863672264237803,89 L-20.04310499103715,90 L-20.22248491961263,91 L-20.401592331982645,92 L-20.58020784396389,93 L-20.758112673889517,94 L-20.935088910589325,95 L-21.110919780303707,96 L-21.285389912204376,97 L-21.458285602196714,98 L-21.629395074680573,99 L-21.798508741948876,100 L-21.965419460906368,101 L-22.129922786794015,102 L-22.29181722360825,103 L-22.450904470908377,104 L-22.606989666709833,105 L-22.75988162616575,106 L-22.90939307574447,107 L-23.05534088261621,108 L-23.19754627896789,109 L-23.33583508097133,110 L-23.47003790213667,111 L-23.599990360789647,112 L-23.725533281418567,113 L-23.846512889644423,114 L-23.962781000575276,115 L-24.074195200314207,116 L-24.180619020398552,117 L-24.281922104956678,118 L-24.377980370377642,119 L-24.468676157298113,120 L-24.553898374720333,121 L-24.63354263608475,122 L-24.707511387130463,123 L-24.77571402538701,124 L-24.83806701115106,125 L-24.894493969812103,126 L-24.944925785401807,127 L-24.989300685252413,128 L-25.027564315660552,129 L-25.059669808463727,130 L-25.08557783844795,131 L-25.10525667151621,132 L-25.118682203558777,133 L-25.12583798997772,134 L-25.12671526582949,135 L-25.12131295656086,136 L-25.10963767932515,137 L-25.091703734877015,138 L-25.06753309005581,139 L-25.037155350878987,140 L-25.000607726278385,141 L-24.957934982523973,142 L-24.90918938839075,143 L-24.85443065113604,144 L-24.793725843365575,145 L-24.727149320877906,146 L-24.6547826315879,147 L-24.57671441564069,148 L-24.493040296838625,149 L-24.40386276551404,150 L-24.309291052991433,151 L-24.209440997792726,152 L-24.104434903749592,153 L-23.994401390196547,154 L-23.87947523442833,155 L-23.759797206614586,156 L-23.63551389737402,157 L-23.506777538219193,158 L-23.373745815091976,159 L-23.236581675217987,160 L-23.09545312751661,161 L-22.950533036811084,162 L-22.8019989120907,163 L-22.6500326890845,164 L-22.49482050741275,165 L-22.33655248258918,166 L-22.17542247315326,167 L-22.011627843217738,168 L-21.84536922072225,169 L-21.676850251689228,170 L-21.506277350782934,171 L-21.333859448477362,172 L-21.159807735142497,173 L-20.984335402362536,174 L-20.807657381802844,175 L-20.629990081945564,176 L-20.45155112301625,177 L-20.272559070426347,178 L-20.093233167057857,179 L-19.91379306471825,180 L-19.73445855509444,181 L-19.555449300535493,182 L-19.376984564993666,183 L-19.199282945453525,184 L-19.022562104177954,185 L-18.84703850209911,186 L-18.672927133680847,187 L-18.500441263577372,188 L-18.329792165410733,189 L-18.16118886298702,190 L-17.994837874268377,191 L-17.83094295841429,192 L-17.66970486620212,193 L-17.51132109413249,194 L-17.35598564252077,195 L-17.20388877787097,196 L-17.055216799823015,197 L-16.910151812959036,198 L-16.76887150374801,199 L-16.63154892290204,200 L-16.49835227341089,201 L-16.36944470451435,202 L-16.244984111864817,203 L-16.12512294412486,204 L-16.010008016236686,205 L-15.89978032959219,206 L-15.794574899323864,207 L-15.694520588928171,208 L-15.59973995242386,209 L-15.510349084238609,210 L-15.426457477007887,211 L-15.348167887460166,212 L-15.275576210552762,213 L-15.208771362012516,214 L-15.14783516942515,215 L-15.092842272006692,216 L-15.043860029179784,217 L-15.00094843806681,218 L-14.964160060000918,219 L-14.933539956144962,220 L-14.909125632297215,221 L-14.890946992951456,222 L-14.879026304667693,223 L-14.873378168798434,224 L-14.874009503603833,225 L-14.8809195357777,226 L-14.894099801394702,227 L-14.91353415627761,228 L-14.939198795771901,229 L-14.971062283903478,230 L-15.009085591883814,231 L-15.053222145915331,232 L-15.103417884238487,233 L-15.159611323350658,234 L-15.22173363331575,235 L-15.28970872207227,236 L-15.363453328636556,237 L-15.442877125087124,238 L-15.527882827205019,239 L-15.618366313634855,240 L-15.71421675342044,241 L-15.815316741758846,242 L-15.921542443806604,243 L-16.032763746361912,244 L-16.148844417237022,245 L-16.269642272125658,246 L-16.39500934876098,247 L-16.524792088150885,248 L-16.65883152266856,249 L-16.796963470767942,250 L-16.939018738085608,251 L-17.08482332468266,252 L-17.23419863817295,253 L-17.386961712476374,254 L-17.542925431929476,255 L-17.70189876047872,256 L-17.863686975675762,257 L-18.028091907188113,258 L-18.194912179533016,259 L-18.363943458737214,260 L-18.534978702620535,261 L-18.70780841439666,262 L-18.88222089928049,263 L-19.058002523787813,264 L-19.234937977409558,265 L-19.41281053634028,266 L-19.591402328937722,267 L-19.77049460258831,268 L-19.94986799165177,269 L-20.129302786156604,270 L-20.308579200917315,271 L-20.4874776447438,272 L-20.66577898941308,273 L-20.84326483807398,274 L-21.01971779275596,275 L-21.194921720654428,276 L-21.368662018866452,277 L-21.540725877252417,278 L-21.71090253910186,279 L-21.87898355928409,280 L-22.044763059567416,281 L-22.20803798079421,282 L-22.368608331603006,283 L-22.5262774333929,284 L-22.680852161230245,285 L-22.83214318040254,286 L-22.97996517832979,287 L-23.124137091549215,288 L-23.264482327495394,289 L-23.40082898080404,290 L-23.533010043874587,291 L-23.660863611433612,292 L-23.78423307884856,293 L-23.902967333948826,294 L-24.01692094211927,295 L-24.12595432443944,296 L-24.22993392865029,297 L-24.328732392738992,298 L-24.422228700941492,299 L-24.510308331971668,300 L-24.5928633992956,301 L-24.669792783279078,302 L-24.741002255046517,303 L-24.806404591899522,304 L-24.865919684153813,305 L-24.919474633263565,306 L-24.967003841113,307 L-25.00844909036589,308 L-25.043759615774498,309 L-25.072892166360678,310 L-25.095811058392897,311 L-25.112488219094352,312 L-25.122903221028615,313 L-25.12704330712068,314 L-25.12490340628279,315 L-25.11648613962588,316 L-25.101801817249054,317 L-25.080868425610994,318 L-25.0537116054988,319 L-25.02036462062123,320 L-24.980868316864818,321 L-24.935271072262772,322 L-24.883628737737933,323 L-24.826004568692376,324 L-24.762469147527455,325 L-24.693100297189183,326 L-24.617982985844865,327 L-24.537209222807697,328 L-24.450877945836886,329 L-24.359094899951256,330 L-24.261972507904826,331 L-24.159629732482994,332 L-24.05219193078799,333 L-23.93979070069213,334 L-23.822563719646833,335 L-23.70065457604501,336 L-23.574212593343198,337 L-23.443392647159023,338 L-23.30835497556792,339 L-23.169264982831542,340 L-23.026293036798194,341 L-22.879614260223562,342 L-22.729408316267218,343 L-22.575859188427707,344 L-22.419154955185775,345 L-22.259487559631754,346 L-22.097052574359275,347 L-21.93204896191329,348 L-21.764678831085842,349 L-21.59514718935807,350 L-21.42366169179167,351 L-21.25043238667742,352 L-21.075671458252273,353 L-20.899592966800235,354 L-20.722412586455246,355 L-20.544347341027358,356 L-20.3656153381757,357 L-20.18643550225387,358 L-20.007027306154978,359 L-19.827610502484788,360 L-19.64840485439227,361 L-19.46962986638721,362 L-19.291504515474642,363 L-19.114246982935402,364 L-18.938074387081336,365 L-18.7632025173125,366 L-18.58984556980217,367 L-18.41821588513328,368 L-18.248523688207783,369 L-18.08097683074741,370 L-17.915780536701327,371 L-17.75313715087244,372 L-17.59324589107033,373 L-17.43630260409433,374 L-17.282499525845708,375 L-17.1320250458627,376 L-16.985063476566918,377 L-16.841794827503644,378 L-16.702394584852666,379 L-16.567033496479652,380 L-16.435877362791366,381 L-16.3090868336509,382 L-16.186817211601674,383 L-16.069218261641257,384 L-15.956434027777957,385 L-15.848602656594927,386 L-15.745856228037878,387 L-15.648320593633663,388 L-15.556115222337894,389 L-15.4693530542004,390 L-15.388140362027812,391 L-15.312576621212628,392 L-15.242754387888334,393 L-15.178759185559695,394 L-15.120669400347154,395 L-15.068556184973644,396 L-15.022483371611404,397 L-14.982507393695528,398 L-14.948677216800093,399 L-14.921034278661434,400 L-14.899612438422103,401 L-14.88443793515766,402 L-14.875529355737074,403 L-14.872897612056146,404 L-14.876545927671796,405 L-14.886469833853603,406 L-14.902657175057449,407 L-14.92508812381454,408 L-14.953735205017567,409 L-14.98856332957429,410 L-15.029529837387276,411 L-15.076584549607194,412 L-15.129669830095626,413 L-15.188720656022124,414 L-15.253664697509057,415 L-15.32442240622666,416 L-15.400907112829785,417 L-15.483025133117035,418 L-15.570675882782165,419 L-15.663752000617293,420 L-15.762139480016963,421 L-15.865717808621962,422 L-15.97436011593191,423 L-16.08793332870574,424 L-16.2062983339598,425 L-16.329310149363828,426 L-16.45681810082622,427 L-16.58866600705091,428 L-16.724692370839954,429 L-16.864730576907405,430 L-17.008609095962182,431 L-17.156151694810017,432 L-17.307177652217074,433 L-17.46150198027087,434 L-17.61893565096733,435 L-17.77928582774646,436 L-17.942356101693,437 L-18.107946732112822,438 L-18.27585489119026,439 L-18.44587491242686,440 L-18.61779854255709,441 L-18.791415196632563,442 L-18.966512215962297,443 L-19.142875128592955,444 L-19.32028791201021,445 L-19.49853325773931,446 L-19.67739283752078,447 L-19.856647570735234,448 L-20.036077892749752,449 L-20.215464023857084,450 L-20.394586238478315,451 L-20.573225134299225,452 L-20.75116190101069,453 L-20.92817858832394,454 L-21.104058372932414,455 L-21.278585824093216,456 L-21.451547167502795,457 L-21.62273054714377,458 L-21.791926284782043,459 L-21.958927136796422,460 L-22.123528548026144,461 L-22.28552890232536,462 L-22.444729769517707,463 L-22.60093614844846,464 L-22.753956705836572,465 L-22.90360401063399,466 L-23.049694763605288,467 L-23.192050021846285,468 L-23.33049541796672,469 L-23.464861373668533,470 L-23.594983307458044,471 L-23.720701836237712,472 L-23.841862970530507,473 L-23.95831830309774,474 L-24.06992519071943,475 L-24.176546928914334,476 L-24.278052919385885,477 L-24.374318829988773,478 L-24.46522674702027,479 L-24.550665319649777,480 L-24.630529896309653,481 L-24.704722652880317,482 L-24.773152712512548,483 L-24.83573625694027,484 L-24.89239662914744,485 L-24.943064427263316,486 L-24.987677589571057,487 L-25.02618147052558,488 L-25.058528907687506,489 L-25.084680279491266,490 L-25.10460355377655,491 L-25.1182743270237,492 L-25.125675854244975,493 L-25.126799069495075,494 L-25.121642596975768,495 L-25.11021275272109,496 L-25.092523536860988,497 L-25.068596616472902,498 L-25.038461299042325,499 L-25.00215449656478,500 L-24.95972068033324,501 L-24.91121182646637,502 L-24.85668735224427,503 L-24.796214043329744,504 L-24.729865971964205,505 L-24.657724406238454,506 L-24.579877710549418,507 L-24.49642123736482,508 L-24.407457210428337,509 L-24.31309459954828,510 L-24.213448987123215,511 L-24.108642426567986,512 L-23.998803292813527,513 L-23.884066125063637,514 L-23.764571462001268,515 L-23.64046566964623,516 L-23.511900762075104,517 L-23.379034215223008,518 L-23.24202877399528,519 L-23.101052252925307,520 L-22.956277330622708,521 L-22.80788133826364,522 L-22.656046042382275,523 L-22.500957422229522,524 L-22.342805441971716,525 L-22.181783818008217,526 L-22.01808978169313,527 L-21.851923837751496,528 L-21.683489518686095,529 L-21.51299313547558,530 L-21.34064352486932,531 L-21.16665179358852,532 L-20.991231059746855,533 L-20.814596191807446,534 L-20.636963545395865,535 L-20.45855069829154,536 L-20.279576183922185,537 L-20.100259223687683,538 L-19.920819458441276,539 L-19.74147667945699,540 L-19.56245055921281,541 L-19.383960382319362,542 L-19.206224776923676,543 L-19.02946144691707,544 L-18.85388690527508,545 L-18.679716208856146,546 L-18.50716269498387,547 L-18.336437720135443,548 L-18.167750401056416,549 L-18.00130735861882,550 L-17.837312464736463,551 L-17.675966592647246,552 L-17.517467370868687,553 L-17.36200894112761,554 L-17.209781720560844,555 L-17.06097216847803,556 L-16.915762557972283,557 L-16.774330752658454,558 L-16.63684998881243,559 L-16.503488663178363,560 L-16.374410126703733,561 L-16.249772484454837,562 L-16.12972840195787,563 L-16.01442491820274,564 L-15.904003265538693,565 L-15.798598696682353,566 L-15.698340319050045,567 L-15.60335093661736,568 L-15.513746899499644,569 L-15.429637961437653,570 L-15.351127145362941,571 L-15.278310617207666,572 L-15.211277568113324,573 L-15.15011010518278,574 L-15.094883150909315,575 L-15.045664351405952,576 L-15.002513993547424,577 L-14.965484931126278,578 L-14.934622520113612,579 L-14.909964563103664,580 L-14.891541263010371,581 L-14.879375186072565,582 L-14.873481234213166,583 L-14.873866626786182,584 L-14.880530891733901,585 L-14.893465866165112,586 L-14.912655706353611,587 L-14.938076907144803,588 L-14.96969833074656,589 L-15.007481244869135,590 L-15.051379370167368,591 L-15.101338936927093,592 L-15.157298750926326,593 L-15.21919026839052,594 L-15.286937679950132,595 L-15.360458003497609,596 L-15.439661185830099,597 L-15.524450212953363,598 L-15.614721228911788,599 L-15.710363662998942,600 L-15.811260365192865,601 L-15.917287749650185,602 L-16.02831594608337,603 L-16.14420895883552,604 L-16.26482483345808,605 L-16.390015830587288,606 L-16.519628606906423,607 L-16.65350440297217,608 L-16.791479237675123,609 L-16.9333841090961,610 L-17.079045201512386,611 L-17.228284098300254,612 L-17.380918000473006,613 L-17.53675995058689,614 L-17.695619061740587,615 L-17.857300751387783,616 L-18.02160697967646,617 L-18.18833649202297,618 L-18.357285065623703,619 L-18.528245759602513,620 L-18.701009168487392,621 L-18.875363678705995,622 L-19.05109572778581,623 L-19.22799006594148,624 L-19.40583001972886,625 L-19.58439775744291,626 L-19.763474555934295,627 L-19.942841068517847,628 L-20.12227759364493,629 L-20.30156434401024,630 L-20.48048171576385,631 L-20.658810557498438,632 L-20.836332438682355,633 L-21.012829917209732,634 L-21.188086805739843,635 L-21.36188843649959,636 L-21.534021924224657,637 L-21.704276426917353,638 L-21.872443404101688,639 L-22.038316872259387,640 L-22.201693657133934,641 L-22.362373642593624,642 L-22.520160015748825,643 L-22.674859508023122,644 L-22.82628263188319,645 L-22.974243912937297,646 L-23.118562117118266,647 L-23.259060472672534,648 L-23.395566886683437,649 L-23.527914155863527,650 L-23.655940171357685,651 L-23.779488117306197,652 L-23.89840666292456,653 L-24.012550147864825,654 L-24.121778760631223,655 L-24.22595870983182,656 L-24.324962388056232,657 L-24.418668528178753,658 L-24.506962351895396,659 L-24.589735710312983,660 L-24.666887216418015,661 L-24.738322369263074,662 L-24.803953669718673,663 L-24.863700727648755,664 L-24.917490360378537,665 L-24.965256682334164,666 L-25.006941185744267,667 L-25.042492812304694,668 L-25.071868015718536,669 L-25.09503081503488,670 L-25.11195283872101,671 L-25.122613359413958,672 L-25.12699931930894,673 L-25.125105346153532,674 L-25.11693375982802,675 L-25.10249456950382,676 L-25.081805461383492,677 L-25.054891777037383,678 L-25.021786482363346,679 L-24.98253012720763,680 L-24.937170795696417,681 L-24.885764047338757,682 L-24.82837284897313,683 L-24.765067497640946,684 L-24.695925534481432,685 L-24.621031649753476,686 L-24.54047757910061,687 L-24.454361991186342,688 L-24.362790366837373,689 L-24.265874869842776,690 L-24.163734209567377,691 L-24.056493495547635,692 L-23.944284084248096,693 L-23.827243418166155,694 L-23.70551485748218,695 L-23.57924750446122,696 L-23.44859602082138,697 L-23.313720438292542,698 L-23.174785962597515,699 L-23.031962771095696,700 L-22.885425804337064,701 L-22.735354551781896,702 L-22.58193283194861,703 L-22.4253485672591,704 L-22.265793553857186,705 L-22.103463226682436,706 L-21.938556420086716,707 L-21.77127512428701,708 L-21.601824237952652,709 L-21.43041131723008,710 L-21.25724632151252,711 L-21.08254135626595,712 L-20.90651041322648,713 L-20.729369108287198,714 L-20.551334417395665,715 L-20.372624410785523,716 L-20.193457985867727,717 L-20.01405459910858,718 L-19.834633997223005,719 L-19.65541594801232,720 L-19.47661997117612,721 L-19.298465069428143,722 L-19.12116946024529,723 L-18.944950308578537,724 L-18.770023460853,725 L-18.59660318058307,726 L-18.424901885926396,727 L-18.255129889498203,728 L-18.087495140764645,729 L-17.922202971330712,730 L-17.759455843434647,731 L-17.5994531019571,732 L-17.44239073024852,733 L-17.28846111007408,734 L-17.137852785970058,735 L-16.990750234300364,736 L-16.847333637296067,737 L-16.707778662354684,738 L-16.572256246869586,739 L-16.44093238885308,740 L-16.313967943609587,741 L-16.191518426708,742 L-16.073733823494592,743 L-15.960758405379686,744 L-15.852730553123235,745 L-15.749782587335702,746 L-15.652040606401844,747 L-15.559624332025965,748 L-15.472646962587799,749 L-15.39121503448865,750 L-15.315428291657625,751 L-15.245379563377789,752 L-15.181154650581902,753 L-15.122832220757006,754 L-15.070483711586597,755 L-15.024173243448388,756 L-14.983957540874854,757 L-14.9498858630728,758 L-14.921999943586979,759 L-14.900333939181703,760 L-14.884914388003107,761 L-14.87576017707321,762 L-14.872882519155702,763 L-14.876284939021684,764 L-14.885963269132287,765 L-14.901905654743366,766 L-14.924092568426097,767 L-14.952496833985627,768 L-14.98708365974851,769 L-15.027810681178167,770 L-15.074628012766137,771 L-15.12747830913559,772 L-15.186296835282242,773 L-15.251011545866646,774 L-15.32154317346071,775 L-15.397805325640403,776 L-15.479704590805655,777 L-15.567140652597892,778 L-15.660006412775035,779 L-15.758188122393449,780 L-15.861565521136168,781 L-15.970011984616784,782 L-16.083394679478424,783 L-16.201574726098052,784 L-16.324407368696605,785 L-16.45174215264676,786 L-16.583423108761004,787 L-16.7192889443344,788 L-16.859173240707992,789 L-17.00290465711082,790 L-17.15030714053098,791 L-17.301200141358507,792 L-17.45539883453611,793 L-17.612714345946717,794 L-17.772953983760686,795 L-17.935921474459178,796 L-18.101417203244676,797 L-18.269238458544162,798 L-18.43917968030543,799" stroke-width="40.87241826249645" fill="none"></path></defs><use href="#line0" stroke="hsl(0, 59.43639487703699%, 39.19459683164935%)" transform="translate(-20, 0) rotate(22.98779172897843, 380, 400)"></use><use href="#line1" stroke="hsl(35.17647058823529, 77.10575270628917%, 59.37531325897393%)" transform="translate(146.18777207453505, 0) rotate(3.1921950915569894, 546.187772074535, 400)"></use><use href="#line2" stroke="hsl(70.35294117647058, 63.43832011657095%, 44.48420579476242%)" transform="translate(312.3894553475834, 0) rotate(-23.984167511325484, 712.3894553475834, 400)"></use><use href="#line3" stroke="hsl(105.52941176470588, 61.37226557859634%, 30.721813053243224%)" transform="translate(478.08901906370073, 0) rotate(-18.71050315724347, 878.0890190637008, 400)"></use><use href="#line4" stroke="hsl(140.70588235294116, 61.871912812912925%, 40.887371755553445%)" transform="translate(643.7680442648332, 0) rotate(17.19835881832541, 1043.7680442648332, 400)"></use><use href="#line0" stroke="hsl(175.8823529411765, 42.12476512008635%, 38.15250841471294%)" transform="translate(809.7993122081637, 0) rotate(-5.526087763301881, 1209.7993122081637, 400)"></use></svg>