<svg xmlns="http://www.w3.org/2000/svg" viewBox="0 0 100 100" id="svg" style="--frame-c: #f6c6a4; --frame-bdw: 1em; background-color: rgb(155, 152, 95); --frame-asr: 100 / 100.;">
  <defs>
    <clipPath id="clipPath63131000">
      <rect width="10" height="10"></rect>
    </clipPath>
		<clipPath id="clipPath63131000circle">
      <polygon points="0,0 10,0 10,10 5,10"></polygon>
    </clipPath>
  </defs>
  <g>
    
    <g transform="translate(0, 0)">
      
      <g transform="translate(0, 0)" clip-path="url(#clipPath63131000)">
        
            <polygon points="0,0 5,10 10,0" fill="#5D5B39"></polygon>
            <circle cx="15" cy="8.658008658008658" r="10" fill="#9b985f"></circle>
      </g>
      <g transform="translate(10, 0)" clip-path="url(#clipPath63131000)">
        <polygon points="0,0 5,10 10,0" fill="#75744A"></polygon>
      </g>
      <g transform="translate(20, 0)" clip-path="url(#clipPath63131000)">
        <polygon points="0,0 5,10 10,0" fill="#B3B077"></polygon>
      </g>
      <g transform="translate(30, 0)" clip-path="url(#clipPath63131000)">
        
            <polygon points="0,0 5,10 10,0" fill="#8A8558"></polygon>
            <circle cx="15" cy="8.658008658008658" r="10" fill="#9b985f"></circle>
      </g>
      <g transform="translate(40, 0)" clip-path="url(#clipPath63131000)">
        <polygon points="0,0 5,10 10,0" fill="#A39F6E"></polygon>
      </g>
      <g transform="translate(50, 0)" clip-path="url(#clipPath63131000)">
        <polygon points="0,0 5,10 10,0" fill="#6E6C4D"></polygon>
      </g>
      <g transform="translate(60, 0)" clip-path="url(#clipPath63131000)">
        <polygon points="0,0 5,10 10,0" fill="#D2CE98"></polygon>
      </g>
      <g transform="translate(70, 0)" clip-path="url(#clipPath63131000)">
        <polygon points="0,0 5,10 10,0" fill="#8F8D64"></polygon>
      </g>
      <g transform="translate(80, 0)" clip-path="url(#clipPath63131000)">
        
            <polygon points="0,0 5,10 10,0" fill="#5D5B39"></polygon>
            <circle cx="15" cy="8.658008658008658" r="10" fill="#9b985f"></circle>
      </g>
      <g transform="translate(90, 0)" clip-path="url(#clipPath63131000)">
        <polygon points="0,0 5,10 10,0" fill="#75744A"></polygon>
      </g>
    </g>
    <g transform="translate(-5, 10)">
      
      <g transform="translate(0, 0)" clip-path="url(#clipPath63131000)">
        <polygon points="0,0 5,10 10,0" fill="#5D5B39"></polygon>
      </g>
      <g transform="translate(10, 0)" clip-path="url(#clipPath63131000)">
        <polygon points="0,0 5,10 10,0" fill="#75744A"></polygon>
      </g>
      <g transform="translate(20, 0)" clip-path="url(#clipPath63131000)">
        <polygon points="0,0 5,10 10,0" fill="#B3B077"></polygon>
      </g>
      <g transform="translate(30, 0)" clip-path="url(#clipPath63131000)">
        <polygon points="0,0 5,10 10,0" fill="#8A8558"></polygon>
      </g>
      <g transform="translate(40, 0)" clip-path="url(#clipPath63131000)">
        <polygon points="0,0 5,10 10,0" fill="#A39F6E"></polygon>
      </g>
      <g transform="translate(50, 0)" clip-path="url(#clipPath63131000)">
        
            <polygon points="0,0 5,10 10,0" fill="#6E6C4D"></polygon>
            <circle cx="15" cy="8.658008658008658" r="10" fill="#9b985f"></circle>
      </g>
      <g transform="translate(60, 0)" clip-path="url(#clipPath63131000)">
        
            <polygon points="0,0 5,10 10,0" fill="#D2CE98"></polygon>
            <circle cx="15" cy="8.658008658008658" r="10" fill="#9b985f"></circle>
      </g>
      <g transform="translate(70, 0)" clip-path="url(#clipPath63131000)">
        
            <polygon points="0,0 5,10 10,0" fill="#8F8D64"></polygon>
            <circle cx="15" cy="8.658008658008658" r="10" fill="#9b985f"></circle>
      </g>
      <g transform="translate(80, 0)" clip-path="url(#clipPath63131000)">
        
            <polygon points="0,0 5,10 10,0" fill="#5D5B39"></polygon>
            <circle cx="15" cy="8.658008658008658" r="10" fill="#9b985f"></circle>
      </g>
      <g transform="translate(90, 0)" clip-path="url(#clipPath63131000)">
        
            <polygon points="0,0 5,10 10,0" fill="#75744A"></polygon>
            <circle cx="15" cy="8.658008658008658" r="10" fill="#9b985f"></circle>
      </g>
      <g transform="translate(100, 0)" clip-path="url(#clipPath63131000)">
        <polygon points="0,0 5,10 10,0" fill="#B3B077"></polygon>
      </g>
    </g>
    <g transform="translate(0, 20)">
      
      <g transform="translate(0, 0)" clip-path="url(#clipPath63131000)">
        <polygon points="0,0 5,10 10,0" fill="#5D5B39"></polygon>
      </g>
      <g transform="translate(10, 0)" clip-path="url(#clipPath63131000)">
        <polygon points="0,0 5,10 10,0" fill="#75744A"></polygon>
      </g>
      <g transform="translate(20, 0)" clip-path="url(#clipPath63131000)">
        
            <circle cx="0" cy="1.341991341991342" r="10" fill="#B3B077" clip-path="url(#clipPath63131000circle)"></circle>
            <polygon points="0,0 5,10 0,10" fill="#9b985f"></polygon>
      </g>
      <g transform="translate(30, 0)" clip-path="url(#clipPath63131000)">
        <polygon points="0,0 5,10 10,0" fill="#8A8558"></polygon>
      </g>
      <g transform="translate(40, 0)" clip-path="url(#clipPath63131000)">
        
            <polygon points="0,0 5,10 10,0" fill="#A39F6E"></polygon>
            <circle cx="15" cy="8.658008658008658" r="10" fill="#9b985f"></circle>
      </g>
      <g transform="translate(50, 0)" clip-path="url(#clipPath63131000)">
        <polygon points="0,0 5,10 10,0" fill="#6E6C4D"></polygon>
      </g>
      <g transform="translate(60, 0)" clip-path="url(#clipPath63131000)">
        <polygon points="0,0 5,10 10,0" fill="#D2CE98"></polygon>
      </g>
      <g transform="translate(70, 0)" clip-path="url(#clipPath63131000)">
        
            <circle cx="0" cy="1.341991341991342" r="10" fill="#8F8D64" clip-path="url(#clipPath63131000circle)"></circle>
            <polygon points="0,0 5,10 0,10" fill="#9b985f"></polygon>
      </g>
      <g transform="translate(80, 0)" clip-path="url(#clipPath63131000)">
        
            <circle cx="0" cy="1.341991341991342" r="10" fill="#5D5B39" clip-path="url(#clipPath63131000circle)"></circle>
            <polygon points="0,0 5,10 0,10" fill="#9b985f"></polygon>
      </g>
      <g transform="translate(90, 0)" clip-path="url(#clipPath63131000)">
        <polygon points="0,0 5,10 10,0" fill="#75744A"></polygon>
      </g>
    </g>
    <g transform="translate(-5, 30)">
      
      <g transform="translate(0, 0)" clip-path="url(#clipPath63131000)">
        <polygon points="0,0 5,10 10,0" fill="#5D5B39"></polygon>
      </g>
      <g transform="translate(10, 0)" clip-path="url(#clipPath63131000)">
        <polygon points="0,0 5,10 10,0" fill="#75744A"></polygon>
      </g>
      <g transform="translate(20, 0)" clip-path="url(#clipPath63131000)">
        <polygon points="0,0 5,10 10,0" fill="#B3B077"></polygon>
      </g>
      <g transform="translate(30, 0)" clip-path="url(#clipPath63131000)">
        <polygon points="0,0 5,10 10,0" fill="#8A8558"></polygon>
      </g>
      <g transform="translate(40, 0)" clip-path="url(#clipPath63131000)">
        
            <polygon points="0,0 5,10 10,0" fill="#A39F6E"></polygon>
            <circle cx="15" cy="8.658008658008658" r="10" fill="#9b985f"></circle>
      </g>
      <g transform="translate(50, 0)" clip-path="url(#clipPath63131000)">
        <polygon points="0,0 5,10 10,0" fill="#6E6C4D"></polygon>
      </g>
      <g transform="translate(60, 0)" clip-path="url(#clipPath63131000)">
        
            <polygon points="0,0 5,10 10,0" fill="#D2CE98"></polygon>
            <circle cx="15" cy="8.658008658008658" r="10" fill="#9b985f"></circle>
      </g>
      <g transform="translate(70, 0)" clip-path="url(#clipPath63131000)">
        
            <circle cx="0" cy="1.341991341991342" r="10" fill="#8F8D64" clip-path="url(#clipPath63131000circle)"></circle>
            <polygon points="0,0 5,10 0,10" fill="#9b985f"></polygon>
      </g>
      <g transform="translate(80, 0)" clip-path="url(#clipPath63131000)">
        
            <polygon points="0,0 5,10 10,0" fill="#5D5B39"></polygon>
            <circle cx="15" cy="8.658008658008658" r="10" fill="#9b985f"></circle>
      </g>
      <g transform="translate(90, 0)" clip-path="url(#clipPath63131000)">
        <polygon points="0,0 5,10 10,0" fill="#75744A"></polygon>
      </g>
      <g transform="translate(100, 0)" clip-path="url(#clipPath63131000)">
        <polygon points="0,0 5,10 10,0" fill="#B3B077"></polygon>
      </g>
    </g>
    <g transform="translate(0, 40)">
      
      <g transform="translate(0, 0)" clip-path="url(#clipPath63131000)">
        <polygon points="0,0 5,10 10,0" fill="#5D5B39"></polygon>
      </g>
      <g transform="translate(10, 0)" clip-path="url(#clipPath63131000)">
        <polygon points="0,0 5,10 10,0" fill="#75744A"></polygon>
      </g>
      <g transform="translate(20, 0)" clip-path="url(#clipPath63131000)">
        
            <polygon points="0,0 5,10 10,0" fill="#B3B077"></polygon>
            <circle cx="15" cy="8.658008658008658" r="10" fill="#9b985f"></circle>
      </g>
      <g transform="translate(30, 0)" clip-path="url(#clipPath63131000)">
        <polygon points="0,0 5,10 10,0" fill="#8A8558"></polygon>
      </g>
      <g transform="translate(40, 0)" clip-path="url(#clipPath63131000)">
        <polygon points="0,0 5,10 10,0" fill="#A39F6E"></polygon>
      </g>
      <g transform="translate(50, 0)" clip-path="url(#clipPath63131000)">
        <polygon points="0,0 5,10 10,0" fill="#6E6C4D"></polygon>
      </g>
      <g transform="translate(60, 0)" clip-path="url(#clipPath63131000)">
        <polygon points="0,0 5,10 10,0" fill="#D2CE98"></polygon>
      </g>
      <g transform="translate(70, 0)" clip-path="url(#clipPath63131000)">
        
            <circle cx="0" cy="1.341991341991342" r="10" fill="#8F8D64" clip-path="url(#clipPath63131000circle)"></circle>
            <polygon points="0,0 5,10 0,10" fill="#9b985f"></polygon>
      </g>
      <g transform="translate(80, 0)" clip-path="url(#clipPath63131000)">
        
            <polygon points="0,0 5,10 10,0" fill="#5D5B39"></polygon>
            <circle cx="15" cy="8.658008658008658" r="10" fill="#9b985f"></circle>
      </g>
      <g transform="translate(90, 0)" clip-path="url(#clipPath63131000)">
        <polygon points="0,0 5,10 10,0" fill="#75744A"></polygon>
      </g>
    </g>
    <g transform="translate(-5, 50)">
      
      <g transform="translate(0, 0)" clip-path="url(#clipPath63131000)">
        <polygon points="0,0 5,10 10,0" fill="#5D5B39"></polygon>
      </g>
      <g transform="translate(10, 0)" clip-path="url(#clipPath63131000)">
        <polygon points="0,0 5,10 10,0" fill="#75744A"></polygon>
      </g>
      <g transform="translate(20, 0)" clip-path="url(#clipPath63131000)">
        
            <circle cx="0" cy="1.341991341991342" r="10" fill="#B3B077" clip-path="url(#clipPath63131000circle)"></circle>
            <polygon points="0,0 5,10 0,10" fill="#9b985f"></polygon>
      </g>
      <g transform="translate(30, 0)" clip-path="url(#clipPath63131000)">
        <polygon points="0,0 5,10 10,0" fill="#8A8558"></polygon>
      </g>
      <g transform="translate(40, 0)" clip-path="url(#clipPath63131000)">
        
            <polygon points="0,0 5,10 10,0" fill="#A39F6E"></polygon>
            <circle cx="15" cy="8.658008658008658" r="10" fill="#9b985f"></circle>
      </g>
      <g transform="translate(50, 0)" clip-path="url(#clipPath63131000)">
        
            <polygon points="0,0 5,10 10,0" fill="#6E6C4D"></polygon>
            <circle cx="15" cy="8.658008658008658" r="10" fill="#9b985f"></circle>
      </g>
      <g transform="translate(60, 0)" clip-path="url(#clipPath63131000)">
        
            <polygon points="0,0 5,10 10,0" fill="#D2CE98"></polygon>
            <circle cx="15" cy="8.658008658008658" r="10" fill="#9b985f"></circle>
      </g>
      <g transform="translate(70, 0)" clip-path="url(#clipPath63131000)">
        <polygon points="0,0 5,10 10,0" fill="#8F8D64"></polygon>
      </g>
      <g transform="translate(80, 0)" clip-path="url(#clipPath63131000)">
        <polygon points="0,0 5,10 10,0" fill="#5D5B39"></polygon>
      </g>
      <g transform="translate(90, 0)" clip-path="url(#clipPath63131000)">
        <polygon points="0,0 5,10 10,0" fill="#75744A"></polygon>
      </g>
      <g transform="translate(100, 0)" clip-path="url(#clipPath63131000)">
        <polygon points="0,0 5,10 10,0" fill="#B3B077"></polygon>
      </g>
    </g>
    <g transform="translate(0, 60)">
      
      <g transform="translate(0, 0)" clip-path="url(#clipPath63131000)">
        
            <polygon points="0,0 5,10 10,0" fill="#5D5B39"></polygon>
            <circle cx="15" cy="8.658008658008658" r="10" fill="#9b985f"></circle>
      </g>
      <g transform="translate(10, 0)" clip-path="url(#clipPath63131000)">
        <polygon points="0,0 5,10 10,0" fill="#75744A"></polygon>
      </g>
      <g transform="translate(20, 0)" clip-path="url(#clipPath63131000)">
        <polygon points="0,0 5,10 10,0" fill="#B3B077"></polygon>
      </g>
      <g transform="translate(30, 0)" clip-path="url(#clipPath63131000)">
        
            <circle cx="0" cy="1.341991341991342" r="10" fill="#8A8558" clip-path="url(#clipPath63131000circle)"></circle>
            <polygon points="0,0 5,10 0,10" fill="#9b985f"></polygon>
      </g>
      <g transform="translate(40, 0)" clip-path="url(#clipPath63131000)">
        <polygon points="0,0 5,10 10,0" fill="#A39F6E"></polygon>
      </g>
      <g transform="translate(50, 0)" clip-path="url(#clipPath63131000)">
        <polygon points="0,0 5,10 10,0" fill="#6E6C4D"></polygon>
      </g>
      <g transform="translate(60, 0)" clip-path="url(#clipPath63131000)">
        <polygon points="0,0 5,10 10,0" fill="#D2CE98"></polygon>
      </g>
      <g transform="translate(70, 0)" clip-path="url(#clipPath63131000)">
        <polygon points="0,0 5,10 10,0" fill="#8F8D64"></polygon>
      </g>
      <g transform="translate(80, 0)" clip-path="url(#clipPath63131000)">
        <polygon points="0,0 5,10 10,0" fill="#5D5B39"></polygon>
      </g>
      <g transform="translate(90, 0)" clip-path="url(#clipPath63131000)">
        <polygon points="0,0 5,10 10,0" fill="#75744A"></polygon>
      </g>
    </g>
    <g transform="translate(-5, 70)">
      
      <g transform="translate(0, 0)" clip-path="url(#clipPath63131000)">
        <polygon points="0,0 5,10 10,0" fill="#5D5B39"></polygon>
      </g>
      <g transform="translate(10, 0)" clip-path="url(#clipPath63131000)">
        
            <circle cx="0" cy="1.341991341991342" r="10" fill="#75744A" clip-path="url(#clipPath63131000circle)"></circle>
            <polygon points="0,0 5,10 0,10" fill="#9b985f"></polygon>
      </g>
      <g transform="translate(20, 0)" clip-path="url(#clipPath63131000)">
        
            <polygon points="0,0 5,10 10,0" fill="#B3B077"></polygon>
            <circle cx="15" cy="8.658008658008658" r="10" fill="#9b985f"></circle>
      </g>
      <g transform="translate(30, 0)" clip-path="url(#clipPath63131000)">
        
            <polygon points="0,0 5,10 10,0" fill="#8A8558"></polygon>
            <circle cx="15" cy="8.658008658008658" r="10" fill="#9b985f"></circle>
      </g>
      <g transform="translate(40, 0)" clip-path="url(#clipPath63131000)">
        
            <polygon points="0,0 5,10 10,0" fill="#A39F6E"></polygon>
            <circle cx="15" cy="8.658008658008658" r="10" fill="#9b985f"></circle>
      </g>
      <g transform="translate(50, 0)" clip-path="url(#clipPath63131000)">
        <polygon points="0,0 5,10 10,0" fill="#6E6C4D"></polygon>
      </g>
      <g transform="translate(60, 0)" clip-path="url(#clipPath63131000)">
        <polygon points="0,0 5,10 10,0" fill="#D2CE98"></polygon>
      </g>
      <g transform="translate(70, 0)" clip-path="url(#clipPath63131000)">
        <polygon points="0,0 5,10 10,0" fill="#8F8D64"></polygon>
      </g>
      <g transform="translate(80, 0)" clip-path="url(#clipPath63131000)">
        <polygon points="0,0 5,10 10,0" fill="#5D5B39"></polygon>
      </g>
      <g transform="translate(90, 0)" clip-path="url(#clipPath63131000)">
        
            <circle cx="0" cy="1.341991341991342" r="10" fill="#75744A" clip-path="url(#clipPath63131000circle)"></circle>
            <polygon points="0,0 5,10 0,10" fill="#9b985f"></polygon>
      </g>
      <g transform="translate(100, 0)" clip-path="url(#clipPath63131000)">
        <polygon points="0,0 5,10 10,0" fill="#B3B077"></polygon>
      </g>
    </g>
    <g transform="translate(0, 80)">
      
      <g transform="translate(0, 0)" clip-path="url(#clipPath63131000)">
        <polygon points="0,0 5,10 10,0" fill="#5D5B39"></polygon>
      </g>
      <g transform="translate(10, 0)" clip-path="url(#clipPath63131000)">
        <polygon points="0,0 5,10 10,0" fill="#75744A"></polygon>
      </g>
      <g transform="translate(20, 0)" clip-path="url(#clipPath63131000)">
        
            <polygon points="0,0 5,10 10,0" fill="#B3B077"></polygon>
            <circle cx="15" cy="8.658008658008658" r="10" fill="#9b985f"></circle>
      </g>
      <g transform="translate(30, 0)" clip-path="url(#clipPath63131000)">
        
            <polygon points="0,0 5,10 10,0" fill="#8A8558"></polygon>
            <circle cx="15" cy="8.658008658008658" r="10" fill="#9b985f"></circle>
      </g>
      <g transform="translate(40, 0)" clip-path="url(#clipPath63131000)">
        <polygon points="0,0 5,10 10,0" fill="#A39F6E"></polygon>
      </g>
      <g transform="translate(50, 0)" clip-path="url(#clipPath63131000)">
        <polygon points="0,0 5,10 10,0" fill="#6E6C4D"></polygon>
      </g>
      <g transform="translate(60, 0)" clip-path="url(#clipPath63131000)">
        <polygon points="0,0 5,10 10,0" fill="#D2CE98"></polygon>
      </g>
      <g transform="translate(70, 0)" clip-path="url(#clipPath63131000)">
        
            <polygon points="0,0 5,10 10,0" fill="#8F8D64"></polygon>
            <circle cx="15" cy="8.658008658008658" r="10" fill="#9b985f"></circle>
      </g>
      <g transform="translate(80, 0)" clip-path="url(#clipPath63131000)">
        <polygon points="0,0 5,10 10,0" fill="#5D5B39"></polygon>
      </g>
      <g transform="translate(90, 0)" clip-path="url(#clipPath63131000)">
        <polygon points="0,0 5,10 10,0" fill="#75744A"></polygon>
      </g>
    </g>
    <g transform="translate(-5, 90)">
      
      <g transform="translate(0, 0)" clip-path="url(#clipPath63131000)">
        <polygon points="0,0 5,10 10,0" fill="#5D5B39"></polygon>
      </g>
      <g transform="translate(10, 0)" clip-path="url(#clipPath63131000)">
        <polygon points="0,0 5,10 10,0" fill="#75744A"></polygon>
      </g>
      <g transform="translate(20, 0)" clip-path="url(#clipPath63131000)">
        
            <circle cx="0" cy="1.341991341991342" r="10" fill="#B3B077" clip-path="url(#clipPath63131000circle)"></circle>
            <polygon points="0,0 5,10 0,10" fill="#9b985f"></polygon>
      </g>
      <g transform="translate(30, 0)" clip-path="url(#clipPath63131000)">
        <polygon points="0,0 5,10 10,0" fill="#8A8558"></polygon>
      </g>
      <g transform="translate(40, 0)" clip-path="url(#clipPath63131000)">
        <polygon points="0,0 5,10 10,0" fill="#A39F6E"></polygon>
      </g>
      <g transform="translate(50, 0)" clip-path="url(#clipPath63131000)">
        
            <polygon points="0,0 5,10 10,0" fill="#6E6C4D"></polygon>
            <circle cx="15" cy="8.658008658008658" r="10" fill="#9b985f"></circle>
      </g>
      <g transform="translate(60, 0)" clip-path="url(#clipPath63131000)">
        <polygon points="0,0 5,10 10,0" fill="#D2CE98"></polygon>
      </g>
      <g transform="translate(70, 0)" clip-path="url(#clipPath63131000)">
        
            <circle cx="0" cy="1.341991341991342" r="10" fill="#8F8D64" clip-path="url(#clipPath63131000circle)"></circle>
            <polygon points="0,0 5,10 0,10" fill="#9b985f"></polygon>
      </g>
      <g transform="translate(80, 0)" clip-path="url(#clipPath63131000)">
        <polygon points="0,0 5,10 10,0" fill="#5D5B39"></polygon>
      </g>
      <g transform="translate(90, 0)" clip-path="url(#clipPath63131000)">
        <polygon points="0,0 5,10 10,0" fill="#75744A"></polygon>
      </g>
      <g transform="translate(100, 0)" clip-path="url(#clipPath63131000)">
        <polygon points="0,0 5,10 10,0" fill="#B3B077"></polygon>
      </g>
    </g>
  </g></svg>