<svg xmlns="http://www.w3.org/2000/svg" viewBox="0 0 100 100" id="svg" style="--frame-c: #f6c6a4; --frame-bdw: 1em; background-color: rgb(215, 217, 219); --frame-asr: 100 / 100.;">
  <defs>
    <clipPath id="clipPath36941000">
      <rect width="10" height="10"></rect>
    </clipPath>
		<clipPath id="clipPath36941000circle">
      <polygon points="0,0 10,0 10,10 5,10"></polygon>
    </clipPath>
  </defs>
  <g>
    
    <g transform="translate(0, 0)">
      
      <g transform="translate(0, 0)" clip-path="url(#clipPath36941000)">
        
            <circle cx="0" cy="1.341991341991342" r="10" fill="#6B6E70" clip-path="url(#clipPath36941000circle)"></circle>
            <polygon points="0,0 5,10 0,10" fill="#d7d9db"></polygon>
      </g>
      <g transform="translate(10, 0)" clip-path="url(#clipPath36941000)">
        <polygon points="0,0 5,10 10,0" fill="#4B4F52"></polygon>
      </g>
      <g transform="translate(20, 0)" clip-path="url(#clipPath36941000)">
        
            <polygon points="0,0 5,10 10,0" fill="#919497"></polygon>
            <circle cx="15" cy="8.658008658008658" r="10" fill="#d7d9db"></circle>
      </g>
      <g transform="translate(30, 0)" clip-path="url(#clipPath36941000)">
        
            <polygon points="0,0 5,10 10,0" fill="#2D2E30"></polygon>
            <circle cx="15" cy="8.658008658008658" r="10" fill="#d7d9db"></circle>
      </g>
      <g transform="translate(40, 0)" clip-path="url(#clipPath36941000)">
        
            <circle cx="0" cy="1.341991341991342" r="10" fill="#A6A8AB" clip-path="url(#clipPath36941000circle)"></circle>
            <polygon points="0,0 5,10 0,10" fill="#d7d9db"></polygon>
      </g>
      <g transform="translate(50, 0)" clip-path="url(#clipPath36941000)">
        <polygon points="0,0 5,10 10,0" fill="#3A3C3F"></polygon>
      </g>
      <g transform="translate(60, 0)" clip-path="url(#clipPath36941000)">
        
            <polygon points="0,0 5,10 10,0" fill="#C1C3C5"></polygon>
            <circle cx="15" cy="8.658008658008658" r="10" fill="#d7d9db"></circle>
      </g>
      <g transform="translate(70, 0)" clip-path="url(#clipPath36941000)">
        <polygon points="0,0 5,10 10,0" fill="#787A7C"></polygon>
      </g>
      <g transform="translate(80, 0)" clip-path="url(#clipPath36941000)">
        <polygon points="0,0 5,10 10,0" fill="#6B6E70"></polygon>
      </g>
      <g transform="translate(90, 0)" clip-path="url(#clipPath36941000)">
        <polygon points="0,0 5,10 10,0" fill="#4B4F52"></polygon>
      </g>
    </g>
    <g transform="translate(-5, 10)">
      
      <g transform="translate(0, 0)" clip-path="url(#clipPath36941000)">
        <polygon points="0,0 5,10 10,0" fill="#6B6E70"></polygon>
      </g>
      <g transform="translate(10, 0)" clip-path="url(#clipPath36941000)">
        <polygon points="0,0 5,10 10,0" fill="#4B4F52"></polygon>
      </g>
      <g transform="translate(20, 0)" clip-path="url(#clipPath36941000)">
        
            <polygon points="0,0 5,10 10,0" fill="#919497"></polygon>
            <circle cx="15" cy="8.658008658008658" r="10" fill="#d7d9db"></circle>
      </g>
      <g transform="translate(30, 0)" clip-path="url(#clipPath36941000)">
        <polygon points="0,0 5,10 10,0" fill="#2D2E30"></polygon>
      </g>
      <g transform="translate(40, 0)" clip-path="url(#clipPath36941000)">
        
            <polygon points="0,0 5,10 10,0" fill="#A6A8AB"></polygon>
            <circle cx="15" cy="8.658008658008658" r="10" fill="#d7d9db"></circle>
      </g>
      <g transform="translate(50, 0)" clip-path="url(#clipPath36941000)">
        <polygon points="0,0 5,10 10,0" fill="#3A3C3F"></polygon>
      </g>
      <g transform="translate(60, 0)" clip-path="url(#clipPath36941000)">
        <polygon points="0,0 5,10 10,0" fill="#C1C3C5"></polygon>
      </g>
      <g transform="translate(70, 0)" clip-path="url(#clipPath36941000)">
        
            <circle cx="0" cy="1.341991341991342" r="10" fill="#787A7C" clip-path="url(#clipPath36941000circle)"></circle>
            <polygon points="0,0 5,10 0,10" fill="#d7d9db"></polygon>
      </g>
      <g transform="translate(80, 0)" clip-path="url(#clipPath36941000)">
        
            <polygon points="0,0 5,10 10,0" fill="#6B6E70"></polygon>
            <circle cx="15" cy="8.658008658008658" r="10" fill="#d7d9db"></circle>
      </g>
      <g transform="translate(90, 0)" clip-path="url(#clipPath36941000)">
        
            <circle cx="0" cy="1.341991341991342" r="10" fill="#4B4F52" clip-path="url(#clipPath36941000circle)"></circle>
            <polygon points="0,0 5,10 0,10" fill="#d7d9db"></polygon>
      </g>
      <g transform="translate(100, 0)" clip-path="url(#clipPath36941000)">
        <polygon points="0,0 5,10 10,0" fill="#919497"></polygon>
      </g>
    </g>
    <g transform="translate(0, 20)">
      
      <g transform="translate(0, 0)" clip-path="url(#clipPath36941000)">
        <polygon points="0,0 5,10 10,0" fill="#6B6E70"></polygon>
      </g>
      <g transform="translate(10, 0)" clip-path="url(#clipPath36941000)">
        <polygon points="0,0 5,10 10,0" fill="#4B4F52"></polygon>
      </g>
      <g transform="translate(20, 0)" clip-path="url(#clipPath36941000)">
        <polygon points="0,0 5,10 10,0" fill="#919497"></polygon>
      </g>
      <g transform="translate(30, 0)" clip-path="url(#clipPath36941000)">
        <polygon points="0,0 5,10 10,0" fill="#2D2E30"></polygon>
      </g>
      <g transform="translate(40, 0)" clip-path="url(#clipPath36941000)">
        
            <polygon points="0,0 5,10 10,0" fill="#A6A8AB"></polygon>
            <circle cx="15" cy="8.658008658008658" r="10" fill="#d7d9db"></circle>
      </g>
      <g transform="translate(50, 0)" clip-path="url(#clipPath36941000)">
        <polygon points="0,0 5,10 10,0" fill="#3A3C3F"></polygon>
      </g>
      <g transform="translate(60, 0)" clip-path="url(#clipPath36941000)">
        <polygon points="0,0 5,10 10,0" fill="#C1C3C5"></polygon>
      </g>
      <g transform="translate(70, 0)" clip-path="url(#clipPath36941000)">
        <polygon points="0,0 5,10 10,0" fill="#787A7C"></polygon>
      </g>
      <g transform="translate(80, 0)" clip-path="url(#clipPath36941000)">
        <polygon points="0,0 5,10 10,0" fill="#6B6E70"></polygon>
      </g>
      <g transform="translate(90, 0)" clip-path="url(#clipPath36941000)">
        <polygon points="0,0 5,10 10,0" fill="#4B4F52"></polygon>
      </g>
    </g>
    <g transform="translate(-5, 30)">
      
      <g transform="translate(0, 0)" clip-path="url(#clipPath36941000)">
        <polygon points="0,0 5,10 10,0" fill="#6B6E70"></polygon>
      </g>
      <g transform="translate(10, 0)" clip-path="url(#clipPath36941000)">
        <polygon points="0,0 5,10 10,0" fill="#4B4F52"></polygon>
      </g>
      <g transform="translate(20, 0)" clip-path="url(#clipPath36941000)">
        
            <circle cx="0" cy="1.341991341991342" r="10" fill="#919497" clip-path="url(#clipPath36941000circle)"></circle>
            <polygon points="0,0 5,10 0,10" fill="#d7d9db"></polygon>
      </g>
      <g transform="translate(30, 0)" clip-path="url(#clipPath36941000)">
        <polygon points="0,0 5,10 10,0" fill="#2D2E30"></polygon>
      </g>
      <g transform="translate(40, 0)" clip-path="url(#clipPath36941000)">
        <polygon points="0,0 5,10 10,0" fill="#A6A8AB"></polygon>
      </g>
      <g transform="translate(50, 0)" clip-path="url(#clipPath36941000)">
        <polygon points="0,0 5,10 10,0" fill="#3A3C3F"></polygon>
      </g>
      <g transform="translate(60, 0)" clip-path="url(#clipPath36941000)">
        <polygon points="0,0 5,10 10,0" fill="#C1C3C5"></polygon>
      </g>
      <g transform="translate(70, 0)" clip-path="url(#clipPath36941000)">
        
            <polygon points="0,0 5,10 10,0" fill="#787A7C"></polygon>
            <circle cx="15" cy="8.658008658008658" r="10" fill="#d7d9db"></circle>
      </g>
      <g transform="translate(80, 0)" clip-path="url(#clipPath36941000)">
        <polygon points="0,0 5,10 10,0" fill="#6B6E70"></polygon>
      </g>
      <g transform="translate(90, 0)" clip-path="url(#clipPath36941000)">
        <polygon points="0,0 5,10 10,0" fill="#4B4F52"></polygon>
      </g>
      <g transform="translate(100, 0)" clip-path="url(#clipPath36941000)">
        <polygon points="0,0 5,10 10,0" fill="#919497"></polygon>
      </g>
    </g>
    <g transform="translate(0, 40)">
      
      <g transform="translate(0, 0)" clip-path="url(#clipPath36941000)">
        
            <circle cx="0" cy="1.341991341991342" r="10" fill="#6B6E70" clip-path="url(#clipPath36941000circle)"></circle>
            <polygon points="0,0 5,10 0,10" fill="#d7d9db"></polygon>
      </g>
      <g transform="translate(10, 0)" clip-path="url(#clipPath36941000)">
        <polygon points="0,0 5,10 10,0" fill="#4B4F52"></polygon>
      </g>
      <g transform="translate(20, 0)" clip-path="url(#clipPath36941000)">
        <polygon points="0,0 5,10 10,0" fill="#919497"></polygon>
      </g>
      <g transform="translate(30, 0)" clip-path="url(#clipPath36941000)">
        
            <circle cx="0" cy="1.341991341991342" r="10" fill="#2D2E30" clip-path="url(#clipPath36941000circle)"></circle>
            <polygon points="0,0 5,10 0,10" fill="#d7d9db"></polygon>
      </g>
      <g transform="translate(40, 0)" clip-path="url(#clipPath36941000)">
        <polygon points="0,0 5,10 10,0" fill="#A6A8AB"></polygon>
      </g>
      <g transform="translate(50, 0)" clip-path="url(#clipPath36941000)">
        
            <polygon points="0,0 5,10 10,0" fill="#3A3C3F"></polygon>
            <circle cx="15" cy="8.658008658008658" r="10" fill="#d7d9db"></circle>
      </g>
      <g transform="translate(60, 0)" clip-path="url(#clipPath36941000)">
        
            <polygon points="0,0 5,10 10,0" fill="#C1C3C5"></polygon>
            <circle cx="15" cy="8.658008658008658" r="10" fill="#d7d9db"></circle>
      </g>
      <g transform="translate(70, 0)" clip-path="url(#clipPath36941000)">
        <polygon points="0,0 5,10 10,0" fill="#787A7C"></polygon>
      </g>
      <g transform="translate(80, 0)" clip-path="url(#clipPath36941000)">
        <polygon points="0,0 5,10 10,0" fill="#6B6E70"></polygon>
      </g>
      <g transform="translate(90, 0)" clip-path="url(#clipPath36941000)">
        <polygon points="0,0 5,10 10,0" fill="#4B4F52"></polygon>
      </g>
    </g>
    <g transform="translate(-5, 50)">
      
      <g transform="translate(0, 0)" clip-path="url(#clipPath36941000)">
        
            <polygon points="0,0 5,10 10,0" fill="#6B6E70"></polygon>
            <circle cx="15" cy="8.658008658008658" r="10" fill="#d7d9db"></circle>
      </g>
      <g transform="translate(10, 0)" clip-path="url(#clipPath36941000)">
        <polygon points="0,0 5,10 10,0" fill="#4B4F52"></polygon>
      </g>
      <g transform="translate(20, 0)" clip-path="url(#clipPath36941000)">
        <polygon points="0,0 5,10 10,0" fill="#919497"></polygon>
      </g>
      <g transform="translate(30, 0)" clip-path="url(#clipPath36941000)">
        
            <polygon points="0,0 5,10 10,0" fill="#2D2E30"></polygon>
            <circle cx="15" cy="8.658008658008658" r="10" fill="#d7d9db"></circle>
      </g>
      <g transform="translate(40, 0)" clip-path="url(#clipPath36941000)">
        
            <polygon points="0,0 5,10 10,0" fill="#A6A8AB"></polygon>
            <circle cx="15" cy="8.658008658008658" r="10" fill="#d7d9db"></circle>
      </g>
      <g transform="translate(50, 0)" clip-path="url(#clipPath36941000)">
        <polygon points="0,0 5,10 10,0" fill="#3A3C3F"></polygon>
      </g>
      <g transform="translate(60, 0)" clip-path="url(#clipPath36941000)">
        <polygon points="0,0 5,10 10,0" fill="#C1C3C5"></polygon>
      </g>
      <g transform="translate(70, 0)" clip-path="url(#clipPath36941000)">
        <polygon points="0,0 5,10 10,0" fill="#787A7C"></polygon>
      </g>
      <g transform="translate(80, 0)" clip-path="url(#clipPath36941000)">
        <polygon points="0,0 5,10 10,0" fill="#6B6E70"></polygon>
      </g>
      <g transform="translate(90, 0)" clip-path="url(#clipPath36941000)">
        
            <polygon points="0,0 5,10 10,0" fill="#4B4F52"></polygon>
            <circle cx="15" cy="8.658008658008658" r="10" fill="#d7d9db"></circle>
      </g>
      <g transform="translate(100, 0)" clip-path="url(#clipPath36941000)">
        <polygon points="0,0 5,10 10,0" fill="#919497"></polygon>
      </g>
    </g>
    <g transform="translate(0, 60)">
      
      <g transform="translate(0, 0)" clip-path="url(#clipPath36941000)">
        
            <polygon points="0,0 5,10 10,0" fill="#6B6E70"></polygon>
            <circle cx="15" cy="8.658008658008658" r="10" fill="#d7d9db"></circle>
      </g>
      <g transform="translate(10, 0)" clip-path="url(#clipPath36941000)">
        <polygon points="0,0 5,10 10,0" fill="#4B4F52"></polygon>
      </g>
      <g transform="translate(20, 0)" clip-path="url(#clipPath36941000)">
        
            <polygon points="0,0 5,10 10,0" fill="#919497"></polygon>
            <circle cx="15" cy="8.658008658008658" r="10" fill="#d7d9db"></circle>
      </g>
      <g transform="translate(30, 0)" clip-path="url(#clipPath36941000)">
        
            <polygon points="0,0 5,10 10,0" fill="#2D2E30"></polygon>
            <circle cx="15" cy="8.658008658008658" r="10" fill="#d7d9db"></circle>
      </g>
      <g transform="translate(40, 0)" clip-path="url(#clipPath36941000)">
        <polygon points="0,0 5,10 10,0" fill="#A6A8AB"></polygon>
      </g>
      <g transform="translate(50, 0)" clip-path="url(#clipPath36941000)">
        
            <polygon points="0,0 5,10 10,0" fill="#3A3C3F"></polygon>
            <circle cx="15" cy="8.658008658008658" r="10" fill="#d7d9db"></circle>
      </g>
      <g transform="translate(60, 0)" clip-path="url(#clipPath36941000)">
        <polygon points="0,0 5,10 10,0" fill="#C1C3C5"></polygon>
      </g>
      <g transform="translate(70, 0)" clip-path="url(#clipPath36941000)">
        
            <polygon points="0,0 5,10 10,0" fill="#787A7C"></polygon>
            <circle cx="15" cy="8.658008658008658" r="10" fill="#d7d9db"></circle>
      </g>
      <g transform="translate(80, 0)" clip-path="url(#clipPath36941000)">
        
            <circle cx="0" cy="1.341991341991342" r="10" fill="#6B6E70" clip-path="url(#clipPath36941000circle)"></circle>
            <polygon points="0,0 5,10 0,10" fill="#d7d9db"></polygon>
      </g>
      <g transform="translate(90, 0)" clip-path="url(#clipPath36941000)">
        <polygon points="0,0 5,10 10,0" fill="#4B4F52"></polygon>
      </g>
    </g>
    <g transform="translate(-5, 70)">
      
      <g transform="translate(0, 0)" clip-path="url(#clipPath36941000)">
        
            <circle cx="0" cy="1.341991341991342" r="10" fill="#6B6E70" clip-path="url(#clipPath36941000circle)"></circle>
            <polygon points="0,0 5,10 0,10" fill="#d7d9db"></polygon>
      </g>
      <g transform="translate(10, 0)" clip-path="url(#clipPath36941000)">
        
            <polygon points="0,0 5,10 10,0" fill="#4B4F52"></polygon>
            <circle cx="15" cy="8.658008658008658" r="10" fill="#d7d9db"></circle>
      </g>
      <g transform="translate(20, 0)" clip-path="url(#clipPath36941000)">
        
            <polygon points="0,0 5,10 10,0" fill="#919497"></polygon>
            <circle cx="15" cy="8.658008658008658" r="10" fill="#d7d9db"></circle>
      </g>
      <g transform="translate(30, 0)" clip-path="url(#clipPath36941000)">
        
            <circle cx="0" cy="1.341991341991342" r="10" fill="#2D2E30" clip-path="url(#clipPath36941000circle)"></circle>
            <polygon points="0,0 5,10 0,10" fill="#d7d9db"></polygon>
      </g>
      <g transform="translate(40, 0)" clip-path="url(#clipPath36941000)">
        <polygon points="0,0 5,10 10,0" fill="#A6A8AB"></polygon>
      </g>
      <g transform="translate(50, 0)" clip-path="url(#clipPath36941000)">
        
            <circle cx="0" cy="1.341991341991342" r="10" fill="#3A3C3F" clip-path="url(#clipPath36941000circle)"></circle>
            <polygon points="0,0 5,10 0,10" fill="#d7d9db"></polygon>
      </g>
      <g transform="translate(60, 0)" clip-path="url(#clipPath36941000)">
        <polygon points="0,0 5,10 10,0" fill="#C1C3C5"></polygon>
      </g>
      <g transform="translate(70, 0)" clip-path="url(#clipPath36941000)">
        
            <polygon points="0,0 5,10 10,0" fill="#787A7C"></polygon>
            <circle cx="15" cy="8.658008658008658" r="10" fill="#d7d9db"></circle>
      </g>
      <g transform="translate(80, 0)" clip-path="url(#clipPath36941000)">
        <polygon points="0,0 5,10 10,0" fill="#6B6E70"></polygon>
      </g>
      <g transform="translate(90, 0)" clip-path="url(#clipPath36941000)">
        
            <polygon points="0,0 5,10 10,0" fill="#4B4F52"></polygon>
            <circle cx="15" cy="8.658008658008658" r="10" fill="#d7d9db"></circle>
      </g>
      <g transform="translate(100, 0)" clip-path="url(#clipPath36941000)">
        <polygon points="0,0 5,10 10,0" fill="#919497"></polygon>
      </g>
    </g>
    <g transform="translate(0, 80)">
      
      <g transform="translate(0, 0)" clip-path="url(#clipPath36941000)">
        
            <polygon points="0,0 5,10 10,0" fill="#6B6E70"></polygon>
            <circle cx="15" cy="8.658008658008658" r="10" fill="#d7d9db"></circle>
      </g>
      <g transform="translate(10, 0)" clip-path="url(#clipPath36941000)">
        <polygon points="0,0 5,10 10,0" fill="#4B4F52"></polygon>
      </g>
      <g transform="translate(20, 0)" clip-path="url(#clipPath36941000)">
        
            <circle cx="0" cy="1.341991341991342" r="10" fill="#919497" clip-path="url(#clipPath36941000circle)"></circle>
            <polygon points="0,0 5,10 0,10" fill="#d7d9db"></polygon>
      </g>
      <g transform="translate(30, 0)" clip-path="url(#clipPath36941000)">
        
            <circle cx="0" cy="1.341991341991342" r="10" fill="#2D2E30" clip-path="url(#clipPath36941000circle)"></circle>
            <polygon points="0,0 5,10 0,10" fill="#d7d9db"></polygon>
      </g>
      <g transform="translate(40, 0)" clip-path="url(#clipPath36941000)">
        
            <polygon points="0,0 5,10 10,0" fill="#A6A8AB"></polygon>
            <circle cx="15" cy="8.658008658008658" r="10" fill="#d7d9db"></circle>
      </g>
      <g transform="translate(50, 0)" clip-path="url(#clipPath36941000)">
        <polygon points="0,0 5,10 10,0" fill="#3A3C3F"></polygon>
      </g>
      <g transform="translate(60, 0)" clip-path="url(#clipPath36941000)">
        
            <polygon points="0,0 5,10 10,0" fill="#C1C3C5"></polygon>
            <circle cx="15" cy="8.658008658008658" r="10" fill="#d7d9db"></circle>
      </g>
      <g transform="translate(70, 0)" clip-path="url(#clipPath36941000)">
        <polygon points="0,0 5,10 10,0" fill="#787A7C"></polygon>
      </g>
      <g transform="translate(80, 0)" clip-path="url(#clipPath36941000)">
        
            <polygon points="0,0 5,10 10,0" fill="#6B6E70"></polygon>
            <circle cx="15" cy="8.658008658008658" r="10" fill="#d7d9db"></circle>
      </g>
      <g transform="translate(90, 0)" clip-path="url(#clipPath36941000)">
        <polygon points="0,0 5,10 10,0" fill="#4B4F52"></polygon>
      </g>
    </g>
    <g transform="translate(-5, 90)">
      
      <g transform="translate(0, 0)" clip-path="url(#clipPath36941000)">
        <polygon points="0,0 5,10 10,0" fill="#6B6E70"></polygon>
      </g>
      <g transform="translate(10, 0)" clip-path="url(#clipPath36941000)">
        <polygon points="0,0 5,10 10,0" fill="#4B4F52"></polygon>
      </g>
      <g transform="translate(20, 0)" clip-path="url(#clipPath36941000)">
        <polygon points="0,0 5,10 10,0" fill="#919497"></polygon>
      </g>
      <g transform="translate(30, 0)" clip-path="url(#clipPath36941000)">
        <polygon points="0,0 5,10 10,0" fill="#2D2E30"></polygon>
      </g>
      <g transform="translate(40, 0)" clip-path="url(#clipPath36941000)">
        <polygon points="0,0 5,10 10,0" fill="#A6A8AB"></polygon>
      </g>
      <g transform="translate(50, 0)" clip-path="url(#clipPath36941000)">
        <polygon points="0,0 5,10 10,0" fill="#3A3C3F"></polygon>
      </g>
      <g transform="translate(60, 0)" clip-path="url(#clipPath36941000)">
        
            <polygon points="0,0 5,10 10,0" fill="#C1C3C5"></polygon>
            <circle cx="15" cy="8.658008658008658" r="10" fill="#d7d9db"></circle>
      </g>
      <g transform="translate(70, 0)" clip-path="url(#clipPath36941000)">
        <polygon points="0,0 5,10 10,0" fill="#787A7C"></polygon>
      </g>
      <g transform="translate(80, 0)" clip-path="url(#clipPath36941000)">
        <polygon points="0,0 5,10 10,0" fill="#6B6E70"></polygon>
      </g>
      <g transform="translate(90, 0)" clip-path="url(#clipPath36941000)">
        
            <circle cx="0" cy="1.341991341991342" r="10" fill="#4B4F52" clip-path="url(#clipPath36941000circle)"></circle>
            <polygon points="0,0 5,10 0,10" fill="#d7d9db"></polygon>
      </g>
      <g transform="translate(100, 0)" clip-path="url(#clipPath36941000)">
        <polygon points="0,0 5,10 10,0" fill="#919497"></polygon>
      </g>
    </g>
  </g></svg>