<svg xmlns="http://www.w3.org/2000/svg" viewBox="0 0 100 100" id="svg" style="--frame-c: #f6c6a4; --frame-bdw: 1em; background-color: rgb(211, 218, 223); --frame-asr: 100 / 100.;">
  <defs>
    <clipPath id="clipPath40861000">
      <rect width="14.285714285714286" height="14.285714285714286"></rect>
    </clipPath>
		<clipPath id="clipPath40861000circle">
      <polygon points="0,0 14.285714285714286,0 14.285714285714286,14.285714285714286 7.142857142857143,14.285714285714286"></polygon>
    </clipPath>
  </defs>
  <g>
    
    <g transform="translate(0, 0)">
      
      <g transform="translate(0, 0)" clip-path="url(#clipPath40861000)">
        <polygon points="0,0 7.142857142857143,14.285714285714286 14.285714285714286,0" fill="#4A637D"></polygon>
      </g>
      <g transform="translate(14.285714285714286, 0)" clip-path="url(#clipPath40861000)">
        
            <polygon points="0,0 7.142857142857143,14.285714285714286 14.285714285714286,0" fill="#6E8499"></polygon>
            <circle cx="21.42857142857143" cy="12.368583797155226" r="14.285714285714286" fill="#d3dadf"></circle>
      </g>
      <g transform="translate(28.571428571428573, 0)" clip-path="url(#clipPath40861000)">
        <polygon points="0,0 7.142857142857143,14.285714285714286 14.285714285714286,0" fill="#98A9B5"></polygon>
      </g>
      <g transform="translate(42.85714285714286, 0)" clip-path="url(#clipPath40861000)">
        <polygon points="0,0 7.142857142857143,14.285714285714286 14.285714285714286,0" fill="#2F4A66"></polygon>
      </g>
      <g transform="translate(57.142857142857146, 0)" clip-path="url(#clipPath40861000)">
        
            <polygon points="0,0 7.142857142857143,14.285714285714286 14.285714285714286,0" fill="#5B7490"></polygon>
            <circle cx="21.42857142857143" cy="12.368583797155226" r="14.285714285714286" fill="#d3dadf"></circle>
      </g>
      <g transform="translate(71.42857142857143, 0)" clip-path="url(#clipPath40861000)">
        
            <polygon points="0,0 7.142857142857143,14.285714285714286 14.285714285714286,0" fill="#7D92A6"></polygon>
            <circle cx="21.42857142857143" cy="12.368583797155226" r="14.285714285714286" fill="#d3dadf"></circle>
      </g>
      <g transform="translate(85.71428571428572, 0)" clip-path="url(#clipPath40861000)">
        <polygon points="0,0 7.142857142857143,14.285714285714286 14.285714285714286,0" fill="#A3B3C0"></polygon>
      </g>
    </g>
    <g transform="translate(7.142857142857139, 14.285714285714286)">
      
      <g transform="translate(0, 0)" clip-path="url(#clipPath40861000)">
        <polygon points="0,0 7.142857142857143,14.285714285714286 14.285714285714286,0" fill="#4A637D"></polygon>
      </g>
      <g transform="translate(14.285714285714286, 0)" clip-path="url(#clipPath40861000)">
        <polygon points="0,0 7.142857142857143,14.285714285714286 14.285714285714286,0" fill="#6E8499"></polygon>
      </g>
      <g transform="translate(28.571428571428573, 0)" clip-path="url(#clipPath40861000)">
        
            <polygon points="0,0 7.142857142857143,14.285714285714286 14.285714285714286,0" fill="#98A9B5"></polygon>
            <circle cx="21.42857142857143" cy="12.368583797155226" r="14.285714285714286" fill="#d3dadf"></circle>
      </g>
      <g transform="translate(42.85714285714286, 0)" clip-path="url(#clipPath40861000)">
        <polygon points="0,0 7.142857142857143,14.285714285714286 14.285714285714286,0" fill="#2F4A66"></polygon>
      </g>
      <g transform="translate(57.142857142857146, 0)" clip-path="url(#clipPath40861000)">
        <polygon points="0,0 7.142857142857143,14.285714285714286 14.285714285714286,0" fill="#5B7490"></polygon>
      </g>
      <g transform="translate(71.42857142857143, 0)" clip-path="url(#clipPath40861000)">
        <polygon points="0,0 7.142857142857143,14.285714285714286 14.285714285714286,0" fill="#7D92A6"></polygon>
      </g>
    </g>
    <g transform="translate(14.285714285714285, 28.571428571428573)">
      
      <g transform="translate(0, 0)" clip-path="url(#clipPath40861000)">
        <polygon points="0,0 7.142857142857143,14.285714285714286 14.285714285714286,0" fill="#4A637D"></polygon>
      </g>
      <g transform="translate(14.285714285714286, 0)" clip-path="url(#clipPath40861000)">
        
            <circle cx="0" cy="1.91713048855906" r="14.285714285714286" fill="#6E8499" clip-path="url(#clipPath40861000circle)"></circle>
            <polygon points="0,0 7.142857142857143,14.285714285714286 0,14.285714285714286" fill="#d3dadf"></polygon>
      </g>
      <g transform="translate(28.571428571428573, 0)" clip-path="url(#clipPath40861000)">
        
            <circle cx="0" cy="1.91713048855906" r="14.285714285714286" fill="#98A9B5" clip-path="url(#clipPath40861000circle)"></circle>
            <polygon points="0,0 7.142857142857143,14.285714285714286 0,14.285714285714286" fill="#d3dadf"></polygon>
      </g>
      <g transform="translate(42.85714285714286, 0)" clip-path="url(#clipPath40861000)">
        <polygon points="0,0 7.142857142857143,14.285714285714286 14.285714285714286,0" fill="#2F4A66"></polygon>
      </g>
      <g transform="translate(57.142857142857146, 0)" clip-path="url(#clipPath40861000)">
        <polygon points="0,0 7.142857142857143,14.285714285714286 14.285714285714286,0" fill="#5B7490"></polygon>
      </g>
    </g>
    <g transform="translate(21.428571428571427, 42.85714285714286)">
      
      <g transform="translate(0, 0)" clip-path="url(#clipPath40861000)">
        <polygon points="0,0 7.142857142857143,14.285714285714286 14.285714285714286,0" fill="#4A637D"></polygon>
      </g>
      <g transform="translate(14.285714285714286, 0)" clip-path="url(#clipPath40861000)">
        <polygon points="0,0 7.142857142857143,14.285714285714286 14.285714285714286,0" fill="#6E8499"></polygon>
      </g>
      <g transform="translate(28.571428571428573, 0)" clip-path="url(#clipPath40861000)">
        
            <circle cx="0" cy="1.91713048855906" r="14.285714285714286" fill="#98A9B5" clip-path="url(#clipPath40861000circle)"></circle>
            <polygon points="0,0 7.142857142857143,14.285714285714286 0,14.285714285714286" fill="#d3dadf"></polygon>
      </g>
      <g transform="translate(42.85714285714286, 0)" clip-path="url(#clipPath40861000)">
        <polygon points="0,0 7.142857142857143,14.285714285714286 14.285714285714286,0" fill="#2F4A66"></polygon>
      </g>
    </g>
    <g transform="translate(28.57142857142857, 57.142857142857146)">
      
      <g transform="translate(0, 0)" clip-path="url(#clipPath40861000)">
        
            <polygon points="0,0 7.142857142857143,14.285714285714286 14.285714285714286,0" fill="#4A637D"></polygon>
            <circle cx="21.42857142857143" cy="12.368583797155226" r="14.285714285714286" fill="#d3dadf"></circle>
      </g>
      <g transform="translate(14.285714285714286, 0)" clip-path="url(#clipPath40861000)">
        <polygon points="0,0 7.142857142857143,14.285714285714286 14.285714285714286,0" fill="#6E8499"></polygon>
      </g>
      <g transform="translate(28.571428571428573, 0)" clip-path="url(#clipPath40861000)">
        <polygon points="0,0 7.142857142857143,14.285714285714286 14.285714285714286,0" fill="#98A9B5"></polygon>
      </g>
    </g>
    <g transform="translate(35.714285714285715, 71.42857142857143)">
      
      <g transform="translate(0, 0)" clip-path="url(#clipPath40861000)">
        
            <polygon points="0,0 7.142857142857143,14.285714285714286 14.285714285714286,0" fill="#4A637D"></polygon>
            <circle cx="21.42857142857143" cy="12.368583797155226" r="14.285714285714286" fill="#d3dadf"></circle>
      </g>
      <g transform="translate(14.285714285714286, 0)" clip-path="url(#clipPath40861000)">
        <polygon points="0,0 7.142857142857143,14.285714285714286 14.285714285714286,0" fill="#6E8499"></polygon>
      </g>
    </g>
    <g transform="translate(42.857142857142854, 85.71428571428572)">
      
      <g transform="translate(0, 0)" clip-path="url(#clipPath40861000)">
        <polygon points="0,0 7.142857142857143,14.285714285714286 14.285714285714286,0" fill="#4A637D"></polygon>
      </g>
    </g>
  </g></svg>