<svg xmlns="http://www.w3.org/2000/svg" viewBox="0 0 1280 2187">
	<defs>
		<filter id="f1" x="0" y="0">
      <feGaussianBlur in="SourceGraphic" stdDeviation="3" />
    </filter>
	</defs>
	<path filter="url(#f1)" d="m465.845 910.657-101.904 34.72-33.93 10.932-28.375 10.272-26.37 12.791-28.318 26.438-24.468 33.06-7.606 14.86-13.992 35.73-4.13 18.36-5.643 32.88-4.131 37.61-6.68 54.94-8.946 76.53 2.913 13.4 17.738 14.92 41.398 17.66 43.212 9.65 39.426 2.6 25.81-9.04-5.597 27.08.326 16.08-1.464 22.95 2.771 27.88 2.224 30.55 3.215 27.27 2.896 25.72.535 18.77 1.674 22.85-.376 16.73.392 8.57-1.058 25.88-.488 7.18-8.276 32.99-5.614 18.83-1.684 25.12-1.724 24.19 1.729 17.16 1.518 20.91.221 14.87 1.945 13.62 6.829 10.95 16.979 15.15 38.115 20.86 33.559 10.58 35.72 10.91 70.935 15.26 40.98 7.05 46.651-2.53 8.998 6.1 50.988-13.92 59.938-13.98 52.963-17.36 46.646-17 33.586-23.57 18.864-25.74 3.689-8.62 4.656-12.86 4.833-23.08 3.079-25.95.942-26.01-.822-20.61 2.325-16.31-.492-52.28-1.145-32.22 3.504-41.27 1.459-22.44 2.561-26.09 4.051-33.65-7.562-22.61 3.218-23.74-5.269-14.38 3.858-18.5 3.706 13.89 8.476 10.54 13.525 4.45 10.184 3.91 24.143 2.64 21.366-2.76 23.01-3.73 17.99-3.03 19.67-3.09 15.33-4.9 14.99-3.8 10.65-11.12 3.09-11.91-6.06-24.28-.46-24.66-4.07-27.07-3.57-24.86-3.01-14.34-4.51-35.59-7.82-54.41-8.17-38.13-8.12-25.82-6.46-18.22-9.67-16.71-12.15-17.22-11.7-15.68-12.15-11.02-22.751-14.678-23.523-9.692-26.288-8.449-24.576-9.161-23.352-10.532-21.499-12.484-17.843-11.297-19.929-14.72-8.647-6.771-9.648-1.148 6.645 9.365 2.198 9.213-4.47 12.815-10.259 19.489-16.89 18.987-13.454 13.948-14.146 13.035-15.997 7.13-20.684 8.4-20.623 4.28-16.657 1.99-20.33 1.09-17.739-3.66-13.48-2.39-22.717-7.26-19.905-12.01-17.041-9.22-22.089-14.191-17.079-13.266-15.075-14.826-11.165-15.038-9.266-14.666-9.796-21.559-23.94 8.543Z"/>
</svg>