<svg xmlns="http://www.w3.org/2000/svg">
	<defs>
		<symbol id="amfetamin" viewBox="0 0 25 24">
  		<path d="M11.322 4 7.31 8.207l1.89 1.89zm3.401 6.364-2.51-6.252-2.455 6.252zm-4.775 9.105L7.394 9.162l1.658 1.658 1.692 9.258-.505-.394zm7.385-11.184L13.106 4l2.336 6.175zm-2.639 11.261 2.553-10.307-1.657 1.659-1.693 9.257.506-.394zm-4.992-8.568 1.737 9.522h1.603l1.738-9.522z"/>
		</symbol>
		<symbol id="andre" viewBox="0 0 25 24">
			<path d="M11.49 13.033 7.656 16.86l-1.54-1.54c-2.454-2.604 1.216-6.286 3.827-3.831zm3.137 4.052a2.7 2.7 0 0 0-.759-1.673l-1.562-1.563-3.827 3.832 1.54 1.54a2.711 2.711 0 0 0 4.608-2.136m-.388-3.456c-.035.145-.064.284-.099.423a4.26 4.26 0 0 1 1.656 3.456 2 2 0 0 0 2.026-1.552c.011-.075.156-.677.33-1.418zm4.55-2.107a2.005 2.005 0 0 0-3.954-.445c0 .029-.15.66-.33 1.43l3.913.902q.237-.932.37-1.887m-8.15-5.273A2.002 2.002 0 0 0 12.6 9.74l1.279-.717-1.963-3.49zm3.565-2.002-1.28.717 1.963 3.496 1.28-.717a2.005 2.005 0 0 0-1.963-3.496"/>
		</symbol>
		<symbol id="cannabis" viewBox="0 0 25 24">
  		<path d="M14.796 15.37c4.776-3.688 6.242-8.193 6.263-8.263-.069.026-4.499 1.756-7.919 6.71C14.606 6.43 12 1 12 1s-2.606 5.431-1.14 12.817c-3.42-4.954-7.85-6.684-7.92-6.71.023.07 1.489 4.575 6.264 8.262-4.717-.915-8.204.4-8.204.4s3.014 1.783 7.594 1.793c-1.595.732-2.446 1.673-2.446 1.673s2.627.157 5.256-1.783l-.019-.051.038.013v.037h.191V22h.772v-4.549h.192l-.001-.037.038-.013-.02.05c2.63 1.94 5.257 1.784 5.257 1.784s-.85-.94-2.446-1.673C19.986 17.552 23 15.77 23 15.77s-3.488-1.315-8.204-.4"/>
		</symbol>
		<symbol id="kokain" viewBox="0 0 25 24">
  		<path d="M18.429 4H5.809v15.827h12.62zm-.601 15.226H6.409V7.606h11.419zm0-12.221H6.409v-.601h11.419zm0-1.202H6.409V4.6h11.419z"/>
  		<path d="M7.31 18.625h9.616a.3.3 0 0 0 .3-.3v-4.508a.3.3 0 0 0-.3-.3c-1.695 0-2.626-.755-3.702-1.626-.297-.238-.6-.484-.931-.721-1.62-1.166-4.937-.087-5.076-.042a.3.3 0 0 0-.207.285v6.912a.3.3 0 0 0 .3.3"/>
		</symbol>
		<symbol id="opioider" viewBox="0 0 25 24">
  		<path d="m9.723 8.551 3.304-3.304a4.273 4.273 0 0 1 6.035 0 4.273 4.273 0 0 1 0 6.035l-3.305 3.304zm-.863.863-3.304 3.304a4.273 4.273 0 0 0 0 6.035A4.25 4.25 0 0 0 8.572 20a4.26 4.26 0 0 0 3.019-1.247l3.304-3.305z"/>
		</symbol>
		<symbol id="gas" viewBox="0 0 25 24">
  		<path d="M11.577 13.49c-.33.85-.388 1.333-.304 2.207l-.81 1.209c.182.848.388 1.111.832 1.335.545.357.862.403 1.451.13l.663-.698c1.534-.293 2.23-.57 2.973-1.413l5.07-6.792c.146-1.334-.237-2.293-1.625-3.057-.997-.411-1.532-.242-2.472.286-2.356 2.635-3.762 4.095-5.778 6.793m-.023-6.132c1.099-.402 1.579-.274 2.37.213.411.252.662.541.845.887-1.497 1.664-2.67 2.995-4.192 5.032-.204.524-.304.91-.331 1.334l-3.022 2.432c-1.095.592-1.776.717-3.087.64L3.1 18.6c-.569.054-.855-.064-1.314-.497-.332-.5-.432-.768-.51-1.374l1.248-1.327c.362-1.053.424-1.316 1.113-2.188.685-.868 7.863-5.819 7.917-5.856"/>
		</symbol>
		<symbol id="high" viewBox="0 0 13 10">
			<rect width="13" height="1.5" y=".75"  rx=".75"/>
			<path d="M0 5a.75.75 0 0 1 .75-.75h11.5a.75.75 0 0 1 0 1.5H.75A.75.75 0 0 1 0 5Z"/>
			<rect width="13" height="1.5" y="7.75"  rx=".75"/>
		</symbol>
		<symbol id="medium" viewBox="0 0 13 10">
			<rect width="13" height="1.5" y=".75" fill="#E7E7E680" rx=".75"/>
			<path d="M0 5a.75.75 0 0 1 .75-.75h11.5a.75.75 0 0 1 0 1.5H.75A.75.75 0 0 1 0 5Z"/>
			<rect width="13" height="1.5" y="7.75"  rx=".75"/>
		</symbol>
		<symbol id="low" viewBox="0 0 13 10">
			<rect width="13" height="1.5" y=".75" fill="#E7E7E680" rx=".75"/>
			<path fill="#E7E7E680" d="M0 5a.75.75 0 0 1 .75-.75h11.5a.75.75 0 0 1 0 1.5H.75A.75.75 0 0 1 0 5Z"/>
			<rect width="13" height="1.5" y="7.75"  rx=".75"/>
		</symbol>
	</defs>
</svg>
