<svg xmlns="http://www.w3.org/2000/svg" viewBox="0 0 100 125" id="svg" style="--frame-c: #f6c6a4; fill: rgba(184, 20, 184, 0); stroke: rgb(240, 117, 240); background-color: rgb(8, 8, 40); --frame-asr: 100 / 125.;"><g transform="translate(50 62.5) scale(2)"><circle cx="0" cy="0" r="22" stroke-width="0"></circle><circle cx="21.984615505344767" cy="0.8226062740791638" r="22" stroke-width="0.1"></circle><circle cx="21.938483537985963" cy="1.6440620589013335" r="22" stroke-width="0.1"></circle><circle cx="21.861668617651336" cy="2.463218474272773" r="22" stroke-width="0.1"></circle><circle cx="21.754278176952827" cy="3.2789298558758375" r="22" stroke-width="0.1"></circle><circle cx="21.616462411132343" cy="4.090055357584121" r="22" stroke-width="0.1"></circle><circle cx="21.44841406800012" cy="4.895460547038916" r="22" stroke-width="0.1"></circle><circle cx="21.2503681783595" cy="5.694018992255456" r="22" stroke-width="0.1"></circle><circle cx="21.022601727295093" cy="6.484613837039893" r="22" stroke-width="0.1"></circle><circle cx="20.765433266784086" cy="7.266139363013676" r="22" stroke-width="0.1"></circle><circle cx="20.479222470172495" cy="8.037502536060689" r="22" stroke-width="0.1"></circle><circle cx="20.164369629139475" cy="8.7976245350343" r="22" stroke-width="0.1"></circle><circle cx="19.821315093853222" cy="9.54544226058628" r="22" stroke-width="0.1"></circle><circle cx="19.450538657101415" cy="10.279909822007363" r="22" stroke-width="0.1"></circle><circle cx="19.052558883257653" cy="10.999999999999998" r="22" stroke-width="0.1"></circle><circle cx="18.62793238302225" cy="11.704705683337401" r="22" stroke-width="0.1"></circle><circle cx="18.17725303495189" cy="12.393041277399686" r="22" stroke-width="0.1"></circle><circle cx="17.701151154866704" cy="13.064044082617038" r="22" stroke-width="0.1"></circle><circle cx="17.200292614296657" cy="13.716775640892136" r="22" stroke-width="0.1"></circle><circle cx="16.675377909199966" cy="14.350323048118664" r="22" stroke-width="0.1"></circle><circle cx="16.127141180256178" cy="14.963800230960226" r="22" stroke-width="0.1"></circle><circle cx="15.556349186104047" cy="15.556349186104043" r="22" stroke-width="0.1"></circle><circle cx="14.963800230960228" cy="16.127141180256178" r="22" stroke-width="0.1"></circle><circle cx="14.350323048118666" cy="16.675377909199966" r="22" stroke-width="0.1"></circle><circle cx="13.71677564089214" cy="17.200292614296657" r="22" stroke-width="0.1"></circle><circle cx="13.064044082617038" cy="17.7011511548667" r="22" stroke-width="0.1"></circle><circle cx="12.393041277399682" cy="18.17725303495189" r="22" stroke-width="0.1"></circle><circle cx="11.704705683337405" cy="18.62793238302225" r="22" stroke-width="0.1"></circle><circle cx="11.000000000000002" cy="19.05255888325765" r="22" stroke-width="0.1"></circle><circle cx="10.279909822007367" cy="19.45053865710141" r="22" stroke-width="0.1"></circle><circle cx="9.545442260586283" cy="19.82131509385322" r="22" stroke-width="0.1"></circle><circle cx="8.797624535034299" cy="20.164369629139475" r="22" stroke-width="0.1"></circle><circle cx="8.037502536060689" cy="20.479222470172495" r="22" stroke-width="0.1"></circle><circle cx="7.266139363013678" cy="20.765433266784086" r="22" stroke-width="0.1"></circle><circle cx="6.48461383703989" cy="21.022601727295097" r="22" stroke-width="0.1"></circle><circle cx="5.694018992255456" cy="21.2503681783595" r="22" stroke-width="0.1"></circle><circle cx="4.895460547038918" cy="21.44841406800012" r="22" stroke-width="0.1"></circle><circle cx="4.090055357584124" cy="21.61646241113234" r="22" stroke-width="0.1"></circle><circle cx="3.278929855875842" cy="21.754278176952827" r="22" stroke-width="0.1"></circle><circle cx="2.463218474272774" cy="21.861668617651336" r="22" stroke-width="0.1"></circle><circle cx="1.6440620589013366" cy="21.938483537985963" r="22" stroke-width="0.1"></circle><circle cx="0.8226062740791682" cy="21.984615505344767" r="22" stroke-width="0.1"></circle><circle cx="1.3471114790620886e-15" cy="22" r="22" stroke-width="0.1"></circle><circle cx="-0.8226062740791606" cy="21.98461550534477" r="22" stroke-width="0.1"></circle><circle cx="-1.644062058901329" cy="21.938483537985963" r="22" stroke-width="0.1"></circle><circle cx="-2.4632184742727716" cy="21.861668617651336" r="22" stroke-width="0.1"></circle><circle cx="-3.2789298558758397" cy="21.754278176952827" r="22" stroke-width="0.1"></circle><circle cx="-4.090055357584116" cy="21.616462411132343" r="22" stroke-width="0.1"></circle><circle cx="-4.895460547038915" cy="21.44841406800012" r="22" stroke-width="0.1"></circle><circle cx="-5.694018992255459" cy="21.2503681783595" r="22" stroke-width="0.1"></circle><circle cx="-6.484613837039888" cy="21.022601727295097" r="22" stroke-width="0.1"></circle><circle cx="-7.266139363013673" cy="20.765433266784086" r="22" stroke-width="0.1"></circle><circle cx="-8.037502536060693" cy="20.479222470172495" r="22" stroke-width="0.1"></circle><circle cx="-8.797624535034297" cy="20.16436962913948" r="22" stroke-width="0.1"></circle><circle cx="-9.545442260586277" cy="19.821315093853222" r="22" stroke-width="0.1"></circle><circle cx="-10.279909822007356" cy="19.45053865710142" r="22" stroke-width="0.1"></circle><circle cx="-10.999999999999995" cy="19.052558883257653" r="22" stroke-width="0.1"></circle><circle cx="-11.704705683337401" cy="18.62793238302225" r="22" stroke-width="0.1"></circle><circle cx="-12.393041277399679" cy="18.177253034951892" r="22" stroke-width="0.1"></circle><circle cx="-13.06404408261704" cy="17.7011511548667" r="22" stroke-width="0.1"></circle><circle cx="-13.716775640892129" cy="17.200292614296664" r="22" stroke-width="0.1"></circle><circle cx="-14.350323048118666" cy="16.675377909199963" r="22" stroke-width="0.1"></circle><circle cx="-14.963800230960231" cy="16.127141180256178" r="22" stroke-width="0.1"></circle><circle cx="-15.556349186104043" cy="15.556349186104047" r="22" stroke-width="0.1"></circle><circle cx="-16.127141180256178" cy="14.963800230960226" r="22" stroke-width="0.1"></circle><circle cx="-16.675377909199963" cy="14.350323048118668" r="22" stroke-width="0.1"></circle><circle cx="-17.200292614296657" cy="13.71677564089214" r="22" stroke-width="0.1"></circle><circle cx="-17.7011511548667" cy="13.064044082617041" r="22" stroke-width="0.1"></circle><circle cx="-18.17725303495189" cy="12.39304127739968" r="22" stroke-width="0.1"></circle><circle cx="-18.62793238302225" cy="11.704705683337407" r="22" stroke-width="0.1"></circle><circle cx="-19.052558883257653" cy="10.999999999999998" r="22" stroke-width="0.1"></circle><circle cx="-19.45053865710141" cy="10.279909822007369" r="22" stroke-width="0.1"></circle><circle cx="-19.82131509385322" cy="9.545442260586281" r="22" stroke-width="0.1"></circle><circle cx="-20.164369629139475" cy="8.7976245350343" r="22" stroke-width="0.1"></circle><circle cx="-20.47922247017249" cy="8.037502536060696" r="22" stroke-width="0.1"></circle><circle cx="-20.765433266784086" cy="7.266139363013679" r="22" stroke-width="0.1"></circle><circle cx="-21.022601727295093" cy="6.484613837039901" r="22" stroke-width="0.1"></circle><circle cx="-21.2503681783595" cy="5.6940189922554625" r="22" stroke-width="0.1"></circle><circle cx="-21.44841406800012" cy="4.895460547038919" r="22" stroke-width="0.1"></circle><circle cx="-21.61646241113234" cy="4.09005535758413" r="22" stroke-width="0.1"></circle><circle cx="-21.754278176952827" cy="3.2789298558758437" r="22" stroke-width="0.1"></circle><circle cx="-21.861668617651336" cy="2.463218474272785" r="22" stroke-width="0.1"></circle><circle cx="-21.938483537985963" cy="1.6440620589013428" r="22" stroke-width="0.1"></circle><circle cx="-21.98461550534477" cy="0.8226062740791598" r="22" stroke-width="0.1"></circle><circle cx="-22" cy="2.6942229581241772e-15" r="22" stroke-width="0.1"></circle><circle cx="-21.98461550534477" cy="-0.8226062740791544" r="22" stroke-width="0.1"></circle><circle cx="-21.938483537985963" cy="-1.6440620589013275" r="22" stroke-width="0.1"></circle><circle cx="-21.861668617651336" cy="-2.46321847427277" r="22" stroke-width="0.1"></circle><circle cx="-21.75427817695283" cy="-3.2789298558758286" r="22" stroke-width="0.1"></circle><circle cx="-21.61646241113234" cy="-4.0900553575841245" r="22" stroke-width="0.1"></circle><circle cx="-21.44841406800012" cy="-4.8954605470389145" r="22" stroke-width="0.1"></circle><circle cx="-21.250368178359505" cy="-5.694018992255447" r="22" stroke-width="0.1"></circle><circle cx="-21.022601727295093" cy="-6.4846138370398965" r="22" stroke-width="0.1"></circle><circle cx="-20.765433266784086" cy="-7.266139363013672" r="22" stroke-width="0.1"></circle><circle cx="-20.4792224701725" cy="-8.037502536060682" r="22" stroke-width="0.1"></circle><circle cx="-20.164369629139482" cy="-8.797624535034286" r="22" stroke-width="0.1"></circle><circle cx="-19.821315093853222" cy="-9.545442260586276" r="22" stroke-width="0.1"></circle><circle cx="-19.45053865710142" cy="-10.279909822007355" r="22" stroke-width="0.1"></circle><circle cx="-19.05255888325765" cy="-11.000000000000002" r="22" stroke-width="0.1"></circle><circle cx="-18.62793238302225" cy="-11.704705683337401" r="22" stroke-width="0.1"></circle><circle cx="-18.177253034951892" cy="-12.393041277399675" r="22" stroke-width="0.1"></circle><circle cx="-17.701151154866714" cy="-13.064044082617023" r="22" stroke-width="0.1"></circle><circle cx="-17.200292614296657" cy="-13.716775640892134" r="22" stroke-width="0.1"></circle><circle cx="-16.675377909199973" cy="-14.350323048118659" r="22" stroke-width="0.1"></circle><circle cx="-16.127141180256178" cy="-14.963800230960228" r="22" stroke-width="0.1"></circle><circle cx="-15.556349186104049" cy="-15.556349186104043" r="22" stroke-width="0.1"></circle><circle cx="-14.963800230960233" cy="-16.12714118025617" r="22" stroke-width="0.1"></circle><circle cx="-14.350323048118664" cy="-16.675377909199966" r="22" stroke-width="0.1"></circle><circle cx="-13.716775640892141" cy="-17.200292614296654" r="22" stroke-width="0.1"></circle><circle cx="-13.064044082617045" cy="-17.701151154866697" r="22" stroke-width="0.1"></circle><circle cx="-12.393041277399698" cy="-18.177253034951878" r="22" stroke-width="0.1"></circle><circle cx="-11.704705683337407" cy="-18.62793238302225" r="22" stroke-width="0.1"></circle><circle cx="-11.00000000000001" cy="-19.052558883257646" r="22" stroke-width="0.1"></circle><circle cx="-10.279909822007362" cy="-19.45053865710142" r="22" stroke-width="0.1"></circle><circle cx="-9.545442260586283" cy="-19.82131509385322" r="22" stroke-width="0.1"></circle><circle cx="-8.797624535034311" cy="-20.164369629139472" r="22" stroke-width="0.1"></circle><circle cx="-8.037502536060705" cy="-20.479222470172488" r="22" stroke-width="0.1"></circle><circle cx="-7.2661393630136795" cy="-20.765433266784083" r="22" stroke-width="0.1"></circle><circle cx="-6.484613837039884" cy="-21.0226017272951" r="22" stroke-width="0.1"></circle><circle cx="-5.694018992255454" cy="-21.2503681783595" r="22" stroke-width="0.1"></circle><circle cx="-4.89546054703894" cy="-21.448414068000115" r="22" stroke-width="0.1"></circle><circle cx="-4.090055357584131" cy="-21.61646241113234" r="22" stroke-width="0.1"></circle><circle cx="-3.2789298558758353" cy="-21.754278176952827" r="22" stroke-width="0.1"></circle><circle cx="-2.463218474272777" cy="-21.861668617651336" r="22" stroke-width="0.1"></circle><circle cx="-1.6440620589013244" cy="-21.938483537985963" r="22" stroke-width="0.1"></circle><circle cx="-0.8226062740791806" cy="-21.984615505344767" r="22" stroke-width="0.1"></circle><circle cx="-4.0413344371862654e-15" cy="-22" r="22" stroke-width="0.1"></circle><circle cx="0.8226062740791531" cy="-21.98461550534477" r="22" stroke-width="0.1"></circle><circle cx="1.644062058901336" cy="-21.938483537985963" r="22" stroke-width="0.1"></circle><circle cx="2.463218474272769" cy="-21.861668617651336" r="22" stroke-width="0.1"></circle><circle cx="3.2789298558758273" cy="-21.75427817695283" r="22" stroke-width="0.1"></circle><circle cx="4.090055357584123" cy="-21.61646241113234" r="22" stroke-width="0.1"></circle><circle cx="4.895460547038913" cy="-21.44841406800012" r="22" stroke-width="0.1"></circle><circle cx="5.694018992255465" cy="-21.2503681783595" r="22" stroke-width="0.1"></circle><circle cx="6.484613837039877" cy="-21.022601727295104" r="22" stroke-width="0.1"></circle><circle cx="7.2661393630136715" cy="-20.765433266784086" r="22" stroke-width="0.1"></circle><circle cx="8.037502536060698" cy="-20.47922247017249" r="22" stroke-width="0.1"></circle><circle cx="8.797624535034304" cy="-20.164369629139475" r="22" stroke-width="0.1"></circle><circle cx="9.545442260586276" cy="-19.821315093853222" r="22" stroke-width="0.1"></circle><circle cx="10.279909822007355" cy="-19.45053865710142" r="22" stroke-width="0.1"></circle><circle cx="11.000000000000002" cy="-19.05255888325765" r="22" stroke-width="0.1"></circle><circle cx="11.7047056833374" cy="-18.62793238302225" r="22" stroke-width="0.1"></circle><circle cx="12.393041277399675" cy="-18.177253034951892" r="22" stroke-width="0.1"></circle><circle cx="13.064044082617038" cy="-17.7011511548667" r="22" stroke-width="0.1"></circle><circle cx="13.716775640892134" cy="-17.200292614296657" r="22" stroke-width="0.1"></circle><circle cx="14.350323048118657" cy="-16.675377909199973" r="22" stroke-width="0.1"></circle><circle cx="14.963800230960228" cy="-16.127141180256178" r="22" stroke-width="0.1"></circle><circle cx="15.556349186104041" cy="-15.556349186104049" r="22" stroke-width="0.1"></circle><circle cx="16.12714118025617" cy="-14.963800230960235" r="22" stroke-width="0.1"></circle><circle cx="16.675377909199966" cy="-14.350323048118664" r="22" stroke-width="0.1"></circle><circle cx="17.200292614296654" cy="-13.716775640892141" r="22" stroke-width="0.1"></circle><circle cx="17.701151154866697" cy="-13.064044082617045" r="22" stroke-width="0.1"></circle><circle cx="18.177253034951878" cy="-12.3930412773997" r="22" stroke-width="0.1"></circle><circle cx="18.627932383022248" cy="-11.704705683337409" r="22" stroke-width="0.1"></circle><circle cx="19.052558883257646" cy="-11.00000000000001" r="22" stroke-width="0.1"></circle><circle cx="19.450538657101408" cy="-10.27990982200738" r="22" stroke-width="0.1"></circle><circle cx="19.82131509385322" cy="-9.545442260586283" r="22" stroke-width="0.1"></circle><circle cx="20.164369629139472" cy="-8.797624535034313" r="22" stroke-width="0.1"></circle><circle cx="20.479222470172488" cy="-8.037502536060707" r="22" stroke-width="0.1"></circle><circle cx="20.765433266784083" cy="-7.266139363013681" r="22" stroke-width="0.1"></circle><circle cx="21.022601727295093" cy="-6.484613837039904" r="22" stroke-width="0.1"></circle><circle cx="21.2503681783595" cy="-5.694018992255455" r="22" stroke-width="0.1"></circle><circle cx="21.448414068000115" cy="-4.895460547038941" r="22" stroke-width="0.1"></circle><circle cx="21.61646241113234" cy="-4.0900553575841325" r="22" stroke-width="0.1"></circle><circle cx="21.754278176952823" cy="-3.278929855875856" r="22" stroke-width="0.1"></circle><circle cx="21.861668617651336" cy="-2.4632184742727974" r="22" stroke-width="0.1"></circle><circle cx="21.938483537985963" cy="-1.644062058901326" r="22" stroke-width="0.1"></circle><circle cx="21.984615505344767" cy="-0.8226062740791821" r="22" stroke-width="0.1"></circle><circle cx="22" cy="-5.3884459162483544e-15" r="22" stroke-width="0.1"></circle></g></svg>