<svg xmlns="http://www.w3.org/2000/svg" viewBox="0 0 100 100" id="svg" style="--frame-c: #f6c6a4; --frame-bdw: 1em; fill: rgba(20, 184, 151, 0.05); stroke: rgba(240, 117, 240, 0); background-color: rgb(8, 8, 40); --frame-asr: 100 / 100.;"><g transform="translate(50 50) scale(1)"><circle cx="0" cy="0" r="20" stroke-width="0"></circle><circle cx="19.946645673271032" cy="1.4599062932181506" r="20" stroke-width="0.15"></circle><circle cx="19.786867361502203" cy="2.9120233547000973" r="20" stroke-width="0.15"></circle><circle cx="19.521517551118542" cy="4.34860351163114" r="20" stroke-width="0.15"></circle><circle cx="19.15201199816812" cy="5.761981987304752" r="20" stroke-width="0.15"></circle><circle cx="18.68032217465096" cy="7.144617796022656" r="20" stroke-width="0.15"></circle><circle cx="18.10896474986293" cy="8.489133977516301" r="20" stroke-width="0.15"></circle><circle cx="17.440988162876153" cy="9.78835695622171" r="20" stroke-width="0.15"></circle><circle cx="16.679956357797558" cy="11.035354815408917" r="20" stroke-width="0.15"></circle><circle cx="15.829929768585082" cy="12.223474281956985" r="20" stroke-width="0.15"></circle><circle cx="14.895443654875638" cy="13.34637622444479" r="20" stroke-width="0.15"></circle><circle cx="13.881483904412677" cy="14.398069475159918" r="20" stroke-width="0.15"></circle><circle cx="12.793460431177825" cy="15.37294279557064" r="20" stroke-width="0.15"></circle><circle cx="11.637178311159058" cy="16.265794814711306" r="20" stroke-width="0.15"></circle><circle cx="10.418806809758605" cy="17.07186178074693" r="20" stroke-width="0.15"></circle><circle cx="9.144846466092769" cy="17.78684297765038" r="20" stroke-width="0.15"></circle><circle cx="7.822094409803119" cy="18.40692367138319" r="20" stroke-width="0.15"></circle><circle cx="6.457608095428926" cy="18.928795463152184" r="20" stroke-width="0.15"></circle><circle cx="5.058667647833613" cy="19.349673941148506" r="20" stroke-width="0.15"></circle><circle cx="3.6327370195887254" cy="19.667313536589322" r="20" stroke-width="0.15"></circle><circle cx="2.187424167557486" cy="19.880019504798916" r="20" stroke-width="0.15"></circle><circle cx="0.730440461153177" cy="19.986656967404787" r="20" stroke-width="0.15"></circle><circle cx="-0.730440461153179" cy="19.986656967404787" r="20" stroke-width="0.15"></circle><circle cx="-2.1874241675574924" cy="19.880019504798916" r="20" stroke-width="0.15"></circle><circle cx="-3.632737019588727" cy="19.667313536589322" r="20" stroke-width="0.15"></circle><circle cx="-5.058667647833616" cy="19.349673941148502" r="20" stroke-width="0.15"></circle><circle cx="-6.457608095428924" cy="18.928795463152188" r="20" stroke-width="0.15"></circle><circle cx="-7.822094409803122" cy="18.40692367138319" r="20" stroke-width="0.15"></circle><circle cx="-9.144846466092769" cy="17.78684297765038" r="20" stroke-width="0.15"></circle><circle cx="-10.418806809758603" cy="17.071861780746932" r="20" stroke-width="0.15"></circle><circle cx="-11.63717831115906" cy="16.265794814711306" r="20" stroke-width="0.15"></circle><circle cx="-12.793460431177827" cy="15.372942795570639" r="20" stroke-width="0.15"></circle><circle cx="-13.88148390441268" cy="14.398069475159916" r="20" stroke-width="0.15"></circle><circle cx="-14.895443654875642" cy="13.346376224444782" r="20" stroke-width="0.15"></circle><circle cx="-15.82992976858508" cy="12.223474281956987" r="20" stroke-width="0.15"></circle><circle cx="-16.679956357797558" cy="11.035354815408922" r="20" stroke-width="0.15"></circle><circle cx="-17.440988162876153" cy="9.788356956221708" r="20" stroke-width="0.15"></circle><circle cx="-18.10896474986294" cy="8.489133977516293" r="20" stroke-width="0.15"></circle><circle cx="-18.680322174650964" cy="7.144617796022649" r="20" stroke-width="0.15"></circle><circle cx="-19.15201199816812" cy="5.761981987304746" r="20" stroke-width="0.15"></circle><circle cx="-19.521517551118542" cy="4.348603511631136" r="20" stroke-width="0.15"></circle><circle cx="-19.786867361502203" cy="2.9120233547000876" r="20" stroke-width="0.15"></circle><circle cx="-19.946645673271032" cy="1.4599062932181512" r="20" stroke-width="0.15"></circle><circle cx="-20" cy="2.4492935982947065e-15" r="20" stroke-width="0.15"></circle><circle cx="-19.946645673271032" cy="-1.459906293218155" r="20" stroke-width="0.15"></circle><circle cx="-19.786867361502203" cy="-2.9120233547001" r="20" stroke-width="0.15"></circle><circle cx="-19.521517551118542" cy="-4.348603511631149" r="20" stroke-width="0.15"></circle><circle cx="-19.15201199816812" cy="-5.76198198730475" r="20" stroke-width="0.15"></circle><circle cx="-18.68032217465096" cy="-7.144617796022653" r="20" stroke-width="0.15"></circle><circle cx="-18.10896474986293" cy="-8.489133977516305" r="20" stroke-width="0.15"></circle><circle cx="-17.440988162876153" cy="-9.788356956221712" r="20" stroke-width="0.15"></circle><circle cx="-16.679956357797565" cy="-11.035354815408912" r="20" stroke-width="0.15"></circle><circle cx="-15.829929768585082" cy="-12.223474281956985" r="20" stroke-width="0.15"></circle><circle cx="-14.895443654875628" cy="-13.346376224444798" r="20" stroke-width="0.15"></circle><circle cx="-13.881483904412676" cy="-14.398069475159918" r="20" stroke-width="0.15"></circle><circle cx="-12.793460431177833" cy="-15.372942795570637" r="20" stroke-width="0.15"></circle><circle cx="-11.637178311159058" cy="-16.265794814711306" r="20" stroke-width="0.15"></circle><circle cx="-10.4188068097586" cy="-17.071861780746932" r="20" stroke-width="0.15"></circle><circle cx="-9.144846466092774" cy="-17.786842977650377" r="20" stroke-width="0.15"></circle><circle cx="-7.8220944098031175" cy="-18.40692367138319" r="20" stroke-width="0.15"></circle><circle cx="-6.457608095428915" cy="-18.92879546315219" r="20" stroke-width="0.15"></circle><circle cx="-5.058667647833599" cy="-19.34967394114851" r="20" stroke-width="0.15"></circle><circle cx="-3.632737019588723" cy="-19.667313536589322" r="20" stroke-width="0.15"></circle><circle cx="-2.187424167557493" cy="-19.880019504798916" r="20" stroke-width="0.15"></circle><circle cx="-0.730440461153175" cy="-19.986656967404787" r="20" stroke-width="0.15"></circle><circle cx="0.7304404611531854" cy="-19.986656967404787" r="20" stroke-width="0.15"></circle><circle cx="2.187424167557503" cy="-19.880019504798916" r="20" stroke-width="0.15"></circle><circle cx="3.632737019588734" cy="-19.667313536589322" r="20" stroke-width="0.15"></circle><circle cx="5.058667647833609" cy="-19.349673941148506" r="20" stroke-width="0.15"></circle><circle cx="6.457608095428925" cy="-18.928795463152184" r="20" stroke-width="0.15"></circle><circle cx="7.82209440980311" cy="-18.406923671383193" r="20" stroke-width="0.15"></circle><circle cx="9.144846466092767" cy="-17.78684297765038" r="20" stroke-width="0.15"></circle><circle cx="10.41880680975861" cy="-17.071861780746925" r="20" stroke-width="0.15"></circle><circle cx="11.637178311159067" cy="-16.2657948147113" r="20" stroke-width="0.15"></circle><circle cx="12.793460431177838" cy="-15.37294279557063" r="20" stroke-width="0.15"></circle><circle cx="13.88148390441267" cy="-14.398069475159925" r="20" stroke-width="0.15"></circle><circle cx="14.895443654875645" cy="-13.346376224444779" r="20" stroke-width="0.15"></circle><circle cx="15.829929768585096" cy="-12.22347428195697" r="20" stroke-width="0.15"></circle><circle cx="16.679956357797565" cy="-11.035354815408908" r="20" stroke-width="0.15"></circle><circle cx="17.440988162876153" cy="-9.788356956221712" r="20" stroke-width="0.15"></circle><circle cx="18.108964749862935" cy="-8.489133977516296" r="20" stroke-width="0.15"></circle><circle cx="18.680322174650964" cy="-7.144617796022644" r="20" stroke-width="0.15"></circle><circle cx="19.152011998168128" cy="-5.761981987304732" r="20" stroke-width="0.15"></circle><circle cx="19.521517551118542" cy="-4.348603511631147" r="20" stroke-width="0.15"></circle><circle cx="19.786867361502203" cy="-2.912023354700098" r="20" stroke-width="0.15"></circle><circle cx="19.946645673271036" cy="-1.459906293218127" r="20" stroke-width="0.15"></circle><circle cx="20" cy="-4.898587196589413e-15" r="20" stroke-width="0.15"></circle></g></svg>